<svg xmlns="http://www.w3.org/2000/svg" xmlns:xlink="http://www.w3.org/1999/xlink" viewBox="0 0 227.16 54.89"><defs><style>.cls-1{fill:url(#未命名漸層_2742);}.cls-2{fill:#fff;}</style><linearGradient id="未命名漸層_2742" y1="27.45" x2="227.16" y2="27.45" gradientUnits="userSpaceOnUse"><stop offset="0" stop-color="#6a82ff"/><stop offset="1" stop-color="#197ec1"/></linearGradient></defs><g id="圖層_2" data-name="圖層 2"><g id="內頁"><path class="cls-1" d="M227.16,54.89H68.22C35.14,54.89,4.6,30.32,0,0H159C192,0,222.56,24.58,227.16,54.89Z"/><path class="cls-2" d="M70.28,17.21a43.56,43.56,0,0,1,6.44,7L74.25,26A19.77,19.77,0,0,0,73,24.17c-13,.62-14.73.67-16,1.1A21,21,0,0,0,56,22.53a5,5,0,0,0,2-1.39,32.12,32.12,0,0,0,5.19-6.53l2.93,1.23A39.54,39.54,0,0,1,60.81,22l10-.31c-1-1.06-1.93-2.07-2.84-3ZM57.75,26.86h16.5V37.37H71.11v-1.2H60.74v1.22h-3Zm3,2.73v3.84H71.11V29.59Z"/><path class="cls-2" d="M101.76,19.15v12H98.7v-1.2H93.17v7.49H90.09V29.93H84.58v1.32H81.64V19.15h8.45V15h3.08v4.15Zm-11.67,8V22H84.58v5.16Zm8.61,0V22H93.17v5.16Z"/><path class="cls-2" d="M122.06,15.36a14.86,14.86,0,0,0,7,8.64A16.29,16.29,0,0,0,127,26.64a18.73,18.73,0,0,1-1.86-1.39c-.27,7.08-.56,9.84-1.42,10.82a2.91,2.91,0,0,1-2.22,1.15,26,26,0,0,1-3.7.08,6.81,6.81,0,0,0-.95-2.88c1.34.09,2.62.12,3.23.12a1.13,1.13,0,0,0,1-.34c.49-.53.76-2.66,1-7.66h-4.83c-.61,4.61-2.2,8.72-8.54,11a9.52,9.52,0,0,0-1.93-2.64c5.53-1.75,6.8-4.92,7.29-8.4h-4.13V25a17.49,17.49,0,0,1-1.84,1.73,18.86,18.86,0,0,0-2.45-2.12,16.87,16.87,0,0,0,6.07-8.76l3.06.72a24.59,24.59,0,0,1-3.84,7.23H123.6A20,20,0,0,1,119.9,18H116V15.36Z"/><path class="cls-2" d="M141.3,16.56A36.09,36.09,0,0,1,134,27.07a29.06,29.06,0,0,0-2.59-2.45A25.11,25.11,0,0,0,138,15.53Zm6.85,11a74.87,74.87,0,0,1,5.43,8.29l-3,1.56a25.11,25.11,0,0,0-1.27-2.36c-11.82.92-13.48,1.06-14.68,1.52a26.58,26.58,0,0,0-1.2-3.08,5.37,5.37,0,0,0,2.42-1.92,43.39,43.39,0,0,0,6-9.09l3.4,1.41a54.26,54.26,0,0,1-6.61,9l9-.58c-.78-1.2-1.59-2.45-2.35-3.5Zm.47-12a15.57,15.57,0,0,0,6.29,8.55A14.73,14.73,0,0,0,152.7,27a21.41,21.41,0,0,1-6.34-8.47h-3.91v-3Z"/><path class="cls-2" d="M178.55,33.79c0,1.63-.29,2.5-1.34,3s-2.57.58-4.75.55a11.81,11.81,0,0,0-1-3.09c1.37.09,3,.07,3.45,0s.61-.12.61-.53V19.15H158.48V16.44h20.07Zm-5.43-10.44H158.73v-2.5h14.39Zm-10.3,9.89V35H160V25.13h11.87v8.11Zm0-5.67v3.22H169V27.57Z"/></g></g></svg>