<svg xmlns="http://www.w3.org/2000/svg" xmlns:xlink="http://www.w3.org/1999/xlink" viewBox="0 0 227.16 54.89"><defs><style>.cls-1{fill:url(#未命名漸層_2742);}.cls-2{fill:#fff;}</style><linearGradient id="未命名漸層_2742" y1="27.45" x2="227.16" y2="27.45" gradientUnits="userSpaceOnUse"><stop offset="0" stop-color="#6a82ff"/><stop offset="1" stop-color="#197ec1"/></linearGradient></defs><g id="圖層_2" data-name="圖層 2"><g id="內頁"><path class="cls-1" d="M227.16,54.89H68.22C35.14,54.89,4.6,30.32,0,0H159C192,0,222.56,24.58,227.16,54.89Z"/><path class="cls-2" d="M76.77,17.23v2.4H55.15v-2.4h9.43c-.2-.58-.39-1.18-.59-1.68l3-.72c.27.74.66,1.63,1,2.4ZM76.2,34.8c0,1.25-.31,1.75-1.24,2.11a13.6,13.6,0,0,1-3.9.29,8.86,8.86,0,0,0-.85-2h-7v1h-2.7V29.86H71.16v5.32h-.34c.86,0,1.71,0,2,0s.49-.09.49-.4V29H58.65v8.42H55.84V26.66H76.2Zm-2.35-9.12H58.41V20.54H73.85Zm-3.06-3.22H61.32v1.32h9.47Zm-2.2,9.39H63.21v1.37h5.38Z"/><path class="cls-2" d="M102.89,36.31H95v1.13H92.46V23.59a18.69,18.69,0,0,1-1.47,2,19.15,19.15,0,0,0-1.56-2.31,18.3,18.3,0,0,0,1.46-2H86.1c-.76,4.63-2,8.69-3.85,11.54a26.83,26.83,0,0,0-2.42-1.63c1.74-2.4,2.84-5.9,3.5-9.91h-2.5V18.5h2.89c.15-1.15.25-2.33.35-3.53l2.79.22c-.1,1.13-.22,2.23-.37,3.31h4.8v2.09a25,25,0,0,0,2.34-5.47l2.48.67a36.6,36.6,0,0,1-1.42,3.65h3.25a23.53,23.53,0,0,0-1.39-3.36L99,15.33a20.55,20.55,0,0,1,1.52,3.29l-2.23.82h4.38v2.49H100v2.33h2.55v2.4H100V29h2.57v2.4H100v2.35h2.87ZM90.14,28.06a64.43,64.43,0,0,1,2,7.75l-2.3.81c-.07-.48-.17-1-.29-1.6-4.58.76-5.44,1-6,1.29a17.41,17.41,0,0,0-.86-2.37c.52-.17.88-.84,1.35-1.85a38.7,38.7,0,0,0,2.64-8.43l2.77.58a41.47,41.47,0,0,1-1.45,4.51Zm-1.08,4.72c-.32-1.34-.69-2.71-1-3.91-.59,1.54-1.25,3-1.89,4.35Zm6-10.85v2.33h2.42V21.93Zm2.42,4.73H95V29h2.42ZM95,33.72h2.42V31.37H95Z"/><path class="cls-2" d="M122.06,15.36a14.86,14.86,0,0,0,7,8.64A16.29,16.29,0,0,0,127,26.64a18.73,18.73,0,0,1-1.86-1.39c-.27,7.08-.56,9.84-1.42,10.82a2.91,2.91,0,0,1-2.22,1.15,26,26,0,0,1-3.7.08,6.81,6.81,0,0,0-.95-2.88c1.34.09,2.62.12,3.23.12a1.13,1.13,0,0,0,1-.34c.49-.53.76-2.66,1-7.66h-4.83c-.61,4.61-2.2,8.72-8.54,11a9.73,9.73,0,0,0-1.93-2.64c5.53-1.75,6.8-4.92,7.29-8.4h-4.13V25a17.49,17.49,0,0,1-1.84,1.73,18.86,18.86,0,0,0-2.45-2.12,16.87,16.87,0,0,0,6.07-8.76l3.06.72a24.59,24.59,0,0,1-3.84,7.23H123.6A20,20,0,0,1,119.9,18H116V15.36Z"/><path class="cls-2" d="M141.3,16.56A36.09,36.09,0,0,1,134,27.07a29.06,29.06,0,0,0-2.59-2.45A25.11,25.11,0,0,0,138,15.53Zm6.85,11a74.87,74.87,0,0,1,5.43,8.29l-3,1.56a25.11,25.11,0,0,0-1.27-2.36c-11.82.92-13.48,1.06-14.68,1.52a26.58,26.58,0,0,0-1.2-3.08,5.37,5.37,0,0,0,2.42-1.92,43.39,43.39,0,0,0,6-9.09l3.4,1.41a54.26,54.26,0,0,1-6.61,9l9-.58c-.78-1.2-1.59-2.45-2.35-3.5Zm.47-12a15.57,15.57,0,0,0,6.29,8.55A14.73,14.73,0,0,0,152.7,27a21.34,21.34,0,0,1-6.34-8.47h-3.91v-3Z"/><path class="cls-2" d="M178.55,33.79c0,1.63-.29,2.5-1.34,3s-2.57.58-4.75.55a11.81,11.81,0,0,0-1-3.09c1.37.09,3,.07,3.45,0s.61-.12.61-.53V19.15H158.48V16.44h20.07Zm-5.43-10.44H158.73v-2.5h14.39Zm-10.3,9.89V35H160V25.13h11.87v8.11Zm0-5.67v3.22H169V27.57Z"/></g></g></svg>