<svg xmlns="http://www.w3.org/2000/svg" xmlns:xlink="http://www.w3.org/1999/xlink" viewBox="0 0 1344.26 312.2"><defs><style>.cls-1{fill:url(#未命名漸層_718);}.cls-2{fill:url(#未命名漸層_2742);}.cls-3{fill:#fff;}.cls-4{fill:url(#未命名漸層_2742-2);}.cls-5{fill:url(#未命名漸層_2742-3);}.cls-6{fill:#14899b;}</style><radialGradient id="未命名漸層_718" cx="672.13" cy="91.87" r="745.55" gradientTransform="translate(0 50.59) scale(1 1.29)" gradientUnits="userSpaceOnUse"><stop offset="0" stop-color="#fff"/><stop offset="0.4" stop-color="#fdfdfd"/><stop offset="0.6" stop-color="#f5f7f8"/><stop offset="0.76" stop-color="#e8ebef"/><stop offset="0.89" stop-color="#d5dce2"/><stop offset="1" stop-color="#bfc9d3"/></radialGradient><linearGradient id="未命名漸層_2742" x1="150.66" y1="110.63" x2="377.82" y2="110.63" gradientUnits="userSpaceOnUse"><stop offset="0" stop-color="#6a82ff"/><stop offset="1" stop-color="#197ec1"/></linearGradient><linearGradient id="未命名漸層_2742-2" x1="161.91" y1="177.05" x2="389.07" y2="177.05" xlink:href="#未命名漸層_2742"/><linearGradient id="未命名漸層_2742-3" x1="168.72" y1="243.46" x2="395.88" y2="243.46" xlink:href="#未命名漸層_2742"/></defs><g id="圖層_2" data-name="圖層 2"><g id="內頁"><rect class="cls-1" y="25.54" width="1344.26" height="286.67" rx="27.99"/><path class="cls-2" d="M377.82,138.08H218.87c-33.07,0-63.61-24.58-68.21-54.89H309.6c33.07,0,63.61,24.57,68.22,54.89Z"/><path class="cls-3" d="M220.94,100.39a43.92,43.92,0,0,1,6.43,7l-2.47,1.75c-.32-.53-.76-1.15-1.27-1.83-13,.63-14.74.68-16,1.11a21.15,21.15,0,0,0-1-2.74,5,5,0,0,0,2-1.39,32.06,32.06,0,0,0,5.19-6.53L216.8,99a40.07,40.07,0,0,1-5.34,6.12l10-.32c-1-1-1.93-2.06-2.84-3ZM208.4,110h16.5v10.51h-3.13v-1.2H211.39v1.23h-3Zm3,2.74v3.84h10.38v-3.84Z"/><path class="cls-3" d="M241.57,113.69l.52,2.54c-3.45,1.47-7.22,2.93-10.11,4.06l-1.3-2.93c1.64-.5,4-1.29,6.49-2.13v-8.52h-5.66v-2.86h5.66V98.57h3v15.6Zm8,3.41c.91,0,1.06-1.13,1.2-5.43a8.57,8.57,0,0,0,2.79,1.35c-.27,5-.95,6.86-3.72,6.86h-2.91c-2.69,0-3.5-1-3.5-4.32v-17h3v5.24h6.39v2.83h-6.39v8.93c0,1.29.13,1.51.93,1.51Z"/><path class="cls-3" d="M263.73,113c-.05-.36-.15-.77-.25-1.22-4.7.93-5.48,1.17-6,1.46a19.21,19.21,0,0,0-.85-2.3c.61-.15,1.12-.72,1.88-1.64a23.73,23.73,0,0,0,1.57-2.13,9.24,9.24,0,0,0-2.79.53c-.15-.51-.57-1.71-.83-2.36.44-.14.85-.6,1.34-1.32a27.13,27.13,0,0,0,2.79-5.88l2.52,1a29.59,29.59,0,0,1-3.3,5.89l1.71-.12c.59-1.06,1.2-2.16,1.69-3.27l2.3,1.23a45.29,45.29,0,0,1-5,7.32l2.45-.44c-.15-.55-.32-1.1-.49-1.56l1.93-.55a30.91,30.91,0,0,1,1.37,4.66Zm-3.92,1.32a25.93,25.93,0,0,1-1.22,5.79,13.6,13.6,0,0,0-2-.68,19.09,19.09,0,0,0,1.17-5.45Zm2.28-.5c.29,1.6.54,3.64.64,5l-2,.48a37.86,37.86,0,0,0-.56-5Zm2.28-.56a32.59,32.59,0,0,1,.9,3.75,20.41,20.41,0,0,0,.93-3.41l2,.67a24.82,24.82,0,0,1-1.69,5.52l-2.06-1a10.55,10.55,0,0,0,.76-1.68l-1.83.55a32.92,32.92,0,0,0-.86-3.91Zm13.14,6.12c-.22-.72-.54-1.63-.91-2.56-.24,2.64-.88,3.36-2.64,3.36h-2.77c-2.32,0-2.88-.65-2.88-2.64v-3.87h2.39v3.84c0,.6.13.67.84.67h2.15c.61,0,.76-.28.83-2.13l-1.37.69A42.29,42.29,0,0,0,271,113l1.66-.77H266.2V100.39h3.72a15.19,15.19,0,0,0,.71-2.4l3,.46c-.34.69-.71,1.34-1,1.94h5.8v11.79H273c.71,1.15,1.71,2.64,2.17,3.55l-.56.26a7.23,7.23,0,0,0,2,.8c-.34-.92-.73-1.85-1-2.64l1.94-.77c.71,1.63,1.56,3.69,2,5.09Zm-8.81-16.7V106a9.67,9.67,0,0,0,1.54-1.06c-.37-.38-.76-.76-1.15-1.1l1.44-.89q.48.41,1,.84a6,6,0,0,0,.73-1l1.74.32a12.18,12.18,0,0,1-1.32,1.8c.19.21.39.43.59.62a7.75,7.75,0,0,0,.95-1.27l1.54.26v-1.87Zm0,7.22h7v-5a12.47,12.47,0,0,1-1.42,1.85c.54.69,1.05,1.34,1.4,1.89l-1.54,1.08A14.67,14.67,0,0,0,273,108a17.51,17.51,0,0,1-2.75,1.83,3.93,3.93,0,0,0-1-1.23,14.54,14.54,0,0,0,2.79-1.85,4.8,4.8,0,0,0-.58-.62,14.38,14.38,0,0,1-1.79,1.22,4.81,4.81,0,0,0-.88-1Z"/><path class="cls-3" d="M292,99.75a36.07,36.07,0,0,1-7.29,10.51,27.68,27.68,0,0,0-2.59-2.45,25.24,25.24,0,0,0,6.63-9.1Zm6.86,11a76.28,76.28,0,0,1,5.43,8.28l-3,1.56c-.32-.67-.76-1.49-1.27-2.35-11.82.91-13.49,1.06-14.69,1.51a24.8,24.8,0,0,0-1.2-3.07,5.46,5.46,0,0,0,2.43-1.92,43.19,43.19,0,0,0,6-9.1l3.4,1.42a53.07,53.07,0,0,1-6.61,9l9-.57c-.79-1.2-1.59-2.45-2.35-3.51Zm.46-12a15.61,15.61,0,0,0,6.29,8.55,14.69,14.69,0,0,0-2.2,2.88,21.28,21.28,0,0,1-6.34-8.48H293.1V98.76Z"/><path class="cls-3" d="M329.21,117c0,1.63-.29,2.49-1.35,3s-2.57.57-4.74.55a11.54,11.54,0,0,0-1-3.1,32.66,32.66,0,0,0,3.45,0c.44,0,.61-.12.61-.53V102.34H309.14V99.62h20.07Zm-5.43-10.44H309.39V104h14.39Zm-10.31,9.89v1.72h-2.84v-9.84H322.5v8.12Zm0-5.67V114h6.17v-3.22Z"/><path class="cls-4" d="M389.07,204.49H230.13c-33.08,0-63.62-24.57-68.22-54.89H320.85c33.08,0,63.62,24.58,68.22,54.89Z"/><path class="cls-3" d="M232.19,166.81a44.46,44.46,0,0,1,6.44,7l-2.47,1.75a21.23,21.23,0,0,0-1.28-1.82c-13,.62-14.73.67-16,1.1a22.49,22.49,0,0,0-.95-2.73,5.2,5.2,0,0,0,2-1.39,32.78,32.78,0,0,0,5.19-6.53l2.93,1.22a39.54,39.54,0,0,1-5.33,6.12l10-.31c-.95-1.06-1.93-2.06-2.84-2.95Zm-12.53,9.65h16.5V187H233v-1.2H222.65V187h-3Zm3,2.73V183H233v-3.84Z"/><path class="cls-3" d="M263.67,168.75v12h-3.06v-1.2h-5.53V187H252v-7.49h-5.51v1.32h-2.94v-12.1H252V164.6h3.08v4.15Zm-11.67,8v-5.16h-5.51v5.16Zm8.61,0v-5.16h-5.53v5.16Z"/><path class="cls-3" d="M284,165a14.86,14.86,0,0,0,7,8.64,16.74,16.74,0,0,0-2.06,2.64,18.73,18.73,0,0,1-1.86-1.39c-.27,7.08-.56,9.84-1.42,10.82a2.89,2.89,0,0,1-2.22,1.16,24.84,24.84,0,0,1-3.7.07,6.86,6.86,0,0,0-1-2.88c1.34.09,2.62.12,3.23.12a1.13,1.13,0,0,0,1-.34c.49-.53.75-2.66,1-7.65h-4.83c-.61,4.6-2.2,8.71-8.54,11a9.43,9.43,0,0,0-1.93-2.64c5.53-1.76,6.8-4.92,7.29-8.4h-4.13v-1.59a17.49,17.49,0,0,1-1.84,1.73,18.07,18.07,0,0,0-2.45-2.11,16.91,16.91,0,0,0,6.07-8.76l3.06.72a24.54,24.54,0,0,1-3.84,7.22h12.68a19.9,19.9,0,0,1-3.7-5.74h-3.89V165Z"/><path class="cls-3" d="M303.21,166.16a35.82,35.82,0,0,1-7.3,10.51,27.61,27.61,0,0,0-2.59-2.44,25.24,25.24,0,0,0,6.63-9.1Zm6.85,11a76.28,76.28,0,0,1,5.43,8.28l-3,1.56a25.07,25.07,0,0,0-1.27-2.35c-11.82.91-13.48,1.05-14.68,1.51a25.81,25.81,0,0,0-1.2-3.07,5.52,5.52,0,0,0,2.42-1.92,43.81,43.81,0,0,0,6.05-9.1l3.4,1.42a54.17,54.17,0,0,1-6.61,9l9-.58c-.78-1.2-1.59-2.44-2.35-3.5Zm.47-12a15.54,15.54,0,0,0,6.29,8.54,15,15,0,0,0-2.21,2.88,21.34,21.34,0,0,1-6.34-8.47h-3.91v-2.95Z"/><path class="cls-3" d="M340.46,183.39c0,1.64-.29,2.5-1.34,3s-2.57.58-4.75.56a11.87,11.87,0,0,0-.95-3.1c1.37.1,3,.07,3.45.05s.61-.12.61-.53V168.75H320.39V166h20.07ZM335,173H320.64v-2.49H335Zm-10.3,9.89v1.73h-2.84v-9.84h11.87v8.11Zm0-5.66v3.21h6.16v-3.21Z"/><path class="cls-5" d="M395.88,270.91H236.94c-33.07,0-63.61-24.58-68.22-54.89h159c33.07,0,63.61,24.57,68.21,54.89Z"/><path class="cls-3" d="M245.49,233.25v2.4H223.88v-2.4h9.42c-.2-.58-.39-1.18-.59-1.68l3-.72c.27.74.66,1.63,1,2.4Zm-.56,17.57c0,1.25-.32,1.75-1.25,2.11a13.53,13.53,0,0,1-3.89.29,9.16,9.16,0,0,0-.86-2h-7v1h-2.69v-6.34h10.64v5.33h-.34c.86,0,1.71,0,2,0s.49-.09.49-.41V245H227.38v8.42h-2.82V242.68h20.37Zm-2.35-9.12H227.13v-5.14h15.45Zm-3.06-3.22H230v1.32h9.48Zm-2.21,9.39h-5.38v1.36h5.38Z"/><path class="cls-3" d="M271.61,252.33h-7.86v1.13h-2.57V239.61a18.69,18.69,0,0,1-1.47,2,19.15,19.15,0,0,0-1.56-2.31,20.92,20.92,0,0,0,1.47-2h-4.8c-.76,4.63-2,8.69-3.84,11.54a26.35,26.35,0,0,0-2.43-1.63c1.74-2.4,2.84-5.9,3.5-9.91h-2.49v-2.74h2.88c.15-1.15.25-2.33.35-3.53l2.79.22c-.1,1.13-.22,2.23-.37,3.31H260v2.09a25.56,25.56,0,0,0,2.35-5.47l2.47.67a36.6,36.6,0,0,1-1.42,3.65h3.25a22.42,22.42,0,0,0-1.39-3.36l2.47-.75a19.72,19.72,0,0,1,1.52,3.29l-2.23.82h4.38V238h-2.66v2.33h2.54v2.4h-2.54V245h2.56v2.4h-2.56v2.35h2.86Zm-12.75-8.26a62.73,62.73,0,0,1,2,7.76l-2.3.81c-.07-.48-.17-1-.29-1.61-4.58.77-5.43,1-5.95,1.3a19.37,19.37,0,0,0-.85-2.38c.51-.16.88-.84,1.34-1.84a39.34,39.34,0,0,0,2.65-8.43l2.76.58a43.7,43.7,0,0,1-1.44,4.51Zm-1.08,4.73c-.32-1.34-.68-2.71-1-3.91-.59,1.54-1.25,3-1.89,4.34Zm6-10.85v2.33h2.43V238Zm2.43,4.73h-2.43V245h2.43Zm-2.43,7.06h2.43v-2.35h-2.43Z"/><path class="cls-3" d="M290.78,231.38a14.86,14.86,0,0,0,7,8.64,15.71,15.71,0,0,0-2.05,2.64,16.66,16.66,0,0,1-1.86-1.39c-.27,7.08-.57,9.84-1.42,10.82a3,3,0,0,1-2.23,1.15,24.77,24.77,0,0,1-3.7.07,6.9,6.9,0,0,0-1-2.88c1.35.1,2.62.12,3.23.12a1.12,1.12,0,0,0,1-.33c.49-.53.76-2.67,1-7.66H286c-.62,4.61-2.21,8.71-8.55,11a9.52,9.52,0,0,0-1.93-2.64c5.53-1.75,6.8-4.92,7.29-8.4h-4.13V241a17.49,17.49,0,0,1-1.84,1.73,18.12,18.12,0,0,0-2.45-2.12,16.87,16.87,0,0,0,6.07-8.76l3.06.72a24.59,24.59,0,0,1-3.84,7.23h12.68a20,20,0,0,1-3.7-5.74h-3.89v-2.66Z"/><path class="cls-3" d="M310,232.58a36.26,36.26,0,0,1-7.29,10.51,29.21,29.21,0,0,0-2.6-2.45,25,25,0,0,0,6.64-9.1Zm6.85,11a74.14,74.14,0,0,1,5.44,8.29l-3,1.55c-.32-.67-.76-1.48-1.28-2.35-11.82.92-13.48,1.06-14.68,1.51a27.21,27.21,0,0,0-1.2-3.07,5.37,5.37,0,0,0,2.42-1.92,43.39,43.39,0,0,0,6.05-9.09l3.4,1.41a54.11,54.11,0,0,1-6.61,9l9-.58c-.78-1.2-1.59-2.45-2.35-3.5Zm.47-12a15.57,15.57,0,0,0,6.29,8.55,14.69,14.69,0,0,0-2.2,2.88,21.28,21.28,0,0,1-6.34-8.48h-3.92v-2.95Z"/><path class="cls-3" d="M347.28,249.81c0,1.63-.3,2.5-1.35,3s-2.57.58-4.75.55a11.81,11.81,0,0,0-.95-3.09c1.37.09,3,.07,3.45,0s.61-.12.61-.52V235.17H327.21v-2.71h20.07Zm-5.44-10.44H327.45v-2.5h14.39Zm-10.3,9.89V251H328.7v-9.84h11.87v8.11Zm0-5.67v3.22h6.17v-3.22Z"/><path d="M401.29,116.69h4V104.07h-3.19v-1.42a10.38,10.38,0,0,0,3.72-1.25h1.72v15.29h3.6v1.82h-9.84Z"/><path d="M415.12,109.9c0-5.74,2.13-8.81,5.6-8.81s5.58,3.1,5.58,8.81-2.1,8.93-5.58,8.93S415.12,115.63,415.12,109.9Zm9,0c0-5-1.37-7.06-3.4-7.06s-3.42,2-3.42,7.06,1.37,7.17,3.42,7.17S424.12,114.91,424.12,109.9Z"/><path d="M429.39,116.5l1.1-1.44A6,6,0,0,0,434.9,117a3.71,3.71,0,0,0,3.81-3.89,3.49,3.49,0,0,0-3.72-3.79,5,5,0,0,0-3,1.06l-1.2-.75.56-8.23h8.74v1.87h-6.78l-.44,5.12a5.23,5.23,0,0,1,2.67-.72c3,0,5.41,1.68,5.41,5.37a5.65,5.65,0,0,1-5.88,5.79A7.71,7.71,0,0,1,429.39,116.5Z"/><path d="M444.18,116.5l1.1-1.44a5.93,5.93,0,0,0,4.4,1.94,3.72,3.72,0,0,0,3.82-3.89,3.49,3.49,0,0,0-3.72-3.79,5,5,0,0,0-3,1.06l-1.19-.75.56-8.23h8.74v1.87h-6.78l-.44,5.12a5.2,5.2,0,0,1,2.66-.72c3,0,5.41,1.68,5.41,5.37a5.65,5.65,0,0,1-5.87,5.79A7.71,7.71,0,0,1,444.18,116.5Z"/><path d="M468.16,103.27h-8.68V101.4h11.23v1.35c-4.11,5.18-5,9.09-5.26,15.76h-2.33C463.42,112.06,464.74,108,468.16,103.27Z"/><path d="M489.14,101.16a38.55,38.55,0,0,1,6.46,7l-1.54,1.08a17.29,17.29,0,0,0-1.49-2.06c-14,.77-15.4.81-16.35,1.15a12.44,12.44,0,0,0-.59-1.75,4.75,4.75,0,0,0,2-1.42,39.58,39.58,0,0,0,5.63-6.77l1.79.79a52.2,52.2,0,0,1-6.26,7.06l12.48-.6a47.19,47.19,0,0,0-3.55-3.53Zm-11.62,9.15h15.56v10h-1.91V119H479.35v1.3h-1.83Zm1.83,1.7v5.3h11.82V112Z"/><path d="M510.29,114.43l.32,1.54c-3.5,1.49-7.29,3-10.11,4.13l-.83-1.75c1.76-.6,4.29-1.52,6.93-2.52v-9.58h-6.19V104.5h6.19V98.88h1.86v16.25Zm8.15,3.22c1.11,0,1.25-1.15,1.4-5.74a5,5,0,0,0,1.74.87c-.2,4.92-.64,6.62-3,6.62h-3.28c-2.1,0-2.71-.69-2.71-3.19V98.91h1.83v5.56h6.83v1.76h-6.83v10c0,1.2.17,1.42,1.1,1.42Z"/><path d="M537.49,103.68v3.24h7.93v8.4c0,1-.24,1.56-1,1.87a15.4,15.4,0,0,1-4.28.32,6.32,6.32,0,0,0-.64-1.78c1.67,0,3.14,0,3.55,0s.57-.15.57-.48v-6.63h-6.1v11.64h-1.83V108.67h-5.73v8.91h-1.81V106.92h7.54v-3.24h-9.92v-1.75h10.43a27.61,27.61,0,0,0-1.62-3.14l1.74-.53a19.57,19.57,0,0,1,1.91,3.55l-.32.12h9.72v1.75Z"/><path d="M558.45,115.66v2.71c0,.86-.17,1.3-.86,1.56a12.47,12.47,0,0,1-3.45.24,7.47,7.47,0,0,0-.56-1.51c1.32,0,2.44,0,2.76,0s.44-.09.44-.33V115.9l-5.38.69-.25-1.56,5.63-.62v-1.56a18.55,18.55,0,0,0,2.55-1.51h-7V110H561l.32-.08,1.05.75a18.94,18.94,0,0,1-3.91,2.81v.76l4.62-.57,0,1.44Zm4.89-12.87H551.69v-1.53h5.12a22.38,22.38,0,0,0-1-2.55l1.61-.38c.44.93.93,2.06,1.25,2.93h4.65ZM553,108.65V104h8.93v4.63Zm1.57-1.3h5.75v-2.06h-5.75Zm17-2.32a27,27,0,0,1-2.72,9.12,11.59,11.59,0,0,0,4.92,4.63,6.61,6.61,0,0,0-1.22,1.49,12.52,12.52,0,0,1-4.68-4.52,15.21,15.21,0,0,1-5.19,4.66,8.46,8.46,0,0,0-1.2-1.39,13.2,13.2,0,0,0,5.46-5,28.62,28.62,0,0,1-2.15-6.57,17.67,17.67,0,0,1-1.59,2.69,11.05,11.05,0,0,0-1.25-1.42c1.88-2.5,3.16-6.34,3.91-10.32l1.74.34a38.38,38.38,0,0,1-1.2,4.58h6.93V105Zm-5.73.07a29.17,29.17,0,0,0,2.06,7.17A28.41,28.41,0,0,0,569.8,105h-4Z"/><path d="M585.13,99.07a35.45,35.45,0,0,1-2.45,4.54v16.75h-1.76V106.15a28.85,28.85,0,0,1-3.3,3.65,13.49,13.49,0,0,0-1-1.77,27,27,0,0,0,6.85-9.51Zm10.33,18.85c1.37,0,1.56-1.06,1.76-5.17a5.08,5.08,0,0,0,1.69.82c-.29,4.44-.78,6-3.35,6h-4.65c-2.43,0-3.19-.7-3.19-3.24V98.81h1.77v6.53h8.69v1.73h-8.69v9.28c0,1.28.27,1.57,1.54,1.57Z"/><path d="M614.68,102.5v2.55h8.44v13.22c0,1.06-.27,1.54-1,1.81a15.4,15.4,0,0,1-4.14.28,7.92,7.92,0,0,0-.66-1.61c1.54.08,3,.08,3.45,0s.56-.14.56-.53V106.71H606.13v13.63h-1.78V105.05h8.34V102.5H603v-1.67h9.66V98.45h2v2.38h9.74v1.67Zm-.17,13.25v4.13h-1.74v-4.13h-5.26v-1.48h5.26v-2.43H608v-1.46h7a25.16,25.16,0,0,0,1.69-3.36l1.57.43c-.54,1-1.1,2.09-1.66,2.93h3v1.46h-5v2.43H620v1.48ZM610.69,107a11.63,11.63,0,0,1,1.54,2.81l-1.49.53a12.43,12.43,0,0,0-1.5-2.91Z"/><path d="M648.85,101.3a18.24,18.24,0,0,1-3.57,6.39,16.33,16.33,0,0,0,5.58,3.53,6.78,6.78,0,0,0-1.13,1.46l-.78-.36v7.92h-1.74v-.79h-6.12v.86H639.4v-8c-.49.26-1,.48-1.47.69a5,5,0,0,0-.88-1.2h-2.57v4.3c1-.24,2.13-.48,3.21-.74l.17,1.6c-3.33.8-6.8,1.61-9.37,2.24l-.35-1.73,1.25-.27V109h1.54v7.87l1.89-.43v-9.7h-3.43V99.43h7.91v6.36a17.48,17.48,0,0,0,4.43-7.37l1.73.41c-.24.7-.51,1.39-.78,2h4.72l.32-.07ZM631,105.19h4.6V101H631Zm6.48,6.17a17.58,17.58,0,0,0,5.56-3.74,21.41,21.41,0,0,1-2.25-3.29,17.54,17.54,0,0,1-2.23,2.76A10.59,10.59,0,0,0,637.3,106v.72h-2.82v3.46h3Zm10.31.34a18.66,18.66,0,0,1-3.63-2.83,19.35,19.35,0,0,1-3.67,2.83Zm-.59,6.17v-4.61h-6.12v4.61Zm-5.29-15.44-.24.46a19.41,19.41,0,0,0,2.42,3.6,15.34,15.34,0,0,0,2.52-4.06Z"/><path d="M676.22,108.19v2H654v-2Z"/><path d="M689.17,114.89c-2,.31-4.06.67-5.95,1V120h-1.76v-3.89l-1.76.29-.27-1.68,2-.26v-13.9l0,0v0a34.8,34.8,0,0,0,6.41-2.26l1.47,1.35a43.84,43.84,0,0,1-6.17,2v2.62h5.49v1.58h-5.49v3.29h5.46v1.58h-5.46v3.48l5.88-.84Zm11-5.28a14.1,14.1,0,0,1-3.59,6.7,14.62,14.62,0,0,0,5.38,2.47,5.92,5.92,0,0,0-1.12,1.53,15.4,15.4,0,0,1-5.54-2.88,17.4,17.4,0,0,1-6.16,3,5.46,5.46,0,0,0-.93-1.54,15.26,15.26,0,0,0,5.82-2.64,15.32,15.32,0,0,1-3.23-5.23l.91-.24H690v-1.54h8.74l.32-.07Zm-6.77-7.37a7.36,7.36,0,0,1-3.21,6.53,8.45,8.45,0,0,0-1.25-1.13,6,6,0,0,0,2.77-5.45V99.31h6.78v6.08c0,.62.07.81.41.81h1.64a5.82,5.82,0,0,0,1.13-.09c0,.4.07,1,.14,1.39a4.9,4.9,0,0,1-1.24.09h-1.84c-1.61,0-1.93-.62-1.93-2.25v-4.47h-3.4Zm-1.08,8.57a12.53,12.53,0,0,0,3,4.39,11.43,11.43,0,0,0,2.74-4.39Z"/><path d="M706.33,116.69h4V104.07h-3.18v-1.42a10.52,10.52,0,0,0,3.72-1.25h1.71v15.29h3.6v1.82h-9.84Z"/><path d="M720.16,109.9c0-5.74,2.13-8.81,5.61-8.81s5.58,3.1,5.58,8.81-2.11,8.93-5.58,8.93S720.16,115.63,720.16,109.9Zm9,0c0-5-1.37-7.06-3.4-7.06s-3.43,2-3.43,7.06,1.37,7.17,3.43,7.17S729.17,114.91,729.17,109.9Z"/><path d="M734.85,114.15c0-2.24,1.67-3.77,3.31-4.64v-.09a4.78,4.78,0,0,1-2.43-4c0-2.62,2.13-4.37,4.92-4.37,3.06,0,4.92,1.87,4.92,4.54a5.57,5.57,0,0,1-2.4,4.12v.12c1.54.92,3,2.12,3,4.4,0,2.56-2.25,4.56-5.63,4.56S734.85,116.86,734.85,114.15Zm9.23.07c0-2.23-2.2-3-4.75-4a4.54,4.54,0,0,0-2.45,3.74c0,1.88,1.59,3.24,3.75,3.24S744.08,116,744.08,114.22Zm-.42-8.47a2.87,2.87,0,0,0-3-3,2.67,2.67,0,0,0-2.87,2.74c0,2.06,1.94,2.93,4,3.74A4.61,4.61,0,0,0,743.66,105.75Z"/><path d="M757.42,111.65s0,.48,0,.72c-.34,4.61-.68,6.43-1.32,7.08a1.84,1.84,0,0,1-1.42.63,18.06,18.06,0,0,1-2.4,0,3.94,3.94,0,0,0-.44-1.49c.93.07,1.84.1,2.18.1a1,1,0,0,0,.78-.24c.39-.39.69-1.83,1-5.33h-4.94a37.28,37.28,0,0,0,.93-3.86h-2.11v-1.59h8.79v1.59h-5.12c-.14.81-.34,1.68-.49,2.42Zm.39-5.88h-7V99.48h7Zm-1.44-4.94h-4.21v3.6h4.21Zm4.7,8.42c0,3.29-.35,8-2.48,11.14a6.09,6.09,0,0,0-1.37-1c2-3,2.23-7.08,2.23-10.17v-6.08h4.8V98.42H766v1.69h4.92v1.46H766v1.58h4.73l.29-.07,1.1.29c-.29,1.42-.71,3.07-1,4.15l-1.37-.33a22.83,22.83,0,0,0,.54-2.57h-9.15Zm3.5,3c-.2,3.82-.79,6.5-3.43,8.09a4.53,4.53,0,0,0-1-1.18c2.3-1.32,2.76-3.62,2.91-6.91Zm4.33-2.59a9.36,9.36,0,0,0,1.49-.12c.05.43.1.91.15,1.32A5.91,5.91,0,0,1,769,111H766c-1.57,0-1.91-.65-1.91-2.19v-.74l-2.4.24-.17-1.27,2.57-.27v-2h1.56v1.83l3.16-.32.17,1.28-3.33.33v.91c0,.65.1.87.61.87Zm.81,8.57a1.44,1.44,0,0,0,.63-.1.67.67,0,0,0,.32-.5,15.49,15.49,0,0,0,.1-2.4,3.72,3.72,0,0,0,1.35.72,15.67,15.67,0,0,1-.25,2.73,1.57,1.57,0,0,1-.73.91,3.43,3.43,0,0,1-1.28.24h-1.32a2.29,2.29,0,0,1-1.44-.38c-.39-.31-.47-.65-.47-1.75v-5.45h1.55v5.5a.36.36,0,0,0,.19.38,1,1,0,0,0,.51.1Z"/><path d="M775.32,114.15c0-2.24,1.66-3.77,3.3-4.64v-.09a4.77,4.77,0,0,1-2.42-4c0-2.62,2.13-4.37,4.92-4.37,3.06,0,4.92,1.87,4.92,4.54a5.6,5.6,0,0,1-2.4,4.12v.12c1.54.92,3,2.12,3,4.4,0,2.56-2.25,4.56-5.63,4.56S775.32,116.86,775.32,114.15Zm9.22.07c0-2.23-2.2-3-4.74-4a4.54,4.54,0,0,0-2.45,3.74c0,1.88,1.59,3.24,3.74,3.24S784.54,116,784.54,114.22Zm-.41-8.47a2.88,2.88,0,0,0-3-3,2.67,2.67,0,0,0-2.86,2.74c0,2.06,1.93,2.93,4,3.74A4.61,4.61,0,0,0,784.13,105.75Z"/><path d="M796.34,111.51a34.36,34.36,0,0,0-1.76-3.36v12.19h-1.66V108.67a34.86,34.86,0,0,1-2.28,6.75,12,12,0,0,0-.9-1.75,34.16,34.16,0,0,0,2.91-9h-2.57V103h2.84V98.42h1.66V103H797v1.68h-2.45V106c.64.84,2.45,3.63,2.87,4.27Zm13,3a7.92,7.92,0,0,1-2.15,2.91,46.13,46.13,0,0,1,4.82,1.77l-1.35,1.13a36.91,36.91,0,0,0-5-1.92,22.84,22.84,0,0,1-7.76,2,4.5,4.5,0,0,0-.69-1.32,25.38,25.38,0,0,0,6.44-1.37c-1.61-.45-3.23-.89-4.72-1.22.56-.58,1.22-1.27,1.83-2h-3.28v-1.41h4.38a16.33,16.33,0,0,0,1.23-1.78h-4.7V107.4H804v-1.2h-5v-2.47h-1.42v-1.39H799V100h5V98.42h1.71V100h5v2.38h1.52v1.39h-1.52v2.47h-5v1.2h5.63v3.89H805a21.41,21.41,0,0,1-1.2,1.78h4.38c.1-.34.2-.7.27-1h1.64c-.07.34-.17.7-.22,1h2.52v1.41Zm-9.3-4.39H804v-1.46h-3.89Zm.46-8.93v1.32H804v-1.32ZM804,105v-1.44h-3.43V105Zm-1.22,9.48c-.42.48-.79.94-1.15,1.35,1.24.28,2.57.62,3.89,1a6.32,6.32,0,0,0,2.15-2.35Zm2.93-13.32v1.32h3.38v-1.32Zm3.38,3.84v-1.44h-3.38V105Zm-3.38,3.63v1.46h3.92v-1.46Z"/><path d="M851.64,103.47H844v3.86h-1.74v-5.14h9.35v-1.53h-8.29V99.38H861.8v1.28h-8.39v1.53h9.52v5.14h-1.79v-3.86h-7.73v5.44h-1.77Zm8.94,15.12c1.29,0,1.54-.41,1.66-2.79a5,5,0,0,0,1.59.58c-.27,2.9-.81,3.65-3.13,3.65h-5.63c-2.72,0-3.5-.48-3.5-2.4v-.75h-5.41v1.25H844.4V109.8h16.5v7.08h-7.57v.75c0,.81.3,1,1.81,1Zm-16.11-11c1.54-.14,3.65-.45,5.8-.79l.08,1.13c-1.89.38-3.75.77-5.34,1.06Zm1.18-3.64a24.55,24.55,0,0,1,4.7,1.24l-.54,1.11a23.49,23.49,0,0,0-4.73-1.39Zm.51,7.15v1.63h5.41V111.1Zm5.41,4.49v-1.66h-5.41v1.66Zm7.54-4.49h-5.78v1.63h5.78Zm0,4.49v-1.66h-5.78v1.66Zm1-6.53a37.65,37.65,0,0,0-5.71-1.32l.44-1.08a32.53,32.53,0,0,1,5.68,1.17Zm0-4.23a28.93,28.93,0,0,1-4.77,1.37l-.64-.93a46,46,0,0,0,4.63-1.44Z"/><path d="M867.12,102.5h8.93V104h-8.93Zm8.1,4.57h-7.1v-1.42h7.1Zm-7.1,1.7h7.1v1.42h-7.1Zm7.29,10.13h-5.7V120h-1.59V112h7.29Zm-5.7-5.45v4h4.09v-4Zm2-11.21a24.3,24.3,0,0,0-1.81-3.19l1.4-.7a20.12,20.12,0,0,1,1.86,3.07Zm12,5.23v4h4.38v8.81h-1.77v-.87h-7v1h-1.66v-8.9h4.38v-4h-5.31v-1.7h5.31V101.5c-1.59.24-3.21.45-4.7.62a6.72,6.72,0,0,0-.47-1.44A50.93,50.93,0,0,0,887,98.59l1.17,1.42a34.18,34.18,0,0,1-4.45,1.18v4.58h5.67v1.7Zm2.61,5.62h-7v4.68h7Z"/><path d="M896,103.66a1.85,1.85,0,0,1,3.7,0,1.85,1.85,0,0,1-3.7,0Zm0,11.76a1.85,1.85,0,1,1,1.84,1.8A1.8,1.8,0,0,1,896,115.42Z"/><path d="M907.41,111.05A22.14,22.14,0,0,1,911,98.88l1.4.62a22.79,22.79,0,0,0,0,23.09l-1.4.65A22.18,22.18,0,0,1,907.41,111.05Z"/><path d="M915.83,109.9c0-5.74,2.13-8.81,5.61-8.81s5.58,3.1,5.58,8.81-2.11,8.93-5.58,8.93S915.83,115.63,915.83,109.9Zm9,0c0-5-1.37-7.06-3.4-7.06s-3.43,2-3.43,7.06,1.37,7.17,3.43,7.17S924.84,114.91,924.84,109.9Z"/><path d="M930.5,117.22c5.26-5.14,8.22-8.21,8.22-11a3,3,0,0,0-3.3-3.33,5.1,5.1,0,0,0-3.72,2l-1.3-1.23a6.91,6.91,0,0,1,5.28-2.59c3.21,0,5.22,2,5.22,5,0,3.21-3,6.4-7.12,10.68.93-.08,2-.17,2.93-.17h5.07v1.89H930.5Z"/><path d="M945.26,122.59a22.86,22.86,0,0,0,0-23.09l1.37-.62a22.3,22.3,0,0,1,0,24.36Z"/><path d="M954.78,114.15c0-2.24,1.66-3.77,3.3-4.64v-.09a4.8,4.8,0,0,1-2.42-4c0-2.62,2.13-4.37,4.92-4.37,3.06,0,4.92,1.87,4.92,4.54a5.6,5.6,0,0,1-2.4,4.12v.12c1.54.92,3,2.12,3,4.4,0,2.56-2.26,4.56-5.63,4.56S954.78,116.86,954.78,114.15Zm9.23.07c0-2.23-2.21-3-4.75-4a4.54,4.54,0,0,0-2.45,3.74c0,1.88,1.59,3.24,3.75,3.24S964,116,964,114.22Zm-.42-8.47a2.87,2.87,0,0,0-3-3,2.67,2.67,0,0,0-2.87,2.74c0,2.06,1.94,2.93,4,3.74A4.61,4.61,0,0,0,963.59,105.75Z"/><path d="M978.35,103.27h-8.69V101.4H980.9v1.35c-4.11,5.18-5,9.09-5.27,15.76h-2.32C973.6,112.06,974.92,108,978.35,103.27Z"/><path d="M993.14,103.27h-8.69V101.4h11.23v1.35c-4.11,5.18-5,9.09-5.26,15.76h-2.33C988.39,112.06,989.71,108,993.14,103.27Z"/><path d="M1000.19,116.69h4V104.07H1001v-1.42a10.52,10.52,0,0,0,3.72-1.25h1.71v15.29h3.6v1.82h-9.84Z"/><path d="M1014,111h6.26v1.68H1014Z"/><path d="M1023.83,110.62c0-6.89,3.16-9.53,6.66-9.53a5.58,5.58,0,0,1,4.19,1.8l-1.25,1.37a3.82,3.82,0,0,0-2.86-1.35c-2.48,0-4.53,1.85-4.63,7.3a5.67,5.67,0,0,1,4.09-2.14c3,0,5,1.78,5,5.26a5.2,5.2,0,0,1-5.14,5.5C1026.41,118.83,1023.83,116.09,1023.83,110.62ZM1026,112c.29,3.33,1.64,5.13,3.84,5.13,1.74,0,3.06-1.51,3.06-3.79s-1.08-3.62-3.23-3.62A4.59,4.59,0,0,0,1026,112Z"/><path d="M1038.62,110.62c0-6.89,3.16-9.53,6.66-9.53a5.54,5.54,0,0,1,4.18,1.8l-1.24,1.37a3.83,3.83,0,0,0-2.87-1.35c-2.47,0-4.53,1.85-4.62,7.3a5.64,5.64,0,0,1,4.08-2.14c3,0,5,1.78,5,5.26a5.2,5.2,0,0,1-5.14,5.5C1041.19,118.83,1038.62,116.09,1038.62,110.62Zm2.16,1.37c.29,3.33,1.64,5.13,3.84,5.13,1.74,0,3.06-1.51,3.06-3.79s-1.08-3.62-3.23-3.62A4.59,4.59,0,0,0,1040.78,112Z"/><path d="M1053.19,114.15c0-2.24,1.66-3.77,3.3-4.64v-.09a4.77,4.77,0,0,1-2.42-4c0-2.62,2.13-4.37,4.92-4.37,3.06,0,4.92,1.87,4.92,4.54a5.6,5.6,0,0,1-2.4,4.12v.12c1.54.92,3,2.12,3,4.4,0,2.56-2.25,4.56-5.63,4.56S1053.19,116.86,1053.19,114.15Zm9.22.07c0-2.23-2.2-3-4.74-4a4.54,4.54,0,0,0-2.45,3.74c0,1.88,1.59,3.24,3.74,3.24S1062.41,116,1062.41,114.22Zm-.41-8.47a2.88,2.88,0,0,0-3-3,2.67,2.67,0,0,0-2.86,2.74c0,2.06,1.93,2.93,4,3.74A4.61,4.61,0,0,0,1062,105.75Z"/><path d="M1068,114.15c0-2.24,1.67-3.77,3.31-4.64v-.09a4.78,4.78,0,0,1-2.43-4c0-2.62,2.13-4.37,4.92-4.37,3.06,0,4.92,1.87,4.92,4.54a5.57,5.57,0,0,1-2.4,4.12v.12c1.54.92,3,2.12,3,4.4,0,2.56-2.25,4.56-5.63,4.56S1068,116.86,1068,114.15Zm9.23.07c0-2.23-2.2-3-4.75-4A4.54,4.54,0,0,0,1070,114c0,1.88,1.59,3.24,3.75,3.24S1077.2,116,1077.2,114.22Zm-.42-8.47a2.87,2.87,0,0,0-3-3,2.67,2.67,0,0,0-2.87,2.74c0,2.06,1.94,2.93,4,3.74A4.61,4.61,0,0,0,1076.78,105.75Z"/><path d="M407.7,180.45h-7.83V179l7.46-10.95h2.47v10.63h2.38v1.76H409.8v4.72h-2.1Zm0-1.76v-5c0-.89.07-2.35.12-3.27h-.1c-.44.82-.93,1.56-1.44,2.4l-4.09,5.88Z"/><path d="M415.36,176.56c0-5.74,2.13-8.81,5.61-8.81s5.58,3.1,5.58,8.81-2.11,8.93-5.58,8.93S415.36,182.29,415.36,176.56Zm9,0c0-5-1.37-7.06-3.4-7.06s-3.43,2-3.43,7.06,1.37,7.17,3.43,7.17S424.37,181.57,424.37,176.56Z"/><path d="M429.66,183.09l1.13-1.44a6,6,0,0,0,4.45,2c2.13,0,3.65-1.22,3.65-3.14s-1.45-3.39-5.58-3.39v-1.68c3.69,0,5-1.41,5-3.21s-1.17-2.71-3-2.71a5.33,5.33,0,0,0-3.72,1.72l-1.2-1.36a7.18,7.18,0,0,1,5-2.14c3,0,5.21,1.56,5.21,4.34a4.22,4.22,0,0,1-3.18,4.06v.1a4.5,4.5,0,0,1,3.79,4.36c0,3-2.57,4.88-5.75,4.88A7.52,7.52,0,0,1,429.66,183.09Z"/><path d="M444.42,183.16l1.1-1.44a6,6,0,0,0,4.41,1.94,3.72,3.72,0,0,0,3.82-3.89A3.49,3.49,0,0,0,450,176a5,5,0,0,0-3,1.06l-1.2-.75.56-8.23h8.74v1.87h-6.78l-.44,5.12a5.23,5.23,0,0,1,2.67-.72c3,0,5.41,1.68,5.41,5.37a5.65,5.65,0,0,1-5.88,5.79A7.71,7.71,0,0,1,444.42,183.16Z"/><path d="M468.41,169.93h-8.69v-1.87H471v1.35c-4.11,5.18-5,9.09-5.26,15.76h-2.32C463.66,178.72,465,174.64,468.41,169.93Z"/><path d="M489.39,167.82a38.92,38.92,0,0,1,6.46,7l-1.54,1.08a16.4,16.4,0,0,0-1.5-2.06c-14,.77-15.39.81-16.35,1.15a13.72,13.72,0,0,0-.58-1.75,4.81,4.81,0,0,0,2-1.42,40.05,40.05,0,0,0,5.63-6.77l1.79.79a53,53,0,0,1-6.27,7.06l12.48-.6a43.72,43.72,0,0,0-3.55-3.53ZM477.76,177h15.57v10h-1.91V185.7H479.6V187h-1.84Zm1.84,1.7V184h11.82v-5.3Z"/><path d="M521,169.36v11.23h-1.86v-1.37h-7V187h-1.89v-7.78h-7v1.49h-1.78V169.36h8.78v-4.28h1.89v4.28Zm-10.77,8.11v-6.36h-7v6.36Zm8.91,0v-6.36h-7v6.36Z"/><path d="M537.74,170.34v3.24h7.93V182c0,1-.25,1.56-1,1.87a15.44,15.44,0,0,1-4.29.32,6.63,6.63,0,0,0-.63-1.78c1.66.05,3.13.05,3.55.05s.56-.15.56-.48v-6.63h-6.09V187H535.9V175.33h-5.73v8.91h-1.81V173.58h7.54v-3.24H526v-1.75h10.42a29.21,29.21,0,0,0-1.61-3.14l1.74-.53a20.9,20.9,0,0,1,1.91,3.55l-.32.12h9.71v1.75Z"/><path d="M557.79,178.17c-.35-.77-1.08-2.16-1.72-3.29V187h-1.59V176.92a23.27,23.27,0,0,1-2.27,5.61,11.69,11.69,0,0,0-.93-1.51,29.35,29.35,0,0,0,3.15-9.21h-2.59v-1.64h2.64v-5.09h1.59v5.09h2.33v1.64h-2.33v1c.62.84,2.28,3.36,2.67,4Zm3.28,1.8,2.39-.65a19.21,19.21,0,0,0,.23-3.31v-6.89h1.51V176c0,3.58-.46,8.21-5.16,11a7.26,7.26,0,0,0-1-1.13,8.32,8.32,0,0,0,4.09-5c-2.94.94-3.5,1.18-3.84,1.44v0a6.51,6.51,0,0,0-.69-1.3,1.61,1.61,0,0,0,.93-1.56V167.92a36.82,36.82,0,0,0,5-2.76l1.39,1.08a34.91,34.91,0,0,1-4.84,2.45Zm11.84.81c0,.82-.14,1.3-.71,1.56a6.34,6.34,0,0,1-2.74.31,5.09,5.09,0,0,0-.51-1.51c.95,0,1.76,0,2,0s.37-.09.37-.38V168.85h-2.69V187H567V167.34h5.87Z"/><path d="M581.83,166.41v8.11c0,4.56-.37,9.12-3.53,12.67a6.87,6.87,0,0,0-1.49-1.25c2.86-3.21,3.18-7.34,3.18-11.45v-8.08Zm7.73,1v17.52h-1.83V167.39Zm8.2-1.06V187H595.9V166.33Z"/><path d="M617.34,168.4v3.43h6.17v15H621.7v-1.39H606.33v1.49h-1.79v-15.1h5.9V168.4h-7.19v-1.73h21.34v1.73Zm4.36,15.38v-4.1h-3.62c-2,0-2.47-.51-2.47-2.43v-3.76h-3.53a7.7,7.7,0,0,1-4.7,7.08,5,5,0,0,0-1-1.25v4.46Zm-15.37-10.29v5.8c3.26-1.58,4-3.74,4.09-5.8Zm9.28-5.09h-3.5v3.43h3.5Zm1.73,5.09v3.76c0,.63.1.72.93.72h2.94a2.92,2.92,0,0,0,.49,0v-4.46Z"/><path d="M649.09,168a18.08,18.08,0,0,1-3.57,6.39,16.53,16.53,0,0,0,5.58,3.53,6.44,6.44,0,0,0-1.12,1.46l-.79-.36v7.92h-1.74v-.79h-6.11V187h-1.69v-8c-.49.26-1,.48-1.47.69a5,5,0,0,0-.88-1.2h-2.57v4.3c1-.24,2.13-.48,3.2-.74l.17,1.6c-3.32.8-6.8,1.61-9.37,2.24l-.34-1.73,1.25-.27v-8.18h1.54v7.87l1.88-.43v-9.7h-3.42v-7.32h7.9v6.36a17.28,17.28,0,0,0,4.43-7.37l1.74.41c-.25.7-.51,1.39-.78,2h4.72l.32-.07Zm-17.84,3.89h4.6v-4.2h-4.6Zm6.49,6.17a17.43,17.43,0,0,0,5.55-3.74A22.15,22.15,0,0,1,641,171a16.48,16.48,0,0,1-2.23,2.76,9.85,9.85,0,0,0-1.27-1.06v.72h-2.81v3.46h3Zm10.3.34a18.29,18.29,0,0,1-3.62-2.83,19.67,19.67,0,0,1-3.67,2.83Zm-.59,6.17v-4.61h-6.11v4.61Zm-5.28-15.44-.25.46a19,19,0,0,0,2.43,3.6,15.87,15.87,0,0,0,2.52-4.06Z"/><path d="M676.1,182.68v1.94H654.53v-1.94ZM674,168.54v1.9H656.59v-1.9Z"/><path d="M689.42,181.55c-2,.31-4.07.67-5.95,1v4.15h-1.76v-3.89l-1.77.29-.27-1.68,2-.26v-13.9l0,0v0a34.92,34.92,0,0,0,6.42-2.26l1.47,1.35a43.84,43.84,0,0,1-6.17,2v2.62H689v1.58h-5.48v3.29h5.46v1.58h-5.46v3.48l5.87-.84Zm11-5.28a14.11,14.11,0,0,1-3.6,6.7,14.66,14.66,0,0,0,5.39,2.47A6.2,6.2,0,0,0,701,187a15.44,15.44,0,0,1-5.53-2.88,17.45,17.45,0,0,1-6.17,3,5.24,5.24,0,0,0-.93-1.54,15.23,15.23,0,0,0,5.83-2.64,15,15,0,0,1-3.23-5.23l.9-.24H690.2v-1.54h8.74l.31-.07Zm-6.78-7.37a7.34,7.34,0,0,1-3.21,6.53,7.9,7.9,0,0,0-1.24-1.13,6,6,0,0,0,2.76-5.45V166h6.78v6.08c0,.62.07.81.42.81h1.64a5.71,5.71,0,0,0,1.12-.09c0,.4.08,1,.15,1.39a5,5,0,0,1-1.25.09h-1.83c-1.62,0-1.94-.62-1.94-2.25v-4.47h-3.4Zm-1.08,8.57a12.69,12.69,0,0,0,3,4.39,11.67,11.67,0,0,0,2.74-4.39Z"/><path d="M706.58,183.35h4V170.73h-3.19v-1.42a10.51,10.51,0,0,0,3.73-1.25h1.71v15.29h3.6v1.82h-9.84Z"/><path d="M720.63,183.69l1.25-1.37a3.72,3.72,0,0,0,2.86,1.34c2.45,0,4.53-1.87,4.63-7.34a5.6,5.6,0,0,1-4.09,2.21c-3,0-5-1.8-5-5.31a5.2,5.2,0,0,1,5.14-5.47c3.45,0,6,2.74,6,8.23,0,6.87-3.16,9.51-6.64,9.51A5.51,5.51,0,0,1,720.63,183.69Zm5-6.8a4.74,4.74,0,0,0,3.67-2.32c-.3-3.32-1.67-5.09-3.89-5.09-1.72,0-3,1.49-3,3.74S723.47,176.89,725.65,176.89Z"/><path d="M735.32,177.28c0-6.89,3.15-9.53,6.65-9.53a5.58,5.58,0,0,1,4.19,1.8l-1.25,1.37a3.82,3.82,0,0,0-2.86-1.35c-2.47,0-4.53,1.85-4.63,7.3a5.67,5.67,0,0,1,4.09-2.14c3,0,5,1.78,5,5.26a5.2,5.2,0,0,1-5.14,5.5C737.89,185.49,735.32,182.75,735.32,177.28Zm2.15,1.37c.29,3.33,1.64,5.13,3.84,5.13,1.74,0,3.06-1.51,3.06-3.79s-1.07-3.62-3.23-3.62A4.62,4.62,0,0,0,737.47,178.65Z"/><path d="M757.67,178.31s0,.48,0,.72c-.35,4.61-.69,6.43-1.33,7.08a1.83,1.83,0,0,1-1.42.63,17.91,17.91,0,0,1-2.39,0,4.13,4.13,0,0,0-.44-1.49c.93.07,1.83.1,2.17.1a1,1,0,0,0,.79-.24c.39-.39.68-1.83,1-5.33h-5a37.28,37.28,0,0,0,.93-3.86h-2.1V174.3h8.78v1.59h-5.11c-.15.81-.34,1.68-.49,2.42Zm.39-5.88h-7v-6.29h7Zm-1.45-4.94H752.4v3.6h4.21Zm4.7,8.42c0,3.29-.34,8-2.47,11.14a6.09,6.09,0,0,0-1.37-1c2-2.95,2.23-7.08,2.23-10.17v-6.08h4.79v-4.73h1.72v1.69h4.92v1.46h-4.92v1.58h4.72l.29-.07,1.11.29c-.3,1.42-.71,3.07-1,4.15l-1.37-.33a25.29,25.29,0,0,0,.54-2.57h-9.16Zm3.5,3c-.19,3.82-.78,6.51-3.42,8.09a4.57,4.57,0,0,0-1.06-1.18c2.3-1.32,2.77-3.62,2.92-6.91Zm4.33-2.59a9.5,9.5,0,0,0,1.5-.12c.05.43.1.91.14,1.32a5.87,5.87,0,0,1-1.56.12h-2.94c-1.57,0-1.91-.65-1.91-2.19v-.74L762,175l-.17-1.27,2.57-.27v-2h1.57v1.83l3.16-.32.17,1.28-3.33.33v.91c0,.65.1.87.61.87Zm.81,8.57a1.49,1.49,0,0,0,.64-.1.7.7,0,0,0,.32-.5,14.61,14.61,0,0,0,.09-2.4,3.81,3.81,0,0,0,1.35.72,14.94,14.94,0,0,1-.24,2.73,1.59,1.59,0,0,1-.74.91,3.42,3.42,0,0,1-1.27.25h-1.32a2.34,2.34,0,0,1-1.45-.39c-.39-.31-.46-.65-.46-1.75v-5.45h1.54v5.5a.36.36,0,0,0,.2.38,1,1,0,0,0,.51.1Z"/><path d="M784.35,169.93h-8.69v-1.87h11.23v1.35c-4.11,5.18-5,9.09-5.26,15.76h-2.32C779.6,178.72,780.92,174.64,784.35,169.93Z"/><path d="M796.59,178.17a36.72,36.72,0,0,0-1.76-3.36V187h-1.67V175.33a34.9,34.9,0,0,1-2.27,6.75,12,12,0,0,0-.91-1.75,33.8,33.8,0,0,0,2.91-9h-2.57v-1.68h2.84v-4.61h1.67v4.61h2.44v1.68h-2.44v1.25c.63.84,2.44,3.63,2.86,4.27Zm13,3a7.7,7.7,0,0,1-2.15,2.91,44.49,44.49,0,0,1,4.82,1.77L811,187a37.65,37.65,0,0,0-5-1.92,22.7,22.7,0,0,1-7.75,2,4.75,4.75,0,0,0-.69-1.32,25.38,25.38,0,0,0,6.44-1.37c-1.62-.45-3.23-.88-4.73-1.22.57-.58,1.23-1.27,1.84-2h-3.28v-1.41h4.38a17.71,17.71,0,0,0,1.22-1.78h-4.7v-3.89h5.54v-1.2h-5v-2.47h-1.42V169h1.42v-2.38h5v-1.54h1.71v1.54h5V169h1.51v1.39H811v2.47h-5v1.2h5.63V178h-6.29a21.41,21.41,0,0,1-1.2,1.78h4.38c.1-.34.2-.7.27-1h1.64c-.07.34-.17.7-.22,1h2.52v1.41Zm-9.3-4.39h3.9v-1.46h-3.9Zm.47-8.93v1.32h3.43v-1.32Zm3.43,3.84v-1.44H800.8v1.44ZM803,181.14c-.41.48-.78.94-1.15,1.35,1.25.28,2.57.62,3.89,1a6.45,6.45,0,0,0,2.16-2.36Zm2.94-13.32v1.32h3.38v-1.32Zm3.38,3.84v-1.44h-3.38v1.44Zm-3.38,3.63v1.46h3.91v-1.46Z"/><path d="M851.89,170.13h-7.61V174h-1.74v-5.14h9.35v-1.53h-8.3V166h18.46v1.28h-8.4v1.53h9.52V174h-1.79v-3.86h-7.73v5.44h-1.76Zm8.93,15.12c1.3,0,1.54-.41,1.67-2.79a4.87,4.87,0,0,0,1.59.58c-.27,2.9-.81,3.65-3.14,3.65h-5.62c-2.72,0-3.5-.48-3.5-2.4v-.75h-5.41v1.25h-1.77v-8.33h16.5v7.08h-7.56v.75c0,.81.29,1,1.81,1Zm-16.1-11c1.54-.14,3.64-.45,5.8-.79l.07,1.13c-1.88.38-3.74.77-5.33,1.06Zm1.17-3.64a24.36,24.36,0,0,1,4.7,1.24l-.54,1.11a23.38,23.38,0,0,0-4.72-1.39Zm.52,7.15v1.63h5.41v-1.63Zm5.41,4.49v-1.66h-5.41v1.66Zm7.53-4.49h-5.77v1.63h5.77Zm0,4.49v-1.66h-5.77v1.66Zm1-6.53a37.5,37.5,0,0,0-5.7-1.32l.44-1.08a32.53,32.53,0,0,1,5.68,1.17Zm0-4.23a28.76,28.76,0,0,1-4.78,1.37l-.63-.93a45.79,45.79,0,0,0,4.62-1.44Z"/><path d="M867.36,169.17h8.94v1.46h-8.94Zm8.1,4.56h-7.09v-1.42h7.09Zm-7.09,1.7h7.09v1.42h-7.09Zm7.29,10.13H870v1.13h-1.59v-8.07h7.29Zm-5.7-5.45v4H874v-4Zm2-11.21a26.83,26.83,0,0,0-1.81-3.19l1.39-.7a19.8,19.8,0,0,1,1.86,3.07Zm12,5.23v4h4.38v8.81H886.6v-.87h-7v1h-1.67v-8.9h4.38v-4H877v-1.7h5.31v-4.27c-1.59.24-3.2.45-4.7.62a6.68,6.68,0,0,0-.46-1.44,51,51,0,0,0,10.13-2.09l1.18,1.42a34.35,34.35,0,0,1-4.46,1.18v4.58h5.68v1.7Zm2.62,5.62h-7v4.68h7Z"/><path d="M896.25,170.32a1.76,1.76,0,0,1,1.83-1.8,1.8,1.8,0,1,1,0,3.6A1.77,1.77,0,0,1,896.25,170.32Zm0,11.76a1.79,1.79,0,0,1,1.83-1.83,1.82,1.82,0,1,1,0,3.63A1.78,1.78,0,0,1,896.25,182.08Z"/><path d="M907.66,177.71a22.13,22.13,0,0,1,3.59-12.17l1.4.63a22.84,22.84,0,0,0,0,23.08l-1.4.65A22.18,22.18,0,0,1,907.66,177.71Z"/><path d="M916.08,176.56c0-5.74,2.13-8.81,5.6-8.81s5.58,3.1,5.58,8.81-2.1,8.93-5.58,8.93S916.08,182.29,916.08,176.56Zm9,0c0-5-1.37-7.06-3.4-7.06s-3.42,2-3.42,7.06,1.37,7.17,3.42,7.17S925.08,181.57,925.08,176.56Z"/><path d="M938,180.45h-7.84V179l7.47-10.95h2.47v10.63h2.37v1.76h-2.37v4.72H938Zm0-1.76v-5c0-.89.07-2.35.12-3.27H938c-.44.82-.93,1.56-1.44,2.4l-4.09,5.88Z"/><path d="M945.5,189.25a22.84,22.84,0,0,0,0-23.08l1.37-.63a22.3,22.3,0,0,1,0,24.36Z"/><path d="M955,183.88c5.26-5.14,8.22-8.21,8.22-11a3,3,0,0,0-3.3-3.33,5.12,5.12,0,0,0-3.72,2l-1.3-1.23a6.91,6.91,0,0,1,5.29-2.59c3.21,0,5.21,2,5.21,5,0,3.21-3,6.4-7.12,10.68.93-.07,2-.17,2.94-.17h5.06v1.89H955Z"/><path d="M969.79,183.88c5.26-5.14,8.22-8.21,8.22-11a3,3,0,0,0-3.3-3.33,5.1,5.1,0,0,0-3.72,2l-1.3-1.23a6.91,6.91,0,0,1,5.28-2.59c3.21,0,5.22,2,5.22,5,0,3.21-3,6.4-7.12,10.68.93-.07,2-.17,2.93-.17h5.07v1.89H969.79Z"/><path d="M984.57,183.88c5.26-5.14,8.22-8.21,8.22-11a3,3,0,0,0-3.3-3.33,5.12,5.12,0,0,0-3.72,2l-1.3-1.23a6.91,6.91,0,0,1,5.29-2.59c3.21,0,5.21,2,5.21,5,0,3.21-3,6.4-7.12,10.68.93-.07,2-.17,2.94-.17h5.06v1.89H984.57Z"/><path d="M999.48,176.56c0-5.74,2.13-8.81,5.6-8.81s5.59,3.1,5.59,8.81-2.11,8.93-5.59,8.93S999.48,182.29,999.48,176.56Zm9,0c0-5-1.37-7.06-3.41-7.06s-3.42,2-3.42,7.06,1.37,7.17,3.42,7.17S1008.49,181.57,1008.49,176.56Z"/><path d="M1014.19,177.61h6.27v1.68h-6.27Z"/><path d="M1032.65,169.93H1024v-1.87h11.23v1.35c-4.11,5.18-5,9.09-5.26,15.76h-2.33C1027.9,178.72,1029.22,174.64,1032.65,169.93Z"/><path d="M1039.7,183.35h4V170.73h-3.18v-1.42a10.52,10.52,0,0,0,3.72-1.25h1.71v15.29h3.6v1.82h-9.84Z"/><path d="M1053.65,177.28c0-6.89,3.16-9.53,6.66-9.53a5.54,5.54,0,0,1,4.18,1.8l-1.24,1.37a3.83,3.83,0,0,0-2.87-1.35c-2.47,0-4.53,1.85-4.62,7.3a5.64,5.64,0,0,1,4.08-2.14c3,0,5,1.78,5,5.26a5.2,5.2,0,0,1-5.14,5.5C1056.22,185.49,1053.65,182.75,1053.65,177.28Zm2.16,1.37c.29,3.33,1.64,5.13,3.84,5.13,1.74,0,3.06-1.51,3.06-3.79s-1.08-3.62-3.23-3.62A4.59,4.59,0,0,0,1055.81,178.65Z"/><path d="M1068.44,177.28c0-6.89,3.15-9.53,6.65-9.53a5.58,5.58,0,0,1,4.19,1.8l-1.25,1.37a3.82,3.82,0,0,0-2.86-1.35c-2.47,0-4.53,1.85-4.63,7.3a5.67,5.67,0,0,1,4.09-2.14c3,0,5,1.78,5,5.26a5.2,5.2,0,0,1-5.14,5.5C1071,185.49,1068.44,182.75,1068.44,177.28Zm2.15,1.37c.29,3.33,1.64,5.13,3.84,5.13,1.74,0,3.06-1.51,3.06-3.79s-1.07-3.62-3.23-3.62A4.62,4.62,0,0,0,1070.59,178.65Z"/><path d="M400.23,247c0-2.23,1.67-3.77,3.31-4.63v-.1a4.76,4.76,0,0,1-2.42-4c0-2.62,2.13-4.37,4.92-4.37,3,0,4.91,1.87,4.91,4.54a5.63,5.63,0,0,1-2.39,4.13v.12c1.54.91,3,2.11,3,4.39,0,2.57-2.25,4.56-5.63,4.56S400.23,249.69,400.23,247Zm9.23.07c0-2.23-2.2-3-4.75-4a4.54,4.54,0,0,0-2.44,3.75c0,1.87,1.59,3.24,3.74,3.24S409.46,248.8,409.46,247.05Zm-.41-8.47a2.88,2.88,0,0,0-3-3,2.67,2.67,0,0,0-2.86,2.74c0,2.06,1.93,2.93,4,3.74A4.64,4.64,0,0,0,409.05,238.58Z"/><path d="M415.12,242.73c0-5.74,2.13-8.81,5.6-8.81s5.58,3.1,5.58,8.81-2.1,8.93-5.58,8.93S415.12,248.47,415.12,242.73Zm9,0c0-5-1.38-7.06-3.41-7.06s-3.42,2-3.42,7.06,1.37,7.18,3.42,7.18S424.13,247.75,424.13,242.73Z"/><path d="M429.9,242.73c0-5.74,2.13-8.81,5.61-8.81s5.58,3.1,5.58,8.81-2.11,8.93-5.58,8.93S429.9,248.47,429.9,242.73Zm9,0c0-5-1.37-7.06-3.4-7.06s-3.43,2-3.43,7.06,1.37,7.18,3.43,7.18S438.91,247.75,438.91,242.73Z"/><path d="M451.81,246.62H444v-1.44l7.47-11h2.47v10.64h2.37v1.75h-2.37v4.73h-2.11Zm0-1.75v-5c0-.89.08-2.35.13-3.27h-.1c-.44.82-.93,1.57-1.45,2.41l-4.08,5.88Z"/><path d="M459.38,247c0-2.23,1.66-3.77,3.3-4.63v-.1a4.78,4.78,0,0,1-2.42-4c0-2.62,2.13-4.37,4.92-4.37,3.06,0,4.92,1.87,4.92,4.54a5.64,5.64,0,0,1-2.4,4.13v.12c1.54.91,3,2.11,3,4.39,0,2.57-2.25,4.56-5.62,4.56S459.38,249.69,459.38,247Zm9.23.07c0-2.23-2.21-3-4.75-4a4.55,4.55,0,0,0-2.45,3.75c0,1.87,1.59,3.24,3.74,3.24S468.61,248.8,468.61,247.05Zm-.42-8.47a2.88,2.88,0,0,0-3-3,2.67,2.67,0,0,0-2.86,2.74c0,2.06,1.93,2.93,4,3.74A4.61,4.61,0,0,0,468.19,238.58Z"/><path d="M502.61,233.78v1.53H481.29v-1.53h10c-.22-.7-.52-1.52-.76-2.19l1.76-.41c.34.82.71,1.83,1,2.6Zm-.79,17.52c0,.86-.22,1.22-.88,1.46a11.16,11.16,0,0,1-3.23.22,5.39,5.39,0,0,0-.59-1.32c1.06.05,2.18,0,2.48,0s.41-.09.41-.38v-7H483.93v8.9h-1.76V242.75h19.65Zm-2.64-14.64v4.8H485v-4.8ZM497,250.6h-8.62v1.18h-1.69v-6.1H497Zm.34-12.62H486.77v2.16h10.55Zm-9,9.05v2.23h7V247Z"/><path d="M511.59,237.09c-.8,4.58-2,8.52-4,11.45a9.61,9.61,0,0,0-1.49-1.06c1.86-2.54,3-6.21,3.75-10.39H507v-1.7h3.15c.2-1.35.35-2.72.49-4.13l1.77.14c-.15,1.37-.32,2.67-.52,4h5v1.7Zm3.7,7.37a55.72,55.72,0,0,1,2,7.32l-1.49.5c-.07-.53-.2-1.15-.32-1.77-5.12,1-5.87,1.12-6.34,1.39a8.08,8.08,0,0,0-.54-1.59c.42-.12.79-.86,1.3-1.92a45.36,45.36,0,0,0,2.79-8.64l1.74.46a53.33,53.33,0,0,1-3.53,9.55l4.21-.69c-.36-1.42-.78-2.91-1.2-4.18ZM528.6,252h-8.78v1.2h-1.64V238.84a24.9,24.9,0,0,1-1.74,2.5,8.36,8.36,0,0,0-1.1-1.35,24.57,24.57,0,0,0,4.35-8.61l1.57.38a33.15,33.15,0,0,1-1.54,4h8.57v1.59H525v3.26h3.28v1.56H525v3.27h3.3V247H525v3.31h3.64Zm-8.78-14.57v3.26h3.47v-3.26Zm3.47,4.82h-3.47v3.27h3.47Zm-3.47,8.11h3.47V247h-3.47Zm4-14.61a19.3,19.3,0,0,0-1.69-3.58l1.54-.53a18.45,18.45,0,0,1,1.77,3.48Z"/><path d="M544.17,236.51v3.24h7.93v8.4c0,1-.24,1.56-1,1.88a16.05,16.05,0,0,1-4.29.31,6.88,6.88,0,0,0-.63-1.78c1.66.05,3.13.05,3.55.05s.56-.14.56-.48v-6.62h-6.1v11.64h-1.83V241.51h-5.73v8.9H534.8V239.75h7.54v-3.24h-9.91v-1.75h10.42a30.18,30.18,0,0,0-1.61-3.14l1.74-.53a20.47,20.47,0,0,1,1.9,3.55l-.31.12h9.71v1.75Z"/><path d="M570.81,244.75c1.27,3.81,3.52,6.43,5.7,6.4.74,0,1-1,1.15-3.5a4.6,4.6,0,0,0,1.59.84c-.29,3.51-1,4.42-2.81,4.42-3.31,0-6.1-3.39-7.52-8.16h-7.36v5.92l6.61-1.82a10,10,0,0,0,.22,1.66c-7.35,2.13-8.3,2.4-8.91,2.8a6.33,6.33,0,0,0-.86-1.63,1.91,1.91,0,0,0,1.08-1.75V232.5H577v6.94h-7.17a21,21,0,0,0,.54,3.63h8.44v1.68Zm-9.25-10.56v3.57h13.63v-3.57Zm6.92,8.88a29.16,29.16,0,0,1-.49-3.63h-6.43v3.63Z"/><path d="M592.4,241c-.17,7.58-.34,10.1-.93,10.89a1.86,1.86,0,0,1-1.42.77,22.27,22.27,0,0,1-2.37,0,4.06,4.06,0,0,0-.47-1.6c.91.07,1.72.07,2.08.07a.69.69,0,0,0,.69-.31c.36-.51.54-2.76.71-9H587.9c-.27,4.8-1,8.74-3.18,11.36a4.77,4.77,0,0,0-1.33-1.23c2.62-3.12,2.84-8.54,2.92-15.12h-2.74v-1.68H593v1.68h-5c0,1.15,0,2.28-.07,3.38h4.43Zm-4.36-9.8a22.81,22.81,0,0,1,2.21,3.29l-1.64.65a23.72,23.72,0,0,0-2.16-3.38ZM596,236a18.65,18.65,0,0,1-2.2,3.31,12.46,12.46,0,0,0-1.42-1,17.11,17.11,0,0,0,3.75-7l1.64.33c-.3,1-.64,1.87-1,2.76h8.94V236Zm4.19,9.93c-.54,2.47-2.06,5.19-6.29,7.28a7.83,7.83,0,0,0-1.2-1.25c3.82-1.73,5.21-4,5.7-6h-4.94v-1.61h5.19c0-.38,0-.72,0-1.05v-2.47h-1.86a18.64,18.64,0,0,1-1.83,2.47,10.34,10.34,0,0,0-1.45-.94,13.77,13.77,0,0,0,3.31-5.54l1.64.36a20.31,20.31,0,0,1-.84,2h7v1.61H600.4v2.49c0,.34,0,.67,0,1h5.24v1.61Zm1.35.65a52.9,52.9,0,0,1,4.33,5.57l-1.42,1a49.42,49.42,0,0,0-4.24-5.74Z"/><path d="M631.17,248.85v1.94H609.61v-1.94Zm-2-14.14v1.9H611.67v-1.9Z"/><path d="M655.53,234.14a18,18,0,0,1-3.57,6.38,16.53,16.53,0,0,0,5.58,3.53,7,7,0,0,0-1.13,1.46l-.78-.36v7.93h-1.74v-.8h-6.12v.87h-1.69v-8c-.48.26-1,.48-1.46.7a5.05,5.05,0,0,0-.88-1.2h-2.57v4.29c1.05-.24,2.12-.48,3.2-.74l.17,1.61c-3.33.79-6.8,1.6-9.37,2.23l-.34-1.73,1.24-.26v-8.19h1.55v7.87l1.88-.43v-9.69h-3.43v-7.33H644v6.37a17.48,17.48,0,0,0,4.43-7.37l1.74.41c-.25.69-.52,1.39-.79,2h4.73l.32-.08ZM637.69,238h4.6v-4.2h-4.6Zm6.49,6.16a17.37,17.37,0,0,0,5.55-3.74,22.15,22.15,0,0,1-2.25-3.29,17,17,0,0,1-2.23,2.76,9.72,9.72,0,0,0-1.27-1v.72h-2.81V243h3Zm10.3.34a18.29,18.29,0,0,1-3.62-2.83,20,20,0,0,1-3.67,2.83Zm-.59,6.17v-4.61h-6.12v4.61Zm-5.28-15.43-.25.45a19.09,19.09,0,0,0,2.42,3.6,15.45,15.45,0,0,0,2.52-4Z"/><path d="M660.92,249.86l1.25-1.37a3.73,3.73,0,0,0,2.86,1.34c2.45,0,4.53-1.87,4.63-7.34a5.6,5.6,0,0,1-4.09,2.21c-3,0-5-1.8-5-5.31a5.2,5.2,0,0,1,5.14-5.47c3.45,0,6,2.74,6,8.23,0,6.87-3.16,9.51-6.63,9.51A5.55,5.55,0,0,1,660.92,249.86Zm5-6.79a4.74,4.74,0,0,0,3.67-2.33c-.29-3.31-1.66-5.09-3.89-5.09-1.71,0-3,1.49-3,3.74S663.76,243.07,665.94,243.07Z"/><path d="M675,249.33l1.11-1.44a5.92,5.92,0,0,0,4.4,1.94A3.71,3.71,0,0,0,684.3,246a3.49,3.49,0,0,0-3.72-3.8,5,5,0,0,0-3,1.06l-1.2-.74.57-8.24h8.73v1.88h-6.77l-.45,5.11a5.33,5.33,0,0,1,2.67-.72c3,0,5.41,1.68,5.41,5.37a5.65,5.65,0,0,1-5.87,5.79A7.7,7.7,0,0,1,675,249.33Z"/><path d="M698,244.48s0,.48-.05.72c-.34,4.61-.69,6.43-1.32,7.08a1.86,1.86,0,0,1-1.42.63,15.16,15.16,0,0,1-2.4,0,4.19,4.19,0,0,0-.44-1.49c.93.08,1.84.1,2.18.1a1,1,0,0,0,.78-.24c.39-.38.69-1.82,1-5.33h-4.94a37.28,37.28,0,0,0,.93-3.86h-2.11v-1.59h8.79v1.59h-5.12c-.14.81-.34,1.68-.49,2.42Zm.39-5.88H691.3v-6.29h7.05Zm-1.44-4.94H692.7v3.6h4.21Zm4.7,8.42c0,3.29-.35,8-2.48,11.14a6.41,6.41,0,0,0-1.37-1c2-2.95,2.23-7.08,2.23-10.17V236h4.8v-4.73h1.71v1.68h4.92v1.46H706.5V236h4.72l.3-.08,1.1.29c-.29,1.42-.71,3.07-1,4.15l-1.37-.33a21.91,21.91,0,0,0,.54-2.57h-9.15Zm3.5,3c-.2,3.82-.79,6.51-3.43,8.09a4.5,4.5,0,0,0-1-1.17c2.3-1.33,2.76-3.63,2.91-6.92Zm4.33-2.59a9.36,9.36,0,0,0,1.49-.12c.05.43.1.91.15,1.32a5.91,5.91,0,0,1-1.57.12h-2.94c-1.56,0-1.9-.65-1.9-2.18v-.75l-2.4.24-.18-1.27,2.58-.26v-2h1.56v1.83l3.16-.31.17,1.27-3.33.33v.92c0,.64.1.86.61.86Zm.81,8.57a1.47,1.47,0,0,0,.63-.1.65.65,0,0,0,.32-.5,15.49,15.49,0,0,0,.1-2.4,3.61,3.61,0,0,0,1.34.72,14.75,14.75,0,0,1-.24,2.73,1.6,1.6,0,0,1-.73.92,3.65,3.65,0,0,1-1.28.24h-1.32a2.29,2.29,0,0,1-1.44-.39c-.39-.31-.47-.65-.47-1.75v-5.45h1.54v5.5a.37.37,0,0,0,.2.38,1,1,0,0,0,.51.1Z"/><path d="M715.46,249.26l1.13-1.44a6,6,0,0,0,4.45,2c2.13,0,3.65-1.22,3.65-3.14s-1.44-3.38-5.58-3.38v-1.68c3.7,0,5-1.42,5-3.22s-1.18-2.71-3-2.71a5.32,5.32,0,0,0-3.72,1.73l-1.2-1.37a7.18,7.18,0,0,1,5-2.14c3,0,5.22,1.56,5.22,4.35a4.22,4.22,0,0,1-3.19,4v.1a4.5,4.5,0,0,1,3.8,4.37c0,3-2.57,4.87-5.75,4.87A7.51,7.51,0,0,1,715.46,249.26Z"/><path d="M736.88,244.34c-.32-.79-1.1-2.19-1.76-3.36v12.19h-1.66V241.51a35.43,35.43,0,0,1-2.28,6.74,12,12,0,0,0-.91-1.75,34.08,34.08,0,0,0,2.92-8.95h-2.57v-1.68h2.84v-4.61h1.66v4.61h2.45v1.68h-2.45v1.24c.64.84,2.45,3.63,2.86,4.28Zm13,3a7.84,7.84,0,0,1-2.16,2.91A43.29,43.29,0,0,1,752.6,252l-1.35,1.12a37.44,37.44,0,0,0-5-1.92,22.84,22.84,0,0,1-7.76,2,4.75,4.75,0,0,0-.69-1.32,25.38,25.38,0,0,0,6.44-1.37c-1.62-.45-3.23-.88-4.72-1.22.56-.58,1.22-1.27,1.83-2h-3.28V245.9h4.38a17.86,17.86,0,0,0,1.23-1.78H739v-3.89h5.53V239h-5v-2.47h-1.42v-1.39h1.42v-2.38h5v-1.53h1.71v1.53h5v2.38h1.52v1.39h-1.52V239h-5v1.2h5.63v3.89h-6.29a21.41,21.41,0,0,1-1.2,1.78h4.38c.1-.34.2-.7.27-1h1.64c-.07.33-.17.69-.22,1H753v1.41Zm-9.3-4.39h3.89v-1.46h-3.89Zm.46-8.93v1.32h3.43V234Zm3.43,3.84v-1.44h-3.43v1.44Zm-1.23,9.48c-.41.48-.78.94-1.15,1.35,1.25.29,2.57.62,3.9,1a6.43,6.43,0,0,0,2.15-2.36ZM746.23,234v1.32h3.38V234Zm3.38,3.84v-1.44h-3.38v1.44Zm-3.38,3.63v1.46h3.92v-1.46Z"/><path d="M792.18,236.3h-7.61v3.86h-1.74V235h9.35v-1.54h-8.3v-1.27h18.46v1.27h-8.4V235h9.52v5.13h-1.78V236.3h-7.74v5.45h-1.76Zm8.94,15.12c1.29,0,1.54-.41,1.66-2.79a5,5,0,0,0,1.59.58c-.27,2.91-.81,3.65-3.13,3.65h-5.63c-2.72,0-3.5-.48-3.5-2.4v-.75H786.7V251h-1.76v-8.33h16.49v7.08h-7.56v.75c0,.81.3,1,1.81,1Zm-16.11-11c1.54-.15,3.65-.46,5.8-.8l.07,1.13c-1.88.39-3.74.77-5.33,1.06Zm1.18-3.65a23.7,23.7,0,0,1,4.69,1.25l-.53,1.1a24.16,24.16,0,0,0-4.73-1.39Zm.51,7.15v1.63h5.41v-1.63Zm5.41,4.49v-1.66H786.7v1.66Zm7.54-4.49h-5.78v1.63h5.78Zm0,4.49v-1.66h-5.78v1.66Zm1-6.53a37.21,37.21,0,0,0-5.7-1.32l.44-1.08a32.47,32.47,0,0,1,5.68,1.18Zm0-4.22a28.89,28.89,0,0,1-4.77,1.36l-.64-.93a43.56,43.56,0,0,0,4.63-1.44Z"/><path d="M807.66,235.34h8.93v1.46h-8.93Zm8.1,4.56h-7.1v-1.42h7.1Zm-7.1,1.7h7.1V243h-7.1ZM816,251.73h-5.7v1.13h-1.59v-8.07H816Zm-5.7-5.45v4h4.09v-4Zm2-11.21a25,25,0,0,0-1.81-3.19l1.4-.7a20.17,20.17,0,0,1,1.86,3.08Zm12,5.24v4h4.39v8.81h-1.77v-.87h-7v1H818.2v-8.91h4.38v-4h-5.31V238.6h5.31v-4.27c-1.59.24-3.2.46-4.69.62a6.72,6.72,0,0,0-.47-1.44,51,51,0,0,0,10.13-2.09l1.18,1.42a32.82,32.82,0,0,1-4.46,1.18v4.58H830v1.71Zm2.62,5.61h-7v4.68h7Z"/><path d="M836.54,236.49a1.77,1.77,0,0,1,1.83-1.8,1.8,1.8,0,1,1,0,3.6A1.77,1.77,0,0,1,836.54,236.49Zm0,11.76a1.79,1.79,0,0,1,1.83-1.82,1.81,1.81,0,1,1,0,3.62A1.79,1.79,0,0,1,836.54,248.25Z"/><path d="M848,243.88a22.06,22.06,0,0,1,3.6-12.17l1.39.63a22.86,22.86,0,0,0,0,23.09l-1.39.65A22.16,22.16,0,0,1,848,243.88Z"/><path d="M856.37,242.73c0-5.74,2.13-8.81,5.61-8.81s5.58,3.1,5.58,8.81-2.11,8.93-5.58,8.93S856.37,248.47,856.37,242.73Zm9,0c0-5-1.37-7.06-3.4-7.06s-3.43,2-3.43,7.06,1.37,7.18,3.43,7.18S865.38,247.75,865.38,242.73Z"/><path d="M879.84,236.11h-8.68v-1.88h11.23v1.35c-4.11,5.18-5,9.09-5.26,15.77H874.8C875.1,244.89,876.42,240.81,879.84,236.11Z"/><path d="M885.8,255.43a22.86,22.86,0,0,0,0-23.09l1.37-.63a22.32,22.32,0,0,1,0,24.37Z"/><path d="M895.29,250.05c5.27-5.14,8.23-8.21,8.23-11a3,3,0,0,0-3.31-3.33,5.14,5.14,0,0,0-3.72,2l-1.29-1.23a6.89,6.89,0,0,1,5.28-2.59c3.21,0,5.22,2,5.22,5,0,3.21-3,6.41-7.13,10.68.93-.07,2-.17,2.94-.17h5.07v1.9H895.29Z"/><path d="M909.71,249.26l1.13-1.44a6,6,0,0,0,4.45,2c2.13,0,3.65-1.22,3.65-3.14s-1.44-3.38-5.58-3.38v-1.68c3.69,0,5-1.42,5-3.22s-1.18-2.71-3-2.71a5.32,5.32,0,0,0-3.72,1.73l-1.2-1.37a7.18,7.18,0,0,1,5-2.14c3,0,5.21,1.56,5.21,4.35a4.21,4.21,0,0,1-3.18,4v.1a4.49,4.49,0,0,1,3.79,4.37c0,3-2.56,4.87-5.75,4.87A7.5,7.5,0,0,1,909.71,249.26Z"/><path d="M924.89,247c0-2.23,1.66-3.77,3.3-4.63v-.1a4.78,4.78,0,0,1-2.42-4c0-2.62,2.13-4.37,4.92-4.37,3.06,0,4.92,1.87,4.92,4.54a5.64,5.64,0,0,1-2.4,4.13v.12c1.54.91,3,2.11,3,4.39,0,2.57-2.26,4.56-5.63,4.56S924.89,249.69,924.89,247Zm9.23.07c0-2.23-2.21-3-4.75-4a4.55,4.55,0,0,0-2.45,3.75c0,1.87,1.59,3.24,3.75,3.24S934.12,248.8,934.12,247.05Zm-.42-8.47a2.87,2.87,0,0,0-3-3,2.67,2.67,0,0,0-2.87,2.74c0,2.06,1.94,2.93,4,3.74A4.61,4.61,0,0,0,933.7,238.58Z"/><path d="M939.7,243.79H946v1.68H939.7Z"/><path d="M956.59,246.62h-7.83v-1.44l7.46-11h2.47v10.64h2.38v1.75h-2.38v4.73h-2.1Zm0-1.75v-5c0-.89.07-2.35.12-3.27h-.1c-.44.82-.93,1.57-1.44,2.41l-4.09,5.88Z"/><path d="M963.74,249.33l1.1-1.44a6,6,0,0,0,4.41,1.94,3.71,3.71,0,0,0,3.81-3.88,3.49,3.49,0,0,0-3.72-3.8,5,5,0,0,0-3,1.06l-1.2-.74.56-8.24h8.74v1.88h-6.78l-.44,5.11a5.33,5.33,0,0,1,2.67-.72c3,0,5.4,1.68,5.4,5.37a5.64,5.64,0,0,1-5.87,5.79A7.67,7.67,0,0,1,963.74,249.33Z"/><path d="M987.73,236.11H979v-1.88h11.23v1.35c-4.11,5.18-5,9.09-5.26,15.77h-2.33C983,244.89,984.3,240.81,987.73,236.11Z"/><path d="M1002.51,236.11h-8.69v-1.88h11.24v1.35c-4.12,5.18-5,9.09-5.27,15.77h-2.32C997.76,244.89,999.08,240.81,1002.51,236.11Z"/><path class="cls-6" d="M481.38,20.16c0,8.61,3.81,15.67,8.48,19.62V40H476.49V.34h13.37V.55C485.19,4.49,481.38,11.55,481.38,20.16Z"/><path class="cls-6" d="M531.88,3.49v9.15h-5.09V7.69H500.18v5h-4.84V3.49h15.42c-.34-.84-.73-1.73-1-2.44l5.53-1a31.67,31.67,0,0,1,1.67,3.49ZM497.56,24.24H529.7V39.78h-5.06V38.69H502.41v1.17h-4.85Zm3.13-10.08h25.5v8.52h-25.5ZM525.2,9.33v3.36H501.76V9.33ZM502.41,27.85v2.06h8.48V27.85Zm8.48,7.23V33h-8.48v2.06Zm-5.53-15.59h15.86V17.43H505.36Zm19.28,8.36h-8.78v2.06h8.78Zm0,7.23V33h-8.78v2.06Z"/><path class="cls-6" d="M560.16,8.11A66.75,66.75,0,0,1,552.53,10v4.45h5.87v4.37h-5.91c0,1.43-.09,2.82-.22,4.2h7.2v4.62h-8a21.24,21.24,0,0,1-7.8,12.44,21.13,21.13,0,0,0-4.2-3.49,17.71,17.71,0,0,0,6.56-9h-7.24V23.06h8.31c.17-1.38.26-2.77.3-4.2h-7.07V14.49h7.11V10.92c-2.4.34-4.84.63-7.07.84A17.65,17.65,0,0,0,539,7.64c2.75-.33,5.66-.75,8.44-1.26V.67h5.06V5.33c1.8-.46,3.51-1,4.93-1.47Zm18.25-2.86c-1.71,4.08-3.86,8.74-5.74,12.31,4.11,3.69,4.93,7.06,4.93,9.83,0,3.11-.78,5.17-2.49,6.26a7.67,7.67,0,0,1-3.21,1.13,34.82,34.82,0,0,1-3.77.09A11.13,11.13,0,0,0,566.75,30a23.47,23.47,0,0,0,2.88.09,4.63,4.63,0,0,0,1.88-.42c.86-.42,1.16-1.39,1.16-2.86,0-2.27-1.16-5.29-5.14-8.57,1.41-3,3-7.27,4.24-10.5H565.9V39.86h-5.06V3.11h13l.81-.21Z"/><path class="cls-6" d="M594,24.15v10c0,2.44-.48,3.66-1.93,4.37s-3.47.92-6.47.92a16.51,16.51,0,0,0-1.46-4.53c1.71,0,3.47,0,4,0s.81-.21.81-.8V25.46l-4.33,1.09-1.32-4.79c1.63-.34,3.55-.76,5.65-1.22V13.15h-5.1V8.53h5.1v-8h5v8h4.49v4.62H594v6.17l3.12-.75.65,4.58Zm27.12-4.28A27,27,0,0,1,613.71,32a36.65,36.65,0,0,0,9.9,3.19,23.21,23.21,0,0,0-3.22,4.62,35.51,35.51,0,0,1-11-4.53,42.36,42.36,0,0,1-11.7,4.49,19.9,19.9,0,0,0-2.44-4.58A35.5,35.5,0,0,0,605.1,32a31.06,31.06,0,0,1-6-8.11l1.59-.54h-2.45V18.69h18.6l.9-.21Zm-21.43-1.72a19,19,0,0,0-3.38-3.57c5.06-2.27,5.7-5.3,5.7-8.2V1.89h15.08v9.16c0,1.22.09,1.72.77,1.72h2.27a11.19,11.19,0,0,0,2.4-.29c.09,1.26.22,3,.39,4.11a7.3,7.3,0,0,1-2.7.34h-2.87c-4.2,0-5.1-1.77-5.1-6V6.51l-5.53,0C606.68,10.75,605.44,15.42,599.65,18.15Zm4.5,5.21a20.35,20.35,0,0,0,5.23,5.88,21,21,0,0,0,5-5.88Z"/><path class="cls-6" d="M641.72,2.06a65.51,65.51,0,0,1-3.17,7.43V40h-4.63V17.35c-1,1.43-2.1,2.81-3.12,4a32.32,32.32,0,0,0-2.62-4.92,44.74,44.74,0,0,0,9-15.71Zm26.4,5v4.07h-27.6V7.06h12.26a38.3,38.3,0,0,0-2.66-5l4.33-1.6A31.87,31.87,0,0,1,657.58,6l-2.45,1ZM642.88,25.71h22.66v13.9h-4.49V38.44H647.21v1.3h-4.33ZM665,17.26H643.52v-3.9H665Zm-21.47,2.19H665v3.91H643.52Zm3.69,10.25v4.75h13.84V29.7Z"/><path class="cls-6" d="M689.53,34.32c0,2.31-.34,3.65-1.75,4.54s-3.18.92-6,.92A16.84,16.84,0,0,0,680.45,35c1.54.08,3.13,0,3.64,0s.73-.17.73-.75V25.92h-4.5c-.39,4.91-1.24,10.08-3,13.9a18.9,18.9,0,0,0-4.11-2.27C675.86,31.84,676,23.4,676,17.26V2h13.49Zm-4.71-13.11V16.13h-4.2v1.13c0,1.26,0,2.57,0,3.95Zm-4.2-14.57v4.87h4.2V6.64Zm32.31,10.79a38.13,38.13,0,0,1-5.15,14.07,20.53,20.53,0,0,0,6.35,4.42,19.67,19.67,0,0,0-3.17,3.9,26.65,26.65,0,0,1-6.09-4.58,24,24,0,0,1-5.61,4.5,16.17,16.17,0,0,0-2.53-3.36v3.44h-4.84V2.06H711.6v8.11c0,2.18-.47,3.36-2.27,4s-4.12.63-7.37.63a17.3,17.3,0,0,0-1.5-4.2c2.14.12,4.67.12,5.35.08s.9-.17.9-.67V6.68h-10v10h12.38l.77-.16Zm-16.2,18.4A20,20,0,0,0,702,31.55a42,42,0,0,1-5-10.42h-.26Zm4.58-14.7a33,33,0,0,0,3.3,6.55,29.16,29.16,0,0,0,2.79-6.55Z"/><path class="cls-6" d="M755.34,8.91A20.7,20.7,0,0,1,751.05,15a34.22,34.22,0,0,0,7.89,2.48,19,19,0,0,0-3.22,4.24A31.44,31.44,0,0,1,747,18.15a35,35,0,0,1-8.74,3.53,14.65,14.65,0,0,0-1.2-1.77,48.33,48.33,0,0,1-2.1,7l-3.43-1.56a52.43,52.43,0,0,0,1.38-5.79h-2.27V34.36c0,2.27-.35,3.61-1.85,4.37s-3.38.88-6,.88a16.21,16.21,0,0,0-1.46-4.74c1.59,0,3.3,0,3.86,0s.69-.13.69-.63v-9a25.39,25.39,0,0,1-5.36,7.77,27.71,27.71,0,0,0-2.31-4.83,26.58,26.58,0,0,0,6.08-8.65h-5.36V15.21h9.82a62.88,62.88,0,0,0-8.27-4.08l3.21-3.19c1,.38,2.23.84,3.39,1.34a25.79,25.79,0,0,0,2.69-2.64H719.43V2.44h13.84l.77-.17,3.26,2A31.6,31.6,0,0,1,731,11.22a24.29,24.29,0,0,1,3.13,1.84l-2.1,2.15h2.06l.68-.21,3.09,1-.17,1A26.23,26.23,0,0,0,743,15a23.62,23.62,0,0,1-3.05-3.49A24.74,24.74,0,0,1,738,13.36a37.68,37.68,0,0,0-4.15-2.82A25.13,25.13,0,0,0,742,.55l4.76,1.26a29,29,0,0,1-1.59,2.94h12.64V8.91Zm2,15s-.08,1.31-.17,1.89c-.69,7.27-1.46,10.51-2.7,11.85a4.73,4.73,0,0,1-3.13,1.47,32.1,32.1,0,0,1-4.8.08,10.88,10.88,0,0,0-1.37-4.62,36.53,36.53,0,0,0,3.69.21,1.76,1.76,0,0,0,1.37-.46c.6-.54,1.16-2.35,1.63-6.26h-5c-1.46,5-4.5,9.08-11.27,11.68a14.11,14.11,0,0,0-3-3.86c5.14-1.85,7.63-4.54,9-7.82h-5.19V23.94h6.26a36.3,36.3,0,0,0,.43-3.73h5.09c-.12,1.26-.25,2.52-.42,3.73Zm-14.05-15a16.67,16.67,0,0,0,3.55,3.57,12.87,12.87,0,0,0,2.83-3.57Z"/><path class="cls-6" d="M772.64,23.73V34.57c0,2.31-.39,3.53-1.71,4.29s-3.09,1-5.79.92a17.83,17.83,0,0,0-1.28-4.54c1.54.09,3,.09,3.51.09s.73-.17.73-.76V25.08c-1.42.42-2.74.75-4,1.09L763,21.42q2.25-.5,5.14-1.26v-7h-4.37V8.49h4.37V.59h4.54v7.9h3.3v4.62h-3.3V19l3.26-.89.64,4.5Zm8.7-3.4c0,5.92-.6,14.16-4.37,19.41a17.06,17.06,0,0,0-3.73-2.48c3.43-4.79,3.73-11.64,3.73-16.93V7.85h9.3V.67h4.88V2.73h9.77V6.17h-9.77V7.85h8.1l.68-.08,3.13.59a48.37,48.37,0,0,1-2.1,6.8l-3.81-.79a24.25,24.25,0,0,0,.86-3h-7.67v1.56l5.78-.51.3,2.69-6.08.55c0,.8.25,1.13,1.24,1.13h4.84a23.48,23.48,0,0,0,3.6-.25c.09,1.05.17,2,.3,2.94a17.31,17.31,0,0,1-3.6.25h-6.08c-3,0-4-1-4.33-2.9l-4,.42-.38-3.57,4.32-.37V11.38h-4.88Zm21.89,6.34a45.73,45.73,0,0,1-4.15,2c1,2.81,2.65,5.5,4.88,6.81a14.68,14.68,0,0,0-2.78,3.06c-2.45-1.76-4.07-5.08-5.06-8.65-.51.21-1,.34-1.5.5,1.2,3.41.51,6.77-1,8.07a4.2,4.2,0,0,1-3.38,1.38c-.69,0-1.5,0-2.23,0a7.78,7.78,0,0,0-1-3.48,19.05,19.05,0,0,0,2.4.16,1.61,1.61,0,0,0,1.5-.63,3.74,3.74,0,0,0,.6-2.47,43.08,43.08,0,0,1-10,5,17.12,17.12,0,0,0-1.84-2.56,32.68,32.68,0,0,0,11.22-5.25,10,10,0,0,0-.47-.92,41.27,41.27,0,0,1-8.1,3.74A9.14,9.14,0,0,0,780.65,31a29,29,0,0,0,8.4-3.19c-.26-.21-.43-.47-.68-.68A45.21,45.21,0,0,1,782.79,29a13,13,0,0,0-1.37-2.44,37.88,37.88,0,0,0,7.84-2.73H782.2V20.67H803v3.19h-8.92a17.73,17.73,0,0,1-2.7,1.76,10.18,10.18,0,0,1,2,2.27,73.9,73.9,0,0,0,7.24-3.44Z"/><path class="cls-6" d="M808.11,37.72a24.77,24.77,0,0,0,2.7-7.56l3.38,1.22a28.46,28.46,0,0,1-2.52,7.77Zm20.44-8.57H809.14V25.37h7.45v-2.1H810V19.49h6.59V17.68h-6.68V1.85H828V17.68h-6.94v1.81H828v3.78h-6.86v2.1h7.46ZM813.72,14.32h3.6V5.21h-3.6V7l2-.59a29.31,29.31,0,0,1,1.33,6l-2.23.72a25.6,25.6,0,0,0-1.12-5.84ZM818.05,31a40.43,40.43,0,0,1,.6,7.31l-3.26.38a43.8,43.8,0,0,0-.42-7.35Zm4.28-.29a35.44,35.44,0,0,1,1.76,6.93l-3.13.63a34.38,34.38,0,0,0-1.67-7Zm1.76-25.54h-3.68V12.1A41.43,41.43,0,0,0,822,6.34l2.05.72Zm0,9.11V8.4c-.68,1.72-1.33,3.57-1.88,4.75l-1.8-.67v1.84Zm16-.46v6.43H847V39.61h-4.88V38.14h-7.93v1.6h-4.63V36.8L826.41,38a28.8,28.8,0,0,0-2.83-6.81l3-1.05a25.56,25.56,0,0,1,2.95,6.26V20.29h5.62V.63h5V9.24h8.31v4.62Zm2,11h-7.93v8.78h7.93Z"/><path class="cls-6" d="M852.11,40v-.21c4.67-4,8.48-11,8.48-19.62S856.78,4.49,852.11.55V.34h13.36V40Z"/></g></g></svg>