<svg xmlns="http://www.w3.org/2000/svg" xmlns:xlink="http://www.w3.org/1999/xlink" viewBox="0 0 335.91 68.06"><defs><style>.cls-1{isolation:isolate;}.cls-2{opacity:0.1;mix-blend-mode:multiply;}.cls-3,.cls-5{fill:none;stroke-miterlimit:10;stroke-width:1.5px;}.cls-3{stroke:#000;}.cls-4{fill:url(#未命名漸層_125);}.cls-5{stroke:#fff;}.cls-6{fill:#fff;}</style><linearGradient id="未命名漸層_125" x1="167.96" y1="60.31" x2="167.96" y2="0.75" gradientUnits="userSpaceOnUse"><stop offset="0" stop-color="#ea6d2f"/><stop offset="1" stop-color="#df943b"/></linearGradient></defs><g class="cls-1"><g id="圖層_2" data-name="圖層 2"><g id="內頁"><g class="cls-2"><rect x="0.75" y="7.75" width="334.41" height="59.56" rx="29.02"/><rect class="cls-3" x="0.75" y="7.75" width="334.41" height="59.56" rx="29.02"/></g><rect class="cls-4" x="0.75" y="0.75" width="334.41" height="59.56" rx="29.02"/><rect class="cls-5" x="0.75" y="0.75" width="334.41" height="59.56" rx="29.02"/><path class="cls-6" d="M43.3,37.61c-.06-.41-.13-.89-.22-1.39-5.83.82-6.89,1.14-7.6,1.45a28.06,28.06,0,0,0-1.25-3.38,5.78,5.78,0,0,0,2.6-2.08c.36-.44,1.1-1.29,1.93-2.49a12.54,12.54,0,0,0-3.54.69A29.07,29.07,0,0,0,34,27.16c.65-.16,1.16-.75,1.8-1.67a33,33,0,0,0,3.58-7.64l3.47,1.39a42.47,42.47,0,0,1-4.15,7.45l2.16-.16a36.7,36.7,0,0,0,2.28-4.23l3.25,2a50.9,50.9,0,0,1-4.28,6.5l2.38-.66a40,40,0,0,1,1.71,6.56Zm-4.83,1.48a38.8,38.8,0,0,1-1.44,8,20.52,20.52,0,0,0-2.84-1,27.15,27.15,0,0,0,1.36-7.48Zm3.19-.47a59.85,59.85,0,0,1,.71,6.69l-2.83.47A56.94,56.94,0,0,0,39,39.09Zm.77-5.27c-.16-.76-.38-1.52-.58-2.18-.7.85-1.41,1.7-2.12,2.49Zm2.25,4.35A34,34,0,0,1,46,42.06l-2.6.85a30.7,30.7,0,0,0-1.23-4.42Zm9-2.33c-1.06,4.89-3.44,8.52-6.79,10.54a13.94,13.94,0,0,0-2.15-2.62,11.34,11.34,0,0,0,4.69-5.56H46.52v-3H50.8l.58-.09Zm10.49.22c-1.48,1.1-2.92,2.36-4.24,3.31a13.09,13.09,0,0,0,4.69,4.36,14.49,14.49,0,0,0-2.51,3A15.27,15.27,0,0,1,57.46,41V43.7c0,1.67-.29,2.58-1.42,3.18s-2.57.6-4.63.6a13.69,13.69,0,0,0-1-3.44c1.19.07,2.51.07,2.9,0s.54-.1.54-.45V32.78H47.68V21.29h4.57a29.62,29.62,0,0,0,1-3.34l4.37.76c-.48.91-1,1.76-1.44,2.58h6.88V32.78H57.46v1a24.9,24.9,0,0,0,1,2.52,26.37,26.37,0,0,0,2.86-3.06ZM51.22,25.68h8.17V24.1H51.22Zm0,4.29h8.17V28.3H51.22Z"/><path class="cls-6" d="M96.17,42.09v3.78H66.92V42.09H78.44V18.33h4.12v9H93.92v3.82H82.56V42.09Z"/><path class="cls-6" d="M104,30.32v17.1h-3.74V19.15h12.39V30.32Zm0-8.49v1.61H109V21.83ZM109,27.6V25.9H104v1.7Zm9.43,12.72v6.5h-3.35v-6.5H112a10.21,10.21,0,0,1-4.12,7.07,14.45,14.45,0,0,0-2.44-2.15,7.36,7.36,0,0,0,3.28-4.92h-3.25V37.26h3.38V34.89h-2.93v-3h15.54v3h-3v2.37H122v3.06Zm-3.35-3.06V34.89h-3v2.37ZM127.35,43c0,1.93-.35,3-1.51,3.57s-2.83.73-5.28.73a13,13,0,0,0-1.16-3.73c1.45.07,3,.07,3.51,0s.68-.18.68-.63V30.38h-8.85V19.15h12.61Zm-9-21.2v1.61h5.22V21.83Zm5.22,5.84V25.9h-5.22v1.77Z"/><path class="cls-6" d="M157.25,26.28V39.41h-3.93V37.83h-14.9c-.71,3.56-2.09,7.16-4.76,9.75a15.39,15.39,0,0,0-3-2.56c4.18-4.16,4.57-10.38,4.57-15V20.88A109.91,109.91,0,0,0,153.48,18l3,2.84a112.24,112.24,0,0,1-17.38,2.84v2.62Zm-3.93,8.08V29.75H139.13v.32c0,1.29-.06,2.77-.19,4.29Z"/><path class="cls-6" d="M167.39,25.46H169v18.4h-1.59Z"/><path class="cls-6" d="M182.86,39.12a38.12,38.12,0,0,1-1.35,7.67,12.57,12.57,0,0,0-2.67-.92,28.41,28.41,0,0,0,1.25-7.19Zm25.49,4.61c0,1.67-.29,2.52-1.29,3.06s-2.41.63-4.47.63a11.54,11.54,0,0,0-.94-3.19c1.1.07,2.32.07,2.74.07s.55-.16.55-.57V22.52H194.61V47.45H191.2V36.31l-2.58,1.08a13.24,13.24,0,0,0-.32-1.33c-6.31,1-7.4,1.33-8.08,1.61a22.88,22.88,0,0,0-1-3c.77-.19,1.45-.94,2.42-2.14a33,33,0,0,0,2-2.81,11.67,11.67,0,0,0-3.63.69c-.2-.63-.68-2.14-1.06-3,.58-.15,1.12-.75,1.73-1.7a35.9,35.9,0,0,0,3.67-7.7l3.06,1.26a48,48,0,0,1-4.22,7.7l2.29-.15c.77-1.42,1.58-2.94,2.25-4.45l2.77,1.76A58,58,0,0,1,184,34l3.5-.48c-.25-.75-.51-1.51-.77-2.14l2.45-.92c.74,1.74,1.57,4.07,2,5.52V19.27h17.15Zm-22.27-5.27c.38,2.08.74,4.73.87,6.56l-2.67.7a65.82,65.82,0,0,0-.71-6.63Zm3.22-.92a45.85,45.85,0,0,1,1.83,5.91l-2.48.94A50.53,50.53,0,0,0,187,38.33Zm12.87,1.55A8.83,8.83,0,0,0,204,38.9c.07.76.13,1.83.23,2.53a6.58,6.58,0,0,1-2,.18h-2.71c-2.73,0-3.28-1-3.28-3.53V36.22h-.93V33.41h3.25a20.81,20.81,0,0,0-.81-2l1.93-.6h-4.53V28h1.73a16.11,16.11,0,0,0-1.19-4.1l2.16-.69a16.89,16.89,0,0,1,1.38,4.16l-1.86.63h2.83a36.35,36.35,0,0,0,1.12-4.73l2.58.66c-.45,1.36-.9,2.87-1.29,4.07h1.64v2.81h-3.76a13.77,13.77,0,0,1,1,2.18l-1.28.47h3.95v2.81H199.3v1.89c0,.7.1,1,.62,1Z"/><path class="cls-6" d="M224.34,43.76c-4.18,1.07-8.63,2.11-12,3l-.87-3.63,5-.92V34.55H212V31.3h4.44V29.06h-2.7V27.7c-.42.35-.84.66-1.25,1A20.31,20.31,0,0,0,211,25a21.88,21.88,0,0,0,6.89-7.17L221,19c-.16.32-.35.63-.51,1a40.25,40.25,0,0,1,4.85,4.29L223,26.88l-.42-.47v2.65h-2.83V31.3H224v3.25h-4.25v6.94l2.16-.44-2-.57a45.81,45.81,0,0,0,1.19-5.3l2.8.69c-.58,1.77-1.22,3.79-1.74,5.11l1.84-.37Zm-9.4-8.14a33.37,33.37,0,0,1,1.32,5.49l-2.6.73a30.91,30.91,0,0,0-1.23-5.56Zm7.15-9.75c-1-1-2.26-2.18-3.51-3.22a33.13,33.13,0,0,1-2.8,3.22Zm19,10.79c-1.35,1-2.9,2.12-4.28,3a12.42,12.42,0,0,0,4.76,4.23A14.18,14.18,0,0,0,239,47.07c-4.31-2.58-6.69-7.44-8.11-13.41H229.2v8.71l4.18-1.07a20.38,20.38,0,0,0,.32,3.28c-6.37,1.89-7.53,2.4-8.27,2.94a9.88,9.88,0,0,0-1.25-3.19,2,2,0,0,0,1.32-2V19.18h14.7V33.66h-6a26.62,26.62,0,0,0,1.16,3.22A25.44,25.44,0,0,0,238.63,34ZM229.2,22.43v2.46h7.27V22.43Zm0,8h7.27V27.92H229.2Z"/><path class="cls-6" d="M248.63,30.32v17.1H244.9V19.15h12.39V30.32Zm0-8.49v1.61h5.06V21.83Zm5.06,5.77V25.9h-5.06v1.7Zm9.43,12.72v6.5h-3.35v-6.5h-3.09a10.24,10.24,0,0,1-4.12,7.07,14.92,14.92,0,0,0-2.45-2.15,7.41,7.41,0,0,0,3.29-4.92h-3.25V37.26h3.38V34.89H250.6v-3h15.54v3h-3v2.37h3.54v3.06Zm-3.35-3.06V34.89h-3v2.37ZM272,43c0,1.93-.36,3-1.51,3.57s-2.84.73-5.28.73a13,13,0,0,0-1.16-3.73c1.45.07,3,.07,3.51,0s.67-.18.67-.63V30.38h-8.85V19.15H272Zm-9-21.2v1.61h5.21V21.83Zm5.21,5.84V25.9h-5.21v1.77Z"/><path class="cls-6" d="M301.92,26.28V39.41H298V37.83H283.1a18.37,18.37,0,0,1-4.77,9.75,15.1,15.1,0,0,0-3-2.56c4.19-4.16,4.57-10.38,4.57-15V20.88A110.22,110.22,0,0,0,298.16,18l3,2.84a112,112,0,0,1-17.38,2.84v2.62ZM298,34.36V29.75H283.8v.32c0,1.29-.06,2.77-.19,4.29Z"/></g></g></g></svg>