<svg xmlns="http://www.w3.org/2000/svg" xmlns:xlink="http://www.w3.org/1999/xlink" viewBox="0 0 1344.26 179.96"><defs><style>.cls-1{fill:url(#未命名漸層_718);}.cls-2{fill:#14899b;}</style><radialGradient id="未命名漸層_718" cx="672.13" cy="79.88" r="745.55" gradientTransform="translate(0 42.7) scale(1 0.72)" gradientUnits="userSpaceOnUse"><stop offset="0" stop-color="#fff"/><stop offset="0.4" stop-color="#fdfdfd"/><stop offset="0.6" stop-color="#f5f7f8"/><stop offset="0.76" stop-color="#e8ebef"/><stop offset="0.89" stop-color="#d5dce2"/><stop offset="1" stop-color="#bfc9d3"/></radialGradient></defs><g id="圖層_2" data-name="圖層 2"><g id="內頁"><rect class="cls-1" y="20.12" width="1344.26" height="159.84" rx="20.9"/><path d="M303.59,76.88H314v1.9h-8.08V84.3h6.8v1.9h-6.8v6.41h8.35V94.5H303.59Z"/><path d="M321.73,78.78H316.3v-1.9h13.14v1.9H324V94.5h-2.28Z"/><path d="M332.65,76.88H343v1.9h-8.07v6h6.85v1.88h-6.85V94.5h-2.28Z"/><path d="M352.11,86.15l-2.67.86v7.3c0,.94-.19,1.42-.8,1.73a8.36,8.36,0,0,1-3,.29,6.93,6.93,0,0,0-.54-1.61c1.05,0,2,0,2.3,0s.41-.09.41-.43V87.54c-1,.34-2,.65-2.86.91l-.46-1.72c.93-.24,2.08-.58,3.32-1v-4.9h-3V79.24h3v-4.8h1.64v4.8h2.26v1.63h-2.26v4.39c.79-.24,1.62-.5,2.43-.77Zm8.64,5.9.05,1.44c-3.43.58-7,1.18-9.69,1.56l-.3-1.56c1.23-.16,2.77-.38,4.46-.62V89.34h-3.38V87.88h3.38V84.61h1.61v3.27h3.33v1.46h-3.33v3.29Zm-5.46-12.93h-3.08V77.63h3.08V74.44h1.62v3.19H360v1.49h-3.06v3.21h3.62v1.49h-8.91V82.33h3.67Zm7.64,3c1.05.76,3.87,3.12,4.58,3.71l-1,1.52c-.73-.79-2.35-2.31-3.57-3.41V96.33h-1.66V74.44h1.66Z"/><path d="M372.5,84.06c0,.65,0,1.27,0,1.94h4.19V96.33H375V87.57h-2.54a27.76,27.76,0,0,1-1.64,8.78,9.52,9.52,0,0,0-1.64-.58c1.49-3.4,1.71-8.2,1.71-11.69V74.94h1.66v6.12h2.6v-6.6h1.54v8.16H372.5Zm19.1,7.39h-4.34v4.88h-1.69V91.45h-8.15v-1.6h2.65a10.81,10.81,0,0,0-1-.75,10.69,10.69,0,0,0,2.84-2.69H378.4V76.88h3.48a16.56,16.56,0,0,0,1-2.44l2,.31c-.36.74-.76,1.51-1.1,2.13h6.59v9.53h-6.66a11.16,11.16,0,0,1-3,3.44h4.79V87h1.69v2.86h4.34ZM380.12,80.94h3.5V78.37h-3.5Zm2.64,4a9.55,9.55,0,0,0,.76-2.62h-3.4V85Zm5.87-2.62h-3.47a12.05,12.05,0,0,1-.74,2.62h4.21Zm0-4h-3.37v2.57h3.37Z"/><path d="M415.83,93.42V95.2H394V93.42h9.13V74.8h1.91v7.34h9.11v1.78h-9.11v9.5Z"/><path d="M430.23,79.67v3.24h7.93v8.4c0,1-.25,1.56-1,1.87a15.51,15.51,0,0,1-4.28.31,7.08,7.08,0,0,0-.64-1.77c1.66,0,3.13,0,3.55,0s.56-.15.56-.48V84.66h-6.09V96.3h-1.84V84.66h-5.73v8.91h-1.81V82.91h7.54V79.67h-9.91V77.92h10.43a31.43,31.43,0,0,0-1.62-3.15l1.74-.53a21.35,21.35,0,0,1,1.91,3.56l-.32.12h9.71v1.75Z"/><path d="M449.86,79.84a28.91,28.91,0,0,1-2.15,3.33V96.42H446V85.24a20.21,20.21,0,0,1-2.32,2.25,11.86,11.86,0,0,0-1.05-1.56,22.26,22.26,0,0,0,5.63-6.65Zm-.54-4.8a25.23,25.23,0,0,1-5.48,5.68,15.1,15.1,0,0,0-1-1.29,19,19,0,0,0,4.8-5Zm13.59,12.14a13.34,13.34,0,0,1-4.65,5.57,24.36,24.36,0,0,0,6.46,2.09,6.6,6.6,0,0,0-1.1,1.53,23.85,23.85,0,0,1-6.93-2.61,26.54,26.54,0,0,1-7.17,2.66,5,5,0,0,0-.88-1.53,24.05,24.05,0,0,0,6.46-2.14,17.67,17.67,0,0,1-2.72-2.45,22.51,22.51,0,0,1-1.93,1.59,9.09,9.09,0,0,0-1.25-1.32A16.33,16.33,0,0,0,451.3,89a15,15,0,0,1-1.17-1.8l1.49-.5a13.77,13.77,0,0,0,.79,1.25,17.22,17.22,0,0,0,2.27-3c-3.5.22-4.13.32-4.6.49a13.53,13.53,0,0,0-.56-1.66,8.49,8.49,0,0,0,2.71-1.15c.57-.29,1.69-1,3.06-1.85-3.64.17-4.3.29-4.67.43a10.14,10.14,0,0,0-.59-1.73,4.57,4.57,0,0,0,1.62-.84,28.87,28.87,0,0,0,4.28-3.93l1.79.76a33.89,33.89,0,0,1-4.65,4l4.35-.15c1.1-.79,2.23-1.68,3.23-2.56l1.67.91a54.4,54.4,0,0,1-8.89,5.88l7.66-.41c-.56-.69-1.12-1.39-1.66-2l1.42-.72a39,39,0,0,1,4,5.18l-1.49.84a19.6,19.6,0,0,0-1.27-2l-5.43.33a16.48,16.48,0,0,1-1.18,1.92h6l.29-.07Zm-8.52,1c-.29.36-.59.7-.91,1a15.05,15.05,0,0,0,3.21,2.62,12.19,12.19,0,0,0,3.74-3.65Z"/><path d="M475.81,88.72c1.88-.77,3-1.9,3.08-3.53a2.82,2.82,0,0,1-.41,0,1.66,1.66,0,0,1-1.84-1.7,1.71,1.71,0,0,1,1.86-1.73c1.35,0,2.08,1.08,2.08,2.76A5.74,5.74,0,0,1,476.35,90Z"/><path d="M513.7,93.81v1.75H492.07V93.81h9.79V87.9h-7.54V86.2h7.54V80.94h-8.67V79.19h10.75a27.31,27.31,0,0,0-4.16-3.67l1.46-1a27.26,27.26,0,0,1,4.48,3.86l-1.15.82h7.91v1.75h-8.69V86.2h7.68v1.7h-7.68v5.91Z"/><path d="M533.16,89.58A10.58,10.58,0,0,1,530,92.92,71.27,71.27,0,0,1,537.74,95L536.1,96.3A66.74,66.74,0,0,0,528.05,94c-2.72,1.27-6.32,2-10.92,2.33a5.18,5.18,0,0,0-.73-1.56,35.91,35.91,0,0,0,8.83-1.39c-1.83-.36-3.74-.72-5.67-1a30.58,30.58,0,0,0,2.2-2.79h-5.29V88h6.32c.56-.86,1.05-1.72,1.47-2.51l1.76.4a15.53,15.53,0,0,1-1.2,2.11h7.12a7.91,7.91,0,0,0,.61-1.39l1.74.51A7.26,7.26,0,0,1,534,88h4.21v1.54Zm-9.69-12.53h-6.61V75.47h20.91v1.58h-6.88v2h5.85v6.17H518.06V79.07h5.41Zm-3.67,6.72h3.67V80.53H519.8Zm4,5.81c-.46.67-.93,1.32-1.37,1.87,1.76.29,3.5.63,5.21.94A9.78,9.78,0,0,0,531,89.58Zm5.36-12.53h-3.94v2h3.94Zm-3.94,6.72h3.94V80.53h-3.94Zm5.68-3.24v3.24H535V80.53Z"/><path d="M546.75,86.15a23.26,23.26,0,0,1-1.39,5.18c1.56,2.69,4.65,3.08,9.3,3.08,2.57,0,6.09-.1,8.56-.32a5,5,0,0,0-.58,1.66c-2.28.14-5.34.19-8,.19-5,0-8-.48-10-3.17a10.79,10.79,0,0,1-3.08,3.6,5.14,5.14,0,0,0-1.2-1.22c2.2-1.49,3.79-4.13,4.55-7.82h-2.37a2.45,2.45,0,0,0-1.42.33,11.23,11.23,0,0,0-.69-1.63,2.18,2.18,0,0,0,1.15-.67,45.42,45.42,0,0,0,3-3.94h-3.84V80h5l.29-.12,1.2.52c-1,1.42-2.79,3.89-4.14,5.5h2.55l.32,0Zm-2.22-7.08a30.11,30.11,0,0,0-2.87-3.87l1.4-.76A35.92,35.92,0,0,1,546,78.13ZM554.14,81a18,18,0,0,1-6.19,4.2,5.29,5.29,0,0,0-1.1-1.27A17,17,0,0,0,553,80.25h-5.56V78.83h6.73V77c-1.9.17-3.89.29-5.67.34a4.69,4.69,0,0,0-.42-1.28,87.85,87.85,0,0,0,12.29-1.22l1.15,1.2a49,49,0,0,1-5.58.82v2h6.6v1.42h-6.6v4h-1.77ZM561.83,87s0,.45-.05.67c-.29,2.81-.56,4-1.13,4.49a2,2,0,0,1-1.46.53,27.1,27.1,0,0,1-2.94,0,3.53,3.53,0,0,0-.47-1.39c1.18.1,2.33.12,2.72.12s.64,0,.81-.19.54-1.08.73-2.86H556.1a22.32,22.32,0,0,0,.61-2.16h-3c-.47,3.15-1.64,5.45-5.12,6.72a4.3,4.3,0,0,0-1-1.32c3-1,4-2.88,4.46-5.4h-2.55V84.83h9.08c-.12.72-.31,1.49-.49,2.21Zm0-2a41.85,41.85,0,0,0-5.63-3.76l1-1A42.36,42.36,0,0,1,563,83.94Z"/><path d="M571.23,86.15a23.26,23.26,0,0,1-1.39,5.18c1.56,2.69,4.67,3.08,9.3,3.08,2.57,0,6.12-.1,8.59-.32a4.77,4.77,0,0,0-.59,1.66c-2.3.14-5.36.19-8,.19-5,0-8.05-.48-10-3.19a10.68,10.68,0,0,1-3.08,3.62,5.14,5.14,0,0,0-1.2-1.22c2.2-1.49,3.79-4.13,4.55-7.82h-2.37a2.45,2.45,0,0,0-1.42.33,11.23,11.23,0,0,0-.69-1.63,2.18,2.18,0,0,0,1.15-.67,45.42,45.42,0,0,0,3-3.94h-3.84V80h4.94l.3-.12,1.2.52c-1,1.42-2.79,3.89-4.14,5.5h2.55l.32,0ZM569,79.07a34.5,34.5,0,0,0-2.87-3.89l1.4-.74a35.92,35.92,0,0,1,2.91,3.69ZM574.12,93h-1.61V82.62h1.86V75.28h10v7.34h1.93v8.59c0,.84-.15,1.25-.78,1.52a8.49,8.49,0,0,1-3,.26,6.41,6.41,0,0,0-.48-1.44c1,0,1.93,0,2.17,0s.4-.12.4-.36V84H574.12ZM576,82.62h2.37v-4h4.36V76.67H576Zm6.56,8H577.6v1h-1.4v-6h6.34Zm-1.42-3.79H577.6v2.54h3.52Zm1.59-4.23V79.86h-2.94v2.76Z"/><path d="M597.77,80h-8.18V78.49h8.18Zm-.61,14.93h-5.22V96H590.5V88h6.66ZM597,83.05h-6.51V81.64H597Zm-6.51,1.71H597v1.41h-6.51Zm1.42,4.68v4h3.75v-4Zm1.94-11.21A20.28,20.28,0,0,0,592,75l1.23-.77a18.84,18.84,0,0,1,1.93,3.1Zm7.8,3.5a11.26,11.26,0,0,1-3,2.81,7.91,7.91,0,0,0-1.13-1.2,9.22,9.22,0,0,0,2.89-2.71A13.59,13.59,0,0,0,598.21,79l1-1.15a15,15,0,0,1,2.13,1.51,14.65,14.65,0,0,0,1.1-2.55h-3.57V75.3h4.19l.29,0,1.1.36a16.93,16.93,0,0,1-2.4,5.62h5.8A20.19,20.19,0,0,1,605.09,75l1.51-.28c.2.69.42,1.36.69,2,.66-.56,1.39-1.2,1.86-1.68l1.1,1a19.79,19.79,0,0,1-2.42,2,14,14,0,0,0,.78,1.4c.74-.51,1.59-1.16,2.11-1.61l1.07,1a17.83,17.83,0,0,1-2.47,1.7,10.56,10.56,0,0,0,2.94,2.67A5,5,0,0,0,611,84.35a10.85,10.85,0,0,1-3-2.93v1.27h-6.32Zm7.37,9c-.59,1.17-1.3,2.54-1.91,3.57h4.63v1.47H598V94.26h7.46a23.87,23.87,0,0,0,1.84-4Zm.59-.68H600V84.33h9.62Zm-7.42,4.2a11.61,11.61,0,0,0-1.42-3.48l1.59-.4a10.7,10.7,0,0,1,1.47,3.4ZM608,85.74h-6.39V88.6H608Z"/><path d="M629.84,84.28a14.64,14.64,0,0,0,6.9,4,5.75,5.75,0,0,0-1.18,1.49,17.8,17.8,0,0,1-3.84-1.83v0c-.32,4.84-.66,6.76-1.35,7.46a2.25,2.25,0,0,1-1.61.7,29.2,29.2,0,0,1-3.28,0,4,4,0,0,0-.54-1.68,28.71,28.71,0,0,0,3,.14,1.26,1.26,0,0,0,.91-.24c.44-.43.73-1.89,1-5.47h-5.92c-.66,3.58-2.33,6.14-7.49,7.54a5.38,5.38,0,0,0-1.05-1.52c4.62-1.1,6.07-3.16,6.68-6h-3.8V87.9a23.71,23.71,0,0,1-3.23,1.8,4.3,4.3,0,0,0-1.15-1.46,18.73,18.73,0,0,0,6-4h-5.26V82.67h6.68a17,17,0,0,0,1.62-2.45h-6.8V78.64h4.06a16.24,16.24,0,0,0-2-3l1.44-.72a16.6,16.6,0,0,1,2.13,3l-1.32.68h3.2a17.24,17.24,0,0,0,1.15-4.28l1.91.2a24.44,24.44,0,0,1-1.1,4.08h2.91a24.07,24.07,0,0,0,2.35-3.6l1.67.55a28.32,28.32,0,0,1-2.2,3h3.94v1.58h-9.35a18.31,18.31,0,0,1-1.42,2.45h12.43v1.61Zm.8,2.88a13.68,13.68,0,0,1-2.86-2.88H622.3a19.07,19.07,0,0,1-3,2.88Z"/><path d="M660.41,77v1.54H639.07V77h10.11c-.25-.72-.57-1.58-.86-2.25l1.69-.43c.34.84.78,1.89,1,2.68Zm-1.35,17.36c0,.93-.24,1.34-.95,1.61a17.75,17.75,0,0,1-4,.24,4.82,4.82,0,0,0-.56-1.37c1.52,0,2.94,0,3.33,0s.54-.12.54-.51V83.49h-5V85c0,.53.07.73.47.73h2.2a8.58,8.58,0,0,0,1.35-.1c0,.41.07.89.12,1.27a4.8,4.8,0,0,1-1.42.12h-2.57c-1.49,0-1.79-.62-1.79-2V83.49H648c-.37,2.49-1.52,3.81-4.9,4.55a3.66,3.66,0,0,0-.88-1.24c2.86-.51,3.82-1.47,4.16-3.31H642.2V96.3h-1.74V82h11.31a21.15,21.15,0,0,0,1.79-3.27l1.83.41c-.58,1-1.25,2-1.88,2.86h5.55ZM645.8,78.61a26.19,26.19,0,0,1,1.54,2.67l-1.57.62c-.34-.69-1-1.9-1.51-2.78Zm1,14.67v1.1h-1.59V87.83h8.93v5.45Zm0-4.11V92h5.82V89.17Z"/><path d="M669.52,86.15a19.31,19.31,0,0,1-1.62,5.4c1.64,2.5,4.68,2.86,9.13,2.86,2.55,0,6.1-.12,8.59-.32A5.52,5.52,0,0,0,685,95.8c-2.27.12-5.31.19-8,.19-4.89,0-7.93-.5-9.84-3.1a11.06,11.06,0,0,1-3.25,3.51,6.67,6.67,0,0,0-1.2-1.23c2.33-1.46,4.11-4.1,4.9-7.84H665a2.48,2.48,0,0,0-1.44.33,11.23,11.23,0,0,0-.69-1.63,2.23,2.23,0,0,0,1.18-.7,41.65,41.65,0,0,0,3.08-3.91h-3.91V80h5.06l.32-.12,1.2.55c-1,1.39-2.89,3.86-4.28,5.47h2.79l.31,0Zm-2.35-7.06a36.57,36.57,0,0,0-3.08-3.81l1.34-.82a41.21,41.21,0,0,1,3.14,3.65Zm4.45,2.79a20.17,20.17,0,0,1-1.86,2.4,8,8,0,0,0-1-1.37,24.41,24.41,0,0,0,4.87-8.33l1.52.43a36.31,36.31,0,0,1-1.42,3.36h4.77a22.9,22.9,0,0,0-1.56-3.14l1.49-.46a21.79,21.79,0,0,1,1.86,3.6h4.21v1.49h-5.26v2.45h4.57v1.41h-4.57V86.2h4.6v1.41h-4.6v2.57H685v1.54H671.62Zm6-2h-4.28v2.45h4.28Zm0,3.86h-4.28V86.2h4.28Zm0,3.89h-4.28v2.57h4.28Z"/><path d="M695.69,80.15A30.51,30.51,0,0,1,693,83.77V96.4h-1.82V85.74a28.1,28.1,0,0,1-2.76,2.5,18.66,18.66,0,0,0-1.27-1.49A26.28,26.28,0,0,0,694,79.52Zm-1-5.07a29.76,29.76,0,0,1-6.26,6,15.15,15.15,0,0,0-1.08-1.42A24.09,24.09,0,0,0,693,74.41Zm15,9H706v9.92c0,1.1-.27,1.65-1.08,1.94a19.1,19.1,0,0,1-4.6.26,6.35,6.35,0,0,0-.58-1.72c1.73,0,3.35,0,3.81,0s.62-.12.62-.53V84.13H696v-1.7h13.71ZM709,77.56H697.08V75.88H709Z"/><path d="M728.69,84.76a17.19,17.19,0,0,1-4.09,6.07,21.45,21.45,0,0,0,9.67,3.74,6.68,6.68,0,0,0-1.13,1.61,22.17,22.17,0,0,1-9.91-4.2,26.54,26.54,0,0,1-10,4.42,7.2,7.2,0,0,0-1.1-1.61,23.94,23.94,0,0,0,9.77-4,17.32,17.32,0,0,1-4-5.93l1.62-.48a14.68,14.68,0,0,0,3.67,5.3,14,14,0,0,0,3.6-5.45Zm4.94-5.28h-21V77.72h10.16a23.26,23.26,0,0,0-1.62-3l1.69-.57a18.86,18.86,0,0,1,1.81,3.09l-1.1.43h10.06Zm-13.14,1.41a28.26,28.26,0,0,1-6.37,5.55,16.17,16.17,0,0,0-1.39-1.35,22.14,22.14,0,0,0,6-4.87Zm7-.72a35.86,35.86,0,0,1,6.29,5.19l-1.5,1.15a33,33,0,0,0-6.19-5.3Z"/><path d="M757.3,86.7a7.89,7.89,0,0,1-.07.82c-.47,5.35-1,7.41-1.69,8.16a2.12,2.12,0,0,1-1.64.67,25.47,25.47,0,0,1-3,0,3.56,3.56,0,0,0-.49-1.56c1.18.12,2.3.12,2.74.12a1,1,0,0,0,.88-.27c.54-.48,1-2.18,1.35-6.31h-3a19.89,19.89,0,0,1-5.68,8.16,9.44,9.44,0,0,0-1.46-1.1,16.65,16.65,0,0,0,5.28-7.06h-3.3a22.65,22.65,0,0,1-7.34,7.54,14.81,14.81,0,0,0-1.4-1.28,18.87,18.87,0,0,0,6.73-6.26h-3.4a22.64,22.64,0,0,1-4,3.12,8.34,8.34,0,0,0-1.42-1.25,19.28,19.28,0,0,0,6.27-5.49H740V75.52h15.64v9.17H744.79a19.72,19.72,0,0,1-1.46,2Zm-15.51-7.32h12V77h-12Zm0,3.79h12V80.8h-12Z"/><path d="M769.57,88.72c1.88-.77,3-1.9,3.08-3.53a2.82,2.82,0,0,1-.41,0,1.66,1.66,0,0,1-1.84-1.7,1.71,1.71,0,0,1,1.86-1.73c1.35,0,2.08,1.08,2.08,2.76A5.74,5.74,0,0,1,770.11,90Z"/><path d="M789.42,88.24A18,18,0,0,1,787,94.05c-.3-.22-1-.65-1.33-.87a14.26,14.26,0,0,0,2.26-5.25ZM796.86,79H785.75V77.39H791a26.55,26.55,0,0,0-1.1-2.62l1.67-.36a19,19,0,0,1,1.3,3h4Zm-4.48,7.68v7.78c0,.82-.14,1.22-.73,1.49a6.69,6.69,0,0,1-2.64.26,4.83,4.83,0,0,0-.52-1.46c.86,0,1.67,0,1.91,0s.35-.07.35-.31V86.65h-3.68V80.87h8.79v5.78Zm-3.72-1.44h5.51V82.33h-5.51Zm6.44,7.25a17,17,0,0,0-1.74-4.22l1.3-.58a15.89,15.89,0,0,1,1.81,4.18Zm6.81-10.22c-.49,5.4-1.79,10.8-5.54,14.13a4.71,4.71,0,0,0-1.32-1.05c3.53-3,4.75-8,5.19-13.08h-3.16V80.63h3.26c.12-2.11.12-4.2.15-6.15h1.71c0,2,0,4-.17,6.15h5.58v1.61Zm3.5,12.17a1.49,1.49,0,0,0,.71-.12c.19-.08.31-.29.36-.65a22,22,0,0,0,.12-2.59,3.9,3.9,0,0,0,1.42.72,14.15,14.15,0,0,1-.27,2.83,1.39,1.39,0,0,1-.75.93,3.26,3.26,0,0,1-1.4.24H804a2.64,2.64,0,0,1-1.51-.4c-.39-.29-.57-.68-.57-2.19V84.13h1.62v9.24c0,.51,0,.82.2.92a1.32,1.32,0,0,0,.58.12Zm.14-14.6a15.54,15.54,0,0,0-2.45-3.57l1.23-.68A15.06,15.06,0,0,1,806.85,79Z"/><path d="M820.09,78.68l1.06,0,0,1.65-1,.07v.12a17.79,17.79,0,0,1-2.54,10.13c1.2,1.06,2.28,2.07,3,2.88l-1.34,1.4c-.69-.8-1.67-1.78-2.77-2.81a18.07,18.07,0,0,1-5.41,4.27A5.55,5.55,0,0,0,809.79,95a17.19,17.19,0,0,0,5.29-4.16c-1.37-1.2-2.89-2.4-4.24-3.38a62.82,62.82,0,0,0,1.64-6.65L810,81l-.22-1.78,3.09-.14c.24-1.59.49-3.17.61-4.56l1.88.12c-.17,1.37-.41,2.85-.66,4.34l3.65-.19V77.6h1.78Zm-5.77,2c-.44,2.24-1,4.42-1.45,6.22,1.06.77,2.16,1.63,3.24,2.5a16,16,0,0,0,2.2-9ZM830.86,77V95.39h-1.78V94h-5.29v1.78h-1.74V77Zm-1.78,15.25V78.71h-5.29V92.25Z"/><path d="M855.61,94.09c0,1.11-.27,1.64-1,2a13.37,13.37,0,0,1-4.09.33,5.28,5.28,0,0,0-.66-1.75c1.54,0,3,0,3.38,0s.59-.17.59-.56V77.36H837.31v19h-1.77V75.66h20.07Zm-3.84-12.67H839.44V79.86h12.33ZM842.35,91.5v1.73h-1.69V83.92h9.81V91.5Zm0-6.07V90h6.41V85.43Z"/><path d="M868,93.45a33.61,33.61,0,0,1-7.56,3,11.46,11.46,0,0,0-1.35-1.35,28.61,28.61,0,0,0,7.27-2.35Zm11.53-17.91v5.28h-18.8V75.54Zm-1.39,6.67V92.49h-16V82.21ZM862.4,79.43h4v-2.5h-4ZM864,85.24h12.32V83.46H864Zm0,3h12.32V86.44H864Zm0,3h12.32V89.39H864Zm4-11.81H872v-2.5h-4.09Zm5.56,13.3c2.76.84,5.75,1.89,7.61,2.68l-1.91,1a56.92,56.92,0,0,0-7.12-2.66Zm.09-13.3h4.21v-2.5h-4.21Z"/><path d="M892.53,94.29a45.35,45.35,0,0,1-7.66,2.06,10.61,10.61,0,0,0-1.32-1.25A39.93,39.93,0,0,0,891,93.57Zm1-17.33h-9.42v-1.3h9.42V74.41h1.79v1.25h9.57V77h-9.57v1.15h8.15v1.17H885.8V78.11h7.76Zm10.35,7.15H885.34V80.27h18.57Zm-17.13,9.17V85.09h15.81v8.19Zm4.14-11.88h-4V83h4Zm-2.38,6h12.24V86.2H888.54Zm0,2.37h12.24V88.5H888.54Zm0,2.38h12.24V90.85H888.54Zm8-10.8h-4.09V83h4.09ZM898,93.64a74.87,74.87,0,0,1,7.54,1.89l-2.08.89a61.79,61.79,0,0,0-7-1.89Zm4.18-12.24H898V83h4.18Z"/><path d="M916.23,94.07c0,.91-.2,1.44-.78,1.75a7.82,7.82,0,0,1-3.06.31,7.7,7.7,0,0,0-.49-1.65c1.05,0,2,0,2.27,0s.42-.14.42-.45V87.52l-2.94,1.75L911,87.83a24,24,0,0,1-1.81,8.52,7.8,7.8,0,0,0-1.47-.84c1.64-3.36,1.76-8.14,1.76-11.64V75.3h6.78Zm-5.14-10.23c0,1.13,0,2.41-.1,3.73,1-.39,2.25-1,3.6-1.61V83.22l-.93.74a24,24,0,0,0-2.57-2.85Zm0-6.91v3.72l.83-.62a26.88,26.88,0,0,1,2.67,2.69V76.93Zm18.18,8.4a15.3,15.3,0,0,1-4.48,7,15.67,15.67,0,0,0,5.39,2.4,6.63,6.63,0,0,0-1.2,1.56,16.77,16.77,0,0,1-5.61-2.84,19.86,19.86,0,0,1-5.82,2.81,6.44,6.44,0,0,0-1-1.53,17.89,17.89,0,0,0,5.48-2.45,16.48,16.48,0,0,1-3.67-5.57l.35-.12h-1.25V85h10.33l.29-.07ZM921.54,78a6.89,6.89,0,0,1-3.62,6.36,7.35,7.35,0,0,0-1.18-1.25A5.37,5.37,0,0,0,919.85,78V75.32h7.44v5.6c0,.64.05.86.37.86H929a5.74,5.74,0,0,0,1.06-.12c0,.46.1,1.08.14,1.49a4,4,0,0,1-1.15.12h-1.51c-1.62,0-2-.67-2-2.4V77h-4Zm-1.44,8.64a14.3,14.3,0,0,0,3.32,4.66,13,13,0,0,0,3.48-4.66Z"/><path d="M939.58,91.48a19.57,19.57,0,0,1-5.8,4.37,10.79,10.79,0,0,0-1.37-1.18,15.76,15.76,0,0,0,5.51-3.77Zm14.81-2.64V90.3h-10v6.1h-1.79V90.3h-10V88.84Zm-14.64-12h-6.87V75.37h21v1.49H947v1.85h5.71v5.47H934.35V78.71h5.4Zm-4.16,10.32V85.77h15.84v1.41Zm.44-4.37h3.72V80.05H936Zm9.26-6h-3.85v1.85h3.85Zm-3.85,6h3.85V80.05h-3.85ZM947,80.05v2.76h3.92V80.05ZM948.32,91a42.49,42.49,0,0,1,5.92,3.75l-1.39,1A43,43,0,0,0,947,91.91Z"/><path d="M979.12,84.18v1.94H956.89V84.18Z"/><path d="M991.16,84.3l.62,0v1.47l-.62.07v8.28c0,1-.22,1.46-.85,1.75a9.88,9.88,0,0,1-3.36.31,5.36,5.36,0,0,0-.56-1.63c1.18,0,2.33,0,2.67,0s.44-.12.44-.46V86l-4.72.48c-.15,3.29-.64,7.15-2.09,10a4.55,4.55,0,0,0-1.37-.93,22.4,22.4,0,0,0,1.84-8.88l-1.64.16-.17-1.65,1.86-.12V76.76h2.52a17.11,17.11,0,0,0,.78-2.4l1.79.27c-.29.74-.61,1.51-.91,2.13h3.77Zm-6.34.55,4.68-.38V78.23h-4.68v6.62Zm2-5.16a17.27,17.27,0,0,1,1.76,3.1l-1.24.62a20.14,20.14,0,0,0-1.67-3.19Zm.61,11.76a22.8,22.8,0,0,0-1.71-3.5l1.22-.53a18.36,18.36,0,0,1,1.74,3.41ZM1002.74,85a15.6,15.6,0,0,1-3.7,7.37,13.45,13.45,0,0,0,4.58,2.26,6,6,0,0,0-1.2,1.49,14.65,14.65,0,0,1-4.67-2.52,16.1,16.1,0,0,1-4.9,2.64,6.11,6.11,0,0,0-1.05-1.4,15.34,15.34,0,0,0,4.72-2.4,16.49,16.49,0,0,1-3.52-6l.66-.19h-1V84.59h8.76l.32,0Zm-7.34-6.62a6.45,6.45,0,0,1-2.18,5.3,6.4,6.4,0,0,0-1.3-1.12,5,5,0,0,0,1.79-4.23V75.44h7.17v5.12c0,.62,0,.81.37.81h1.32a4.73,4.73,0,0,0,1-.12,12.78,12.78,0,0,0,.14,1.44,3.45,3.45,0,0,1-1.15.12h-1.51c-1.57,0-1.89-.64-1.89-2.28V77H995.4Zm-.69,7.85a13.32,13.32,0,0,0,3.09,5.06,12.54,12.54,0,0,0,2.88-5.06Z"/><path d="M1014.37,88.72c1.89-.77,3-1.9,3.09-3.53a3,3,0,0,1-.42,0,1.67,1.67,0,0,1-1.84-1.7,1.71,1.71,0,0,1,1.86-1.73c1.35,0,2.08,1.08,2.08,2.76a5.74,5.74,0,0,1-4.23,5.45Z"/><path d="M372.57,115.44H381v1.47h-8.39Zm7.68,4.44h-7.12v-1.41h7.12Zm-7.1,1.83h7.13v1.41h-7.13Zm7.05,10.22h-5.36V133h-1.59v-8h6.95Zm-5.36-5.47v4h3.75v-4Zm1.84-11.28a23.24,23.24,0,0,0-1.22-3.24l1.51-.46a20.1,20.1,0,0,1,1.3,3.15Zm16.72,16.3c0,.86-.18,1.29-.84,1.56a9.53,9.53,0,0,1-3.15.26,5.1,5.1,0,0,0-.52-1.49c1.1.05,2.11.05,2.4,0s.39-.1.39-.36v-2h-7.59a8.59,8.59,0,0,1-1.76,4.2,5.66,5.66,0,0,0-1.27-1.18c1.44-1.8,1.62-4.22,1.62-6.12v-4.42H393.4Zm1.41-12.34v1.37H381.23v-1.37H387v-1.63h-4.9v-1.3H387v-1.46H381.5v-1.37H387v-1.94h1.78v1.94h5.78v1.37h-5.78v1.46h5.31v1.3h-5.31v1.63Zm-3.13,9v-1.78h-7.34c0,.55,0,1.15-.07,1.78Zm-7.34-4.83v1.78h7.34v-1.78Z"/><path d="M401.38,122.24a21.42,21.42,0,0,0-4.38-2.69l1-1.27a21.05,21.05,0,0,1,4.4,2.52Zm-3.57,9.57a68.07,68.07,0,0,0,4.62-7.65l1.32,1.17c-1.27,2.52-3,5.48-4.4,7.68Zm5.14-16a23.71,23.71,0,0,0-4.66-2.91l1.08-1.25a25.56,25.56,0,0,1,4.7,2.72Zm9.79-3.82a7.45,7.45,0,0,1-.32.7,22.07,22.07,0,0,0,7.19,7.08,7.06,7.06,0,0,0-1.37,1.46,24.23,24.23,0,0,1-6.63-7,20.53,20.53,0,0,1-4,5h8.08v1.63h-8.37V119.5a20.66,20.66,0,0,1-2.6,2,8.39,8.39,0,0,0-1.34-1.32,18.36,18.36,0,0,0,7.51-8.69Zm-6.69,11.64H416.9v9.77H415v-1.22h-7.15v1.29h-1.81Zm1.81,1.61v5.33H415v-5.33Z"/><path d="M430.36,117H421.6v-1.47h8.76Zm-1,14.93H424V133h-1.47V125h6.85Zm-6.83-11.84v-1.41h6.81v1.41Zm0,1.71h6.83v1.41h-6.83Zm1.45,4.68v4h3.89v-4Zm1.93-11.21A21.92,21.92,0,0,0,424.1,112l1.27-.75a18,18,0,0,1,1.91,3.07Zm17.43.69c-.34,11.38-.66,15.17-1.57,16.35a2.27,2.27,0,0,1-1.81,1,25.16,25.16,0,0,1-3.35,0,3.69,3.69,0,0,0-.57-1.75c1.42.09,2.7.12,3.21.12s.71-.07.93-.41c.76-.82,1.1-4.51,1.4-14.55h-8a22.07,22.07,0,0,1-1.45,2.36h6.44v9.55h-5.29v1.22h-1.46V119.48c-.22.31-.47.57-.69.84-.34-.29-1.1-.82-1.54-1.11a17.91,17.91,0,0,0,4.16-7.8l1.79.41c-.32,1.08-.74,2.16-1.15,3.17h8.93Zm-10,4.54V123h3.77v-2.57Zm3.77,6.6v-2.59h-3.77v2.59Z"/><path d="M464.85,114.68a20.43,20.43,0,0,1-5.94,5.71,34.46,34.46,0,0,0,9.54,3.34,7.63,7.63,0,0,0-1.17,1.63,34.68,34.68,0,0,1-10.06-4,42,42,0,0,1-10.7,4,5.67,5.67,0,0,0-.88-1.6,40.46,40.46,0,0,0,9.94-3.51,22.42,22.42,0,0,1-4-3.48,24.18,24.18,0,0,1-3.89,3,12.62,12.62,0,0,0-1.39-1.32,20.25,20.25,0,0,0,7.73-7.27l1.74.6a20,20,0,0,1-1.47,2.11h9l.31-.09Zm-15,10.13h14.39v8.56h-1.88v-1h-10.7v1.11h-1.81Zm1.81,1.65v4.27h10.7v-4.27Zm1-10.73a19.51,19.51,0,0,0,4.48,3.68,19.57,19.57,0,0,0,4.75-3.89h-9Z"/><path d="M478.56,117h-8.17v-1.47h8.17ZM478,131.89h-5.21V133h-1.45V125H478Zm-.12-11.84h-6.51v-1.41h6.51Zm-6.51,1.71h6.51v1.41h-6.51Zm1.42,4.68v4h3.74v-4Zm1.93-11.21a20.17,20.17,0,0,0-1.83-3.22l1.22-.77a18.84,18.84,0,0,1,1.93,3.1Zm7.81,3.5a11.15,11.15,0,0,1-3,2.81,7.83,7.83,0,0,0-1.12-1.2,9.44,9.44,0,0,0,2.89-2.71A13.27,13.27,0,0,0,479,116l1-1.15a16.17,16.17,0,0,1,2.13,1.51,14.65,14.65,0,0,0,1.1-2.55h-3.57V112.3h4.18l.29,0,1.11.36a17.13,17.13,0,0,1-2.4,5.62h5.8a20,20,0,0,1-2.77-6.27l1.52-.28a19.51,19.51,0,0,0,.68,2c.67-.56,1.4-1.2,1.86-1.68l1.11,1a19.87,19.87,0,0,1-2.43,2,12.37,12.37,0,0,0,.79,1.4c.73-.51,1.59-1.16,2.1-1.61l1.08,1a18.44,18.44,0,0,1-2.47,1.7,10.39,10.39,0,0,0,2.93,2.67,5.2,5.2,0,0,0-1.25,1.27,11,11,0,0,1-3-2.93v1.27h-6.31Zm7.37,9c-.59,1.17-1.3,2.54-1.91,3.57h4.62v1.47H478.78v-1.47h7.47a23.81,23.81,0,0,0,1.83-4Zm.58-.68h-9.61v-5.68h9.61Zm-7.41,4.2a11.88,11.88,0,0,0-1.42-3.48l1.59-.4a10.7,10.7,0,0,1,1.47,3.4Zm5.77-8.47h-6.38v2.86h6.38Z"/><path d="M510.63,121.28a14.69,14.69,0,0,0,6.9,4,5.94,5.94,0,0,0-1.17,1.49,17.36,17.36,0,0,1-3.84-1.83v0c-.32,4.84-.67,6.76-1.35,7.46a2.27,2.27,0,0,1-1.62.7,29.23,29.23,0,0,1-3.28-.05,3.93,3.93,0,0,0-.53-1.68,28.51,28.51,0,0,0,3,.14,1.23,1.23,0,0,0,.9-.24c.44-.43.74-1.89,1-5.47h-5.93c-.66,3.58-2.32,6.14-7.49,7.54a5.18,5.18,0,0,0-1.05-1.52c4.63-1.1,6.07-3.16,6.68-6h-3.79v-.89a24.32,24.32,0,0,1-3.23,1.8,4.43,4.43,0,0,0-1.15-1.46,18.73,18.73,0,0,0,6-4h-5.26v-1.61h6.68a16.14,16.14,0,0,0,1.61-2.45h-6.8v-1.58H501a15.74,15.74,0,0,0-2-3l1.44-.72a16.12,16.12,0,0,1,2.13,3l-1.32.68h3.21a17.69,17.69,0,0,0,1.15-4.28l1.91.2a25.44,25.44,0,0,1-1.1,4.08h2.91a24.88,24.88,0,0,0,2.35-3.6l1.66.55a27,27,0,0,1-2.2,3h3.94v1.58h-9.35a17.29,17.29,0,0,1-1.42,2.45h12.44v1.61Zm.81,2.88a13.5,13.5,0,0,1-2.87-2.88h-5.48a18.57,18.57,0,0,1-3,2.88Z"/><path d="M541.21,114v1.54H519.86V114H530c-.24-.72-.56-1.58-.86-2.25l1.69-.43c.35.84.79,1.89,1.06,2.68Zm-1.35,17.36c0,.93-.25,1.34-1,1.61a17.65,17.65,0,0,1-4,.24,4.57,4.57,0,0,0-.57-1.37c1.52,0,2.94,0,3.33,0s.54-.12.54-.51V120.49h-4.94V122c0,.53.07.73.46.73h2.2a8.49,8.49,0,0,0,1.35-.1c0,.41.07.89.12,1.27a4.76,4.76,0,0,1-1.42.12h-2.57c-1.49,0-1.78-.62-1.78-2v-1.53h-2.77c-.37,2.49-1.52,3.81-4.89,4.55a3.56,3.56,0,0,0-.89-1.24c2.87-.51,3.82-1.47,4.17-3.31H523V133.3h-1.74V119h11.31a22,22,0,0,0,1.78-3.27l1.84.41c-.59,1-1.25,2-1.89,2.86h5.56Zm-13.27-15.75a26.42,26.42,0,0,1,1.55,2.67l-1.57.62c-.34-.69-1-1.9-1.52-2.78Zm1,14.67v1.1H526v-6.55h8.94v5.45Zm0-4.11V129h5.83v-2.79Z"/><path d="M552.81,118.8c-.76-.59-2.13-1.48-3.35-2.25-.88,1.17-2.3,2-4.6,2.54a4.28,4.28,0,0,0-.93-1.27c4.28-1,5.09-2.66,5.31-6.41h1.61a12.57,12.57,0,0,1-.71,3.89c1.33.74,2.89,1.73,3.8,2.38Zm-6.24-3.57c-.39-.6-1.25-1.63-1.88-2.4l1.1-.77a28.06,28.06,0,0,1,1.93,2.26Zm18,3.91h.64v4.32h-1.81v-2.88H546.59v2.88h-1.73v-4.32h19.31a51.55,51.55,0,0,0-4.46-2.66,7.75,7.75,0,0,1-4.48,2.49,4.44,4.44,0,0,0-.93-1.34c4.14-.94,5-2.64,5.19-6.19h1.69a11.63,11.63,0,0,1-.76,3.76,47.13,47.13,0,0,1,5,2.86Zm-9.93,7.23c-.27.48-.52,1-.71,1.39h9.76v5.57h-1.78v-.65H548.6v.67h-1.74v-5.59h5.41c.2-.41.42-.94.61-1.39h-4.43V121.9h13.17v4.47Zm7.27,2.71H548.6v2.25h13.27Zm-11.7-3.94h9.67v-2h-9.67Zm4.53-12a28.07,28.07,0,0,1-2.18,2.38l-1.08-.5a16.36,16.36,0,0,0,1.76-2.45Zm2.22,1.92c-.44-.62-1.25-1.65-1.88-2.4l1.08-.79a28.15,28.15,0,0,1,1.93,2.28Zm8.54-2c-.8.91-1.71,1.87-2.39,2.49l-1.15-.53a20.57,20.57,0,0,0,2-2.54Z"/><path d="M577.36,129.49a22.89,22.89,0,0,1-7.51,3.09,6.14,6.14,0,0,0-1.1-1.34,22.24,22.24,0,0,0,7.24-2.38Zm12.78-3.34v1.51h-9.81v5.69h-1.79v-5.69h-9.67v-1.51h9.67v-1.8h-7.37V123h7.37v-1.73h-8.62v-1.44h5.29a9.88,9.88,0,0,0-1.25-2.3l1.3-.34H569v-1.49h3.94a18.92,18.92,0,0,0-2-3.48l1.54-.52a14.42,14.42,0,0,1,2.08,3.52l-1.22.48h3v-4.24H578v4.24h2.91v-4.24h1.74v4.24h3l-1-.31a19.71,19.71,0,0,0,1.88-3.65l1.86.51c-.68,1.22-1.49,2.54-2.13,3.45H590v1.49h-6.36l1.59.43a24.4,24.4,0,0,1-1.69,2.21h5.61v1.44h-8.86V123H588v1.37h-7.66v1.8Zm-14.42-9a9.46,9.46,0,0,1,1.3,2.38l-1,.26h6.75l-.85-.26a18,18,0,0,0,1.44-2.38ZM583,128.74c2.3.75,5.41,1.9,7.1,2.67L589,132.53c-1.62-.76-4.73-2-7.05-2.83Z"/><path d="M600.06,129.37l1.64,1a31.63,31.63,0,0,1-7.61,2.95,14.16,14.16,0,0,0-1.35-1.32,26.94,26.94,0,0,0,7.22-2.66h-4.58V119.09h17.26v10.28Zm11.62-11.65H596.41v-5.37h15.27Zm-14.49,4.37h13.59v-1.68H597.19Zm0,3h13.59v-1.67H597.19Zm0,3h13.59v-1.73H597.19Zm12.61-14.26H598.22v2.49H609.8Zm-2.3,15.62c2.52.72,5.77,1.9,7.68,2.67l-1.56,1.29a64.78,64.78,0,0,0-7.69-2.8Z"/><path d="M625.88,132.7c2-.89,3-2.16,3.11-4a1.3,1.3,0,0,1-.44.05,1.67,1.67,0,0,1-1.83-1.73,1.72,1.72,0,0,1,1.86-1.73c1.34,0,2.1,1.13,2.1,2.93a6,6,0,0,1-4.23,5.78Zm.71-16.06a1.85,1.85,0,0,1,3.7,0,1.85,1.85,0,0,1-3.7,0Z"/><path d="M653.18,129.44c-3.75.79-7.74,1.63-10.57,2.25l-.35-1.8c2.65-.5,6.81-1.32,10.77-2.13Zm9.37-10.3a28.16,28.16,0,0,1-4.35,8.4c.9,2.47,2,4,3.2,4,.69,0,1-1.25,1.13-4.44a4.3,4.3,0,0,0,1.59,1c-.32,4.1-1,5.28-2.89,5.28s-3.3-1.56-4.4-4.15a22.7,22.7,0,0,1-5.17,4.13,10.3,10.3,0,0,0-1.42-1.37,19.35,19.35,0,0,0,5.88-4.71A50.38,50.38,0,0,1,654.4,117h-12v-1.75H654.3c-.07-1.25-.09-2.49-.12-3.77h1.91c0,1.3,0,2.55.07,3.77h7.35V117h-7.22a48.57,48.57,0,0,0,1.27,8.38,25.84,25.84,0,0,0,3.16-6.67Zm-10.3,0v7.25H643.8v-7.25Zm-1.79,1.56h-5v4.15h5Zm11.24-5.45a18.24,18.24,0,0,0-4.14-2.62l1.05-1.1a18.93,18.93,0,0,1,4.21,2.47Z"/><path d="M672.35,123.15a23.24,23.24,0,0,1-1.4,5.18c1.57,2.69,4.65,3.08,9.3,3.08,2.57,0,6.1-.1,8.57-.32a4.77,4.77,0,0,0-.59,1.66c-2.27.14-5.33.19-8,.19-5,0-8.05-.48-10-3.17a10.7,10.7,0,0,1-3.09,3.6,5.14,5.14,0,0,0-1.2-1.22c2.21-1.49,3.8-4.13,4.56-7.82h-2.38a2.45,2.45,0,0,0-1.42.33,12.41,12.41,0,0,0-.68-1.63,2.21,2.21,0,0,0,1.15-.67c.56-.58,2-2.48,3-3.94h-3.84V117h4.94l.29-.12,1.2.52c-1,1.42-2.79,3.89-4.13,5.5h2.54l.32,0Zm-2.23-7.08a30,30,0,0,0-2.86-3.87l1.39-.76a34.59,34.59,0,0,1,2.91,3.69Zm9.62,1.92a18.14,18.14,0,0,1-6.19,4.2,5.53,5.53,0,0,0-1.1-1.27,16.87,16.87,0,0,0,6.11-3.67H673v-1.42h6.73V114c-1.91.17-3.89.29-5.68.34a4.37,4.37,0,0,0-.42-1.28,87.69,87.69,0,0,0,12.29-1.22l1.15,1.2a48.67,48.67,0,0,1-5.58.82v2h6.61v1.42H681.5v4h-1.76Zm7.68,6.05s0,.45,0,.67c-.29,2.81-.56,4-1.12,4.49a2,2,0,0,1-1.47.53,27.1,27.1,0,0,1-2.94,0,3.68,3.68,0,0,0-.46-1.39c1.17.1,2.32.12,2.72.12s.63,0,.8-.19.54-1.08.74-2.86H681.7c.22-.62.41-1.37.61-2.16h-3c-.46,3.15-1.64,5.45-5.11,6.72a4.3,4.3,0,0,0-1-1.32c3-1,4-2.88,4.45-5.4h-2.54v-1.39h9.08c-.12.72-.32,1.49-.49,2.21Zm.05-2a41.22,41.22,0,0,0-5.63-3.76l1-1a41.6,41.6,0,0,1,5.82,3.69Z"/><path d="M696.83,123.15a23.24,23.24,0,0,1-1.4,5.18c1.57,2.69,4.68,3.08,9.3,3.08,2.57,0,6.12-.1,8.59-.32a4.76,4.76,0,0,0-.58,1.66c-2.3.14-5.36.19-8,.19-5,0-8.05-.48-10-3.19a10.59,10.59,0,0,1-3.09,3.62,5.14,5.14,0,0,0-1.2-1.22c2.21-1.49,3.8-4.13,4.56-7.82h-2.38a2.45,2.45,0,0,0-1.42.33,12.41,12.41,0,0,0-.68-1.63,2.21,2.21,0,0,0,1.15-.67c.56-.58,2-2.48,3-3.94h-3.84V117h4.94l.29-.12,1.2.52c-1,1.42-2.79,3.89-4.13,5.5h2.54l.32,0Zm-2.23-7.08a35.59,35.59,0,0,0-2.86-3.89l1.39-.74a34.59,34.59,0,0,1,2.91,3.69ZM699.71,130H698.1V119.62H700v-7.34h10v7.34h1.93v8.59c0,.84-.14,1.25-.78,1.52a8.42,8.42,0,0,1-3,.26,6,6,0,0,0-.49-1.44c1,0,1.93,0,2.18,0s.39-.12.39-.36V121H699.71Zm1.87-10.37H704v-4h4.36v-1.94h-6.73Zm6.55,8h-4.94v1H701.8v-6h6.33Zm-1.42-3.79h-3.52v2.54h3.52Zm1.6-4.23v-2.76h-2.94v2.76Z"/><path d="M723.36,117h-8.17v-1.47h8.17Zm-.61,14.93h-5.21V133h-1.45V125h6.66Zm-.12-11.84h-6.51v-1.41h6.51Zm-6.51,1.71h6.51v1.41h-6.51Zm1.42,4.68v4h3.74v-4Zm1.93-11.21a20.17,20.17,0,0,0-1.83-3.22l1.22-.77a18.84,18.84,0,0,1,1.93,3.1Zm7.81,3.5a11.3,11.3,0,0,1-3,2.81,7.83,7.83,0,0,0-1.12-1.2,9.44,9.44,0,0,0,2.89-2.71A13.27,13.27,0,0,0,723.8,116l1-1.15a16.17,16.17,0,0,1,2.13,1.51,14.65,14.65,0,0,0,1.1-2.55h-3.58V112.3h4.19l.29,0,1.1.36a16.92,16.92,0,0,1-2.39,5.62h5.8a20,20,0,0,1-2.77-6.27l1.52-.28a19.51,19.51,0,0,0,.68,2c.66-.56,1.4-1.2,1.86-1.68l1.11,1a19.87,19.87,0,0,1-2.43,2,12.37,12.37,0,0,0,.79,1.4c.73-.51,1.59-1.16,2.1-1.61l1.08,1a18.44,18.44,0,0,1-2.47,1.7,10.39,10.39,0,0,0,2.93,2.67,5.2,5.2,0,0,0-1.25,1.27,11,11,0,0,1-3-2.93v1.27h-6.31Zm7.37,9c-.59,1.17-1.3,2.54-1.91,3.57h4.62v1.47H723.58v-1.47h7.47a23.81,23.81,0,0,0,1.83-4Zm.58-.68h-9.61v-5.68h9.61Zm-7.41,4.2a11.88,11.88,0,0,0-1.42-3.48l1.59-.4a10.7,10.7,0,0,1,1.47,3.4Zm5.77-8.47h-6.38v2.86h6.38Z"/><path d="M755.43,121.28a14.64,14.64,0,0,0,6.9,4,5.94,5.94,0,0,0-1.17,1.49,17.36,17.36,0,0,1-3.84-1.83v0c-.32,4.84-.67,6.76-1.35,7.46a2.27,2.27,0,0,1-1.62.7,29.23,29.23,0,0,1-3.28-.05,3.93,3.93,0,0,0-.53-1.68,28.51,28.51,0,0,0,3,.14,1.23,1.23,0,0,0,.9-.24c.44-.43.74-1.89,1-5.47h-5.93c-.66,3.58-2.32,6.14-7.49,7.54a5.18,5.18,0,0,0-1-1.52c4.63-1.1,6.07-3.16,6.68-6h-3.79v-.89a25,25,0,0,1-3.23,1.8,4.43,4.43,0,0,0-1.15-1.46,18.84,18.84,0,0,0,6-4h-5.26v-1.61h6.68a16.14,16.14,0,0,0,1.61-2.45h-6.8v-1.58h4.06a15.74,15.74,0,0,0-2-3l1.44-.72a16.12,16.12,0,0,1,2.13,3l-1.32.68h3.21a17.69,17.69,0,0,0,1.15-4.28l1.91.2a25.44,25.44,0,0,1-1.1,4.08h2.91a24.88,24.88,0,0,0,2.35-3.6l1.66.55a27,27,0,0,1-2.2,3h3.94v1.58h-9.35a18.31,18.31,0,0,1-1.42,2.45h12.43v1.61Zm.81,2.88a13.5,13.5,0,0,1-2.87-2.88h-5.48a18.57,18.57,0,0,1-3,2.88Z"/><path d="M786,114v1.54H764.66V114h10.11c-.24-.72-.56-1.58-.86-2.25l1.69-.43c.35.84.79,1.89,1.06,2.68Zm-1.34,17.36c0,.93-.25,1.34-1,1.61a17.65,17.65,0,0,1-4,.24,4.57,4.57,0,0,0-.57-1.37c1.52,0,2.94,0,3.33,0s.54-.12.54-.51V120.49H778V122c0,.53.07.73.46.73h2.2a8.49,8.49,0,0,0,1.35-.1c0,.41.07.89.12,1.27a4.76,4.76,0,0,1-1.42.12h-2.57c-1.49,0-1.78-.62-1.78-2v-1.53h-2.77c-.37,2.49-1.52,3.81-4.89,4.55a3.56,3.56,0,0,0-.89-1.24c2.87-.51,3.82-1.47,4.16-3.31h-4.21V133.3h-1.73V119h11.31a22,22,0,0,0,1.78-3.27l1.84.41c-.59,1-1.25,2-1.89,2.86h5.56Zm-13.27-15.75a24.44,24.44,0,0,1,1.54,2.67l-1.56.62c-.34-.69-1-1.9-1.52-2.78Zm1,14.67v1.1h-1.59v-6.55h8.93v5.45Zm0-4.11V129h5.83v-2.79Z"/><path d="M795.11,123.15a19.65,19.65,0,0,1-1.61,5.4c1.64,2.5,4.67,2.86,9.13,2.86,2.54,0,6.09-.12,8.59-.32a5.52,5.52,0,0,0-.61,1.71c-2.28.12-5.31.19-8,.19-4.9,0-7.93-.5-9.84-3.1a11.08,11.08,0,0,1-3.26,3.51,6.09,6.09,0,0,0-1.2-1.23c2.33-1.46,4.12-4.1,4.9-7.84h-2.64a2.49,2.49,0,0,0-1.45.33,12.41,12.41,0,0,0-.68-1.63,2.21,2.21,0,0,0,1.17-.7,41.42,41.42,0,0,0,3.09-3.91H788.8V117h5.07l.31-.12,1.2.55c-1,1.39-2.88,3.86-4.28,5.47h2.79l.32,0Zm-2.35-7.06a35.31,35.31,0,0,0-3.08-3.81l1.35-.82a41,41,0,0,1,3.13,3.65Zm4.46,2.79a20.17,20.17,0,0,1-1.86,2.4,8.49,8.49,0,0,0-1.05-1.37,24.57,24.57,0,0,0,4.87-8.33l1.51.43a36.22,36.22,0,0,1-1.41,3.36h4.77a24.2,24.2,0,0,0-1.57-3.14l1.49-.46a20.35,20.35,0,0,1,1.86,3.6H810v1.49h-5.26v2.45h4.58v1.41h-4.58v2.48h4.6v1.41h-4.6v2.57h5.8v1.54H797.22Zm5.95-2h-4.29v2.45h4.29Zm0,3.86h-4.29v2.48h4.29Zm0,3.89h-4.29v2.57h4.29Z"/><path d="M821.28,117.15a30.51,30.51,0,0,1-2.69,3.62V133.4h-1.81V122.74a28.16,28.16,0,0,1-2.77,2.5,15.27,15.27,0,0,0-1.27-1.49,26.13,26.13,0,0,0,6.85-7.23Zm-.95-5.07a29.81,29.81,0,0,1-6.27,6,17,17,0,0,0-1.07-1.42,23.83,23.83,0,0,0,5.6-5.21Zm15,9h-3.69v9.92c0,1.1-.27,1.65-1.08,1.94a19.1,19.1,0,0,1-4.6.26,6.39,6.39,0,0,0-.59-1.72c1.74,0,3.35,0,3.82,0s.61-.12.61-.53v-9.89h-8.17v-1.7h13.7Zm-.71-6.57H822.68v-1.68h11.94Z"/><path d="M847.79,116.45h-7.61v3.87h-1.73v-5.14h9.34v-1.54H839.5v-1.27H858v1.27h-8.39v1.54h9.52v5.14h-1.79v-3.87h-7.73v5.45h-1.77Zm8.94,15.12c1.3,0,1.54-.4,1.66-2.78a5.3,5.3,0,0,0,1.59.58c-.27,2.9-.8,3.64-3.13,3.64h-5.63c-2.72,0-3.5-.48-3.5-2.4v-.74h-5.41v1.25h-1.76v-8.33h16.5v7.08h-7.57v.74c0,.82.3,1,1.81,1Zm-16.11-11c1.55-.14,3.65-.46,5.8-.79l.08,1.13c-1.89.38-3.75.77-5.34,1Zm1.18-3.65a23.81,23.81,0,0,1,4.7,1.25l-.54,1.11a24.22,24.22,0,0,0-4.72-1.4Zm.51,7.15v1.64h5.41v-1.64Zm5.41,4.49v-1.65h-5.41v1.65Zm7.54-4.49h-5.78v1.64h5.78Zm0,4.49v-1.65h-5.78v1.65Zm1-6.53a38.59,38.59,0,0,0-5.71-1.32l.45-1.08a33.29,33.29,0,0,1,5.67,1.18Zm0-4.22a28.93,28.93,0,0,1-4.77,1.37l-.64-.94a43.56,43.56,0,0,0,4.63-1.44Z"/><path d="M884.24,123.82h-10V131c0,1.2-.32,1.76-1.25,2a18,18,0,0,1-4.8.34,6.91,6.91,0,0,0-.78-1.83c2,.07,3.77.05,4.31,0s.66-.15.66-.58v-7.13H862.31V122H872.4v-3.45a30.34,30.34,0,0,0,6.12-3.79H864.74V113H880.5l.39-.09,1.37,1a34.7,34.7,0,0,1-8,5.54V122h10Z"/><path d="M903.24,121.76a16.93,16.93,0,0,1-4.09,6.07,21.45,21.45,0,0,0,9.67,3.74,7.29,7.29,0,0,0-1.13,1.61,22.27,22.27,0,0,1-9.91-4.2,26.49,26.49,0,0,1-10,4.42,7.93,7.93,0,0,0-1.1-1.61,23.89,23.89,0,0,0,9.76-4,17.15,17.15,0,0,1-4-5.93l1.61-.48a14.68,14.68,0,0,0,3.67,5.3,13.91,13.91,0,0,0,3.6-5.45Zm4.94-5.28h-21v-1.76h10.16a23.11,23.11,0,0,0-1.61-3l1.69-.57a20.42,20.42,0,0,1,1.81,3.09l-1.11.43h10.06ZM895,117.89a28.43,28.43,0,0,1-6.36,5.55,16.31,16.31,0,0,0-1.4-1.35,22,22,0,0,0,6-4.87Zm7-.72a35.86,35.86,0,0,1,6.29,5.19l-1.49,1.15a33,33,0,0,0-6.19-5.3Z"/><path d="M931.86,123.7s0,.55-.08.82c-.46,5.35-.95,7.41-1.69,8.16a2.11,2.11,0,0,1-1.64.67,25.46,25.46,0,0,1-3,0,3.56,3.56,0,0,0-.49-1.56c1.18.12,2.3.12,2.75.12a1,1,0,0,0,.88-.27c.54-.48.95-2.18,1.34-6.31h-3a20,20,0,0,1-5.68,8.16,10.05,10.05,0,0,0-1.47-1.1,16.75,16.75,0,0,0,5.29-7.06h-3.31a22.56,22.56,0,0,1-7.34,7.54,14.64,14.64,0,0,0-1.39-1.28,19,19,0,0,0,6.73-6.26h-3.41a22.22,22.22,0,0,1-4,3.12,8.75,8.75,0,0,0-1.42-1.25,19.48,19.48,0,0,0,6.27-5.49h-2.7v-9.17h15.64v9.17H919.35a19.83,19.83,0,0,1-1.47,2Zm-15.52-7.32h12V114h-12Zm0,3.79h12V117.8h-12Z"/><path d="M950.46,122.41a3.72,3.72,0,1,1-3.72-3.65A3.68,3.68,0,0,1,950.46,122.41Zm-1.25,0a2.47,2.47,0,1,0-2.47,2.42A2.44,2.44,0,0,0,949.21,122.41Z"/><path class="cls-2" d="M506.54,20.12c0,8.61,3.82,15.67,8.49,19.62V40H501.66V.29H515V.5C510.36,4.45,506.54,11.51,506.54,20.12Z"/><path class="cls-2" d="M521.19,5h19.45v5.21H527.53v7.18h11.14v5.21H527.53v8.32h13.58v5.2H521.19Z"/><path class="cls-2" d="M556,10.17h-8.91V5h24.25v5.21h-9V36.08H556Z"/><path class="cls-2" d="M578.6,5h19.53v5.21H584.94v8.1h11.27v5.21H584.94v12.6H578.6Z"/><path class="cls-2" d="M616.42,22.52c-1.28.37-2.61.79-3.89,1.17V34.53c0,2.31-.39,3.53-1.72,4.28s-3.08,1-5.83.93a17.43,17.43,0,0,0-1.28-4.54c1.54.09,3,.09,3.56.09s.72-.17.72-.76V25c-1.41.37-2.78.75-4,1.09l-1.12-4.79c1.46-.3,3.22-.76,5.14-1.22V13h-4.37V8.44H608V.55h4.55V8.44h3.3V13h-3.3V18.9l3.25-.88Zm14.53,9,.13,4c-5.74.8-11.87,1.56-16.41,2.15L614,33.31c2-.21,4.42-.46,7-.71V27.77h-5v-4h5v-5h4.5v5h4.88v4h-4.88v4.32Zm-9.9-22.09h-4.54V5.5h4.54V.55h4.54v5h4.5V9.41h-4.5v4.33h5.1v3.94H615.61V13.74h5.44ZM641.19,24.7c-1.11-1.47-3-3.61-4.8-5.46v20.5h-4.71V.55h4.71V13.86c1.89,1.43,6.47,5.51,7.63,6.56Z"/><path class="cls-2" d="M658.58.55h4.2v15.2h-7.29v1.47c0,1,0,2.15,0,3.32h7.2V39.78H658v-15h-2.74c-.35,5.17-1.12,10.71-2.75,15-1.11-.42-3.25-1.1-4.49-1.43,2.52-6.05,2.91-15.21,2.91-21.05V1.6h4.58v10h3.09Zm29.65,31.16H681.8v8h-4.54v-8H663.63V27.3h4.08a15,15,0,0,0-1.8-1.3,17.54,17.54,0,0,0,4.32-3.86h-5.4V4.79h6A30.46,30.46,0,0,0,672.55.55l5.7.75c-.73,1.26-1.42,2.44-2.06,3.49h10.24V22.14H675.29a19.71,19.71,0,0,1-4.07,5.16h6V23h4.54V27.3h6.47ZM669.5,11.55h3.86V8.74H669.5Zm2.92,6.64a15.07,15.07,0,0,0,.81-2.94H669.5v2.94Zm9.17-2.94h-3.9a21.22,21.22,0,0,1-.73,2.94h4.63Zm0-6.51h-3.73v2.81h3.73Z"/><path class="cls-2" d="M732.78,32.64v5H693.83v-5h15.34V1h5.49V13h15.12V18.1H714.66V32.64Z"/><path class="cls-2" d="M760.8,11.05v4.7h13.79V29.91c0,2.48-.51,3.86-2.31,4.62s-4.24.84-7.54.84A17.31,17.31,0,0,0,763,30.46c2.15.12,4.68.12,5.32.08s.94-.17.94-.71V20.62H760.8V39.53h-5.32V20.62h-7.92V35.37h-5.14V15.75h13.06v-4.7H738.82V6.17H756c-.64-1.51-1.46-3.23-2.19-4.62L758.87,0c1.07,1.93,2.48,4.45,3.21,6.17h15.81v4.88Z"/><path class="cls-2" d="M796.65,11.09a47.55,47.55,0,0,1-3.38,5.54V39.86h-4.8V22.43c-.9.93-1.84,1.77-2.7,2.52a30.49,30.49,0,0,0-2.7-4.66,35.06,35.06,0,0,0,9.08-10.75Zm-.77-8.86a46,46,0,0,1-9.77,10.29,30.55,30.55,0,0,0-2.7-3.61,34.3,34.3,0,0,0,8-8.36Zm23.87,21.21a23.49,23.49,0,0,1-7.16,9.45,46.27,46.27,0,0,0,10.07,2.69,17.89,17.89,0,0,0-3,4.33,40.62,40.62,0,0,1-11.66-4A46.2,46.2,0,0,1,796.14,40a16,16,0,0,0-2.4-4.24A42.47,42.47,0,0,0,803.51,33a26.86,26.86,0,0,1-2.83-2.48,29.84,29.84,0,0,1-2.79,2.18,35.8,35.8,0,0,0-3.34-3.61,35.13,35.13,0,0,0,3.09-2.23,24.53,24.53,0,0,1-2.27-3.69l4.15-1.35a15.86,15.86,0,0,0,1.16,2,28.19,28.19,0,0,0,3-4c-4.63.38-5.83.59-6.77.92a34.67,34.67,0,0,0-1.5-4.54,13.74,13.74,0,0,0,4.84-2.05,38.28,38.28,0,0,0,3.9-2.23c-4.46.21-5.53.42-6.3.71-.3-1.05-1.07-3.4-1.63-4.7a8.6,8.6,0,0,0,2.87-1.47A33.39,33.39,0,0,0,806,.59l5.1,2.18a54,54,0,0,1-6.86,5.38l5.53-.08c1.63-1.27,3.21-2.57,4.63-3.91l4.75,2.52a82,82,0,0,1-13.49,9l8.95-.46c-.6-.84-1.2-1.64-1.75-2.4l3.9-2A94.11,94.11,0,0,1,823.17,20L819,22.31a34.73,34.73,0,0,0-2-3.41l-7.88.51c-.47,1-1,1.89-1.5,2.81h8.14l.82-.21Zm-15,2.73c-.34.42-.68.84-1,1.22a25.88,25.88,0,0,0,4.29,3.23,18,18,0,0,0,4.84-4.45Z"/><path class="cls-2" d="M826.94,40v-.21c4.67-4,8.48-11,8.48-19.62S831.61,4.45,826.94.5V.29h13.37V40Z"/></g></g></svg>