<svg xmlns="http://www.w3.org/2000/svg" xmlns:xlink="http://www.w3.org/1999/xlink" viewBox="0 0 1344.26 202.54"><defs><style>.cls-1{fill:url(#未命名漸層_718);}.cls-2{fill:#14899b;}</style><radialGradient id="未命名漸層_718" cx="672.13" cy="99.14" r="745.55" gradientTransform="translate(0 37.75) scale(1 0.78)" gradientUnits="userSpaceOnUse"><stop offset="0" stop-color="#fff"/><stop offset="0.4" stop-color="#fdfdfd"/><stop offset="0.6" stop-color="#f5f7f8"/><stop offset="0.76" stop-color="#e8ebef"/><stop offset="0.89" stop-color="#d5dce2"/><stop offset="1" stop-color="#bfc9d3"/></radialGradient></defs><g id="圖層_2" data-name="圖層 2"><g id="內頁"><rect class="cls-1" y="28.21" width="1344.26" height="174.33" rx="21.83"/><path d="M216.31,84.17V97.06h-1.79V76.16h8.86v8Zm0-6.65v2h5.36v-2Zm5.36,5.28V80.74h-5.36V82.8Zm6.07,8.45v5.36h-1.62V91.25h-3.47a7.68,7.68,0,0,1-3.28,5.67,6.5,6.5,0,0,0-1.2-1.06,6,6,0,0,0,2.89-4.61H218V89.74h3.11V87.15h-2.65V85.68h12.07v1.47h-2.79v2.59h3.33v1.51Zm-1.62-1.51V87.15H222.7v2.59Zm8.5,5c0,1.06-.25,1.64-1,2a11.89,11.89,0,0,1-3.79.31,5.82,5.82,0,0,0-.59-1.78c1.35.05,2.67.05,3,0s.51-.15.51-.53V84.2h-7.29v-8h9.08Zm-7.34-17.21v2h5.55v-2Zm5.55,5.31V80.74h-5.55v2.09Z"/><path d="M242.33,90.51a8.79,8.79,0,0,1-3.08,6.6,5.42,5.42,0,0,0-1.1-1.15,6.87,6.87,0,0,0,2.54-5.45h-2.52V89h2.57V86.14h-2.89V84.63h4a36.7,36.7,0,0,0,1.1-4.49l1.45.34c-.39,1.34-.83,2.92-1.23,4.15h2v1.51h-2.82V89h2.42v1.51Zm2.74-10.68h-7V78.32h2.86a22.11,22.11,0,0,0-1.12-2.48l1.51-.43a25.92,25.92,0,0,1,1.37,2.91h2.4Zm-5.67,4.61a13.76,13.76,0,0,0-.71-3.84l1.27-.29a14.26,14.26,0,0,1,.81,3.79Zm12.36-3.89s0,.62,0,.81c-.15,10.3-.24,13.54-.81,14.45a1.64,1.64,0,0,1-1.32.82,12,12,0,0,1-1.93,0,4.73,4.73,0,0,0-.42-1.51c.71,0,1.37,0,1.69,0a.58.58,0,0,0,.64-.36c.34-.62.51-3.7.63-12.7h-1.73c-.27,6.27-1,11.26-3.58,15A11.05,11.05,0,0,0,243.68,96c2.4-3.21,3.13-8,3.35-13.87h-1.52V80.55h1.55c0-1.73,0-3.53,0-5.4h1.49c0,1.89,0,3.67-.07,5.4Zm5.45,5.61v3.17h2.67v1.51h-2.67V97h-1.66V90.84H253V89.33h2.6V86.16h-3V84.65h4.23a36,36,0,0,0,1.1-4.61l1.47.36c-.39,1.4-.83,3-1.22,4.25h2v1.51Zm2.65-6.38h-7.22V78.29h3a25.6,25.6,0,0,0-1.18-2.62l1.52-.43a22.11,22.11,0,0,1,1.39,3.05h2.48Zm-5.71,4.73a16,16,0,0,0-.8-4l1.24-.31a14.9,14.9,0,0,1,.91,3.94Z"/><path d="M278.07,85a14.64,14.64,0,0,0,6.9,4,5.94,5.94,0,0,0-1.17,1.49A17.36,17.36,0,0,1,280,88.61v0c-.32,4.84-.67,6.77-1.35,7.46a2.27,2.27,0,0,1-1.62.7,29.23,29.23,0,0,1-3.28,0,4,4,0,0,0-.53-1.68,28.51,28.51,0,0,0,3,.14,1.19,1.19,0,0,0,.9-.24c.44-.43.74-1.89,1-5.47h-5.93c-.66,3.58-2.32,6.14-7.49,7.54a5,5,0,0,0-1.05-1.51c4.63-1.11,6.07-3.17,6.68-6h-3.79v-.89a24.32,24.32,0,0,1-3.23,1.8A4.43,4.43,0,0,0,262.14,89a18.84,18.84,0,0,0,6-4h-5.26V83.38h6.68a16.14,16.14,0,0,0,1.61-2.45h-6.8V79.35h4.06a15.38,15.38,0,0,0-2-2.95l1.44-.73a15.84,15.84,0,0,1,2.13,3l-1.32.67h3.21A17.74,17.74,0,0,0,273,75.08l1.91.19a25.16,25.16,0,0,1-1.1,4.08h2.91a24.88,24.88,0,0,0,2.35-3.6l1.66.55a26.14,26.14,0,0,1-2.2,3h3.94v1.58h-9.35a17.29,17.29,0,0,1-1.42,2.45h12.44V85Zm.81,2.88A13.22,13.22,0,0,1,276,85h-5.49a18.57,18.57,0,0,1-3,2.88Z"/><path d="M308.65,77.72v1.53H287.3V77.72h10.11c-.24-.72-.56-1.59-.86-2.26l1.69-.43c.35.84.79,1.89,1.06,2.69ZM307.3,95.07c0,.93-.25,1.34-1,1.61a17.65,17.65,0,0,1-4,.24,4.68,4.68,0,0,0-.57-1.37c1.52,0,2.94,0,3.33,0s.54-.12.54-.51V84.2h-4.94v1.56c0,.52.07.72.46.72h2.2a8.49,8.49,0,0,0,1.35-.1c0,.41.07.89.12,1.27a4.76,4.76,0,0,1-1.42.12h-2.57c-1.49,0-1.78-.62-1.78-2V84.2h-2.77c-.37,2.49-1.52,3.81-4.89,4.56a3.59,3.59,0,0,0-.89-1.25c2.87-.51,3.82-1.47,4.17-3.31h-4.21V97H288.7V82.71H300a22,22,0,0,0,1.78-3.27l1.84.41c-.59,1-1.25,2-1.89,2.86h5.56ZM294,79.32A26.42,26.42,0,0,1,295.58,82l-1.57.62c-.34-.69-1-1.89-1.52-2.78ZM295,94v1.1h-1.59V88.54h8.93V94Zm0-4.11v2.79h5.83V89.88Z"/><path d="M320.59,80.36a1.85,1.85,0,0,1,3.7,0,1.85,1.85,0,0,1-3.7,0Zm0,11.76a1.85,1.85,0,1,1,1.84,1.8A1.8,1.8,0,0,1,320.59,92.12Z"/><path d="M357.14,77.07V81.6h-1.79v-3H338.49v3h-1.74V77.07h9.3c-.29-.58-.61-1.2-.93-1.73l1.89-.43a24.76,24.76,0,0,1,1.25,2.16Zm-18.77,11.4h17.3V97h-1.79v-.72h-13.8v.81h-1.71Zm15.54-7.08h-14v-1.3h14ZM340,87.08V82.71h13.75v4.37Zm.07,2.76v1.87h5.85V89.84Zm0,5h5.85V93h-5.85Zm1.59-9.08H352V84H341.67Zm12.21,4h-6.19v1.87h6.19Zm0,5V93h-6.19v1.92Z"/><path d="M372.29,78.65a32.92,32.92,0,0,1-4.74,1.2v3.39h4v1.6h-4a31.07,31.07,0,0,1-.25,3.36h4.95v1.68H367a12,12,0,0,1-4.84,7.3,7.14,7.14,0,0,0-1.47-1.25,10.54,10.54,0,0,0,4.4-6.05h-4.79V88.2h5.16a24.57,24.57,0,0,0,.27-3.36h-4.53v-1.6h4.53V80.16c-1.59.27-3.18.46-4.65.6a4.63,4.63,0,0,0-.54-1.46c1.67-.19,3.45-.46,5.19-.77V75.17h1.79v3a26.1,26.1,0,0,0,3.74-1Zm10.09-1.37c-1.15,2.28-2.57,5-3.82,7.13,2.77,2.19,3.5,4.11,3.5,5.81,0,1.44-.37,2.54-1.3,3.1a4.16,4.16,0,0,1-1.71.55,15.26,15.26,0,0,1-2.35,0,3.91,3.91,0,0,0-.51-1.72,13.27,13.27,0,0,0,2.15,0,3,3,0,0,0,1.2-.29c.59-.31.78-1,.78-1.87,0-1.51-.85-3.31-3.67-5.4a69,69,0,0,0,3.26-6.48H375V97.08H373.2V76.52h7.59l.29-.08Z"/><path d="M392.88,80.67h-8.17V79.2h8.17Zm-.61,14.93h-5.21v1.12h-1.45V88.66h6.66Zm-.12-11.84h-6.51V82.35h6.51Zm-6.51,1.71h6.51v1.41h-6.51Zm1.42,4.68v4h3.74v-4ZM389,78.94a20.61,20.61,0,0,0-1.83-3.22l1.22-.76a18.78,18.78,0,0,1,1.93,3.09Zm7.81,3.5a11,11,0,0,1-3,2.81,7.83,7.83,0,0,0-1.12-1.2,9.32,9.32,0,0,0,2.89-2.71,13.82,13.82,0,0,0-2.26-1.68l1-1.15A17.16,17.16,0,0,1,396.46,80a14.89,14.89,0,0,0,1.1-2.54H394V76h4.19l.29-.05,1.1.36a16.92,16.92,0,0,1-2.39,5.62H403a20,20,0,0,1-2.77-6.27l1.52-.28c.19.69.42,1.36.68,2,.66-.55,1.4-1.2,1.86-1.68l1.11,1a21,21,0,0,1-2.43,2,13.19,13.19,0,0,0,.79,1.39,24.72,24.72,0,0,0,2.1-1.61l1.08,1a18.44,18.44,0,0,1-2.47,1.7,10.39,10.39,0,0,0,2.93,2.67,5.2,5.2,0,0,0-1.25,1.27,10.85,10.85,0,0,1-3-2.93V83.4H396.8Zm7.37,9c-.59,1.17-1.3,2.54-1.91,3.57h4.62v1.47H393.1V95h7.47a23.81,23.81,0,0,0,1.83-4Zm.58-.68h-9.61V85h9.61Zm-7.41,4.2a11.88,11.88,0,0,0-1.42-3.48l1.59-.4a10.7,10.7,0,0,1,1.47,3.4Zm5.77-8.47h-6.38v2.86h6.38Z"/><path d="M425,85a14.64,14.64,0,0,0,6.9,4,5.94,5.94,0,0,0-1.17,1.49,17.36,17.36,0,0,1-3.84-1.83v0c-.32,4.84-.67,6.77-1.35,7.46a2.27,2.27,0,0,1-1.62.7,29.23,29.23,0,0,1-3.28,0,4,4,0,0,0-.53-1.68,28.51,28.51,0,0,0,3,.14A1.19,1.19,0,0,0,424,95c.44-.43.74-1.89,1-5.47h-5.93c-.66,3.58-2.32,6.14-7.49,7.54a5,5,0,0,0-1.05-1.51c4.63-1.11,6.07-3.17,6.68-6H413.4v-.89a24.32,24.32,0,0,1-3.23,1.8A4.43,4.43,0,0,0,409,89a18.84,18.84,0,0,0,6-4h-5.26V83.38h6.68A16.14,16.14,0,0,0,418,80.93h-6.8V79.35h4.06a15.38,15.38,0,0,0-2-2.95l1.44-.73a15.84,15.84,0,0,1,2.13,3l-1.32.67h3.21a17.74,17.74,0,0,0,1.15-4.27l1.91.19a25.16,25.16,0,0,1-1.1,4.08h2.91a24.88,24.88,0,0,0,2.35-3.6l1.66.55a26.14,26.14,0,0,1-2.2,3h3.94v1.58H420a17.29,17.29,0,0,1-1.42,2.45H431V85Zm.81,2.88A13.22,13.22,0,0,1,422.9,85h-5.49a18.57,18.57,0,0,1-3,2.88Z"/><path d="M441.31,84.24l1.59-1.36a46.49,46.49,0,0,1,5.48,5.32l-1.67,1.37A43,43,0,0,0,441.31,84.24Z"/><path d="M477.36,76.78v19.9h-1.91V95.21H463.31v1.56h-1.83v-20Zm-14.05,1.75V85h12.14V78.53Zm12.14,14.93v-6.7H463.31v6.7Z"/><path d="M486.62,82.9a12.26,12.26,0,0,1-2.43,6.5,5.7,5.7,0,0,0-1.49-1.1c2-2.33,2.25-5.45,2.25-7.68V77.76h9.11a18.51,18.51,0,0,1-.32-2.59h1.79a16.82,16.82,0,0,0,.32,2.59h3.91a13.62,13.62,0,0,0-2.37-1.92l1.25-.76a14.83,14.83,0,0,1,2.71,2.11l-.88.57h3.79v1.56h-8.1A19.55,19.55,0,0,0,498,83.67,15.09,15.09,0,0,0,501,80l1.64.5A18.58,18.58,0,0,1,498.9,85a4.53,4.53,0,0,0,3.28,2c.64,0,.91-.74,1-2.83a4.67,4.67,0,0,0,1.47.79c-.29,3-.95,3.74-2.59,3.74a6.15,6.15,0,0,1-4.56-2.56,26.42,26.42,0,0,1-3.69,2.28,10,10,0,0,0-1.23-1.32,21.08,21.08,0,0,0,4-2.28,19.06,19.06,0,0,1-2.23-5.48h-7.61v1.32c0,.27,0,.53,0,.82h6s0,.43-.05.65c-.15,3.12-.34,4.39-.81,4.87a1.78,1.78,0,0,1-1.32.55,22.08,22.08,0,0,1-2.55,0,4,4,0,0,0-.41-1.39c.95.09,1.83.09,2.18.09s.53,0,.68-.19.37-1.08.49-3.12Zm18.11,12v1.64H482.8V94.92h3V89.16h16.11v5.76Zm-17.21,0h3.06V90.63h-3.06Zm4.73-4.29v4.29h3.08V90.63Zm4.77,0v4.29h3.11V90.63Z"/><path d="M515.28,80.67h-8.17V79.2h8.17Zm-.61,14.93h-5.21v1.12H508V88.66h6.66Zm-.12-11.84H508V82.35h6.51ZM508,85.47h6.51v1.41H508Zm1.42,4.68v4h3.74v-4Zm1.93-11.21a20.61,20.61,0,0,0-1.83-3.22l1.22-.76a18.78,18.78,0,0,1,1.93,3.09Zm7.81,3.5a11.14,11.14,0,0,1-3,2.81,7.83,7.83,0,0,0-1.12-1.2A9.32,9.32,0,0,0,518,81.34a13.82,13.82,0,0,0-2.26-1.68l1-1.15A17.16,17.16,0,0,1,518.86,80a14.89,14.89,0,0,0,1.1-2.54h-3.58V76h4.19l.29-.05,1.1.36a16.92,16.92,0,0,1-2.39,5.62h5.8a20,20,0,0,1-2.77-6.27l1.52-.28a19.51,19.51,0,0,0,.68,2c.66-.55,1.4-1.2,1.86-1.68l1.11,1a21,21,0,0,1-2.43,2,13.19,13.19,0,0,0,.79,1.39,24.72,24.72,0,0,0,2.1-1.61l1.08,1a18.44,18.44,0,0,1-2.47,1.7,10.39,10.39,0,0,0,2.93,2.67,5.2,5.2,0,0,0-1.25,1.27,10.85,10.85,0,0,1-3-2.93V83.4H519.2Zm7.37,9c-.59,1.17-1.3,2.54-1.91,3.57h4.62v1.47H515.5V95H523a23.81,23.81,0,0,0,1.83-4Zm.58-.68h-9.61V85h9.61Zm-7.41,4.2a11.88,11.88,0,0,0-1.42-3.48l1.59-.4a10.7,10.7,0,0,1,1.47,3.4Zm5.77-8.47h-6.38v2.86h6.38Z"/><path d="M547.35,85a14.69,14.69,0,0,0,6.9,4,5.94,5.94,0,0,0-1.17,1.49,17.36,17.36,0,0,1-3.84-1.83v0c-.32,4.84-.67,6.77-1.35,7.46a2.27,2.27,0,0,1-1.62.7,29.23,29.23,0,0,1-3.28,0,4,4,0,0,0-.53-1.68,28.51,28.51,0,0,0,3,.14,1.19,1.19,0,0,0,.9-.24c.44-.43.74-1.89,1-5.47h-5.92c-.66,3.58-2.32,6.14-7.49,7.54a5,5,0,0,0-1.05-1.51c4.63-1.11,6.07-3.17,6.68-6H535.8v-.89a25,25,0,0,1-3.23,1.8A4.43,4.43,0,0,0,531.42,89a18.84,18.84,0,0,0,6-4h-5.26V83.38h6.68a16.14,16.14,0,0,0,1.61-2.45h-6.8V79.35h4.06a15.38,15.38,0,0,0-2-2.95l1.44-.73a15.84,15.84,0,0,1,2.13,3l-1.32.67h3.21a17.74,17.74,0,0,0,1.15-4.27l1.91.19a25.16,25.16,0,0,1-1.1,4.08H546a24.88,24.88,0,0,0,2.35-3.6l1.66.55a26.14,26.14,0,0,1-2.2,3h3.94v1.58h-9.35A17.29,17.29,0,0,1,541,83.38h12.43V85Zm.81,2.88A13.5,13.5,0,0,1,545.29,85h-5.48a18.57,18.57,0,0,1-3,2.88Z"/><path d="M563.7,84.24l1.6-1.36a46.49,46.49,0,0,1,5.48,5.32l-1.67,1.37A42.38,42.38,0,0,0,563.7,84.24Z"/><path d="M601.21,95a.6.6,0,0,0,.46-.16,1.55,1.55,0,0,0,.22-.8c0-.52.05-1.6.07-3a4,4,0,0,0,1.33.72,26.12,26.12,0,0,1-.2,3.34,1.62,1.62,0,0,1-.61,1.2,1.91,1.91,0,0,1-1.2.31H600.2a1.87,1.87,0,0,1-1.3-.46c-.36-.33-.51-.74-.51-2.81V78.05h-3.67v6.22c0,4-.44,9.26-3.74,12.81a7,7,0,0,0-1.42-1,12,12,0,0,0,.85-1c-3.5.46-7.1.89-9.69,1.23l-.24-1.61c1.95-.19,4.69-.48,7.61-.82l-.91-.24a26.23,26.23,0,0,0,1.18-3.12l1.71.44c-.44,1-.91,2.06-1.32,2.85l2.25-.26v.62c1.81-3.09,2-6.84,2-9.86v-7.9h7.12V93.56a3.29,3.29,0,0,0,.13,1.34.51.51,0,0,0,.36.14ZM592,83.81H580.62V82.35H592ZM591.22,81h-9.79V76.3H583v3.29h2.44V75.44h1.67v4.15h2.59V76.3h1.57Zm-.29,9.27h-9.11V85.16h9.11Zm-7.3,3.89a12.12,12.12,0,0,0-1-3.17l1.49-.36a9.65,9.65,0,0,1,1.18,3.05Zm5.53-7.64h-5.65v2.36h5.65Z"/><path d="M622,88.11a13.55,13.55,0,0,0,5.51,3.69,7,7,0,0,0-1.2,1.37,14.89,14.89,0,0,1-6.22-5.06h-7.66a16.61,16.61,0,0,1-6.39,5.37,6.29,6.29,0,0,0-1.17-1.36,14.37,14.37,0,0,0,5.53-4h-5.29V86.6H610V78.94h-3.72V77.45H610v-2.3h1.78v2.3h8.89v-2.3h1.83v2.3h3.68v1.49H622.5V86.6h4.73v1.51Zm-5,6.77h8.44v1.51H607V94.88h8.19V92.36h-5V90.89h5v-2h1.82v2h5.11v1.47h-5.11Zm-5.27-15.94v1.61h8.89V78.94Zm0,4.61h8.89V81.89h-8.89Zm0,3h8.89V84.89h-8.89Z"/><path d="M637.68,80.67h-8.17V79.2h8.17Zm-.61,14.93h-5.21v1.12h-1.45V88.66h6.66ZM637,83.76h-6.51V82.35H637Zm-6.51,1.71H637v1.41h-6.51Zm1.42,4.68v4h3.74v-4Zm1.93-11.21A20.61,20.61,0,0,0,632,75.72l1.22-.76a18.78,18.78,0,0,1,1.93,3.09Zm7.81,3.5a11.14,11.14,0,0,1-3,2.81,7.83,7.83,0,0,0-1.12-1.2,9.32,9.32,0,0,0,2.89-2.71,13.82,13.82,0,0,0-2.26-1.68l1-1.15A17.16,17.16,0,0,1,641.26,80a14.89,14.89,0,0,0,1.1-2.54h-3.58V76H643l.29-.05,1.1.36A16.92,16.92,0,0,1,642,81.94h5.8A20,20,0,0,1,645,75.67l1.52-.28c.19.69.42,1.36.68,2,.66-.55,1.4-1.2,1.86-1.68l1.11,1a21,21,0,0,1-2.43,2,13.19,13.19,0,0,0,.79,1.39,24.72,24.72,0,0,0,2.1-1.61l1.08,1a18.44,18.44,0,0,1-2.47,1.7,10.39,10.39,0,0,0,2.93,2.67,5.2,5.2,0,0,0-1.25,1.27,10.85,10.85,0,0,1-3-2.93V83.4H641.6Zm7.37,9c-.59,1.17-1.3,2.54-1.91,3.57h4.62v1.47H637.9V95h7.47a23.81,23.81,0,0,0,1.83-4Zm.58-.68h-9.61V85h9.61Zm-7.41,4.2a11.88,11.88,0,0,0-1.42-3.48l1.59-.4a10.7,10.7,0,0,1,1.47,3.4Zm5.77-8.47h-6.38v2.86h6.38Z"/><path d="M669.75,85a14.64,14.64,0,0,0,6.9,4,5.94,5.94,0,0,0-1.17,1.49,17.36,17.36,0,0,1-3.84-1.83v0c-.32,4.84-.67,6.77-1.35,7.46a2.27,2.27,0,0,1-1.62.7,29.23,29.23,0,0,1-3.28,0,4,4,0,0,0-.53-1.68,28.51,28.51,0,0,0,3,.14,1.19,1.19,0,0,0,.9-.24c.44-.43.74-1.89,1-5.47h-5.92c-.66,3.58-2.32,6.14-7.49,7.54a5,5,0,0,0-1.05-1.51c4.63-1.11,6.07-3.17,6.68-6H658.2v-.89a25,25,0,0,1-3.23,1.8A4.43,4.43,0,0,0,653.82,89a18.84,18.84,0,0,0,6-4h-5.26V83.38h6.68a16.14,16.14,0,0,0,1.61-2.45H656V79.35h4.06a15.38,15.38,0,0,0-2-2.95l1.44-.73a15.84,15.84,0,0,1,2.13,3l-1.32.67h3.21a17.74,17.74,0,0,0,1.15-4.27l1.91.19a25.16,25.16,0,0,1-1.1,4.08h2.91a24.88,24.88,0,0,0,2.35-3.6l1.66.55a26.14,26.14,0,0,1-2.2,3h3.94v1.58h-9.35a17.29,17.29,0,0,1-1.42,2.45h12.43V85Zm.81,2.88A13.5,13.5,0,0,1,667.69,85h-5.48a18.57,18.57,0,0,1-3,2.88Z"/><path d="M686.1,84.24l1.6-1.36a46.49,46.49,0,0,1,5.48,5.32l-1.67,1.37A42.38,42.38,0,0,0,686.1,84.24Z"/><path d="M710.34,75.44h1.79v9.14c0,5.14-.91,9.75-7.74,12.63a6.18,6.18,0,0,0-1.1-1.49c4.8-2,6.39-4.8,6.85-8-2.17,1.08-4.4,2.11-6.21,3l-.84-1.75c1.82-.67,4.53-1.82,7.23-3,0-.43,0-.86,0-1.32Zm-2.72,8.44A26.28,26.28,0,0,0,704,78.1l1.51-.77A28.67,28.67,0,0,1,709.26,83ZM722.53,95c.85,0,1-.6,1.15-2.9a4.66,4.66,0,0,0,1.66.77c-.24,2.85-.76,3.84-2.71,3.84h-4.07c-2.2,0-2.81-.65-2.81-3.1V75.44h1.79v10.1l.53-.58a38.89,38.89,0,0,1,7.1,4.54L724,90.94a40.41,40.41,0,0,0-6.48-4.44v7.15c0,1.15.19,1.39,1.24,1.39ZM724.17,78a57.41,57.41,0,0,1-4.29,5.86l-1.39-.8a34.84,34.84,0,0,0,3.89-6Z"/><path d="M749.33,95.09v1.4H727.84v-1.4h6.51a10,10,0,0,0-1.22-2.33l.61-.16H731V88.18h15.52V92.6h-2.6l.47.14a20.33,20.33,0,0,1-1.52,2.35ZM749,87H728.26V85.71H749Zm-1-2.49H729.24V75.72h1.57v7.49h2.86V82h-2.18V81h2.18V79.85h-1.84v-1h1.84V77.76h-2.08v-1h2.08V75.51h1.17v1.27H737v1h-2.11v1.11h1.91v1h-1.91V81h2.26v1h-2.26v1.25h2.94V75.12h1.59v8.09h2.89V82H740V81h2.23V79.85h-1.88v-1h1.88V77.76h-2.1v-1h2.1V75.51h1.2v1.27h2.13v1h-2.13v1.11h1.88v1h-1.88V81h2.28v1h-2.28v1.25h2.91V75.72H748ZM732.67,91.4h12v-2h-12Zm2.2,1.2a8.59,8.59,0,0,1,1.25,2.32l-.54.17h6l-.44-.14a25.22,25.22,0,0,0,1.42-2.35Z"/><path d="M760.08,80.67h-8.17V79.2h8.17Zm-.61,14.93h-5.21v1.12h-1.45V88.66h6.66Zm-.12-11.84h-6.51V82.35h6.51Zm-6.51,1.71h6.51v1.41h-6.51Zm1.42,4.68v4H758v-4Zm1.93-11.21a20.61,20.61,0,0,0-1.83-3.22l1.22-.76a18.78,18.78,0,0,1,1.93,3.09Zm7.81,3.5a11.14,11.14,0,0,1-3,2.81,7.83,7.83,0,0,0-1.12-1.2,9.32,9.32,0,0,0,2.89-2.71,13.82,13.82,0,0,0-2.26-1.68l1-1.15A17.16,17.16,0,0,1,763.66,80a14.89,14.89,0,0,0,1.1-2.54h-3.58V76h4.19l.29-.05,1.1.36a16.92,16.92,0,0,1-2.39,5.62h5.8a20,20,0,0,1-2.77-6.27l1.52-.28a19.51,19.51,0,0,0,.68,2c.66-.55,1.4-1.2,1.86-1.68l1.11,1a21,21,0,0,1-2.43,2,13.19,13.19,0,0,0,.79,1.39,24.72,24.72,0,0,0,2.1-1.61l1.08,1a17.91,17.91,0,0,1-2.48,1.7,10.56,10.56,0,0,0,2.94,2.67,5.2,5.2,0,0,0-1.25,1.27,10.85,10.85,0,0,1-3-2.93V83.4H764Zm7.37,9c-.59,1.17-1.3,2.54-1.91,3.57h4.62v1.47H760.3V95h7.47a23.81,23.81,0,0,0,1.83-4Zm.58-.68h-9.62V85H772Zm-7.41,4.2a11.88,11.88,0,0,0-1.42-3.48l1.59-.4a10.7,10.7,0,0,1,1.47,3.4Zm5.77-8.47h-6.38v2.86h6.38Z"/><path d="M792.15,85a14.64,14.64,0,0,0,6.9,4,5.94,5.94,0,0,0-1.17,1.49A17.36,17.36,0,0,1,794,88.61v0c-.32,4.84-.67,6.77-1.35,7.46a2.27,2.27,0,0,1-1.62.7,29.23,29.23,0,0,1-3.28,0,3.85,3.85,0,0,0-.54-1.68,28.77,28.77,0,0,0,3,.14,1.19,1.19,0,0,0,.9-.24c.44-.43.74-1.89,1-5.47h-5.92c-.66,3.58-2.32,6.14-7.49,7.54a5,5,0,0,0-1-1.51c4.63-1.11,6.07-3.17,6.68-6H780.6v-.89a25,25,0,0,1-3.23,1.8A4.43,4.43,0,0,0,776.22,89a18.84,18.84,0,0,0,6-4h-5.26V83.38h6.68a16.14,16.14,0,0,0,1.61-2.45h-6.8V79.35h4.06a15.38,15.38,0,0,0-2-2.95l1.44-.73a15.84,15.84,0,0,1,2.13,3l-1.32.67H786a18.21,18.21,0,0,0,1.15-4.27l1.91.19a25.16,25.16,0,0,1-1.1,4.08h2.91a24.88,24.88,0,0,0,2.35-3.6l1.66.55a26.14,26.14,0,0,1-2.2,3h3.94v1.58h-9.35a18.31,18.31,0,0,1-1.42,2.45h12.43V85Zm.81,2.88A13.5,13.5,0,0,1,790.09,85h-5.48a19,19,0,0,1-3,2.88Z"/><path d="M808.5,84.24l1.6-1.36a46.49,46.49,0,0,1,5.48,5.32l-1.67,1.37A42.38,42.38,0,0,0,808.5,84.24Z"/><path d="M837.32,90.36v2h8.78v1.51h-8.78v3.19h-1.79V93.89h-8.71V92.38h8.71v-2h-9.94V88.78h9.94V82.44h-9.32V80.93h20.65v1.51h-9.54v6.34h10.13v1.58Zm-6-11.9h-5.56V76.88h5.56V75.15h1.76v1.73H836v1.58h-2.89v1.82h-1.76Zm0,4.63V84.8h3v1.56h-3v1.82h-1.69V86.36h-3.5V84.8h3.5V83.09Zm8.32-4.63h-2.82V76.88h2.82V75.15h1.76v1.73h5.66v1.58H841.5v1.82h-1.76Zm1.91,9.72v-1.9h-3V84.72h3V83.09h1.69v1.63h3.4v1.56h-3.4v1.9Z"/><path d="M862,79.2v2.55h8.44V95c0,1.06-.27,1.54-1,1.8a14.84,14.84,0,0,1-4.14.29,7.92,7.92,0,0,0-.66-1.61c1.54.08,3,.08,3.45,0s.57-.14.57-.53V83.4H853.43V97h-1.79V81.75H860V79.2h-9.67V77.52H860V75.15h2v2.37h9.74V79.2Zm-.17,13.25v4.13h-1.74V92.45H854.8V91h5.26V88.54h-4.75V87.08h7A26.32,26.32,0,0,0,864,83.72l1.57.43c-.54,1-1.1,2.09-1.66,2.93h3v1.46h-5V91h5.45v1.49ZM858,83.74a11.12,11.12,0,0,1,1.54,2.81l-1.49.53a12.06,12.06,0,0,0-1.5-2.91Z"/><path d="M882.8,85.13a17.14,17.14,0,0,1-7.19,10.42,7.56,7.56,0,0,0-1.42-1.34,14.73,14.73,0,0,0,6.31-7.83h-5.83v-1.7h6.61l.32-.08Zm13.1-2.21a63,63,0,0,1-6.44,5.21,15.19,15.19,0,0,0,7.27,5.81,7.38,7.38,0,0,0-1.25,1.56,17.36,17.36,0,0,1-9-9.24v8.5c0,1.08-.27,1.63-1.06,1.92a14.5,14.5,0,0,1-4.11.31,6.16,6.16,0,0,0-.66-1.78c1.5.08,2.94.08,3.33.05s.59-.14.59-.53v-13h-6.73V80h8.64v1.78a23.88,23.88,0,0,0,2.1,5,43.24,43.24,0,0,0,5.65-5Zm-6.86-3a43.13,43.13,0,0,0-9-3.28l.88-1.47a43.61,43.61,0,0,1,9,3.1Z"/><path d="M919.27,86.55V97.06h-1.95V96H902.58v1.15H900.7V86.55Zm-16.69,1.58v2.31h14.74V88.13Zm14.74,6.27V92H902.58V94.4Zm0-9.7H902.61V76h14.71Zm-1.94-7.18H904.47v2.12h10.91Zm0,3.53H904.47v2.16h10.91Z"/><path d="M931.44,80.67h-8.17V79.2h8.17Zm-.61,14.93h-5.21v1.12h-1.45V88.66h6.66Zm-.12-11.84H924.2V82.35h6.51Zm-6.51,1.71h6.51v1.41H924.2Zm1.42,4.68v4h3.74v-4Zm1.93-11.21a20.61,20.61,0,0,0-1.83-3.22l1.22-.76a18.78,18.78,0,0,1,1.93,3.09Zm7.81,3.5a11.14,11.14,0,0,1-3,2.81,7.83,7.83,0,0,0-1.12-1.2,9.18,9.18,0,0,0,2.88-2.71,13.32,13.32,0,0,0-2.25-1.68l1-1.15A17.16,17.16,0,0,1,935,80a14.89,14.89,0,0,0,1.1-2.54h-3.58V76h4.19L937,76l1.1.36a16.92,16.92,0,0,1-2.39,5.62h5.8a20,20,0,0,1-2.77-6.27l1.52-.28a19.51,19.51,0,0,0,.68,2c.66-.55,1.4-1.2,1.86-1.68l1.11,1a21,21,0,0,1-2.43,2,13.19,13.19,0,0,0,.79,1.39,24.72,24.72,0,0,0,2.1-1.61l1.08,1a18.44,18.44,0,0,1-2.47,1.7,10.39,10.39,0,0,0,2.93,2.67,5.2,5.2,0,0,0-1.25,1.27,10.85,10.85,0,0,1-3-2.93V83.4h-6.31Zm7.37,9c-.59,1.17-1.3,2.54-1.91,3.57h4.62v1.47H931.66V95h7.47a23.81,23.81,0,0,0,1.83-4Zm.58-.68h-9.62V85h9.62Zm-7.41,4.2a11.88,11.88,0,0,0-1.42-3.48l1.59-.4a10.7,10.7,0,0,1,1.47,3.4Zm5.77-8.47h-6.38v2.86h6.38Z"/><path d="M963.51,85a14.64,14.64,0,0,0,6.9,4,5.94,5.94,0,0,0-1.17,1.49,17.36,17.36,0,0,1-3.84-1.83v0c-.32,4.84-.67,6.77-1.35,7.46a2.27,2.27,0,0,1-1.62.7,29.23,29.23,0,0,1-3.28,0,4,4,0,0,0-.53-1.68,28.51,28.51,0,0,0,3,.14,1.19,1.19,0,0,0,.9-.24c.44-.43.74-1.89,1-5.47h-5.93c-.66,3.58-2.32,6.14-7.49,7.54a5,5,0,0,0-1-1.51c4.63-1.11,6.07-3.17,6.68-6H952v-.89a24.32,24.32,0,0,1-3.23,1.8A4.43,4.43,0,0,0,947.58,89a18.73,18.73,0,0,0,6-4h-5.26V83.38H955a16.14,16.14,0,0,0,1.61-2.45h-6.8V79.35h4.06a15.38,15.38,0,0,0-2-2.95l1.44-.73a15.84,15.84,0,0,1,2.13,3l-1.32.67h3.21a17.74,17.74,0,0,0,1.15-4.27l1.91.19a25.16,25.16,0,0,1-1.1,4.08h2.91a24.88,24.88,0,0,0,2.35-3.6l1.66.55a26.14,26.14,0,0,1-2.2,3h3.94v1.58h-9.35a18.31,18.31,0,0,1-1.42,2.45h12.44V85Zm.81,2.88A13.22,13.22,0,0,1,961.46,85H956a18.57,18.57,0,0,1-3,2.88Z"/><path d="M979.87,84.24l1.59-1.36a46.49,46.49,0,0,1,5.48,5.32l-1.67,1.37A43,43,0,0,0,979.87,84.24Z"/><path d="M1005.2,85.13A17.14,17.14,0,0,1,998,95.55a7.56,7.56,0,0,0-1.42-1.34,14.73,14.73,0,0,0,6.31-7.83h-5.82v-1.7h6.61l.31-.08Zm13.1-2.21a63,63,0,0,1-6.44,5.21,15.19,15.19,0,0,0,7.27,5.81,7.38,7.38,0,0,0-1.25,1.56,17.36,17.36,0,0,1-9-9.24v8.5c0,1.08-.27,1.63-1,1.92a14.58,14.58,0,0,1-4.12.31,5.88,5.88,0,0,0-.66-1.78c1.5.08,2.94.08,3.33.05s.59-.14.59-.53v-13h-6.73V80h8.64v1.78a23.88,23.88,0,0,0,2.1,5,44,44,0,0,0,5.66-5Zm-6.86-3a43.24,43.24,0,0,0-9-3.28l.88-1.47a43.72,43.72,0,0,1,9,3.1Z"/><path d="M1043.1,95.09v1.4h-21.49v-1.4h6.51a10.48,10.48,0,0,0-1.23-2.33l.61-.16h-2.79V88.18h15.52V92.6h-2.59l.46.14a20.33,20.33,0,0,1-1.52,2.35Zm-.3-8.09H1022V85.71h20.78Zm-1-2.49H1023V75.72h1.57v7.49h2.86V82h-2.18V81h2.18V79.85h-1.83v-1h1.83V77.76h-2.08v-1h2.08V75.51h1.18v1.27h2.1v1h-2.1v1.11h1.91v1h-1.91V81h2.25v1h-2.25v1.25h2.93V75.12h1.59v8.09H1036V82h-2.23V81H1036V79.85h-1.88v-1H1036V77.76h-2.1v-1h2.1V75.51h1.2v1.27h2.13v1h-2.13v1.11h1.89v1h-1.89V81h2.28v1h-2.28v1.25h2.91V75.72h1.62Zm-15.32,6.89h12v-2h-12Zm2.2,1.2a8.59,8.59,0,0,1,1.25,2.32l-.54.17h6l-.44-.14a25.22,25.22,0,0,0,1.42-2.35Z"/><path d="M1057.71,83.93V87.2h8.54v1.63h-8.54v5.85h9.65v1.66h-21V94.68h9.5V88.83h-8.4V87.2h8.4V83.93h-5.29V82.61a27.46,27.46,0,0,1-3.89,1.73,7.52,7.52,0,0,0-1.22-1.61c4.55-1.46,9-4.27,11.38-7.82l1.66.76c-.17.27-.39.58-.61.87a26.79,26.79,0,0,0,10.45,6.19,6.85,6.85,0,0,0-1.27,1.54,25.58,25.58,0,0,1-3.94-1.83v1.49Zm-6.7,5.43a20.6,20.6,0,0,1,2.32,4.29l-1.59.65a19.24,19.24,0,0,0-2.25-4.34Zm11.79-7.08a28.42,28.42,0,0,1-5.94-4.52,25.31,25.31,0,0,1-5.73,4.52Zm-2.86,11.49a27.19,27.19,0,0,0,2.55-4.41l1.73.64a45.53,45.53,0,0,1-2.91,4.35Z"/><path d="M1078.33,80.67h-8.18V79.2h8.18Zm-.62,14.93h-5.21v1.12h-1.44V88.66h6.65Zm-.12-11.84h-6.51V82.35h6.51Zm-6.51,1.71h6.51v1.41h-6.51Zm1.42,4.68v4h3.75v-4Zm1.93-11.21a20.61,20.61,0,0,0-1.83-3.22l1.22-.76a18.89,18.89,0,0,1,1.94,3.09Zm7.81,3.5a11.1,11.1,0,0,1-3,2.81,7.91,7.91,0,0,0-1.13-1.2,9.21,9.21,0,0,0,2.89-2.71,14.17,14.17,0,0,0-2.25-1.68l1-1.15A15.79,15.79,0,0,1,1081.9,80a14.89,14.89,0,0,0,1.1-2.54h-3.57V76h4.18l.3-.05,1.1.36a17.13,17.13,0,0,1-2.4,5.62h5.8a20.44,20.44,0,0,1-2.77-6.27l1.52-.28c.2.69.42,1.36.69,2,.66-.55,1.39-1.2,1.86-1.68l1.1,1a21,21,0,0,1-2.43,2,15.24,15.24,0,0,0,.79,1.39,24.72,24.72,0,0,0,2.1-1.61l1.08,1a17.83,17.83,0,0,1-2.47,1.7,10.29,10.29,0,0,0,2.94,2.67,4.87,4.87,0,0,0-1.25,1.27,10.59,10.59,0,0,1-3-2.93V83.4h-6.32Zm7.37,9c-.59,1.17-1.3,2.54-1.91,3.57h4.63v1.47h-13.78V95H1086a23.87,23.87,0,0,0,1.84-4Zm.59-.68h-9.62V85h9.62Zm-7.42,4.2a11.61,11.61,0,0,0-1.42-3.48L1083,91a10.7,10.7,0,0,1,1.47,3.4Zm5.78-8.47h-6.39v2.86h6.39Z"/><path d="M1110.39,85a14.68,14.68,0,0,0,6.91,4,5.75,5.75,0,0,0-1.18,1.49,17.58,17.58,0,0,1-3.84-1.83v0c-.32,4.84-.66,6.77-1.35,7.46a2.25,2.25,0,0,1-1.61.7,29.2,29.2,0,0,1-3.28,0,4.14,4.14,0,0,0-.54-1.68,28.61,28.61,0,0,0,3,.14,1.19,1.19,0,0,0,.9-.24c.45-.43.74-1.89,1-5.47h-5.92c-.67,3.58-2.33,6.14-7.49,7.54a5.23,5.23,0,0,0-1.06-1.51c4.63-1.11,6.07-3.17,6.68-6h-3.79v-.89a23.71,23.71,0,0,1-3.23,1.8,4.3,4.3,0,0,0-1.15-1.46,18.73,18.73,0,0,0,6-4h-5.26V83.38h6.68a17,17,0,0,0,1.62-2.45h-6.81V79.35h4.07a15.94,15.94,0,0,0-2-2.95l1.45-.73a16.31,16.31,0,0,1,2.13,3l-1.32.67h3.2a17.29,17.29,0,0,0,1.15-4.27l1.91.19a24.18,24.18,0,0,1-1.1,4.08h2.91a24.88,24.88,0,0,0,2.35-3.6l1.67.55a27.42,27.42,0,0,1-2.21,3h3.94v1.58h-9.35a16.38,16.38,0,0,1-1.42,2.45h12.44V85Zm.81,2.88a13.68,13.68,0,0,1-2.86-2.88h-5.48a19.07,19.07,0,0,1-3,2.88Z"/><path d="M110.83,121.24l1.59-1.36a46.49,46.49,0,0,1,5.48,5.32l-1.67,1.37A43,43,0,0,0,110.83,121.24Z"/><path d="M131.56,115.29a16.2,16.2,0,0,1-2.5,3.1,8.59,8.59,0,0,0-1.27-1.18,15,15,0,0,0,3.7-5.23l1.59.43q-.3.72-.66,1.44h6.26v1.44h-4.62a17.43,17.43,0,0,1,2.2,2.16l-1.2,1a16.66,16.66,0,0,0-2.32-2.45l.93-.7Zm17,11s0,.48,0,.75c-.35,3.31-.66,4.77-1.3,5.35a2,2,0,0,1-1.52.6c-.63.05-1.83.05-3.08,0a4,4,0,0,0-.49-1.66c1.2.12,2.32.12,2.76.12a1.36,1.36,0,0,0,.89-.19c.31-.34.58-1.27.83-3.43h-7v6.19H137.8v-5.52a22.32,22.32,0,0,1-8.22,5.54,6.32,6.32,0,0,0-1.18-1.41,20.89,20.89,0,0,0,8-4.8H129.9c.31-1.44.66-3.58.85-5.28h7.05v-2.21h-7.9v-1.51h17.89v5.23h-8.2v2.23Zm-16.31-2.23c-.12.74-.24,1.54-.36,2.23h5.87V124.1Zm17.6-10.22v1.41h-5.26a19.18,19.18,0,0,1,2.42,2.16l-1.2,1a24.7,24.7,0,0,0-2.52-2.33l1.06-.84h-2.75a12.35,12.35,0,0,1-1.86,2.21,8.17,8.17,0,0,0-1.37-1.06,10.06,10.06,0,0,0,3-4.46l1.69.38c-.2.53-.42,1-.64,1.52Zm-10.3,8.71H146v-2.21h-6.41Z"/><path d="M174.47,121.89v2H152.25v-2Z"/><path d="M188.67,120.93v3.27h8.54v1.63h-8.54v5.85h9.64v1.66h-21v-1.66h9.5v-5.85h-8.4V124.2h8.4v-3.27H181.5v-1.32a27.46,27.46,0,0,1-3.89,1.73,7.26,7.26,0,0,0-1.23-1.61c4.56-1.46,9.06-4.27,11.39-7.82l1.66.76c-.17.27-.39.58-.61.87a26.79,26.79,0,0,0,10.45,6.19,6.85,6.85,0,0,0-1.27,1.54,25.58,25.58,0,0,1-3.94-1.83v1.49ZM182,126.36a20.22,20.22,0,0,1,2.33,4.29l-1.59.65a19.24,19.24,0,0,0-2.25-4.34Zm11.8-7.08a28.75,28.75,0,0,1-5.95-4.52,25,25,0,0,1-5.72,4.52Zm-2.86,11.49a27.14,27.14,0,0,0,2.54-4.41l1.74.64a45.53,45.53,0,0,1-2.91,4.35Z"/><path d="M209.28,117.67h-8.17V116.2h8.17Zm-.61,14.93h-5.21v1.12H202v-8.06h6.66Zm-.12-11.84H202v-1.41h6.51ZM202,122.47h6.51v1.41H202Zm1.42,4.68v4h3.74v-4Zm1.93-11.21a20.61,20.61,0,0,0-1.83-3.22l1.22-.76a18.78,18.78,0,0,1,1.93,3.09Zm7.81,3.5a11,11,0,0,1-3,2.81,7.36,7.36,0,0,0-1.12-1.2,9.32,9.32,0,0,0,2.89-2.71,13.82,13.82,0,0,0-2.26-1.68l1-1.15a16.45,16.45,0,0,1,2.13,1.51,14.89,14.89,0,0,0,1.1-2.54h-3.57V113h4.18l.29-.05,1.11.36a17.13,17.13,0,0,1-2.4,5.62h5.8a20,20,0,0,1-2.77-6.27l1.52-.28c.19.69.42,1.36.68,2a23.51,23.51,0,0,0,1.86-1.68l1.11,1a21,21,0,0,1-2.43,2,13.19,13.19,0,0,0,.79,1.39,24.72,24.72,0,0,0,2.1-1.61l1.08,1a18.44,18.44,0,0,1-2.47,1.7,10.39,10.39,0,0,0,2.93,2.67,5.2,5.2,0,0,0-1.25,1.27,10.85,10.85,0,0,1-3-2.93v1.27H213.2Zm7.37,9c-.59,1.17-1.3,2.54-1.91,3.57h4.62v1.47H209.5V132H217a23.81,23.81,0,0,0,1.83-4Zm.58-.68h-9.61V122h9.61Zm-7.41,4.2a11.88,11.88,0,0,0-1.42-3.48l1.59-.4a10.7,10.7,0,0,1,1.47,3.4Zm5.77-8.47h-6.38v2.86h6.38Z"/><path d="M241.35,122a14.69,14.69,0,0,0,6.9,4,5.94,5.94,0,0,0-1.17,1.49,17.58,17.58,0,0,1-3.84-1.83v0c-.32,4.84-.67,6.77-1.35,7.46a2.27,2.27,0,0,1-1.62.7,29.23,29.23,0,0,1-3.28-.05,4,4,0,0,0-.53-1.68,28.51,28.51,0,0,0,3,.14,1.19,1.19,0,0,0,.9-.24c.44-.43.74-1.89,1-5.47h-5.93c-.66,3.58-2.32,6.14-7.49,7.54a5,5,0,0,0-1.05-1.51c4.63-1.11,6.07-3.17,6.68-6H229.8v-.89a24.32,24.32,0,0,1-3.23,1.8,4.43,4.43,0,0,0-1.15-1.46,18.73,18.73,0,0,0,6-4h-5.26v-1.61h6.68a16.14,16.14,0,0,0,1.61-2.45h-6.8v-1.58h4.06a15.38,15.38,0,0,0-2-2.95l1.45-.73a16.22,16.22,0,0,1,2.12,3l-1.32.67h3.21a17.74,17.74,0,0,0,1.15-4.27l1.91.19a25.16,25.16,0,0,1-1.1,4.08H240a24.88,24.88,0,0,0,2.35-3.6l1.66.55a26.14,26.14,0,0,1-2.2,3h3.94v1.58h-9.35a17.29,17.29,0,0,1-1.42,2.45h12.44V122Zm.81,2.88A13.22,13.22,0,0,1,239.3,122h-5.49a18.57,18.57,0,0,1-3,2.88Z"/><path d="M257.71,121.24l1.59-1.36a46.49,46.49,0,0,1,5.48,5.32l-1.67,1.37A43,43,0,0,0,257.71,121.24Z"/><path d="M293.88,131.92c1,0,1.13-.62,1.25-4.29a5.79,5.79,0,0,0,1.69.79c-.19,4.08-.68,5.21-2.81,5.21h-3.5c-2.18,0-2.77-.63-2.77-2.67v-8.54h-4.58c-.46,5.14-1.64,9.34-7.26,11.57a5,5,0,0,0-1.16-1.39c5.22-1.95,6.12-5.69,6.49-10.18H275v-1.73h21.41v1.73h-6.87v8.52c0,.82.19,1,1.15,1Zm.52-16.2H277.17V114H294.4Z"/><path d="M320.42,114.07v4.53h-1.79v-3H301.77v3H300v-4.53h9.3c-.29-.58-.61-1.2-.93-1.73l1.89-.43a24.76,24.76,0,0,1,1.25,2.16Zm-18.77,11.4H319V134h-1.78v-.72H303.36v.81h-1.71Zm15.54-7.08h-14v-1.3h14Zm-13.9,5.69v-4.37H317v4.37Zm.07,2.76v1.87h5.85v-1.87Zm0,5h5.85V130h-5.85ZM305,122.8h10.33V121H305Zm12.22,4H311v1.87h6.2Zm0,5V130H311v1.92Z"/><path d="M331.68,117.67h-8.17V116.2h8.17Zm-.61,14.93h-5.21v1.12h-1.45v-8.06h6.66ZM331,120.76h-6.51v-1.41H331Zm-6.51,1.71H331v1.41h-6.51Zm1.42,4.68v4h3.74v-4Zm1.93-11.21a20.61,20.61,0,0,0-1.83-3.22l1.22-.76a18.78,18.78,0,0,1,1.93,3.09Zm7.81,3.5a11,11,0,0,1-3,2.81,7.83,7.83,0,0,0-1.12-1.2,9.32,9.32,0,0,0,2.89-2.71,13.82,13.82,0,0,0-2.26-1.68l1-1.15a16.45,16.45,0,0,1,2.13,1.51,14.89,14.89,0,0,0,1.1-2.54h-3.57V113H337l.29-.05,1.11.36a17.13,17.13,0,0,1-2.4,5.62h5.8a20,20,0,0,1-2.77-6.27l1.52-.28c.19.69.42,1.36.68,2a23.51,23.51,0,0,0,1.86-1.68l1.11,1a21,21,0,0,1-2.43,2,13.19,13.19,0,0,0,.79,1.39,24.72,24.72,0,0,0,2.1-1.61l1.08,1a18.44,18.44,0,0,1-2.47,1.7,10.39,10.39,0,0,0,2.93,2.67,5.2,5.2,0,0,0-1.25,1.27,10.85,10.85,0,0,1-3-2.93v1.27H335.6Zm7.37,9c-.59,1.17-1.3,2.54-1.91,3.57h4.62v1.47H331.9V132h7.47a23.81,23.81,0,0,0,1.83-4Zm.58-.68h-9.61V122h9.61Zm-7.41,4.2a11.88,11.88,0,0,0-1.42-3.48l1.59-.4a10.7,10.7,0,0,1,1.47,3.4Zm5.77-8.47h-6.38v2.86h6.38Z"/><path d="M363.75,122a14.69,14.69,0,0,0,6.9,4,5.94,5.94,0,0,0-1.17,1.49,17.36,17.36,0,0,1-3.84-1.83v0c-.32,4.84-.67,6.77-1.35,7.46a2.27,2.27,0,0,1-1.62.7,29.23,29.23,0,0,1-3.28-.05,4,4,0,0,0-.53-1.68,28.51,28.51,0,0,0,3,.14,1.19,1.19,0,0,0,.9-.24c.44-.43.74-1.89,1-5.47h-5.93c-.66,3.58-2.32,6.14-7.49,7.54a5,5,0,0,0-1.05-1.51c4.63-1.11,6.07-3.17,6.68-6H352.2v-.89a24.32,24.32,0,0,1-3.23,1.8,4.43,4.43,0,0,0-1.15-1.46,18.73,18.73,0,0,0,6-4h-5.26v-1.61h6.68a16.14,16.14,0,0,0,1.61-2.45H350v-1.58h4.06a15.38,15.38,0,0,0-2-2.95l1.44-.73a15.84,15.84,0,0,1,2.13,3l-1.32.67h3.21a17.74,17.74,0,0,0,1.15-4.27l1.91.19a25.16,25.16,0,0,1-1.1,4.08h2.91a24.88,24.88,0,0,0,2.35-3.6l1.66.55a26.14,26.14,0,0,1-2.2,3h3.94v1.58h-9.35a16.38,16.38,0,0,1-1.42,2.45h12.44V122Zm.81,2.88a13.5,13.5,0,0,1-2.87-2.88h-5.48a18.57,18.57,0,0,1-3,2.88Z"/><path d="M380.1,121.24l1.6-1.36a46.49,46.49,0,0,1,5.48,5.32l-1.67,1.37A42.38,42.38,0,0,0,380.1,121.24Z"/><path d="M410.41,128c.56.22,1.13.41,1.74.65a28.78,28.78,0,0,0,4.06-3l1.37,1a45.28,45.28,0,0,1-3.89,2.59,47.31,47.31,0,0,1,5.07,2.33L418,133a64.87,64.87,0,0,0-7.54-3.51V132c0,1.12-.29,1.53-1.05,1.8a16.34,16.34,0,0,1-4.14.26,6.43,6.43,0,0,0-.59-1.53c1.5.07,3,0,3.38,0s.59-.14.59-.55v-2.52c-2.6,1.12-5.26,2.25-7.34,3.12l-.74-1.47c2-.69,5.09-1.89,8.08-3.07v-2.69h-6.46v-1.29h6.46v-2h-7.42v-1.34h7.42v-1.85h-6.24v-1.3h6.24v-1.82h-8v5.47c0,3.72-.32,9.15-2.38,12.77a6.41,6.41,0,0,0-1.47-1c1.91-3.46,2.11-8.33,2.11-11.81v-7.05h9.59c-.32-.6-.71-1.3-1.07-1.83l1.73-.5a21.5,21.5,0,0,1,1.45,2.33H419v1.58h-8.59v1.82h6.46v3h2.4v1.56h-2.4v3.14h-6.46Zm-7.56-2.47a28.76,28.76,0,0,1,3.6,2.45l-1.06,1.1a24.55,24.55,0,0,0-3.57-2.57Zm7.56-4.75h4.72v-1.85h-4.72Zm0,3.29h4.72v-2h-4.72Z"/><path d="M428.23,119.18h4.26v1.66h-4.26v.62c.93,1,3.48,3.89,4.09,4.63l-1.1,1.47c-.56-.92-1.93-2.72-3-4.06V134h-1.78V123.43a26.05,26.05,0,0,1-4.36,7.15,9.69,9.69,0,0,0-1-1.63,24,24,0,0,0,4.92-8.11h-4.31v-1.66h4.78v-4c-1.37.21-2.74.4-4,.57a6.14,6.14,0,0,0-.52-1.41,47.75,47.75,0,0,0,9.21-2l1.22,1.39a30.06,30.06,0,0,1-4.09,1.11Zm14.15-4.82v18.45h-1.81V131h-5.46v2h-1.79V114.36Zm-1.81,14.92V116.06h-5.46v13.22Z"/><path d="M454.08,117.67h-8.17V116.2h8.17Zm-.61,14.93h-5.21v1.12h-1.45v-8.06h6.66Zm-.12-11.84h-6.51v-1.41h6.51Zm-6.51,1.71h6.51v1.41h-6.51Zm1.42,4.68v4H452v-4Zm1.93-11.21a20.61,20.61,0,0,0-1.83-3.22l1.22-.76a18.78,18.78,0,0,1,1.93,3.09Zm7.81,3.5a11,11,0,0,1-3,2.81,7.83,7.83,0,0,0-1.12-1.2,9.32,9.32,0,0,0,2.89-2.71,13.82,13.82,0,0,0-2.26-1.68l1-1.15a17.16,17.16,0,0,1,2.13,1.51,14.89,14.89,0,0,0,1.1-2.54h-3.57V113h4.18l.29-.05,1.11.36a17.13,17.13,0,0,1-2.4,5.62h5.8a20,20,0,0,1-2.77-6.27l1.52-.28c.19.69.42,1.36.68,2a23.51,23.51,0,0,0,1.86-1.68l1.11,1a21,21,0,0,1-2.43,2,13.19,13.19,0,0,0,.79,1.39,24.72,24.72,0,0,0,2.1-1.61l1.08,1a18.44,18.44,0,0,1-2.47,1.7,10.39,10.39,0,0,0,2.93,2.67,5.2,5.2,0,0,0-1.25,1.27,10.85,10.85,0,0,1-3-2.93v1.27H458Zm7.37,9c-.59,1.17-1.3,2.54-1.91,3.57h4.62v1.47H454.3V132h7.47a23.81,23.81,0,0,0,1.83-4Zm.58-.68h-9.61V122H466Zm-7.41,4.2a11.88,11.88,0,0,0-1.42-3.48l1.59-.4a10.7,10.7,0,0,1,1.47,3.4Zm5.77-8.47h-6.38v2.86h6.38Z"/><path d="M486.15,122a14.64,14.64,0,0,0,6.9,4,5.94,5.94,0,0,0-1.17,1.49,17.36,17.36,0,0,1-3.84-1.83v0c-.32,4.84-.67,6.77-1.35,7.46a2.27,2.27,0,0,1-1.62.7,29.23,29.23,0,0,1-3.28-.05,4,4,0,0,0-.53-1.68,28.51,28.51,0,0,0,3,.14,1.19,1.19,0,0,0,.9-.24c.44-.43.74-1.89,1-5.47h-5.93c-.66,3.58-2.32,6.14-7.49,7.54a5,5,0,0,0-1.05-1.51c4.63-1.11,6.07-3.17,6.68-6H474.6v-.89a24.32,24.32,0,0,1-3.23,1.8,4.43,4.43,0,0,0-1.15-1.46,18.73,18.73,0,0,0,6-4h-5.26v-1.61h6.68a16.14,16.14,0,0,0,1.61-2.45h-6.8v-1.58h4.06a15.38,15.38,0,0,0-2-2.95l1.44-.73a15.84,15.84,0,0,1,2.13,3l-1.32.67H480a17.74,17.74,0,0,0,1.15-4.27l1.91.19a25.16,25.16,0,0,1-1.1,4.08h2.91a24.88,24.88,0,0,0,2.35-3.6l1.66.55a26.14,26.14,0,0,1-2.2,3h3.94v1.58h-9.35a17.29,17.29,0,0,1-1.42,2.45h12.44V122Zm.81,2.88A13.22,13.22,0,0,1,484.1,122h-5.49a18.57,18.57,0,0,1-3,2.88Z"/><path d="M502.51,121.24l1.59-1.36a46.49,46.49,0,0,1,5.48,5.32l-1.67,1.37A43,43,0,0,0,502.51,121.24Z"/><path d="M540.27,116.4v11.23h-1.85v-1.37h-7V134h-1.88v-7.78h-7v1.49h-1.79V116.4h8.79v-4.28h1.88v4.28Zm-10.76,8.11v-6.36h-7v6.36Zm8.91,0v-6.36h-7v6.36Z"/><path d="M565.15,113.23v20.88h-1.79V133H546.57v1.11h-1.74V113.23Zm-1.79,18.17V114.86H546.57V131.4Zm-8.3-3.65c-2.54.48-5.14,1-7.14,1.34l-.25-1.34c1.86-.29,4.58-.77,7.32-1.25Zm6.07-7a18.41,18.41,0,0,1-2.71,5.88c.51,1.28,1.17,2.09,2,2.21.34.1.59-.93.76-2.47a4.39,4.39,0,0,0,1.17.79c-.32,2.62-1.15,3.58-2.42,3.1a4,4,0,0,1-2.55-2.33,15.19,15.19,0,0,1-3.23,2.76,10.21,10.21,0,0,0-1.07-1.13,13.07,13.07,0,0,0,3.69-3.12,32.18,32.18,0,0,1-1.34-7.1h-7.49V118h7.36c-.07-.84-.14-1.68-.19-2.54h1.56c.05.86.1,1.7.15,2.54h5.34v1.35h-5.22a34.5,34.5,0,0,0,.91,5.52,16.67,16.67,0,0,0,1.81-4.42Zm-7,.1v4.66h-5.41v-4.66ZM552.86,122h-2.81v2.4h2.81Zm7.78-4.25a9.87,9.87,0,0,0-2.62-1.68l.86-.89a10.29,10.29,0,0,1,2.64,1.63Z"/><path d="M575.19,112.7a38.21,38.21,0,0,1-2.06,4.73v16.7h-1.69V120.31a27,27,0,0,1-2.32,3.09,11.11,11.11,0,0,0-1-1.65,27.5,27.5,0,0,0,5.46-9.53Zm15.17,3.38v1.52H574.87v-1.52Zm-14.07,10.28h12.38V134h-1.61v-.87h-9.18v.94h-1.59ZM588.43,121h-11.8v-1.46h11.8Zm-11.8,1.9h11.8v1.46h-11.8Zm1.25,5v3.8h9.18v-3.8Zm4.31-11.9a22.75,22.75,0,0,0-1.69-3.19l1.54-.63a18.9,18.9,0,0,1,1.79,3.12Z"/><path d="M602.29,117.67h-9.6V116.2h9.6Zm-8.6,3.09v-1.41h7.49v1.41Zm0,1.71h7.71v1.41h-7.71Zm7.62,10.13h-5.85v1.12h-1.77v-8.06h7.62Zm-4.09-16.66a18.57,18.57,0,0,0-1.84-3.19l1.59-.67a19.49,19.49,0,0,1,1.91,3.07Zm-1.76,11.21v4h4.06v-4Zm16.93,4.92c.86,0,1-.72,1.1-3.82a5,5,0,0,0,1.69.79c-.22,3.56-.68,4.73-2.66,4.73H609c-2,0-2.64-.65-2.64-3v-6.74H602v-1.61h4.31v-6.24c-1.15.24-2.33.43-3.43.62a6.23,6.23,0,0,0-.59-1.44,45.87,45.87,0,0,0,10-2.74l1.57,1.35a34.74,34.74,0,0,1-5.75,1.78v6.67H615v1.61h-6.8v6.76c0,1,.17,1.23,1.05,1.23Z"/><path d="M625.44,117.67h-8.17V116.2h8.17Zm-.61,14.93h-5.21v1.12h-1.45v-8.06h6.66Zm-.12-11.84H618.2v-1.41h6.51Zm-6.51,1.71h6.51v1.41H618.2Zm1.42,4.68v4h3.74v-4Zm1.93-11.21a20.61,20.61,0,0,0-1.83-3.22l1.22-.76a18.78,18.78,0,0,1,1.93,3.09Zm7.81,3.5a11,11,0,0,1-3,2.81,7.83,7.83,0,0,0-1.12-1.2,9.32,9.32,0,0,0,2.89-2.71,13.82,13.82,0,0,0-2.26-1.68l1-1.15A17.16,17.16,0,0,1,629,117a14.89,14.89,0,0,0,1.1-2.54h-3.58V113h4.19L631,113l1.1.36a16.92,16.92,0,0,1-2.39,5.62h5.8a20,20,0,0,1-2.77-6.27l1.52-.28a19.51,19.51,0,0,0,.68,2c.66-.55,1.4-1.2,1.86-1.68l1.11,1a21,21,0,0,1-2.43,2,13.19,13.19,0,0,0,.79,1.39,24.72,24.72,0,0,0,2.1-1.61l1.08,1a18.44,18.44,0,0,1-2.47,1.7,10.39,10.39,0,0,0,2.93,2.67,5.2,5.2,0,0,0-1.25,1.27,10.85,10.85,0,0,1-3-2.93v1.27h-6.31Zm7.37,9c-.59,1.17-1.3,2.54-1.91,3.57h4.62v1.47H625.66V132h7.47a23.81,23.81,0,0,0,1.83-4Zm.58-.68H627.7V122h9.61Zm-7.41,4.2a11.88,11.88,0,0,0-1.42-3.48l1.59-.4a10.7,10.7,0,0,1,1.47,3.4Zm5.77-8.47h-6.38v2.86h6.38Z"/><path d="M657.51,122a14.69,14.69,0,0,0,6.9,4,5.94,5.94,0,0,0-1.17,1.49,17.36,17.36,0,0,1-3.84-1.83v0c-.32,4.84-.67,6.77-1.35,7.46a2.27,2.27,0,0,1-1.62.7,29.23,29.23,0,0,1-3.28-.05,4,4,0,0,0-.53-1.68,28.51,28.51,0,0,0,3,.14,1.19,1.19,0,0,0,.9-.24c.44-.43.74-1.89,1-5.47h-5.93c-.66,3.58-2.32,6.14-7.49,7.54a5,5,0,0,0-1-1.51c4.63-1.11,6.07-3.17,6.68-6H646v-.89a24.32,24.32,0,0,1-3.23,1.8,4.43,4.43,0,0,0-1.15-1.46,18.84,18.84,0,0,0,6-4h-5.26v-1.61H649a16.14,16.14,0,0,0,1.61-2.45h-6.8v-1.58h4.06a15.38,15.38,0,0,0-2-2.95l1.44-.73a15.84,15.84,0,0,1,2.13,3l-1.32.67h3.21a17.74,17.74,0,0,0,1.15-4.27l1.91.19a25.16,25.16,0,0,1-1.1,4.08h2.91a24.88,24.88,0,0,0,2.35-3.6l1.66.55a26.14,26.14,0,0,1-2.2,3h3.94v1.58h-9.35a17.29,17.29,0,0,1-1.42,2.45H663.6V122Zm.81,2.88a13.5,13.5,0,0,1-2.87-2.88H650a18.57,18.57,0,0,1-3,2.88Z"/><path d="M673.86,121.24l1.6-1.36a46.49,46.49,0,0,1,5.48,5.32l-1.67,1.37A42.38,42.38,0,0,0,673.86,121.24Z"/><path d="M693.13,127.72a30.86,30.86,0,0,1-1.22,5.79,10.45,10.45,0,0,0-1.4-.53,26.38,26.38,0,0,0,1.18-5.52Zm5-1.39c-.07-.36-.17-.77-.29-1.22-5.38.86-6.12,1-6.58,1.32a12.65,12.65,0,0,0-.57-1.66c.52-.12,1.08-.72,1.82-1.61a26.64,26.64,0,0,0,2-2.68c-2.57.31-3.08.4-3.4.57-.1-.36-.39-1.2-.56-1.65.39-.1.83-.58,1.32-1.3a30.59,30.59,0,0,0,3.33-6l1.66.7a41.46,41.46,0,0,1-3.91,6.5l2.57-.24a38.08,38.08,0,0,0,2-3.43l1.52.91a44.2,44.2,0,0,1-5.56,7.87l4-.55c-.3-.79-.59-1.58-.94-2.28l1.33-.48a24.23,24.23,0,0,1,1.73,4.75Zm-2.47,1a43.71,43.71,0,0,1,.66,5l-1.44.34a39.64,39.64,0,0,0-.59-5.09Zm2.62,4.15a30.48,30.48,0,0,0-1.3-4.34l1.28-.41a28.54,28.54,0,0,1,1.39,4.32Zm12.53.55c.52,0,.61-.45.66-3.16a5.32,5.32,0,0,0,1.62.69c-.17,3.22-.61,4.06-2.11,4.06h-2.08c-1.71,0-2.13-.53-2.13-2.3v-8.41l-2.3.27c-.19,5.66-.93,9-5.23,11a4.15,4.15,0,0,0-1.11-1.4c3.85-1.6,4.43-4.41,4.58-9.36a10.44,10.44,0,0,0-2.4.48,16.11,16.11,0,0,0-.63-1.77c.49-.12,1-.77,1.69-1.75a39.53,39.53,0,0,0,2.1-3.51h-3.62v-1.68h4.45c.49-1,1-2,1.35-3l2,.57c-.37.82-.79,1.66-1.2,2.45h6.31v1.68h-7.19a42.23,42.23,0,0,1-3.14,4.92l7.2-.67c-.54-.91-1.1-1.85-1.64-2.66l1.49-.63a41.69,41.69,0,0,1,3.43,5.76l-1.62.77a18.31,18.31,0,0,0-.88-1.82l-1.86.19v8.59c0,.62.08.74.61.74Z"/><path d="M737.51,121.89v2H715.29v-2Z"/><path d="M747.84,117.67h-8.17V116.2h8.17Zm-.61,14.93H742v1.12h-1.45v-8.06h6.66Zm-.12-11.84H740.6v-1.41h6.51Zm-6.51,1.71h6.51v1.41H740.6Zm1.42,4.68v4h3.74v-4ZM744,115.94a20.61,20.61,0,0,0-1.83-3.22l1.22-.76a18.78,18.78,0,0,1,1.93,3.09Zm7.81,3.5a11.14,11.14,0,0,1-3,2.81,7.83,7.83,0,0,0-1.12-1.2,9.32,9.32,0,0,0,2.89-2.71,13.82,13.82,0,0,0-2.26-1.68l1-1.15a17.16,17.16,0,0,1,2.13,1.51,14.89,14.89,0,0,0,1.1-2.54h-3.58V113h4.19l.29-.05,1.1.36a16.92,16.92,0,0,1-2.39,5.62h5.8a20,20,0,0,1-2.77-6.27l1.52-.28a19.51,19.51,0,0,0,.68,2c.66-.55,1.4-1.2,1.86-1.68l1.11,1a21,21,0,0,1-2.43,2,13.19,13.19,0,0,0,.79,1.39,24.72,24.72,0,0,0,2.1-1.61l1.08,1a18.44,18.44,0,0,1-2.47,1.7,10.39,10.39,0,0,0,2.93,2.67,5.2,5.2,0,0,0-1.25,1.27,10.85,10.85,0,0,1-3-2.93v1.27h-6.31Zm7.37,9c-.59,1.17-1.3,2.54-1.91,3.57h4.62v1.47H748.06V132h7.47a23.81,23.81,0,0,0,1.83-4Zm.58-.68h-9.62V122h9.62Zm-7.41,4.2a11.88,11.88,0,0,0-1.42-3.48l1.59-.4a10.7,10.7,0,0,1,1.47,3.4Zm5.77-8.47h-6.38v2.86h6.38Z"/><path d="M779.91,122a14.64,14.64,0,0,0,6.9,4,5.94,5.94,0,0,0-1.17,1.49,17.65,17.65,0,0,1-3.85-1.83v0c-.31,4.84-.66,6.77-1.34,7.46a2.27,2.27,0,0,1-1.62.7,29.22,29.22,0,0,1-3.28-.05,4,4,0,0,0-.53-1.68,28.51,28.51,0,0,0,3,.14,1.19,1.19,0,0,0,.9-.24c.44-.43.74-1.89,1-5.47H774c-.66,3.58-2.32,6.14-7.49,7.54a5,5,0,0,0-1-1.51c4.63-1.11,6.07-3.17,6.68-6h-3.79v-.89a25,25,0,0,1-3.23,1.8A4.43,4.43,0,0,0,764,126a18.84,18.84,0,0,0,6-4h-5.26v-1.61h6.68a16.93,16.93,0,0,0,1.61-2.45h-6.8v-1.58h4.06a15.38,15.38,0,0,0-2-2.95l1.44-.73a15.84,15.84,0,0,1,2.13,3l-1.32.67h3.21a17.74,17.74,0,0,0,1.15-4.27l1.91.19a25.16,25.16,0,0,1-1.1,4.08h2.91a24.88,24.88,0,0,0,2.35-3.6l1.66.55a26.14,26.14,0,0,1-2.2,3h3.94v1.58H775a17.29,17.29,0,0,1-1.42,2.45H786V122Zm.81,2.88a13.5,13.5,0,0,1-2.87-2.88h-5.48a18.57,18.57,0,0,1-3,2.88Z"/><path d="M796.26,121.24l1.6-1.36a46.49,46.49,0,0,1,5.48,5.32l-1.67,1.37A42.38,42.38,0,0,0,796.26,121.24Z"/><path d="M834.43,113.23v20.88h-1.79V133H815.85v1.11h-1.74V113.23Zm-1.79,18.17V114.86H815.85V131.4Zm-8.3-3.65c-2.54.48-5.14,1-7.14,1.34l-.25-1.34c1.86-.29,4.58-.77,7.32-1.25Zm6.07-7a18.41,18.41,0,0,1-2.71,5.88c.51,1.28,1.17,2.09,2,2.21.34.1.59-.93.76-2.47a4.39,4.39,0,0,0,1.17.79c-.32,2.62-1.15,3.58-2.42,3.1a4,4,0,0,1-2.55-2.33,15.19,15.19,0,0,1-3.23,2.76,10.21,10.21,0,0,0-1.07-1.13,13.07,13.07,0,0,0,3.69-3.12,32.18,32.18,0,0,1-1.34-7.1H817.2V118h7.36c-.07-.84-.14-1.68-.19-2.54h1.56c.05.86.1,1.7.15,2.54h5.34v1.35H826.2a34.5,34.5,0,0,0,.91,5.52,16.67,16.67,0,0,0,1.81-4.42Zm-6.95.1v4.66h-5.41v-4.66ZM822.14,122h-2.81v2.4h2.81Zm7.78-4.25a9.87,9.87,0,0,0-2.62-1.68l.86-.89a10.29,10.29,0,0,1,2.64,1.63Z"/><path d="M853.82,122.68a15,15,0,0,0,6.33,4,7.41,7.41,0,0,0-1.19,1.44,16.52,16.52,0,0,1-7.2-5.4h-6.07a19.28,19.28,0,0,1-6.88,5.74,3.85,3.85,0,0,0-1.3-1.3,17.36,17.36,0,0,0,6-4.44h-5.63v-1.51h6.81c.41-.65.83-1.32,1.17-2H840.4v-1.44h6.05a18.05,18.05,0,0,0,.66-1.87h-7.93V114.4h8.27a21.75,21.75,0,0,0,.32-2.25l1.88.14a19,19,0,0,1-.36,2.11h9.22v1.47h-9.57a15.69,15.69,0,0,1-.61,1.87h9.16v1.44h-9.77a19,19,0,0,1-1.05,2h13v1.51Zm-7,7.42c-2.23,1.08-4.63,2.21-6.49,3.1l-1-1.42c1.77-.7,4.46-1.9,7-3Zm-1.5-1.46a12.91,12.91,0,0,0-2.69-2.6l1.25-.88a13,13,0,0,1,2.76,2.52Zm2.6-5.16h1.71v8.59c0,.93-.2,1.34-.88,1.61a12.93,12.93,0,0,1-3.53.24,5.66,5.66,0,0,0-.56-1.49c1.3,0,2.47,0,2.79,0s.47-.12.47-.41Zm3.67,5.28a53.79,53.79,0,0,1,6,3.19l-1.07,1.3a47.79,47.79,0,0,0-6-3.37ZM855,126a25.6,25.6,0,0,1-3,2.69l-1.23-.82a29.3,29.3,0,0,0,2.79-2.78Z"/><path d="M870.24,117.67h-8.17V116.2h8.17Zm-.61,14.93h-5.21v1.12H863v-8.06h6.66Zm-.12-11.84H863v-1.41h6.51ZM863,122.47h6.51v1.41H863Zm1.42,4.68v4h3.74v-4Zm1.93-11.21a20.61,20.61,0,0,0-1.83-3.22l1.22-.76a18.78,18.78,0,0,1,1.93,3.09Zm7.81,3.5a11.14,11.14,0,0,1-3,2.81,7.83,7.83,0,0,0-1.12-1.2,9.32,9.32,0,0,0,2.89-2.71,13.82,13.82,0,0,0-2.26-1.68l1-1.15a17.16,17.16,0,0,1,2.13,1.51,14.89,14.89,0,0,0,1.1-2.54h-3.58V113h4.19l.29-.05,1.1.36a16.92,16.92,0,0,1-2.39,5.62h5.8a20,20,0,0,1-2.77-6.27l1.52-.28a19.51,19.51,0,0,0,.68,2c.66-.55,1.4-1.2,1.86-1.68l1.11,1a21,21,0,0,1-2.43,2,13.19,13.19,0,0,0,.79,1.39,24.72,24.72,0,0,0,2.1-1.61l1.08,1a17.91,17.91,0,0,1-2.48,1.7,10.56,10.56,0,0,0,2.94,2.67,5.2,5.2,0,0,0-1.25,1.27,10.85,10.85,0,0,1-3-2.93v1.27h-6.31Zm7.37,9c-.59,1.17-1.3,2.54-1.91,3.57h4.62v1.47H870.46V132h7.47a23.81,23.81,0,0,0,1.83-4Zm.58-.68H872.5V122h9.61Zm-7.41,4.2a11.88,11.88,0,0,0-1.42-3.48l1.59-.4a10.7,10.7,0,0,1,1.47,3.4Zm5.77-8.47h-6.38v2.86h6.38Z"/><path d="M902.31,122a14.64,14.64,0,0,0,6.9,4,5.94,5.94,0,0,0-1.17,1.49,17.65,17.65,0,0,1-3.85-1.83v0c-.31,4.84-.66,6.77-1.34,7.46a2.27,2.27,0,0,1-1.62.7,29.23,29.23,0,0,1-3.28-.05,4,4,0,0,0-.53-1.68,28.51,28.51,0,0,0,3,.14,1.19,1.19,0,0,0,.9-.24c.44-.43.74-1.89,1-5.47h-5.92c-.66,3.58-2.32,6.14-7.49,7.54a5,5,0,0,0-1-1.51c4.63-1.11,6.07-3.17,6.68-6h-3.79v-.89a25,25,0,0,1-3.23,1.8,4.43,4.43,0,0,0-1.15-1.46,18.84,18.84,0,0,0,6-4h-5.26v-1.61h6.68a16.14,16.14,0,0,0,1.61-2.45h-6.8v-1.58h4.06a15.38,15.38,0,0,0-2-2.95l1.44-.73a15.84,15.84,0,0,1,2.13,3l-1.32.67h3.21a17.74,17.74,0,0,0,1.15-4.27l1.91.19a25.16,25.16,0,0,1-1.1,4.08H901a24.88,24.88,0,0,0,2.35-3.6l1.66.55a26.14,26.14,0,0,1-2.2,3h3.94v1.58h-9.35a18.31,18.31,0,0,1-1.42,2.45H908.4V122Zm.81,2.88a13.5,13.5,0,0,1-2.87-2.88h-5.48a18.57,18.57,0,0,1-3,2.88Z"/><path d="M918.66,121.24l1.59-1.36a45.81,45.81,0,0,1,5.49,5.32l-1.67,1.37A42.38,42.38,0,0,0,918.66,121.24Z"/><path d="M946.06,125.18v7.56h-6.27V134h-1.66V127.7a13.93,13.93,0,0,1-1.69,2.09,8.7,8.7,0,0,0-1.23-1.39,12.41,12.41,0,0,0,3.28-5.67h-1.78v-1.56h2.2c.17-.77.32-1.56.44-2.37h-3.77v-1.52h4c.07-.76.17-1.58.22-2.4h-3v-1.56h8.88v4h1.45v1.52h-1.45v3.93h-5.45a17.62,17.62,0,0,1-.84,2.45Zm-6.27,1.56v4.44h4.48v-4.44Zm1.3-7.94c-.12.81-.27,1.6-.44,2.37H944V118.8Zm.44-3.92c-.07.82-.15,1.64-.24,2.4H944v-2.4ZM958,128.44h-4.77v5.62h-1.76v-5.62h-4.58v-1.68h4.58v-3.48h-3.67v-1.63h3.67v-3.24h-4v-1.63h10v1.63h-4.21v3.24H957v1.63h-3.77v3.48H958Zm-8.56-11.68a14.33,14.33,0,0,0-1.67-4l1.45-.47a12.59,12.59,0,0,1,1.76,3.86Zm7.53-4.23a39.85,39.85,0,0,1-2,4.13l-1.49-.41a24.39,24.39,0,0,0,1.79-4.15Z"/><path d="M982.21,131.71v1.61h-22.1v-1.61h3.16v-7.44H979.2v7.44Zm-.49-13.3H960.55V116.8h6.29a17.63,17.63,0,0,0-2.45-4l1.55-.67a20.46,20.46,0,0,1,2.59,4l-1.3.64h7.86l-1.3-.48a24.51,24.51,0,0,0,2.55-4.17l1.81.55a36.07,36.07,0,0,1-2.82,4.1h6.39Zm-13.07,1.92a35.29,35.29,0,0,1-6.87,4.23,7,7,0,0,0-1.11-1.4,27.68,27.68,0,0,0,6.74-3.69Zm-3.74,11.38H968v-5.88h-3.06Zm4.72-5.88v5.88h3.09v-5.88Zm11.14-1.75a58.74,58.74,0,0,0-7.39-3.27l.88-1.27a65.28,65.28,0,0,1,7.44,3.1Zm-6.39,1.75v5.88h3.11v-5.88Z"/><path d="M996.51,120.93v3.27h8.54v1.63h-8.54v5.85h9.64v1.66h-21v-1.66h9.5v-5.85h-8.4V124.2h8.4v-3.27h-5.29v-1.32a27.46,27.46,0,0,1-3.89,1.73,7.26,7.26,0,0,0-1.23-1.61c4.56-1.46,9.06-4.27,11.39-7.82l1.66.76c-.17.27-.39.58-.61.87a26.79,26.79,0,0,0,10.45,6.19,6.85,6.85,0,0,0-1.27,1.54,25.58,25.58,0,0,1-3.94-1.83v1.49Zm-6.71,5.43a20.22,20.22,0,0,1,2.33,4.29l-1.59.65a19.24,19.24,0,0,0-2.25-4.34Zm11.8-7.08a28.75,28.75,0,0,1-6-4.52,25,25,0,0,1-5.72,4.52Zm-2.86,11.49a27.14,27.14,0,0,0,2.54-4.41l1.74.64a45.53,45.53,0,0,1-2.91,4.35Z"/><path d="M1012.4,123.6h5.92v10.46h-1.73v-5.54h-3.19c-.22,2.71-.93,4.63-3.18,5.78a4.71,4.71,0,0,0-1.05-1.32c1.79-.86,2.37-2.38,2.55-4.46h-2.65V127h7.52v-1.9h-6V114.19h1.79Zm12.87-1.18H1014.7v-9.53h10.57Zm-1.78-8.28h-7v1.51h7Zm0,2.71h-7v1.56h7Zm0,2.76h-7v1.56h7ZM1030,127v7.11h-1.76v-5.52h-4.87v5.47h-1.76V123.6h.68v0h5.34v-9.43h1.79v10.92h-6.05V127Z"/><path d="M1041.61,117.67h-8.18V116.2h8.18ZM1041,132.6h-5.21v1.12h-1.44v-8.06H1041Zm-.12-11.84h-6.51v-1.41h6.51Zm-6.51,1.71h6.51v1.41h-6.51Zm1.42,4.68v4h3.74v-4Zm1.93-11.21a20.61,20.61,0,0,0-1.83-3.22l1.22-.76a18.89,18.89,0,0,1,1.94,3.09Zm7.81,3.5a11.1,11.1,0,0,1-3,2.81,7.91,7.91,0,0,0-1.13-1.2,9.32,9.32,0,0,0,2.89-2.71,14.17,14.17,0,0,0-2.25-1.68l1-1.15a16.45,16.45,0,0,1,2.13,1.51,14.89,14.89,0,0,0,1.1-2.54h-3.57V113h4.18l.3-.05,1.1.36a17.13,17.13,0,0,1-2.4,5.62h5.8a20.2,20.2,0,0,1-2.77-6.27l1.52-.28c.2.69.42,1.36.69,2,.66-.55,1.39-1.2,1.86-1.68l1.1,1a21,21,0,0,1-2.43,2,13.19,13.19,0,0,0,.79,1.39,24.72,24.72,0,0,0,2.1-1.61l1.08,1a18.44,18.44,0,0,1-2.47,1.7,10.39,10.39,0,0,0,2.93,2.67,5,5,0,0,0-1.24,1.27,10.59,10.59,0,0,1-3-2.93v1.27h-6.32Zm7.37,9c-.59,1.17-1.3,2.54-1.91,3.57h4.62v1.47h-13.77V132h7.46a24.68,24.68,0,0,0,1.84-4Zm.59-.68h-9.62V122h9.62Zm-7.42,4.2a11.61,11.61,0,0,0-1.42-3.48l1.59-.4a10.7,10.7,0,0,1,1.47,3.4Zm5.78-8.47h-6.39v2.86h6.39Z"/><path d="M1073.67,122a14.68,14.68,0,0,0,6.91,4,5.75,5.75,0,0,0-1.18,1.49,17.58,17.58,0,0,1-3.84-1.83v0c-.32,4.84-.66,6.77-1.35,7.46a2.25,2.25,0,0,1-1.61.7,29.2,29.2,0,0,1-3.28-.05,4.14,4.14,0,0,0-.54-1.68,28.61,28.61,0,0,0,3,.14,1.19,1.19,0,0,0,.9-.24c.44-.43.74-1.89,1-5.47h-5.93c-.66,3.58-2.32,6.14-7.48,7.54a5.23,5.23,0,0,0-1.06-1.51c4.63-1.11,6.07-3.17,6.68-6h-3.79v-.89a24.32,24.32,0,0,1-3.23,1.8,4.3,4.3,0,0,0-1.15-1.46,18.73,18.73,0,0,0,6-4h-5.26v-1.61h6.68a17,17,0,0,0,1.62-2.45h-6.81v-1.58H1064a15.38,15.38,0,0,0-2-2.95l1.45-.73a16.8,16.8,0,0,1,2.13,3l-1.33.67h3.21a17.29,17.29,0,0,0,1.15-4.27l1.91.19a25.16,25.16,0,0,1-1.1,4.08h2.91a24.88,24.88,0,0,0,2.35-3.6l1.67.55a27.42,27.42,0,0,1-2.21,3h3.94v1.58h-9.35a16.38,16.38,0,0,1-1.42,2.45h12.44V122Zm.81,2.88a13.45,13.45,0,0,1-2.86-2.88h-5.49a18.57,18.57,0,0,1-3,2.88Z"/><path d="M1090,121.24l1.59-1.36a45.73,45.73,0,0,1,5.48,5.32l-1.66,1.37A42.38,42.38,0,0,0,1090,121.24Z"/><path d="M1120,112.84c-.24.39-.51.72-.78,1.08a28.93,28.93,0,0,0,10.16,6.56,5.29,5.29,0,0,0-1.25,1.6,38.16,38.16,0,0,1-4-2.13v1.63h-12.27v-1.22a34.05,34.05,0,0,1-3.74,1.94,7.35,7.35,0,0,0-1.32-1.56c4.62-1.8,9.1-5,11.57-8.66Zm-9.37,11.62h15.08v9.46h-1.89v-1.25h-11.35V134h-1.84Zm1.84,1.58v5h11.35v-5Zm11.65-6.12a27.65,27.65,0,0,1-6-4.72,26.71,26.71,0,0,1-5.61,4.72Z"/><path d="M1135,115.8v5.9c0,3.67-.31,8.9-2.37,12.41a6.49,6.49,0,0,0-1.44-1c1.91-3.29,2.08-8,2.08-11.38v-7.46h9.57a12.86,12.86,0,0,0-1-1.64l1.69-.48a11.81,11.81,0,0,1,1.35,2.12h8.56v1.56Zm18.61,15.38h-8.47v2.74h-1.74v-2.74h-8.08v-1.49h8.08V128h-6.14v-7.22h6.14v-1.56h-7v-1.42h7V116.3h1.74v1.51h7.71v1.42h-7.71v1.56h6.43V128h-6.43v1.68h8.47Zm-14.74-7.39h4.53V122h-4.53Zm4.53,3V125h-4.53v1.85Zm1.74-4.82v1.8h4.75V122Zm4.75,3h-4.75v1.85h4.75Z"/><path d="M1164,117.67h-8.18V116.2H1164Zm-.61,14.93h-5.22v1.12h-1.44v-8.06h6.66Zm-.13-11.84h-6.51v-1.41h6.51Zm-6.51,1.71h6.51v1.41h-6.51Zm1.42,4.68v4h3.75v-4Zm1.94-11.21a20.73,20.73,0,0,0-1.84-3.22l1.22-.76a18.23,18.23,0,0,1,1.94,3.09Zm7.8,3.5a11.1,11.1,0,0,1-3,2.81,7.91,7.91,0,0,0-1.13-1.2,9.21,9.21,0,0,0,2.89-2.71,14.17,14.17,0,0,0-2.25-1.68l1-1.15a15.79,15.79,0,0,1,2.13,1.51,14.89,14.89,0,0,0,1.1-2.54h-3.57V113h4.18l.3-.05,1.1.36a17.13,17.13,0,0,1-2.4,5.62h5.8a20.19,20.19,0,0,1-2.76-6.27l1.51-.28c.2.69.42,1.36.69,2,.66-.55,1.39-1.2,1.86-1.68l1.1,1a20.88,20.88,0,0,1-2.42,2,15.09,15.09,0,0,0,.78,1.39c.73-.51,1.59-1.15,2.11-1.61l1.07,1a17.83,17.83,0,0,1-2.47,1.7,10.56,10.56,0,0,0,2.94,2.67,5,5,0,0,0-1.25,1.27,10.59,10.59,0,0,1-3-2.93v1.27h-6.32Zm7.37,9c-.59,1.17-1.3,2.54-1.91,3.57H1178v1.47h-13.78V132h7.46a23.87,23.87,0,0,0,1.84-4Zm.59-.68h-9.62V122h9.62Zm-7.42,4.2a11.61,11.61,0,0,0-1.42-3.48l1.59-.4a10.7,10.7,0,0,1,1.47,3.4Zm5.78-8.47h-6.39v2.86h6.39Z"/><path d="M1196.08,122a14.64,14.64,0,0,0,6.9,4,5.75,5.75,0,0,0-1.18,1.49,17.8,17.8,0,0,1-3.84-1.83v0c-.32,4.84-.66,6.77-1.35,7.46a2.25,2.25,0,0,1-1.61.7,29.2,29.2,0,0,1-3.28-.05,4.14,4.14,0,0,0-.54-1.68,28.71,28.71,0,0,0,3,.14,1.21,1.21,0,0,0,.91-.24c.44-.43.73-1.89,1-5.47h-5.92c-.66,3.58-2.33,6.14-7.49,7.54a5,5,0,0,0-1.06-1.51c4.63-1.11,6.08-3.17,6.69-6h-3.8v-.89a23.71,23.71,0,0,1-3.23,1.8,4.3,4.3,0,0,0-1.15-1.46,18.73,18.73,0,0,0,6-4h-5.26v-1.61h6.68a17,17,0,0,0,1.62-2.45h-6.81v-1.58h4.07a15.46,15.46,0,0,0-2-2.95l1.45-.73a16.31,16.31,0,0,1,2.13,3l-1.32.67h3.2a17.29,17.29,0,0,0,1.15-4.27l1.91.19a24.18,24.18,0,0,1-1.1,4.08h2.91a24.88,24.88,0,0,0,2.35-3.6l1.67.55a26.19,26.19,0,0,1-2.21,3h3.94v1.58h-9.34a18.31,18.31,0,0,1-1.42,2.45h12.43V122Zm.8,2.88A13.68,13.68,0,0,1,1194,122h-5.48a19.07,19.07,0,0,1-3,2.88Z"/><path d="M1219.75,123.12a3.72,3.72,0,1,1-3.72-3.65A3.68,3.68,0,0,1,1219.75,123.12Zm-1.25,0a2.47,2.47,0,1,0-2.47,2.42A2.44,2.44,0,0,0,1218.5,123.12Z"/><path d="M573.45,161.75a22.12,22.12,0,0,1,3.6-12.17l1.39.62a22.86,22.86,0,0,0,0,23.09l-1.39.65A22.18,22.18,0,0,1,573.45,161.75Z"/><path d="M596.31,159a14.69,14.69,0,0,0,6.9,4,5.94,5.94,0,0,0-1.17,1.49,17.58,17.58,0,0,1-3.84-1.83v0c-.32,4.84-.67,6.77-1.35,7.46a2.27,2.27,0,0,1-1.62.7,29.23,29.23,0,0,1-3.28-.05,4,4,0,0,0-.53-1.68,28.51,28.51,0,0,0,3,.14,1.19,1.19,0,0,0,.9-.24c.44-.43.74-1.89,1-5.47h-5.93c-.66,3.58-2.32,6.14-7.49,7.54a5,5,0,0,0-1-1.51c4.63-1.11,6.07-3.17,6.68-6h-3.79v-.89a24.32,24.32,0,0,1-3.23,1.8,4.43,4.43,0,0,0-1.15-1.46,18.73,18.73,0,0,0,6-4h-5.26v-1.61h6.68a16.14,16.14,0,0,0,1.61-2.45h-6.8v-1.58h4.06a15.38,15.38,0,0,0-2-2.95l1.44-.73a15.84,15.84,0,0,1,2.13,3l-1.32.67h3.21a17.74,17.74,0,0,0,1.15-4.27l1.91.19a25.16,25.16,0,0,1-1.1,4.08H595a24.88,24.88,0,0,0,2.35-3.6l1.66.55a26.14,26.14,0,0,1-2.2,3h3.94v1.58h-9.35a17.29,17.29,0,0,1-1.42,2.45h12.44V159Zm.81,2.88a13.22,13.22,0,0,1-2.86-2.88h-5.49a18.57,18.57,0,0,1-3,2.88Z"/><path d="M626.89,151.72v1.53H605.54v-1.53h10.11c-.24-.72-.56-1.59-.86-2.26l1.69-.43c.35.84.79,1.89,1.06,2.69Zm-1.35,17.35c0,.93-.25,1.34-1,1.61a17.65,17.65,0,0,1-4,.24,4.68,4.68,0,0,0-.57-1.37c1.52,0,2.94,0,3.33,0s.54-.12.54-.51V158.2h-4.94v1.56c0,.52.07.72.46.72h2.2a8.49,8.49,0,0,0,1.35-.1c0,.41.07.89.12,1.27a4.76,4.76,0,0,1-1.42.12h-2.57c-1.49,0-1.78-.62-1.78-2V158.2H614.5c-.37,2.49-1.52,3.81-4.89,4.56a3.59,3.59,0,0,0-.89-1.25c2.87-.51,3.82-1.47,4.17-3.31h-4.21V171h-1.74v-14.3h11.31a22,22,0,0,0,1.78-3.27l1.84.41c-.59,1-1.25,2-1.89,2.86h5.56Zm-13.27-15.75a26.42,26.42,0,0,1,1.55,2.67l-1.57.62c-.34-.69-1-1.89-1.52-2.78Zm1,14.67v1.1h-1.59v-6.55h8.94V168Zm0-4.11v2.79h5.83v-2.79Z"/><path d="M650.07,171.08h-1.84v-1h-10v1h-1.79v-7.59a31.13,31.13,0,0,1-6,2.69,5.51,5.51,0,0,0-1.08-1.56,27.38,27.38,0,0,0,9.08-4.61,29.58,29.58,0,0,0-4.48-3.93,26.75,26.75,0,0,1-3.2,2.18,6.31,6.31,0,0,0-1.27-1.37,20.41,20.41,0,0,0,8.22-7.8l2,.41c-.42.67-.88,1.37-1.39,2.06h6.9l.34-.09,1.2.62a22.64,22.64,0,0,1-6.68,8.86h10Zm-13.1-18a19,19,0,0,1-1.73,1.75,31.25,31.25,0,0,1,4.62,3.87,19.45,19.45,0,0,0,4.41-5.62Zm11.26,15.31v-5.9h-10v5.9Z"/><path d="M675.94,167.65H666V171h-1.86v-3.39h-9.74v-1.56h9.74v-1.82h-7.3v-8.35h16.84v8.35H666v1.82h9.93Zm-11.72-12.93h-8v-4.66h8Zm-1.71-3.46h-4.68v2.26h4.68Zm-3.9,8.14h5.54v-2h-5.54Zm5.54,3.43v-2.07h-5.54v2.07Zm7.68-5.47H666v2h5.82Zm0,3.4H666v2.07h5.82Zm2.42-6h-8.07v-4.66h8.07Zm-1.68-3.46h-4.73v2.26h4.73Z"/><path d="M685.69,155.08a21,21,0,0,1-2,2.92v13H682V160a23,23,0,0,1-2.82,2.64,11.54,11.54,0,0,0-1-1.75,21.84,21.84,0,0,0,5.93-6.48Zm-.29-5.24a23.75,23.75,0,0,1-5.93,5.72,8.22,8.22,0,0,0-.93-1.44,18.5,18.5,0,0,0,5.14-4.92Zm6.48,2.4v-3h1.84v3h6.9v1.66h-6.9v3h5.77v1.63H685.84V156.9h6v-3h-7v-1.66Zm8.79,10.59h-3.43V169c0,1.05-.24,1.54-1,1.82a14.13,14.13,0,0,1-4,.27,6.27,6.27,0,0,0-.63-1.68c1.54,0,2.94,0,3.35,0s.52-.12.52-.46v-6.09H685.15V161.2h10.26v-2h1.83v2h3.43Zm-12.09.74a27.2,27.2,0,0,1,3.08,4.06l-1.57.91a23.56,23.56,0,0,0-3-4.18Z"/><path d="M725.15,170h-9.89v1h-1.71V159.59a18.36,18.36,0,0,1-1.67,1.39,8.19,8.19,0,0,0-1-1.42v8.38h-4.31v1.94H705V162a15.73,15.73,0,0,1-1.28,2,9.36,9.36,0,0,0-1-1.54c1.76-2.45,2.84-6.12,3.48-10.08h-2.89v-1.63h8v1.63h-3.38a42,42,0,0,1-1.23,5.33h4.19v1.68a16.77,16.77,0,0,0,5.38-6.36h-2.86v2.57h-1.59v-4.11H717a24.76,24.76,0,0,0,.85-2.47l1.72.34a20.62,20.62,0,0,1-.76,2.13h5.85v4.06H723v-2.52h-4.85a23.48,23.48,0,0,1-2.08,3.6h3.18c-.31-.72-.71-1.54-1.05-2.21l1.52-.6a21.85,21.85,0,0,1,1.37,2.81h3.35v1.51H720.6v2.42h3.49V162H720.6v2.54h3.49V166H720.6v2.52h4.52Zm-15.91-10.68h-2.72v7h2.72Zm9.67-1.13h-3.65v2.42h3.65Zm0,3.82h-3.65v2.54h3.65Zm-3.65,6.45h3.65V166h-3.65Z"/><path d="M736,154.6H727.4v-1.49H736Zm-.59,3.16H728v-1.41h7.39ZM728,159.54h7.39V161H728Zm7.27,10.15h-5.73v1.11H728v-8h7.27Zm-5.73-5.47v4h4.16v-4ZM731.42,153a19.74,19.74,0,0,0-1.52-3.26l1.54-.53a21.2,21.2,0,0,1,1.62,3.17Zm3.94,15.2a15.4,15.4,0,0,0,1.71-5l1.3.38a16.57,16.57,0,0,1-1.69,5.23Zm8.27-16.54c-.44,4.32-1.66,7.92-6.17,9.89a4.13,4.13,0,0,0-1.05-1.27,7.84,7.84,0,0,0,4.31-3.8c-.91-.91-2.4-2.18-3.55-3.12l1-1c1,.79,2.3,1.82,3.24,2.61a18.52,18.52,0,0,0,.61-3.31h-5.05v-1.54h11.92s0,.53,0,.77c-.27,6.07-.54,8.23-1.13,9a2,2,0,0,1-1.54.69,25,25,0,0,1-2.76,0,3.83,3.83,0,0,0-.52-1.58c1.13.1,2.16.12,2.55.12a.93.93,0,0,0,.81-.29c.39-.43.63-2.3.83-7.15Zm.81,17.47c.81,0,.95-.41,1-3.19a4.19,4.19,0,0,0,1.44.6c-.17,3.26-.61,4-2.3,4h-3.18c-1.93,0-2.42-.48-2.42-2.13v-5.84h1.59v5.84c0,.57.17.69,1,.69Zm-2.33-8.25a21.75,21.75,0,0,1,2.7,3.45l-1.2.82a22.8,22.8,0,0,0-2.62-3.58Zm5.68,1.32A26.75,26.75,0,0,1,750,167.1l-1.4.53a27.7,27.7,0,0,0-2-5Z"/><path d="M751.88,173.29a22.79,22.79,0,0,0,0-23.09l1.37-.62a22.25,22.25,0,0,1,0,24.36Z"/><path class="cls-2" d="M548.85,19.87c0,8.61,3.81,15.67,8.48,19.62v.21H544V0h13.37V.25C552.66,4.2,548.85,11.26,548.85,19.87Z"/><path class="cls-2" d="M570.14,11.43c-.47,3.4-2,5.54-7,6.67a8.92,8.92,0,0,0-2-2.94c3.6-.63,4.75-1.72,5.18-3.73H562V8h7.15V5.92H563.5V2.56h5.69V.34h4.5V2.56h5.74V5.92h-5.74V8h6.9v3.45h-4.76v1.21c0,.8.09,1.1.65,1.1h1.71a9.3,9.3,0,0,0,2.1-.21c.09.88.13,2,.26,2.85a8.8,8.8,0,0,1-2.27.21h-2.53c-3,0-3.51-1.26-3.51-3.95V11.43ZM561.27,37.6a20.62,20.62,0,0,0,5-7.35l4.93,1.25a23.43,23.43,0,0,1-5.1,8ZM597.69,25a.55.55,0,0,0,.47-.21,2.61,2.61,0,0,0,.26-1.3c.08-.8.12-2.52.12-4.66a11.32,11.32,0,0,0,3.13,1.68,34.81,34.81,0,0,1-.47,5.71,3.58,3.58,0,0,1-1.2,2.1,3.72,3.72,0,0,1-2.27.63H595.8a3.87,3.87,0,0,1-2.74-1c-.64-.75-.94-1.59-.94-4.7V20L590.4,23.4c-.64-.59-1.54-1.3-2.53-2.1a17.38,17.38,0,0,1-5.48,8.48,14.38,14.38,0,0,0-1.8-2.22v.08C574,28.31,567.05,29,562,29.49l-.34-4.08c2-.12,4.67-.33,7.49-.54V22.31H562.9V18.82h6.29V16.55h4.5v2.27h5.83v3.49h-5.83v2.22l6.86-.59v1.35a15.47,15.47,0,0,0,3.51-6.76c-1.16-.89-2.35-1.73-3.38-2.4l2.1-3.78,2.1,1.43c.12-1.22.25-2.44.3-3.74h-3.6V5.63h3.72c.05-1.72.09-3.49.09-5.42H590c0,1.89,0,3.65-.08,5.42h6.81V23.1a6.06,6.06,0,0,0,.09,1.64.36.36,0,0,0,.38.21Zm-19.28,6.26a42.23,42.23,0,0,1,1,7.31l-5.09.63a49.7,49.7,0,0,0-.69-7.48Zm8.61-.29a37.85,37.85,0,0,1,2.31,7.22l-5.1,1a39.49,39.49,0,0,0-2-7.48ZM589.67,10c-.12,2.35-.34,4.49-.64,6.51,1.16.8,2.23,1.55,3.09,2.19V10Zm6,20.08a55.58,55.58,0,0,1,5.27,7.81l-5.27,1.6a49.92,49.92,0,0,0-4.88-8Z"/><path class="cls-2" d="M623.77,8.91l3.09,1c-2.49,11.22-8.91,17.39-18.08,20.5a19.52,19.52,0,0,0-2.7-4.24,23.34,23.34,0,0,0,9.68-5.21,33.82,33.82,0,0,0-4.28-3.57c-.65.59-1.25,1.13-1.89,1.64a26.76,26.76,0,0,0-4-3.15,26,26,0,0,0,8-9.41h-6.09V2h20V6.43H619c-.39.88-.82,1.76-1.29,2.6h5.19ZM606.46,37.6a20.07,20.07,0,0,0,4.72-8.07l4.92,1.18a22.83,22.83,0,0,1-4.79,8.82Zm8.83-24.7a13.92,13.92,0,0,1-1,1.3,38.92,38.92,0,0,1,4.42,3.27,23.16,23.16,0,0,0,2.35-4.57Zm8.27,17.56a54.07,54.07,0,0,1,1.07,7.85l-5,.71a52.44,52.44,0,0,0-.81-8Zm8.57-.17a45.41,45.41,0,0,1,2.48,7.81l-5.1,1a43.81,43.81,0,0,0-2.18-8Zm1.63-8.57H628.7V3h5.06ZM643.53,24c0,2.56-.56,3.86-2.36,4.62s-4.24.8-7.67.8a21.77,21.77,0,0,0-1.76-4.67c2.27,0,4.89,0,5.62,0s1-.21,1-.84V.88h5.19Zm-2.83,5.37a57,57,0,0,1,5.4,8.4l-5.23,1.73a53,53,0,0,0-5.06-8.61Z"/><path class="cls-2" d="M682.94,25.75a29.29,29.29,0,0,0,8.69,3.53,19.84,19.84,0,0,0-3.25,4A28,28,0,0,1,683,30.79c-.43,4.33-.94,6.43-1.88,7.35a4.38,4.38,0,0,1-3,1.22,36.88,36.88,0,0,1-5.06,0,8.73,8.73,0,0,0-1.2-3.78c1.67.17,3.34.21,4.07.21a1.71,1.71,0,0,0,1.37-.38c.39-.37.69-1.34.94-3.31h-7.58c-1.84,3.57-5.4,5.92-13,7.39a11,11,0,0,0-2.31-3.66c5.23-.79,8.18-2,9.9-3.73h-6.86V30.71a45.76,45.76,0,0,1-4.92,2.1,11.11,11.11,0,0,0-2.92-3.53,29.26,29.26,0,0,0,8-3.53h-6.68V21.89h10.93a9,9,0,0,0,1-1.64h-7.32V8.32h29.3V20.25H669.14c-.3.54-.56,1.09-.9,1.64h21.94v3.86ZM661.39,6.26H652V2.56h9.35V.29h5V2.56h4.11v3.7h-4.11V7.6h-5Zm0,6.64h19.28V11.22H661.34Zm0,4.49h19.28V15.63H661.34Zm10.93,9c-.13.76-.26,1.47-.39,2.18h7.84a23.66,23.66,0,0,1-3-2.81H665.24a21.74,21.74,0,0,1-3.34,2.81h5.27c.17-.67.3-1.38.43-2.18Zm3.25-20.12h-3.77V2.56h3.77V.29h5V2.56h9.51v3.7h-9.51V7.6h-5Z"/><path class="cls-2" d="M701.44,12.81c-.77.67-1.54,1.3-2.31,1.93a14.9,14.9,0,0,0-3.6-3.27A33.67,33.67,0,0,0,705.68.21l5.19,1c-.65,1.05-1.33,2.1-2.06,3.15h6.6a30.06,30.06,0,0,0-1.33-3l4.8-1.3a28,28,0,0,1,2,4.33H733.1V8.15H720V9.91h11.13v3.24H720v1.68h11.18v3.23H720v1.85h14.09v3.78H706.5v1.14h-5.06Zm10.5,19.91a35.25,35.25,0,0,1-12.77,5.63A22.57,22.57,0,0,0,696,34.53c4.37-.59,9.47-2,12.12-3.53Zm6.47-2.52v9.2h-5.06V30.2H696.73v-4h16.62V24.07h5.06v2.14H735.2v4Zm-3.26-22H706.5V9.91h8.65Zm0,5H706.5v1.68h8.65Zm0,4.91H706.5v1.85h8.65Zm7.76,12.56c3.77,1.22,9.42,3.2,12.38,4.54l-3.13,3.28c-2.74-1.31-8.27-3.49-12.21-4.92Z"/><path class="cls-2" d="M778.6,7.52v21h-5.36v-2.1h-9.68V39.49h-5.4V26.38h-9.64v2.31h-5.14V7.52h14.78V.25h5.4V7.52Zm-20.44,14v-9h-9.64v9Zm15.08,0v-9h-9.68v9Z"/><path class="cls-2" d="M784.63,39.7v-.21c4.67-4,8.49-11,8.49-19.62S789.3,4.2,784.63.25V0H798V39.7Z"/></g></g></svg>