<svg xmlns="http://www.w3.org/2000/svg" xmlns:xlink="http://www.w3.org/1999/xlink" viewBox="0 0 227.16 54.89"><defs><style>.cls-1{fill:url(#未命名漸層_2742);}.cls-2{fill:#fff;}</style><linearGradient id="未命名漸層_2742" y1="27.45" x2="227.16" y2="27.45" gradientUnits="userSpaceOnUse"><stop offset="0" stop-color="#6a82ff"/><stop offset="1" stop-color="#197ec1"/></linearGradient></defs><g id="圖層_2" data-name="圖層 2"><g id="內頁"><path class="cls-1" d="M227.16,54.89H68.22C35.14,54.89,4.6,30.32,0,0H159C192,0,222.56,24.58,227.16,54.89Z"/><path class="cls-2" d="M70.28,17.21a43.56,43.56,0,0,1,6.44,7L74.25,26A19.77,19.77,0,0,0,73,24.17c-13,.62-14.73.67-16,1.1A21,21,0,0,0,56,22.53a5,5,0,0,0,2-1.39,32.12,32.12,0,0,0,5.19-6.53l2.93,1.23A39.54,39.54,0,0,1,60.81,22l10-.31c-1-1.06-1.93-2.07-2.84-3ZM57.75,26.86h16.5V37.37H71.11v-1.2H60.74v1.22h-3Zm3,2.73v3.84H71.11V29.59Z"/><path class="cls-2" d="M90.92,30.5l.51,2.55C88,34.51,84.21,36,81.32,37.1L80,34.18c1.64-.51,4-1.3,6.48-2.14V23.52H80.86V20.66h5.65V15.38h3V31Zm8,3.41c.9,0,1-1.13,1.2-5.42a8.75,8.75,0,0,0,2.79,1.34c-.27,5-1,6.87-3.72,6.87H96.25c-2.69,0-3.5-1-3.5-4.32v-17h3v5.23h6.39v2.83H95.79V32.4c0,1.3.12,1.51.93,1.51Z"/><path class="cls-2" d="M113.07,29.78c0-.36-.14-.76-.24-1.22-4.7.94-5.48,1.17-6,1.46a20.09,20.09,0,0,0-.86-2.3c.61-.15,1.13-.72,1.89-1.63A24.35,24.35,0,0,0,109.4,24a9.82,9.82,0,0,0-2.79.53c-.14-.5-.56-1.71-.83-2.35a3.17,3.17,0,0,0,1.35-1.32,28.14,28.14,0,0,0,2.79-5.88l2.52,1a30.34,30.34,0,0,1-3.31,5.88l1.72-.12c.58-1.06,1.2-2.16,1.68-3.27l2.31,1.23a45.29,45.29,0,0,1-5,7.32l2.44-.43a15.28,15.28,0,0,0-.48-1.56l1.93-.56a32.12,32.12,0,0,1,1.37,4.66Zm-3.91,1.32a25.64,25.64,0,0,1-1.23,5.79,12.8,12.8,0,0,0-2-.67,19.23,19.23,0,0,0,1.18-5.45Zm2.27-.5c.3,1.61.54,3.65.64,5l-2,.48a39.3,39.3,0,0,0-.57-5Zm2.28-.55a33.09,33.09,0,0,1,.91,3.74,21.13,21.13,0,0,0,.93-3.41l2,.68a24.3,24.3,0,0,1-1.69,5.52l-2-1a11,11,0,0,0,.76-1.68l-1.84.55a28.71,28.71,0,0,0-.86-3.91Zm13.14,6.12c-.22-.72-.54-1.63-.9-2.57-.25,2.64-.88,3.36-2.65,3.36h-2.76c-2.33,0-2.89-.65-2.89-2.64V30.46h2.4V34.3c0,.6.12.67.83.67H123c.62,0,.76-.29.84-2.14l-1.37.7a41.58,41.58,0,0,0-2.16-3.77L122,29h-6.46V17.21h3.72a17.07,17.07,0,0,0,.71-2.4l3,.45c-.35.7-.71,1.35-1,2h5.8V29H122.3c.71,1.15,1.71,2.64,2.18,3.55l-.56.27a7.21,7.21,0,0,0,2,.79c-.35-.91-.74-1.85-1-2.64l1.93-.77c.71,1.63,1.57,3.7,2,5.09ZM118,19.46v3.36a9.21,9.21,0,0,0,1.54-1.05,13.37,13.37,0,0,0-1.15-1.11l1.45-.89c.32.27.63.56,1,.84a6.42,6.42,0,0,0,.74-1l1.73.31a10.9,10.9,0,0,1-1.32,1.8c.2.21.39.43.59.62a7.75,7.75,0,0,0,1-1.27l1.55.26V19.46Zm0,7.23h7v-5a14,14,0,0,1-1.42,1.85c.53.69,1,1.34,1.39,1.89l-1.54,1.08a12.79,12.79,0,0,0-1.2-1.67,18.09,18.09,0,0,1-2.74,1.82,4.06,4.06,0,0,0-1-1.23,15.33,15.33,0,0,0,2.79-1.84,4.37,4.37,0,0,0-.59-.63,15.59,15.59,0,0,1-1.79,1.23,4.84,4.84,0,0,0-.88-1.06Z"/><path class="cls-2" d="M141.3,16.56A36.09,36.09,0,0,1,134,27.07a29.06,29.06,0,0,0-2.59-2.45A25.11,25.11,0,0,0,138,15.53Zm6.85,11a74.87,74.87,0,0,1,5.43,8.29l-3,1.56a25.11,25.11,0,0,0-1.27-2.36c-11.82.92-13.48,1.06-14.68,1.52a26.58,26.58,0,0,0-1.2-3.08,5.37,5.37,0,0,0,2.42-1.92,43.39,43.39,0,0,0,6-9.09l3.4,1.41a54.26,54.26,0,0,1-6.61,9l9-.58c-.78-1.2-1.59-2.45-2.35-3.5Zm.47-12a15.57,15.57,0,0,0,6.29,8.55A14.73,14.73,0,0,0,152.7,27a21.41,21.41,0,0,1-6.34-8.47h-3.91v-3Z"/><path class="cls-2" d="M178.55,33.79c0,1.63-.29,2.5-1.34,3s-2.57.58-4.75.55a11.81,11.81,0,0,0-1-3.09c1.37.09,3,.07,3.45,0s.61-.12.61-.53V19.15H158.48V16.44h20.07Zm-5.43-10.44H158.73v-2.5h14.39Zm-10.3,9.89V35H160V25.13h11.87v8.11Zm0-5.67v3.22H169V27.57Z"/></g></g></svg>