<svg xmlns="http://www.w3.org/2000/svg" viewBox="0 0 440 404.38"><defs><style>.cls-1{isolation:isolate;}.cls-2{fill:#3797bd;}.cls-3{opacity:0.1;mix-blend-mode:multiply;}.cls-4{fill:#fff;}.cls-5,.cls-6{fill:none;stroke:#0071a0;stroke-miterlimit:10;}.cls-6{stroke-dasharray:1 1.99;}</style></defs><g class="cls-1"><g id="圖層_2" data-name="圖層 2"><g id="bg"><rect class="cls-2" width="440" height="404.38"/></g><g id="內頁"><g class="cls-3"><path d="M119.92,62V72.23h-5.7V66.68H84.44v5.55H79V62H96.28c-.38-.94-.81-1.93-1.15-2.72l6.19-1.18a36.42,36.42,0,0,1,1.87,3.9ZM81.52,85.2h36v17.39h-5.66v-1.22H86.94v1.31H81.52ZM85,73.92h28.52v9.54H85Zm27.42-5.41v3.76H86.22V68.51ZM86.94,89.24v2.3h9.49v-2.3Zm9.49,8.08V95H86.94v2.3ZM90.24,79.89H108V77.58H90.24Zm21.58,9.35H102v2.3h9.83Zm0,8.08V95H102v2.3Z"/><path d="M149.16,67.15a71.11,71.11,0,0,1-8.53,2.16v5h6.57v4.88h-6.62c0,1.6-.09,3.15-.24,4.7h8.06v5.17h-8.92A23.77,23.77,0,0,1,130.75,103a23.67,23.67,0,0,0-4.7-3.9,19.87,19.87,0,0,0,7.34-10h-8.1V83.88h9.3c.19-1.55.29-3.1.33-4.7H127V74.3h8v-4c-2.68.38-5.42.71-7.91.94a20.29,20.29,0,0,0-1.53-4.61c3.06-.37,6.33-.84,9.44-1.41V58.83h5.66v5.22c2-.52,3.93-1.08,5.51-1.65ZM169.59,64c-1.92,4.55-4.32,9.77-6.43,13.77,4.6,4.13,5.52,7.89,5.52,11,0,3.48-.87,5.78-2.79,7A8.52,8.52,0,0,1,162.3,97a37.8,37.8,0,0,1-4.22.1,12.48,12.48,0,0,0-1.53-5.45,26.81,26.81,0,0,0,3.21.09,5.18,5.18,0,0,0,2.11-.47c1-.47,1.29-1.55,1.29-3.2,0-2.53-1.29-5.92-5.75-9.58,1.58-3.39,3.4-8.13,4.75-11.75h-6.57v36h-5.66V61.56H164.5l.92-.24Z"/><path d="M184.59,85.1V96.29c0,2.72-.53,4.09-2.16,4.89s-3.88,1-7.24,1a18.28,18.28,0,0,0-1.63-5.07c1.92,0,3.89,0,4.51,0s.91-.23.91-.89V86.56l-4.84,1.22-1.49-5.35c1.82-.38,4-.85,6.33-1.37V72.79h-5.7V67.62H179V58.69h5.61v8.93h5v5.17h-5V79.7l3.5-.85.72,5.13Zm30.35-4.79a30.24,30.24,0,0,1-8.25,13.58,41,41,0,0,0,11.08,3.57,25.89,25.89,0,0,0-3.6,5.17,39.42,39.42,0,0,1-12.37-5.07,47.39,47.39,0,0,1-13.09,5A21.75,21.75,0,0,0,186,97.46a39.3,39.3,0,0,0,11.07-3.57,34.65,34.65,0,0,1-6.66-9.07l1.77-.61h-2.73V79h20.81l1-.23Zm-24-1.93a22,22,0,0,0-3.79-4c5.66-2.54,6.37-5.92,6.37-9.17v-5h16.88V70.44c0,1.36.1,1.93.86,1.93h2.54a11.86,11.86,0,0,0,2.69-.33c.1,1.41.24,3.34.43,4.6a8.25,8.25,0,0,1-3,.38h-3.21c-4.7,0-5.71-2-5.71-6.67v-5l-6.18,0C198.83,70.11,197.44,75.33,191,78.38Zm5,5.83a22.48,22.48,0,0,0,5.85,6.58,23.17,23.17,0,0,0,5.56-6.58Z"/><path d="M235.65,60.38a73.18,73.18,0,0,1-3.55,8.32v34.07h-5.18V77.49c-1.15,1.6-2.35,3.15-3.5,4.47a35.84,35.84,0,0,0-2.92-5.5,50.21,50.21,0,0,0,10.06-17.58ZM265.18,66v4.56H234.3V66H248a42.11,42.11,0,0,0-3-5.6l4.84-1.78a35.25,35.25,0,0,1,3.5,6.2L250.65,66ZM236.94,86.84H262.3V102.4h-5v-1.32H241.78v1.46h-4.84Zm24.74-9.44h-24V73h24Zm-24,2.44h24v4.37h-24Zm4.12,11.47v5.31h15.49V91.31Z"/><path d="M305.35,72.65a31.81,31.81,0,0,1-8.44,8.69,72.56,72.56,0,0,0,16.88,3.48,24.28,24.28,0,0,0-3.6,5.41c-1.77-.24-3.4-.52-5.08-.85v13.16h-5.85v-1.41H283.11v1.5h-5.57V89.71c-2.06.52-4.12.94-6.23,1.32a22.17,22.17,0,0,0-2.73-5,66.59,66.59,0,0,0,17.07-4.51,36.07,36.07,0,0,1-4.27-3.48,43.81,43.81,0,0,1-5.85,3.15A17.57,17.57,0,0,0,271.74,77c6.67-2.44,11.08-5.92,13.43-9.4h-8.92v5.27h-5.61V62.55h17.84c-.53-1.09-1.11-2.17-1.59-3.06l5.71-1.36c.72,1.36,1.68,3,2.44,4.42h16.74V72.89h-5.85V67.62H286l5.37,1.08-1.53,1.93h10.69l1-.24Zm-6.09,23.92v-4H283.11v4Zm.05-8.65a58.61,58.61,0,0,1-8.2-3.15,59.77,59.77,0,0,1-7.57,3.15ZM285.5,75a26,26,0,0,0,5.66,3.85,28.51,28.51,0,0,0,5.47-4H285.74Z"/><path d="M356,71.1V90.65h-5.84V88.3H328c-1.06,5.31-3.12,10.67-7.1,14.52A22.64,22.64,0,0,0,316.47,99c6.23-6.2,6.81-15.46,6.81-22.32V63.06c9.68-.84,20.62-2.44,27.14-4.32l4.5,4.23A168.45,168.45,0,0,1,329,67.2v3.9Zm-5.84,12V76.27H329v.47c0,1.93-.09,4.13-.29,6.39Z"/></g><path class="cls-4" d="M119.92,55V65.23h-5.7V59.68H84.44v5.55H79V55H96.28c-.38-.94-.81-1.93-1.15-2.72l6.19-1.18a36.42,36.42,0,0,1,1.87,3.9ZM81.52,78.2h36V95.59h-5.66V94.37H86.94v1.31H81.52ZM85,66.92h28.52v9.54H85Zm27.42-5.41v3.76H86.22V61.51ZM86.94,82.24v2.3h9.49v-2.3Zm9.49,8.08V88H86.94v2.3ZM90.24,72.89H108V70.58H90.24Zm21.58,9.35H102v2.3h9.83Zm0,8.08V88H102v2.3Z"/><path class="cls-4" d="M149.16,60.15a71.11,71.11,0,0,1-8.53,2.16v5h6.57v4.88h-6.62c0,1.6-.09,3.15-.24,4.7h8.06v5.17h-8.92A23.77,23.77,0,0,1,130.75,96a23.67,23.67,0,0,0-4.7-3.9,19.87,19.87,0,0,0,7.34-10h-8.1V76.88h9.3c.19-1.55.29-3.1.33-4.7H127V67.3h8v-4c-2.68.38-5.42.71-7.91.94a20.29,20.29,0,0,0-1.53-4.61c3.06-.37,6.33-.84,9.44-1.41V51.83h5.66v5.22c2-.52,3.93-1.08,5.51-1.65ZM169.59,57c-1.92,4.55-4.32,9.77-6.43,13.77,4.6,4.13,5.52,7.89,5.52,11,0,3.48-.87,5.78-2.79,7A8.52,8.52,0,0,1,162.3,90a37.8,37.8,0,0,1-4.22.1,12.48,12.48,0,0,0-1.53-5.45,26.81,26.81,0,0,0,3.21.09,5.18,5.18,0,0,0,2.11-.47c1-.47,1.29-1.55,1.29-3.2,0-2.53-1.29-5.92-5.75-9.58,1.58-3.39,3.4-8.13,4.75-11.75h-6.57v36h-5.66V54.56H164.5l.92-.24Z"/><path class="cls-4" d="M184.59,78.1V89.29c0,2.72-.53,4.09-2.16,4.89s-3.88,1-7.24,1a18.28,18.28,0,0,0-1.63-5.07c1.92,0,3.89,0,4.51,0s.91-.23.91-.89V79.56l-4.84,1.22-1.49-5.35c1.82-.38,4-.85,6.33-1.37V65.79h-5.7V60.62H179V51.69h5.61v8.93h5v5.17h-5V72.7l3.5-.85.72,5.13Zm30.35-4.79a30.24,30.24,0,0,1-8.25,13.58,41,41,0,0,0,11.08,3.57,25.89,25.89,0,0,0-3.6,5.17,39.42,39.42,0,0,1-12.37-5.07,47.39,47.39,0,0,1-13.09,5A21.75,21.75,0,0,0,186,90.46a39.3,39.3,0,0,0,11.07-3.57,34.65,34.65,0,0,1-6.66-9.07l1.77-.61h-2.73V72h20.81l1-.23Zm-24-1.93a22,22,0,0,0-3.79-4c5.66-2.54,6.37-5.92,6.37-9.17v-5h16.88V63.44c0,1.36.1,1.93.86,1.93h2.54a11.86,11.86,0,0,0,2.69-.33c.1,1.41.24,3.34.43,4.6a8.25,8.25,0,0,1-3,.38h-3.21c-4.7,0-5.71-2-5.71-6.67v-5l-6.18,0C198.83,63.11,197.44,68.33,191,71.38Zm5,5.83a22.48,22.48,0,0,0,5.85,6.58,23.17,23.17,0,0,0,5.56-6.58Z"/><path class="cls-4" d="M235.65,53.38a73.18,73.18,0,0,1-3.55,8.32V95.77h-5.18V70.49c-1.15,1.6-2.35,3.15-3.5,4.47a35.84,35.84,0,0,0-2.92-5.5,50.21,50.21,0,0,0,10.06-17.58ZM265.18,59v4.56H234.3V59H248a42.11,42.11,0,0,0-3-5.6l4.84-1.78a35.25,35.25,0,0,1,3.5,6.2L250.65,59ZM236.94,79.84H262.3V95.4h-5V94.08H241.78v1.46h-4.84Zm24.74-9.44h-24V66h24Zm-24,2.44h24v4.37h-24Zm4.12,11.47v5.31h15.49V84.31Z"/><path class="cls-4" d="M305.35,65.65a31.81,31.81,0,0,1-8.44,8.69,72.56,72.56,0,0,0,16.88,3.48,24.28,24.28,0,0,0-3.6,5.41c-1.77-.24-3.4-.52-5.08-.85V95.54h-5.85V94.13H283.11v1.5h-5.57V82.71c-2.06.52-4.12.94-6.23,1.32a22.17,22.17,0,0,0-2.73-5,66.59,66.59,0,0,0,17.07-4.51,36.07,36.07,0,0,1-4.27-3.48,43.81,43.81,0,0,1-5.85,3.15A17.57,17.57,0,0,0,271.74,70c6.67-2.44,11.08-5.92,13.43-9.4h-8.92v5.27h-5.61V55.55h17.84c-.53-1.09-1.11-2.17-1.59-3.06l5.71-1.36c.72,1.36,1.68,3,2.44,4.42h16.74V65.89h-5.85V60.62H286l5.37,1.08-1.53,1.93h10.69l1-.24Zm-6.09,23.92v-4H283.11v4Zm.05-8.65a58.61,58.61,0,0,1-8.2-3.15,59.77,59.77,0,0,1-7.57,3.15ZM285.5,68a26,26,0,0,0,5.66,3.85,28.51,28.51,0,0,0,5.47-4H285.74Z"/><path class="cls-4" d="M356,64.1V83.65h-5.84V81.3H328c-1.06,5.31-3.12,10.67-7.1,14.52A22.64,22.64,0,0,0,316.47,92c6.23-6.2,6.81-15.46,6.81-22.32V56.06c9.68-.84,20.62-2.44,27.14-4.32l4.5,4.23A168.45,168.45,0,0,1,329,60.2v3.9Zm-5.84,12V69.27H329v.47c0,1.93-.09,4.13-.29,6.39Z"/><path class="cls-4" d="M165.11,255.56v12.33h-1.56v-1.15h-5.86v6H156.1v-6h-5.66V268h-1.53V255.56h7.19v-2.9h1.59v2.9Zm-14.67,1.57v3.19h5.66v-3.19Zm5.66,8v-3.32h-5.66v3.32Zm1.59-8v3.19h5.86v-3.19Zm5.86,8v-3.32h-5.86v3.32Z"/><path class="cls-4" d="M171.63,268a13.41,13.41,0,0,1-2.32,4.73,11.15,11.15,0,0,0-1.17-.88,9.82,9.82,0,0,0,2.09-4.18Zm3.45-.79h-5.87V253.5h5.87Zm-1.4-12.39h-3.11v2.8h3.11Zm0,4.07h-3.11v2.82h3.11Zm0,4.12h-3.11v2.86h3.11Zm.33,4.64a18.54,18.54,0,0,1,1.74,3.39l-1.23.61a19.36,19.36,0,0,0-1.68-3.45Zm13.4,1.45h-1.25v1.91c0,.8-.17,1.22-.69,1.46a10.32,10.32,0,0,1-3,.22,5.12,5.12,0,0,0-.44-1.32c1.09,0,2.09,0,2.38,0s.36-.09.36-.38v-1.91h-6.61v3.63h-1.4v-3.63h-1.36v-1.25h1.36V262.3h4V261h-5.22v-1.23h3v-1.45h-2v-1.21h2v-1.32h-2.53v-1.23h2.53v-1.9h1.38v1.9h3.09v-1.9h1.4v1.9h2.55v1.23h-2.55v1.32h2.22v1.21h-2.22v1.45h3V261h-5.27v1.28h4.1v5.59h1.25Zm-9.28-5.61v1.56h2.55v-1.56Zm0,4.36h2.55v-1.65h-2.55Zm1.72-10.76h3.09v-1.32h-3.09Zm0,2.66h3.09v-1.45h-3.09Zm2.21,3.74v1.56h2.68v-1.56Zm2.68,4.36v-1.65h-2.68v1.65Z"/><path class="cls-4" d="M208,263.77V265H189.52v-1.21h8.4v-1.3h-7v-1.12h7v-1.21h-6.39V259h6.39v-1.3h-8.36v-1.23h8.36v-1.23h-6.16v-1.1h6.16v-1.54h1.53v1.54h6v2.33H208v1.23h-2.55v2.4h-6v1.21h7.13v1.12h-7.13v1.3ZM192.2,266h13.33v6.75H204v-.68H193.7v.73h-1.5Zm1.5,1.12v1.34H204v-1.34ZM204,271v-1.41H193.7V271Zm-4.54-14.44h4.45v-1.23h-4.45Zm0,2.53h4.45v-1.3h-4.45Z"/><path class="cls-4" d="M216.65,257h4.81v1.41h-4.81v7.72h3.93v1.41h-3.93v2c1.46-.2,3-.37,4.45-.57l.05,1.41c-3.73.55-7.7,1.1-10.48,1.47l-.21-1.56c1.3-.13,2.95-.33,4.75-.55v-2.18h-4.37v-1.41h4.37v-7.72h-4.83V257h4.83v-1.67c-1.36.15-2.72.28-4,.35a5.54,5.54,0,0,0-.4-1.3,55.2,55.2,0,0,0,9.39-1.43l.77,1.35a34.88,34.88,0,0,1-4.35.83Zm-3.51,2.2v2.33h1.38v1.17h-1.38v2.66H212v-2.66h-1.53v-1.17H212v-2.33Zm6.67,2.36h1.4v1.16h-1.4v2.64h-1.13v-2.64H217.3v-1.16h1.38v-2.36h1.13Zm9.26-7c-.78,2-1.74,4.53-2.64,6.6a7.74,7.74,0,0,1,2.37,5.34,3.45,3.45,0,0,1-1,2.89,2.67,2.67,0,0,1-1.31.48,9.61,9.61,0,0,1-1.86,0,3.89,3.89,0,0,0-.46-1.6c.67.06,1.25.06,1.67.06a2.31,2.31,0,0,0,.9-.26c.39-.24.54-.95.54-1.72,0-1.38-.52-3-2.4-5,.77-1.87,1.61-4.25,2.19-6h-3.43v17.45h-1.46v-19h5.52l.25-.06Z"/><path class="cls-4" d="M249.78,264.34h-3v6.58c0,.93-.19,1.35-.86,1.61a11.91,11.91,0,0,1-3.36.22,9.77,9.77,0,0,0-.5-1.5c1.27.05,2.42.05,2.78.05s.41-.11.41-.4v-6.56H231.36v-1.47h2.49a4.5,4.5,0,0,0-.63-1.06c3.52-.48,5.21-1.36,6-2.86H234v-1.32h5.8c.1-.39.16-.79.23-1.25h1.46c-.06.46-.13.86-.21,1.25h5.94V259h-6.34a3.84,3.84,0,0,0-.14.4,36.51,36.51,0,0,1,6.6,2.53l-.69,1h3.18Zm-16.62-6H231.7v-3.85H240a9.35,9.35,0,0,0-.55-1.54l1.53-.33a8.39,8.39,0,0,1,.67,1.87h7.77v3.85h-1.5v-2.42H233.16Zm2.17,12.22v1.1h-1.44v-5.92h8.43v4.82Zm10.81-7.64a37.46,37.46,0,0,0-6.14-2.46c-1,1.16-2.55,1.93-5.13,2.46ZM235.33,267v2.25h5.52V267Z"/><path class="cls-4" d="M256.13,265.64c.75-.35,1.53-.68,2.3-1l.31,1.45c-2.19,1.08-4.53,2.18-6.35,3l-.61-1.63c.8-.29,1.8-.73,2.89-1.21v-6.78h-2.49v-1.56h2.49v-5h1.46v5h2.24v1.56h-2.24Zm12,5.15c1.21,0,1.42-.59,1.57-3.12a3.43,3.43,0,0,0,1.4.61c-.25,3-.73,4-2.91,4h-5.14c-2.36,0-3.07-.6-3.07-3v-6.91l-1.66.72-.6-1.43,2.26-1v-6h1.48V260l2.8-1.23v-6.12h1.49v5.46l3.17-1.41,1.19.42-.08.26a81.08,81.08,0,0,1-1.09,9.64l-1.27-.4a78.75,78.75,0,0,0,.79-8l-2.71,1.21v8.08h-1.49v-7.42l-2.8,1.26v7.59c0,1.19.27,1.47,1.63,1.47Z"/><path class="cls-4" d="M280.15,266c-2.39,1.07-4.94,2.22-6.88,3.06l-.57-1.59,3.06-1.21v-6.8h-2.85v-1.56h2.85v-5h1.46v5h2.72v1.56h-2.72v6.21l2.63-1.1Zm11.79,4.4V272H278.45v-1.56H281v-13h1.53v13h3.07V252.81h1.55v7.44h4.49v1.56h-4.49v8.61Z"/><path class="cls-4" d="M59,299.41h3.41V287.83H59.72v-1.3a8.5,8.5,0,0,0,3.18-1.14h1.46v14h3.08v1.67H59Z"/><path class="cls-4" d="M69.82,293.18c0-5.26,1.82-8.08,4.78-8.08s4.77,2.84,4.77,8.08-1.8,8.18-4.77,8.18S69.82,298.44,69.82,293.18Zm7.69,0c0-4.6-1.17-6.47-2.91-6.47s-2.92,1.87-2.92,6.47,1.17,6.58,2.92,6.58S77.51,297.78,77.51,293.18Z"/><path class="cls-4" d="M81,299.23l.94-1.32a5,5,0,0,0,3.76,1.78,3.3,3.3,0,0,0,3.26-3.56c0-2.18-1.25-3.48-3.18-3.48a4.06,4.06,0,0,0-2.55,1l-1-.68.48-7.55h7.46v1.72H84.34L84,291.79a4.35,4.35,0,0,1,2.27-.66c2.56,0,4.62,1.54,4.62,4.93a5,5,0,0,1-5,5.3A6.34,6.34,0,0,1,81,299.23Z"/><path class="cls-4" d="M92.58,299.23l.94-1.32a4.93,4.93,0,0,0,3.76,1.78,3.3,3.3,0,0,0,3.26-3.56c0-2.18-1.25-3.48-3.18-3.48a4.06,4.06,0,0,0-2.55,1l-1-.68.48-7.55h7.46v1.72H95.94l-.37,4.68a4.32,4.32,0,0,1,2.27-.66c2.55,0,4.62,1.54,4.62,4.93a5,5,0,0,1-5,5.3A6.34,6.34,0,0,1,92.58,299.23Z"/><path class="cls-4" d="M112,287.11h-7.43v-1.72h9.6v1.23c-3.51,4.75-4.27,8.34-4.49,14.46h-2C108,295.16,109.11,291.42,112,287.11Z"/><path class="cls-4" d="M128.92,285.17a34.29,34.29,0,0,1,5.52,6.38l-1.31,1a16.66,16.66,0,0,0-1.28-1.89c-11.94.7-13.15.75-14,1.05a13.81,13.81,0,0,0-.51-1.6,4,4,0,0,0,1.7-1.3,36.11,36.11,0,0,0,4.81-6.21l1.52.73a47.34,47.34,0,0,1-5.35,6.47l10.66-.55a39.4,39.4,0,0,0-3-3.23ZM119,293.55h13.3v9.16h-1.63v-1.15h-10.1v1.19H119Zm1.57,1.56V300h10.1v-4.87Z"/><path class="cls-4" d="M146,297.34l.27,1.41c-3,1.36-6.23,2.79-8.64,3.78l-.71-1.61c1.51-.55,3.66-1.38,5.92-2.31v-8.78h-5.29v-1.6h5.29v-5.15h1.59V298Zm7,3c.94,0,1.06-1.06,1.19-5.26a4.28,4.28,0,0,0,1.48.79c-.16,4.51-.54,6.07-2.55,6.07h-2.8c-1.8,0-2.32-.64-2.32-2.92V283.1h1.57v5.11h5.83v1.6h-5.83V299c0,1.1.15,1.3.94,1.3Z"/><path class="cls-4" d="M168.15,287.48v3h6.77v7.7c0,1-.2,1.43-.87,1.72a12.64,12.64,0,0,1-3.66.28,6.93,6.93,0,0,0-.54-1.63c1.42.05,2.67.05,3,.05s.48-.13.48-.44v-6.07h-5.21v10.67h-1.57V292.06h-4.89v8.16h-1.54v-9.77h6.43v-3h-8.46v-1.61H167a26.86,26.86,0,0,0-1.38-2.88l1.49-.48a19.71,19.71,0,0,1,1.63,3.25l-.27.11h8.3v1.61Z"/><path class="cls-4" d="M185,298.46V301c0,.79-.15,1.18-.73,1.43a10,10,0,0,1-2.95.22,7.64,7.64,0,0,0-.48-1.39c1.13,0,2.09,0,2.36,0s.38-.09.38-.31v-2.24l-4.6.64-.21-1.43,4.81-.58v-1.42a15,15,0,0,0,2.17-1.39h-6v-1.28h7.4l.27-.06.9.68a16.19,16.19,0,0,1-3.34,2.57v.71l3.95-.53,0,1.32Zm4.18-11.79h-9.95v-1.41h4.37a22.19,22.19,0,0,0-.84-2.33l1.38-.36c.38.86.79,1.9,1.07,2.69h4ZM180.36,292v-4.24H188V292Zm1.33-1.18h4.92V289h-4.92Zm14.49-2.14a26,26,0,0,1-2.32,8.36,10.3,10.3,0,0,0,4.2,4.25,6.2,6.2,0,0,0-1,1.36,11,11,0,0,1-4-4.13,13.52,13.52,0,0,1-4.43,4.27,8.41,8.41,0,0,0-1-1.28,11.62,11.62,0,0,0,4.66-4.53,28.47,28.47,0,0,1-1.84-6,15.8,15.8,0,0,1-1.36,2.46,10.76,10.76,0,0,0-1.06-1.3c1.6-2.28,2.69-5.8,3.34-9.46l1.48.31a36.29,36.29,0,0,1-1,4.2h5.92v1.52Zm-4.89.07a28.5,28.5,0,0,0,1.75,6.58,27.7,27.7,0,0,0,1.68-6.65h-3.41Z"/><path class="cls-4" d="M206.77,283.26a32.23,32.23,0,0,1-2.09,4.15v15.36h-1.5v-13a26.62,26.62,0,0,1-2.82,3.34,13,13,0,0,0-.88-1.63,24.62,24.62,0,0,0,5.85-8.71Zm8.83,17.27c1.17,0,1.33-1,1.5-4.73a4.33,4.33,0,0,0,1.44.75c-.25,4.07-.67,5.47-2.86,5.47h-4c-2.07,0-2.72-.63-2.72-3V283h1.51v6h7.42v1.58H210.5v8.52c0,1.16.23,1.43,1.31,1.43Z"/><path class="cls-4" d="M231,286.4v2.33h7.21v12.13c0,1-.23,1.41-.9,1.65a12.08,12.08,0,0,1-3.53.26,8.27,8.27,0,0,0-.57-1.47c1.32.06,2.59.06,2.95,0s.48-.13.48-.48V290.25H223.68v12.5h-1.52v-14h7.12V286.4H221v-1.54h8.25v-2.18H231v2.18h8.32v1.54Zm-.15,12.15v3.78h-1.48v-3.78h-4.5v-1.37h4.5V295h-4.06v-1.34h6a23.74,23.74,0,0,0,1.44-3.08l1.34.39c-.46.93-.94,1.92-1.42,2.69h2.53V295h-4.31v2.22h4.66v1.37Zm-3.26-8a10.65,10.65,0,0,1,1.32,2.57l-1.28.49a11.43,11.43,0,0,0-1.27-2.66Z"/><path class="cls-4" d="M259.13,285.3a17,17,0,0,1-3.05,5.85,13.85,13.85,0,0,0,4.77,3.24,6,6,0,0,0-1,1.34l-.67-.33v7.26h-1.48v-.72H252.5v.79h-1.44v-7.35c-.42.24-.83.44-1.25.64a4.48,4.48,0,0,0-.75-1.1h-2.2v3.93c.9-.21,1.82-.43,2.74-.68l.14,1.48c-2.84.72-5.81,1.47-8,2l-.29-1.58,1.06-.24v-7.51h1.32v7.22l1.61-.4V290.3h-2.93v-6.71h6.75v5.83a16.2,16.2,0,0,0,3.79-6.76l1.48.37c-.21.64-.44,1.28-.67,1.88h4l.27-.07Zm-15.24,3.57h3.93V285h-3.93Zm5.54,5.65a15.09,15.09,0,0,0,4.75-3.43,20.35,20.35,0,0,1-1.93-3,15,15,0,0,1-1.9,2.53,8.34,8.34,0,0,0-1.09-1v.66h-2.4v3.16h2.57Zm8.8.31a16,16,0,0,1-3.09-2.6,17,17,0,0,1-3.14,2.6Zm-.5,5.65v-4.22H252.5v4.22Zm-4.52-14.14-.2.41a17.28,17.28,0,0,0,2.07,3.3,14.56,14.56,0,0,0,2.15-3.71Z"/><path class="cls-4" d="M281.47,291.62v1.78h-19v-1.78Z"/><path class="cls-4" d="M291.5,297.76c-1.73.28-3.47.61-5.08.88v3.8h-1.5v-3.56l-1.51.26-.23-1.54,1.74-.24V284.62l0,0v0a28.93,28.93,0,0,0,5.48-2.07l1.25,1.23a33.49,33.49,0,0,1-5.27,1.83V288h4.69v1.45h-4.69v3h4.67v1.46h-4.67v3.19l5-.77Zm9.37-4.85a13.27,13.27,0,0,1-3.07,6.14,11.89,11.89,0,0,0,4.6,2.27,5.43,5.43,0,0,0-1,1.41,13,13,0,0,1-4.72-2.64,14.63,14.63,0,0,1-5.27,2.77,5,5,0,0,0-.79-1.41,12.55,12.55,0,0,0,5-2.42,14.27,14.27,0,0,1-2.76-4.8l.78-.22h-1.47v-1.4h7.47l.27-.07Zm-5.79-6.75a6.91,6.91,0,0,1-2.74,6,7,7,0,0,0-1.07-1,5.67,5.67,0,0,0,2.37-5v-2.65h5.79V289c0,.57.06.75.35.75h1.4a4.23,4.23,0,0,0,1-.09c.05.38.07.93.13,1.28a3.67,3.67,0,0,1-1.07.09h-1.56c-1.38,0-1.66-.58-1.66-2.07v-4.09h-2.9Zm-.92,7.85a11.53,11.53,0,0,0,2.53,4,10.74,10.74,0,0,0,2.34-4Z"/><path class="cls-4" d="M305.13,299.41h3.41V287.83h-2.72v-1.3a8.5,8.5,0,0,0,3.18-1.14h1.46v14h3.07v1.67h-8.4Z"/><path class="cls-4" d="M315.91,293.18c0-5.26,1.82-8.08,4.79-8.08s4.77,2.84,4.77,8.08-1.8,8.18-4.77,8.18S315.91,298.44,315.91,293.18Zm7.7,0c0-4.6-1.17-6.47-2.91-6.47s-2.93,1.87-2.93,6.47,1.17,6.58,2.93,6.58S323.61,297.78,323.61,293.18Z"/><path class="cls-4" d="M327.43,297.07a5,5,0,0,1,2.82-4.24v-.09a4.41,4.41,0,0,1-2.07-3.63,4.21,4.21,0,0,1,8.41.15,5.24,5.24,0,0,1-2,3.79v.11a4.6,4.6,0,0,1,2.59,4c0,2.36-1.92,4.18-4.81,4.18S327.43,299.56,327.43,297.07Zm7.88.07c0-2.05-1.88-2.77-4.05-3.68a4.2,4.2,0,0,0-2.1,3.44,3,3,0,0,0,3.2,3A2.71,2.71,0,0,0,335.31,297.14Zm-.35-7.77a2.55,2.55,0,0,0-2.6-2.77,2.35,2.35,0,0,0-2.44,2.51c0,1.89,1.65,2.68,3.45,3.43A4.36,4.36,0,0,0,335,289.37Z"/><path class="cls-4" d="M345.68,294.78s0,.44,0,.66c-.3,4.23-.59,5.9-1.13,6.5a1.57,1.57,0,0,1-1.22.57,14.28,14.28,0,0,1-2.05,0,3.88,3.88,0,0,0-.37-1.37c.79.07,1.57.09,1.86.09a.81.81,0,0,0,.67-.22c.33-.35.58-1.67.83-4.89H340a35.77,35.77,0,0,0,.8-3.54H339v-1.45h7.5v1.45h-4.37c-.12.75-.29,1.54-.41,2.22Zm.33-5.39h-6v-5.76h6Zm-1.23-4.53h-3.6v3.3h3.6Zm4,7.72c0,3-.29,7.31-2.11,10.21a5.86,5.86,0,0,0-1.17-.9c1.71-2.71,1.9-6.49,1.9-9.33V287h4.1v-4.34H353v1.54h4.2v1.34H353V287h4l.25-.07.94.26c-.25,1.3-.61,2.82-.88,3.81l-1.17-.31a21.79,21.79,0,0,0,.46-2.35h-7.82Zm3,2.75c-.17,3.5-.67,6-2.93,7.42a3.87,3.87,0,0,0-.89-1.08c2-1.21,2.36-3.32,2.48-6.34Zm3.7-2.37a8,8,0,0,0,1.28-.11c0,.39.08.83.12,1.21a4.68,4.68,0,0,1-1.34.11H353c-1.33,0-1.63-.6-1.63-2v-.69l-2,.22-.15-1.16,2.19-.24v-1.83h1.34v1.67l2.7-.28.15,1.16-2.85.31v.84c0,.59.09.79.53.79Zm.69,7.85a1.25,1.25,0,0,0,.54-.08.65.65,0,0,0,.28-.47,14.94,14.94,0,0,0,.08-2.2,2.92,2.92,0,0,0,1.15.66,15,15,0,0,1-.21,2.51,1.38,1.38,0,0,1-.63.84,2.85,2.85,0,0,1-1.08.22h-1.13a1.94,1.94,0,0,1-1.24-.35c-.33-.29-.39-.6-.39-1.61v-5h1.31v5a.35.35,0,0,0,.17.36.86.86,0,0,0,.44.08Z"/><path class="cls-4" d="M359.93,297.07a5,5,0,0,1,2.82-4.24v-.09a4.41,4.41,0,0,1-2.07-3.63,4.21,4.21,0,0,1,8.41.15,5.24,5.24,0,0,1-2,3.79v.11a4.6,4.6,0,0,1,2.59,4c0,2.36-1.92,4.18-4.81,4.18S359.93,299.56,359.93,297.07Zm7.88.07c0-2.05-1.88-2.77-4.05-3.68a4.2,4.2,0,0,0-2.1,3.44,3,3,0,0,0,3.2,3A2.71,2.71,0,0,0,367.81,297.14Zm-.35-7.77a2.55,2.55,0,0,0-2.6-2.77,2.35,2.35,0,0,0-2.44,2.51c0,1.89,1.65,2.68,3.45,3.43A4.36,4.36,0,0,0,367.46,289.37Z"/><path class="cls-4" d="M376.86,294.65c-.27-.72-.94-2-1.5-3.08v11.18h-1.43V292.06a33.33,33.33,0,0,1-1.94,6.18,12,12,0,0,0-.77-1.61,32.79,32.79,0,0,0,2.48-8.2h-2.19v-1.54h2.42v-4.23h1.43v4.23h2.08v1.54h-2.08v1.14c.54.77,2.08,3.32,2.44,3.92ZM388,297.38a7.08,7.08,0,0,1-1.84,2.66,36.88,36.88,0,0,1,4.12,1.63l-1.15,1a29.57,29.57,0,0,0-4.26-1.76,18.86,18.86,0,0,1-6.63,1.87,4,4,0,0,0-.59-1.21,20.87,20.87,0,0,0,5.5-1.26c-1.38-.42-2.76-.81-4-1.12.48-.53,1-1.17,1.57-1.85h-2.81v-1.3h3.75a17,17,0,0,0,1-1.63h-4v-3.56h4.72v-1.1H379.1v-2.27h-1.22v-1.27h1.22v-2.18h4.28v-1.41h1.47v1.41h4.28v2.18h1.3v1.27h-1.3v2.27h-4.28v1.1h4.8v3.56h-5.37c-.29.53-.65,1.08-1,1.63H387c.08-.31.17-.64.23-.94h1.4c-.06.3-.15.63-.19.94h2.15v1.3Zm-7.94-4h3.32V292h-3.32Zm.4-8.18v1.21h2.92v-1.21Zm2.92,3.52v-1.32h-2.92v1.32Zm-1,8.69c-.36.44-.67.86-1,1.23,1.07.27,2.2.57,3.33.93a5.82,5.82,0,0,0,1.84-2.16Zm2.51-12.21v1.21h2.88v-1.21Zm2.88,3.52v-1.32h-2.88v1.32ZM384.85,292v1.34h3.34V292Z"/><path class="cls-4" d="M174.75,324.56a11.51,11.51,0,0,0,4.7,3.39,6.4,6.4,0,0,0-1,1.26,12.91,12.91,0,0,1-5.31-4.65h-6.55a14.42,14.42,0,0,1-5.45,4.93,5.71,5.71,0,0,0-1-1.25,12.15,12.15,0,0,0,4.73-3.68h-4.52v-1.38h4.14v-7h-3.17V314.8h3.17v-2.12H166v2.12h7.59v-2.12h1.57v2.12h3.13v1.36h-3.13v7h4v1.38Zm-4.27,6.21h7.22v1.39H161.93v-1.39h7v-2.31h-4.27v-1.34h4.27v-1.85h1.54v1.85h4.37v1.34h-4.37ZM166,316.16v1.47h7.59v-1.47Zm0,4.22h7.59v-1.51H166Zm0,2.8h7.59v-1.56H166Z"/><path class="cls-4" d="M191.4,320.74v3h7.3v1.49h-7.3v5.37h8.24v1.52h-18v-1.52h8.11v-5.37h-7.17v-1.49h7.17v-3h-4.51v-1.21a23.38,23.38,0,0,1-3.32,1.58,6.53,6.53,0,0,0-1.05-1.47c3.89-1.35,7.73-3.92,9.72-7.18l1.42.71c-.14.24-.33.52-.52.79a22.7,22.7,0,0,0,8.93,5.68,6.3,6.3,0,0,0-1.09,1.4,21.06,21.06,0,0,1-3.37-1.67v1.37Zm-5.72,5a19.36,19.36,0,0,1,2,3.94l-1.36.59a18.32,18.32,0,0,0-1.92-4Zm10.07-6.49a24.6,24.6,0,0,1-5.08-4.14,21.73,21.73,0,0,1-4.89,4.14Zm-2.44,10.54a25.77,25.77,0,0,0,2.17-4.05l1.49.59a46,46,0,0,1-2.49,4Z"/><path class="cls-4" d="M221,326.52h-2.15v3.9h-1.55v-1h-5V331c0,1-.29,1.38-.92,1.62a11.53,11.53,0,0,1-3.47.27,5.49,5.49,0,0,0-.54-1.39c1.25.05,2.51,0,2.86,0s.53-.15.53-.52v-1.52H204v-1.26h6.76v-1.65h-8.55v-1.3h8.55v-1.54h-6.57v-1.21h6.57v-1.54h-6v-3.87h6v-1.27h-8.16v-1.35h8.16v-1.76h1.54v1.76h8.32v1.35h-8.32v1.27h6.23v3.87h-6.23v1.54h6.57v2.75H221Zm-10.26-6.73v-1.58h-4.5v1.58Zm1.54-1.58v1.58h4.68v-1.58Zm0,7h5v-1.54h-5Zm5,1.3h-5v1.65h5Z"/><path class="cls-4" d="M229,325.33a22.8,22.8,0,0,0,1.13-3.54h-2v9.07c0,.83-.17,1.27-.69,1.56a7.87,7.87,0,0,1-2.62.24,6,6,0,0,0-.48-1.49c.9,0,1.72,0,2,0s.33-.09.33-.33v-7.07a17.76,17.76,0,0,1-3,5.42,9.26,9.26,0,0,0-.81-1.52,16.78,16.78,0,0,0,3.36-5.9H223v-1.43h5.61a21.24,21.24,0,0,0-4.64-2.95l1-1.05c.65.28,1.36.64,2,1a15.56,15.56,0,0,0,2.19-2.18h-5.92v-1.43h7l.27-.07,1,.66a16.09,16.09,0,0,1-3.4,3.75,11.86,11.86,0,0,1,1.75,1.32l-.79.94h1.54l.23-.09.95.36c-.11.37-.21.77-.32,1.16a13.64,13.64,0,0,0,3.74-1.69,12.71,12.71,0,0,1-2.15-2.69,15.17,15.17,0,0,1-1.51,1.57,8.94,8.94,0,0,0-1.27-1,13.42,13.42,0,0,0,4-5.37l1.49.42a18.75,18.75,0,0,1-1,1.89h6.95v1.39h-1.61a10.4,10.4,0,0,1-2.51,3.74,13.32,13.32,0,0,0,4.53,1.91,7.39,7.39,0,0,0-1,1.41,14.67,14.67,0,0,1-4.74-2.33,16,16,0,0,1-4.56,2.24,7,7,0,0,0-.57-.86,19.46,19.46,0,0,1-1.23,3.44Zm12.28-.39s0,.44,0,.7c-.37,4.1-.77,5.77-1.38,6.41a1.86,1.86,0,0,1-1.29.57,23.08,23.08,0,0,1-2.32,0,4.43,4.43,0,0,0-.42-1.52c.9.09,1.73.11,2.07.11a.85.85,0,0,0,.71-.22c.4-.42.71-1.65,1-4.67h-3.51a8.76,8.76,0,0,1-5.54,6.45,5.11,5.11,0,0,0-.92-1.25,7.38,7.38,0,0,0,4.85-5.2h-3.26v-1.36h3.6c.12-.71.21-1.43.27-2.18h1.57c-.07.75-.17,1.47-.3,2.18Zm-7.24-8.58a9.91,9.91,0,0,0,2.36,2.84,8.29,8.29,0,0,0,2-2.84Z"/><path class="cls-4" d="M253.52,317.24c-.48,1.27-1.05,2.77-1.57,3.91h3v1.5H244.05v-1.5h6.4a31.52,31.52,0,0,0,1.52-4.26Zm.92-.49h-9.79v-1.49H249c-.23-.73-.56-1.59-.85-2.27l1.35-.42a21.1,21.1,0,0,1,1.11,2.69h3.85Zm-9.2,7.9h8.7v7.79h-1.53v-.88H246.7v1.06h-1.46Zm2-3.58a18,18,0,0,0-1.3-3.77l1.32-.35a14.55,14.55,0,0,1,1.38,3.72Zm-.53,5.06v4h5.71v-4Zm15.95-11.62c-.75,2-1.71,4.51-2.59,6.53a7.6,7.6,0,0,1,2.32,5.31,3.37,3.37,0,0,1-.94,2.79,2.45,2.45,0,0,1-1.29.46,11.58,11.58,0,0,1-1.78,0,4,4,0,0,0-.42-1.56,11.41,11.41,0,0,0,1.61,0,2,2,0,0,0,.84-.22,2,2,0,0,0,.54-1.72c0-1.38-.52-3-2.38-5,.77-1.85,1.59-4.18,2.15-5.88h-3.32v17.39H256V313.85h5.35l.25-.09Z"/><path class="cls-4" d="M270.59,313h1.53v19.78h-1.53V326.7c-3.8,1.47-4.41,1.78-4.8,2.13a7.58,7.58,0,0,0-.63-1.49,1.68,1.68,0,0,0,.71-1.48V315.1h1.53v11.16l3.19-1.12Zm11.56,5.46a26,26,0,0,1-2.78,8.67,12.56,12.56,0,0,0,4.52,4.2,5.87,5.87,0,0,0-1.09,1.34,13.62,13.62,0,0,1-4.3-4.16,14.54,14.54,0,0,1-4.79,4.27,6.37,6.37,0,0,0-1-1.34,12.79,12.79,0,0,0,4.92-4.36,27.9,27.9,0,0,1-2.49-6.27,15.51,15.51,0,0,1-1.65,2.82,10.67,10.67,0,0,0-1.11-1.36c1.78-2.23,2.89-5.81,3.47-9.62l1.59.29c-.23,1.36-.54,2.7-.88,4h7.15v1.54Zm-6.21.33a28.9,28.9,0,0,0,2.53,6.82,24.1,24.1,0,0,0,2.12-7.15h-4.52Z"/><line class="cls-5" x1="57.31" y1="236.78" x2="57.81" y2="236.78"/><line class="cls-6" x1="59.8" y1="236.78" x2="375.81" y2="236.78"/><line class="cls-5" x1="376.81" y1="236.78" x2="377.31" y2="236.78"/><path class="cls-4" d="M46.4,139.56a20,20,0,0,1-1.91,3.21H56.3v8.86H54.54V150.5H44.28v1.18H42.62v-6.63a19.59,19.59,0,0,1-3.92,3.17,10.19,10.19,0,0,0-1.26-1.42,17.85,17.85,0,0,0,7.09-7.24H38v-1.68h7.38a21.47,21.47,0,0,0,1-2.76l1.68.4a23.41,23.41,0,0,1-.84,2.36H58.12v1.68Zm-4.24-6h-4V131.9h4v-2.16h1.67v2.16h3.71v1.63H43.83v2.4H42.16Zm12.38,10.85H44.28v4.51H54.54Zm-2.41-10.85H48.48V131.9h3.65v-2.16h1.66v2.16H58.1v1.63H53.79V136H52.13Z"/><path class="cls-4" d="M67.24,130.22a24.29,24.29,0,0,1-2,3.43v9.72H63.6v-7.58A21.37,21.37,0,0,1,61.41,138a13.38,13.38,0,0,0-1.12-1.39,21,21,0,0,0,5.45-7Zm-6.65,19.7a24.21,24.21,0,0,0,2.3-5.18l1.53.67a40.78,40.78,0,0,1-2.24,5.28Zm13.56-.36c1.25,0,1.46-.36,1.57-2.78a4.18,4.18,0,0,0,1.58.67c-.23,3-.78,3.77-3,3.77H68.84c-2.69,0-3.4-.5-3.4-2.45v-4.15h1.69v4.13c0,.69.27.81,1.78.81Zm-4-16a15.18,15.18,0,0,1-2.37,3.22,10.75,10.75,0,0,0-1.27-1.13,14.25,14.25,0,0,0,3.62-5.85l1.58.4c-.23.61-.48,1.2-.76,1.8h8.53l.27-.07,1.17.34a43.35,43.35,0,0,1-1.85,4l-1.44-.31c.32-.63.73-1.49,1.1-2.36Zm1.51,3.25a16.25,16.25,0,0,1-3.12,5,9.64,9.64,0,0,0-1.28-1,12.25,12.25,0,0,0,2.85-4.46Zm.46,11a21.08,21.08,0,0,0-3.22-4.23l1.3-.76a20.76,20.76,0,0,1,3.33,4.1Zm3-4.51H73.44v-8.84h1.62Zm2.65-7A21.9,21.9,0,0,1,80.58,141l-1.46.82A22.41,22.41,0,0,0,76.34,137Zm.66,8a23,23,0,0,1,2.53,5.38l-1.62.69a22,22,0,0,0-2.39-5.47Z"/><path class="cls-4" d="M103.45,142.44s0,.52-.07.76c-.41,5-.84,7-1.55,7.8a2.07,2.07,0,0,1-1.55.65,22.83,22.83,0,0,1-2.85,0,4.46,4.46,0,0,0-.5-1.63,22.16,22.16,0,0,0,2.66.14,1.21,1.21,0,0,0,.87-.24c.46-.5.84-2.09,1.21-5.9H87.6a20.83,20.83,0,0,1-3.67,2.88,10,10,0,0,0-.93-1.49,23.39,23.39,0,0,0,8.66-9.94h-7.5v-1.63h8.25a39.48,39.48,0,0,0,1.42-4.08l1.68.45a35.62,35.62,0,0,1-1.3,3.63h5.93c-.25,1.42-.57,3.07-.86,4.32h2.59c-.27,1.39-.59,3.05-.86,4.3Zm-18.88,8.11a11.44,11.44,0,0,0,2.58-5.21l1.41.48a13.2,13.2,0,0,1-2.67,5.69Zm4.63-16.78A15.9,15.9,0,0,0,87,130.46l1.45-.65A16.38,16.38,0,0,1,90.75,133Zm10.23,8.67c.19-.8.39-1.78.57-2.74H91.16a27.7,27.7,0,0,1-2.07,2.74Zm-8,3.24a19.34,19.34,0,0,1,.69,4.77l-1.48.22a18.08,18.08,0,0,0-.62-4.8Zm2.08-10.23a29.72,29.72,0,0,1-1.39,2.69H97.7c.21-.77.41-1.73.6-2.69Zm1.18,9.89a18.47,18.47,0,0,1,1.35,4.1l-1.42.41a18.39,18.39,0,0,0-1.25-4.2Zm3.72,3.19a14.12,14.12,0,0,0-1.67-3.24l1.19-.48A13.56,13.56,0,0,1,99.66,148Z"/><path class="cls-4" d="M126,131.68v4.54h-1.66v-3H108.58v3H107v-4.54h8.66c-.27-.57-.57-1.2-.86-1.73l1.75-.43c.41.67.87,1.54,1.17,2.16Zm-17.48,11.4h16.11v8.52h-1.66v-.72H110.06v.82h-1.59ZM122.94,136h-13v-1.29h13Zm-13,5.69v-4.37H122.8v4.37Zm.07,2.76v1.87h5.45v-1.87Zm0,5h5.45v-1.92h-5.45Zm1.48-9.07h9.62v-1.83h-9.62Zm11.38,4h-5.77v1.87h5.77Zm0,5v-1.92h-5.77v1.92Z"/><path class="cls-4" d="M140.06,133.27a31.48,31.48,0,0,1-4.42,1.2v3.38h3.7v1.61h-3.7a31.07,31.07,0,0,1-.23,3.36H140v1.68h-4.86a12.09,12.09,0,0,1-4.51,7.3,6.06,6.06,0,0,0-1.37-1.25,10.61,10.61,0,0,0,4.11-6.05h-4.47v-1.68h4.81a26.43,26.43,0,0,0,.25-3.36h-4.22v-1.61H134v-3.07c-1.48.26-3,.46-4.33.6a5.26,5.26,0,0,0-.5-1.46c1.55-.2,3.21-.46,4.83-.77v-3.36h1.66v3a23.8,23.8,0,0,0,3.49-1.06Zm9.4-1.37c-1.07,2.28-2.4,5-3.56,7.13,2.58,2.18,3.26,4.1,3.26,5.81,0,1.44-.34,2.54-1.21,3.09a3.58,3.58,0,0,1-1.59.55,12.2,12.2,0,0,1-2.19,0,4,4,0,0,0-.48-1.73,11.71,11.71,0,0,0,2,.05,2.8,2.8,0,0,0,1.11-.29c.55-.31.73-1,.73-1.87,0-1.51-.8-3.31-3.42-5.4a67.93,67.93,0,0,0,3-6.48h-4.58V151.7h-1.66V131.13H148l.27-.07Z"/><path class="cls-4" d="M156.5,142.65v6.75c0,1-.25,1.48-.84,1.75a7.8,7.8,0,0,1-3.08.33,8.69,8.69,0,0,0-.52-1.65c1.09,0,2.07,0,2.35,0s.43-.12.43-.45v-6.2l-2.87.89-.5-1.73c.93-.24,2.09-.57,3.37-1v-5.16h-3.1v-1.68h3.1v-4.8h1.66v4.8h2.83v1.68H156.5v4.68l2.12-.64.23,1.63Zm14.3-1.92a15.09,15.09,0,0,1-4.45,6.87,18.31,18.31,0,0,0,6,2.47,6.66,6.66,0,0,0-1.07,1.63,17.43,17.43,0,0,1-6.38-3,20.53,20.53,0,0,1-6.68,3,5.85,5.85,0,0,0-.84-1.63,19.24,19.24,0,0,0,6.15-2.54,16.78,16.78,0,0,1-3.71-5.5l.22-.09h-.89v-1.68h10.19l.32-.08Zm-7.8-7.44a7,7,0,0,1-3.42,6.41,7.7,7.7,0,0,0-1.11-1.32,5.4,5.4,0,0,0,2.94-5.14V130.6h7.18v5.55c0,.67.06.91.43.91h1.76a5.76,5.76,0,0,0,1.13-.12c0,.46.07,1.13.14,1.54a4.82,4.82,0,0,1-1.23.11h-1.91c-1.6,0-1.94-.69-1.94-2.47v-3.84h-4ZM161.5,142a13.78,13.78,0,0,0,3.46,4.58,13,13,0,0,0,3.56-4.58Z"/><path class="cls-4" d="M180.83,130.31a37.4,37.4,0,0,1-1.91,4.73v16.71h-1.58V137.92a25.87,25.87,0,0,1-2.16,3.1,11.34,11.34,0,0,0-.94-1.66,27.94,27.94,0,0,0,5.09-9.53ZM195,133.7v1.51H180.54V133.7ZM181.86,144h11.53v7.63h-1.5v-.86h-8.55v.94h-1.48Zm11.3-5.38h-11v-1.46h11Zm-11,1.9h11V142h-11Zm1.16,5v3.79h8.55v-3.79Zm4-11.91a24.51,24.51,0,0,0-1.57-3.19l1.43-.62a18.24,18.24,0,0,1,1.67,3.12Z"/><path class="cls-4" d="M213.84,136.43a16,16,0,0,1-4.53,4.59,28.67,28.67,0,0,0,8.82,2.54,8,8,0,0,0-1.07,1.68,22.6,22.6,0,0,1-3.17-.67v7.06h-1.71v-.77h-9v.79h-1.65v-7c-1.2.39-2.41.67-3.6.94a6.46,6.46,0,0,0-.82-1.56,32.85,32.85,0,0,0,9-3,17.22,17.22,0,0,1-3-2.76,20.57,20.57,0,0,1-3.55,2.33,5.35,5.35,0,0,0-1.14-1.28,15.38,15.38,0,0,0,6.47-5.37l1.83.33c-.32.48-.69.94-1.05,1.42h6.77l.29-.07Zm-14.13,0h-1.66V131.9h9.07c-.32-.63-.68-1.35-1-1.92l1.64-.43a22.55,22.55,0,0,1,1.33,2.35h8.11v4.49h-1.71v-2.84H199.71ZM213,144.33a26.77,26.77,0,0,1-5.38-2.28,30.25,30.25,0,0,1-5.08,2.28Zm-.84,5v-3.48h-9v3.48Zm-7.91-12.07a14.62,14.62,0,0,0,3.4,2.91,16.59,16.59,0,0,0,3.58-3h-6.89Z"/><path class="cls-4" d="M238.06,136v9.38h-1.69v-1.27H224.52a13.85,13.85,0,0,1-3.29,7.65,6.46,6.46,0,0,0-1.3-1.2c2.9-3.09,3.2-7.56,3.2-11v-7.28A71.78,71.78,0,0,0,236,129.81l1.39,1.34a78.8,78.8,0,0,1-12.56,2.45V136Zm-1.69,6.43v-4.78H224.81v1.95c0,.88,0,1.82-.11,2.83Z"/><path class="cls-4" d="M250.85,144c1.76-.76,2.76-1.89,2.87-3.52a2.42,2.42,0,0,1-.38,0,1.6,1.6,0,0,1-1.71-1.7,1.64,1.64,0,0,1,1.73-1.73c1.25,0,1.94,1.08,1.94,2.76a5.69,5.69,0,0,1-4,5.45Z"/><path class="cls-4" d="M286.14,133.22h-2.8v15.89c0,1.27-.3,1.92-1.16,2.18a16.61,16.61,0,0,1-4.72.34,9.88,9.88,0,0,0-.73-1.9c1.82.1,3.69.07,4.21.05s.67-.19.67-.7V133.22H266v-1.78h20.17Zm-16.21,12.41v1.92h-1.64V136.72h9.26v8.91Zm0-7.18v5.47h5.95v-5.47Z"/><path class="cls-4" d="M294.12,141.48a24.17,24.17,0,0,1-1.3,5.18c1.46,2.69,4.34,3.07,8.67,3.07,2.39,0,5.67-.09,8-.31a5.08,5.08,0,0,0-.55,1.66c-2.12.14-5,.19-7.45.19-4.63,0-7.5-.48-9.28-3.17a10.6,10.6,0,0,1-2.88,3.6,5,5,0,0,0-1.11-1.22c2.05-1.49,3.53-4.13,4.24-7.83h-2.21a2.18,2.18,0,0,0-1.33.34,12.23,12.23,0,0,0-.63-1.63,2,2,0,0,0,1.07-.68,48,48,0,0,0,2.8-3.93h-3.58v-1.47h4.61l.27-.12,1.12.53c-.91,1.42-2.6,3.89-3.85,5.5h2.37l.29-.05Zm-2.07-7.09a29.51,29.51,0,0,0-2.67-3.86l1.3-.77a34.55,34.55,0,0,1,2.71,3.7Zm9,1.93a17,17,0,0,1-5.77,4.2,5.69,5.69,0,0,0-1-1.28,15.41,15.41,0,0,0,5.69-3.67h-5.17v-1.42H301v-1.84c-1.78.16-3.63.28-5.29.33a5.05,5.05,0,0,0-.39-1.27,76.56,76.56,0,0,0,11.45-1.22l1.07,1.2a42.73,42.73,0,0,1-5.2.81v2h6.15v1.42h-6.15v4H301Zm7.16,6s0,.46-.05.68c-.27,2.8-.52,4-1.05,4.48a1.71,1.71,0,0,1-1.36.53,21.11,21.11,0,0,1-2.74,0,4,4,0,0,0-.43-1.39c1.09.09,2.16.12,2.53.12s.59,0,.75-.2.5-1.08.68-2.85h-3.67c.21-.63.39-1.37.57-2.16h-2.78c-.43,3.14-1.53,5.45-4.76,6.72a4.38,4.38,0,0,0-1-1.32c2.83-1,3.76-2.88,4.15-5.4h-2.37v-1.39h8.45c-.11.72-.29,1.48-.45,2.2Zm0-2A38.22,38.22,0,0,0,303,136.6l.89-1a39,39,0,0,1,5.42,3.7Z"/><path class="cls-4" d="M316.92,141.48a24.17,24.17,0,0,1-1.3,5.18c1.46,2.69,4.36,3.07,8.67,3.07,2.39,0,5.7-.09,8-.31a5.08,5.08,0,0,0-.55,1.66c-2.14.14-5,.19-7.48.19-4.62,0-7.5-.48-9.27-3.19a10.49,10.49,0,0,1-2.88,3.62,5,5,0,0,0-1.11-1.22c2.05-1.49,3.53-4.13,4.24-7.83H313a2.18,2.18,0,0,0-1.33.34,12.23,12.23,0,0,0-.63-1.63,2,2,0,0,0,1.07-.68,48,48,0,0,0,2.8-3.93h-3.58v-1.47H316l.27-.12,1.12.53c-.94,1.42-2.6,3.89-3.86,5.5h2.38l.29-.05Zm-2.07-7.09a35.47,35.47,0,0,0-2.67-3.88l1.3-.75a34.55,34.55,0,0,1,2.71,3.7Zm4.76,13.93h-1.5V138h1.73V130.6h9.33V138H331v8.59c0,.84-.14,1.25-.73,1.51a7.12,7.12,0,0,1-2.76.27,6,6,0,0,0-.46-1.44c.94,0,1.8,0,2,0s.37-.12.37-.36v-7.18h-9.81ZM321.35,138h2.21v-4h4.06V132h-6.27Zm6.11,8h-4.61v1h-1.3v-6h5.91Zm-1.33-3.79h-3.28v2.55h3.28Zm1.49-4.22v-2.76h-2.74V138Z"/><path class="cls-4" d="M340.48,144.31c-.05-.41-.14-.89-.23-1.37-4.54.7-5.24.86-5.66,1.1-.09-.38-.36-1.22-.54-1.7.48-.12,1-.7,1.66-1.58a28.9,28.9,0,0,0,1.87-2.67,14.49,14.49,0,0,0-3.12.55c-.09-.33-.37-1.17-.55-1.6.39-.1.78-.61,1.21-1.32a30.76,30.76,0,0,0,2.92-6l1.57.67a39.34,39.34,0,0,1-3.44,6.36l2.37-.24a36.07,36.07,0,0,0,1.69-3.2l1.5.92a48.47,48.47,0,0,1-5.08,7.75l3.28-.46c-.21-.81-.43-1.65-.68-2.37l1.29-.36a36.11,36.11,0,0,1,1.33,5.09Zm-4.11,1a33.3,33.3,0,0,1-1.16,5.9,9,9,0,0,0-1.3-.53,25.7,25.7,0,0,0,1.1-5.61Zm2.12-.29c.25,1.63.5,3.72.57,5.11l-1.34.24a44.9,44.9,0,0,0-.5-5.11Zm2-.58a26.61,26.61,0,0,1,1.14,3.84l-1.25.43a31.39,31.39,0,0,0-1.07-3.91Zm6.86-1.46a11.55,11.55,0,0,1-5.1,7.56,6.22,6.22,0,0,0-1-1.27,9.38,9.38,0,0,0,4.17-5.12h-2.94v-1.48h3.6l.27-.08Zm7-.39c-1,1-2.18,2.09-3.19,2.88a10.06,10.06,0,0,0,3.72,3.75,6.89,6.89,0,0,0-1.12,1.41,12.77,12.77,0,0,1-4.31-5.44v4.51c0,.91-.18,1.39-.79,1.68a7.84,7.84,0,0,1-3,.31,7.72,7.72,0,0,0-.5-1.66c1.07.05,2,.05,2.3,0s.38-.1.38-.39v-9h-4.53v-8.4h3.49a17.69,17.69,0,0,0,.77-2.54l1.89.41c-.32.72-.66,1.49-.95,2.13h5.12v8.4H349.5v.87a15.2,15.2,0,0,0,1.08,2.76,30.08,30.08,0,0,0,2.55-2.79Zm-9.46-6.81H352V133.7h-7.09Zm0,3.48H352v-2.14h-7.09Z"/><path class="cls-4" d="M377.39,148.75v1.77H357.08v-1.77h8.5V130.12h1.78v7.35h8.48v1.77h-8.48v9.51Z"/><path class="cls-4" d="M395.17,140.08a17.09,17.09,0,0,1-3.81,6.08,19.24,19.24,0,0,0,9,3.74,6.58,6.58,0,0,0-1.05,1.61,20.05,20.05,0,0,1-9.23-4.2,23.78,23.78,0,0,1-9.3,4.41,7.91,7.91,0,0,0-1-1.6,21.6,21.6,0,0,0,9.1-4,17.47,17.47,0,0,1-3.7-5.93l1.51-.48a14.85,14.85,0,0,0,3.42,5.31,14.14,14.14,0,0,0,3.35-5.45Zm4.61-5.28H380.22v-1.75h9.46a22.35,22.35,0,0,0-1.51-3l1.58-.58a20.1,20.1,0,0,1,1.68,3.1l-1,.43h9.37Zm-12.25,1.42a26.73,26.73,0,0,1-5.92,5.54,14.93,14.93,0,0,0-1.3-1.34,21,21,0,0,0,5.61-4.87Zm6.48-.72a34.77,34.77,0,0,1,5.86,5.18l-1.39,1.16a31.16,31.16,0,0,0-5.77-5.31Z"/><path class="cls-4" d="M57,177s0,.55-.07.81c-.43,5.36-.89,7.42-1.57,8.16a2,2,0,0,1-1.53.68,24.76,24.76,0,0,1-2.81,0,3.79,3.79,0,0,0-.45-1.56,23.73,23.73,0,0,0,2.55.12c.39,0,.62,0,.82-.26.5-.48.89-2.19,1.26-6.31H52.44a19.93,19.93,0,0,1-5.28,8.16,9.6,9.6,0,0,0-1.37-1.11,16.53,16.53,0,0,0,4.92-7.05H47.63a22,22,0,0,1-6.83,7.53,15.75,15.75,0,0,0-1.3-1.27,18.32,18.32,0,0,0,6.27-6.26H42.6a21.51,21.51,0,0,1-3.7,3.12,8.33,8.33,0,0,0-1.32-1.25,18.46,18.46,0,0,0,5.84-5.5H40.91v-9.17H55.48V175H45.38A19.38,19.38,0,0,1,44,177Zm-14.46-7.32h11.2v-2.38H42.57Zm0,3.79h11.2v-2.38H42.57Z"/><path class="cls-4" d="M71.07,182.76c-3.49.8-7.2,1.64-9.85,2.26l-.31-1.8c2.46-.5,6.33-1.32,10-2.14Zm8.73-10.29a29.14,29.14,0,0,1-4,8.4c.84,2.47,1.87,4,3,4,.64,0,.91-1.25,1-4.44a4.08,4.08,0,0,0,1.48,1c-.29,4.1-.93,5.28-2.69,5.28s-3.07-1.56-4.1-4.16a21,21,0,0,1-4.81,4.13,11.29,11.29,0,0,0-1.32-1.37,18.3,18.3,0,0,0,5.47-4.7,54.15,54.15,0,0,1-1.6-10.25H61v-1.75h11.1c-.07-1.25-.09-2.5-.11-3.77h1.78c0,1.3,0,2.54.06,3.77h6.84v1.75H74a52.44,52.44,0,0,0,1.18,8.38A26.65,26.65,0,0,0,78.09,172Zm-9.59,0v7.25H62.34v-7.25ZM68.54,174H63.91v4.16h4.63ZM79,168.55a17.16,17.16,0,0,0-3.86-2.61l1-1.11a17.06,17.06,0,0,1,3.92,2.48Z"/><path class="cls-4" d="M90.07,180.48c-2.22,1-4.54,2.07-6.36,2.84l-.64-1.78c.77-.24,1.68-.6,2.71-1v-8.35H83.25v-1.71h2.53V165h1.64v5.44H90v1.71H87.42v7.68l2.37-1Zm5.81,2.76a27.27,27.27,0,0,1-5.31,3.44,8.93,8.93,0,0,0-1-1.25,19.67,19.67,0,0,0,4.9-3.19Zm8.16-2.61v1.56H89.88v-1.56h2V170h3.35c.12-.5.23-1,.32-1.61H90.75V167h5.08c.14-.77.23-1.54.3-2.18l1.8.12c-.14.64-.27,1.36-.43,2.06h5.92v1.46H97.18c-.14.58-.28,1.11-.41,1.61H102v10.59Zm-10.62-9.34v1.54h7v-1.54Zm7,2.62h-7v1.41h7Zm-7,4h7v-1.49h-7Zm0,2.71h7V179h-7Zm5.76,1.58a29.85,29.85,0,0,1,4.52,3.22l-1.12,1.25a32.59,32.59,0,0,0-4.44-3.39Z"/><path class="cls-4" d="M125.4,178.9s0,.5,0,.74c-.25,4.08-.5,5.74-1.07,6.34a1.68,1.68,0,0,1-1.42.62,17.28,17.28,0,0,1-2.78,0,3.68,3.68,0,0,0-.48-1.56,22.44,22.44,0,0,0,2.53.1c.39,0,.6,0,.78-.2.32-.38.55-1.58.75-4.56H111.41a19.49,19.49,0,0,1-4.31,2.79,11.93,11.93,0,0,0-1-1.42,15,15,0,0,0,6.11-4.37h-2.69v-6.77a33,33,0,0,0,5.32-1.55l1,1.12a30.34,30.34,0,0,1-4.83,1.37v1.61h4.42v1.27H111V176h10.72v-1.63h-4.34v-1.27h4.34v-1.59H117v-1.31h6.27v7.12h-9.24a10.68,10.68,0,0,1-1.18,1.54Zm.66-12.19v4.2h-1.61v-2.64H108.37v2.64H106.8v-4.2h8.71c-.23-.56-.5-1.08-.75-1.56l1.68-.51a18.12,18.12,0,0,1,1,2.07ZM109,185.36a13.56,13.56,0,0,0,2.12-4.25l1.34.57a15.33,15.33,0,0,1-2.09,4.37Zm5.77-4.06a15.13,15.13,0,0,1,.82,4.15l-1.39.22a15.1,15.1,0,0,0-.75-4.2Zm2.76-.19a13.23,13.23,0,0,1,1.55,3.62l-1.3.43a13.86,13.86,0,0,0-1.49-3.69Zm3.55,3a11,11,0,0,0-1.91-2.71l1.11-.55a10,10,0,0,1,2,2.61Z"/><path class="cls-4" d="M144.67,177.72a12.55,12.55,0,0,0,5.13,3.7,6.86,6.86,0,0,0-1.12,1.37,14.11,14.11,0,0,1-5.79-5.07h-7.13a15.83,15.83,0,0,1-5.95,5.38,6.25,6.25,0,0,0-1.1-1.37,13.25,13.25,0,0,0,5.15-4h-4.92v-1.51h4.51v-7.66H130v-1.48h3.46v-2.31h1.67v2.31h8.27v-2.31h1.71v2.31h3.42v1.48H145.1v7.66h4.4v1.51ZM140,184.49h7.86V186H130.7v-1.51h7.63V182h-4.65v-1.46h4.65v-2H140v2h4.76V182H140Zm-4.9-15.94v1.61h8.27v-1.61Zm0,4.61h8.27v-1.65h-8.27Zm0,3.05h8.27v-1.7h-8.27Z"/><path class="cls-4" d="M162.84,173.55v3.26h8v1.63h-8v5.86h9V186H152.24V184.3h8.85v-5.86h-7.82v-1.63h7.82v-3.26h-4.93v-1.32a24.47,24.47,0,0,1-3.62,1.73,7.41,7.41,0,0,0-1.14-1.61c4.24-1.47,8.43-4.28,10.6-7.83l1.55.77c-.16.26-.37.58-.57.86a24.64,24.64,0,0,0,9.73,6.2,6.88,6.88,0,0,0-1.18,1.53,23.14,23.14,0,0,1-3.67-1.82v1.49ZM156.6,179a21.6,21.6,0,0,1,2.16,4.3l-1.48.65a19.87,19.87,0,0,0-2.1-4.35Zm11-7.08a27,27,0,0,1-5.54-4.51,23.48,23.48,0,0,1-5.33,4.51Zm-2.66,11.5a28.78,28.78,0,0,0,2.37-4.42l1.62.65a48,48,0,0,1-2.72,4.34Z"/><path class="cls-4" d="M193.71,167.91v13.44H192V180.1h-6.38v6.53h-1.73V180.1h-6.18v1.37H176V167.91h7.85v-3.17h1.73v3.17Zm-16,1.7v3.48h6.18v-3.48Zm6.18,8.76v-3.62h-6.18v3.62Zm1.73-8.76v3.48H192v-3.48Zm6.38,8.76v-3.62h-6.38v3.62Z"/><path class="cls-4" d="M200.83,181.52a15,15,0,0,1-2.53,5.16,11.86,11.86,0,0,0-1.28-1,10.73,10.73,0,0,0,2.28-4.56Zm3.76-.87h-6.41v-15h6.41Zm-1.53-13.51h-3.4v3.05h3.4Zm0,4.44h-3.4v3.07h3.4Zm0,4.49h-3.4v3.12h3.4Zm.37,5.06a20.94,20.94,0,0,1,1.89,3.7l-1.35.67a20.12,20.12,0,0,0-1.82-3.77ZM218,182.72h-1.37v2.08c0,.87-.18,1.32-.75,1.59a11.27,11.27,0,0,1-3.31.24,5.8,5.8,0,0,0-.48-1.44c1.19,0,2.28,0,2.6,0s.39-.09.39-.41v-2.08h-7.2v4h-1.53v-4h-1.48v-1.37h1.48v-6.1h4.31v-1.39H205v-1.35h3.28v-1.58h-2.16v-1.32h2.16v-1.44h-2.76v-1.34h2.76v-2.07h1.51v2.07h3.37v-2.07h1.53v2.07h2.78v1.34h-2.78v1.44h2.41v1.32h-2.41v1.58H218v1.35H212.2v1.39h4.47v6.1H218Zm-10.12-6.12v1.7h2.78v-1.7Zm0,4.75h2.78v-1.8h-2.78Zm1.87-11.74h3.37v-1.44h-3.37Zm0,2.9h3.37v-1.58h-3.37Zm2.41,4.09v1.7h2.92v-1.7Zm2.92,4.75v-1.8H212.2v1.8Z"/><path class="cls-4" d="M240.5,176.86v1.32H220.34v-1.32h9.17v-1.42h-7.62v-1.22h7.62V172.9h-7v-1.2h7v-1.42h-9.12v-1.34h9.12v-1.35h-6.73v-1.2h6.73v-1.67h1.66v1.67h6.52v2.55h2.78v1.34h-2.78v2.62h-6.52v1.32H239v1.22h-7.78v1.42Zm-17.24,2.45h14.55v7.37h-1.69v-.75H224.9v.79h-1.64Zm1.64,1.22V182h11.22v-1.47Zm11.22,4.15v-1.53H224.9v1.53Zm-5-15.74H236v-1.35h-4.86Zm0,2.76H236v-1.42h-4.86Z"/><path class="cls-4" d="M248.87,176.48a20.69,20.69,0,0,1-1.51,5.4c1.53,2.49,4.36,2.85,8.51,2.85,2.37,0,5.67-.12,8-.31a5.68,5.68,0,0,0-.57,1.7c-2.12.12-4.95.2-7.43.2-4.56,0-7.39-.51-9.17-3.1a11,11,0,0,1-3,3.5,6.23,6.23,0,0,0-1.12-1.22c2.17-1.46,3.83-4.1,4.56-7.85h-2.46a2.2,2.2,0,0,0-1.35.34,12.23,12.23,0,0,0-.63-1.63,2,2,0,0,0,1.09-.7,40,40,0,0,0,2.87-3.91H243v-1.47h4.71l.3-.12,1.12.56c-1,1.39-2.69,3.86-4,5.47h2.6l.29-.05Zm-2.19-7.06a37.64,37.64,0,0,0-2.87-3.82l1.25-.81a39,39,0,0,1,2.92,3.64Zm4.15,2.78a18.39,18.39,0,0,1-1.74,2.4,8.26,8.26,0,0,0-1-1.36,24.88,24.88,0,0,0,4.54-8.33l1.41.43c-.36,1.13-.84,2.25-1.32,3.36h4.45a24.63,24.63,0,0,0-1.46-3.15l1.39-.45a22,22,0,0,1,1.73,3.6h3.92v1.49h-4.9v2.45h4.26v1.41h-4.26v2.47h4.29v1.42h-4.29v2.57h5.4V182H250.83Zm5.54-2h-4v2.45h4Zm0,3.86h-4v2.47h4Zm0,3.89h-4v2.57h4Z"/><path class="cls-4" d="M273.24,170.47a29.87,29.87,0,0,1-2.51,3.63v12.62h-1.68V176.07a28.21,28.21,0,0,1-2.58,2.49,15.43,15.43,0,0,0-1.19-1.48,26,26,0,0,0,6.39-7.23Zm-.89-5.06a28.66,28.66,0,0,1-5.84,6,14.3,14.3,0,0,0-1-1.41,23.44,23.44,0,0,0,5.22-5.21Zm14,9.05h-3.44v9.91c0,1.11-.25,1.66-1,1.95a16.65,16.65,0,0,1-4.29.26,6.37,6.37,0,0,0-.54-1.73c1.62.05,3.12.05,3.55,0s.57-.12.57-.53v-9.89h-7.61v-1.7h12.76Zm-.66-6.58H274.54V166.2h11.12Z"/><path class="cls-4" d="M308.35,166.68v4.54h-1.67v-3H291v3h-1.62v-4.54H298c-.27-.57-.57-1.2-.86-1.73l1.75-.43a24.41,24.41,0,0,1,1.16,2.16Zm-17.49,11.4H307v8.52h-1.66v-.72H292.46v.82h-1.6ZM305.34,171h-13v-1.29h13Zm-12.95,5.69v-4.37H305.2v4.37Zm.07,2.76v1.87h5.45v-1.87Zm0,5h5.45v-1.92h-5.45Zm1.48-9.07h9.62v-1.83h-9.62Zm11.38,4h-5.77v1.87h5.77Zm0,5v-1.92h-5.77v1.92Z"/><path class="cls-4" d="M322.46,168.27a31.48,31.48,0,0,1-4.42,1.2v3.38h3.69v1.61H318a31.07,31.07,0,0,1-.23,3.36h4.61v1.68h-4.86a12.09,12.09,0,0,1-4.51,7.3,6.28,6.28,0,0,0-1.37-1.25,10.54,10.54,0,0,0,4.1-6.05h-4.46v-1.68h4.81a28.4,28.4,0,0,0,.25-3.36h-4.22v-1.61h4.22v-3.07c-1.49.26-3,.46-4.33.6a5,5,0,0,0-.51-1.46c1.55-.2,3.22-.46,4.84-.77v-3.36H318v3a23.8,23.8,0,0,0,3.49-1.06Zm9.4-1.37c-1.08,2.28-2.4,5-3.56,7.13,2.58,2.18,3.26,4.1,3.26,5.81,0,1.44-.34,2.54-1.21,3.09a3.58,3.58,0,0,1-1.59.55,12.2,12.2,0,0,1-2.19,0,4.29,4.29,0,0,0-.48-1.73,11.61,11.61,0,0,0,2,.05,2.8,2.8,0,0,0,1.12-.29c.55-.31.73-1,.73-1.87,0-1.51-.8-3.31-3.42-5.4a67.93,67.93,0,0,0,3-6.48H325V186.7h-1.66V166.13h7.06l.28-.07Z"/><path class="cls-4" d="M345.31,165.39a23.56,23.56,0,0,0,9.64,8.13,8.8,8.8,0,0,0-1.14,1.56,27.86,27.86,0,0,1-9.39-8,34.87,34.87,0,0,1-9.41,8.16,6.16,6.16,0,0,0-1.05-1.44,29.71,29.71,0,0,0,8.48-6.74h-4.06v-1.68Zm-.09,19h8.89V186H334.85v-1.63h8.64v-4H337.1V178.8h6.39v-3.67h-5.41v-1.61H350.8v1.61h-5.58v3.67h6.47v1.59h-6.47Z"/><path class="cls-4" d="M364.32,181.73c-2.53.84-5.22,1.73-7.27,2.45l-.36-1.73c.82-.24,1.84-.55,3-.91v-6.62h-2.53v-1.66h2.53v-5.21h-2.73v-1.68h6.95v1.68h-2.62v5.21h2.3v1.66h-2.3V181l2.8-.94Zm12.95-9a53.23,53.23,0,0,1-4,5.16A13.47,13.47,0,0,0,378,183.6a4,4,0,0,0-1.07,1.35,15,15,0,0,1-5.27-7.23v6.72c0,1.08-.27,1.59-.89,1.88a8.61,8.61,0,0,1-3.46.38,8,8,0,0,0-.62-1.73c1.32.05,2.48,0,2.83,0s.5-.15.5-.56v-5.66c-1.87,2-3.81,4-5.36,5.5l-1.05-1.54c1.55-1.34,4.06-3.7,6.41-5.93v-6.24h-5.52v-1.65H370v-4.16h1.64v4.16h6v1.65h-6v.86a31.15,31.15,0,0,0,1.12,5,36,36,0,0,0,3.05-4.53Zm-11.17-.7a19.21,19.21,0,0,1,2.49,4.44l-1.39.7a20.59,20.59,0,0,0-2.42-4.49Zm9.3-3.46a13.25,13.25,0,0,0-2.69-2.64l1-.93a16.56,16.56,0,0,1,2.74,2.49Z"/><path class="cls-4" d="M391.11,166.2c0,4.25.53,13.3,9.46,18.89a8.46,8.46,0,0,0-1.36,1.49,20.71,20.71,0,0,1-9-13.37c-1.69,6.22-4.56,10.59-9.1,13.39a11,11,0,0,0-1.53-1.41c5-2.76,7.85-7.59,9.24-14.31l1,.17c-.16-1.1-.25-2.16-.3-3.07h-5.61V166.2Z"/><path class="cls-4" d="M40.72,219.76A25.42,25.42,0,0,0,43,214.91l1.46.67a43.87,43.87,0,0,1-2.23,4.94Zm9.66-6.44H44.07V202h5.29a18.27,18.27,0,0,0,.86-2.47l2,.36A17.29,17.29,0,0,1,51.11,202H57.9v11.35H50.52a18.73,18.73,0,0,1,3,3.6l-1.36.89a18.75,18.75,0,0,0-3-3.77ZM54,219.59c1.21,0,1.41-.36,1.53-2.79a4.08,4.08,0,0,0,1.57.68c-.23,3-.78,3.76-3,3.76H49c-2.65,0-3.33-.5-3.33-2.4v-3.91H47.3v3.89c0,.65.26.77,1.74.77Zm-8.32-14.28H56.22v-1.92H45.71Zm0,3.28H56.22v-1.91H45.71Zm0,3.29H56.22V210H45.71Zm12.74,2.64a18.83,18.83,0,0,1,2.6,4.76l-1.57.76A19.49,19.49,0,0,0,57,215.2Z"/><path class="cls-4" d="M76.3,203.22c-.5.89-1,1.75-1.61,2.64V221.6h-1.8V208.26a29.64,29.64,0,0,1-8.26,7,11.94,11.94,0,0,0-1.14-1.56,27.07,27.07,0,0,0,10.65-10.46H64.06v-1.78H83.53v1.78Zm.1,4a52.69,52.69,0,0,1,7.77,6.31l-1.35,1.37a50.55,50.55,0,0,0-7.68-6.53Z"/><path class="cls-4" d="M106.51,205.31s0,.67,0,.91c-.25,10.06-.46,13.39-1.23,14.4a1.78,1.78,0,0,1-1.53.89,15.7,15.7,0,0,1-2.76,0,4.86,4.86,0,0,0-.47-1.68c1.09.09,2.09.12,2.53.12a.84.84,0,0,0,.82-.39c.52-.69.79-3.86,1-12.57h-3.26c-.27,6.38-1.32,11.61-5.33,14.78A6.06,6.06,0,0,0,95,220.5a7.43,7.43,0,0,0,1-.84c-3.44.43-7,.84-9.52,1.13l-.26-1.56c1.37-.12,3.08-.29,5-.48v-2.07H86.86v-1.36h4.31v-1.47H86.91v-7.13h4.26v-1.51H86.25v-1.39h4.92v-1.59c-1.46.12-2.94.22-4.28.27a5.61,5.61,0,0,0-.41-1.32A67.78,67.78,0,0,0,96.3,200l.84,1.37a40.47,40.47,0,0,1-4.44.7v1.75h4.83v1.39H92.7v1.51h4.42v7.13H92.7v1.47h4.47v1.36H92.7v1.9c1.48-.14,3-.31,4.56-.5v.09c2-2.83,2.57-6.69,2.78-11.18H97.37v-1.68h2.72c0-1.68,0-3.43,0-5.26h1.6c0,1.8,0,3.58,0,5.26ZM88.3,209.68h2.87V208H88.3Zm2.87,2.92v-1.75H88.3v1.75ZM92.7,208v1.73h3V208Zm3,2.9h-3v1.75h3Z"/><path class="cls-4" d="M112.51,209.46V213c0,2.71-.39,6.38-2.44,8.85a6.33,6.33,0,0,0-1.27-1.15c1.84-2.23,2.07-5.33,2.07-7.73v-5h2.87a7.15,7.15,0,0,0-.82-.89c1.8-.36,3.88-.84,5.84-1.41-1.73-.53-3.51-1-5.13-1.4l1-.86H111V202h8.41c-.39-.6-.82-1.25-1.23-1.78l1.2-.65a20.2,20.2,0,0,1,1.74,2.43h7.66v1.46h-3.49l.91.58a22.75,22.75,0,0,1-3.49,1.6c1.67.53,3.22,1.06,4.36,1.49l-.92.89h3.31v1.49Zm17.31,9.91v1.51h-16.9v-1.51h7.46V217h-5.31v-1.44h5.31V213.4h-4.77a13.56,13.56,0,0,1-2.16,2.95,9.29,9.29,0,0,0-.89-1.47,13.45,13.45,0,0,0,3-5l1.46.43c-.21.55-.41,1.08-.64,1.63h4v-2H122v2h6.13v1.47H122v2.13h5.63V217H122v2.4ZM125.6,208c-1.32-.53-3-1.1-4.84-1.7-2.05.69-4.21,1.24-6.15,1.7Zm-10.47-4.56c1.78.46,3.79,1,5.73,1.61a24,24,0,0,0,3.8-1.61Z"/><path class="cls-4" d="M152.48,214.38V216H131.94v-1.66h2.3l-.43-12.65a37.5,37.5,0,0,0,4.22-1.85l.82,1.47c-1,.45-2.31.91-3.47,1.29l.09,2.81h3.06V207h-3l.09,2.93h3v1.53h-2.94l.09,2.93h12.92c.05-.84.12-1.82.16-2.86h-3V210h3c0-1,.07-1.94.11-2.95h-3v-1.54h3c0-1,0-2,0-3H145.8V201h4.83c0,4.23-.14,9.89-.34,13.42ZM140,217.5a35.34,35.34,0,0,1-6.79,4.1,15.68,15.68,0,0,0-1-1.34,25.94,25.94,0,0,0,6.34-3.84Zm1.76-8.57a12.62,12.62,0,0,1-1.39,4.49,7.38,7.38,0,0,0-1.19-.77,9.48,9.48,0,0,0,1.25-4Zm1.57-1.27h-3.63v-7.75h1.49v2.23H145v1.51h-3.76v2.57h3v0h.62v6.32c0,.74-.14,1.05-.64,1.29a6.86,6.86,0,0,1-2.39.22,4.64,4.64,0,0,0-.44-1.23,15.25,15.25,0,0,0,1.71,0c.25,0,.3-.1.3-.31Zm2,8.69a53.75,53.75,0,0,1,6.63,3.84l-1.11,1.34a52.7,52.7,0,0,0-6.45-4Z"/><path class="cls-4" d="M170.44,212.72a12.62,12.62,0,0,0,5.13,3.7,7.17,7.17,0,0,0-1.11,1.37,14,14,0,0,1-5.79-5.07h-7.14a15.76,15.76,0,0,1-5.95,5.38,6.2,6.2,0,0,0-1.09-1.37,13.25,13.25,0,0,0,5.15-4h-4.92v-1.51h4.51v-7.66h-3.47v-1.48h3.47v-2.31h1.66v2.31h8.28v-2.31h1.71v2.31h3.42v1.48h-3.42v7.66h4.4v1.51Zm-4.65,6.77h7.87V221H156.47v-1.51h7.64V217h-4.65v-1.46h4.65v-2h1.68v2h4.77V217h-4.77Zm-4.9-15.94v1.61h8.28v-1.61Zm0,4.61h8.28v-1.65h-8.28Zm0,3.05h8.28v-1.7h-8.28Z"/><path class="cls-4" d="M180.32,218.65v1.92H179v-8.9a13.38,13.38,0,0,1-1.28,2.09A7.83,7.83,0,0,0,177,212c1.6-2.26,2.65-5.64,3.26-9.29h-2.66V201h6.79v1.66h-2.6a40.73,40.73,0,0,1-1.44,5.71h3.72v10.27Zm2.53-8.69h-2.53V217h2.53Zm9.28,9.58a14.12,14.12,0,0,0,1.5.07c.55,0,4,0,4.74,0a5.49,5.49,0,0,0-.5,1.53h-4.33c-3.14,0-5.2-.67-6.52-3.43a8.05,8.05,0,0,1-2.44,4l-1.18-1.13c2-1.49,2.64-4.27,2.91-7.35l1.42.27c-.07.67-.14,1.34-.25,2,.64,2.14,1.66,3.22,3.07,3.72v-7.13h-5.76v-1.51H196.6l.27-.07,1.07.38a29.8,29.8,0,0,1-1.32,3.41l-1.28-.53a14.62,14.62,0,0,0,.64-1.68h-3.85v2.83h5.2v1.47h-5.2Zm-4.7-14.07a14.81,14.81,0,0,1-2.35,3.44,5.09,5.09,0,0,0-.82-1.2,13,13,0,0,0,2.72-4.08h-2.24v-1.42h2.69v-2.42h1.39v2.42H191v1.42h-2.19v.29c.48.52,1.89,2.16,2.24,2.59l-.94,1.1a23.32,23.32,0,0,0-1.3-2v4.18h-1.39Zm6.41.37a11.62,11.62,0,0,1-2.37,3.31,4.25,4.25,0,0,0-.8-1.18,10.21,10.21,0,0,0,2.87-4.37h-2v-1.41h2.33v-2.4h1.41v2.4h2.85v1.41h-2.46c.8,1,2.39,3.2,2.76,3.82l-1,1.2c-.38-.82-1.39-2.5-2.14-3.72v4.85h-1.41Z"/><path class="cls-4" d="M206.83,208.28a30.06,30.06,0,0,1-1.91,8.33c2.21,2.31,5.33,2.83,9.19,2.83.89,0,5.79,0,6.95,0a6.08,6.08,0,0,0-.64,1.66h-6.36c-4.19,0-7.48-.6-9.85-3a11.63,11.63,0,0,1-2.85,3.6,6.07,6.07,0,0,0-1.25-1.23,10.57,10.57,0,0,0,3-3.69A15.91,15.91,0,0,1,201,212.1l1.26-.53a13.4,13.4,0,0,0,1.53,3.63,28.17,28.17,0,0,0,1.32-5.57h-2.76c-.37.19-.91.5-.91.74a11.9,11.9,0,0,0-.71-1.44c.43-.09,1-.67,1.44-1.42a31.63,31.63,0,0,0,2.44-4.67h-4v-1.59h4.58l.55-.26,1.1.74a54,54,0,0,1-3.31,6.31h2l.3,0Zm5.59-5.09H208.2v-1.41h4.22v-2H214v2h5.08V205h1.58v1.41h-1.58v3.29H214v1.85h5.61v1.34H214v1.87h6.45v1.44H214v2.38h-1.62V216.2H206.9v-1.44h5.52v-1.87h-4.56v-1.34h4.56V209.7H208v-1.42h4.38v-1.87h-5.7V205h5.7Zm1.62,0V205h3.55v-1.81Zm3.55,3.22H214v1.87h3.55Z"/><path class="cls-4" d="M231.76,205.28h-8.62v-1.46h8.62Zm10.82,5.43a15.4,15.4,0,0,1-4.05,6.91,15.32,15.32,0,0,0,5.38,2.4,7.21,7.21,0,0,0-1,1.61,15.68,15.68,0,0,1-5.66-2.86,17.79,17.79,0,0,1-5.65,2.93,6.43,6.43,0,0,0-.78-1.49h-5.19v1.13H224.1v-8.06h6.72V220a16.06,16.06,0,0,0,5.08-2.42,16.68,16.68,0,0,1-3.42-5.3l1-.36h-2v-1.68h9.72l.27-.08ZM230.82,207v1.42h-6.7V207Zm-6.7,3.12h6.72v1.42h-6.72Zm5.2,4.68h-3.74v4h3.74Zm-2-11.21a24.93,24.93,0,0,0-1.71-3.21l1.32-.7a22.5,22.5,0,0,1,1.76,3.1Zm8-.26a7,7,0,0,1-3.31,6.39,7.66,7.66,0,0,0-1.09-1.3,5.44,5.44,0,0,0,2.83-5.14V200.6h6.93v5.57c0,.67,0,.89.36.89h1.35a4.88,4.88,0,0,0,1-.12c0,.46.07,1.13.11,1.54a3.75,3.75,0,0,1-1.11.11h-1.49c-1.48,0-1.8-.67-1.8-2.47v-3.84h-3.78ZM234,212a13.4,13.4,0,0,0,3.21,4.58,12.91,12.91,0,0,0,3.22-4.58Z"/><path class="cls-4" d="M247.08,202.21h9.64v1.9H249.2v5.52h6.34v1.89H249.2v6.41H257v1.9h-9.89Z"/><path class="cls-4" d="M264,204.11h-5.06v-1.9h12.24v1.9h-5.06v15.72H264Z"/><path class="cls-4" d="M274.14,202.21h9.64v1.9h-7.52v5.95h6.38v1.87h-6.38v7.9h-2.12Z"/><path class="cls-4" d="M301.29,212.72a12.62,12.62,0,0,0,5.13,3.7,7.17,7.17,0,0,0-1.11,1.37,14.07,14.07,0,0,1-5.8-5.07h-7.13a15.83,15.83,0,0,1-5.95,5.38,6.51,6.51,0,0,0-1.09-1.37,13.25,13.25,0,0,0,5.15-4h-4.93v-1.51h4.52v-7.66h-3.47v-1.48h3.47v-2.31h1.66v2.31H300v-2.31h1.71v2.31h3.42v1.48h-3.42v7.66h4.4v1.51Zm-4.65,6.77h7.87V221H287.32v-1.51H295V217H290.3v-1.46H295v-2h1.68v2h4.77V217h-4.77Zm-4.9-15.94v1.61H300v-1.61Zm0,4.61H300v-1.65h-8.28Zm0,3.05H300v-1.7h-8.28Z"/><path class="cls-4" d="M319.47,208.55v3.26h7.95v1.63h-7.95v5.86h9V221H308.86V219.3h8.85v-5.86h-7.82v-1.63h7.82v-3.26h-4.92v-1.32a25.06,25.06,0,0,1-3.63,1.73,7.41,7.41,0,0,0-1.14-1.61c4.24-1.47,8.44-4.28,10.6-7.83l1.55.77c-.16.26-.36.58-.57.86a24.61,24.61,0,0,0,9.74,6.2,6.93,6.93,0,0,0-1.19,1.53,23.56,23.56,0,0,1-3.67-1.82v1.49ZM313.22,214a21.08,21.08,0,0,1,2.16,4.3l-1.48.65a20.25,20.25,0,0,0-2.09-4.35Zm11-7.08a26.73,26.73,0,0,1-5.54-4.51,23.75,23.75,0,0,1-5.34,4.51Zm-2.67,11.5a27.94,27.94,0,0,0,2.37-4.42l1.62.65a46,46,0,0,1-2.71,4.34Z"/><path class="cls-4" d="M350.34,202.91v13.44h-1.71V215.1h-6.39v6.53h-1.73V215.1h-6.18v1.37h-1.66V202.91h7.84v-3.17h1.73v3.17Zm-16,1.7v3.48h6.18v-3.48Zm6.18,8.76v-3.62h-6.18v3.62Zm1.73-8.76v3.48h6.39v-3.48Zm6.39,8.76v-3.62h-6.39v3.62Z"/><path class="cls-4" d="M357.45,216.52a14.64,14.64,0,0,1-2.53,5.16,10.17,10.17,0,0,0-1.28-1,10.73,10.73,0,0,0,2.28-4.56Zm3.76-.87h-6.4v-15h6.4Zm-1.53-13.51h-3.39v3.05h3.39Zm0,4.44h-3.39v3.07h3.39Zm0,4.49h-3.39v3.12h3.39Zm.37,5.06a20.28,20.28,0,0,1,1.89,3.7l-1.34.67a20.2,20.2,0,0,0-1.83-3.77Zm14.61,1.59h-1.37v2.08c0,.87-.18,1.32-.75,1.59a11.19,11.19,0,0,1-3.3.24,6.25,6.25,0,0,0-.48-1.44c1.18,0,2.28,0,2.6,0s.38-.09.38-.41v-2.08h-7.2v4H363v-4h-1.48v-1.37H363v-6.1h4.31v-1.39h-5.7v-1.35h3.29v-1.58h-2.17v-1.32h2.17v-1.44h-2.76v-1.34h2.76v-2.07h1.5v2.07h3.37v-2.07h1.53v2.07h2.78v1.34h-2.78v1.44h2.42v1.32h-2.42v1.58h3.26v1.35h-5.74v1.39h4.46v6.1h1.37Zm-10.12-6.12v1.7h2.78v-1.7Zm0,4.75h2.78v-1.8h-2.78Zm1.87-11.74h3.37v-1.44h-3.37Zm0,2.9h3.37v-1.58h-3.37Zm2.42,4.09v1.7h2.91v-1.7Zm2.91,4.75v-1.8h-2.91v1.8Z"/><path class="cls-4" d="M390.58,210.73a3.47,3.47,0,1,1-3.47-3.65A3.56,3.56,0,0,1,390.58,210.73Zm-1.16,0a2.31,2.31,0,1,0-2.31,2.43A2.36,2.36,0,0,0,389.42,210.73Z"/></g></g></g></svg>