<svg xmlns="http://www.w3.org/2000/svg" xmlns:xlink="http://www.w3.org/1999/xlink" viewBox="0 0 335.91 68.06"><defs><style>.cls-1{isolation:isolate;}.cls-2{opacity:0.1;mix-blend-mode:multiply;}.cls-3,.cls-5{fill:none;stroke-miterlimit:10;stroke-width:1.5px;}.cls-3{stroke:#000;}.cls-4{fill:url(#未命名漸層_115);}.cls-5{stroke:#fff;}.cls-6{fill:#fff;}</style><linearGradient id="未命名漸層_115" x1="167.96" y1="60.31" x2="167.96" y2="0.75" gradientUnits="userSpaceOnUse"><stop offset="0" stop-color="#0056a2"/><stop offset="0.97" stop-color="#3797bd"/><stop offset="1" stop-color="#0056a2"/></linearGradient></defs><g class="cls-1"><g id="圖層_2" data-name="圖層 2"><g id="內頁"><g class="cls-2"><rect x="0.75" y="7.75" width="334.41" height="59.56" rx="29.02"/><rect class="cls-3" x="0.75" y="7.75" width="334.41" height="59.56" rx="29.02"/></g><rect class="cls-4" x="0.75" y="0.75" width="334.41" height="59.56" rx="29.02"/><rect class="cls-5" x="0.75" y="0.75" width="334.41" height="59.56" rx="29.02"/><path class="cls-6" d="M114.79,37.9c-.07-.41-.13-.88-.23-1.39-5.82.82-6.88,1.14-7.59,1.46a29.42,29.42,0,0,0-1.26-3.38,5.82,5.82,0,0,0,2.61-2.08c.35-.44,1.09-1.3,1.93-2.5a12.66,12.66,0,0,0-3.54.7,27.7,27.7,0,0,0-1.19-3.25c.64-.16,1.16-.76,1.8-1.67a33.46,33.46,0,0,0,3.57-7.64l3.48,1.39A43.5,43.5,0,0,1,110.22,27l2.15-.16a35.3,35.3,0,0,0,2.29-4.23l3.25,2a51.61,51.61,0,0,1-4.28,6.5l2.38-.67A40.32,40.32,0,0,1,117.72,37ZM110,39.39a38.65,38.65,0,0,1-1.45,8,21.76,21.76,0,0,0-2.83-1A27,27,0,0,0,107,38.94Zm3.19-.48a57.69,57.69,0,0,1,.7,6.69l-2.83.48a56.82,56.82,0,0,0-.54-6.69Zm.77-5.27c-.16-.75-.39-1.51-.58-2.17-.71.85-1.42,1.7-2.12,2.49ZM116.17,38a35.55,35.55,0,0,1,1.32,4.35l-2.61.85a30.48,30.48,0,0,0-1.22-4.41Zm9-2.34c-1.06,4.89-3.44,8.52-6.79,10.54a13.93,13.93,0,0,0-2.16-2.62A11.28,11.28,0,0,0,120.9,38H118V35h4.28l.58-.09Zm10.49.22c-1.48,1.11-2.93,2.37-4.25,3.32a13.08,13.08,0,0,0,4.7,4.35,14.55,14.55,0,0,0-2.51,3A15.17,15.17,0,0,1,129,41.28V44c0,1.68-.29,2.59-1.42,3.19s-2.57.6-4.63.6a13.69,13.69,0,0,0-1-3.44c1.19.06,2.51.06,2.89,0s.55-.09.55-.44V33.07h-6.15V21.59h4.57a28.37,28.37,0,0,0,1-3.35l4.38.76c-.48.92-1,1.77-1.45,2.59h6.89V33.07H129v1a26.66,26.66,0,0,0,1,2.53,27.29,27.29,0,0,0,2.87-3.06ZM122.7,26h8.18V24.4H122.7Zm0,4.29h8.18V28.59H122.7Z"/><path class="cls-6" d="M167.66,42.38v3.79H138.41V42.38h11.52V18.62h4.12v9h11.36v3.82H154.05V42.38Z"/><path class="cls-6" d="M175.44,30.61V47.72h-3.73V19.44H184.1V30.61Zm0-8.48v1.61h5.06V22.13Zm5.06,5.77V26.2h-5.06v1.7Zm9.43,12.72v6.5h-3.35v-6.5h-3.09a10.23,10.23,0,0,1-4.12,7.07,14,14,0,0,0-2.45-2.15,7.38,7.38,0,0,0,3.29-4.92H177V37.56h3.38V35.19h-2.93v-3H193v3h-3v2.37h3.54v3.06Zm-3.35-3.06V35.19h-3v2.37Zm12.26,5.77c0,1.93-.35,3-1.51,3.57s-2.83.72-5.28.72a13,13,0,0,0-1.16-3.72c1.45.06,3,.06,3.51,0s.67-.19.67-.63V30.68h-8.84V19.44h12.61Zm-9-21.2v1.61h5.21V22.13ZM195.07,28V26.2h-5.21V28Z"/><path class="cls-6" d="M228.73,26.57V39.7h-3.92V38.12h-14.9c-.71,3.57-2.09,7.17-4.76,9.75a15.11,15.11,0,0,0-3-2.55c4.19-4.17,4.57-10.38,4.57-15V21.18A111.28,111.28,0,0,0,225,18.28l3,2.84A113.32,113.32,0,0,1,210.62,24v2.61Zm-3.92,8.08v-4.6H210.62v.31c0,1.3-.07,2.78-.2,4.29Z"/></g></g></g></svg>