<svg xmlns="http://www.w3.org/2000/svg" viewBox="0 0 277 51.88"><defs><style>.cls-1{isolation:isolate;}.cls-2{opacity:0.1;mix-blend-mode:multiply;}.cls-3{fill:#fff;}</style></defs><g class="cls-1"><g id="圖層_2" data-name="圖層 2"><g id="內頁"><g class="cls-2"><path d="M40.9,10.9V21.15H35.19V15.6H5.42v5.55H0V10.9H17.26C16.88,10,16.44,9,16.11,8.17L22.29,7a36.42,36.42,0,0,1,1.87,3.9ZM2.49,34.12h36V51.51H32.79V50.28H7.91V51.6H2.49ZM6,22.84H34.52v9.54H6Zm27.43-5.41v3.76H7.19V17.43ZM7.91,38.16v2.3H17.4v-2.3Zm9.49,8.08v-2.3H7.91v2.3ZM11.22,28.81H29V26.5H11.22Zm21.57,9.35H23v2.3h9.83Zm0,8.08v-2.3H23v2.3Z"/><path d="M70.14,16.07a71.29,71.29,0,0,1-8.54,2.16v5h6.57V28.1H61.56c0,1.6-.1,3.15-.24,4.7h8.05V38H60.45a23.76,23.76,0,0,1-8.72,13.91A24,24,0,0,0,47,48a19.85,19.85,0,0,0,7.33-10h-8.1V32.8h9.3c.19-1.55.29-3.1.34-4.7H48V23.21h8v-4c-2.69.37-5.42.7-7.91.94a20.32,20.32,0,0,0-1.54-4.61c3.07-.37,6.33-.84,9.45-1.41V7.75H61.6V13c2-.52,3.94-1.08,5.52-1.65Zm20.42-3.2c-1.92,4.56-4.31,9.78-6.42,13.77,4.6,4.14,5.51,7.9,5.51,11,0,3.48-.86,5.78-2.78,7a8.62,8.62,0,0,1-3.6,1.27,40.18,40.18,0,0,1-4.21.1,12.36,12.36,0,0,0-1.54-5.45,26.9,26.9,0,0,0,3.21.09,5.14,5.14,0,0,0,2.11-.47c1-.47,1.3-1.55,1.3-3.2,0-2.53-1.3-5.92-5.76-9.58C80,24,81.79,19.27,83.13,15.65H76.56v36H70.9V10.48H85.48l.91-.24Z"/><path d="M105.56,34V45.21c0,2.72-.52,4.09-2.15,4.89s-3.89,1-7.24,1a18.34,18.34,0,0,0-1.63-5.08c1.92.05,3.88.05,4.5.05s.92-.23.92-.89V35.48L95.11,36.7l-1.48-5.36c1.82-.37,4-.84,6.33-1.36V21.71H94.25V16.54H100V7.61h5.6v8.93h5v5.17h-5v6.91l3.5-.85.72,5.12Zm30.35-4.79a30.14,30.14,0,0,1-8.24,13.58,41,41,0,0,0,11.07,3.57,25.44,25.44,0,0,0-3.59,5.17,39.66,39.66,0,0,1-12.37-5.07,47.51,47.51,0,0,1-13.09,5A22.15,22.15,0,0,0,107,46.38,39.26,39.26,0,0,0,118,42.81a34.43,34.43,0,0,1-6.66-9.07l1.77-.61h-2.73V27.91h20.8l1-.23Zm-24-1.93a21.31,21.31,0,0,0-3.79-4c5.66-2.54,6.38-5.92,6.38-9.17v-5h16.88V19.36c0,1.36.09,1.93.86,1.93h2.54a11.84,11.84,0,0,0,2.68-.33c.1,1.41.24,3.33.44,4.6a8.25,8.25,0,0,1-3,.38h-3.22c-4.69,0-5.7-2-5.7-6.67v-5l-6.19.05C119.8,19,118.41,24.25,111.94,27.3Zm5,5.83a22.45,22.45,0,0,0,5.84,6.58,23,23,0,0,0,5.57-6.58Z"/><path d="M156.62,9.3a74,74,0,0,1-3.55,8.32V51.69H147.9V26.41c-1.16,1.6-2.35,3.15-3.5,4.46a36.31,36.31,0,0,0-2.93-5.49A50.32,50.32,0,0,0,151.54,7.8Zm29.53,5.59v4.56H155.28V14.89H169a43.11,43.11,0,0,0-3-5.59l4.84-1.78a35.9,35.9,0,0,1,3.5,6.2l-2.73,1.17ZM157.92,35.76h25.36V51.32h-5V50H162.76v1.46h-4.84Zm24.73-9.44h-24V21.94h24Zm-24,2.44h24v4.37h-24Zm4.13,11.47v5.31h15.48V40.23Z"/><path d="M226.33,21.57a32,32,0,0,1-8.44,8.69,72.47,72.47,0,0,0,16.87,3.48,24.58,24.58,0,0,0-3.59,5.41c-1.77-.24-3.4-.52-5.08-.85V51.46h-5.85V50.05H204.08v1.5h-5.56V38.63c-2.06.52-4.12.94-6.23,1.31a22.15,22.15,0,0,0-2.74-5,66.89,66.89,0,0,0,17.07-4.51A36.8,36.8,0,0,1,202.36,27a45.65,45.65,0,0,1-5.85,3.15,17.78,17.78,0,0,0-3.79-4.18c6.66-2.44,11.07-5.92,13.42-9.4h-8.91V21.8h-5.61V11.46h17.83c-.53-1.08-1.1-2.16-1.58-3.05l5.7-1.36c.72,1.36,1.68,3,2.45,4.41h16.73V21.8H226.9V16.54H207l5.37,1.08-1.54,1.93h10.69l1-.24Zm-6.09,23.92v-4H204.08v4Zm0-8.65a58.61,58.61,0,0,1-8.2-3.15,59.31,59.31,0,0,1-7.58,3.15ZM206.48,23.92a26.16,26.16,0,0,0,5.66,3.85,28.54,28.54,0,0,0,5.46-4H206.72Z"/><path d="M277,20V39.57h-5.85V37.22H249c-1,5.31-3.11,10.67-7.09,14.52a22.93,22.93,0,0,0-4.41-3.81c6.23-6.2,6.8-15.46,6.8-22.32V12c9.69-.85,20.62-2.44,27.14-4.32l4.51,4.23A168.86,168.86,0,0,1,250,16.12V20Zm-5.85,12V25.19H250v.47c0,1.92-.1,4.13-.29,6.39Z"/></g><path class="cls-3" d="M40.9,3.9V14.15H35.19V8.6H5.42v5.55H0V3.9H17.26C16.88,3,16.44,2,16.11,1.17L22.29,0a36.42,36.42,0,0,1,1.87,3.9ZM2.49,27.12h36V44.51H32.79V43.28H7.91V44.6H2.49ZM6,15.84H34.52v9.54H6Zm27.43-5.41v3.76H7.19V10.43ZM7.91,31.16v2.3H17.4v-2.3Zm9.49,8.08v-2.3H7.91v2.3ZM11.22,21.81H29V19.5H11.22Zm21.57,9.35H23v2.3h9.83Zm0,8.08v-2.3H23v2.3Z"/><path class="cls-3" d="M70.14,9.07a71.29,71.29,0,0,1-8.54,2.16v5h6.57V21.1H61.56c0,1.6-.1,3.15-.24,4.7h8.05V31H60.45a23.76,23.76,0,0,1-8.72,13.91A24,24,0,0,0,47,41a19.85,19.85,0,0,0,7.33-10h-8.1V25.8h9.3c.19-1.55.29-3.1.34-4.7H48V16.21h8v-4c-2.69.37-5.42.7-7.91.94A20.32,20.32,0,0,0,46.5,8.55c3.07-.37,6.33-.84,9.45-1.41V.75H61.6V6c2-.52,3.94-1.08,5.52-1.65Zm20.42-3.2c-1.92,4.56-4.31,9.78-6.42,13.77,4.6,4.14,5.51,7.9,5.51,11,0,3.48-.86,5.78-2.78,7a8.62,8.62,0,0,1-3.6,1.27,40.18,40.18,0,0,1-4.21.1,12.36,12.36,0,0,0-1.54-5.45,26.9,26.9,0,0,0,3.21.09,5.14,5.14,0,0,0,2.11-.47c1-.47,1.3-1.55,1.3-3.2,0-2.53-1.3-5.92-5.76-9.58C80,17,81.79,12.27,83.13,8.65H76.56v36H70.9V3.48H85.48l.91-.24Z"/><path class="cls-3" d="M105.56,27V38.21c0,2.72-.52,4.09-2.15,4.89s-3.89,1-7.24,1a18.34,18.34,0,0,0-1.63-5.08c1.92.05,3.88.05,4.5.05s.92-.23.92-.89V28.48L95.11,29.7l-1.48-5.36c1.82-.37,4-.84,6.33-1.36V14.71H94.25V9.54H100V.61h5.6V9.54h5v5.17h-5v6.91l3.5-.85.72,5.12Zm30.35-4.79a30.14,30.14,0,0,1-8.24,13.58,41,41,0,0,0,11.07,3.57,25.44,25.44,0,0,0-3.59,5.17,39.66,39.66,0,0,1-12.37-5.07,47.51,47.51,0,0,1-13.09,5A22.15,22.15,0,0,0,107,39.38,39.26,39.26,0,0,0,118,35.81a34.43,34.43,0,0,1-6.66-9.07l1.77-.61h-2.73V20.91h20.8l1-.23Zm-24-1.93a21.31,21.31,0,0,0-3.79-4c5.66-2.54,6.38-5.92,6.38-9.17v-5h16.88V12.36c0,1.36.09,1.93.86,1.93h2.54a11.84,11.84,0,0,0,2.68-.33c.1,1.41.24,3.33.44,4.6a8.25,8.25,0,0,1-3,.38h-3.22c-4.69,0-5.7-2-5.7-6.67v-5l-6.19,0C119.8,12,118.41,17.25,111.94,20.3Zm5,5.83a22.45,22.45,0,0,0,5.84,6.58,23,23,0,0,0,5.57-6.58Z"/><path class="cls-3" d="M156.62,2.3a74,74,0,0,1-3.55,8.32V44.69H147.9V19.41c-1.16,1.6-2.35,3.15-3.5,4.46a36.31,36.31,0,0,0-2.93-5.49A50.32,50.32,0,0,0,151.54.8Zm29.53,5.59v4.56H155.28V7.89H169a43.11,43.11,0,0,0-3-5.59L170.86.52a35.9,35.9,0,0,1,3.5,6.2l-2.73,1.17ZM157.92,28.76h25.36V44.32h-5V43H162.76v1.46h-4.84Zm24.73-9.44h-24V14.94h24Zm-24,2.44h24v4.37h-24Zm4.13,11.47v5.31h15.48V33.23Z"/><path class="cls-3" d="M226.33,14.57a32,32,0,0,1-8.44,8.69,72.47,72.47,0,0,0,16.87,3.48,24.58,24.58,0,0,0-3.59,5.41c-1.77-.24-3.4-.52-5.08-.85V44.46h-5.85V43.05H204.08v1.5h-5.56V31.63c-2.06.52-4.12.94-6.23,1.31a22.15,22.15,0,0,0-2.74-5,66.89,66.89,0,0,0,17.07-4.51A36.8,36.8,0,0,1,202.36,20a45.65,45.65,0,0,1-5.85,3.15,17.78,17.78,0,0,0-3.79-4.18c6.66-2.44,11.07-5.92,13.42-9.4h-8.91V14.8h-5.61V4.46h17.83c-.53-1.08-1.1-2.16-1.58-3l5.7-1.36c.72,1.36,1.68,3,2.45,4.41h16.73V14.8H226.9V9.54H207l5.37,1.08-1.54,1.93h10.69l1-.24Zm-6.09,23.92v-4H204.08v4Zm0-8.65a58.61,58.61,0,0,1-8.2-3.15,59.31,59.31,0,0,1-7.58,3.15ZM206.48,16.92a26.16,26.16,0,0,0,5.66,3.85,28.54,28.54,0,0,0,5.46-4H206.72Z"/><path class="cls-3" d="M277,13V32.57h-5.85V30.22H249c-1,5.31-3.11,10.67-7.09,14.52a22.93,22.93,0,0,0-4.41-3.81c6.23-6.2,6.8-15.46,6.8-22.32V5c9.69-.85,20.62-2.44,27.14-4.32l4.51,4.23A168.86,168.86,0,0,1,250,9.12V13Zm-5.85,12V18.19H250v.47c0,1.92-.1,4.13-.29,6.39Z"/></g></g></g></svg>