<svg xmlns="http://www.w3.org/2000/svg" viewBox="0 0 255.94 33.55"><g id="圖層_2" data-name="圖層 2"><g id="內頁"><path d="M3.74,16.77A21.63,21.63,0,0,0,11,33.37v.18H0V0H11V.18A21.62,21.62,0,0,0,3.74,16.77Z"/><path d="M39.84,21.31a24.85,24.85,0,0,0,8.89,4.25A9.44,9.44,0,0,0,47,27.64a24.1,24.1,0,0,1-5.32-2.41c0,.15,0,.29-.07.4-.41,4.21-.77,6.05-1.62,6.8a3,3,0,0,1-2.17.79,28.75,28.75,0,0,1-4.36-.07,5.15,5.15,0,0,0-.66-2.09c1.68.15,3.41.18,4,.18s1,0,1.25-.32.73-1.58,1-4.32H30.66c-1.58,3.31-4.62,5.47-11,6.73a6.52,6.52,0,0,0-1.33-2c5.25-.9,8-2.45,9.48-4.72H20.68V25.38a35.51,35.51,0,0,1-4.52,1.94,6.56,6.56,0,0,0-1.58-1.91,26.51,26.51,0,0,0,8.19-4.1H15.39V19.15h9.69a10.75,10.75,0,0,0,1.47-2.09H19.69V7.16h24v9.9H29.49a13.55,13.55,0,0,1-1.29,2.09H47.81v2.16ZM24.09,4.93H15.61V2.84h8.48V.36h2.64V2.84h4.34V4.93H26.73V6.62H24.09ZM40.61,24.58a19.91,19.91,0,0,1-3.85-3.27H26.33A21.49,21.49,0,0,1,22,24.58h6.75A16.12,16.12,0,0,0,29.41,22H32a23.87,23.87,0,0,1-.55,2.55ZM22.29,11.27H41V8.93H22.29Zm0,4H41V13H22.29Zm14-10.37h-4V2.84h4V.36H39V2.84h8.7V4.93H39V6.62H36.28Z"/><path d="M58.21,9.25A36.18,36.18,0,0,1,55,12.17a8,8,0,0,0-1.94-1.73A30.24,30.24,0,0,0,61.58.29l2.79.5a37.57,37.57,0,0,1-2.09,3.39h8.15A26,26,0,0,0,68.78.94L71.27.18a24.49,24.49,0,0,1,2.13,4H84.2V6.33H72.41V8.75H82.73v1.9H72.41V13H82.84v1.91H72.41v2.48h13v2.16H60.89v1.08H58.21Zm8,18.07c-2.57,2-7.3,3.89-11.05,4.75A10.09,10.09,0,0,0,53.43,30c3.75-.68,8.3-2.09,10.65-3.71Zm20.27-5v2.2H71.38v8.64H68.7V24.55H53.87v-2.2H68.7V19.91h2.68v2.44Zm-16.67-16H60.89V8.75h8.88Zm0,4.32H60.89V13h8.88Zm0,4.29H60.89v2.48h8.88ZM75.06,26.1c3.56,1,8.44,2.66,11,3.74l-1.51,2c-2.46-1.08-7.37-2.84-11-4Z"/><path d="M109.79,24.51H91.88V22.1h3.56V7.49H92.36V5.08h3.08V.76h2.5V5.08h6.64V.76h2.53V5.08h2.68V7.49h-2.68V22.1h2.68ZM99.55,26a23.75,23.75,0,0,1-5.43,7.27,17.48,17.48,0,0,0-2.2-1.54,19,19,0,0,0,5-6.41ZM97.94,7.49v3.16h6.64V7.49Zm0,8.85h6.64V12.81H97.94Zm0,5.76h6.64V18.5H97.94Zm6.35,3.17a26.57,26.57,0,0,1,3.85,5.33l-2.2,1.26a28.39,28.39,0,0,0-3.78-5.48Zm20,4.5c0,1.58-.41,2.37-1.4,2.81s-2.75.5-5.47.5a10.61,10.61,0,0,0-.84-2.59c1.94,0,3.78,0,4.29,0s.77-.18.77-.76V21.09h-7.74c-.37,4.29-1.29,8.86-3.49,12.31a6.88,6.88,0,0,0-2.17-1.54c3-4.76,3.34-11.59,3.34-16.74v-13H124.3Zm-2.65-11.09v-6h-7.49v2.41c0,1.11,0,2.34-.07,3.56ZM114.16,4.57v5.72h7.49V4.57Z"/><path d="M135,14.15V33.22h-2.71V1.87h13.25V14.15ZM135,4V7H143V4ZM143,12.09V8.93H135v3.16Zm-.11,17.79v1.8h-2.46V16.85H154v13Zm0-10.95v3.32h8.63V18.93Zm8.63,8.82V24.26h-8.63v3.49Zm10.94,1.91c0,1.69-.4,2.59-1.61,3.06s-3.12.47-6.17.47a9.53,9.53,0,0,0-1-2.74c2.24.11,4.48.07,5.14,0s.85-.22.85-.87V14.18H148.83V1.87h13.58ZM151.43,4V7h8.23V4Zm8.23,8.17V8.93h-8.23v3.2Z"/><path d="M181.91,2.74c-1.1,2.91-2.42,6.44-3.67,9.28a11.43,11.43,0,0,1,3.31,7.85c0,1.87-.44,3.46-1.44,4.14a3.73,3.73,0,0,1-1.94.68,12.88,12.88,0,0,1-2.42.07,6,6,0,0,0-.7-2.37,10.27,10.27,0,0,0,2.13,0,2.15,2.15,0,0,0,1.14-.32,3.16,3.16,0,0,0,.77-2.48c0-1.95-.66-4.43-3.31-7.31,1.07-2.59,2.17-5.69,2.9-8.06h-5.32v28.9h-2.42V1.8h8.77l.4-.11ZM202,20.66A55.79,55.79,0,0,1,195.64,25a15.92,15.92,0,0,0,7.09,5.72,12.23,12.23,0,0,0-1.87,2.27c-5.73-2.67-9.14-8.18-11-15.3h-3.52V29.48l6.46-1.55a16.44,16.44,0,0,0,.14,2.45c-7.56,2-8.66,2.38-9.39,2.84A8.34,8.34,0,0,0,182.35,31a2.65,2.65,0,0,0,1.36-2.52V1.91h16V17.64h-7.49a25,25,0,0,0,2.16,5.4,62.73,62.73,0,0,0,5.73-4.25ZM186.36,4.28V8.6h10.75V4.28Zm0,11h10.75V10.83H186.36Z"/><path d="M225.72,29.52a31.66,31.66,0,0,0,6,.46c1.32,0,7.6,0,9.36-.07a9.14,9.14,0,0,0-1,2.7h-8.48c-7.63,0-13.1-1.29-16.44-7.41a19.23,19.23,0,0,1-5.47,8.13,11.89,11.89,0,0,0-2.21-1.83c4.08-3.06,6.06-8.17,6.87-14.65l2.72.28c-.22,1.66-.52,3.21-.85,4.65a11,11,0,0,0,6.72,7V13.93h-9.1V11.38h21.25v2.55h-9.36V19.8h10.87v2.52H225.72ZM211.81,12.2h-2.68V4.39h14.28A32,32,0,0,0,221.68.86l2.65-.75a29.65,29.65,0,0,1,2.16,4.28h13.07V12.2h-2.75V7h-25Z"/><path d="M244.93,33.55v-.18a21.63,21.63,0,0,0,7.27-16.6A21.62,21.62,0,0,0,244.93.18V0h11V33.55Z"/></g></g></svg>