<svg xmlns="http://www.w3.org/2000/svg" viewBox="0 0 277 102.86"><defs><style>.cls-1{isolation:isolate;}.cls-2{opacity:0.1;mix-blend-mode:multiply;}.cls-3{fill:#fff;}</style></defs><g class="cls-1"><g id="圖層_2" data-name="圖層 2"><g id="內頁"><g class="cls-2"><path d="M109.5,44c-1.87-1.5-5.13-3.85-8.2-5.92.14,1.18.43,2.59.62,3.43-6.85,2-9.54,2.92-10.93,3.48a57,57,0,0,0,5.9.24c5.13,0,13-.29,18.46-.8a15.51,15.51,0,0,0-1.87,5.17c-5,.28-11.08.42-16.69.42-8.87,0-14.43-.94-18.07-5.78a21,21,0,0,1-5.42,6.67,18.26,18.26,0,0,0-3.74-3.66c3.84-2.78,6.38-7.48,7.72-13.73H74.5a5.63,5.63,0,0,0-2.93.71,32.48,32.48,0,0,0-1.77-4.47,4,4,0,0,0,2.25-1.5,44.21,44.21,0,0,0,4-6H70.38V17.86H79l.77-.33,3.45,1.31,0,.1H114v3.57H83.08V19.08c-1.58,2.63-4.17,7-6.28,10.15h2.73l.87-.14,2.39,1a55.16,55.16,0,0,1-2.11,9.58c1.87,3.29,4.89,4.7,9.06,5.27a10.58,10.58,0,0,0-1.29-2.78,2.51,2.51,0,0,0,1.63-2.63V38.35a46.67,46.67,0,0,1-4.75,1.78,19.72,19.72,0,0,0-2.68-3.24,50.93,50.93,0,0,0,10.93-4.18h-7V24.15h23.64v8.18l3,2.26a43.36,43.36,0,0,1-5,3.29c1.87,1.27,3.64,2.44,4.84,3.38ZM77.42,17a72.47,72.47,0,0,0-5.75-7.52L75.94,7a73.86,73.86,0,0,1,5.94,7.05Zm34.47.33H85V8.22h26.89ZM92.48,11.28H89.6v3h2.88Zm-.87,18.33h13.33V27.26H91.61Zm8.25,3.1a37.48,37.48,0,0,1-5.27,3.43v3.34l6.18-1.74c-1-.71-2-1.32-2.88-1.93l3.46-2.35c1.1.66,2.3,1.46,3.5,2.21a45.06,45.06,0,0,0,4.07-3Zm-.19-21.43H96.79v3h2.88Zm7.38,0H104v3h3.07Z"/><path d="M146.89,22.13c5.13,3.62,12.51,9,16,12.74L158,39.15c-3-3.48-9.49-8.84-14.67-12.74V50.75h-6.23V27.82a56.9,56.9,0,0,1-15.25,11.56,33.07,33.07,0,0,0-3.93-5.07,49.88,49.88,0,0,0,20.66-18.47H119.47V10.1H161v5.74H146.12a46.37,46.37,0,0,1-2.78,4.32v4.89Z"/><path d="M191.57,44.79c1.25.09,2.54.14,3.83.14,2.69,0,11.89,0,15.3-.14a18.84,18.84,0,0,0-1.92,5.31H195.12c-8.78,0-14.72-1.18-18.75-6.63a21.25,21.25,0,0,1-6.71,7.47,23,23,0,0,0-4.32-3.9c4.89-3,7.82-7.94,8.92-14.24l5.71.85c-.34,1.5-.72,2.91-1.11,4.27a10.51,10.51,0,0,0,6.91,5.88V31.86h-18.7V26.93h42.29v4.93H191.57v3.53h14.77v4.84H191.57ZM204.8,24.86H171.53V8.55H204.8ZM199,12.5H177v2.35h22Zm0,6H177v2.4h22Z"/><path d="M40.9,61.88V72.12H35.19V66.58H5.42v5.54H0V61.88H17.26c-.38-.94-.82-1.93-1.15-2.73L22.29,58a36.42,36.42,0,0,1,1.87,3.9ZM2.49,85.1h36v17.39H32.79v-1.23H7.91v1.32H2.49ZM6,73.82H34.52v9.54H6Zm27.43-5.41v3.76H7.19V68.41ZM7.91,89.14v2.3H17.4v-2.3Zm9.49,8.08v-2.3H7.91v2.3ZM11.22,79.79H29V77.48H11.22Zm21.57,9.35H23v2.3h9.83Zm0,8.08v-2.3H23v2.3Z"/><path d="M70.14,67.05a71.29,71.29,0,0,1-8.54,2.16v5h6.57v4.89H61.56c0,1.6-.1,3.15-.24,4.7h8.05V89H60.45a23.76,23.76,0,0,1-8.72,13.91A24.26,24.26,0,0,0,47,99a19.85,19.85,0,0,0,7.33-10h-8.1V83.78h9.3c.19-1.55.29-3.1.34-4.7H48V74.19h8v-4c-2.69.37-5.42.7-7.91.94a20.32,20.32,0,0,0-1.54-4.61c3.07-.37,6.33-.84,9.45-1.41V58.73H61.6V64c2-.52,3.94-1.08,5.52-1.65Zm20.42-3.2c-1.92,4.56-4.31,9.78-6.42,13.77,4.6,4.14,5.51,7.9,5.51,11,0,3.48-.86,5.78-2.78,7a8.62,8.62,0,0,1-3.6,1.27,40.3,40.3,0,0,1-4.22.1,12.21,12.21,0,0,0-1.53-5.45,26.9,26.9,0,0,0,3.21.09,5.14,5.14,0,0,0,2.11-.47c1-.47,1.3-1.55,1.3-3.2,0-2.54-1.3-5.92-5.76-9.58C80,75,81.79,70.25,83.13,66.63H76.56v36H70.9V61.46H85.48l.91-.24Z"/><path d="M105.56,85V96.19c0,2.72-.52,4.09-2.15,4.89s-3.89,1-7.24,1A18.34,18.34,0,0,0,94.54,97c1.92,0,3.88,0,4.5,0s.92-.23.92-.89V86.46l-4.85,1.22-1.48-5.36c1.82-.37,4-.84,6.33-1.36V72.69H94.25V67.52H100V58.59h5.6v8.93h5v5.17h-5V79.6l3.5-.85.72,5.12Zm30.35-4.79a30.14,30.14,0,0,1-8.24,13.58,41,41,0,0,0,11.07,3.57,25.44,25.44,0,0,0-3.59,5.17,39.66,39.66,0,0,1-12.37-5.07,47.51,47.51,0,0,1-13.09,5A22,22,0,0,0,107,97.36,39.26,39.26,0,0,0,118,93.79a34.43,34.43,0,0,1-6.66-9.07l1.77-.61h-2.73V78.89h20.8l1-.23Zm-24-1.93a21.31,21.31,0,0,0-3.79-4c5.66-2.54,6.38-5.92,6.38-9.17v-5h16.88V70.34c0,1.36.09,1.93.86,1.93h2.54a12.44,12.44,0,0,0,2.68-.33c.1,1.41.24,3.33.44,4.6a8.25,8.25,0,0,1-3,.38h-3.22c-4.69,0-5.7-2-5.7-6.67v-5l-6.19,0C119.8,70,118.41,75.23,111.94,78.28Zm5,5.83a22.63,22.63,0,0,0,5.85,6.58,22.85,22.85,0,0,0,5.56-6.58Z"/><path d="M156.62,60.28a74.74,74.74,0,0,1-3.55,8.32v34.07h-5.18V77.39c-1.15,1.6-2.34,3.15-3.5,4.46a35.43,35.43,0,0,0-2.92-5.5,50.18,50.18,0,0,0,10.07-17.57Zm29.53,5.59v4.56H155.28V65.87H169a43.11,43.11,0,0,0-3-5.59l4.84-1.78a35.9,35.9,0,0,1,3.5,6.2l-2.73,1.17ZM157.92,86.74h25.36V102.3h-5V101H162.76v1.46h-4.84Zm24.73-9.45h-24V72.92h24Zm-24,2.45h24v4.37h-24Zm4.13,11.47v5.31h15.48V91.21Z"/><path d="M197.61,77v25.48h-5.56V60.38H210.5V77Zm0-12.64v2.4h7.53v-2.4Zm7.53,8.6V70.43h-7.53V73Zm14,18.94v9.68h-5V91.91h-4.61c-.47,3.24-2.06,7.8-6.13,10.53a21.2,21.2,0,0,0-3.65-3.2,11,11,0,0,0,4.89-7.33h-4.84V87.35h5V83.83h-4.37V79.41h23.16v4.42h-4.51v3.52h5.28v4.56Zm-5-4.56V83.83h-4.46v3.52ZM232.46,96c0,2.87-.52,4.42-2.25,5.31s-4.22,1.08-7.86,1.08a19.45,19.45,0,0,0-1.73-5.54c2.16.09,4.51.09,5.23,0s1-.29,1-.94V77.11H213.67V60.38h18.79ZM219.09,64.37v2.4h7.76v-2.4Zm7.76,8.7V70.43h-7.76v2.64Z"/><path d="M277,71V90.55h-5.85V88.2H249c-1,5.31-3.11,10.67-7.09,14.52a23.24,23.24,0,0,0-4.41-3.81c6.23-6.2,6.8-15.46,6.8-22.32V63c9.69-.85,20.62-2.44,27.14-4.32l4.51,4.23A168.86,168.86,0,0,1,250,67.1V71Zm-5.85,12V76.17H250v.47c0,1.92-.1,4.13-.29,6.39Z"/></g><path class="cls-3" d="M109.5,37c-1.87-1.5-5.13-3.85-8.2-5.92.14,1.18.43,2.59.62,3.43-6.85,2-9.54,2.92-10.93,3.48a57,57,0,0,0,5.9.24c5.13,0,13-.29,18.46-.8a15.51,15.51,0,0,0-1.87,5.17c-5,.28-11.08.42-16.69.42-8.87,0-14.43-.94-18.07-5.78a21,21,0,0,1-5.42,6.67,18.26,18.26,0,0,0-3.74-3.66c3.84-2.78,6.38-7.48,7.72-13.73H74.5a5.63,5.63,0,0,0-2.93.71,32.48,32.48,0,0,0-1.77-4.47,4,4,0,0,0,2.25-1.5,44.21,44.21,0,0,0,4-6H70.38V10.86H79l.77-.33,3.45,1.31,0,.1H114v3.57H83.08V12.08c-1.58,2.63-4.17,7-6.28,10.15h2.73l.87-.14,2.39,1a55.16,55.16,0,0,1-2.11,9.58c1.87,3.29,4.89,4.7,9.06,5.27a10.58,10.58,0,0,0-1.29-2.78,2.51,2.51,0,0,0,1.63-2.63V31.35a46.67,46.67,0,0,1-4.75,1.78,19.72,19.72,0,0,0-2.68-3.24,50.93,50.93,0,0,0,10.93-4.18h-7V17.15h23.64v8.18l3,2.26a43.36,43.36,0,0,1-5,3.29c1.87,1.27,3.64,2.44,4.84,3.38ZM77.42,10a72.47,72.47,0,0,0-5.75-7.52L75.94,0a73.86,73.86,0,0,1,5.94,7.05Zm34.47.33H85V1.22h26.89ZM92.48,4.28H89.6v3h2.88Zm-.87,18.33h13.33V20.26H91.61Zm8.25,3.1a37.48,37.48,0,0,1-5.27,3.43v3.34l6.18-1.74c-1-.71-2-1.32-2.88-1.93l3.46-2.35c1.1.66,2.3,1.46,3.5,2.21a45.06,45.06,0,0,0,4.07-3ZM99.67,4.28H96.79v3h2.88Zm7.38,0H104v3h3.07Z"/><path class="cls-3" d="M146.89,15.13c5.13,3.62,12.51,9,16,12.74L158,32.15c-3-3.48-9.49-8.84-14.67-12.74V43.75h-6.23V20.82a56.9,56.9,0,0,1-15.25,11.56,33.07,33.07,0,0,0-3.93-5.07A49.88,49.88,0,0,0,138.59,8.84H119.47V3.1H161V8.84H146.12a46.37,46.37,0,0,1-2.78,4.32v4.89Z"/><path class="cls-3" d="M191.57,37.79c1.25.09,2.54.14,3.83.14,2.69,0,11.89,0,15.3-.14a18.84,18.84,0,0,0-1.92,5.31H195.12c-8.78,0-14.72-1.18-18.75-6.63a21.25,21.25,0,0,1-6.71,7.47,23,23,0,0,0-4.32-3.9c4.89-3,7.82-7.94,8.92-14.24l5.71.85c-.34,1.5-.72,2.91-1.11,4.27a10.51,10.51,0,0,0,6.91,5.88V24.86h-18.7V19.93h42.29v4.93H191.57v3.53h14.77v4.84H191.57ZM204.8,17.86H171.53V1.55H204.8ZM199,5.5H177V7.85h22Zm0,6H177v2.4h22Z"/><path class="cls-3" d="M40.9,54.88V65.12H35.19V59.58H5.42v5.54H0V54.88H17.26c-.38-.94-.82-1.93-1.15-2.73L22.29,51a36.42,36.42,0,0,1,1.87,3.9ZM2.49,78.1h36V95.49H32.79V94.26H7.91v1.32H2.49ZM6,66.82H34.52v9.54H6Zm27.43-5.41v3.76H7.19V61.41ZM7.91,82.14v2.3H17.4v-2.3Zm9.49,8.08v-2.3H7.91v2.3ZM11.22,72.79H29V70.48H11.22Zm21.57,9.35H23v2.3h9.83Zm0,8.08v-2.3H23v2.3Z"/><path class="cls-3" d="M70.14,60.05a71.29,71.29,0,0,1-8.54,2.16v5h6.57v4.89H61.56c0,1.6-.1,3.15-.24,4.7h8.05V82H60.45a23.76,23.76,0,0,1-8.72,13.91A24.26,24.26,0,0,0,47,92a19.85,19.85,0,0,0,7.33-10h-8.1V76.78h9.3c.19-1.55.29-3.1.34-4.7H48V67.19h8v-4c-2.69.37-5.42.7-7.91.94a20.32,20.32,0,0,0-1.54-4.61c3.07-.37,6.33-.84,9.45-1.41V51.73H61.6V57c2-.52,3.94-1.08,5.52-1.65Zm20.42-3.2c-1.92,4.56-4.31,9.78-6.42,13.77,4.6,4.14,5.51,7.9,5.51,11,0,3.48-.86,5.78-2.78,7a8.62,8.62,0,0,1-3.6,1.27,40.3,40.3,0,0,1-4.22.1,12.21,12.21,0,0,0-1.53-5.45,26.9,26.9,0,0,0,3.21.09,5.14,5.14,0,0,0,2.11-.47c1-.47,1.3-1.55,1.3-3.2,0-2.54-1.3-5.92-5.76-9.58C80,68,81.79,63.25,83.13,59.63H76.56V95.58H70.9V54.46H85.48l.91-.24Z"/><path class="cls-3" d="M105.56,78V89.19c0,2.72-.52,4.09-2.15,4.89s-3.89,1-7.24,1A18.34,18.34,0,0,0,94.54,90c1.92,0,3.88,0,4.5,0s.92-.23.92-.89V79.46l-4.85,1.22-1.48-5.36c1.82-.37,4-.84,6.33-1.36V65.69H94.25V60.52H100V51.59h5.6v8.93h5v5.17h-5V72.6l3.5-.85.72,5.12Zm30.35-4.79a30.14,30.14,0,0,1-8.24,13.58,41,41,0,0,0,11.07,3.57,25.44,25.44,0,0,0-3.59,5.17,39.66,39.66,0,0,1-12.37-5.07,47.51,47.51,0,0,1-13.09,5A22,22,0,0,0,107,90.36,39.26,39.26,0,0,0,118,86.79a34.43,34.43,0,0,1-6.66-9.07l1.77-.61h-2.73V71.89h20.8l1-.23Zm-24-1.93a21.31,21.31,0,0,0-3.79-4c5.66-2.54,6.38-5.92,6.38-9.17v-5h16.88V63.34c0,1.36.09,1.93.86,1.93h2.54a12.44,12.44,0,0,0,2.68-.33c.1,1.41.24,3.33.44,4.6a8.25,8.25,0,0,1-3,.38h-3.22c-4.69,0-5.7-2-5.7-6.67v-5l-6.19.05C119.8,63,118.41,68.23,111.94,71.28Zm5,5.83a22.63,22.63,0,0,0,5.85,6.58,22.85,22.85,0,0,0,5.56-6.58Z"/><path class="cls-3" d="M156.62,53.28a74.74,74.74,0,0,1-3.55,8.32V95.67h-5.18V70.39c-1.15,1.6-2.34,3.15-3.5,4.46a35.43,35.43,0,0,0-2.92-5.5,50.18,50.18,0,0,0,10.07-17.57Zm29.53,5.59v4.56H155.28V58.87H169a43.11,43.11,0,0,0-3-5.59l4.84-1.78a35.9,35.9,0,0,1,3.5,6.2l-2.73,1.17ZM157.92,79.74h25.36V95.3h-5V94H162.76v1.46h-4.84Zm24.73-9.45h-24V65.92h24Zm-24,2.45h24v4.37h-24Zm4.13,11.47v5.31h15.48V84.21Z"/><path class="cls-3" d="M197.61,70V95.49h-5.56V53.38H210.5V70Zm0-12.64v2.4h7.53v-2.4Zm7.53,8.6V63.43h-7.53V66Zm14,18.94v9.68h-5V84.91h-4.61c-.47,3.24-2.06,7.8-6.13,10.53a21.2,21.2,0,0,0-3.65-3.2,11,11,0,0,0,4.89-7.33h-4.84V80.35h5V76.83h-4.37V72.41h23.16v4.42h-4.51v3.52h5.28v4.56Zm-5-4.56V76.83h-4.46v3.52ZM232.46,89c0,2.87-.52,4.42-2.25,5.31s-4.22,1.08-7.86,1.08a19.45,19.45,0,0,0-1.73-5.54c2.16.09,4.51.09,5.23,0s1-.29,1-.94V70.11H213.67V53.38h18.79ZM219.09,57.37v2.4h7.76v-2.4Zm7.76,8.7V63.43h-7.76v2.64Z"/><path class="cls-3" d="M277,64V83.55h-5.85V81.2H249c-1,5.31-3.11,10.67-7.09,14.52a23.24,23.24,0,0,0-4.41-3.81c6.23-6.2,6.8-15.46,6.8-22.32V56c9.69-.85,20.62-2.44,27.14-4.32l4.51,4.23A168.86,168.86,0,0,1,250,60.1V64Zm-5.85,12V69.17H250v.47c0,1.92-.1,4.13-.29,6.39Z"/></g></g></g></svg>