<svg xmlns="http://www.w3.org/2000/svg" xmlns:xlink="http://www.w3.org/1999/xlink" viewBox="0 0 794.23 68.06"><defs><style>.cls-1{isolation:isolate;}.cls-2{opacity:0.1;mix-blend-mode:multiply;}.cls-3,.cls-5{fill:none;stroke-miterlimit:10;stroke-width:1.5px;}.cls-3{stroke:#000;}.cls-4{fill:url(#未命名漸層_115);}.cls-5{stroke:#fff;}.cls-6{fill:url(#未命名漸層_125);}.cls-7{fill:#fff;}</style><linearGradient id="未命名漸層_115" x1="167.96" y1="60.31" x2="167.96" y2="0.75" gradientUnits="userSpaceOnUse"><stop offset="0" stop-color="#0056a2"/><stop offset="0.97" stop-color="#3797bd"/><stop offset="1" stop-color="#0056a2"/></linearGradient><linearGradient id="未命名漸層_125" x1="626.27" y1="60.31" x2="626.27" y2="0.75" gradientUnits="userSpaceOnUse"><stop offset="0" stop-color="#ea6d2f"/><stop offset="1" stop-color="#df943b"/></linearGradient></defs><g class="cls-1"><g id="圖層_2" data-name="圖層 2"><g id="內頁"><g class="cls-2"><rect x="0.75" y="7.75" width="334.41" height="59.56" rx="29.02"/><rect class="cls-3" x="0.75" y="7.75" width="334.41" height="59.56" rx="29.02"/></g><rect class="cls-4" x="0.75" y="0.75" width="334.41" height="59.56" rx="29.02"/><rect class="cls-5" x="0.75" y="0.75" width="334.41" height="59.56" rx="29.02"/><g class="cls-2"><rect x="459.07" y="7.75" width="334.41" height="59.56" rx="29.02"/><rect class="cls-3" x="459.07" y="7.75" width="334.41" height="59.56" rx="29.02"/></g><rect class="cls-6" x="459.07" y="0.75" width="334.41" height="59.56" rx="29.02"/><rect class="cls-5" x="459.07" y="0.75" width="334.41" height="59.56" rx="29.02"/><path class="cls-7" d="M114.79,37.9c-.07-.41-.13-.88-.23-1.39-5.82.82-6.88,1.14-7.59,1.46a29.42,29.42,0,0,0-1.26-3.38,5.82,5.82,0,0,0,2.61-2.08c.35-.44,1.09-1.3,1.93-2.5a12.66,12.66,0,0,0-3.54.7,27.7,27.7,0,0,0-1.19-3.25c.64-.16,1.16-.76,1.8-1.67a33.46,33.46,0,0,0,3.57-7.64l3.48,1.39A43.5,43.5,0,0,1,110.22,27l2.15-.16a35.3,35.3,0,0,0,2.29-4.23l3.25,2a51.61,51.61,0,0,1-4.28,6.5l2.38-.67A40.32,40.32,0,0,1,117.72,37ZM110,39.39a38.65,38.65,0,0,1-1.45,8,21.76,21.76,0,0,0-2.83-1A27,27,0,0,0,107,38.94Zm3.19-.48a57.69,57.69,0,0,1,.7,6.69l-2.83.48a56.82,56.82,0,0,0-.54-6.69Zm.77-5.27c-.16-.75-.39-1.51-.58-2.17-.71.85-1.42,1.7-2.12,2.49ZM116.17,38a35.55,35.55,0,0,1,1.32,4.35l-2.61.85a30.48,30.48,0,0,0-1.22-4.41Zm9-2.34c-1.06,4.89-3.44,8.52-6.79,10.54a13.93,13.93,0,0,0-2.16-2.62A11.28,11.28,0,0,0,120.9,38H118V35h4.28l.58-.09Zm10.49.22c-1.48,1.11-2.93,2.37-4.25,3.32a13.08,13.08,0,0,0,4.7,4.35,14.55,14.55,0,0,0-2.51,3A15.17,15.17,0,0,1,129,41.28V44c0,1.68-.29,2.59-1.42,3.19s-2.57.6-4.63.6a13.69,13.69,0,0,0-1-3.44c1.19.06,2.51.06,2.89,0s.55-.09.55-.44V33.07h-6.15V21.59h4.57a28.37,28.37,0,0,0,1-3.35l4.38.76c-.48.92-1,1.77-1.45,2.59h6.89V33.07H129v1a26.66,26.66,0,0,0,1,2.53,27.29,27.29,0,0,0,2.87-3.06ZM122.7,26h8.18V24.4H122.7Zm0,4.29h8.18V28.59H122.7Z"/><path class="cls-7" d="M167.66,42.38v3.79H138.41V42.38h11.52V18.62h4.12v9h11.36v3.82H154.05V42.38Z"/><path class="cls-7" d="M175.44,30.61V47.72h-3.73V19.44H184.1V30.61Zm0-8.48v1.61h5.06V22.13Zm5.06,5.77V26.2h-5.06v1.7Zm9.43,12.72v6.5h-3.35v-6.5h-3.09a10.23,10.23,0,0,1-4.12,7.07,14,14,0,0,0-2.45-2.15,7.38,7.38,0,0,0,3.29-4.92H177V37.56h3.38V35.19h-2.93v-3H193v3h-3v2.37h3.54v3.06Zm-3.35-3.06V35.19h-3v2.37Zm12.26,5.77c0,1.93-.35,3-1.51,3.57s-2.83.72-5.28.72a13,13,0,0,0-1.16-3.72c1.45.06,3,.06,3.51,0s.67-.19.67-.63V30.68h-8.84V19.44h12.61Zm-9-21.2v1.61h5.21V22.13ZM195.07,28V26.2h-5.21V28Z"/><path class="cls-7" d="M228.73,26.57V39.7h-3.92V38.12h-14.9c-.71,3.57-2.09,7.17-4.76,9.75a15.11,15.11,0,0,0-3-2.55c4.19-4.17,4.57-10.38,4.57-15V21.18A111.28,111.28,0,0,0,225,18.28l3,2.84A113.32,113.32,0,0,1,210.62,24v2.61Zm-3.92,8.08v-4.6H210.62v.31c0,1.3-.07,2.78-.2,4.29Z"/><path class="cls-7" d="M501.62,37.61c-.07-.41-.13-.89-.23-1.39-5.82.82-6.88,1.14-7.59,1.45a30.12,30.12,0,0,0-1.26-3.38,5.75,5.75,0,0,0,2.61-2.08c.35-.44,1.09-1.29,1.93-2.49a12.44,12.44,0,0,0-3.54.69,29.07,29.07,0,0,0-1.19-3.25c.64-.16,1.16-.75,1.8-1.67a33,33,0,0,0,3.57-7.64l3.48,1.39a43.13,43.13,0,0,1-4.15,7.45l2.15-.16a35.3,35.3,0,0,0,2.29-4.23l3.25,2a50.9,50.9,0,0,1-4.28,6.5l2.38-.66a40,40,0,0,1,1.71,6.56Zm-4.83,1.48a38.76,38.76,0,0,1-1.45,8,20.37,20.37,0,0,0-2.83-1,27.17,27.17,0,0,0,1.35-7.48Zm3.19-.47a57.47,57.47,0,0,1,.7,6.69l-2.83.47a56.82,56.82,0,0,0-.54-6.69Zm.77-5.27c-.16-.76-.39-1.52-.58-2.18-.71.85-1.42,1.7-2.12,2.49ZM503,37.7a35.67,35.67,0,0,1,1.32,4.36l-2.61.85a30.59,30.59,0,0,0-1.22-4.42Zm9-2.33c-1.06,4.89-3.44,8.52-6.79,10.54A13.62,13.62,0,0,0,503,43.29a11.35,11.35,0,0,0,4.7-5.56h-2.89v-3h4.28l.58-.09Zm10.49.22c-1.48,1.1-2.93,2.36-4.25,3.31a13.2,13.2,0,0,0,4.7,4.36,14.49,14.49,0,0,0-2.51,3A15.27,15.27,0,0,1,515.78,41V43.7c0,1.67-.29,2.58-1.42,3.18s-2.57.6-4.63.6a13.69,13.69,0,0,0-1-3.44c1.19.07,2.51.07,2.89,0s.55-.1.55-.45V32.78H506V21.29h4.57a27.69,27.69,0,0,0,1-3.34l4.38.76c-.48.91-1,1.76-1.45,2.58h6.89V32.78h-5.63v1c.29.88.61,1.73,1,2.52a25.67,25.67,0,0,0,2.87-3.06Zm-12.94-9.91h8.18V24.1h-8.18Zm0,4.29h8.18V28.3h-8.18Z"/><path class="cls-7" d="M554.49,42.09v3.78H525.24V42.09h11.52V18.33h4.12v9h11.36v3.82H540.88V42.09Z"/><path class="cls-7" d="M562.27,30.32v17.1h-3.73V19.15h12.39V30.32Zm0-8.49v1.61h5.06V21.83Zm5.06,5.77V25.9h-5.06v1.7Zm9.43,12.72v6.5h-3.35v-6.5h-3.09a10.21,10.21,0,0,1-4.12,7.07,14.85,14.85,0,0,0-2.44-2.15A7.39,7.39,0,0,0,567,40.32h-3.25V37.26h3.38V34.89h-2.93v-3h15.54v3h-3v2.37h3.54v3.06Zm-3.35-3.06V34.89h-3v2.37ZM585.67,43c0,1.93-.35,3-1.51,3.57s-2.83.73-5.28.73a13,13,0,0,0-1.16-3.73c1.45.07,3,.07,3.51,0s.67-.18.67-.63V30.38h-8.84V19.15h12.61Zm-9-21.2v1.61h5.21V21.83Zm5.21,5.84V25.9h-5.21v1.77Z"/><path class="cls-7" d="M615.56,26.28V39.41h-3.92V37.83h-14.9C596,41.39,594.65,45,592,47.58A15.39,15.39,0,0,0,589,45c4.18-4.16,4.56-10.38,4.56-15V20.88A110,110,0,0,0,611.8,18l3,2.84a112.11,112.11,0,0,1-17.37,2.84v2.62Zm-3.92,8.08V29.75H597.45v.32c0,1.29-.07,2.77-.2,4.29Z"/><path class="cls-7" d="M625.71,25.46h1.59v18.4h-1.59Z"/><path class="cls-7" d="M641.18,39.12a38.12,38.12,0,0,1-1.35,7.67,12.85,12.85,0,0,0-2.68-.92,28.39,28.39,0,0,0,1.26-7.19Zm25.48,4.61c0,1.67-.29,2.52-1.28,3.06s-2.42.63-4.48.63a11.52,11.52,0,0,0-.93-3.19c1.09.07,2.32.07,2.74.07s.54-.16.54-.57V22.52H652.92V47.45h-3.41V36.31l-2.57,1.08c-.07-.38-.2-.86-.32-1.33-6.31,1-7.41,1.33-8.08,1.61a24.46,24.46,0,0,0-1-3c.77-.19,1.45-.94,2.41-2.14A30.39,30.39,0,0,0,642,29.72a11.67,11.67,0,0,0-3.63.69c-.2-.63-.68-2.14-1.07-3,.58-.15,1.13-.75,1.74-1.7a36.4,36.4,0,0,0,3.67-7.7l3.06,1.26a48,48,0,0,1-4.22,7.7l2.29-.15c.77-1.42,1.57-2.94,2.25-4.45l2.77,1.76A58,58,0,0,1,642.3,34l3.51-.48c-.26-.75-.51-1.51-.77-2.14l2.44-.92c.75,1.74,1.58,4.07,2,5.52V19.27h17.15Zm-22.27-5.27a62.15,62.15,0,0,1,.87,6.56l-2.67.7a62.92,62.92,0,0,0-.7-6.63Zm3.22-.92a47.64,47.64,0,0,1,1.84,5.91l-2.48.94a50.53,50.53,0,0,0-1.67-6.06Zm12.88,1.55a8.83,8.83,0,0,0,1.86-.19c.07.76.13,1.83.23,2.53a6.62,6.62,0,0,1-2,.18h-2.7c-2.74,0-3.28-1-3.28-3.53V36.22h-.94V33.41h3.25a18.56,18.56,0,0,0-.8-2l1.93-.6H653.5V28h1.74a16.11,16.11,0,0,0-1.19-4.1l2.16-.69a16.89,16.89,0,0,1,1.38,4.16l-1.87.63h2.84a38,38,0,0,0,1.12-4.73l2.58.66c-.45,1.36-.91,2.87-1.29,4.07h1.64v2.81h-3.77a13,13,0,0,1,1,2.18l-1.29.47h4v2.81h-4.86v1.89c0,.7.1,1,.61,1Z"/><path class="cls-7" d="M682.66,43.76c-4.19,1.07-8.63,2.11-12,3l-.87-3.63,5-.92V34.55h-4.44V31.3h4.44V29.06h-2.7V27.7c-.42.35-.84.66-1.26,1A19.54,19.54,0,0,0,669.27,25a21.88,21.88,0,0,0,6.89-7.17L679.28,19c-.16.32-.36.63-.52,1a39.66,39.66,0,0,1,4.86,4.29l-2.28,2.65-.42-.47v2.65h-2.83V31.3h4.24v3.25h-4.24v6.94l2.15-.44-2-.57a48,48,0,0,0,1.19-5.3l2.8.69c-.58,1.77-1.22,3.79-1.74,5.11l1.83-.37Zm-9.4-8.14a33.37,33.37,0,0,1,1.32,5.49l-2.61.73a30.83,30.83,0,0,0-1.22-5.56Zm7.14-9.75c-1-1-2.25-2.18-3.5-3.22a34.55,34.55,0,0,1-2.8,3.22Zm19.05,10.79a50.59,50.59,0,0,1-4.28,3,12.45,12.45,0,0,0,4.77,4.23,14.18,14.18,0,0,0-2.64,3.21c-4.31-2.58-6.7-7.44-8.11-13.41h-1.67v8.71l4.18-1.07a20.38,20.38,0,0,0,.32,3.28c-6.37,1.89-7.53,2.4-8.27,2.94a9.88,9.88,0,0,0-1.25-3.19,2,2,0,0,0,1.31-2V19.18h14.71V33.66h-6a25,25,0,0,0,1.16,3.22A25.3,25.3,0,0,0,696.94,34ZM687.52,22.43v2.46h7.27V22.43Zm0,8h7.27V27.92h-7.27Z"/><path class="cls-7" d="M707,30.32v17.1h-3.73V19.15h12.39V30.32Zm0-8.49v1.61h5V21.83Zm5,5.77V25.9h-5v1.7Zm9.43,12.72v6.5h-3.34v-6.5H715a10.28,10.28,0,0,1-4.12,7.07,14.92,14.92,0,0,0-2.45-2.15,7.36,7.36,0,0,0,3.28-4.92h-3.25V37.26h3.38V34.89h-2.93v-3h15.55v3h-3v2.37H725v3.06Zm-3.34-3.06V34.89h-3v2.37ZM730.35,43c0,1.93-.36,3-1.52,3.57s-2.83.73-5.27.73a13.33,13.33,0,0,0-1.16-3.73c1.45.07,3,.07,3.5,0s.68-.18.68-.63V30.38h-8.85V19.15h12.62Zm-9-21.2v1.61h5.21V21.83Zm5.21,5.84V25.9h-5.21v1.77Z"/><path class="cls-7" d="M760.24,26.28V39.41h-3.93V37.83h-14.9a18.28,18.28,0,0,1-4.76,9.75,15.1,15.1,0,0,0-3-2.56c4.18-4.16,4.57-10.38,4.57-15V20.88A109.91,109.91,0,0,0,756.47,18l3,2.84a112,112,0,0,1-17.38,2.84v2.62Zm-3.93,8.08V29.75H742.12v.32c0,1.29-.06,2.77-.19,4.29Z"/></g></g></g></svg>