<svg xmlns="http://www.w3.org/2000/svg" viewBox="0 0 440 405.01"><defs><style>.cls-1{isolation:isolate;}.cls-2{fill:#ffb115;}.cls-3{opacity:0.1;mix-blend-mode:multiply;}.cls-4{fill:#fff;}.cls-5{fill:#42220d;}</style></defs><g class="cls-1"><g id="圖層_2" data-name="圖層 2"><g id="bg"><rect class="cls-2" width="440" height="405.01"/></g><g id="內頁"><g class="cls-3"><path d="M186.74,84.75c-1.87-1.51-5.13-3.86-8.19-5.93.14,1.18.43,2.59.62,3.43-6.86,2-9.54,2.92-10.93,3.48a57,57,0,0,0,5.9.24c5.12,0,13-.28,18.45-.8a16.05,16.05,0,0,0-1.87,5.17c-5,.28-11.07.42-16.68.42-8.87,0-14.43-.94-18.07-5.78a21,21,0,0,1-5.42,6.67A18.26,18.26,0,0,0,146.81,88c3.83-2.77,6.37-7.47,7.72-13.72h-2.78a5.58,5.58,0,0,0-2.93.7,33.13,33.13,0,0,0-1.77-4.46A4.16,4.16,0,0,0,149.3,69a45.2,45.2,0,0,0,4-6h-5.66V58.57h8.63l.77-.33,3.45,1.32-.05.09h30.83v3.57H160.33V59.79c-1.58,2.63-4.17,7-6.28,10.15h2.73l.86-.14,2.4,1a55.28,55.28,0,0,1-2.11,9.59c1.87,3.29,4.89,4.7,9.06,5.26a10.83,10.83,0,0,0-1.29-2.77,2.54,2.54,0,0,0,1.63-2.64V79.06a44.41,44.41,0,0,1-4.75,1.78,19.72,19.72,0,0,0-2.68-3.24,50.41,50.41,0,0,0,10.93-4.18h-7V64.87h23.63V73l3,2.26a41.18,41.18,0,0,1-5,3.29c1.87,1.27,3.64,2.44,4.84,3.38Zm-32.07-27a75,75,0,0,0-5.75-7.52l4.26-2.49a75.61,75.61,0,0,1,5.95,7Zm34.47.33H162.25V48.93h26.89ZM169.72,52h-2.87v3h2.87Zm-.86,18.33h13.33V68H168.86Zm8.25,3.1a37.6,37.6,0,0,1-5.28,3.43v3.34L178,78.45c-1-.71-2-1.32-2.88-1.93l3.45-2.35c1.11.66,2.3,1.46,3.5,2.21a42.09,42.09,0,0,0,4.08-3ZM176.92,52H174v3h2.88Zm7.38,0h-3.07v3h3.07Z"/><path d="M224.14,62.85c5.13,3.61,12.51,9,16,12.73l-4.84,4.28c-3-3.48-9.49-8.84-14.67-12.74V91.47h-6.23V68.53a57.21,57.21,0,0,1-15.25,11.56A33.56,33.56,0,0,0,195.18,75a50,50,0,0,0,20.66-18.47H196.71V50.81h41.57v5.74H223.37a46.37,46.37,0,0,1-2.78,4.32v4.89Z"/><path d="M268.82,85.5c1.24.09,2.54.14,3.83.14,2.69,0,11.89,0,15.3-.14A19,19,0,0,0,286,90.81H272.36c-8.77,0-14.71-1.18-18.74-6.63a21.35,21.35,0,0,1-6.71,7.47,23,23,0,0,0-4.32-3.9c4.89-3,7.82-7.94,8.92-14.24l5.7.85c-.33,1.5-.71,2.91-1.1,4.28a10.52,10.52,0,0,0,6.9,5.87V72.57H244.32V67.64H286.6v4.93H268.82V76.1h14.76v4.84H268.82Zm13.23-19.93H248.78V49.26h33.27Zm-5.8-12.36h-22v2.35h22Zm0,6h-22v2.39h22Z"/><path d="M118.14,102.59v10.25h-5.7v-5.55H82.66v5.55H77.25V102.59H94.51c-.39-.94-.82-1.92-1.15-2.72l6.18-1.18a36.42,36.42,0,0,1,1.87,3.9Zm-38.4,23.22h36V143.2H110V142H85.16v1.31H79.74Zm3.5-11.28h28.53v9.54H83.24Zm27.42-5.41v3.76H84.44v-3.76Zm-25.5,20.73v2.3h9.49v-2.3Zm9.49,8.08v-2.3H85.16v2.3ZM88.47,120.5H106.2v-2.31H88.47ZM110,129.85h-9.83v2.3H110Zm0,8.08v-2.3h-9.83v2.3Z"/><path d="M147.39,107.76a71.78,71.78,0,0,1-8.54,2.16v5h6.57v4.88H138.8c0,1.6-.09,3.15-.24,4.7h8.06v5.17H137.7A23.77,23.77,0,0,1,129,143.57a23.9,23.9,0,0,0-4.69-3.9,19.87,19.87,0,0,0,7.33-10h-8.1v-5.17h9.3c.19-1.55.29-3.1.34-4.7h-7.92v-4.88h8v-4c-2.68.38-5.41.71-7.91.94a20.29,20.29,0,0,0-1.53-4.61c3.07-.37,6.33-.84,9.44-1.41V99.44h5.66v5.22c2-.52,3.93-1.08,5.51-1.65Zm20.42-3.19c-1.92,4.55-4.32,9.77-6.43,13.77,4.61,4.13,5.52,7.89,5.52,11,0,3.48-.87,5.78-2.78,7a8.61,8.61,0,0,1-3.6,1.26,37.8,37.8,0,0,1-4.22.1,12.34,12.34,0,0,0-1.53-5.45,26.85,26.85,0,0,0,3.21.09,5.14,5.14,0,0,0,2.11-.47c1-.47,1.29-1.55,1.29-3.2,0-2.53-1.29-5.92-5.75-9.58,1.58-3.39,3.4-8.13,4.75-11.75h-6.57v35.95h-5.66V102.17h14.58l.91-.24Z"/><path d="M182.81,125.71V136.9c0,2.73-.53,4.09-2.16,4.89s-3.88,1-7.24,1a18.28,18.28,0,0,0-1.63-5.07c1.92,0,3.89,0,4.51,0s.91-.23.91-.89v-9.73l-4.84,1.22L170.87,123c1.83-.38,4-.85,6.33-1.37V113.4h-5.7v-5.17h5.7V99.3h5.61v8.93h5v5.17h-5v6.91l3.5-.85.72,5.13Zm30.35-4.79a30.16,30.16,0,0,1-8.25,13.58A41.19,41.19,0,0,0,216,138.07a25.89,25.89,0,0,0-3.6,5.17A39.52,39.52,0,0,1,200,138.17a47.27,47.27,0,0,1-13.09,5,21.75,21.75,0,0,0-2.73-5.13,39.26,39.26,0,0,0,11.08-3.57,34.68,34.68,0,0,1-6.67-9.07l1.78-.61h-2.74V119.6h20.81l1-.23Zm-24-1.93a21.31,21.31,0,0,0-3.79-4c5.66-2.54,6.38-5.92,6.38-9.17v-5h16.87v10.24c0,1.36.1,1.93.87,1.93h2.54a11.84,11.84,0,0,0,2.68-.33c.1,1.41.24,3.34.43,4.6a8.22,8.22,0,0,1-3,.38h-3.21c-4.7,0-5.7-2-5.7-6.67v-5l-6.19,0C197.05,110.72,195.66,115.94,189.19,119Zm5,5.83a22.63,22.63,0,0,0,5.85,6.58,23.17,23.17,0,0,0,5.56-6.58Z"/><path d="M233.87,101a73.18,73.18,0,0,1-3.55,8.32v34.07h-5.18V118.1c-1.15,1.6-2.35,3.15-3.5,4.47a35.84,35.84,0,0,0-2.92-5.5,50.23,50.23,0,0,0,10.07-17.58Zm29.53,5.6v4.56H232.53v-4.56h13.71a42.11,42.11,0,0,0-3-5.6l4.85-1.78a35.9,35.9,0,0,1,3.5,6.2l-2.74,1.18Zm-28.24,20.86h25.36V143h-5v-1.32H240v1.46h-4.84ZM259.9,118h-24v-4.37h24Zm-24,2.44h24v4.37h-24ZM240,131.92v5.31h15.49v-5.31Z"/><path d="M274.86,117.72V143.2h-5.57V101.09h18.46v16.63Zm0-12.64v2.4h7.52v-2.4Zm7.52,8.6v-2.53h-7.52v2.53Zm14.05,18.94v9.68h-5v-9.68h-4.6c-.48,3.25-2.06,7.8-6.13,10.53a22,22,0,0,0-3.65-3.2,11,11,0,0,0,4.89-7.33h-4.84v-4.56h5v-3.52h-4.36v-4.42h23.16v4.42h-4.51v3.52h5.27v4.56Zm-5-4.56v-3.52H287v3.52Zm18.27,8.6c0,2.87-.53,4.42-2.25,5.32s-4.22,1.08-7.86,1.08a19.73,19.73,0,0,0-1.73-5.55c2.16.09,4.51.09,5.22.05s1-.28,1-.94v-18.8H290.92V101.09h18.79Zm-13.38-31.58v2.4h7.77v-2.4Zm7.77,8.7v-2.63h-7.77v2.63Z"/><path d="M354.25,111.71v19.55H348.4v-2.35H326.2c-1.06,5.31-3.12,10.67-7.1,14.52a22.25,22.25,0,0,0-4.41-3.8c6.24-6.21,6.81-15.47,6.81-22.33V103.67c9.69-.84,20.62-2.44,27.14-4.32l4.5,4.23a168.45,168.45,0,0,1-25.89,4.23v3.9Zm-5.85,12v-6.86H327.25v.47c0,1.93-.09,4.13-.28,6.39Z"/></g><path class="cls-4" d="M186.74,77.75c-1.87-1.51-5.13-3.86-8.19-5.93.14,1.18.43,2.59.62,3.43-6.86,2-9.54,2.92-10.93,3.48a57,57,0,0,0,5.9.24c5.12,0,13-.28,18.45-.8a16.05,16.05,0,0,0-1.87,5.17c-5,.28-11.07.42-16.68.42-8.87,0-14.43-.94-18.07-5.78a21,21,0,0,1-5.42,6.67A18.26,18.26,0,0,0,146.81,81c3.83-2.77,6.37-7.47,7.72-13.72h-2.78a5.58,5.58,0,0,0-2.93.7,33.13,33.13,0,0,0-1.77-4.46A4.16,4.16,0,0,0,149.3,62a45.2,45.2,0,0,0,4-6h-5.66V51.57h8.63l.77-.33,3.45,1.32-.05.09h30.83v3.57H160.33V52.79c-1.58,2.63-4.17,7-6.28,10.15h2.73l.86-.14,2.4,1a55.28,55.28,0,0,1-2.11,9.59c1.87,3.29,4.89,4.7,9.06,5.26a10.83,10.83,0,0,0-1.29-2.77,2.54,2.54,0,0,0,1.63-2.64V72.06a44.41,44.41,0,0,1-4.75,1.78,19.72,19.72,0,0,0-2.68-3.24,50.41,50.41,0,0,0,10.93-4.18h-7V57.87h23.63V66l3,2.26a41.18,41.18,0,0,1-5,3.29c1.87,1.27,3.64,2.44,4.84,3.38Zm-32.07-27a75,75,0,0,0-5.75-7.52l4.26-2.49a75.61,75.61,0,0,1,5.95,7Zm34.47.33H162.25V41.93h26.89ZM169.72,45h-2.87v3h2.87Zm-.86,18.33h13.33V61H168.86Zm8.25,3.1a37.6,37.6,0,0,1-5.28,3.43v3.34L178,71.45c-1-.71-2-1.32-2.88-1.93l3.45-2.35c1.11.66,2.3,1.46,3.5,2.21a42.09,42.09,0,0,0,4.08-3ZM176.92,45H174v3h2.88Zm7.38,0h-3.07v3h3.07Z"/><path class="cls-4" d="M224.14,55.85c5.13,3.61,12.51,9,16,12.73l-4.84,4.28c-3-3.48-9.49-8.84-14.67-12.74V84.47h-6.23V61.53a57.21,57.21,0,0,1-15.25,11.56A33.56,33.56,0,0,0,195.18,68a50,50,0,0,0,20.66-18.47H196.71V43.81h41.57v5.74H223.37a46.37,46.37,0,0,1-2.78,4.32v4.89Z"/><path class="cls-4" d="M268.82,78.5c1.24.09,2.54.14,3.83.14,2.69,0,11.89,0,15.3-.14A19,19,0,0,0,286,83.81H272.36c-8.77,0-14.71-1.18-18.74-6.63a21.35,21.35,0,0,1-6.71,7.47,23,23,0,0,0-4.32-3.9c4.89-3,7.82-7.94,8.92-14.24l5.7.85c-.33,1.5-.71,2.91-1.1,4.28a10.52,10.52,0,0,0,6.9,5.87V65.57H244.32V60.64H286.6v4.93H268.82V69.1h14.76v4.84H268.82Zm13.23-19.93H248.78V42.26h33.27Zm-5.8-12.36h-22v2.35h22Zm0,6h-22v2.39h22Z"/><path class="cls-4" d="M118.14,95.59v10.25h-5.7v-5.55H82.66v5.55H77.25V95.59H94.51c-.39-.94-.82-1.92-1.15-2.72l6.18-1.18a36.42,36.42,0,0,1,1.87,3.9Zm-38.4,23.22h36V136.2H110V135H85.16v1.31H79.74Zm3.5-11.28h28.53v9.54H83.24Zm27.42-5.41v3.76H84.44v-3.76Zm-25.5,20.73v2.3h9.49v-2.3Zm9.49,8.08v-2.3H85.16v2.3ZM88.47,113.5H106.2v-2.31H88.47ZM110,122.85h-9.83v2.3H110Zm0,8.08v-2.3h-9.83v2.3Z"/><path class="cls-4" d="M147.39,100.76a71.78,71.78,0,0,1-8.54,2.16v5h6.57v4.88H138.8c0,1.6-.09,3.15-.24,4.7h8.06v5.17H137.7A23.77,23.77,0,0,1,129,136.57a23.9,23.9,0,0,0-4.69-3.9,19.87,19.87,0,0,0,7.33-10h-8.1v-5.17h9.3c.19-1.55.29-3.1.34-4.7h-7.92v-4.88h8v-4c-2.68.38-5.41.71-7.91.94a20.29,20.29,0,0,0-1.53-4.61c3.07-.37,6.33-.84,9.44-1.41V92.44h5.66v5.22c2-.52,3.93-1.08,5.51-1.65Zm20.42-3.19c-1.92,4.55-4.32,9.77-6.43,13.77,4.61,4.13,5.52,7.89,5.52,11,0,3.48-.87,5.78-2.78,7a8.61,8.61,0,0,1-3.6,1.26,37.8,37.8,0,0,1-4.22.1,12.34,12.34,0,0,0-1.53-5.45,26.85,26.85,0,0,0,3.21.09,5.14,5.14,0,0,0,2.11-.47c1-.47,1.29-1.55,1.29-3.2,0-2.53-1.29-5.92-5.75-9.58,1.58-3.39,3.4-8.13,4.75-11.75h-6.57v35.95h-5.66V95.17h14.58l.91-.24Z"/><path class="cls-4" d="M182.81,118.71V129.9c0,2.73-.53,4.09-2.16,4.89s-3.88,1-7.24,1a18.28,18.28,0,0,0-1.63-5.07c1.92,0,3.89,0,4.51,0s.91-.23.91-.89v-9.73l-4.84,1.22L170.87,116c1.83-.38,4-.85,6.33-1.37V106.4h-5.7v-5.17h5.7V92.3h5.61v8.93h5v5.17h-5v6.91l3.5-.85.72,5.13Zm30.35-4.79a30.16,30.16,0,0,1-8.25,13.58A41.19,41.19,0,0,0,216,131.07a25.89,25.89,0,0,0-3.6,5.17A39.52,39.52,0,0,1,200,131.17a47.27,47.27,0,0,1-13.09,5,21.75,21.75,0,0,0-2.73-5.13,39.26,39.26,0,0,0,11.08-3.57,34.68,34.68,0,0,1-6.67-9.07l1.78-.61h-2.74V112.6h20.81l1-.23Zm-24-1.93a21.31,21.31,0,0,0-3.79-4c5.66-2.54,6.38-5.92,6.38-9.17v-5h16.87v10.24c0,1.36.1,1.93.87,1.93h2.54a11.84,11.84,0,0,0,2.68-.33c.1,1.41.24,3.34.43,4.6a8.22,8.22,0,0,1-3,.38h-3.21c-4.7,0-5.7-2-5.7-6.67V99l-6.19,0C197.05,103.72,195.66,108.94,189.19,112Zm5,5.83a22.63,22.63,0,0,0,5.85,6.58,23.17,23.17,0,0,0,5.56-6.58Z"/><path class="cls-4" d="M233.87,94a73.18,73.18,0,0,1-3.55,8.32v34.07h-5.18V111.1c-1.15,1.6-2.35,3.15-3.5,4.47a35.84,35.84,0,0,0-2.92-5.5,50.23,50.23,0,0,0,10.07-17.58Zm29.53,5.6v4.56H232.53V99.59h13.71a42.11,42.11,0,0,0-3-5.6l4.85-1.78a35.9,35.9,0,0,1,3.5,6.2l-2.74,1.18Zm-28.24,20.86h25.36V136h-5v-1.32H240v1.46h-4.84ZM259.9,111h-24v-4.37h24Zm-24,2.44h24v4.37h-24ZM240,124.92v5.31h15.49v-5.31Z"/><path class="cls-4" d="M274.86,110.72V136.2h-5.57V94.09h18.46v16.63Zm0-12.64v2.4h7.52v-2.4Zm7.52,8.6v-2.53h-7.52v2.53Zm14.05,18.94v9.68h-5v-9.68h-4.6c-.48,3.25-2.06,7.8-6.13,10.53a22,22,0,0,0-3.65-3.2,11,11,0,0,0,4.89-7.33h-4.84v-4.56h5v-3.52h-4.36v-4.42h23.16v4.42h-4.51v3.52h5.27v4.56Zm-5-4.56v-3.52H287v3.52Zm18.27,8.6c0,2.87-.53,4.42-2.25,5.32s-4.22,1.08-7.86,1.08a19.73,19.73,0,0,0-1.73-5.55c2.16.09,4.51.09,5.22.05s1-.28,1-.94v-18.8H290.92V94.09h18.79ZM296.33,98.08v2.4h7.77v-2.4Zm7.77,8.7v-2.63h-7.77v2.63Z"/><path class="cls-4" d="M354.25,104.71v19.55H348.4v-2.35H326.2c-1.06,5.31-3.12,10.67-7.1,14.52a22.25,22.25,0,0,0-4.41-3.8c6.24-6.21,6.81-15.47,6.81-22.33V96.67c9.69-.84,20.62-2.44,27.14-4.32l4.5,4.23a168.45,168.45,0,0,1-25.89,4.23v3.9Zm-5.85,12v-6.86H327.25v.47c0,1.93-.09,4.13-.28,6.39Z"/><path class="cls-5" d="M41.48,166.12a26,26,0,0,1-2,3.43v9.72H37.83v-7.59a22.53,22.53,0,0,1-2.19,2.26,10.66,10.66,0,0,0-1.12-1.39,21.12,21.12,0,0,0,5.45-7Zm-6.66,19.7a24.44,24.44,0,0,0,2.3-5.18l1.53.67a40.73,40.73,0,0,1-2.23,5.28Zm13.56-.36c1.26,0,1.46-.36,1.58-2.78a4.29,4.29,0,0,0,1.57.67c-.23,3-.77,3.77-3,3.77H43.07c-2.69,0-3.39-.51-3.39-2.45v-4.15h1.68v4.12c0,.7.28.82,1.78.82Zm-4-16A16.18,16.18,0,0,1,42,172.67a9.39,9.39,0,0,0-1.28-1.13,14.41,14.41,0,0,0,3.63-5.86l1.57.41q-.34.9-.75,1.8h8.52l.28-.07,1.16.34a42,42,0,0,1-1.85,4l-1.43-.32c.32-.62.73-1.48,1.09-2.35Zm1.5,3.24a16.12,16.12,0,0,1-3.12,5,9,9,0,0,0-1.28-1,12.29,12.29,0,0,0,2.85-4.46Zm.46,11a20.69,20.69,0,0,0-3.21-4.22l1.29-.77a20.37,20.37,0,0,1,3.33,4.11Zm3-4.51H47.68v-8.83H49.3Zm2.64-7a21.51,21.51,0,0,1,2.87,4.73l-1.46.81a22.6,22.6,0,0,0-2.78-4.87Zm.66,8a22.91,22.91,0,0,1,2.53,5.37l-1.62.7a21.44,21.44,0,0,0-2.39-5.47Z"/><path class="cls-5" d="M78,169.12H75.17V185c0,1.28-.29,1.92-1.16,2.19a17,17,0,0,1-4.72.33,8.65,8.65,0,0,0-.73-1.89c1.83.09,3.7.07,4.22.05s.66-.2.66-.7V169.12H57.8v-1.78H78Zm-16.21,12.4v1.92H60.13V172.62h9.25v8.9Zm0-7.17v5.47h5.95v-5.47Z"/><path class="cls-5" d="M85.82,177.37a25.48,25.48,0,0,1-1.27,5.21c1.5,2.66,4.37,3,8.68,3,2.42,0,5.72-.12,8.07-.34a5.84,5.84,0,0,0-.55,1.73c-2.14.12-5,.19-7.52.19-4.63,0-7.52-.48-9.3-3.19a11.07,11.07,0,0,1-2.8,3.6A5.24,5.24,0,0,0,80,186.4c2-1.49,3.42-4.16,4.1-7.85h-2a2.55,2.55,0,0,0-1.3.33,8.94,8.94,0,0,0-.59-1.6,1.84,1.84,0,0,0,1-.7,36.43,36.43,0,0,0,2.28-3.94h-3v-1.48h3.92l.27-.12,1.12.48c-.77,1.36-2.19,3.93-3.24,5.56h2.22l.29,0Zm-2.09-6.93a35.39,35.39,0,0,0-2.88-3.82l1.26-.82A37.83,37.83,0,0,1,85,169.45ZM100.8,180.8H86v-1.39h4.08V177.2H86.92v-1.39h3.14v-1.73h1.58v1.73h3.55v-1.73h1.57v1.73h3.31v1.39H96.76v2.21h4ZM93,171.66a9.26,9.26,0,0,0-.14,1.27c-5.06,1-5.72,1.11-6.11,1.35a7.91,7.91,0,0,0-.59-1.44c.25-.15.59-.44.59-1.35v-4.9h6v4H88.15v1.82Zm-.71,9.91a19.92,19.92,0,0,1-4.6,3.17,6.43,6.43,0,0,0-1.3-1.1,16.59,16.59,0,0,0,4.4-2.62Zm-4.17-13.78v1.61h3.21v-1.61Zm3.49,11.62h3.55V177.2H91.64Zm4.3-5.73c-1.57,0-2-.6-2-2.21v-4.85h6.18v4H95.4v.84c0,.67.09.89.59.89h3.1a9.2,9.2,0,0,0,1.48-.1,12.23,12.23,0,0,0,.14,1.28,7.52,7.52,0,0,1-1.57.12Zm3,11a21.35,21.35,0,0,0-4.33-2.83l1.14-.81a28.84,28.84,0,0,1,4.7,2.83ZM95.4,167.82v1.61h3.28v-1.61Z"/><path class="cls-5" d="M109.81,177.4c-.78.28-1.53.57-2.28.81v7.15c0,1-.23,1.47-.8,1.76a6.74,6.74,0,0,1-2.83.33,7,7,0,0,0-.5-1.68c1,0,1.89,0,2.15,0s.38-.1.38-.41v-6.6c-.89.33-1.75.62-2.55.89L103,178c.82-.24,1.85-.57,3-1v-4.89H103.2v-1.66h2.73v-4.78h1.6v4.78h2.3v1.66h-2.3v4.36l2-.72Zm13.9,6.88H117.6v3.29H116v-3.29h-6.18v-1.39H116v-1.73h-5.41v-1.39h3a15.93,15.93,0,0,0-.77-1.94l1.3-.34h-4v-1.41H116V174.4h-4.88V173H116v-1.42h-5.13v-5.06h12.26v5.06H117.6V173h5v1.37h-5v1.68h5.77v1.41h-3.6l1.35.39c-.35.64-.71,1.32-1,1.89h2.8v1.39H117.6v1.73h6.09Zm-9.3-16.44h-2.16v2.5h2.16Zm-.18,9.65a10.75,10.75,0,0,1,.89,2.21l-.23.07h3.67c.32-.69.73-1.61,1-2.28Zm1.53-7.15H118v-2.5h-2.28Zm3.62,0h2.3v-2.5h-2.3Z"/><path class="cls-5" d="M127,177h8.25V187.4h-1.66v-.69h-5v.89H127Zm1.6,1.59V181h5V178.6Zm5,6.55v-2.71h-5v2.71Zm8.82-9.75H130.08v-8.88h12.35ZM140.77,168h-9.05v2.18h9.05Zm0,3.62h-9.05v2.23h9.05Zm4.85,5.35V187.4h-1.68v-.69h-5v.89h-1.64V177Zm-6.72,1.59V181h5V178.6Zm5,6.55v-2.71h-5v2.71Z"/><path class="cls-5" d="M165.16,177.2v10.37h-1.75V179h-9.58a15.52,15.52,0,0,1-3.37,8.66,7.71,7.71,0,0,0-1.28-1.34c2.88-3.46,3.2-8,3.2-12.31v-8.07h1.68v5.67h8.57v-5.91h1.71v7.66H154.06V174c0,1.08,0,2.16-.09,3.21Z"/><path class="cls-5" d="M182.68,174.44v3.27h7.95v1.63h-7.95v5.86h9v1.65H172.08V185.2h8.84v-5.86H173.1v-1.63h7.82v-3.27H176v-1.32a23.13,23.13,0,0,1-3.63,1.73,7.66,7.66,0,0,0-1.14-1.61c4.24-1.46,8.44-4.27,10.6-7.82l1.55.77c-.16.26-.36.57-.57.86a24.59,24.59,0,0,0,9.74,6.19,6.76,6.76,0,0,0-1.19,1.54,24.49,24.49,0,0,1-3.67-1.82v1.48Zm-6.25,5.43a21.36,21.36,0,0,1,2.17,4.29l-1.49.65a20.2,20.2,0,0,0-2.09-4.34Zm11-7.08a26.73,26.73,0,0,1-5.54-4.51,24,24,0,0,1-5.34,4.51Zm-2.67,11.49a27.84,27.84,0,0,0,2.37-4.41l1.62.65a47.27,47.27,0,0,1-2.71,4.34Z"/><path class="cls-5" d="M194.56,166.69h10.69v1.56H194.56Zm10.35,18.89c0,.77-.14,1.18-.64,1.44a6.73,6.73,0,0,1-2.44.24,5.33,5.33,0,0,0-.44-1.39c.85,0,1.6,0,1.81,0s.29-.09.29-.33V177.2h-7.25v10.3h-1.36V175.81h10Zm-.76-11.11h-8.5v-4.85h8.5Zm-3.6,7.77v4.66h-1.3v-4.66H196.9V181H200a22.22,22.22,0,0,0,1.53-3.41l1.14.48c-.48,1-1,2-1.5,2.93h1.59v1.22Zm2.08-11.32h-5.5v2.25h5.5Zm-4.43,6.79a14.12,14.12,0,0,1,1.33,2.78l-1,.41a14,14,0,0,0-1.28-2.83Zm15.66,9.86a16,16,0,0,0-.38-2c-2.65.53-5.38,1-7.43,1.44l-.41-1.65c1-.15,2.34-.36,3.76-.63v-5.35H206v-9h3.38v-4.56h1.5v4.56h3.31v9H210.9v5.14l2.19-.41c-.3-1-.66-2.11-1-3l1.23-.33a31.88,31.88,0,0,1,1.9,6.41Zm-6.56-9.72h2.21v-5.93H207.3Zm5.58-5.93h-2.09v5.93h2.09Z"/><path class="cls-5" d="M237.6,174.44v1.76h-9.71v11.37h-1.76V176.2h-8.8v-1.76h8.73v-8.81h1.76V169h7.48v1.71h-7.48v3.69Zm-8.5,4.35c2.34.93,5.74,2.4,7.47,3.31l-.91,1.58c-1.69-1-5-2.52-7.45-3.52Z"/><path class="cls-5" d="M246,166.67h1.5L240.63,190h-1.52Z"/><path class="cls-5" d="M251.12,181.21A32.05,32.05,0,0,1,250,187a6.29,6.29,0,0,0-1.23-.48,30.37,30.37,0,0,0,1.07-5.52Zm4.52-6.45a40.63,40.63,0,0,1,1.52,4.58l-1.27.53c-.07-.34-.19-.75-.28-1.15-5.08.84-5.79,1-6.2,1.24a7.41,7.41,0,0,0-.48-1.56c.46-.09,1-.69,1.62-1.6a30.64,30.64,0,0,0,1.87-2.81,11,11,0,0,0-3.15.57,11.83,11.83,0,0,0-.47-1.53c.34-.1.75-.6,1.2-1.32a32.54,32.54,0,0,0,2.92-6.05l1.44.65a38.72,38.72,0,0,1-3.44,6.43l2.39-.24a34.08,34.08,0,0,0,1.66-3.31l1.33.84a46.92,46.92,0,0,1-5,8l3.94-.58c-.25-.77-.54-1.54-.79-2.23Zm-2.26,6.14a46.65,46.65,0,0,1,.64,5l-1.28.34a50.73,50.73,0,0,0-.57-5.14Zm2.37-.62a36.81,36.81,0,0,1,1.32,4.6l-1.16.46a37.51,37.51,0,0,0-1.28-4.66Zm13.31,5.28c0,1-.18,1.41-.77,1.7a7.1,7.1,0,0,1-2.87.31A5.84,5.84,0,0,0,265,186c1,0,1.87,0,2.15,0s.38-.12.38-.45V168.37H259V187.6h-1.53V166.79h11.6Zm-3.67-4a6.71,6.71,0,0,0,1.35-.12c0,.4.09,1,.13,1.32a6.21,6.21,0,0,1-1.45.12H262.5c-1.51,0-1.85-.58-1.85-2.16v-2.33h-.84V177h3.1a15.49,15.49,0,0,0-.89-2.11l1.05-.43h-3.49v-1.42h4.33a27,27,0,0,0,1.07-4l1.26.39c-.35,1.17-.78,2.54-1.14,3.57H267v1.42H263.2a19.81,19.81,0,0,1,1,2.16l-.82.38h3.37v1.42h-4.7v2.35c0,.62.07.82.55.82Zm-4-12.56a11.88,11.88,0,0,1,1.23,3.41l-1.09.41a13.25,13.25,0,0,0-1.19-3.43Z"/><path class="cls-5" d="M280.28,183.23l.16,1.51c-2.89.72-6,1.51-8.21,2l-.45-1.7c1-.2,2.32-.48,3.71-.8v-6.84H272v-1.58h3.46v-2.59h-2.25v-1.15c-.34.31-.69.6-1,.86a10.7,10.7,0,0,0-.77-1.68,16.51,16.51,0,0,0,4.9-5.62l1.43.56c-.13.26-.27.55-.45.84a38.7,38.7,0,0,1,3.62,3.36l-1.05,1.27a34.29,34.29,0,0,0-3.42-3.34,21.73,21.73,0,0,1-2.8,3.34h5.7v1.56H277v2.59h3.17v1.58H277V184Zm-6.47-4.54a27.16,27.16,0,0,1,1,4.44l-1.25.36a29.87,29.87,0,0,0-.94-4.49Zm3.76,4a35.61,35.61,0,0,0,1.12-4.36l1.32.43c-.44,1.44-.94,3.21-1.37,4.32Zm14.66-3.52a30.55,30.55,0,0,1-3.63,2.68,10.18,10.18,0,0,0,3.95,3.92,5.94,5.94,0,0,0-1.17,1.49c-3.12-1.85-5.13-5.6-6.2-10.09h-1.91V185l3.78-1.12a11,11,0,0,0,.16,1.58c-4.76,1.56-5.47,1.83-5.9,2.16a5.07,5.07,0,0,0-.59-1.53,1.48,1.48,0,0,0,.91-1.45V166.71h9.66V177.2h-4.63a17.07,17.07,0,0,0,1.26,3.39,23.72,23.72,0,0,0,3.17-2.64Zm-9-10.92v2.88h6.38v-2.88Zm0,7.34h6.38v-3h-6.38Z"/><path class="cls-5" d="M300.85,180.2c-.05-.4-.14-.88-.23-1.36-4.54.69-5.24.86-5.65,1.1-.1-.38-.37-1.22-.55-1.7.48-.12,1-.7,1.66-1.59A26.52,26.52,0,0,0,298,174a14.49,14.49,0,0,0-3.12.55c-.09-.34-.37-1.18-.55-1.61.39-.09.78-.6,1.21-1.32a30.17,30.17,0,0,0,2.92-6l1.57.67a38.52,38.52,0,0,1-3.44,6.36l2.37-.24a32.29,32.29,0,0,0,1.69-3.19l1.5.91a49,49,0,0,1-5.08,7.76l3.28-.46c-.2-.82-.43-1.66-.68-2.38l1.3-.36a36.67,36.67,0,0,1,1.32,5.09Zm-4.11,1a33.61,33.61,0,0,1-1.16,5.91,8.59,8.59,0,0,0-1.3-.53,25.68,25.68,0,0,0,1.1-5.62Zm2.12-.29c.25,1.64.51,3.72.57,5.12l-1.34.24a42.89,42.89,0,0,0-.5-5.12Zm2-.57a26.61,26.61,0,0,1,1.14,3.84l-1.25.43a30.48,30.48,0,0,0-1.07-3.91Zm6.87-1.47a11.54,11.54,0,0,1-5.11,7.56,6.82,6.82,0,0,0-1-1.27,9.32,9.32,0,0,0,4.17-5.11H302.9v-1.49h3.6l.27-.07Zm7-.38c-1,1-2.19,2.09-3.2,2.88a10.21,10.21,0,0,0,3.72,3.75,7.24,7.24,0,0,0-1.12,1.41,12.71,12.71,0,0,1-4.3-5.45v4.51c0,.92-.19,1.4-.8,1.69a8,8,0,0,1-3,.31,7.55,7.55,0,0,0-.5-1.66,22.51,22.51,0,0,0,2.3,0c.3,0,.39-.09.39-.38v-9h-4.54v-8.4h3.49a17.8,17.8,0,0,0,.77-2.55l1.9.41-1,2.14h5.13v8.4h-4.17v.86A14.21,14.21,0,0,0,311,180.2a27.57,27.57,0,0,0,2.55-2.78Zm-9.46-6.82h7.09V169.6h-7.09Zm0,3.48h7.09V173h-7.09Z"/><path class="cls-5" d="M337.76,184.64v1.78H317.45v-1.78H326V166h1.78v7.34h8.48v1.78h-8.48v9.5Z"/><path class="cls-5" d="M342.75,174.68v12.89h-1.66v-20.9h8.25v8Zm0-6.64V170h5V168Zm5,5.28v-2.07h-5v2.07Zm5.65,8.44v5.36h-1.5v-5.36h-3.24a7.83,7.83,0,0,1-3.06,5.67,6.23,6.23,0,0,0-1.11-1.06,6.11,6.11,0,0,0,2.69-4.61h-2.85v-1.51h2.89v-2.59h-2.46V176.2H356v1.46h-2.6v2.59h3.1v1.51Zm-1.5-1.51v-2.59h-3.2v2.59Zm7.91,5c0,1.06-.23,1.64-.89,1.95a10.2,10.2,0,0,1-3.54.31,6,6,0,0,0-.54-1.78c1.25.05,2.48.05,2.82,0s.48-.15.48-.53V174.71h-6.79v-8h8.46ZM353,168V170h5.17V168Zm5.17,5.3v-2.09H353v2.09Z"/><path class="cls-5" d="M380.83,171.85v9.39h-1.69V180H367.29a13.88,13.88,0,0,1-3.29,7.66,6.46,6.46,0,0,0-1.3-1.2c2.9-3.1,3.2-7.56,3.2-11v-7.27a73.6,73.6,0,0,0,12.85-2.47l1.39,1.34a79.93,79.93,0,0,1-12.56,2.45v2.35Zm-1.69,6.43v-4.77H367.58v1.94c0,.89,0,1.83-.11,2.83Z"/><path class="cls-5" d="M393.62,179.94c1.76-.77,2.76-1.9,2.87-3.53a1.71,1.71,0,0,1-.39,0,1.61,1.61,0,0,1-1.71-1.71,1.64,1.64,0,0,1,1.74-1.73c1.25,0,1.93,1.08,1.93,2.76a5.68,5.68,0,0,1-3.94,5.45Z"/><path class="cls-5" d="M32.8,219.43c4.9-5.14,7.66-8.21,7.66-11,0-1.94-1-3.33-3.08-3.33a4.69,4.69,0,0,0-3.46,2l-1.21-1.23a6.29,6.29,0,0,1,4.93-2.59c3,0,4.85,2,4.85,5,0,3.21-2.78,6.4-6.63,10.68.86-.08,1.87-.17,2.73-.17h4.72v1.89H32.8Z"/><path class="cls-5" d="M51.47,201.21a36.58,36.58,0,0,1-1.82,4.66v16.7H48V208.94a22.64,22.64,0,0,1-2.21,3.17,10.7,10.7,0,0,0-.89-1.8,28.07,28.07,0,0,0,5-9.56Zm14,.89v20.23H63.88v-1.22h-10v1.41H52.27V202.1Zm-1.61,17.42V203.66h-10v15.86Zm-4.29-11v2.64h2.62v6.38H55.72v-6.38H58.2v-2.64H54.78v-1.37H58.2v-2.71h1.39v2.71H63.1v1.37Zm1.28,4H57v3.72h3.86Z"/><path class="cls-5" d="M88.84,219v1.77H68.51V219h9.16V205.17h-8v-1.82h18v1.82H79.52V219Z"/><path class="cls-5" d="M98.21,201.28a37.38,37.38,0,0,1-2.32,5.14v16.1H94.2V209.18A22.26,22.26,0,0,1,91.94,212a8.45,8.45,0,0,0-1-1.78,26.93,26.93,0,0,0,5.64-9.53Zm6.66,5.07v3.43h6.5v1.66h-6.5v3.62h6.82v1.68h-6.82v5.81h-1.71v-16.2h-1.57a26.24,26.24,0,0,1-3.24,5,11.11,11.11,0,0,0-1.32-1.2,25.69,25.69,0,0,0,5-9.19l1.62.45c-.36,1.11-.8,2.19-1.25,3.24h9.48v1.71Z"/><path class="cls-5" d="M131.75,202.29v19.9H130v-1.47h-11.3v1.57H117v-20ZM118.67,204v6.48H130V204ZM130,219v-6.69h-11.3V219Z"/><path class="cls-5" d="M156,220.22c0,1.13-.23,1.7-1,2a14.36,14.36,0,0,1-4,.28,6.84,6.84,0,0,0-.57-1.8c1.48.05,2.89.05,3.35,0s.5-.15.5-.53v-12.5h-5.81c.86,3.67,2.57,6.31,5.56,7.65a10.2,10.2,0,0,0-1.19,1.56c-3-1.56-4.74-4.25-5.72-7.85a11.85,11.85,0,0,1-5.86,8,7.66,7.66,0,0,0-1.14-1.41,10.67,10.67,0,0,0,5.7-7.92h-5.92v14.83h-1.69V206h8.3c-.12-.84-.21-1.72-.25-2.66h-4.11v-1.59h5.54a40.88,40.88,0,0,0,.41,4.25H156Z"/><path class="cls-5" d="M167.11,214.39a49.59,49.59,0,0,1,3.17,6.12l-1.52.89c-.25-.65-.62-1.52-1-2.4-5.75,2.13-6.5,2.47-7,2.85A7.24,7.24,0,0,0,160,220a1.59,1.59,0,0,0,1-1.51V201.91h8.69v11.25h-7V219l4.33-1.48c-.43-.84-.91-1.71-1.32-2.45Zm-4.44-10.88v3.13H168v-3.13Zm5.33,8.05v-3.32h-5.33v3.32Zm11.22,4.22c0,1-.21,1.51-.82,1.8a8.09,8.09,0,0,1-3.31.31,6,6,0,0,0-.5-1.7c1.19.05,2.24.05,2.53,0s.44-.09.44-.43V203.73h-4.13v18.84h-1.67V202.05h7.46Z"/><path class="cls-5" d="M202.77,204.12H200V220c0,1.28-.3,1.92-1.16,2.19a17.09,17.09,0,0,1-4.72.33,9.8,9.8,0,0,0-.73-1.89c1.82.09,3.69.07,4.21.05s.67-.2.67-.7V204.12H182.6v-1.78h20.17Zm-16.21,12.4v1.92h-1.64V207.62h9.26v8.9Zm0-7.17v5.47h5.95v-5.47Z"/><path class="cls-5" d="M223.16,220.53c.86,0,1-.43,1.09-3.17a4.44,4.44,0,0,0,1.55.7c-.2,3.31-.68,4.13-2.49,4.13h-3.48c-2.08,0-2.6-.55-2.6-2.45v-6h-4c-.35,5-1.53,7.56-7.18,8.84a4.58,4.58,0,0,0-.89-1.49c5.13-1.06,6.08-3.1,6.36-7.35h-6.07v-1.7h20v1.7h-6.56v6c0,.69.15.81,1.09.81Zm-15.48-11.88H206V203.4h8.8a21.12,21.12,0,0,0-1.14-2.45l1.71-.51a21.09,21.09,0,0,1,1.44,3h8v5.25h-1.73V205.1H207.68Zm1.59.65v-1.66h12.31v1.66Z"/><path class="cls-5" d="M247.07,208.77a27.44,27.44,0,0,1-4,8.11c.84,2.36,1.89,3.72,3.05,3.72.64,0,.92-1.24,1.08-4.44a3.87,3.87,0,0,0,1.45,1c-.31,4.09-.93,5.26-2.66,5.26s-3.13-1.46-4.17-3.94a20.61,20.61,0,0,1-4.7,4,9.91,9.91,0,0,0-1.23-1.42,18.35,18.35,0,0,0,5.24-4.44,49.06,49.06,0,0,1-1.66-10.1h-7.87v3.12h5.82v.77c-.12,5.37-.25,7.39-.73,8a1.73,1.73,0,0,1-1.37.7,24,24,0,0,1-2.71,0,4,4,0,0,0-.48-1.68c1,.09,2,.12,2.41.12s.55,0,.69-.27c.32-.36.43-1.87.52-6h-4.15v.2c0,3.36-.34,8.18-2.39,11.3a7.24,7.24,0,0,0-1.41-1.2c1.87-2.93,2.07-7,2.07-10.13v-6.7h9.51c-.09-1.31-.12-2.66-.14-4H241c0,1.4,0,2.74.09,4h7.36v1.76h-7.25a46.13,46.13,0,0,0,1.25,8.33,24,24,0,0,0,2.92-6.48Zm-3.94-8a22.08,22.08,0,0,1,4.08,2.74l-1.05,1.22a23.87,23.87,0,0,0-4-2.87Z"/><path class="cls-5" d="M253.41,209.68v12.89h-1.66v-20.9H260v8Zm0-6.64V205h5V203Zm5,5.28v-2.07h-5v2.07Zm5.65,8.44v5.36h-1.5v-5.36h-3.24a7.83,7.83,0,0,1-3.06,5.67,6.23,6.23,0,0,0-1.11-1.06,6.11,6.11,0,0,0,2.69-4.61H255v-1.51h2.89v-2.59h-2.46V211.2h11.24v1.46h-2.6v2.59h3.1v1.51Zm-1.5-1.51v-2.59h-3.2v2.59Zm7.91,5c0,1.06-.23,1.64-.89,1.95a10.2,10.2,0,0,1-3.54.31,6,6,0,0,0-.54-1.78c1.25.05,2.48.05,2.82,0s.48-.15.48-.53V209.71H262v-8h8.46ZM263.63,203V205h5.17V203Zm5.17,5.3v-2.09h-5.17v2.09Z"/><path class="cls-5" d="M291.49,206.85v9.39H289.8V215H278a13.88,13.88,0,0,1-3.29,7.66,6.46,6.46,0,0,0-1.3-1.2c2.9-3.1,3.2-7.56,3.2-11v-7.27a73.6,73.6,0,0,0,12.85-2.47l1.39,1.34a79.93,79.93,0,0,1-12.56,2.45v2.35Zm-1.69,6.43v-4.77H278.24v1.94c0,.89,0,1.83-.11,2.83Z"/><path class="cls-5" d="M310.18,211.63a3.47,3.47,0,1,1-3.46-3.65A3.56,3.56,0,0,1,310.18,211.63Zm-1.16,0a2.3,2.3,0,1,0-2.3,2.42A2.36,2.36,0,0,0,309,211.63Z"/><path class="cls-5" d="M338.27,208.77a27.44,27.44,0,0,1-4,8.11c.84,2.36,1.89,3.72,3.05,3.72.64,0,.92-1.24,1.08-4.44a3.82,3.82,0,0,0,1.46,1c-.32,4.09-.94,5.26-2.67,5.26s-3.13-1.46-4.17-3.94a20.82,20.82,0,0,1-4.7,4,9.91,9.91,0,0,0-1.23-1.42,18.35,18.35,0,0,0,5.24-4.44,49.06,49.06,0,0,1-1.66-10.1h-7.87v3.12h5.82v.77c-.12,5.37-.26,7.39-.73,8a1.73,1.73,0,0,1-1.37.7,24,24,0,0,1-2.71,0,4,4,0,0,0-.48-1.68c1.05.09,2,.12,2.41.12s.55,0,.69-.27c.32-.36.43-1.87.52-6h-4.15v.2c0,3.36-.34,8.18-2.39,11.3a7.24,7.24,0,0,0-1.41-1.2c1.86-2.93,2.07-7,2.07-10.13v-6.7h9.51c-.1-1.31-.12-2.66-.14-4h1.75c0,1.4,0,2.74.1,4h7.36v1.76h-7.25a46.13,46.13,0,0,0,1.25,8.33,24.28,24.28,0,0,0,2.92-6.48Zm-3.94-8a22.08,22.08,0,0,1,4.08,2.74l-1.05,1.22a23.59,23.59,0,0,0-4-2.87Z"/><path class="cls-5" d="M362.07,213.33s0,.53-.06.77c-.41,5-.85,7-1.55,7.8a2.09,2.09,0,0,1-1.55.65,21.37,21.37,0,0,1-2.85,0,4.52,4.52,0,0,0-.5-1.63,20.61,20.61,0,0,0,2.66.15,1.21,1.21,0,0,0,.87-.24c.45-.51.84-2.09,1.21-5.91H346.23a20.83,20.83,0,0,1-3.67,2.88,10,10,0,0,0-.93-1.49,23.3,23.3,0,0,0,8.66-9.93h-7.5v-1.64H351a36.47,36.47,0,0,0,1.41-4.08l1.69.46c-.39,1.23-.8,2.45-1.3,3.62h5.93c-.25,1.42-.57,3.08-.87,4.33h2.6c-.27,1.39-.59,3-.86,4.29Zm-18.87,8.11a11.29,11.29,0,0,0,2.57-5.2l1.42.48a13.22,13.22,0,0,1-2.67,5.68Zm4.63-16.77a15.64,15.64,0,0,0-2.24-3.32l1.46-.64a16.09,16.09,0,0,1,2.33,3.19Zm10.23,8.66c.18-.79.39-1.77.57-2.73h-8.84a25.19,25.19,0,0,1-2.08,2.73Zm-8,3.24a19.86,19.86,0,0,1,.68,4.78l-1.48.21a17.69,17.69,0,0,0-.61-4.8Zm2.08-10.22c-.42.91-.89,1.82-1.4,2.69h5.59c.21-.77.41-1.73.59-2.69Zm1.18,9.89a19.38,19.38,0,0,1,1.35,4.1l-1.42.41a18.91,18.91,0,0,0-1.25-4.2Zm3.72,3.19a14.11,14.11,0,0,0-1.67-3.24l1.19-.48a14.13,14.13,0,0,1,1.73,3.17Z"/><path class="cls-5" d="M384.58,202.58v4.54h-1.67v-3h-15.7v3h-1.62v-4.54h8.66c-.27-.58-.57-1.2-.86-1.73l1.75-.43a24.41,24.41,0,0,1,1.16,2.16ZM367.09,214h16.12v8.52h-1.66v-.72H368.69v.82h-1.6Zm14.48-7.08h-13v-1.3h13Zm-12.95,5.69v-4.37h12.81v4.37Zm.07,2.76v1.87h5.45v-1.87Zm0,5h5.45v-1.92h-5.45Zm1.48-9.07h9.62v-1.83h-9.62Zm11.38,4h-5.77v1.87h5.77Zm0,5v-1.92h-5.77v1.92Z"/><path class="cls-5" d="M398.69,204.16a29.29,29.29,0,0,1-4.42,1.2v3.39H398v1.61h-3.69a31.42,31.42,0,0,1-.23,3.36h4.61v1.68h-4.86a12.1,12.1,0,0,1-4.51,7.29,6.82,6.82,0,0,0-1.37-1.25,10.57,10.57,0,0,0,4.1-6h-4.46v-1.68h4.8a28.55,28.55,0,0,0,.26-3.36h-4.22v-1.61h4.22v-3.07c-1.49.26-3,.45-4.34.6a4.83,4.83,0,0,0-.5-1.47c1.55-.19,3.22-.45,4.84-.77v-3.36h1.66v3a23.08,23.08,0,0,0,3.49-1.05Zm9.39-1.37c-1.07,2.29-2.39,5-3.55,7.13,2.57,2.19,3.26,4.11,3.26,5.81,0,1.44-.34,2.55-1.21,3.1a3.58,3.58,0,0,1-1.6.55,13.12,13.12,0,0,1-2.18,0,4.29,4.29,0,0,0-.48-1.72,11.5,11.5,0,0,0,2,0,2.84,2.84,0,0,0,1.12-.28c.55-.32.73-1,.73-1.88,0-1.51-.8-3.31-3.42-5.4,1.09-2,2.23-4.56,3-6.48H401.2V222.6h-1.66V202h7.06l.28-.07Z"/><path class="cls-5" d="M44,248.55v6.74c0,1-.25,1.49-.85,1.75a7.66,7.66,0,0,1-3.07.34,8.16,8.16,0,0,0-.53-1.66c1.1.05,2.08,0,2.35,0s.43-.12.43-.46V249.1l-2.87.89-.5-1.73c.93-.24,2.1-.58,3.37-1v-5.16h-3.1v-1.68h3.1v-4.8H44v4.8h2.83v1.68H44v4.68l2.12-.65.23,1.63Zm14.29-1.92a15,15,0,0,1-4.44,6.86,17.9,17.9,0,0,0,6,2.47,6.19,6.19,0,0,0-1.07,1.64,17.81,17.81,0,0,1-6.39-3,20.86,20.86,0,0,1-6.68,3,5.72,5.72,0,0,0-.84-1.63,19.3,19.3,0,0,0,6.15-2.55A16.84,16.84,0,0,1,47.36,248l.23-.1H46.7v-1.68H56.89l.32-.07Zm-7.79-7.44a7,7,0,0,1-3.42,6.41A7.39,7.39,0,0,0,46,244.28a5.42,5.42,0,0,0,2.94-5.14V236.5h7.18V242c0,.68.07.92.43.92h1.76a6,6,0,0,0,1.14-.12,14.73,14.73,0,0,0,.14,1.53,4.49,4.49,0,0,1-1.24.12H56.41c-1.6,0-1.94-.69-1.94-2.47v-3.84h-4ZM49,247.85a14,14,0,0,0,3.47,4.59A13,13,0,0,0,56,247.85Z"/><path class="cls-5" d="M68.34,236.21a39,39,0,0,1-1.92,4.73v16.7H64.85V243.82a29,29,0,0,1-2.17,3.1,11.65,11.65,0,0,0-.93-1.66,28,28,0,0,0,5.08-9.53Zm14.13,3.39v1.51H68V239.6ZM69.36,249.87H80.9v7.63H79.39v-.86H70.84v.93H69.36Zm11.31-5.38h-11V243h11Zm-11,1.9h11v1.46h-11Zm1.16,5v3.79h8.55v-3.79Zm4-11.91a22.22,22.22,0,0,0-1.57-3.19l1.44-.63a19.26,19.26,0,0,1,1.66,3.12Z"/><path class="cls-5" d="M101.35,242.33a16.12,16.12,0,0,1-4.54,4.59,29,29,0,0,0,8.82,2.54,8.4,8.4,0,0,0-1.07,1.68,22.6,22.6,0,0,1-3.17-.67v7H99.68v-.76h-9v.79H89v-7c-1.21.38-2.42.67-3.6.93a7.27,7.27,0,0,0-.82-1.56,32.45,32.45,0,0,0,8.95-3,16.79,16.79,0,0,1-3-2.76A20.1,20.1,0,0,1,87,246.53a5.3,5.3,0,0,0-1.14-1.27,15.36,15.36,0,0,0,6.48-5.38l1.82.34c-.32.48-.68.94-1,1.42h6.77l.3-.08Zm-14.14-.05H85.55v-4.49h9.07c-.32-.62-.68-1.34-1-1.91l1.64-.44a24.71,24.71,0,0,1,1.32,2.35h8.12v4.49H103v-2.83H87.21Zm13.32,7.95A27.11,27.11,0,0,1,95.15,248a31.57,31.57,0,0,1-5.09,2.28Zm-.85,5v-3.48h-9v3.48Zm-7.91-12.07a14.56,14.56,0,0,0,3.4,2.9,16,16,0,0,0,3.58-3H91.86Z"/><path class="cls-5" d="M125.56,241.85v9.39h-1.69V250H112a13.94,13.94,0,0,1-3.28,7.66,6.74,6.74,0,0,0-1.3-1.2c2.89-3.1,3.19-7.56,3.19-11v-7.27a73.73,73.73,0,0,0,12.86-2.47l1.39,1.34a80.16,80.16,0,0,1-12.56,2.45v2.35Zm-1.69,6.43v-4.77H112.32v1.94c0,.89,0,1.83-.12,2.83Z"/><path class="cls-5" d="M137,241.06a28.17,28.17,0,0,1-2,3.34v13.24h-1.6V246.46a20.5,20.5,0,0,1-2.16,2.26,10.49,10.49,0,0,0-1-1.56,21.87,21.87,0,0,0,5.24-6.65Zm-.51-4.8a24.74,24.74,0,0,1-5.1,5.69c-.21-.36-.66-1-.91-1.3a18.41,18.41,0,0,0,4.46-5Zm12.66,12.14a13.16,13.16,0,0,1-4.33,5.57,21.57,21.57,0,0,0,6,2.09,6.65,6.65,0,0,0-1,1.54,21.21,21.21,0,0,1-6.45-2.62,23.81,23.81,0,0,1-6.68,2.66,5.26,5.26,0,0,0-.82-1.53,21.24,21.24,0,0,0,6-2.14,16.76,16.76,0,0,1-2.53-2.45,19.92,19.92,0,0,1-1.8,1.59,8.38,8.38,0,0,0-1.16-1.32,15.16,15.16,0,0,0,2-1.59,14.59,14.59,0,0,1-1.09-1.8l1.39-.5a11.3,11.3,0,0,0,.73,1.25,17.32,17.32,0,0,0,2.12-3c-3.26.21-3.86.31-4.29.48a14.55,14.55,0,0,0-.52-1.66,7.43,7.43,0,0,0,2.53-1.15c.52-.29,1.57-1,2.85-1.85-3.4.17-4,.29-4.36.43a10.55,10.55,0,0,0-.55-1.72,4.24,4.24,0,0,0,1.51-.84,28.38,28.38,0,0,0,4-3.94l1.66.77a31.83,31.83,0,0,1-4.33,4l4.06-.14c1-.8,2.07-1.68,3-2.57l1.55.91a50.23,50.23,0,0,1-8.28,5.88l7.14-.41c-.52-.69-1-1.39-1.55-2l1.32-.72A38.76,38.76,0,0,1,151,246.8l-1.39.84a18.1,18.1,0,0,0-1.19-2l-5.06.33a15.8,15.8,0,0,1-1.09,1.92h5.58l.28-.07Zm-7.94,1c-.27.36-.54.7-.84,1a13.73,13.73,0,0,0,3,2.62,11.75,11.75,0,0,0,3.48-3.65Z"/><path class="cls-5" d="M161.15,249.94c1.76-.77,2.76-1.9,2.88-3.53a1.75,1.75,0,0,1-.39,0,1.6,1.6,0,0,1-1.71-1.71,1.64,1.64,0,0,1,1.73-1.73c1.25,0,1.94,1.08,1.94,2.76a5.68,5.68,0,0,1-3.95,5.45Z"/><path class="cls-5" d="M196.45,239.12h-2.81V255c0,1.28-.29,1.92-1.16,2.19a17.06,17.06,0,0,1-4.72.33,9.19,9.19,0,0,0-.73-1.89c1.82.09,3.69.07,4.22.05s.66-.2.66-.7V239.12H176.27v-1.78h20.18Zm-16.21,12.4v1.92H178.6V242.62h9.25v8.9Zm0-7.17v5.47h5.95v-5.47Z"/><path class="cls-5" d="M204.43,247.37a24.87,24.87,0,0,1-1.3,5.19c1.46,2.68,4.33,3.07,8.66,3.07,2.39,0,5.68-.1,8-.31a5,5,0,0,0-.55,1.65c-2.12.15-5,.2-7.45.2-4.63,0-7.5-.49-9.28-3.17a10.9,10.9,0,0,1-2.87,3.6,5.25,5.25,0,0,0-1.12-1.23c2.05-1.49,3.53-4.13,4.24-7.82h-2.21a2.15,2.15,0,0,0-1.32.33,14.52,14.52,0,0,0-.64-1.63,1.94,1.94,0,0,0,1.07-.67,46.14,46.14,0,0,0,2.8-3.94h-3.58v-1.46h4.61l.27-.12,1.12.53c-.91,1.41-2.6,3.89-3.85,5.49h2.37l.3,0Zm-2.08-7.08a29.67,29.67,0,0,0-2.66-3.86l1.29-.77a34.75,34.75,0,0,1,2.72,3.7Zm9,1.92a16.73,16.73,0,0,1-5.77,4.2,5.18,5.18,0,0,0-1-1.27,15.53,15.53,0,0,0,5.7-3.67H205v-1.42h6.27V238.2c-1.78.17-3.62.29-5.29.34a4.55,4.55,0,0,0-.38-1.27A74.84,74.84,0,0,0,217.08,236l1.07,1.2a40.44,40.44,0,0,1-5.2.82v2h6.16v1.42H213v4h-1.64Zm7.16,6s0,.46-.05.67c-.27,2.81-.52,4-1,4.49A1.81,1.81,0,0,1,216,254a19.75,19.75,0,0,1-2.74,0,3.69,3.69,0,0,0-.43-1.39c1.09.1,2.17.12,2.53.12s.59,0,.75-.19.5-1.08.69-2.86h-3.67c.2-.62.38-1.36.57-2.16h-2.79c-.43,3.15-1.52,5.45-4.76,6.72a4.64,4.64,0,0,0-1-1.32c2.83-1,3.76-2.88,4.15-5.4H207v-1.39h8.46c-.12.72-.3,1.49-.46,2.21Zm.05-2a39,39,0,0,0-5.25-3.77l.89-1a40.09,40.09,0,0,1,5.43,3.69Z"/><path class="cls-5" d="M227.23,247.37a24.87,24.87,0,0,1-1.3,5.19c1.46,2.68,4.35,3.07,8.66,3.07,2.39,0,5.7-.1,8-.31a4.78,4.78,0,0,0-.54,1.65c-2.15.15-5,.2-7.48.2-4.63,0-7.5-.49-9.28-3.2a10.73,10.73,0,0,1-2.87,3.63,5.25,5.25,0,0,0-1.12-1.23c2-1.49,3.53-4.13,4.24-7.82h-2.21a2.15,2.15,0,0,0-1.32.33,14.52,14.52,0,0,0-.64-1.63,1.94,1.94,0,0,0,1.07-.67,46.14,46.14,0,0,0,2.8-3.94h-3.58v-1.46h4.61l.27-.12,1.12.53c-.93,1.41-2.6,3.89-3.85,5.49h2.37l.29,0Zm-2.08-7.08a34.4,34.4,0,0,0-2.66-3.89l1.29-.74a36.2,36.2,0,0,1,2.72,3.7Zm4.77,13.92h-1.51V243.84h1.73V236.5h9.33v7.34h1.8v8.6c0,.84-.14,1.24-.73,1.51a7.32,7.32,0,0,1-2.76.26,6.86,6.86,0,0,0-.45-1.44c.93,0,1.8,0,2,0s.37-.12.37-.36v-7.18h-9.8Zm1.73-10.37h2.21v-4h4.06v-2h-6.27Zm6.11,8h-4.61v1h-1.3v-6h5.91Zm-1.32-3.79h-3.29v2.54h3.29Zm1.48-4.23v-2.76h-2.74v2.76Z"/><path class="cls-5" d="M250.78,250.2c-.05-.4-.14-.88-.23-1.36-4.54.69-5.24.86-5.65,1.1-.09-.38-.37-1.22-.55-1.7.48-.12,1-.7,1.66-1.59a24.93,24.93,0,0,0,1.87-2.66,14.49,14.49,0,0,0-3.12.55,14.7,14.7,0,0,0-.55-1.61c.39-.09.78-.6,1.21-1.32a30.17,30.17,0,0,0,2.92-6l1.57.67a38.52,38.52,0,0,1-3.44,6.36l2.37-.24a30.3,30.3,0,0,0,1.69-3.19l1.5.91a49,49,0,0,1-5.08,7.76l3.28-.46c-.2-.82-.43-1.66-.68-2.38l1.3-.36a36.67,36.67,0,0,1,1.32,5.09Zm-4.1,1a33.55,33.55,0,0,1-1.17,5.91,8.59,8.59,0,0,0-1.3-.53,25.68,25.68,0,0,0,1.1-5.62Zm2.12-.29c.25,1.64.5,3.72.57,5.12l-1.35.24a42.89,42.89,0,0,0-.5-5.12Zm2-.57a26.61,26.61,0,0,1,1.14,3.84l-1.25.43a30.48,30.48,0,0,0-1.07-3.91Zm6.87-1.47a11.51,11.51,0,0,1-5.11,7.56,6.82,6.82,0,0,0-1-1.27,9.32,9.32,0,0,0,4.17-5.11h-2.94v-1.49h3.6l.28-.07Zm7-.38c-1,1-2.19,2.09-3.19,2.88a10.19,10.19,0,0,0,3.71,3.75,6.85,6.85,0,0,0-1.11,1.41,12.65,12.65,0,0,1-4.31-5.45v4.51c0,.92-.19,1.4-.8,1.69a8,8,0,0,1-3,.31,7,7,0,0,0-.5-1.66,22.51,22.51,0,0,0,2.3,0c.3,0,.39-.09.39-.38v-9h-4.54v-8.4h3.49a16.61,16.61,0,0,0,.77-2.55l1.9.41c-.32.72-.66,1.49-1,2.14H264v8.4h-4.17v.86a14.21,14.21,0,0,0,1.07,2.76,26.44,26.44,0,0,0,2.55-2.78Zm-9.46-6.82h7.09V239.6h-7.09Zm0,3.48h7.09V243h-7.09Z"/><path class="cls-5" d="M287.69,254.64v1.78H267.38v-1.78h8.5V236h1.78v7.34h8.48v1.78h-8.48v9.5Z"/><path class="cls-5" d="M305.47,246a17.17,17.17,0,0,1-3.8,6.07,19.21,19.21,0,0,0,9,3.75,7,7,0,0,0-1.05,1.6,19.9,19.9,0,0,1-9.23-4.2,23.8,23.8,0,0,1-9.3,4.42,7.42,7.42,0,0,0-1-1.61,21.47,21.47,0,0,0,9.1-4,17.45,17.45,0,0,1-3.69-5.93l1.5-.48a14.86,14.86,0,0,0,3.42,5.3,14,14,0,0,0,3.35-5.44Zm4.61-5.28H290.52V239H300a23.5,23.5,0,0,0-1.5-2.95l1.57-.58a19.77,19.77,0,0,1,1.69,3.09l-1,.44h9.37Zm-12.24,1.42a27,27,0,0,1-5.93,5.54,13.68,13.68,0,0,0-1.3-1.34,20.75,20.75,0,0,0,5.61-4.88Zm6.47-.72a33.55,33.55,0,0,1,5.86,5.18l-1.39,1.15a31.49,31.49,0,0,0-5.77-5.3Z"/><path class="cls-5" d="M332.13,247.92s0,.56-.07.82c-.43,5.35-.89,7.42-1.57,8.16a1.92,1.92,0,0,1-1.53.67,22.2,22.2,0,0,1-2.81,0,3.79,3.79,0,0,0-.45-1.56,23.73,23.73,0,0,0,2.55.12c.39,0,.62,0,.82-.27.5-.48.89-2.18,1.26-6.31h-2.78a20,20,0,0,1-5.29,8.16,9.56,9.56,0,0,0-1.37-1.1,16.56,16.56,0,0,0,4.92-7.06h-3.08a21.91,21.91,0,0,1-6.83,7.54,15.75,15.75,0,0,0-1.3-1.27,18.26,18.26,0,0,0,6.27-6.27H317.7a20.65,20.65,0,0,1-3.7,3.12,8.81,8.81,0,0,0-1.32-1.25,18.43,18.43,0,0,0,5.84-5.49H316v-9.17h14.57v9.17h-10.1a19.26,19.26,0,0,1-1.37,2Zm-14.46-7.32h11.2v-2.37h-11.2Zm0,3.8h11.2V242h-11.2Z"/><path class="cls-5" d="M346.17,253.66c-3.49.79-7.2,1.63-9.85,2.26l-.31-1.8c2.46-.51,6.33-1.32,10-2.14Zm8.73-10.3a28.89,28.89,0,0,1-4,8.4c.84,2.48,1.87,4,3,4,.64,0,.91-1.24,1.05-4.44a4,4,0,0,0,1.48,1c-.29,4.11-.93,5.28-2.69,5.28s-3.07-1.56-4.1-4.15a21.27,21.27,0,0,1-4.81,4.13,10.61,10.61,0,0,0-1.32-1.37,18.3,18.3,0,0,0,5.47-4.7,54.15,54.15,0,0,1-1.6-10.25H336.12v-1.75h11.1c-.07-1.25-.09-2.5-.11-3.77h1.78c0,1.29,0,2.54.06,3.77h6.84v1.75h-6.72a52.13,52.13,0,0,0,1.18,8.37,26,26,0,0,0,2.94-6.67Zm-9.59,0v7.25h-7.87v-7.25Zm-1.67,1.56H339v4.15h4.63Zm10.47-5.45a16.53,16.53,0,0,0-3.86-2.61l1-1.11a17.39,17.39,0,0,1,3.92,2.47Z"/><path class="cls-5" d="M365.17,251.38c-2.22,1-4.54,2.06-6.36,2.83l-.64-1.77c.77-.24,1.68-.6,2.71-1v-8.35h-2.53v-1.71h2.53v-5.45h1.64v5.45h2.55v1.71h-2.55v7.68l2.37-1Zm5.81,2.76a27.23,27.23,0,0,1-5.31,3.43,8.93,8.93,0,0,0-1.05-1.25,19.67,19.67,0,0,0,4.9-3.19Zm8.16-2.62v1.56H365v-1.56h2V240.94h3.35c.12-.5.23-1,.32-1.61h-4.83v-1.46h5.08c.14-.77.23-1.54.3-2.19l1.8.12c-.14.65-.27,1.37-.43,2.07h5.92v1.46h-6.24c-.14.58-.28,1.11-.41,1.61h5.2v10.58Zm-10.62-9.33v1.53h7v-1.53Zm7,2.61h-7v1.42h7Zm-7,4h7v-1.49h-7Zm0,2.71h7v-1.6h-7Zm5.76,1.59a30.56,30.56,0,0,1,4.52,3.21l-1.12,1.25a32.59,32.59,0,0,0-4.44-3.38Z"/><path class="cls-5" d="M400.5,249.8s0,.5,0,.74c-.25,4.08-.5,5.74-1.07,6.34a1.71,1.71,0,0,1-1.42.62,18.55,18.55,0,0,1-2.78,0,3.68,3.68,0,0,0-.48-1.56,21.73,21.73,0,0,0,2.53.09c.39,0,.6,0,.78-.19.32-.38.55-1.58.75-4.56H386.51A19.44,19.44,0,0,1,382.2,254a11.08,11.08,0,0,0-1-1.41,15.12,15.12,0,0,0,6.11-4.37h-2.69v-6.77a34,34,0,0,0,5.32-1.56l1,1.13a31.43,31.43,0,0,1-4.83,1.37V244h4.42v1.27h-4.42v1.63h10.72v-1.63h-4.34V244h4.34v-1.59h-4.72v-1.32h6.27v7.13h-9.24A10.68,10.68,0,0,1,388,249.8Zm.66-12.2v4.2h-1.61v-2.64H383.47v2.64H381.9v-4.2h8.71c-.23-.55-.5-1.08-.75-1.56l1.68-.5a18,18,0,0,1,1,2.06Zm-17.07,18.65a13.56,13.56,0,0,0,2.12-4.25l1.35.58a15.62,15.62,0,0,1-2.1,4.37Zm5.77-4.05a15.13,15.13,0,0,1,.82,4.15l-1.39.21a15.23,15.23,0,0,0-.75-4.2Zm2.76-.2a13.15,13.15,0,0,1,1.55,3.63l-1.3.43a14.34,14.34,0,0,0-1.48-3.7Zm3.55,3a11,11,0,0,0-1.91-2.71l1.11-.56a10,10,0,0,1,2,2.62Z"/><path class="cls-5" d="M55,283.62a12.71,12.71,0,0,0,5.13,3.7A7.17,7.17,0,0,0,59,288.68a14.16,14.16,0,0,1-5.79-5.06H46.06a15.91,15.91,0,0,1-6,5.38,5.81,5.81,0,0,0-1.1-1.37,13.3,13.3,0,0,0,5.16-4H39.24v-1.51h4.52v-7.66H40.29V273h3.47v-2.3h1.66V273H53.7v-2.3h1.71V273h3.42v1.49H55.41v7.66h4.4v1.51Zm-4.65,6.77h7.87v1.51H41v-1.51h7.64v-2.52H44V286.4h4.66v-2h1.68v2h4.77v1.47H50.32Zm-4.9-15.94v1.61H53.7v-1.61Zm0,4.61H53.7V277.4H45.42Zm0,3.05H53.7V280.4H45.42Z"/><path class="cls-5" d="M73.14,279.44v3.27h8v1.63h-8v5.86h9v1.65H62.54V290.2h8.85v-5.86H63.57v-1.63h7.82v-3.27H66.47v-1.32a23.13,23.13,0,0,1-3.63,1.73,7.66,7.66,0,0,0-1.14-1.61c4.24-1.46,8.44-4.27,10.6-7.82l1.55.77c-.16.26-.36.57-.57.86A24.59,24.59,0,0,0,83,278.24a6.76,6.76,0,0,0-1.19,1.54A24,24,0,0,1,78.16,278v1.48Zm-6.24,5.43a21.28,21.28,0,0,1,2.16,4.29l-1.48.65a19.81,19.81,0,0,0-2.1-4.34Zm11-7.08a26.73,26.73,0,0,1-5.54-4.51A24,24,0,0,1,67,277.79Zm-2.67,11.49a27.84,27.84,0,0,0,2.37-4.41l1.62.65a47.27,47.27,0,0,1-2.71,4.34Z"/><path class="cls-5" d="M104,273.8v13.44h-1.7V286H95.92v6.52H94.19V286H88v1.36H86.35V273.8h7.84v-3.17h1.73v3.17Zm-16,1.71V279h6.18v-3.48Zm6.18,8.76v-3.63H88v3.63Zm1.73-8.76V279h6.39v-3.48Zm6.39,8.76v-3.63H95.92v3.63Z"/><path class="cls-5" d="M111.13,287.41a14.47,14.47,0,0,1-2.53,5.16,11.23,11.23,0,0,0-1.28-1,10.67,10.67,0,0,0,2.28-4.56Zm3.76-.86h-6.4v-15h6.4ZM113.36,273H110v3h3.39Zm0,4.44H110v3.07h3.39Zm0,4.48H110v3.12h3.39Zm.37,5.07a20.54,20.54,0,0,1,1.89,3.69l-1.34.68a20.2,20.2,0,0,0-1.83-3.77Zm14.61,1.58H127v2.09c0,.86-.18,1.32-.75,1.59a11.66,11.66,0,0,1-3.3.23,6.17,6.17,0,0,0-.48-1.43c1.18,0,2.28,0,2.6,0s.38-.1.38-.41v-2.09h-7.2v4h-1.53v-4h-1.48v-1.37h1.48v-6.09H121v-1.39h-5.7v-1.35h3.29v-1.58h-2.17v-1.32h2.17v-1.44h-2.76v-1.35h2.76v-2.06h1.5v2.06h3.37v-2.06H125v2.06h2.78v1.35H125v1.44h2.42v1.32H125v1.58h3.26v1.35h-5.74v1.39H127v6.09h1.37Zm-10.12-6.12v1.71H121v-1.71Zm0,4.75H121v-1.8h-2.78Zm1.87-11.73h3.37v-1.44h-3.37Zm0,2.9h3.37v-1.58h-3.37Zm2.42,4.08v1.71h2.91v-1.71Zm2.91,4.75v-1.8h-2.91v1.8Z"/><path class="cls-5" d="M150.8,282.76v1.32H130.65v-1.32h9.16v-1.42H132.2v-1.22h7.61V278.8h-7v-1.2h7v-1.42h-9.12v-1.34h9.12v-1.35h-6.72v-1.2h6.72v-1.68h1.67v1.68H148v2.55h2.78v1.34H148v2.62h-6.52v1.32h7.77v1.22h-7.77v1.42Zm-17.23,2.44h14.54v7.37h-1.69v-.74H135.21v.79h-1.64Zm1.64,1.23v1.46h11.21v-1.46Zm11.21,4.15V289H135.21v1.54Zm-4.94-15.74h4.85v-1.35h-4.85Zm0,2.76h4.85v-1.42h-4.85Z"/><path class="cls-5" d="M161.15,284.94c1.76-.77,2.76-1.9,2.87-3.53a1.63,1.63,0,0,1-.38,0,1.6,1.6,0,0,1-1.71-1.71,1.64,1.64,0,0,1,1.73-1.73c1.25,0,1.94,1.08,1.94,2.76a5.68,5.68,0,0,1-3.95,5.45Z"/><path class="cls-5" d="M182,282.37a20.47,20.47,0,0,1-1.51,5.4c1.53,2.5,4.36,2.86,8.51,2.86,2.37,0,5.67-.12,8-.31a5.68,5.68,0,0,0-.57,1.7c-2.12.12-5,.19-7.43.19-4.56,0-7.39-.5-9.17-3.09a10.84,10.84,0,0,1-3,3.5,6.23,6.23,0,0,0-1.12-1.22c2.17-1.47,3.83-4.11,4.56-7.85h-2.46a2.18,2.18,0,0,0-1.34.33,14.52,14.52,0,0,0-.64-1.63,2,2,0,0,0,1.09-.69,40.35,40.35,0,0,0,2.87-3.92h-3.64v-1.46h4.72l.29-.12,1.12.55c-1,1.39-2.69,3.87-4,5.47h2.6l.3,0Zm-2.19-7.05a35.21,35.21,0,0,0-2.87-3.82l1.25-.82a40.42,40.42,0,0,1,2.92,3.65Zm4.15,2.78a21,21,0,0,1-1.73,2.4,9,9,0,0,0-1-1.37,24.85,24.85,0,0,0,4.53-8.33l1.42.44c-.37,1.12-.85,2.25-1.33,3.36h4.45a24,24,0,0,0-1.46-3.15l1.39-.45a20.52,20.52,0,0,1,1.73,3.6h3.93v1.48H191v2.45h4.27V280H191v2.47h4.29v1.42H191v2.56h5.41v1.54H183.93Zm5.54-2h-4v2.45h4Zm0,3.87h-4v2.47h4Zm0,3.89h-4v2.56h4Z"/><path class="cls-5" d="M206.34,276.37a28.78,28.78,0,0,1-2.51,3.63v12.62h-1.68V282a28.39,28.39,0,0,1-2.58,2.5,17.07,17.07,0,0,0-1.18-1.49,25.74,25.74,0,0,0,6.38-7.22Zm-.89-5.06a28.61,28.61,0,0,1-5.83,5.95,15.84,15.84,0,0,0-1-1.42,22.83,22.83,0,0,0,5.22-5.21Zm14,9.05H216v9.91c0,1.1-.25,1.65-1,1.94a16,16,0,0,1-4.28.27,6.66,6.66,0,0,0-.55-1.73c1.62.05,3.12.05,3.56,0s.56-.12.56-.53v-9.88h-7.61v-1.71h12.77Zm-.66-6.58H207.64V272.1h11.13Z"/><path class="cls-5" d="M241.45,272.58v4.54h-1.66v-3H224.08v3h-1.62v-4.54h8.67c-.28-.58-.57-1.2-.87-1.73l1.75-.43c.41.67.87,1.54,1.17,2.16ZM224,284h16.11v8.52h-1.66v-.72H225.56v.82H224Zm14.47-7.08h-13v-1.3h13Zm-12.95,5.69v-4.37h12.82v4.37Zm.07,2.76v1.87H231v-1.87Zm0,5H231v-1.92h-5.45Zm1.48-9.07h9.62v-1.83H227Zm11.38,4h-5.77v1.87h5.77Zm0,5v-1.92h-5.77v1.92Z"/><path class="cls-5" d="M255.57,274.16a29.12,29.12,0,0,1-4.43,1.2v3.39h3.7v1.61h-3.7c0,1.12-.09,2.25-.22,3.36h4.6v1.68h-4.85a12.11,12.11,0,0,1-4.52,7.29,6.56,6.56,0,0,0-1.37-1.25,10.59,10.59,0,0,0,4.11-6h-4.47v-1.68h4.81a26.56,26.56,0,0,0,.25-3.36h-4.22v-1.61h4.22v-3.07c-1.48.26-3,.45-4.33.6a5.44,5.44,0,0,0-.5-1.47c1.55-.19,3.21-.45,4.83-.77v-3.36h1.66v3a22.73,22.73,0,0,0,3.49-1.05Zm9.39-1.37c-1.07,2.29-2.4,5-3.56,7.13,2.58,2.19,3.26,4.11,3.26,5.81,0,1.44-.34,2.55-1.21,3.1a3.58,3.58,0,0,1-1.59.55,13.24,13.24,0,0,1-2.19,0,4,4,0,0,0-.48-1.72,11.6,11.6,0,0,0,2,0,2.75,2.75,0,0,0,1.11-.28c.55-.32.73-1,.73-1.88,0-1.51-.79-3.31-3.42-5.4a70.62,70.62,0,0,0,3-6.48h-4.59V292.6h-1.66V272h7.07l.27-.07Z"/><path class="cls-5" d="M278.41,271.28a23.47,23.47,0,0,0,9.65,8.14,8.06,8.06,0,0,0-1.15,1.56,27.86,27.86,0,0,1-9.39-8,34.87,34.87,0,0,1-9.41,8.16,5.53,5.53,0,0,0-1.05-1.44,29.61,29.61,0,0,0,8.48-6.75h-4.06v-1.68Zm-.09,19h8.89v1.63H268v-1.63h8.64v-4h-6.38V284.7h6.38V281h-5.41v-1.61h12.73V281h-5.59v3.67h6.48v1.58h-6.48Z"/><path class="cls-5" d="M297.43,287.63c-2.53.84-5.22,1.73-7.27,2.45l-.37-1.73c.82-.24,1.85-.55,3-.91v-6.63h-2.53v-1.65h2.53V274H290v-1.68H297V274h-2.62v5.21h2.31v1.65h-2.31v6.12l2.81-.93Zm12.95-9a52.42,52.42,0,0,1-4,5.16,13.44,13.44,0,0,0,4.65,5.69,4.07,4.07,0,0,0-1.07,1.34,15,15,0,0,1-5.27-7.22v6.72c0,1.08-.27,1.58-.89,1.87a8.35,8.35,0,0,1-3.46.39,7.5,7.5,0,0,0-.62-1.73c1.32.05,2.49,0,2.83,0s.5-.14.5-.55v-5.66c-1.87,2-3.81,4-5.36,5.49l-1-1.53c1.54-1.35,4.05-3.7,6.4-5.93v-6.24h-5.52v-1.66h5.52v-4.15h1.64v4.15h6v1.66h-6v.86a31.4,31.4,0,0,0,1.12,5,35.36,35.36,0,0,0,3.05-4.54ZM299.21,278a19.1,19.1,0,0,1,2.48,4.44l-1.39.69a20.59,20.59,0,0,0-2.42-4.49Zm9.3-3.46a13.52,13.52,0,0,0-2.69-2.64l1-.94a16.49,16.49,0,0,1,2.73,2.5Z"/><path class="cls-5" d="M324.22,272.1c0,4.25.52,13.3,9.46,18.89a8.17,8.17,0,0,0-1.37,1.49,20.73,20.73,0,0,1-9.05-13.37c-1.69,6.21-4.56,10.58-9.1,13.39a11.47,11.47,0,0,0-1.52-1.41c5-2.77,7.84-7.59,9.23-14.31l1,.17c-.16-1.11-.25-2.16-.29-3.07H317V272.1Z"/><path class="cls-5" d="M335.64,290.65A25.46,25.46,0,0,0,338,285.8l1.46.68a44.76,44.76,0,0,1-2.24,4.94Zm9.67-6.43H339V272.87h5.29a19.45,19.45,0,0,0,.87-2.48l2,.36a18.19,18.19,0,0,1-1.07,2.12h6.79v11.35h-7.39a18.17,18.17,0,0,1,3.06,3.6l-1.37.89a18.74,18.74,0,0,0-3-3.77Zm3.64,6.26c1.21,0,1.42-.35,1.53-2.78a4.2,4.2,0,0,0,1.57.67c-.22,3.05-.77,3.77-3,3.77h-5.2c-2.64,0-3.33-.5-3.33-2.4v-3.91h1.69v3.89c0,.64.25.76,1.73.76Zm-8.32-14.28h10.51v-1.92H340.63Zm0,3.29h10.51v-1.92H340.63Zm0,3.29h10.51v-1.92H340.63Zm12.75,2.64a18.73,18.73,0,0,1,2.59,4.75l-1.57.77a19.71,19.71,0,0,0-2.53-4.85Z"/><path class="cls-5" d="M371.23,274.12c-.5.88-1.05,1.75-1.62,2.64V292.5h-1.8V279.16a29.45,29.45,0,0,1-8.25,7,12.2,12.2,0,0,0-1.14-1.56,27,27,0,0,0,10.64-10.46H359v-1.78h19.47v1.78Zm.09,4a51.56,51.56,0,0,1,7.77,6.32l-1.34,1.36a51.62,51.62,0,0,0-7.68-6.52Z"/><path class="cls-5" d="M401.44,276.2s0,.68,0,.92c-.26,10.05-.46,13.39-1.24,14.4a1.76,1.76,0,0,1-1.52.88,14,14,0,0,1-2.76,0,5.18,5.18,0,0,0-.48-1.68c1.09.1,2.1.12,2.53.12a.85.85,0,0,0,.82-.38c.53-.7.8-3.86,1-12.58h-3.26c-.28,6.39-1.32,11.62-5.34,14.79A5.78,5.78,0,0,0,390,291.4a11.91,11.91,0,0,0,1-.84c-3.44.43-7,.84-9.53,1.12l-.25-1.55c1.37-.13,3.08-.29,5-.49v-2.06h-4.31v-1.37h4.31v-1.46h-4.27v-7.13h4.27v-1.51h-4.93v-1.4h4.93v-1.58c-1.46.12-2.94.22-4.29.27a5.47,5.47,0,0,0-.41-1.32,69,69,0,0,0,9.82-1.18l.85,1.37a43,43,0,0,1-4.45.69v1.75h4.84v1.4h-4.84v1.51h4.43v7.13h-4.43v1.46h4.47v1.37h-4.47v1.9c1.48-.15,3-.32,4.56-.51v.1c2-2.83,2.58-6.7,2.78-11.19H392.3V276.2H395c.05-1.68.05-3.43.05-5.25h1.59c0,1.8,0,3.57,0,5.25Zm-18.22,4.37h2.88v-1.73h-2.88Zm2.88,2.93v-1.75h-2.88v1.75Zm1.52-4.66v1.73h3v-1.73Zm3,2.91h-3v1.75h3Z"/><path class="cls-5" d="M79.82,315.36v3.57c0,2.71-.39,6.39-2.44,8.86a5.83,5.83,0,0,0-1.28-1.15c1.85-2.24,2.07-5.33,2.07-7.73v-5h2.88a9.09,9.09,0,0,0-.82-.89c1.8-.36,3.87-.84,5.83-1.42-1.73-.52-3.51-1-5.13-1.39l1-.86H78.29v-1.47H86.7c-.39-.6-.82-1.25-1.23-1.77l1.21-.65a20.82,20.82,0,0,1,1.73,2.42h7.66v1.47H92.58l.91.57A22.61,22.61,0,0,1,90,311.49c1.66.53,3.21,1.06,4.35,1.49l-.91.89h3.3v1.49Zm17.3,9.91v1.51H80.23v-1.51h7.45v-2.4H82.37v-1.44h5.31v-2.14H82.92a13,13,0,0,1-2.17,2.95,8.17,8.17,0,0,0-.89-1.46,13.57,13.57,0,0,0,3-5l1.46.44c-.21.55-.41,1.08-.64,1.63h4v-2h1.66v2h6.14v1.46H89.34v2.14H95v1.44H89.34v2.4Zm-4.22-11.4c-1.32-.53-3-1.11-4.83-1.71-2,.7-4.22,1.25-6.16,1.71Zm-10.46-4.56c1.78.45,3.78,1,5.72,1.61A25.54,25.54,0,0,0,92,309.31Z"/><path class="cls-5" d="M119.78,320.28v1.65H99.24v-1.65h2.3l-.43-12.65a37.5,37.5,0,0,0,4.22-1.85l.82,1.46c-1.05.46-2.3.92-3.47,1.3l.09,2.81h3.06v1.53h-3l.09,2.93h3v1.54H103l.09,2.93H116c0-.84.11-1.83.16-2.86h-3v-1.51h3c0-1,.07-2,.12-3h-3v-1.54h3c0-1,0-2,0-3H113.1v-1.56h4.83c0,4.22-.13,9.89-.34,13.42Zm-12.45,3.12a36.06,36.06,0,0,1-6.79,4.1,15.48,15.48,0,0,0-1-1.34,26.32,26.32,0,0,0,6.34-3.84Zm1.76-8.57a12.68,12.68,0,0,1-1.39,4.49,7,7,0,0,0-1.19-.77,9.73,9.73,0,0,0,1.26-4Zm1.57-1.27H107V305.8h1.48V308h3.76v1.51h-3.76v2.57h3v0h.61v6.31c0,.75-.14,1.06-.64,1.3a7.18,7.18,0,0,1-2.39.21,5.07,5.07,0,0,0-.43-1.22,12.49,12.49,0,0,0,1.71,0c.25,0,.29-.09.29-.31Zm2,8.68a53.37,53.37,0,0,1,6.64,3.85l-1.12,1.34a51.49,51.49,0,0,0-6.45-4Z"/><path class="cls-5" d="M137.75,318.62a12.58,12.58,0,0,0,5.13,3.7,6.81,6.81,0,0,0-1.12,1.36,14.16,14.16,0,0,1-5.79-5.06h-7.14a15.81,15.81,0,0,1-5.94,5.38,6.08,6.08,0,0,0-1.1-1.37,13.34,13.34,0,0,0,5.15-4H122v-1.51h4.51v-7.66h-3.46V308h3.46v-2.3h1.67V308h8.27v-2.3h1.71V308h3.42v1.49h-3.42v7.66h4.4v1.51Zm-4.65,6.77H141v1.51H123.77v-1.51h7.64v-2.52h-4.65V321.4h4.65v-2h1.69v2h4.76v1.47H133.1Zm-4.9-15.94v1.61h8.27v-1.61Zm0,4.61h8.27V312.4H128.2Zm0,3.05h8.27V315.4H128.2Z"/><path class="cls-5" d="M147.62,324.55v1.92h-1.3v-8.91a13.65,13.65,0,0,1-1.27,2.09,8.51,8.51,0,0,0-.73-1.8c1.59-2.25,2.64-5.64,3.26-9.29h-2.67v-1.65h6.79v1.65h-2.6a42,42,0,0,1-1.43,5.72h3.71v10.27Zm2.53-8.69h-2.53v7.08h2.53Zm9.28,9.58c.46,0,1,.07,1.51.07s4,0,4.74,0a5.05,5.05,0,0,0-.5,1.54h-4.34c-3.14,0-5.19-.67-6.52-3.43a8,8,0,0,1-2.43,4l-1.19-1.13c2-1.48,2.64-4.27,2.92-7.34l1.41.26c-.07.68-.14,1.35-.25,2,.64,2.13,1.66,3.21,3.08,3.72V318h-5.77v-1.51H163.9l.27-.08,1.07.39a28.06,28.06,0,0,1-1.32,3.41l-1.28-.53a16.2,16.2,0,0,0,.64-1.68h-3.85v2.83h5.2v1.46h-5.2Zm-4.7-14.07a14.72,14.72,0,0,1-2.34,3.43,6,6,0,0,0-.82-1.2,12.85,12.85,0,0,0,2.71-4.08h-2.23v-1.41h2.68v-2.43h1.4v2.43h2.18v1.41h-2.18v.29c.47.53,1.89,2.16,2.23,2.59l-.93,1.11a21.91,21.91,0,0,0-1.3-2v4.17h-1.4Zm6.41.36a11.48,11.48,0,0,1-2.37,3.31,4.35,4.35,0,0,0-.8-1.17,10.21,10.21,0,0,0,2.87-4.37h-2v-1.42h2.32v-2.4h1.41v2.4h2.85v1.42h-2.46c.8,1,2.4,3.19,2.76,3.82l-1,1.2c-.39-.82-1.39-2.5-2.15-3.73v4.85h-1.41Z"/><path class="cls-5" d="M174.14,314.18a29.68,29.68,0,0,1-1.92,8.33c2.21,2.3,5.34,2.83,9.19,2.83.89,0,5.79,0,7,0a6.22,6.22,0,0,0-.64,1.65h-6.36c-4.19,0-7.47-.6-9.84-3a11.8,11.8,0,0,1-2.85,3.6,6.33,6.33,0,0,0-1.26-1.22,10.52,10.52,0,0,0,3-3.7,15.47,15.47,0,0,1-2.07-4.65l1.25-.53a13.19,13.19,0,0,0,1.53,3.62,27.84,27.84,0,0,0,1.32-5.57h-2.76c-.36.2-.91.51-.91.75a9.55,9.55,0,0,0-.71-1.44,3,3,0,0,0,1.44-1.42,32.46,32.46,0,0,0,2.44-4.68H168v-1.58h4.58l.55-.27,1.09.75a55.7,55.7,0,0,1-3.31,6.31h2l.3-.05Zm5.58-5.09h-4.21v-1.42h4.21v-2h1.62v2h5.09v3.22H188v1.42h-1.57v3.29h-5.09v1.84H187v1.35h-5.61v1.87h6.45v1.44h-6.45v2.38h-1.62V322.1h-5.51v-1.44h5.51v-1.87h-4.56v-1.35h4.56V315.6h-4.37v-1.42h4.37v-1.87H174v-1.42h5.7Zm1.62,0v1.8h3.56v-1.8Zm3.56,3.22h-3.56v1.87h3.56Z"/><path class="cls-5" d="M199.06,311.18h-8.62v-1.47h8.62Zm10.83,5.42a15.54,15.54,0,0,1-4.06,6.92,15.32,15.32,0,0,0,5.38,2.4,7.76,7.76,0,0,0-1.05,1.6,15.77,15.77,0,0,1-5.65-2.85,18,18,0,0,1-5.66,2.93,6.8,6.8,0,0,0-.77-1.49h-5.2v1.13H191.4v-8.07h6.72v6.77a16.22,16.22,0,0,0,5.09-2.42,16.5,16.5,0,0,1-3.42-5.31l1-.36h-2v-1.68h9.71l.27-.07Zm-11.77-3.74v1.42h-6.7v-1.42Zm-6.7,3.12h6.73v1.42h-6.73Zm5.2,4.68h-3.74v4h3.74Zm-2-11.21a24.29,24.29,0,0,0-1.71-3.21l1.32-.7a20.05,20.05,0,0,1,1.76,3.09Zm8-.26a7,7,0,0,1-3.3,6.38,8.13,8.13,0,0,0-1.1-1.29,5.46,5.46,0,0,0,2.83-5.14V306.5H208v5.57c0,.67,0,.89.36.89h1.35a4.88,4.88,0,0,0,1-.12c0,.45.07,1.12.12,1.53a3.47,3.47,0,0,1-1.12.12h-1.48c-1.49,0-1.8-.67-1.8-2.47v-3.84h-3.79Zm-1.3,8.66a13.33,13.33,0,0,0,3.22,4.59,13,13,0,0,0,3.21-4.59Z"/><path class="cls-5" d="M214.38,308.11H224V310H216.5v5.52h6.34v1.9H216.5v6.41h7.77v1.89h-9.89Z"/><path class="cls-5" d="M231.27,310h-5.06v-1.89h12.25V310h-5.07v15.72h-2.12Z"/><path class="cls-5" d="M241.44,308.11h9.65V310h-7.53v6H250v1.87h-6.39v7.89h-2.12Z"/><path class="cls-5" d="M268.6,318.62a12.61,12.61,0,0,0,5.12,3.7,7.11,7.11,0,0,0-1.11,1.36,14.09,14.09,0,0,1-5.79-5.06h-7.14a15.84,15.84,0,0,1-6,5.38,6,6,0,0,0-1.09-1.37,13.34,13.34,0,0,0,5.15-4h-4.92v-1.51h4.51v-7.66h-3.47V308h3.47v-2.3H259V308h8.28v-2.3H269V308h3.42v1.49H269v7.66h4.4v1.51Zm-4.66,6.77h7.87v1.51H254.62v-1.51h7.64v-2.52h-4.65V321.4h4.65v-2h1.68v2h4.77v1.47h-4.77ZM259,309.45v1.61h8.28v-1.61Zm0,4.61h8.28V312.4H259Zm0,3.05h8.28V315.4H259Z"/><path class="cls-5" d="M286.77,314.44v3.27h8v1.63h-8v5.86h9v1.65H276.17V325.2H285v-5.86h-7.82v-1.63H285v-3.27h-4.92v-1.32a22.71,22.71,0,0,1-3.63,1.73,7.31,7.31,0,0,0-1.14-1.61c4.24-1.46,8.44-4.27,10.6-7.82l1.55.77c-.16.26-.36.57-.57.86a24.59,24.59,0,0,0,9.74,6.19,6.76,6.76,0,0,0-1.19,1.54,24.49,24.49,0,0,1-3.67-1.82v1.48Zm-6.25,5.43a21.36,21.36,0,0,1,2.17,4.29l-1.49.65a19.74,19.74,0,0,0-2.09-4.34Zm11-7.08a26.73,26.73,0,0,1-5.54-4.51,24,24,0,0,1-5.33,4.51Zm-2.67,11.49a27.05,27.05,0,0,0,2.37-4.41l1.62.65a47.27,47.27,0,0,1-2.71,4.34Z"/><path class="cls-5" d="M317.64,308.8v13.44h-1.71V321h-6.39v6.52h-1.73V321h-6.18v1.36H300V308.8h7.84v-3.17h1.73v3.17Zm-16,1.71V314h6.18v-3.48Zm6.18,8.76v-3.63h-6.18v3.63Zm1.73-8.76V314h6.39v-3.48Zm6.39,8.76v-3.63h-6.39v3.63Z"/><path class="cls-5" d="M324.75,322.41a14.47,14.47,0,0,1-2.53,5.16,12,12,0,0,0-1.27-1,10.77,10.77,0,0,0,2.27-4.56Zm3.76-.86h-6.4v-15h6.4ZM327,308h-3.4v3H327Zm0,4.44h-3.4v3.07H327Zm0,4.48h-3.4v3.12H327Zm.36,5.07a20.54,20.54,0,0,1,1.89,3.69l-1.34.68a20.2,20.2,0,0,0-1.83-3.77ZM342,323.61H340.6v2.09c0,.86-.19,1.32-.76,1.59a11.62,11.62,0,0,1-3.3.23,6.17,6.17,0,0,0-.48-1.43c1.19,0,2.28,0,2.6,0s.39-.1.39-.41v-2.09h-7.21v4h-1.53v-4h-1.48v-1.37h1.48v-6.09h4.31v-1.39h-5.7v-1.35h3.29v-1.58H330v-1.32h2.17v-1.44h-2.76v-1.35h2.76v-2.06h1.5v2.06h3.38v-2.06h1.52v2.06h2.78v1.35h-2.78v1.44H341v1.32h-2.42v1.58h3.26v1.35h-5.74v1.39h4.47v6.09H342Zm-10.12-6.12v1.71h2.78v-1.71Zm0,4.75h2.78v-1.8h-2.78Zm1.87-11.73h3.38v-1.44h-3.38Zm0,2.9h3.38v-1.58h-3.38Zm2.42,4.08v1.71h2.92v-1.71Zm2.92,4.75v-1.8h-2.92v1.8Z"/><path class="cls-5" d="M357.88,316.63a3.47,3.47,0,1,1-3.47-3.65A3.56,3.56,0,0,1,357.88,316.63Zm-1.16,0a2.31,2.31,0,1,0-2.31,2.42A2.36,2.36,0,0,0,356.72,316.63Z"/></g></g></g></svg>