<svg xmlns="http://www.w3.org/2000/svg" viewBox="0 0 64.53 26.9"><defs><style>.cls-1{fill:#ffd435;}.cls-2{fill:#0f477c;}</style></defs><g id="圖層_2" data-name="圖層 2"><g id="header"><rect class="cls-1" width="64.53" height="26.9"/><path class="cls-2" d="M7.73,12.58v6.94H6.21V8h5v4.54Zm0-3.45v.65h2V9.13Zm2,2.35v-.7h-2v.7Zm3.84,5.16v2.64H12.26V16.64H11a4.15,4.15,0,0,1-1.67,2.87,6.44,6.44,0,0,0-1-.87,3,3,0,0,0,1.34-2H8.35V15.4H9.72v-1H8.53V13.23h6.31v1.21H13.62v1h1.43v1.24ZM12.26,15.4v-1H11v1Zm5,2.34c0,.78-.15,1.21-.62,1.45a4.66,4.66,0,0,1-2.14.3A5.25,5.25,0,0,0,14,18c.59,0,1.23,0,1.42,0s.28-.08.28-.26V12.6h-3.6V8h5.13ZM13.59,9.13v.65h2.12V9.13Zm2.12,2.37v-.72H13.59v.72Z"/><path class="cls-2" d="M28.9,15.38a8.42,8.42,0,0,0,2.69,1.11,5.15,5.15,0,0,0-.9,1.12,7.5,7.5,0,0,1-1.35-.55v1c0,.59-.1.88-.52,1.07a4.26,4.26,0,0,1-1.65.18,4.25,4.25,0,0,0-.39-1.12h.88c.13,0,.18,0,.18-.17v-.72H26.1v2.22H24.6V17.29H23.09v2H21.6V17a12.58,12.58,0,0,1-1.51.69,3.63,3.63,0,0,0-.88-1.13,8.22,8.22,0,0,0,2.45-1.17H19.54V14.19h3.38a3.38,3.38,0,0,0,.3-.47H20.87V10H30v3.69H24.89a4.39,4.39,0,0,1-.27.47h6.65v1.19ZM22.51,9.45H19.63V8.26h2.88V7.57H24v.69h1.25V9.45H24v.4h-1.5Zm-.15,2h6V10.9h-6Zm0,1.4h6v-.58h-6ZM28,16.14a5.46,5.46,0,0,1-.76-.76H23.72a7.45,7.45,0,0,1-.82.76h1.7v-.63h1.5v.63Zm-1.2-6.69H25.64V8.26h1.12V7.57h1.53v.69h2.94V9.45H28.29v.4H26.76Z"/><path class="cls-2" d="M35.88,14.76v3c0,.71-.12,1.08-.51,1.31a3.18,3.18,0,0,1-1.8.29A4.85,4.85,0,0,0,33.16,18c.48,0,.93,0,1.09,0s.22-.05.22-.22V15.17l-1.2.33L32.91,14c.45-.09,1-.23,1.56-.38V11.39H33.06V10h1.41V7.55h1.41V10h1.31v1.41H35.88v1.89L37.06,13l.21,1.38ZM41.83,18c.3,0,.59,0,.92,0h2.62A4.48,4.48,0,0,0,45,19.34H42.68c-1.71,0-3-.3-3.92-1.85a5.8,5.8,0,0,1-1.36,2,9.39,9.39,0,0,0-1.15-.91,5.67,5.67,0,0,0,1.81-4l1.42.16c-.07.46-.15.9-.25,1.3a2.94,2.94,0,0,0,1.14,1.5V14.19H37.29V13H45v1.23H41.83v1.13h2.5v1.19h-2.5Zm2.54-5.62H37.92V8h6.45ZM42.88,9H39.35v.64h3.53Zm0,1.61H39.35v.66h3.53Z"/><path class="cls-2" d="M58.92,18v1.23H52.58V18H55.1V17h-2V15.87c-.25-.17-.64-.42-.94-.59v4H51v-.63H48.34v.81H47.2V10.39h1.26V9.27H46.94V8h5.64V9.27H51v1.12h1.23v4.74a6,6,0,0,0,1.07-2.33l1.3.28c-.07.24-.15.48-.21.72h.73v-.86h1.43v.86h2.1V15h-2.1v.88h1.91V17H56.53v1ZM51,17.46V14.65h-.41c-.57,0-.72-.16-.72-.92V11.65h-.4v1A3.47,3.47,0,0,1,48.77,15a2.82,2.82,0,0,0-.43-.38v2.84Zm-2.69-5.81v2.7a2.71,2.71,0,0,0,.46-1.71v-1Zm2.41,3.89v1.05H48.63V15.54Zm-1.28-5.15H50V9.27h-.48ZM51,11.65H50.6v2.08c0,.17,0,.18.11.18H51Zm7.37,1.07H53V8H58.4Zm-3.3,3.13V15H53.86a5.3,5.3,0,0,1-.55.88ZM57,9.18H54.32v.68H57Zm0,1.72H54.32v.68H57Z"/></g></g></svg>