<svg xmlns="http://www.w3.org/2000/svg" viewBox="0 0 65.16 26.9"><defs><style>.cls-1{fill:#ffd435;}.cls-2{fill:#0f477c;}</style></defs><g id="圖層_2" data-name="圖層 2"><g id="header"><rect class="cls-1" width="65.16" height="26.9"/><path class="cls-2" d="M17.47,13.63a12.87,12.87,0,0,1-2.17,2.81c.35,1,.76,1.57,1.15,1.57s.43-.61.5-2.13a4,4,0,0,0,1.28.88c-.25,2.24-.73,2.8-1.92,2.8-1,0-1.69-.77-2.25-2a13.65,13.65,0,0,1-2.42,1.56,6.66,6.66,0,0,0-1-1.23,13.52,13.52,0,0,0,2.91-1.81,23.49,23.49,0,0,1-.66-3.43H10.2v1.46l2-.36.11,1.39-2.13.42v2.19c0,.83-.18,1.24-.7,1.49a5.88,5.88,0,0,1-2.36.29A6.07,6.07,0,0,0,6.59,18c.73,0,1.49,0,1.73,0s.31-.07.31-.27V15.86l-2.34.46-.38-1.54c.75-.11,1.69-.25,2.72-.43V12.63H6.16V11.18H8.63V9.72c-.7.11-1.42.2-2.09.28A6.06,6.06,0,0,0,6.1,8.72a32.7,32.7,0,0,0,5.19-1.08l1,1.3c-.65.19-1.37.36-2.13.51v1.73h2.51c-.1-1.15-.14-2.35-.15-3.51h1.63a31.14,31.14,0,0,0,.13,3.51h3.56v1.45h-3.4c.1.77.23,1.51.38,2.16a10.41,10.41,0,0,0,1.24-1.74Zm-.95-2.82a10.26,10.26,0,0,0-1.86-2.12l1.18-.78a11.34,11.34,0,0,1,1.93,2Z"/><path class="cls-2" d="M29.06,16.06a5.86,5.86,0,0,1-1.18,1.38c1.39.32,2.64.66,3.63,1l-1.39,1.08c-1-.36-2.27-.73-3.76-1.12a17.88,17.88,0,0,1-6,1.18,4.15,4.15,0,0,0-.58-1.32,22,22,0,0,0,4.07-.45l-2.56-.49c.31-.35.65-.76,1-1.23H19.8V14.81h3.32a12.8,12.8,0,0,0,.65-1.17H20.61V10.05h2.82V9.32H20V8H31.38V9.32H27.84v.73H31v3.59H24l1.37.31c-.13.28-.29.56-.46.86H28c.11-.23.2-.48.29-.72l1.5.36a3.82,3.82,0,0,1-.13.36h2v1.25Zm-7-3.61h1.37V11.26H22.06Zm2,3.61c-.12.17-.25.34-.37.49.78.14,1.56.3,2.32.46a4.74,4.74,0,0,0,1.18-1Zm.84-6h1.48V9.32H24.9Zm1.48,2.4V11.26H24.9v1.19Zm1.46-1.19v1.19h1.57V11.26Z"/><path class="cls-2" d="M44.75,9.26v7.59H43.12v-.62h-2.9v3.28H38.59V16.23H35.75v.68H34.19V9.26h4.4V7.54h1.63V9.26Zm-9,1.46V12h2.84V10.72Zm2.84,4V13.41H35.75v1.36Zm1.63-4V12h2.9V10.72Zm2.9,4V13.41h-2.9v1.36Z"/><path class="cls-2" d="M51.75,10.85H47.12V9.64h2A13.84,13.84,0,0,0,48.5,8l1.3-.37a13.33,13.33,0,0,1,.71,1.71l-1,.34h2.27Zm-.36,3.44H47.46V13.14h3.93Zm0,4.53H48.78v.51H47.46V15H51.4ZM47.48,11.4H51.4v1.15H47.48Zm1.3,4.75v1.48h1.27V16.15Zm9.84,2c0,.64-.12,1-.58,1.17a4.82,4.82,0,0,1-1.87.2,4.35,4.35,0,0,0-.4-1.2H57c.17,0,.22-.05.22-.19v-.54H53.64a4.53,4.53,0,0,1-1,2,5.27,5.27,0,0,0-1.1-1,4.65,4.65,0,0,0,.85-3.11V13.28h6.19Zm.63-6.47v1.09H51.82V11.67h2.9V11.1H52.34v-1h2.38V9.58H52V8.49h2.71V7.55h1.51v.94h2.85V9.58H56.23v.51h2.58v1H56.23v.57ZM57.18,16.6V16H53.83c0,.2,0,.41,0,.61Zm-3.35-2.2V15h3.35v-.6Z"/></g></g></svg>