<svg xmlns="http://www.w3.org/2000/svg" xmlns:xlink="http://www.w3.org/1999/xlink" viewBox="0 0 34.83 132.55"><defs><style>.cls-1{fill:#3f3fa8;}.cls-2{fill:#fff;}.cls-3{fill:url(#未命名漸層_392);}.cls-4{fill:url(#未命名漸層_392-2);}.cls-5{fill:url(#未命名漸層_392-3);}.cls-6{fill:url(#未命名漸層_392-4);}.cls-7{fill:url(#未命名漸層_392-5);}.cls-8{fill:url(#未命名漸層_392-6);}</style><linearGradient id="未命名漸層_392" x1="9.18" y1="23.43" x2="25.95" y2="23.43" gradientUnits="userSpaceOnUse"><stop offset="0" stop-color="#cad3da"/><stop offset="0.43" stop-color="#fff"/></linearGradient><linearGradient id="未命名漸層_392-2" x1="8.88" y1="42.39" x2="26.06" y2="42.39" xlink:href="#未命名漸層_392"/><linearGradient id="未命名漸層_392-3" x1="9.16" y1="61.25" x2="25.75" y2="61.25" xlink:href="#未命名漸層_392"/><linearGradient id="未命名漸層_392-4" x1="8.72" y1="80.16" x2="26.1" y2="80.16" xlink:href="#未命名漸層_392"/><linearGradient id="未命名漸層_392-5" x1="9.05" y1="98.85" x2="25.79" y2="98.85" xlink:href="#未命名漸層_392"/><linearGradient id="未命名漸層_392-6" x1="10.02" y1="117.88" x2="25.11" y2="117.88" xlink:href="#未命名漸層_392"/></defs><g id="圖層_2" data-name="圖層 2"><g id="float"><polygon class="cls-1" points="31.66 10.86 29.42 9.42 29.2 9.28 29.2 9.02 29.16 3.29 25.07 3.39 25.08 5.62 25.08 6.51 24.31 6.02 16.57 1.16 1.88 10.84 1.88 9.67 16.29 0.18 16.56 0 16.84 0.17 24.08 4.73 24.08 2.92 24.08 2.45 24.56 2.44 29.64 2.31 30.15 2.3 30.15 2.79 30.19 8.76 31.66 9.71 31.66 10.86 31.66 10.86"/><rect class="cls-1" x="0.25" y="8.48" width="34.33" height="121.96" rx="1.82"/><polygon class="cls-1" points="5.7 131.14 6.81 131.14 7.93 131.14 27.17 131.14 28.28 131.14 29.4 131.14 29.4 131.89 28.28 131.89 27.17 131.89 7.93 131.89 6.81 131.89 5.7 131.89 5.7 131.14 5.7 131.14"/><path class="cls-2" d="M32,131.09H2.79A2.79,2.79,0,0,1,0,128.3V11.42A2.79,2.79,0,0,1,2.79,8.63h.82L16.56.1l7.27,4.58V2.61l6.57-.16,0,6.18H32a2.8,2.8,0,0,1,2.8,2.79V128.3A2.8,2.8,0,0,1,32,131.09ZM2.79,9.13A2.3,2.3,0,0,0,.5,11.42V128.3a2.3,2.3,0,0,0,2.29,2.29H32a2.3,2.3,0,0,0,2.3-2.29V11.42A2.3,2.3,0,0,0,32,9.13H29.94L29.9,3l-5.57.13v2.5L16.56.7,3.76,9.13Zm26.66,0H4.62l12-7.87,8.26,5.2V3.54l4.59-.11ZM6.29,8.63H28.94l0-4.69L25.32,4V7.36l-8.75-5.5Z"/><path class="cls-2" d="M29.65,132.55H5.45v-1.26h24.2ZM6,132.05h23.2v-.26H6Z"/><path class="cls-3" d="M26,26.36H18.7V29.3c0,1.28-.33,1.84-1.19,2.18a12.78,12.78,0,0,1-4.08.36,8,8,0,0,0-.9-2.13c1.36.06,2.9.06,3.31.06s.59-.15.59-.51v-2.9H9.18V24.28h7.25V22.17h-6V20.12h6V18c-1.91.16-3.84.27-5.64.34a6.89,6.89,0,0,0-.55-1.89A68.9,68.9,0,0,0,22.7,15l1.58,1.78a43.83,43.83,0,0,1-5.58,1v2.36h6.17v2.05H18.7v2.11H26Z"/><path class="cls-4" d="M14,45.26c0-.25-.07-.54-.13-.86-3.24.47-3.85.63-4.24.81-.11-.36-.4-1.26-.62-1.75.44-.09.81-.52,1.36-1.2.22-.27.62-.83,1.12-1.59a6.93,6.93,0,0,0-2,.38,14.52,14.52,0,0,0-.61-1.67c.33-.09.63-.45,1-1a21.31,21.31,0,0,0,2-4.45l1.78.68A28.27,28.27,0,0,1,11.38,39l1.17-.09a26.13,26.13,0,0,0,1.2-2.43l1.65,1A33.64,33.64,0,0,1,11.84,43l1.69-.2c-.13-.49-.26-1-.41-1.39L14.57,41a22.57,22.57,0,0,1,1,3.77ZM11.32,46a22.56,22.56,0,0,1-.82,4.65,8.14,8.14,0,0,0-1.6-.54,17.28,17.28,0,0,0,.77-4.36ZM13,45.73a34.16,34.16,0,0,1,.42,4.14l-1.54.27A40.26,40.26,0,0,0,11.6,46Zm1.62-.47a23.25,23.25,0,0,1,.89,3.23L14.15,49a27.87,27.87,0,0,0-.84-3.32Zm8.11,2.83c1.23.4,2.48.87,3.3,1.19l-.86,1.49c-1-.45-2.57-1.09-4-1.6l.6-1.08H19.12l1.11,1.06c-1.45.62-3.29,1.28-4.63,1.71-.17-.39-.5-1-.75-1.47a33.72,33.72,0,0,0,3.47-1.3H15.86v-5.4h9.29v5.4Zm-3.27-12H15.12V34.71h4.37v-.77h2.13v.77h4.15v1.37H21.62v.61H25.2V38H15.8V36.69h3.69Zm-4.29,2.4H25.75v3.67H15.2ZM17,40.85H18.3V39.77H17Zm.8,3.48h5.33v-.54H17.78Zm0,1.33h5.33v-.54H17.78Zm0,1.35h5.33v-.58H17.78Zm3.33-6.16V39.77h-1.2v1.08Zm2.77-1.08H22.7v1.08h1.18Z"/><path class="cls-5" d="M21.79,66.9c1.5.5,3,1,4,1.48l-1.6,1.28a42.47,42.47,0,0,0-5.21-2.08l.7-.68H15.16l1.34.61a23.29,23.29,0,0,1-5.75,2.16,12.07,12.07,0,0,0-1.57-1.54A23.9,23.9,0,0,0,14,66.9H11.56V61.55c-.42.09-.88.18-1.36.26a7.21,7.21,0,0,0-1-1.68,9.54,9.54,0,0,0,4.27-1.26H10.48A31.72,31.72,0,0,0,11,55.59h3.51v-.72H10.35V53.61h4.17v-.79h2v.79h2v-.79h2.07v.79H24.5v3.23H20.61v.79h5.07s0,.34,0,.56a3.64,3.64,0,0,1-.51,2.07,1.52,1.52,0,0,1-1,.43l-.29,0V66.9Zm-9.16-9.27h1.74a4.07,4.07,0,0,0,.13-.79H12.75Zm1.06,3.58v.72h7.89v-.72Zm0,1.86v.73h7.89v-.73Zm0,2.62h7.89v-.75H13.69Zm2.37-6.82A4,4,0,0,1,15.2,60h3.34V58.87Zm2.48-2h-2c0,.27,0,.54-.07.79h2.11Zm-2-1.25h2v-.72h-2Zm4.11-.72v.72h1.91v-.72Zm0,4V60h1.63a2.44,2.44,0,0,0-.25-.59,5.87,5.87,0,0,0,1,.05.49.49,0,0,0,.38-.1,1,1,0,0,0,.13-.49Z"/><path class="cls-6" d="M14.24,72.31A28.6,28.6,0,0,1,13,75.59V88.5H10.92v-9c-.39.55-.77,1.08-1.16,1.53a16.94,16.94,0,0,0-1-2.31,19.92,19.92,0,0,0,3.52-7Zm11.86,9.3H24.43a10.16,10.16,0,0,1,.79.93L24,83.26A10.86,10.86,0,0,0,23,82c-.18.76-.62,1-1.57,1H19.84q-.22.27-.48.54h3.73l.37-.07,1.3.72a7.18,7.18,0,0,1-2.59,2.23,30,30,0,0,0,3.91.53,7.36,7.36,0,0,0-1,1.56,24.23,24.23,0,0,1-5.21-1.06,30.48,30.48,0,0,1-5.34,1.15A6.74,6.74,0,0,0,13.43,87a32.61,32.61,0,0,0,4.1-.63q-.55-.31-1.05-.66a17.42,17.42,0,0,1-1.56.79,5,5,0,0,0-1.17-1.21,16.09,16.09,0,0,0,1.5-.66,6.29,6.29,0,0,1-.64-.76l1.58-.54.42.49a8.18,8.18,0,0,0,1.25-1.08,1.06,1.06,0,0,1-.55-1,6.51,6.51,0,0,1-1.43,1.44l-1.22-.92a4.17,4.17,0,0,0,.88-.7H13.82V79.05h1.67V74.58h3c.05-.19.09-.41.13-.63H14.37V72.42H25.73V74H20.91l-.28.63h3.93v4.47H26.1Zm-2.79-1.1a10.51,10.51,0,0,1,.84.81V80.26H20.63a8.43,8.43,0,0,1,1,.88l-1.21.7a9.41,9.41,0,0,0-1.4-1.3l.55-.28H15.67v1.22a6.26,6.26,0,0,0,.77-.92l.85.43v-.36H19v.81c0,.36.11.42.6.42h1.62c.36,0,.46-.09.51-.61a5.25,5.25,0,0,0,.86.3,4.89,4.89,0,0,0-.4-.39Zm-5.87-4.88v.54h5.08v-.54ZM22.52,77H17.44v.58h5.08Zm-5.08,2h5.08v-.58H17.44Zm2.38,6.68a7.68,7.68,0,0,0,1.86-.92l-3.79,0A8.81,8.81,0,0,0,19.82,85.73Z"/><path class="cls-7" d="M9.05,105.84a10,10,0,0,0,1.69-3.21l1.89.76a13.93,13.93,0,0,1-1.69,3.49Zm7.21-12.72H9.6V91.45h6.66v-.87h2.26v.87h6.85v1.67H18.52v.8h5.6v5.33H22.3a16.65,16.65,0,0,1,3.21,2.23L24,102.63c-.24-.25-.53-.5-.86-.79l-5.27.11a12.58,12.58,0,0,1,2.2,1.72l-1.49,1.25a13.37,13.37,0,0,0-2.73-2.22l.95-.74c-2.66,0-5.1.08-7,.09l-.09-1.8c1.76,0,4.06,0,6.57,0v-1H10.7V93.92h5.56ZM12.75,96h3.51v-.83H12.75Zm3.51,2v-.82H12.75V98Zm3.42,7.4c.8,0,1-.21,1.06-1.54a6.92,6.92,0,0,0,1.89.66c-.26,2.09-.86,2.61-2.75,2.61h-3.6c-2.55,0-3.21-.52-3.21-2.27v-2h2.16v2c0,.48.19.55,1.25.55ZM18.52,95.16V96H22v-.83Zm0,2.82H22v-.82H18.52Zm2.29,2.26c-.29-.17-.57-.31-.84-.45l.82-.54H18.52v1Zm3.07,2.48a11,11,0,0,1,1.91,3.51l-2,.63A11.89,11.89,0,0,0,22,103.31Z"/><path class="cls-8" d="M25.11,112.58v9h-2.3v-.9H18.67v5.61H16.35v-5.61H12.22v1H10v-9.08h6.33v-3.11h2.32v3.11Zm-8.76,6v-3.87H12.22v3.87Zm6.46,0v-3.87H18.67v3.87Z"/></g></g></svg>