<svg xmlns="http://www.w3.org/2000/svg" xmlns:xlink="http://www.w3.org/1999/xlink" viewBox="0 0 85.89 109.52"><defs><style>.cls-1{fill:#3f3fa8;}.cls-2{fill:url(#未命名漸層_392);}.cls-3{fill:url(#未命名漸層_392-2);}.cls-4{fill:url(#未命名漸層_392-3);}.cls-5{fill:url(#未命名漸層_392-4);}.cls-6{fill:url(#未命名漸層_392-5);}.cls-7{fill:url(#未命名漸層_392-6);}.cls-8{fill:none;stroke:#fff;stroke-miterlimit:10;stroke-width:0.5px;}</style><linearGradient id="未命名漸層_392" x1="17.26" y1="61.35" x2="17.26" y2="35.19" gradientUnits="userSpaceOnUse"><stop offset="0" stop-color="#cad3da"/><stop offset="0.43" stop-color="#fff"/></linearGradient><linearGradient id="未命名漸層_392-2" x1="42.09" y1="61.56" x2="42.09" y2="35.22" xlink:href="#未命名漸層_392"/><linearGradient id="未命名漸層_392-3" x1="67.01" y1="61.45" x2="67.01" y2="35.24" xlink:href="#未命名漸層_392"/><linearGradient id="未命名漸層_392-4" x1="17.05" y1="93.51" x2="17.05" y2="67.27" xlink:href="#未命名漸層_392"/><linearGradient id="未命名漸層_392-5" x1="42.01" y1="92.95" x2="42.01" y2="67.24" xlink:href="#未命名漸層_392"/><linearGradient id="未命名漸層_392-6" x1="67.16" y1="93.4" x2="67.16" y2="67.24" xlink:href="#未命名漸層_392"/></defs><g id="圖層_2" data-name="圖層 2"><g id="float"><polygon class="cls-1" points="78.39 27.03 72.82 23.44 72.27 23.09 72.27 22.45 72.17 8.18 62 8.42 62.02 13.98 62.02 16.19 60.11 14.99 40.85 2.88 4.3 26.95 4.3 24.06 40.15 0.45 40.83 0 41.51 0.43 59.54 11.77 59.53 7.25 59.52 6.09 60.73 6.06 73.37 5.75 74.63 5.72 74.64 6.94 74.74 21.8 78.39 24.15 78.39 27.03 78.39 27.03"/><rect class="cls-1" x="0.25" y="21.09" width="85.39" height="83.56" rx="6.33"/><path class="cls-2" d="M28.78,52.83h-10v4.56c0,2-.46,2.86-1.64,3.39a15.59,15.59,0,0,1-5.6.56A13.33,13.33,0,0,0,10.36,58c1.86.08,4,.08,4.54.08s.8-.22.8-.78V52.83h-10V49.58h10V46.3H7.46V43.11H15.7V39.84c-2.62.25-5.27.42-7.74.53a12,12,0,0,0-.75-2.94c6.07-.28,13-1,17.11-2.24L26.49,38a54,54,0,0,1-7.66,1.48v3.67H27.3V46.3H18.83v3.28h10Z"/><path class="cls-3" d="M37.32,52.86c0-.4-.1-.84-.17-1.35-4.47.73-5.3,1-5.83,1.26-.15-.56-.55-2-.85-2.71.6-.14,1.1-.82,1.86-1.88.3-.42.86-1.29,1.54-2.46a9.31,9.31,0,0,0-2.75.58,24.71,24.71,0,0,0-.83-2.6c.45-.14.86-.7,1.34-1.57a35.16,35.16,0,0,0,2.74-6.91l2.45,1.06a44.34,44.34,0,0,1-3.1,6.8l1.61-.14A40.59,40.59,0,0,0,37,39.16l2.27,1.54a54.36,54.36,0,0,1-4.89,8.6L36.67,49c-.18-.75-.36-1.51-.56-2.15l2-.59a40.44,40.44,0,0,1,1.34,5.85ZM33.64,54a39.14,39.14,0,0,1-1.13,7.23,10.55,10.55,0,0,0-2.2-.84,29.69,29.69,0,0,0,1.06-6.78ZM36,53.58A63.21,63.21,0,0,1,36.57,60l-2.12.42c0-1.76-.2-4.39-.43-6.46Zm2.21-.72a39.25,39.25,0,0,1,1.24,5l-1.92.73a45.84,45.84,0,0,0-1.16-5.16Zm11.15,4.39c1.68.62,3.4,1.35,4.53,1.85L52.7,61.42c-1.34-.7-3.53-1.7-5.45-2.49l.84-1.68H44.35l1.52,1.65c-2,1-4.52,2-6.35,2.66a25,25,0,0,0-1-2.29,42.47,42.47,0,0,0,4.77-2H39.87v-8.4H52.62v8.4ZM44.86,38.58h-6V36.45h6V35.24h2.92v1.21h5.7v2.13h-5.7v1H52.7v2H39.79v-2h5.07ZM39,42.3H53.45V48H39ZM41.41,46h1.81V44.32H41.41Zm1.11,5.4h7.3v-.84h-7.3Zm0,2.07h7.3v-.84h-7.3Zm0,2.1h7.3v-.89h-7.3ZM47.08,46V44.32H45.44V46Zm3.8-1.68H49.27V46h1.61Z"/><path class="cls-4" d="M73,57.14c2.06.78,4.11,1.62,5.44,2.3l-2.19,2a54.57,54.57,0,0,0-7.16-3.22l1-1.06H63.86l1.84,1a30.32,30.32,0,0,1-7.89,3.36A17.37,17.37,0,0,0,55.64,59a28.89,28.89,0,0,0,6.58-1.9h-3.3V48.82c-.58.14-1.21.28-1.87.4a11.68,11.68,0,0,0-1.44-2.61c3-.42,4.79-1.09,5.88-2H57.43c.28-1.4.58-3.44.73-5.09H63V38.44H57.25v-2H63V35.24H65.7v1.24h2.8V35.24h2.84v1.24h5.35v5H71.34v1.23h7s0,.53,0,.87c-.13,1.73-.28,2.71-.71,3.22a1.88,1.88,0,0,1-1.44.67c-.1,0-.25,0-.4,0v9.63ZM60.38,42.72h2.39A6.18,6.18,0,0,0,63,41.49H60.56Zm1.46,5.57v1.12H72.68V48.29Zm0,2.89v1.14H72.68V51.18Zm0,4.08H72.68V54.09H61.84Zm3.25-10.61a6.23,6.23,0,0,1-1.18,1.77H68.5V44.65Zm3.41-3.16H65.7c0,.42,0,.84-.1,1.23h2.9Zm-2.8-1.93h2.8V38.44H65.7Zm5.64-1.12v1.12H74V38.44Zm0,6.21v1.77h2.25a3.76,3.76,0,0,0-.36-.93,7.37,7.37,0,0,0,1.42.09.61.61,0,0,0,.53-.17,1.88,1.88,0,0,0,.17-.76Z"/><path class="cls-5" d="M12.7,68.2A50.72,50.72,0,0,1,11,73.29V93.37H8.14V79.28c-.53.87-1.06,1.68-1.59,2.38a29.43,29.43,0,0,0-1.44-3.58A32.43,32.43,0,0,0,10,67.27ZM29,82.64h-2.3a15.55,15.55,0,0,1,1.09,1.46l-1.62,1.12a17.86,17.86,0,0,0-1.38-2c-.26,1.18-.86,1.54-2.17,1.54H20.39c-.2.28-.43.56-.66.84h5.12l.51-.11,1.79,1.12a10.4,10.4,0,0,1-3.56,3.47,38.59,38.59,0,0,0,5.37.81,11.77,11.77,0,0,0-1.44,2.44,29.86,29.86,0,0,1-7.16-1.65A37.46,37.46,0,0,1,13,93.51a10.75,10.75,0,0,0-1.44-2.41,39.74,39.74,0,0,0,5.62-1c-.5-.34-1-.67-1.43-1-.66.42-1.36.84-2.15,1.24A7.18,7.18,0,0,0,12,88.44a18.17,18.17,0,0,0,2.07-1,8.73,8.73,0,0,1-.88-1.17l2.16-.84c.18.25.38.5.58.75a12.53,12.53,0,0,0,1.72-1.68,1.7,1.7,0,0,1-.76-1.54,9.06,9.06,0,0,1-2,2.24l-1.66-1.42a6.52,6.52,0,0,0,1.21-1.1H12.12v-4h2.3v-7h4.15a9,9,0,0,0,.18-1H12.88V68.36h15.6v2.38H21.85l-.38,1h5.4v7H29Zm-3.84-1.7a14.32,14.32,0,0,1,1.16,1.26V80.54H21.47a12.57,12.57,0,0,1,1.37,1.38L21.17,83a14.19,14.19,0,0,0-1.91-2l.75-.45H14.67v1.91A11,11,0,0,0,15.73,81l1.16.67v-.56h2.34v1.26c0,.56.15.65.83.65h2.22c.5,0,.63-.14.71-1a5.63,5.63,0,0,0,1.18.48c-.18-.22-.38-.42-.55-.62Zm-8.06-7.59v.84h7v-.84Zm7,2.18h-7v.9h7Zm-7,3.14h7v-.9h-7Zm3.27,10.39a10.39,10.39,0,0,0,2.55-1.43l-5.19,0A10.84,10.84,0,0,0,20.36,89.06Z"/><path class="cls-6" d="M30.52,91a16.17,16.17,0,0,0,2.32-5l2.59,1.17a21.69,21.69,0,0,1-2.32,5.43Zm9.9-19.77H31.27v-2.6h9.15V67.24h3.1v1.35h9.41v2.6H43.52v1.23h7.69v8.29H48.72a25,25,0,0,1,4.41,3.47L51,86a16.32,16.32,0,0,0-1.18-1.24l-7.23.17a17.93,17.93,0,0,1,3,2.69l-2,1.93a19.29,19.29,0,0,0-3.76-3.44l1.31-1.15-9.63.14-.12-2.8c2.42,0,5.57,0,9,0V80.71H32.78V72.42h7.64Zm-4.81,4.45h4.81V74.36H35.61Zm4.81,3.11V77.46H35.61v1.29Zm4.69,11.51c1.11,0,1.34-.34,1.46-2.41a8.8,8.8,0,0,0,2.6,1C48.82,92.14,48,93,45.39,93H40.45C36.94,93,36,92.14,36,89.42V86.23h3v3.16c0,.76.25.87,1.72.87Zm-1.59-15.9v1.28h4.72V74.36Zm0,4.39h4.72V77.46H43.52Zm3.15,3.5-1.16-.7,1.14-.84H43.52v1.57Zm4.21,3.87a17.93,17.93,0,0,1,2.63,5.46l-2.78,1A19.36,19.36,0,0,0,48.29,87Z"/><path class="cls-7" d="M77.52,72.09v14H74.37v-1.4h-5.7V93.4H65.5V84.66H59.82V86.2h-3V72.09h8.7V67.24h3.17v4.85Zm-12,9.29v-6H59.82v6Zm8.87,0v-6h-5.7v6Z"/><polygon class="cls-1" points="13.8 106.4 16.57 106.4 19.35 106.4 67.21 106.4 69.99 106.4 72.76 106.4 72.76 108.27 69.99 108.27 67.21 108.27 19.35 108.27 16.57 108.27 13.8 108.27 13.8 106.4 13.8 106.4"/><path class="cls-8" d="M79.31,22.09H74.73L74.64,7.94V6.72l-1.26,0-12.63.31-1.22,0v5.68l-18-11.34L40.83,1l-.68.45L8.8,22.09H6.58A6.32,6.32,0,0,0,.25,28.42v70.9a6.33,6.33,0,0,0,6.33,6.33H79.31a6.33,6.33,0,0,0,6.33-6.33V28.42A6.32,6.32,0,0,0,79.31,22.09ZM40.85,3.88,60.11,16,62,17.19V15l0-5.56,10.17-.24.09,12.91H13.2Z"/><polygon class="cls-8" points="67.21 107.4 19.35 107.4 16.57 107.4 13.8 107.4 13.8 109.27 16.57 109.27 19.35 109.27 67.21 109.27 69.99 109.27 72.76 109.27 72.76 107.4 69.99 107.4 67.21 107.4"/></g></g></svg>