<svg xmlns="http://www.w3.org/2000/svg" xmlns:xlink="http://www.w3.org/1999/xlink" viewBox="0 0 1788.69 373.3"><defs><style>.cls-1{isolation:isolate;}.cls-2,.cls-3,.cls-5,.cls-6{opacity:0.5;mix-blend-mode:overlay;}.cls-2{fill:url(#linear-gradient);}.cls-3{fill:url(#linear-gradient-2);}.cls-4{fill:#fff;}.cls-5{fill:url(#linear-gradient-3);}.cls-6{fill:url(#linear-gradient-4);}</style><linearGradient id="linear-gradient" x1="1695.18" y1="6487.15" x2="1726.82" y2="6455.51" gradientTransform="translate(1828.41 6523.57) rotate(180)" gradientUnits="userSpaceOnUse"><stop offset="0" stop-color="#fff"/><stop offset="0.04" stop-color="#fff" stop-opacity="0.95"/><stop offset="0.3" stop-color="#fff" stop-opacity="0.69"/><stop offset="0.54" stop-color="#fff" stop-opacity="0.48"/><stop offset="0.74" stop-color="#fff" stop-opacity="0.33"/><stop offset="0.9" stop-color="#fff" stop-opacity="0.23"/><stop offset="1" stop-color="#fff" stop-opacity="0.2"/></linearGradient><linearGradient id="linear-gradient-2" x1="1646.9" y1="6516.19" x2="1678.54" y2="6484.55" xlink:href="#linear-gradient"/><linearGradient id="linear-gradient-3" x1="95.18" y1="6208.04" x2="126.82" y2="6176.4" xlink:href="#linear-gradient"/><linearGradient id="linear-gradient-4" x1="46.9" y1="6237.08" x2="78.54" y2="6205.44" xlink:href="#linear-gradient"/></defs><g class="cls-1"><g id="圖層_2" data-name="圖層 2"><g id="底圖"><path class="cls-2" d="M126.66,31.71H108.15A4.49,4.49,0,0,0,104.26,34L95,50a4.5,4.5,0,0,0,0,4.49l9.26,16a4.48,4.48,0,0,0,3.89,2.24h18.51a4.48,4.48,0,0,0,3.89-2.24l9.26-16a4.5,4.5,0,0,0,0-4.49l-9.26-16A4.49,4.49,0,0,0,126.66,31.71Z"/><path class="cls-3" d="M175,2.67H156.43a4.5,4.5,0,0,0-3.89,2.25l-9.26,16a4.5,4.5,0,0,0,0,4.49l9.26,16a4.49,4.49,0,0,0,3.89,2.24H175a4.47,4.47,0,0,0,3.88-2.24l9.26-16a4.45,4.45,0,0,0,0-4.49l-9.26-16A4.48,4.48,0,0,0,175,2.67Z"/><path class="cls-4" d="M57,200.47H24.9A8.9,8.9,0,0,1,17.21,196l-16-27.76a8.84,8.84,0,0,1,0-8.87l16-27.77a8.91,8.91,0,0,1,7.69-4.43H57a8.9,8.9,0,0,1,7.68,4.43l16,27.77a8.89,8.89,0,0,1,0,8.87L64.64,196A8.89,8.89,0,0,1,57,200.47ZM24.9,129.4a6.7,6.7,0,0,0-5.78,3.33l-16,27.77a6.68,6.68,0,0,0,0,6.67l16,27.76a6.69,6.69,0,0,0,5.78,3.34H57a6.7,6.7,0,0,0,5.78-3.34l16-27.76a6.73,6.73,0,0,0,0-6.67l-16-27.77A6.71,6.71,0,0,0,57,129.4Z"/><path class="cls-4" d="M57,94.19H24.9a8.91,8.91,0,0,1-7.69-4.43L1.19,62a8.84,8.84,0,0,1,0-8.87l16-27.77a8.91,8.91,0,0,1,7.69-4.43H57a8.9,8.9,0,0,1,7.68,4.43l16,27.77a8.89,8.89,0,0,1,0,8.87l-16,27.77A8.9,8.9,0,0,1,57,94.19ZM24.9,23.12a6.69,6.69,0,0,0-5.78,3.34l-16,27.76a6.68,6.68,0,0,0,0,6.67l16,27.76A6.69,6.69,0,0,0,24.9,92H57a6.7,6.7,0,0,0,5.78-3.34l16-27.76a6.73,6.73,0,0,0,0-6.67l-16-27.76A6.7,6.7,0,0,0,57,23.12Z"/><path class="cls-5" d="M1726.66,310.82h-18.51a4.49,4.49,0,0,0-3.89,2.25l-9.26,16a4.5,4.5,0,0,0,0,4.49l9.26,16a4.48,4.48,0,0,0,3.89,2.24h18.51a4.48,4.48,0,0,0,3.89-2.24l9.26-16a4.5,4.5,0,0,0,0-4.49l-9.26-16A4.49,4.49,0,0,0,1726.66,310.82Z"/><path class="cls-6" d="M1775,281.78h-18.52a4.5,4.5,0,0,0-3.89,2.25l-9.26,16a4.5,4.5,0,0,0,0,4.49l9.26,16a4.5,4.5,0,0,0,3.89,2.25H1775a4.48,4.48,0,0,0,3.88-2.25l9.26-16a4.45,4.45,0,0,0,0-4.49l-9.26-16A4.48,4.48,0,0,0,1775,281.78Z"/><path class="cls-4" d="M1681.13,73.27h-32.06a8.9,8.9,0,0,1-7.68-4.43l-16-27.77a8.89,8.89,0,0,1,0-8.87l16-27.76A8.89,8.89,0,0,1,1649.07,0h32.06a8.89,8.89,0,0,1,7.68,4.44l16,27.76a8.89,8.89,0,0,1,0,8.87l-16,27.77A8.9,8.9,0,0,1,1681.13,73.27ZM1649.07,2.2a6.69,6.69,0,0,0-5.78,3.34l-16,27.76a6.68,6.68,0,0,0,0,6.67l16,27.77a6.7,6.7,0,0,0,5.78,3.33h32.06a6.71,6.71,0,0,0,5.78-3.33l16-27.77a6.68,6.68,0,0,0,0-6.67l-16-27.76a6.7,6.7,0,0,0-5.78-3.34Z"/><path class="cls-4" d="M1657,373.3H1624.9a8.91,8.91,0,0,1-7.69-4.43l-16-27.77a8.84,8.84,0,0,1,0-8.87l16-27.76a8.9,8.9,0,0,1,7.69-4.44H1657a8.89,8.89,0,0,1,7.68,4.44l16,27.76a8.89,8.89,0,0,1,0,8.87l-16,27.77A8.9,8.9,0,0,1,1657,373.3Zm-32.06-71.07a6.69,6.69,0,0,0-5.78,3.34l-16,27.76a6.68,6.68,0,0,0,0,6.67l16,27.77a6.7,6.7,0,0,0,5.78,3.33H1657a6.71,6.71,0,0,0,5.78-3.33l16-27.77a6.73,6.73,0,0,0,0-6.67l-16-27.76a6.7,6.7,0,0,0-5.78-3.34Z"/></g></g></g></svg>