<svg xmlns="http://www.w3.org/2000/svg" viewBox="0 0 188.29 39.64"><defs><style>.cls-1{fill:#00918e;}.cls-2{fill:#0082ba;}.cls-3{fill:#231815;}</style></defs><g id="圖層_2" data-name="圖層 2"><g id="header"><path class="cls-1" d="M18.47.09H36.83V1q0,6.48,0,13a14.91,14.91,0,0,1-.12,2.84,25.43,25.43,0,0,1-1,3c2.74,4.43,3.38,9.21.19,13.94-2.71,4-6.78,5.67-11.58,5.84V33.81c3.61-.32,6.47-1.8,7.43-5.5a7.51,7.51,0,0,0-3.31-8.62c.39-.32.69-.55,1-.81A4.69,4.69,0,0,0,31,15.26c0-2.73,0-5.45,0-8.18V6.22H24.49V16.8H12.68v-6h5.79Z"/><path class="cls-2" d="M12.63,33.52V22.89h11.8v6H18.64v10.6H0V11.31A11.27,11.27,0,0,1,1.5,4.89,10.42,10.42,0,0,1,9.44.2C10.5.07,11.58.06,12.71,0V6C11.8,6,10.9,6.06,10,6.2a4.53,4.53,0,0,0-4.11,4.7c0,7.38,0,14.75,0,22.13,0,.15,0,.3,0,.49Z"/><path class="cls-3" d="M73.18,22.24v4.62H54.88V20.51H71c2.34,0,2.21,1.73,2.21,1.73m-3.56.52H58.19v1.95H69.62Z"/><path class="cls-3" d="M51.47,39.39V28.18H74.16a2.67,2.67,0,0,1,1.1.33,2.5,2.5,0,0,1,1.46,2.15v8.73H72.91v-.77H55.26v.77H51.47m21.44-8.67H65.83v1.53h7.08Zm-10.57,0H55.28v1.53h7.06Zm10.57,3.9H65.83v1.52h7.08Zm-10.57,0H55.28v1.52h7.06Z"/><rect class="cls-3" x="54.86" y="16.91" width="18.31" height="2.39"/><path class="cls-3" d="M50.06,19.89V12.55H62.19v-1.9h3.66v1.78h9.57s2.45.18,2.45,2.23v5.23H74.54v-4.2h-21v4.2Z"/><path class="cls-3" d="M112.17,21.44l2.32-7.66a2.09,2.09,0,0,0-2-2.49h-9.7v28.2h3.53v-5.1s1.06,1.57,1.62,2.36a5.79,5.79,0,0,0,2.8-.71,7.78,7.78,0,0,0,4.21-5.91,12.15,12.15,0,0,0-2.75-8.69m-.8,9a5,5,0,0,1-3.07,3,3.82,3.82,0,0,1-2.06.08V14.78h4.5c-.67,2.44-1.52,5-2.28,7.37.24.44.76.85,1,1.34,1.31,2,2.58,4.33,1.87,6.93"/><path class="cls-3" d="M101.55,23.79V20.14H96.49V17.38h5v-3.5h-5V10.59H92.66v3.29H86.89v3.58h5.77v2.71H86.89v3.56h5.77V26.4H87V30H92.5a9.9,9.9,0,0,1-3.45,6.66l2.09,2.79c5.14-2.88,5.38-9.42,5.38-9.42h5V26.4H96.49V23.79Z"/><path class="cls-3" d="M134,25.81V21.9c-.28.16-2.26,1.35-3.14,1.86V19.07h3.23V15.72H130.9v-5h-3.59v5h-4v3.35h4v6.61a29.3,29.3,0,0,1-4.65,2.39S124,31.65,124,31.64a22.21,22.21,0,0,0,3.34-1.87s0,3.59,0,3.81a2.12,2.12,0,0,1-.45,1.29,3.5,3.5,0,0,1-2.67,1.6l1.47,3c3.31-.32,4.2-2.11,4.2-2.11a6.83,6.83,0,0,0,1-3.84V28c1.74-1.24,3.11-2.16,3.11-2.16"/><path class="cls-3" d="M136.62,22.05c2.38-2,2.72-4.91,2.92-7.8,0,0,0-.38.31-.38h3.46a.31.31,0,0,1,.33.26v5.73s-.1,2,2.59,2h3.18l1.43-3h-3.46c-.22,0-.25-.25-.25-.25V13.48c-.09-1.29-.52-2.63-2.08-2.84h-8s-.6,0-.6.52a20.47,20.47,0,0,1-1,7,5.63,5.63,0,0,1-1.06,1.89l2,2s.1.2.29,0"/><path class="cls-3" d="M149.36,24.42s.4-1.67-.81-1.67l-13.71,0v3.13l9.92,0c.3,0,.17.41.17.41s-.4,2-3.11,4.65a11.4,11.4,0,0,1-2.55-4.13h-3.86a20.11,20.11,0,0,0,3.83,6.26,35.35,35.35,0,0,1-6.59,3.62l2,2.84a31.28,31.28,0,0,0,7.15-4,21.52,21.52,0,0,0,7.5,4.1L150.93,37a28.94,28.94,0,0,1-6.54-3.72c4.54-4.55,5-8.89,5-8.89"/><polygon class="cls-3" points="180.48 13.05 180.48 10.85 177.05 10.85 177.05 13.05 169.22 13.05 169.22 16.16 188.29 16.16 188.29 13.05 180.48 13.05"/><rect class="cls-3" x="170.63" y="23.92" width="16.27" height="3.01"/><rect class="cls-3" x="170.63" y="18.58" width="16.27" height="3.01"/><path class="cls-3" d="M185.22,29.2H169.75v10.1h3.42v-.93h11.2v.93h3.43v-7.1a3.44,3.44,0,0,0-.85-2.27,2.45,2.45,0,0,0-1.73-.72m-.85,4v2.19h-11.2V32.16h10.28a1,1,0,0,1,.7.29,1.18,1.18,0,0,1,.22.74"/><path class="cls-3" d="M165.35,10.66a26.17,26.17,0,0,1-6.07,12.61l2.36,3A9.91,9.91,0,0,0,163.69,24v15.3h3.43v-21a54.93,54.93,0,0,0,1.95-7.65s-3.72,0-3.72,0"/></g></g></svg>