<svg xmlns="http://www.w3.org/2000/svg" viewBox="0 0 131.88 27.77"><defs><style>.cls-1{fill:#00918e;}.cls-2{fill:#0082ba;}.cls-3{fill:#fff;}</style></defs><g id="圖層_2" data-name="圖層 2"><g id="header"><path class="cls-1" d="M12.94.06H25.8V.67c0,3,0,6.05,0,9.07a10.94,10.94,0,0,1-.08,2A17.15,17.15,0,0,1,25,13.85c1.92,3.11,2.37,6.46.14,9.77-1.9,2.82-4.75,4-8.12,4.09v-4c2.53-.22,4.54-1.26,5.21-3.85a5.27,5.27,0,0,0-2.32-6c.27-.23.49-.39.68-.57a3.25,3.25,0,0,0,1.1-2.53c0-1.91,0-3.82,0-5.73V4.35H17.15v7.42H8.88V7.6h4.06Z"/><path class="cls-2" d="M8.85,23.48V16h8.26v4.18H13.05v7.43H0V7.92a8,8,0,0,1,1.05-4.5A7.31,7.31,0,0,1,6.61.14C7.36.05,8.11,0,8.9,0V4.17c-.64.06-1.26.08-1.88.17a3.17,3.17,0,0,0-2.87,3.3c0,5.16,0,10.33,0,15.49,0,.11,0,.21,0,.35Z"/><path class="cls-3" d="M51.25,15.57s0,3.24,0,3.24H38.44V14.36H49.71c1.64,0,1.54,1.21,1.54,1.21m-2.48.37h-8v1.37h8Z"/><path class="cls-3" d="M36.05,27.59V19.74H51.94a1.91,1.91,0,0,1,.78.23,1.75,1.75,0,0,1,1,1.5v6.12H51.07v-.54H38.7v.54H36.05m15-6.07h-5v1.07h5Zm-7.4,0h-5v1.06h5Zm7.4,2.73h-5v1.06h5Zm-7.4,0h-5v1.07h5Z"/><rect class="cls-3" x="38.43" y="11.84" width="12.83" height="1.67"/><path class="cls-3" d="M35.07,13.93V8.79h8.49V7.46h2.56V8.71h6.71s1.71.12,1.71,1.56v3.66H52.21V11H37.53v2.94Z"/><path class="cls-3" d="M78.56,15l1.63-5.36a1.46,1.46,0,0,0-1.42-1.74H72V27.66h2.48V24.09s.74,1.1,1.13,1.65a4.07,4.07,0,0,0,2-.49,5.46,5.46,0,0,0,2.95-4.15A8.45,8.45,0,0,0,78.56,15M78,21.31a3.5,3.5,0,0,1-2.15,2.07,2.76,2.76,0,0,1-1.44.06V10.35h3.16c-.48,1.7-1.07,3.48-1.6,5.15.16.31.53.6.72.94.92,1.42,1.81,3,1.31,4.86"/><path class="cls-3" d="M71.13,16.66V14.11H67.58V12.17h3.47V9.72H67.58V7.42H64.9v2.3h-4v2.51h4v1.89h-4v2.5h4v1.87h-4V21h3.87a7,7,0,0,1-2.42,4.67l1.46,1.95c3.61-2,3.77-6.6,3.77-6.6h3.53V18.49H67.58V16.66Z"/><path class="cls-3" d="M93.88,18.08V15.34l-2.2,1.3V13.36H94V11H91.68V7.48H89.17V11H86.36v2.35h2.81V18a19.87,19.87,0,0,1-3.26,1.68s.93,2.51,1,2.5a15.94,15.94,0,0,0,2.33-1.31s0,2.52,0,2.67a1.49,1.49,0,0,1-.32.9A2.47,2.47,0,0,1,87,25.55l1,2.1c2.32-.22,2.94-1.48,2.94-1.48a4.81,4.81,0,0,0,.71-2.69V19.59c1.22-.87,2.18-1.51,2.18-1.51"/><path class="cls-3" d="M95.69,15.44c1.67-1.4,1.9-3.44,2-5.46,0,0,0-.26.22-.26h2.42a.22.22,0,0,1,.24.18v4s-.07,1.37,1.82,1.37h2.23l1-2.1h-2.42a.19.19,0,0,1-.18-.17V9.44c-.07-.9-.37-1.84-1.46-2H96s-.42,0-.42.36a14.4,14.4,0,0,1-.72,4.9A3.82,3.82,0,0,1,94.07,14l1.41,1.4s.08.14.21,0"/><path class="cls-3" d="M104.61,17.1s.28-1.16-.57-1.16l-9.6,0v2.19l7,0c.21,0,.12.29.12.29a7.19,7.19,0,0,1-2.18,3.25,7.84,7.84,0,0,1-1.78-2.9H94.84a14.24,14.24,0,0,0,2.68,4.4,24.75,24.75,0,0,1-4.61,2.52l1.38,2a22.16,22.16,0,0,0,5-2.8,15,15,0,0,0,5.24,2.88l1.16-1.83a20,20,0,0,1-4.58-2.61,11.36,11.36,0,0,0,3.48-6.23"/><polygon class="cls-3" points="126.41 9.14 126.41 7.6 124 7.6 124 9.14 118.52 9.14 118.52 11.32 131.88 11.32 131.88 9.14 126.41 9.14"/><rect class="cls-3" x="119.51" y="16.76" width="11.4" height="2.11"/><rect class="cls-3" x="119.51" y="13.01" width="11.4" height="2.11"/><path class="cls-3" d="M129.73,20.45H118.89v7.07h2.4v-.65h7.84v.65h2.4v-5a2.35,2.35,0,0,0-.59-1.58,1.72,1.72,0,0,0-1.21-.51m-.6,2.79v1.54h-7.84V22.53h7.2a.69.69,0,0,1,.49.2.8.8,0,0,1,.15.51"/><path class="cls-3" d="M115.81,7.47a18.41,18.41,0,0,1-4.25,8.83l1.66,2.08a7,7,0,0,0,1.43-1.58V27.52h2.4V12.82a38.15,38.15,0,0,0,1.37-5.35s-2.61,0-2.61,0"/></g></g></svg>