<svg xmlns="http://www.w3.org/2000/svg" xmlns:xlink="http://www.w3.org/1999/xlink" viewBox="0 0 241.78 55.66"><defs><style>.cls-1{stroke:#fff;stroke-miterlimit:10;opacity:0.9;fill:url(#linear-gradient);}.cls-2{fill:#fff;}</style><linearGradient id="linear-gradient" x1="120.89" y1="0.5" x2="120.89" y2="55.16" gradientUnits="userSpaceOnUse"><stop offset="0" stop-color="#0045b4"/><stop offset="1" stop-color="#001237"/></linearGradient></defs><g id="圖層_2" data-name="圖層 2"><g id="nav"><rect class="cls-1" x="0.5" y="0.5" width="240.78" height="54.66" rx="13.51"/><path class="cls-2" d="M64.25,22.32v2.55H59.09l-.22,2.34H42.48l.28-2.34H38.29V22.32H43.1L43.39,20H59.52l-.2,2.28ZM56.67,37.8c2.51.72,5,1.5,6.7,2.07l-2.31,2.19a90.92,90.92,0,0,0-8.66-2.91l1.16-1.35H48.35l1.71,1.32a34,34,0,0,1-9.69,3,17.09,17.09,0,0,0-1.8-2.43,36.42,36.42,0,0,0,7.5-1.86H42V28.08H60.58V37.8ZM42.13,21.54H39.08V16.32H49.49a14.22,14.22,0,0,0-.83-1.8l3-.87a17.37,17.37,0,0,1,1.31,2.67h10.4v5.22H60.18V19.08h-18Zm3.14,9.21H57.13v-.87H45.27Zm0,2.64H57.13v-.93H45.27Zm0,2.64H57.13v-1H45.27Zm.46-10.59h3.73l.14-1H45.84Zm.42-3.6-.11.87h3.73l.09-.87Zm9.78,3.6.09-1H52.37l-.12,1Zm.29-3.6h-3.6l0,.87h3.59Z"/><path class="cls-2" d="M71.29,21a8.7,8.7,0,0,1-2.71,4.2,12.48,12.48,0,0,0-2.19-2.28,6.57,6.57,0,0,0,2.48-5.58v-2A34.94,34.94,0,0,0,77.25,14l1.88,2.07a30.31,30.31,0,0,1-7.36,1.38c0,.3,0,.63,0,1H79.5V21H76.76v3.06h-3V21ZM85.4,24.15V21H83a8.28,8.28,0,0,1-1.88,3.63h7.86V37H85.17c2.68.84,5.39,1.83,7.18,2.58l-1.56,2.49a79.46,79.46,0,0,0-8.58-3.33l1-1.74H75.85l1.85,1.14a50.13,50.13,0,0,1-9.18,4,24.26,24.26,0,0,0-1.62-3A43.44,43.44,0,0,0,74.25,37H70.49V24.63H80.7A14.22,14.22,0,0,0,78.44,23a7.21,7.21,0,0,0,2.06-5.61V15.24a35.42,35.42,0,0,0,8.8-1.32l2.11,2a32.78,32.78,0,0,1-8.06,1.44v.15c0,.3,0,.6,0,.9h9.15V21h-4v3.15Zm.11,2.61H73.74v1.35H85.51Zm0,3.33H73.74v1.38H85.51Zm0,3.39H73.74v1.35H85.51Z"/><path class="cls-2" d="M113,19.23c1.53,1.59,4.56,2.34,8.4,2.55a11.74,11.74,0,0,0-1.88,2.85,13.27,13.27,0,0,1-7.47-3c-1.08,1.32-3.44,2.49-8.23,3.06a10.65,10.65,0,0,0-1.14-1.95H95.14V20h8.61v1.83c5.45-.6,6.16-1.95,6.16-3.06V18.3H108.2a12.78,12.78,0,0,1-2,2.58,15.88,15.88,0,0,0-2.51-1.83A12.11,12.11,0,0,0,107,13.71l3,.69c-.14.45-.31.9-.48,1.32h8.09l.52-.15,2.31.75a26.09,26.09,0,0,1-2.63,4.74l-2.62-1a16.08,16.08,0,0,0,1-1.74H113v.93Zm.77,17.64c2.62,1,5.41,2.22,7.09,3.09l-3,1.92a51.09,51.09,0,0,0-7.41-3.54l1.74-1.47h-8l2.48,1.2A35.84,35.84,0,0,1,97.71,42a23.67,23.67,0,0,0-2.51-2.61A31.19,31.19,0,0,0,103,36.87h-4.1V24.69H118V36.87ZM103.1,18H95.8V15.36h7.3Zm-.94,10.14H114.5V26.82H102.16Zm0,3.3H114.5V30.12H102.16Zm0,3.36H114.5V33.42H102.16Z"/><path class="cls-2" d="M150,38.31v2.88H129.09V38.31h8.63V36.57h-6V34.41a16.75,16.75,0,0,1-1.62,1.86,21.1,21.1,0,0,0-1.34-3c-.34,3.12-1.17,6.57-3,9A12.45,12.45,0,0,0,123.05,40c2.3-3,2.53-7.26,2.53-10.35V24.27h3.85A14.94,14.94,0,0,0,128,22.89c2.06-.33,4.31-.75,6.5-1.29-1.79-.48-3.64-.9-5.33-1.23l1.6-1.29h-4.9V16.29h9.92a17.55,17.55,0,0,0-1.09-1.56L137,13.56a17.15,17.15,0,0,1,1.91,2.73h9.87v2.79h-4.14L146,20a37.38,37.38,0,0,1-3.51,1.5c1.69.48,3.23,1,4.51,1.41l-1.6,1.38h4.19v2.85H128.89v2.52c0,1,0,2-.14,3.15a15.05,15.05,0,0,0,3.25-5.4l2.87.9c-.14.39-.28.78-.45,1.2h3.3V27.66h3.34v1.83h7v2.79h-7v1.56h6.21v2.73h-6.21v1.74Zm-12.32-4.47V32.28h-4.64c-.31.54-.63,1-1,1.56Zm5.82-9.57c-1.4-.51-3.11-1-4.9-1.53-2.06.57-4.14,1.08-6.13,1.53Zm-10.26-5.19c1.79.42,3.68.87,5.56,1.35a27.56,27.56,0,0,0,3.73-1.35Z"/><path class="cls-2" d="M177.74,18v6.81h-3.36V21H156.13v3.78h-3.19V18h3.76a24.54,24.54,0,0,0-1.56-2.58l3-1.23a18.38,18.38,0,0,1,2.25,3.57l-.51.24h3.53V13.89h3.39V18h3.37l-.17-.06a22.7,22.7,0,0,0,2-3.84l3.59,1.11c-.68,1-1.37,2-2,2.79ZM155,30.57h20.75V41.94h-3.39v-.69H158.24V42H155Zm17.79-8.13v6.87H157.73V22.44ZM158.24,33.15v1.56h5.31V33.15Zm5.31,5.52V37.11h-5.31v1.56ZM169.45,25h-8.56v1.77h8.56Zm2.93,8.16h-5.56v1.56h5.56Zm0,5.52V37.11h-5.56v1.56Z"/><path class="cls-2" d="M188.77,28.65a27.23,27.23,0,0,1-1.66,6.51c1.77,2.79,4.88,3.15,9.35,3.18,3,0,7.7-.18,10.92-.51a10.17,10.17,0,0,0-1.08,3.3c-2.94.21-6.56.27-9.89.27-5.13,0-8.41-.57-10.58-3.51a13.12,13.12,0,0,1-3.65,4,11.3,11.3,0,0,0-2.16-2.4c2.62-1.65,4.44-4.59,5.38-8.67H183a3.31,3.31,0,0,0-1.77.45,23.37,23.37,0,0,0-1.05-2.88,2.88,2.88,0,0,0,1.45-1,35.18,35.18,0,0,0,2.77-3.78h-3.68V20.85h5.79l.34-.15,2.08,1c-1.08,1.65-2.88,4.38-4.42,6.42h2.08l.54-.09Zm-3.59-8.31a45.07,45.07,0,0,0-3.74-4.8L184,13.89a47.3,47.3,0,0,1,3.79,4.5Zm9.69,1.5c.08-.48.2-1,.31-1.47h-6.81V17.46h3.79a22.92,22.92,0,0,0-1.34-2.37L193.5,14a23.14,23.14,0,0,1,1.82,3l-1,.48h4.27a24.39,24.39,0,0,0,1.8-3.57l3.27,1q-.88,1.39-1.71,2.61h4.56v2.91h-7.69c-.26.51-.49,1-.74,1.47h6.24V36.33h-13.8V21.84ZM201,24.36h-7.27V26H201Zm0,3.9h-7.27v1.62H201Zm0,3.9h-7.27v1.65H201Z"/></g></g></svg>