<svg xmlns="http://www.w3.org/2000/svg" xmlns:xlink="http://www.w3.org/1999/xlink" viewBox="0 0 205.28 55.66"><defs><style>.cls-1{stroke:#fff;stroke-miterlimit:10;opacity:0.9;fill:url(#linear-gradient);}.cls-2{fill:#fff;}</style><linearGradient id="linear-gradient" x1="102.64" y1="0.5" x2="102.64" y2="55.16" gradientUnits="userSpaceOnUse"><stop offset="0" stop-color="#0045b4"/><stop offset="1" stop-color="#001237"/></linearGradient></defs><g id="圖層_2" data-name="圖層 2"><g id="nav"><rect class="cls-1" x="0.5" y="0.5" width="204.28" height="54.66" rx="12.45"/><path class="cls-2" d="M51.46,30.9A16.58,16.58,0,0,0,57,34.38a13,13,0,0,0-2.25,2.76A18.14,18.14,0,0,1,50.29,34v2.22H45.1v1.95h9.32V41.1H32.7V38.16h8.95V36.21h-5V34.35a18.54,18.54,0,0,1-4.53,3.06,13.89,13.89,0,0,0-2.16-2.73,17,17,0,0,0,5.75-3.78H30.19V28h5.42V19.05H31.67V16.17h3.94V13.92H39v2.25h8.92V13.92H51.4v2.25h3.9v2.88H51.4V28h5.27V30.9Zm-1.8,2.49a18.43,18.43,0,0,1-2-2.49h-8a18.19,18.19,0,0,1-2,2.49h4.1V31.53H45.1v1.86ZM39,19.05v1.32h8.92V19.05Zm0,5.1h8.92V22.83H39ZM39,28h8.92V26.64H39Z"/><path class="cls-2" d="M73.71,25.83V29h9.1v3.21H78.3l2.85,1.08c-1,1.68-2.11,3.48-3,4.77h6.13v3.27H59.63V38h5.62a25.75,25.75,0,0,0-2.37-4.86l2.25-1H61V29h9.06V25.83H64.28V24.36c-1.2.6-2.42,1.14-3.68,1.62a12.64,12.64,0,0,0-2.25-3.3c5.36-1.62,10.49-4.65,13.2-9.12l3.22,1.53-.8,1.2a31,31,0,0,0,11.69,6.39,17.07,17.07,0,0,0-2.34,3.12,36.72,36.72,0,0,1-3.88-1.74v1.77Zm-7.95,6.33a20.82,20.82,0,0,1,2.48,4.77L65.9,38h4.16V32.16Zm11.17-9.6A33.59,33.59,0,0,1,72,18.66a25.67,25.67,0,0,1-4.61,3.9Zm-3.22,9.6V38h3.57l-1.91-.84a28.22,28.22,0,0,0,2.5-5Z"/><path class="cls-2" d="M95.09,21.84c-1,4.47-2.51,10.05-4.88,13.35a27.91,27.91,0,0,0-3.3-1.86c2.28-3,3.7-8.28,4.3-12.18Zm7.27-7.53V37.44c0,2.19-.49,3.18-1.74,3.75s-3.28.69-6.05.69a16.27,16.27,0,0,0-1.34-3.72c1.86.09,4,.09,4.59.06s.86-.21.86-.78V14.31Zm6.44,6.51c2.31,4.26,4.64,9.69,5.36,13.44l-3.71,1.53c-.57-3.63-2.74-9.27-5-13.65Z"/><path class="cls-2" d="M122.36,24.93c.8,1.2,2.71,4.44,3.17,5.22l-1.66,2.49c-.31-.87-.91-2.25-1.51-3.54V41.88h-3.08v-11a25.74,25.74,0,0,1-2.45,5.67,20.07,20.07,0,0,0-1.48-3.18,31.7,31.7,0,0,0,3.73-10h-3v-3.3h3.25V13.89h3.08v6.18h2.48v3.3h-2.48Zm19.56-6.42v5.28h-2.43v5.34H127.83V23.79h-2.59V18.51h2.39a15.87,15.87,0,0,0-1.45-3.36l2.74-1a15.43,15.43,0,0,1,1.71,3.69l-1.8.69h3V13.92h3.22v4.59h2.8l-1.57-.57a25.46,25.46,0,0,0,1.62-3.87l3.14,1c-.71,1.26-1.4,2.52-2,3.45Zm-16,11.73h15.39V41.88H138V41H129v1h-3.08Zm12.91-9H128.23v1.41h10.55ZM129,32.82v1.56H132V32.82ZM132,38.37V36.81H129v1.56Zm4.39-13.32h-5.62v1.71h5.62ZM138,32.82H134.9v1.56H138Zm0,5.55V36.81H134.9v1.56Z"/><path class="cls-2" d="M170.39,35.19H163.8a40.75,40.75,0,0,1,6.42,4.08l-2.66,2.49a40.47,40.47,0,0,0-7.18-4.86l1.94-1.71H159v6.72h-3.39V35.19h-4.79l3.34,1.17a20.81,20.81,0,0,1-6.87,5A28.2,28.2,0,0,0,144.48,39a15.27,15.27,0,0,0,6.27-3.84h-6.22V32.25h11.12V30.18H159v2.07h11.35Zm-3.51-3.66A59.19,59.19,0,0,0,158.79,29c-3.2,1.38-7.44,2-13.06,2.34a10,10,0,0,0-1.17-2.94,56.78,56.78,0,0,0,8.38-.75c-1.59-.33-3.19-.63-4.87-.9a29.74,29.74,0,0,0,2.36-2.46h-5.67V21.45h8a31.63,31.63,0,0,0,1.8-2.61h-6.19v1.65h-3.13V15.9h10.12q-.3-.68-.6-1.26l3.59-.75a20.85,20.85,0,0,1,1.11,2h10.18v4.59h-3.28V18.84H155.91l2.05.66c-.46.63-.91,1.29-1.45,1.95H162a18.76,18.76,0,0,0,.68-1.83l3.31.69c-.12.39-.26.78-.4,1.14h4.47v2.79h-5.81a11.11,11.11,0,0,1-2.17,2.58c3.08.78,5.87,1.62,8,2.4ZM154,24.24a8.5,8.5,0,0,1-.72.75c1.57.27,3.17.6,4.68.93a9.65,9.65,0,0,0,2.19-1.68Z"/></g></g></svg>