<svg xmlns="http://www.w3.org/2000/svg" xmlns:xlink="http://www.w3.org/1999/xlink" viewBox="0 0 205.28 55.66"><defs><style>.cls-1{stroke:#fff;stroke-miterlimit:10;opacity:0.9;fill:url(#linear-gradient);}.cls-2{fill:#fff;}</style><linearGradient id="linear-gradient" x1="102.64" y1="0.5" x2="102.64" y2="55.16" gradientUnits="userSpaceOnUse"><stop offset="0" stop-color="#0045b4"/><stop offset="1" stop-color="#001237"/></linearGradient></defs><g id="圖層_2" data-name="圖層 2"><g id="nav"><rect class="cls-1" x="0.5" y="0.5" width="204.28" height="54.66" rx="12.45"/><path class="cls-2" d="M55.93,19.68v4.71l.57-.69a63.85,63.85,0,0,1,9.72,6.06L63.71,33a56,56,0,0,0-7.78-5.46V41.82H52.28V19.68H42v-3.6h25.4v3.6Z"/><path class="cls-2" d="M95.26,25.44a36,36,0,0,1-4.61,9.9c.62,1.95,1.36,3.09,2.22,3.09.57,0,.85-1.44,1-4.92a7.91,7.91,0,0,0,2.67,1.89c-.45,5.22-1.48,6.51-4,6.51-1.82,0-3.22-1.32-4.27-3.57A25.46,25.46,0,0,1,84.15,42a11.05,11.05,0,0,0-2.26-2.7H79.24v2.67h-3V39.27H70.69V36.69h5.59V35.52H71.6V28.14h4.62V27H71.09V24.48h5.13V23.16h-5.9V20.22h5.85V18.63H71.58v-2.7h4.59v-2h3.25v2H84v2.7H79.42v1.59h6c-.08-2.07-.11-4.17-.11-6.3h3.42c-.06,2.16,0,4.26,0,6.3h7.38v2.94H88.85a75,75,0,0,0,.8,7.68,30.72,30.72,0,0,0,2.59-6.39ZM74,31h2.57V29.88H74Zm0,2.79h2.57V32.67H74ZM81.61,31V29.88H79V31Zm0,2.79V32.67H79v1.11Zm2.85,3.57a19.63,19.63,0,0,0,2.59-2.64,63.07,63.07,0,0,1-1.51-11.55H79.27v1.32h5.22V27H79.27v1.17h4.82v7.38H79.24v1.17h5.22ZM93.07,20a24.75,24.75,0,0,0-3.42-4.29L92.13,14a25.86,25.86,0,0,1,3.59,4.11Z"/><path class="cls-2" d="M124.65,35.55h-6.36v2.91c0,1.65-.29,2.49-1.45,3a14.58,14.58,0,0,1-4.91.48,13.42,13.42,0,0,0-1-3.12c1.37.06,3,.06,3.45.06s.6-.12.6-.51V35.55h-8a18.58,18.58,0,0,1,3,2.76l-2.5,2.28a21.63,21.63,0,0,0-4.28-4l1.2-1.05h-5.7V32.73H115V31.62c-5.61.12-11,.21-15,.24l-.09-2.55c2.68,0,6.19,0,10,0V28.23h-8.21V19.59H110V18.51H99.51v-2.7H110V13.92h3.3v1.89h10.41v2.7H113.27v1.08h8.61v8.64H120a27.39,27.39,0,0,1,3.68,2.4l-2.08,1.83a15.12,15.12,0,0,0-1.2-1l-2.08.06v1.2h6.36ZM104.92,22.86h5V21.75h-5ZM110,26V24.9h-5V26Zm3.3-4.29v1.11h5.31V21.75ZM118.58,26V24.9h-5.31V26Zm-5.31,3.24,3.6,0c-.4-.18-.8-.39-1.17-.54l.57-.48h-3Z"/><path class="cls-2" d="M147.5,37.56a32.11,32.11,0,0,0,5.25-.39c.11.87.31,2.49.48,3.33a31.11,31.11,0,0,1-5.9.33H136.1c-5,0-7.38-1.62-7.38-7.14V18.09h-1.14V14.94h24.23v3.15H132.05V33.93c0,2.61.83,3.63,3.77,3.63Zm-14.16-9.63h7.86V36h-7.86Zm2.73,5.67h2.23V30.33h-2.23Zm11.38-7H136.24V19.47h11.21Zm-3.37-4.8h-4.67v2.46h4.67ZM150.5,36h-8V27.93h8Zm-2.94-5.67h-2.31V33.6h2.31Z"/></g></g></svg>