<svg xmlns="http://www.w3.org/2000/svg" xmlns:xlink="http://www.w3.org/1999/xlink" viewBox="0 0 205.28 55.66"><defs><style>.cls-1{stroke:#fff;stroke-miterlimit:10;opacity:0.9;fill:url(#linear-gradient);}.cls-2{fill:#fff;}</style><linearGradient id="linear-gradient" x1="102.64" y1="0.5" x2="102.64" y2="55.16" gradientUnits="userSpaceOnUse"><stop offset="0" stop-color="#0045b4"/><stop offset="1" stop-color="#001237"/></linearGradient></defs><g id="圖層_2" data-name="圖層 2"><g id="nav"><rect class="cls-1" x="0.5" y="0.5" width="204.28" height="54.66" rx="12.45"/><path class="cls-2" d="M36.48,17.07H49.42v3.72H40.7v5.13h7.41v3.72H40.7v5.94h9V39.3H36.48Z"/><path class="cls-2" d="M58.2,20.79H52.27V17.07H68.4v3.72h-6V39.3H58.2Z"/><path class="cls-2" d="M71.82,17.07h13v3.72H76v5.79h7.49V30.3H76v9H71.82Z"/><path class="cls-2" d="M99.26,18.81l1-.06,0,3.33-.94.09A26.32,26.32,0,0,1,96.56,34c1.42,1.35,2.7,2.64,3.59,3.66l-2.54,2.7a36.74,36.74,0,0,0-3-3.36,20.36,20.36,0,0,1-5.53,4.8,12.23,12.23,0,0,0-2.39-2.7,17.7,17.7,0,0,0,5.38-4.65c-1.56-1.5-3.19-3-4.59-4.32.57-2,1.14-4.56,1.63-7.29L87,23l-.34-3.54c.91,0,1.91-.09,3-.15.26-1.8.45-3.6.57-5.25l3.62.21c-.17,1.53-.4,3.21-.66,4.86L95.93,19V17.58h3.33Zm-6.64,3.84c-.42,2.31-.91,4.59-1.36,6.57l2.62,2.37a22.11,22.11,0,0,0,2-9.18ZM112,17V40.62h-3.36V38.88h-4.5V41.1H101V17Zm-3.36,18.51V20.34h-4.5V35.49Z"/><path class="cls-2" d="M124.69,14.94a51.66,51.66,0,0,1-2.34,5.49V41.82H119V26.13a30.82,30.82,0,0,1-2,2.52,23.14,23.14,0,0,0-1.82-3.72,31.06,31.06,0,0,0,6.35-11.07Zm17.3,5h-1.71V37.68c0,2.07-.43,3-1.66,3.6s-3.13.66-5.78.66a14.31,14.31,0,0,0-1.14-3.66c1.85.09,3.85.09,4.42.09s.74-.18.74-.75V19.89H124.43V16.47H142ZM127.94,34v1.95h-3.17V23.13h9.49V34Zm0-7.77V30.9h3.16V26.22Z"/><path class="cls-2" d="M162.14,36.9c3,1,6.3,2.34,8.29,3.27l-3.68,1.77a58.77,58.77,0,0,0-8-3.48l2.31-1.56h-8l2.48,1.17a34.93,34.93,0,0,1-9.09,4A23.78,23.78,0,0,0,144,39.42a33.36,33.36,0,0,0,7.92-2.52h-4.39V23.73H167V36.9Zm6.35-14.4H146V15.12h22.51Zm-16-4.71h-3.42v2.07h3.42Zm-1.6,9.66h12.49V26H150.93Zm0,3.6h12.49v-1.5H150.93Zm0,3.6h12.49v-1.5H150.93Zm7.87-16.86h-3.45v2.07h3.45Zm6.41,0h-3.59v2.07h3.59Z"/></g></g></svg>