<svg xmlns="http://www.w3.org/2000/svg" xmlns:xlink="http://www.w3.org/1999/xlink" viewBox="0 0 262.99 55.66"><defs><style>.cls-1{stroke:#fff;stroke-miterlimit:10;opacity:0.9;fill:url(#linear-gradient);}.cls-2{fill:#fff;}</style><linearGradient id="linear-gradient" x1="131.5" y1="0.5" x2="131.5" y2="55.16" gradientUnits="userSpaceOnUse"><stop offset="0" stop-color="#0045b4"/><stop offset="1" stop-color="#001237"/></linearGradient></defs><g id="圖層_2" data-name="圖層 2"><g id="nav"><rect class="cls-1" x="0.5" y="0.5" width="261.99" height="54.66" rx="14.1"/><path class="cls-2" d="M47.38,39c0,1.64-.28,2.54-1.23,3.09a7.87,7.87,0,0,1-3.9.61,14.05,14.05,0,0,0-1.06-3.25,24.81,24.81,0,0,0,2.52,0c.34,0,.45-.13.45-.51V36.14H39.23a17.08,17.08,0,0,1-2.08,6.69,13,13,0,0,0-2.49-2.15c1.74-2.9,1.91-7,1.91-10.1V23.21H47.38ZM60.13,17.55V21H34.77V17.55h6A22.53,22.53,0,0,0,38.64,14l3.17-1.25a18.34,18.34,0,0,1,2.6,4.18l-1.54.61h7.79A38,38,0,0,0,53,12.7l3.61,1.22c-.67,1.25-1.43,2.51-2.13,3.63Zm-16,15.8v-2.1h-4.6c0,.68,0,1.36-.08,2.1Zm-4.6-7.14v2.21h4.6V26.21ZM52.84,36.66H49.79V23.54h3.05Zm2.52-14h3.28v16c0,1.9-.31,2.83-1.43,3.44a9.65,9.65,0,0,1-4.59.65,14.62,14.62,0,0,0-1.21-3.61c1.43.07,2.89.07,3.37,0s.58-.13.58-.58Z"/><path class="cls-2" d="M85.2,21.41v1.32c0,.61,0,.9.47.9h.93a5.78,5.78,0,0,0,1.48-.19,21.77,21.77,0,0,0,.2,2.22,6,6,0,0,1-1.63.19H84.78c-2,0-2.3-1.12-2.3-3.15V21.41H81c-.3,2.41-1.26,4-4.23,4.63a5.28,5.28,0,0,0-1.17-2v.61c0,.8,0,1.67,0,2.64H80c-.23-.58-.42-1.19-.62-1.68l2.64-1c.39.84.78,1.84,1.09,2.71h5.32v2.22H75.48C75.25,34,74.63,39,73.23,42.8a11,11,0,0,0-2.66-1.86c1.82-4.86,2-11.74,2-16.31V23.47c-.25.26-.5.48-.78.74a13,13,0,0,0-1.15-2.41V37.37H66v2.79h-2.8V14.4h7.43v6.47a21,21,0,0,0,5.07-8.08l3,.61c-.16.45-.33.9-.5,1.35h4.87l.48-.16,2.1,1.58a27.67,27.67,0,0,1-1.43,2.54h4.32v2.7ZM66,17.65V21h1.8V17.65Zm0,9.84h1.8V24.11H66Zm1.8,6.6V30.64H66v3.45Zm7.76-10.2a2.87,2.87,0,0,0,2.6-2.48h-2.6Zm.61,12.54H87.38V42.8h-3V41.71H79.12V42.8H76.2Zm.87-19.17a10.77,10.77,0,0,1-.78,1.45h4.65c.25-.45.5-.93.73-1.45ZM87.16,32.45H76.51v-2H87.16Zm-10.65,1H87.16v2H76.51Zm2.61,4.92v1.35h5.21V38.36Z"/><path class="cls-2" d="M105.14,38.62h10.37V42H91.66V38.62h10V34.73H94.41V31.42h7.26V27.75H95.78V25a33,33,0,0,1-3.56,2.42,15.16,15.16,0,0,0-2-3.09,31.9,31.9,0,0,0,9.22-7H95.67V13.79h9.58a26.2,26.2,0,0,0,11.66,10.1,19.34,19.34,0,0,0-2.25,3.51,27.9,27.9,0,0,1-3.53-2.29v2.64h-6v3.67h7.34v3.31h-7.34Zm5-14.25a39.36,39.36,0,0,1-6.72-7,41.23,41.23,0,0,1-6.89,7Z"/><path class="cls-2" d="M144.36,24.5a69.2,69.2,0,0,1-4.63,6.21A17.25,17.25,0,0,0,145,37.46a8.26,8.26,0,0,0-2,2.9,20.78,20.78,0,0,1-5.3-7v5.11c0,1.93-.33,2.93-1.31,3.54s-2.38.81-4.46.81a18.63,18.63,0,0,0-1.12-3.7c1.35.06,2.66.06,3.08,0s.62-.16.62-.64V33.28c-2,2.19-4,4.41-5.72,6.21l-1.54-2.7c-2.88,1.06-5.91,2.15-8.32,3l-.7-3.63c1-.29,2.1-.65,3.36-1.07V27.36h-2.8v-3.5h2.8V18.2h-2.94V14.63h8.88V18.2h-2.83v5.66H127v3.5h-2.41v6.73l2.86-1,.31,2.06c1.82-1.51,4.31-3.77,6.64-6V21.48H128V18h6.44V12.82h3.19V18h3.81a21.92,21.92,0,0,0-2.94-3L140.32,13a17.42,17.42,0,0,1,3.36,3.18L142.09,18h2.41v3.51h-6.87v1.28a44.76,44.76,0,0,0,1,4.76,41.51,41.51,0,0,0,2.83-4.76Zm-13.62-1.61a25.29,25.29,0,0,1,2.69,5.66L130.71,30a27.22,27.22,0,0,0-2.55-5.79Z"/><path class="cls-2" d="M163.4,23.18c3,2.48,7.32,6.18,9.33,8.72l-2.83,2.93a68.65,68.65,0,0,0-8.57-8.72V42.77h-3.64V27.07A34.7,34.7,0,0,1,148.78,35a22.79,22.79,0,0,0-2.3-3.48,31.38,31.38,0,0,0,12.08-12.64H147.38V15h24.29v3.92H163a32.93,32.93,0,0,1-1.63,3v3.35Z"/><path class="cls-2" d="M200,20s0,1.25,0,1.7c-.25,13.16-.48,17.82-1.38,19.3a3.08,3.08,0,0,1-2.21,1.61,16.7,16.7,0,0,1-3.47.13,10,10,0,0,0-1-3.67c1.23.13,2.29.16,2.83.16a1,1,0,0,0,.95-.54c.59-.87.87-4.8,1-15.18h-2.53c-.36,8.62-1.65,15.24-6.36,19.52a12.2,12.2,0,0,0-2-2.54c-4,.48-8.06,1-11.09,1.25l-.39-3.21c1.57-.13,3.53-.29,5.68-.45V36.18h-4.93V33.47h4.93V32.22h-4.81V22.28h4.81V21h-5.51V18.26h5.51V17c-1.62.13-3.22.23-4.73.26a13,13,0,0,0-.73-2.7A76.76,76.76,0,0,0,186.74,13l1.45,2.87a47,47,0,0,1-5,.86v1.58h5.38V20h2.63c0-2.12,0-4.34,0-6.72h3.19c0,2.34,0,4.6,0,6.72Zm-22.08,6.08h2.18V24.69h-2.18Zm2.18,3.73V28.39h-2.18v1.45Zm3,8c1.6-.13,3.25-.29,4.87-.45,2.19-3.48,2.86-8.08,3.06-13.83h-2.55V21h-5.38v1.25h5v9.94h-5v1.25h5.07v2.71h-5.07Zm2.19-11.71V24.69h-2.19v1.42Zm-2.19,2.28v1.45h2.19V28.39Z"/><path class="cls-2" d="M228.64,39v3.09H208.05V39h8.49V37.11H210.6V34.79a16.68,16.68,0,0,1-1.6,2,22.76,22.76,0,0,0-1.31-3.22c-.34,3.35-1.15,7-3,9.65a12.34,12.34,0,0,0-2.58-2.48c2.27-3.21,2.5-7.78,2.5-11.09V23.92h3.78a15.85,15.85,0,0,0-1.4-1.48c2-.35,4.23-.8,6.38-1.38-1.76-.52-3.58-1-5.23-1.32l1.56-1.38h-4.81v-3h9.75a18.92,18.92,0,0,0-1.07-1.68l2.24-1.25a18.51,18.51,0,0,1,1.88,2.93h9.69v3h-4.06l1.34,1a32.8,32.8,0,0,1-3.44,1.61c1.65.51,3.16,1,4.43,1.51l-1.57,1.48h4.11V27H207.86v2.7c0,1,0,2.15-.14,3.38a16.36,16.36,0,0,0,3.19-5.79l2.83,1c-.14.42-.28.84-.45,1.29h3.25v-2h3.28v2h6.92v3h-6.92v1.67h6.11v2.93h-6.11V39Zm-12.1-4.79V32.51H212c-.3.58-.61,1.13-.95,1.67Zm5.72-10.26c-1.38-.55-3.06-1.09-4.82-1.64-2,.61-4.07,1.16-6,1.64Zm-10.09-5.56c1.76.45,3.61.93,5.46,1.44a24.65,24.65,0,0,0,3.67-1.44Z"/></g></g></svg>