<svg xmlns="http://www.w3.org/2000/svg" xmlns:xlink="http://www.w3.org/1999/xlink" viewBox="0 0 497.15 88.43"><defs><style>.cls-1{fill:url(#未命名漸層_15);}.cls-2{fill:url(#未命名漸層_15-2);}.cls-3{fill:url(#未命名漸層_15-3);}.cls-4{fill:url(#未命名漸層_15-4);}.cls-5{fill:url(#未命名漸層_15-5);}.cls-6{fill:url(#未命名漸層_15-6);}.cls-7{opacity:0.1;}.cls-8{fill:url(#未命名漸層_15-7);}.cls-9{fill:url(#未命名漸層_15-8);}.cls-10{fill:url(#未命名漸層_15-9);}.cls-11{fill:url(#未命名漸層_15-10);}.cls-12{fill:url(#未命名漸層_15-11);}.cls-13{fill:url(#未命名漸層_15-12);}</style><linearGradient id="未命名漸層_15" x1="39.49" y1="69.18" x2="39.49" y2="14.86" gradientUnits="userSpaceOnUse"><stop offset="0" stop-color="#1b1464"/><stop offset="1" stop-color="#00b7fb"/></linearGradient><linearGradient id="未命名漸層_15-2" x1="121.55" y1="69.18" x2="121.55" y2="14.86" xlink:href="#未命名漸層_15"/><linearGradient id="未命名漸層_15-3" x1="206.2" y1="69.18" x2="206.2" y2="14.86" xlink:href="#未命名漸層_15"/><linearGradient id="未命名漸層_15-4" x1="288.9" y1="69.18" x2="288.9" y2="14.86" xlink:href="#未命名漸層_15"/><linearGradient id="未命名漸層_15-5" x1="373.26" y1="69.18" x2="373.26" y2="14.86" xlink:href="#未命名漸層_15"/><linearGradient id="未命名漸層_15-6" x1="456.32" y1="69.18" x2="456.32" y2="14.86" xlink:href="#未命名漸層_15"/><linearGradient id="未命名漸層_15-7" x1="38.49" y1="73.98" x2="38.49" y2="19.66" xlink:href="#未命名漸層_15"/><linearGradient id="未命名漸層_15-8" x1="120.56" y1="73.98" x2="120.56" y2="19.66" xlink:href="#未命名漸層_15"/><linearGradient id="未命名漸層_15-9" x1="205.21" y1="73.98" x2="205.21" y2="19.66" xlink:href="#未命名漸層_15"/><linearGradient id="未命名漸層_15-10" x1="287.9" y1="73.98" x2="287.9" y2="19.66" xlink:href="#未命名漸層_15"/><linearGradient id="未命名漸層_15-11" x1="372.26" y1="73.98" x2="372.26" y2="19.66" xlink:href="#未命名漸層_15"/><linearGradient id="未命名漸層_15-12" x1="455.33" y1="73.98" x2="455.33" y2="19.66" xlink:href="#未命名漸層_15"/></defs><g id="圖層_2" data-name="圖層 2"><g id="內頁"><path class="cls-1" d="M78,25.47v8.67H62.05l-.59,6.34h-48l.84-6.34H1V25.47H15.34l.75-6.17H63.55L63,25.47ZM59.63,70.93c6,1.72,11.67,3.43,15.76,4.8L67.05,83.2c-5.84-2.32-15.76-5.75-25.35-8.41l3.58-3.86H31.85l5.09,3.86c-7.17,3.86-19.1,7.12-29.19,8.49A69.27,69.27,0,0,0,1.41,75a104.52,104.52,0,0,0,19.1-4H11.75V42.28H67.22V70.93ZM14.09,23.59H3.25V7.72H32.94c-.59-1.54-1.25-3.09-1.84-4.46L41.7.34A48.35,48.35,0,0,1,45,7.72H75.39V23.59H64.05V17.24h-50ZM23.43,50H54.87V48.2H23.43Zm0,7.47H54.87V55.58H23.43Zm0,7.54H54.87V63H23.43Zm1.42-30.44h8.34l.25-1.81H25.1ZM26,25.22l-.17,1.63h8.26l.16-1.63ZM51,34.57l.17-1.81H43.36l-.25,1.81Zm.84-9.35H44.2L44,26.85h7.59Z"/><path class="cls-2" d="M138.44,31.22V23.07h-5.17a23.45,23.45,0,0,1-5,9.44h22.1V68.1H142c6.92,2.23,13.68,4.63,18.26,6.52l-5.42,8.66A222.56,222.56,0,0,0,129.6,73.5l3.09-5.4H112.25l5.51,3.35A155.81,155.81,0,0,1,90.32,83.2a79.94,79.94,0,0,0-5.59-10.38,161.14,161.14,0,0,0,18.68-4.72H95.07V32.51h30.78a51.25,51.25,0,0,0-7.43-4.89,19.51,19.51,0,0,0,3.67-4.55h-7V31H104.41V23.07H98.57a25.72,25.72,0,0,1-8,11.5,42.61,42.61,0,0,0-7.84-7.81c6.67-5.06,7.5-11.32,7.5-16.38V5.23c8.84-.43,18.85-1.63,24.69-3.86l6.51,7c-5.76,2.23-13.43,3.51-20.85,4.11-.09.52-.09,1-.17,1.63h22v8.32a24.81,24.81,0,0,0,2.25-11.23V5c9.34-.42,19.93-1.62,25.77-3.85l7.34,6.69c-6.34,2.4-14.93,3.77-23.1,4.37a16.89,16.89,0,0,1-.08,2h25.77v8.92H149.2v8.15Zm-.33,8.49H106.75v2.57h31.36ZM106.75,51.55h31.36V49H106.75Zm0,9.35h31.36V58.32H106.75Z"/><path class="cls-3" d="M242.28,8.06a68.59,68.59,0,0,1-7.84,14,78,78,0,0,0,10.67.86,37.65,37.65,0,0,0-6.5,10c-9.18-1.12-16.27-3.6-21.44-8-3.33,3.35-9.92,6.26-22.52,7.64h40.54V67.67h-10c6.84,2.83,13.93,6.09,18.35,8.41L232.69,82.6A152.7,152.7,0,0,0,211.92,72l5.34-4.29H195.15l7.59,3.52c-6.92,4.8-17.85,9.26-26.44,11.75a90.78,90.78,0,0,0-9-9.09,94,94,0,0,0,21.18-6.18H178.22V32.51h14.6a28.64,28.64,0,0,0-2.92-5.15H167.38V18h25.94v5c13.93-1.2,16-4,16-6.61V14.84h-3a39.8,39.8,0,0,1-5.59,6.6,70.09,70.09,0,0,0-8.92-6.26A31.4,31.4,0,0,0,201.66.43l10.51,2.49C211.83,4,211.42,5,211,6h21.19l1.75-.51ZM191.4,13.81H169.21V4.89H191.4Zm31.53,25.9h-33v2.4h33Zm-33,11.58h33v-2.4h-33Zm0,9.26h33V58.07h-33Zm30.44-45.71v1.8c2.84,2.57,7.17,4.2,12.76,5.23l-8.17-3.17c.67-1.12,1.5-2.4,2.25-3.86Z"/><path class="cls-4" d="M329.1,70.93v9.95H267.88V70.93h24.19V68.19H275.39V63.73A51.63,51.63,0,0,1,271.21,68a78.25,78.25,0,0,0-4.16-10c-1.09,9.09-3.67,18.78-8.93,25.65a46.85,46.85,0,0,0-9.42-8C255.45,66.73,256,54,256,44.86V31.05h11.67A51,51,0,0,0,263,26.67c5.42-.77,11.34-1.71,17.18-2.91-4.59-1-9.18-2-13.43-2.75l5.42-4h-15V7.38h28c-.75-1.2-1.58-2.41-2.33-3.43l8-3.95A57.53,57.53,0,0,1,296,7.38h29.52V17h-12l4.59,2.92a84,84,0,0,1-8.59,3.43c4.17,1.11,8,2.23,11.26,3.26l-5.26,4.46h12.26v9.86h-60V45c0,3.09-.09,6.52-.42,10.12a38.4,38.4,0,0,0,8.42-13.89L286,44.43a22.49,22.49,0,0,1-.84,2.23h6.93v-4.2H304v4.2h19.6v9.61H304v2.57h16.85v9.35H304v2.74Zm-37-12.09V56.27H280.56c-.5.85-1.09,1.71-1.59,2.57Zm15.51-27.79c-3.59-1.12-7.67-2.32-11.93-3.43-5,1.28-10,2.4-14.93,3.43ZM283.14,17c4.26.95,8.68,1.89,13.1,3,3.33-.94,6.42-2,9.17-3Z"/><path class="cls-5" d="M410.41,12V32.59h-12V22.47H347.53V32.59H336.1V12h9.84a60.07,60.07,0,0,0-3.67-6L353,1.72a39.06,39.06,0,0,1,6.26,10.12l-.42.17h7.67V1.12H378.8V12h8.09a61.12,61.12,0,0,0,4.92-10.38l13,3.69C403.16,7.72,401.49,10,400,12ZM342.36,49.06h62.05V82.77H392.32V81.05H354v1.72H342.36Zm53-23.59V46.32H350.53V25.47ZM354,57.89v3h12.93v-3Zm12.93,14.33V69H354v3.18Zm16.51-38.08h-21.6v3.43h21.6Zm8.93,23.75H378.64v3h13.68Zm0,14.33V69H378.64v3.18Z"/><path class="cls-6" d="M442.69,43.66A87.05,87.05,0,0,1,438.18,62c4.76,7.46,13.27,8.41,25.36,8.49,9,0,23.6-.6,33.61-1.63-1.67,2.49-3.25,8.07-3.84,11.41-9.17.6-19.93.86-30,.86-14.26,0-23.44-1.55-29.69-9.52a37.19,37.19,0,0,1-10.43,11,41.64,41.64,0,0,0-7.67-8.24c7.42-4.46,12.59-12.35,15.26-23.07h-5.84c-1.92,0-4.5.6-5.25,1.37A71.52,71.52,0,0,0,416,42.88a8.53,8.53,0,0,0,4.5-2.83,87.88,87.88,0,0,0,6.76-9h-9.34V21.27h16.84l1-.43,7.17,3.26c-3,4.63-7.84,12-12,17.67h4.17l1.83-.26Zm-12-22.9a123.13,123.13,0,0,0-11.18-14L428.43,1a135.83,135.83,0,0,1,11.42,12.78ZM459,23.59c.25-.95.41-2,.58-2.92H440.69v-10h9.5c-1-1.89-2.08-3.94-3.08-5.57l9.59-3.86c1.59,2.57,3.84,6.09,5,8.23L459,10.72h11.18A70.56,70.56,0,0,0,475,1l11.59,3.26c-1.5,2.31-3,4.46-4.42,6.43H494.4v10h-22c-.5,1-1,2-1.58,2.92h17.43V65.87H446.78V23.59Zm17.26,8.57H458.12v3.26H476.3Zm0,10.9H458.12v3.26H476.3Zm0,11H458.12v3.25H476.3Z"/><g class="cls-7"><path class="cls-8" d="M77,30.27v8.67H61.05l-.58,6.34h-48l.83-6.34H0V30.27H14.35l.75-6.17H62.55L62,30.27ZM58.63,75.73c6,1.72,11.68,3.43,15.77,4.8L66.06,88c-5.84-2.32-15.77-5.75-25.36-8.41l3.59-3.86H30.86L36,79.59c-7.18,3.86-19.1,7.12-29.19,8.49A70.33,70.33,0,0,0,.42,79.76a104.7,104.7,0,0,0,19.1-4H10.76V47.08H66.22V75.73ZM13.09,28.39H2.25V12.52H31.94c-.58-1.54-1.25-3.09-1.83-4.46L40.7,5.14A49.39,49.39,0,0,1,44,12.52H74.4V28.39H63.05V22h-50ZM22.44,54.8H53.88V53H22.44Zm0,7.47H53.88V60.38H22.44Zm0,7.54H53.88v-2H22.44Zm1.41-30.44h8.34l.25-1.81H24.1ZM25,30l-.17,1.63h8.26L33.28,30ZM50,39.37l.17-1.81H42.37l-.25,1.81ZM50.79,30H43.2L43,31.65h7.59Z"/><path class="cls-9" d="M137.45,36V27.87h-5.17a23.47,23.47,0,0,1-5,9.44h22.1V72.9H141c6.93,2.23,13.68,4.63,18.27,6.52l-5.42,8.66a224.06,224.06,0,0,0-25.27-9.78l3.08-5.4H111.26l5.5,3.35A155.18,155.18,0,0,1,89.32,88a79.83,79.83,0,0,0-5.58-10.38,162.17,162.17,0,0,0,18.68-4.72H94.08V37.31h30.77a50.65,50.65,0,0,0-7.42-4.89,19.78,19.78,0,0,0,3.67-4.55h-7v7.89H103.42V27.87H97.58a25.67,25.67,0,0,1-8,11.5,42.31,42.31,0,0,0-7.84-7.81c6.68-5.06,7.51-11.32,7.51-16.38V10c8.84-.43,18.85-1.63,24.69-3.86l6.5,7c-5.75,2.23-13.43,3.51-20.85,4.11-.08.52-.08,1-.16,1.63h22v8.32A24.83,24.83,0,0,0,123.69,16V9.77c9.34-.42,19.93-1.62,25.77-3.85l7.34,6.69c-6.34,2.4-14.93,3.77-23.11,4.37a16.89,16.89,0,0,1-.08,2h25.77v8.92H148.21V36Zm-.34,8.49H105.75v2.57h31.36ZM105.75,56.35h31.36V53.77H105.75Zm0,9.35h31.36V63.12H105.75Z"/><path class="cls-10" d="M241.28,12.86a68.12,68.12,0,0,1-7.84,14,78.18,78.18,0,0,0,10.68.86,37.69,37.69,0,0,0-6.51,10c-9.17-1.12-16.26-3.6-21.43-8-3.34,3.35-9.93,6.26-22.52,7.64h40.53V72.47h-10c6.84,2.83,13.93,6.09,18.35,8.41L231.69,87.4a152.7,152.7,0,0,0-20.77-10.64l5.34-4.29h-22.1L201.75,76c-6.92,4.8-17.85,9.26-26.44,11.75a90.89,90.89,0,0,0-9-9.09,94,94,0,0,0,21.19-6.18H177.23V37.31h14.59a27.47,27.47,0,0,0-2.92-5.15H166.39V22.81h25.93v5c13.93-1.2,16-4,16-6.61V19.64h-3a40.28,40.28,0,0,1-5.59,6.6A69.5,69.5,0,0,0,190.82,20a31.3,31.3,0,0,0,9.84-14.75l10.51,2.49c-.33,1-.75,2.05-1.16,3.08h21.18l1.75-.51Zm-50.87,5.75H168.22V9.69h22.19Zm31.52,25.9h-33v2.4h33Zm-33,11.58h33v-2.4h-33Zm0,9.26h33V62.87h-33Zm30.45-45.71v1.8c2.83,2.57,7.17,4.2,12.76,5.23l-8.18-3.17c.67-1.12,1.51-2.4,2.26-3.86Z"/><path class="cls-11" d="M328.1,75.73v10H266.88v-10h24.19V73H274.39V68.53a50,50,0,0,1-4.17,4.29,77.07,77.07,0,0,0-4.17-10c-1.08,9.09-3.67,18.78-8.92,25.65a47.18,47.18,0,0,0-9.43-8c6.76-8.92,7.34-21.7,7.34-30.79V35.85h11.68A51,51,0,0,0,262,31.47c5.43-.77,11.35-1.71,17.19-2.91-4.59-1-9.18-2-13.43-2.75l5.42-4h-15v-9.6h28c-.75-1.2-1.58-2.41-2.34-3.43l8-3.95A57.53,57.53,0,0,1,295,12.18h29.53v9.6h-12l4.58,2.92a82.16,82.16,0,0,1-8.59,3.43c4.17,1.11,8,2.23,11.26,3.26l-5.25,4.46h12.26v9.86h-60v4.12c0,3.09-.08,6.52-.42,10.12a38.42,38.42,0,0,0,8.43-13.89L285,49.23c-.25.77-.5,1.46-.83,2.23h6.92v-4.2H303v4.2h19.6v9.61H303v2.57h16.85V73H303v2.74Zm-37-12.09V61.07H279.56c-.5.85-1.08,1.71-1.58,2.57Zm15.52-27.79c-3.59-1.12-7.68-2.32-11.93-3.43-5,1.28-10,2.4-14.93,3.43ZM282.15,21.78c4.25.95,8.67,1.89,13.09,3,3.34-.94,6.43-2,9.18-3Z"/><path class="cls-12" d="M409.42,16.81V37.39h-12V27.27H346.53V37.39H335.11V16.81H345a62,62,0,0,0-3.67-6L352,6.52a39,39,0,0,1,6.25,10.12l-.41.17h7.67V5.92h12.26V16.81h8.09a61.89,61.89,0,0,0,4.92-10.38l13,3.69c-1.67,2.4-3.33,4.72-4.84,6.69ZM341.36,53.86h62.05V87.57H391.32V85.85H353v1.72h-11.6Zm53.05-23.59V51.12H349.54V30.27ZM353,62.69v3h12.92v-3ZM365.88,77V73.84H353V77ZM382.4,38.94H360.79v3.43H382.4Zm8.92,23.75H377.64v3h13.68Zm0,14.33V73.84H377.64V77Z"/><path class="cls-13" d="M441.69,48.46a87.69,87.69,0,0,1-4.5,18.35c4.75,7.46,13.26,8.41,25.35,8.49,9,0,23.61-.6,33.62-1.63-1.67,2.49-3.26,8.07-3.84,11.41-9.17.6-19.93.86-30,.86-14.26,0-23.43-1.55-29.69-9.52a37,37,0,0,1-10.42,11,41.4,41.4,0,0,0-7.68-8.24c7.43-4.46,12.6-12.35,15.27-23.07h-5.84c-1.92,0-4.51.6-5.26,1.37A70.23,70.23,0,0,0,415,47.68a8.55,8.55,0,0,0,4.51-2.83,86.7,86.7,0,0,0,6.75-9h-9.34V26.07h16.85l1-.43,7.17,3.26c-3,4.63-7.84,12-12,17.67h4.17l1.84-.26Zm-12-22.9a121.85,121.85,0,0,0-11.17-14l8.92-5.75a136.05,136.05,0,0,1,11.43,12.78ZM458,28.39c.25-.95.42-2,.59-2.92H439.69V15.52h9.51c-1-1.89-2.08-3.94-3.09-5.57l9.6-3.86c1.58,2.57,3.83,6.09,5,8.23L458,15.52h11.17A68.36,68.36,0,0,0,474,5.83l11.59,3.26c-1.5,2.31-3,4.46-4.42,6.43h12.27v10h-22c-.5,1-1,2-1.59,2.92h17.43V70.67H445.78V28.39ZM475.31,37H457.12v3.26h18.19Zm0,10.9H457.12v3.26h18.19Zm0,11H457.12v3.25h18.19Z"/></g></g></g></svg>