<svg xmlns="http://www.w3.org/2000/svg" xmlns:xlink="http://www.w3.org/1999/xlink" viewBox="0 0 222.4 35.95"><defs><style>.cls-1{fill:url(#White_Black);}.cls-2{mask:url(#mask);}.cls-3{fill:#0064c3;}</style><linearGradient id="White_Black" x1="205.95" y1="17.43" x2="-43" y2="18.65" gradientUnits="userSpaceOnUse"><stop offset="0" stop-color="#fff"/><stop offset="1"/></linearGradient><mask id="mask" x="-63.75" y="-9.91" width="286.15" height="55.92" maskUnits="userSpaceOnUse"><rect class="cls-1" x="-63.75" y="-9.91" width="286.14" height="55.92"/></mask></defs><g id="圖層_2" data-name="圖層 2"><g id="內頁"><g class="cls-2"><polygon class="cls-3" points="210.7 3.66 206.51 0 219.56 5.4 23.92 3.5 210.7 3.66"/><path class="cls-3" d="M7.25,30.1a24,24,0,0,1-4.92,4.76A23.51,23.51,0,0,0,0,33.07a15.67,15.67,0,0,0,4.54-3.95Zm4.47-1.83v4.55c0,1.35-.27,2-1.25,2.48a10.1,10.1,0,0,1-3.87.44,10.38,10.38,0,0,0-1-2.67c1.14,0,2.5,0,2.88,0S9,33,9,32.75V28.5c-5.07.41-6.08.57-6.86.87a18.06,18.06,0,0,0-.79-2.46,10.29,10.29,0,0,0,3.11-1.17A32.52,32.52,0,0,0,8,23.83c-3.58.25-4.34.36-4.86.59-.13-.52-.51-1.81-.78-2.52a5.92,5.92,0,0,0,1.88-.76,25.06,25.06,0,0,0,3.58-2.33c-2.15.44-4.32.79-6.38,1.06a8.73,8.73,0,0,0-.73-2.32c5.14-.71,10.78-1.91,14.2-3.4l2,2.16a41.44,41.44,0,0,1-6.42,1.93l1.21.8a39.77,39.77,0,0,1-3.81,2.58l3.87-.21c.83-.6,1.61-1.19,2.38-1.84l2,1.82a46.57,46.57,0,0,1-7.56,4.74l6.31-.44c-.47-.58-1-1.13-1.43-1.63l2.21-1.15A43.78,43.78,0,0,1,20,28.08l-2.26,1.4a19.53,19.53,0,0,0-1.14-1.61Zm3.36.55a29.69,29.69,0,0,1,5,4.2l-2.35,1.61a30.8,30.8,0,0,0-4.83-4.36Z"/><path class="cls-3" d="M24.89,29.74a26.34,26.34,0,0,1-1,5.61,8.73,8.73,0,0,0-2-.74,20.31,20.31,0,0,0,.89-5.22Zm4-1.36a10.24,10.24,0,0,0-.2-1c-4.47.8-5.21,1-5.72,1.31a18.1,18.1,0,0,0-.83-2.44c.6-.16,1.07-.65,1.74-1.52a15.79,15.79,0,0,0,1.37-1.82,8.08,8.08,0,0,0-2.46.49c-.14-.53-.54-1.73-.81-2.42.43-.11.81-.55,1.25-1.24a27,27,0,0,0,2.62-5.63l2.37,1.05a37.46,37.46,0,0,1-3.11,5.73l1.48-.11a38.22,38.22,0,0,0,1.72-3.45l2.17,1.4a38.57,38.57,0,0,1-4.63,7.06l2.26-.37a13.38,13.38,0,0,0-.67-1.7L29.21,23a20.56,20.56,0,0,1,1.57,4.6Zm-1.65.8a41.79,41.79,0,0,1,.6,4.74l-2,.51a44.9,44.9,0,0,0-.47-4.74Zm2.37-.66c.42,1.19.89,2.73,1.12,3.72L28.83,33a30.09,30.09,0,0,0-1-3.82Zm10.78,4.41c.4,0,.47-.43.54-3.12a6.81,6.81,0,0,0,2.24,1c-.23,3.54-.83,4.53-2.51,4.53H39c-2,0-2.48-.81-2.48-3.22V25.28l-1.28.16c-.18,4.92-.78,8.37-4.43,10.41a7.18,7.18,0,0,0-1.61-2.14c2.95-1.56,3.4-4.09,3.54-7.93a5.23,5.23,0,0,0-1.52.37,26.6,26.6,0,0,0-.9-2.62c.54-.16,1-.72,1.54-1.66a18.22,18.22,0,0,0,1.35-2.39H30.57V16.93h3.81c.35-.9.71-1.82,1-2.76l2.89.78c-.27.67-.54,1.31-.83,2H42.7v2.55H36.19a39.52,39.52,0,0,1-2.13,3.63l4.72-.46c-.35-.62-.71-1.21-1-1.79l2.15-1a31.43,31.43,0,0,1,3,5.7L40.6,26.68a17.59,17.59,0,0,0-.7-1.8L39,25v7.13c0,.71,0,.8.43.8Z"/><path class="cls-3" d="M52.6,15.23a35.5,35.5,0,0,1-2.17,4.37V35.76H47.91V23.37a22.77,22.77,0,0,1-2.15,2.43A24.25,24.25,0,0,0,44.35,23a23.46,23.46,0,0,0,5.77-8.57Zm8.82,17.59c1.14,0,1.32-1,1.52-4.76a6.59,6.59,0,0,0,2.35,1.15c-.29,4.44-1,6-3.67,6H57.88c-2.75,0-3.53-.92-3.53-4V14.72h2.57v5.84H64.7v2.62H56.92v8.05c0,1.36.16,1.59,1.23,1.59Z"/><path class="cls-3" d="M77,14.54h2.44v10c0,4.6-.58,8.62-5,11.13a10.31,10.31,0,0,0-1.88-1.91,7.61,7.61,0,0,0,4.16-5.66c-.87.74-1.79,1.48-2.59,2.12l-1.37-2.3c1-.64,2.64-1.72,4.19-2.81l0,.1v-3L75.66,23a24.88,24.88,0,0,0-2-4.28v2.44H71.86v3l1.7-.65.49,2.42c-.72.3-1.45.57-2.19.85v6.11c0,1.27-.23,2-.9,2.4a5.65,5.65,0,0,1-3.08.5,10.69,10.69,0,0,0-.67-2.53,14.35,14.35,0,0,0,1.83,0c.27,0,.38-.09.38-.39V27.71l-2,.79-.67-2.58L69.42,25V21.16H67V18.63h2.42V14.31h2.44v4.32h1.81l-.2-.34,2-1.11C76,18,76.51,19,77,20Zm8.16,18.55c.45,0,.54-.66.61-3A6.66,6.66,0,0,0,88,31.19c-.25,3.12-.88,4.34-2.62,4.34h-2c-2,0-2.57-.8-2.57-3.68V14.54h2.51v6.71a31.77,31.77,0,0,0,1.81-4.34l2.37,1.24c-.92,1.7-1.92,3.63-2.75,4.85l-1.43-.83v2.58L84,24.1a30.92,30.92,0,0,1,4,4l-1.7,1.93a28.38,28.38,0,0,0-3-3.42v5.22c0,1.05.06,1.21.53,1.21Z"/><path class="cls-3" d="M95.41,25.6a25.29,25.29,0,0,1-1,4.69C95.65,32.7,98.18,33,101.89,33c2.38,0,6.07-.13,8.57-.39a9.06,9.06,0,0,0-.83,2.53c-2.32.16-5.19.21-7.8.21-4.14,0-6.74-.44-8.44-2.85a9.7,9.7,0,0,1-2.64,3.26,8.08,8.08,0,0,0-1.7-1.84c1.84-1.31,3.14-3.58,3.76-6.64H91.36a2.49,2.49,0,0,0-1.3.34,13.32,13.32,0,0,0-.85-2.18,1.9,1.9,0,0,0,1.08-.74,30.66,30.66,0,0,0,1.81-2.89H89.57V19.67h3.89l.36-.14,1.61.64c-.69,1.27-1.92,3.43-2.93,5h1.23l.42-.07Zm-2.73-6.33a29.63,29.63,0,0,0-2.91-3.7l2-1.26a41.18,41.18,0,0,1,3,3.45Zm9.53.67a10.08,10.08,0,0,0-.38,1.86c-4.57.79-5.28.92-5.73,1.15a7.06,7.06,0,0,0-.87-2A1.49,1.49,0,0,0,96,19.44V15h6.19v4.37H98v1.13Zm7.6,9.27h-4.14a33,33,0,0,1,3.72,2.21L107,32.54a19.81,19.81,0,0,0-3.58-2.39l1.39-.94h-4.7l1.9.66a16,16,0,0,1-4.39,2.76,15.17,15.17,0,0,0-2-1.63,14.65,14.65,0,0,0,3.83-1.79h-4.1v-2h3.54V25.8H96.19v-2h2.73V22.61h2.44v1.22h2.44V22.61h2.46v1.22H109v2h-2.75v1.43h3.55ZM98,16.72v1H100v-1Zm3.34,10.51h2.44V25.8h-2.44Zm4.16-4.94c-2,0-2.51-.79-2.51-2.76V15.07h6.36v4.37h-4.25v.11c0,.64.09.87.55.87H108a6.91,6.91,0,0,0,1.54-.13c0,.57.11,1.33.18,1.84a7,7,0,0,1-1.65.16Zm-.4-5.55v1h2v-1Z"/><path class="cls-3" d="M118.26,25.6a20.55,20.55,0,0,1-1.32,5c1.39,2.1,3.81,2.37,7.32,2.39,2.39,0,6-.13,8.57-.39a8.21,8.21,0,0,0-.85,2.53c-2.31.16-5.15.21-7.77.21-4,0-6.57-.44-8.27-2.67a9.94,9.94,0,0,1-2.82,3.08,9.32,9.32,0,0,0-1.7-1.84c2-1.28,3.47-3.54,4.2-6.64h-1.9a2.69,2.69,0,0,0-1.41.34,16.91,16.91,0,0,0-.82-2.2,2.74,2.74,0,0,0,1.18-.74,31.78,31.78,0,0,0,2.22-2.9h-3V19.62h4.7l.27-.12,1.61.79c-.87,1.24-2.33,3.33-3.56,4.89h1.61l.43-.07Zm-2.86-6.3a34.68,34.68,0,0,0-2.93-3.73l2-1.24a37.05,37.05,0,0,1,3,3.43Zm4.07,12.18V16.54H123a18.79,18.79,0,0,0,.59-2.28l3.15.39c-.27.67-.56,1.31-.83,1.89h4.32v6.64H122v1.41h9v6.92l-10.07,0ZM122,18.77V21h5.57V18.77Zm0,8.05v2.46h6.45V26.82Z"/><path class="cls-3" d="M151.81,33.14a2.82,2.82,0,0,0,.41,0c.49,0,2.23,0,2.88,0a9,9,0,0,0-.65,2.3H152a4.29,4.29,0,0,1-4.43-2.67,8.51,8.51,0,0,1-1.38,3,12,12,0,0,0-1.5-1.31v1.27h-2.13V26.17c-.29.39-.58.76-.89,1.11a9.18,9.18,0,0,0-.51-.92v1.45h-1.73v3.05l2-.48.24,2.28c-2.55.66-5.25,1.33-7.36,1.88l-.47-2.48.83-.16V24.36h1.92v7.15l.76-.19V22.75h-2.52V15.16h6.22v3.45a14.67,14.67,0,0,0,2.52-4.33l2.19.69a21,21,0,0,1-3.91,6c-.2-.3-.51-.71-.8-1.08v2.9h-1.64v2.73h1.1a19.25,19.25,0,0,0,3.29-6.21l2,.67c-.33.87-.73,1.79-1.18,2.69V34.36c1.57-2.19,1.65-6.37,1.65-9.13l2.15.07c0,1-.09,2.18-.2,3.4a7.63,7.63,0,0,0,1.28,3.36V23.34h1.18a10.15,10.15,0,0,0-1.47-1.56c1.49-1.66,2-4.37,2.21-7.47l2.1.18a30.87,30.87,0,0,1-.51,3.7,34.25,34.25,0,0,1,2.17,3.57l-1.48,1.65a27.16,27.16,0,0,0-1.43-2.66,9.6,9.6,0,0,1-1.54,2.59h1v3.45h2.71v2.28h-2.71ZM136.87,20.45h2.06v-3h-2.06Zm12.3,1.12a11.27,11.27,0,0,0-.65-1.33,11.8,11.8,0,0,1-1.63,3.52,13,13,0,0,0-1.56-1.59c1.29-1.84,1.83-4.74,2.1-7.86l2.12.27c-.11,1.11-.24,2.19-.44,3.22.49.58,1.07,1.27,1.25,1.5Z"/><path class="cls-3" d="M164.51,26.49l-2.55.74v5.5c0,1.33-.24,2-1,2.43a6.91,6.91,0,0,1-3.38.51,10.23,10.23,0,0,0-.78-2.53c.87,0,1.79,0,2.08,0s.42-.11.42-.43V27.94c-.89.26-1.72.49-2.5.69l-.68-2.69c.92-.18,2-.43,3.18-.73v-4h-2.8V18.61h2.8v-4.3H162v4.3h2.22v2.62H162v3.33c.76-.2,1.52-.39,2.24-.6Zm4.43-2.64c-2.93,0-3.85-1-3.85-3.63V14.28h2.64v2.49h8.66v2.34h-8.66v1.2c0,.87.21,1.19,1.19,1.19H174a17.91,17.91,0,0,0,2.88-.18c.07.69.18,1.7.27,2.32a15.15,15.15,0,0,1-3,.21Zm-3.64,1.43h10.87V35.67h-2.64v-.9h-5.71v1H165.3Zm2.52,2.25v1.4h5.71v-1.4Zm5.71,5.06V31.07h-5.71v1.52Z"/><path class="cls-3" d="M198.13,20.93a28.3,28.3,0,0,1-2.08,8.48,9.8,9.8,0,0,0,3.85,4.19,8.55,8.55,0,0,0-1.68,2.12,11.38,11.38,0,0,1-3.54-4,13,13,0,0,1-4.83,4.09,9.7,9.7,0,0,0-.74-1.33l-.67.62a19.6,19.6,0,0,0-2.68-1.34,18.29,18.29,0,0,1-6.18,2,7,7,0,0,0-1-1.77,20.37,20.37,0,0,0,4.67-1.2c-1-.36-2.1-.68-3.09-.94a17.67,17.67,0,0,0,1.24-1.75H179V28.27h3.52a10.2,10.2,0,0,0,.53-1h-3.11V23.16h4v-.67h-3.58V20h-1.54V18h1.54V15.66h3.58V14.28h2v1.38h3.84V18h1.17V20h-1.17v2.53h-3.84v.67h4.16v.92a37.61,37.61,0,0,0,2.7-9.8l2.2.42c-.21,1.26-.47,2.57-.79,3.84h5.44v2.39Zm-16,4.78h1.76v-1h-1.76Zm.15-8.34v.8h1.61v-.8Zm1.61,3.4v-.94h-1.61v.94Zm-.11,9.33c-.16.28-.33.53-.49.79.71.2,1.43.41,2.12.66a4,4,0,0,0,1.17-1.45Zm5,0a5,5,0,0,1-1.21,2.28c.72.32,1.41.62,2,.92a10.35,10.35,0,0,0,4-3.95,32.13,32.13,0,0,1-1.32-4.74,17.83,17.83,0,0,1-.92,1.95,12.77,12.77,0,0,0-1.29-1.35v2h-4.7c-.16.35-.34.69-.52,1h2V27.6h2.08v.67h1.85V30.1Zm-2.88-12.73v.8h1.74v-.8Zm1.74,3.4v-.94h-1.74v.94Zm-1.74,3.93v1h1.83v-1Zm7.65-3.77a32.64,32.64,0,0,0,1.27,5.54,28.44,28.44,0,0,0,1-5.54Z"/><path class="cls-3" d="M205.33,32.11a9.62,9.62,0,0,0-1.05-1.68,9.62,9.62,0,0,1-2,4.78,5.68,5.68,0,0,0-1.34-1.59c1.21-1.42,1.66-3.47,1.83-6.25H201.3V25.62h1.52c0-.76.05-1.54.05-2.39h1.88v.25l.94-.5a7.29,7.29,0,0,1,1.2,2l-1,.6h0v1.75h-1.25c0,.27,0,.55-.07.8a10.8,10.8,0,0,1,1.93,2.56ZM209.44,23a24.63,24.63,0,0,0-3.24-2.62,6.5,6.5,0,0,1-3.62,2.92,4.72,4.72,0,0,0-1.19-1.7A4.94,4.94,0,0,0,204.61,19h-2.84V17.07h3.36a23.74,23.74,0,0,0,.17-2.42h2c0,.88-.09,1.68-.18,2.42H209a9.66,9.66,0,0,0-1.66-1.66l1.16-1.06a8.34,8.34,0,0,1,1.93,1.73l-1,1h1.26V19h-3.58a23.32,23.32,0,0,1,3.69,2.67Zm-3.75,2.58a7.83,7.83,0,0,0-.94-1.84c0,.64,0,1.24-.05,1.84Zm14.89-10.37c-.09,7.79-.35,18.33.45,18.33.2,0,.29-1.54.31-3.59a5.64,5.64,0,0,0,1.06,1.31c-.14,3-.45,4.25-1.53,4.25-2.34,0-2-8.71-2-18.25H213v5.77a60.84,60.84,0,0,1-.58,9.13c.7-.07,1.5-.16,2.4-.28v-3.2h-1.39V22h1.59V20.22h-1.52v-2h4.76v2h-1.54V22h1.68v6.69h-1.91v3l.88-.11L217,29.81l1.36-.33c.41,1.54.88,3.59,1.08,4.9l-1.43.39c-.05-.37-.12-.8-.18-1.24-1.75.3-3.47.58-4.95.81l-.38-2.07a21.16,21.16,0,0,1-.85,3.68,8.11,8.11,0,0,0-1.41-1.45,23.8,23.8,0,0,0,.7-3.5l-1.21,1.38a12.66,12.66,0,0,0-.92-1.77,9,9,0,0,1-2.26,4.62,5,5,0,0,0-1.29-1.54c1.4-1.45,1.94-3.54,2.14-6.32h-1.14V25.62h1.23c0-.76.05-1.54.05-2.37h1.85v.23l.85-.46a6.94,6.94,0,0,1,1.08,1.7V15.25ZM209.13,28.13a13.63,13.63,0,0,1,1.79,2.76,51.72,51.72,0,0,0,.33-5.87l-1,.6h.49v1.75H209.2Zm1.05-2.51a5.78,5.78,0,0,0-.85-1.68c0,.58,0,1.13,0,1.68Zm4.52,1.15h.63V24h-.63ZM217.16,24h-.65v2.81h.65Z"/></g></g></g></svg>