<svg xmlns="http://www.w3.org/2000/svg" xmlns:xlink="http://www.w3.org/1999/xlink" viewBox="0 0 380.2 299.05"><defs><style>.cls-1{isolation:isolate;}.cls-2{fill:url(#未命名漸層_176);}.cls-3{fill:url(#未命名漸層_93);}.cls-4{fill:url(#linear-gradient);}.cls-5{fill:url(#GradientFill_22);}.cls-6,.cls-8{fill:#fff;}.cls-6{fill-rule:evenodd;opacity:0.7;}.cls-7{opacity:0.1;mix-blend-mode:multiply;}</style><linearGradient id="未命名漸層_176" x1="126.12" y1="61.84" x2="286.56" y2="339.75" gradientUnits="userSpaceOnUse"><stop offset="0" stop-color="#00cbff" stop-opacity="0.3"/><stop offset="0.18" stop-color="#1691d2" stop-opacity="0.56"/><stop offset="0.42" stop-color="#2c5aa6" stop-opacity="0.8"/><stop offset="0.64" stop-color="#39388c" stop-opacity="0.95"/><stop offset="0.85" stop-color="#3d2d83"/></linearGradient><linearGradient id="未命名漸層_93" y1="149.53" x2="194.92" y2="149.53" gradientUnits="userSpaceOnUse"><stop offset="0" stop-color="#0091d8"/><stop offset="1" stop-color="#3ac4ff"/></linearGradient><linearGradient id="linear-gradient" x1="227.37" y1="36.02" x2="199.26" y2="-29.25" gradientUnits="userSpaceOnUse"><stop offset="0" stop-color="#007ac9"/><stop offset="1" stop-color="#000023"/></linearGradient><linearGradient id="GradientFill_22" x1="303.49" y1="75.67" x2="225.75" y2="110.22" gradientUnits="userSpaceOnUse"><stop offset="0" stop-color="#065bb2"/><stop offset="1" stop-color="#000023"/></linearGradient></defs><g class="cls-1"><g id="圖層_2" data-name="圖層 2"><g id="內頁"><polygon class="cls-2" points="181.79 29.7 60.12 151.37 60.12 299.05 357.05 299.05 357.05 110.31 263.97 110.31 181.79 29.7"/><path class="cls-3" d="M168.65,0,0,168.65,13.32,182,48.49,146.8V299.05H67.32V128L181.66,13.63l.13.13L194.92.25Z"/><polygon class="cls-4" points="273.82 79.16 194.92 0.25 181.79 13.76 266.02 97.99 290.06 97.99 274.17 79.16 273.82 79.16"/><polygon class="cls-5" points="347.2 78.39 347.2 27.31 287.08 27.31 287.08 79.16 274.17 79.16 290.06 97.99 305.92 97.99 305.92 46.14 328.37 46.14 328.37 97.23 380.19 97.23 380.19 78.39 347.2 78.39"/><path class="cls-6" d="M158.9,117.39h16.49V100.9H158.9v16.49Zm25,0h16.48V100.9H183.89v16.49Zm0-24h16.48V76.85H183.89V93.34Zm-25,0h16.49V76.85H158.9Z"/><g class="cls-7"><path d="M177.22,172.37v17h-4.5V161.11h.42c-.75-.88-2.27-2.43-3.11-3.19a22.61,22.61,0,0,0,6.3-8.11l4.42,1.31c-.26.5-.51,1-.8,1.55h9.28v3.82h-6.3a31.44,31.44,0,0,1,2.81,2.69l-2.1,1.93h4.71v11.26Zm.37-15.88a31.11,31.11,0,0,1-4,4.62h8.24c-1-1.05-2.27-2.31-3.28-3.23l1.55-1.39Zm6.26,7.52h-6.63v1.39h6.63Zm0,5.51v-1.43h-6.63v1.43ZM209,156.45h-7.61a34.43,34.43,0,0,1,3,2.65l-2.31,2h4.66v23.28c0,2.31-.46,3.52-2,4.2s-3.69.84-6.8.79a17.12,17.12,0,0,0-1-3.65H186.29v1.47H181.8V174h15.83v11.09c1.6.08,3.15,0,3.66,0s.84-.17.84-.8V172.37h-11.3V161.11h1a29.79,29.79,0,0,0-3.65-2.81,20.31,20.31,0,0,0,5.46-8.49l4.54,1.14c-.21.59-.42,1.13-.67,1.72H209Zm-22.73,20.29v1.76h6.93v-1.76Zm6.93,6.26v-1.81h-6.93V183Zm7.06-21.89a35,35,0,0,0-3.53-3.1l1.81-1.56h-3a28.31,28.31,0,0,1-3.57,4.66Zm1.85,4.29V164h-6.81v1.39Zm0,4.12v-1.43h-6.81v1.43Z"/><path d="M239.17,162.21c.88,12.26,3.44,22,6.51,22,.88,0,1.39-2.23,1.6-7.56a14.14,14.14,0,0,0,4.37,2.94c-.76,7.93-2.44,9.87-6.43,9.87-7.18,0-10.33-12.44-11.34-27.22H213v-4.88h20.62c-.08-2.26-.12-4.62-.12-6.93h5.38c0,2.31,0,4.67,0,6.93h6.64a30.4,30.4,0,0,0-4.92-4.41l3.32-2.73a31.37,31.37,0,0,1,5.5,4.66l-2.86,2.48h4v4.88Zm-13.28,18.86c2.57-.46,5.26-1,7.82-1.47l.38,4.45c-6.89,1.51-14.29,3-19.7,4.2l-1.39-5c2.14-.34,4.91-.76,7.94-1.26V171.83H214.6V167h18v4.84h-6.73Z"/><path d="M123.75,199.56A62.9,62.9,0,0,1,111.23,218a47.94,47.94,0,0,0-4.45-4.29,43.89,43.89,0,0,0,11.38-15.92Zm11.76,19.28a132.53,132.53,0,0,1,9.33,14.49l-5.17,2.73c-.54-1.17-1.3-2.6-2.18-4.11-20.29,1.59-23.15,1.85-25.21,2.64a45.22,45.22,0,0,0-2-5.37c1.42-.38,2.52-1.52,4.15-3.36,1.81-1.81,7.06-9,10.38-15.92l5.84,2.47a94.79,94.79,0,0,1-11.34,15.8l15.41-1c-1.34-2.1-2.73-4.29-4-6.13Zm.8-21c1.81,5.88,5.67,11.8,10.8,14.95a25.72,25.72,0,0,0-3.78,5c-4.79-3.65-8.53-9.28-10.88-14.83h-6.72v-5.16Z"/><path d="M156,213.3v22.76h-4.88V198.42h16.18V213.3Zm0-11.3v2.14h6.59V202Zm6.59,7.68v-2.27H156v2.27Zm12.31,16.93v8.66h-4.37v-8.66h-4c-.42,2.9-1.81,7-5.38,9.41a19.43,19.43,0,0,0-3.19-2.86,9.81,9.81,0,0,0,4.28-6.55H158v-4.07h4.41v-3.15h-3.82v-3.95h20.29v3.95h-4v3.15h4.62v4.07Zm-4.37-4.07v-3.15h-3.91v3.15Zm16,7.68c0,2.57-.47,3.95-2,4.75s-3.7,1-6.89,1a17.85,17.85,0,0,0-1.51-5c1.89.09,4,.09,4.58,0s.88-.25.88-.84v-16.8H170.08v-15h16.47ZM174.83,202v2.14h6.8V202Zm6.8,7.77v-2.36h-6.8v2.36Z"/><path d="M225.48,231.07c.67,0,.84-.55.92-4.5a12,12,0,0,0,4.29,1.89c-.46,5.63-1.68,7.18-4.62,7.18h-2.82c-3.82,0-4.62-1.51-4.62-5.84v-8.4h-2c-.63,6.64-2.14,11.85-8.95,14.92a14,14,0,0,0-2.48-3.53v1H197v1.77h-4.28V221h12.47v11.25c5.17-2.27,6.13-6.05,6.55-10.88h-2.73V210c-.46.5-1,1-1.42,1.39a32.13,32.13,0,0,0-3.53-3.58l.17-.12H191.12v-4h6.3a37.46,37.46,0,0,0-2-5.29l4.2-1.31a30.21,30.21,0,0,1,2.31,5.42l-3.23,1.18h7.39v2.31a28.76,28.76,0,0,0,6-8.7l4.62,1.43a42.85,42.85,0,0,1-5.84,9.24h14.41a79,79,0,0,0-6.89-8.73l3.48-2.36c3.2,3.37,7.19,8,8.91,11.14L227,210.86c-.25-.46-.51-1-.84-1.47v12h-2.65v8.32c0,1.22.09,1.35.68,1.35Zm-20.79-17.69H192.84V209.6h11.85Zm-11.85,1.85h11.85V219H192.84Zm8.27,9.79H197v4.7h4.07Zm12.65-7.94h7.39v-4.67h-7.39Z"/><path d="M239.33,224.76v3.62h-4.62V199.1h14.66v25.66Zm0-21.13v5.93h5.42v-5.93Zm5.42,16.6V214h-5.42v6.22Zm26.43,10.08c0,2.64-.55,4-2.19,4.79s-4.07.92-7.56.92a17.34,17.34,0,0,0-1.76-4.83c2.26.13,4.83.09,5.54,0s1-.25,1-1v-7.4h-9.87c-1.05,5-3.32,10-8,13.49a18.42,18.42,0,0,0-3.73-3.32c7-5.21,7.68-13,7.68-19.41V198.51h18.91Zm-5-11.93V213h-9v.63c0,1.51-.05,3.11-.21,4.75Zm-9-15.25v5.38h9v-5.38Z"/><path d="M297,211.74v1.47h13.45v3H297v1.51h16.51v3.49H275.87v-3.49h16.18v-1.51H278.81v-3h13.24v-1.47H279.74v-2.9h12.31v-1.59H275.92V203.8h16.13v-1.55H280.2v-2.9h11.85V196.7h5v2.65h11.73v4.45h4.78v3.45h-4.78v4.49Zm-15.92,10.8H309v13.61h-5.05v-1.22H286v1.26h-4.83Zm4.83,3.19v1.51h18v-1.51Zm18,6.05v-1.64H286v1.64Zm-6.89-28h6.77v-1.55H297Zm0,5h6.77v-1.59H297Z"/></g><path class="cls-8" d="M177.22,165.37v17h-4.5V154.11h.42c-.75-.88-2.27-2.43-3.11-3.19a22.61,22.61,0,0,0,6.3-8.11l4.42,1.31c-.26.5-.51,1-.8,1.55h9.28v3.82h-6.3a31.44,31.44,0,0,1,2.81,2.69l-2.1,1.93h4.71v11.26Zm.37-15.88a31.11,31.11,0,0,1-4,4.62h8.24c-1-1.05-2.27-2.31-3.28-3.23l1.55-1.39Zm6.26,7.52h-6.63v1.39h6.63Zm0,5.51v-1.43h-6.63v1.43ZM209,149.45h-7.61a34.43,34.43,0,0,1,3,2.65l-2.31,2h4.66v23.28c0,2.31-.46,3.52-2,4.2s-3.69.84-6.8.79a17.12,17.12,0,0,0-1-3.65H186.29v1.47H181.8V167h15.83v11.09c1.6.08,3.15,0,3.66,0s.84-.17.84-.8V165.37h-11.3V154.11h1a29.79,29.79,0,0,0-3.65-2.81,20.31,20.31,0,0,0,5.46-8.49l4.54,1.14c-.21.59-.42,1.13-.67,1.72H209Zm-22.73,20.29v1.76h6.93v-1.76Zm6.93,6.26v-1.81h-6.93V176Zm7.06-21.89a35,35,0,0,0-3.53-3.1l1.81-1.56h-3a28.31,28.31,0,0,1-3.57,4.66Zm1.85,4.29V157h-6.81v1.39Zm0,4.12v-1.43h-6.81v1.43Z"/><path class="cls-8" d="M239.17,155.21c.88,12.26,3.44,22,6.51,22,.88,0,1.39-2.23,1.6-7.56a14.14,14.14,0,0,0,4.37,2.94c-.76,7.93-2.44,9.87-6.43,9.87-7.18,0-10.33-12.44-11.34-27.22H213v-4.88h20.62c-.08-2.26-.12-4.62-.12-6.93h5.38c0,2.31,0,4.67,0,6.93h6.64a30.4,30.4,0,0,0-4.92-4.41l3.32-2.73a31.37,31.37,0,0,1,5.5,4.66l-2.86,2.48h4v4.88Zm-13.28,18.86c2.57-.46,5.26-1,7.82-1.47l.38,4.45c-6.89,1.51-14.29,3-19.7,4.2l-1.39-5c2.14-.34,4.91-.76,7.94-1.26V164.83H214.6V160h18v4.84h-6.73Z"/><path class="cls-8" d="M123.75,192.56A62.9,62.9,0,0,1,111.23,211a47.94,47.94,0,0,0-4.45-4.29,43.89,43.89,0,0,0,11.38-15.92Zm11.76,19.28a132.53,132.53,0,0,1,9.33,14.49l-5.17,2.73c-.54-1.17-1.3-2.6-2.18-4.11-20.29,1.59-23.15,1.85-25.21,2.64a45.22,45.22,0,0,0-2-5.37c1.42-.38,2.52-1.52,4.15-3.36,1.81-1.81,7.06-9,10.38-15.92l5.84,2.47a94.79,94.79,0,0,1-11.34,15.8l15.41-1c-1.34-2.1-2.73-4.29-4-6.13Zm.8-21c1.81,5.88,5.67,11.8,10.8,14.95a25.72,25.72,0,0,0-3.78,5c-4.79-3.65-8.53-9.28-10.88-14.83h-6.72v-5.16Z"/><path class="cls-8" d="M156,206.3v22.76h-4.88V191.42h16.18V206.3Zm0-11.3v2.14h6.59V195Zm6.59,7.68v-2.27H156v2.27Zm12.31,16.93v8.66h-4.37v-8.66h-4c-.42,2.9-1.81,7-5.38,9.41a19.43,19.43,0,0,0-3.19-2.86,9.81,9.81,0,0,0,4.28-6.55H158v-4.07h4.41v-3.15h-3.82v-3.95h20.29v3.95h-4v3.15h4.62v4.07Zm-4.37-4.07v-3.15h-3.91v3.15Zm16,7.68c0,2.57-.47,3.95-2,4.75s-3.7,1-6.89,1a17.85,17.85,0,0,0-1.51-5c1.89.09,4,.09,4.58,0s.88-.25.88-.84v-16.8H170.08v-15h16.47ZM174.83,195v2.14h6.8V195Zm6.8,7.77v-2.36h-6.8v2.36Z"/><path class="cls-8" d="M225.48,224.07c.67,0,.84-.55.92-4.5a12,12,0,0,0,4.29,1.89c-.46,5.63-1.68,7.18-4.62,7.18h-2.82c-3.82,0-4.62-1.51-4.62-5.84v-8.4h-2c-.63,6.64-2.14,11.85-8.95,14.92a14,14,0,0,0-2.48-3.53v1H197v1.77h-4.28V214h12.47v11.25c5.17-2.27,6.13-6.05,6.55-10.88h-2.73V203c-.46.5-1,1-1.42,1.39a32.13,32.13,0,0,0-3.53-3.58l.17-.12H191.12v-4h6.3a37.46,37.46,0,0,0-2-5.29l4.2-1.31a30.21,30.21,0,0,1,2.31,5.42l-3.23,1.18h7.39v2.31a28.76,28.76,0,0,0,6-8.7l4.62,1.43a42.85,42.85,0,0,1-5.84,9.24h14.41a79,79,0,0,0-6.89-8.73l3.48-2.36c3.2,3.37,7.19,8,8.91,11.14L227,203.86c-.25-.46-.51-1-.84-1.47v12h-2.65v8.32c0,1.22.09,1.35.68,1.35Zm-20.79-17.69H192.84V202.6h11.85Zm-11.85,1.85h11.85V212H192.84Zm8.27,9.79H197v4.7h4.07Zm12.65-7.94h7.39v-4.67h-7.39Z"/><path class="cls-8" d="M239.33,217.76v3.62h-4.62V192.1h14.66v25.66Zm0-21.13v5.93h5.42v-5.93Zm5.42,16.6V207h-5.42v6.22Zm26.43,10.08c0,2.64-.55,4-2.19,4.79s-4.07.92-7.56.92a17.34,17.34,0,0,0-1.76-4.83c2.26.13,4.83.09,5.54,0s1-.25,1-1v-7.4h-9.87c-1.05,5-3.32,10-8,13.49a18.42,18.42,0,0,0-3.73-3.32c7-5.21,7.68-13,7.68-19.41V191.51h18.91Zm-5-11.93V206h-9v.63c0,1.51-.05,3.11-.21,4.75Zm-9-15.25v5.38h9v-5.38Z"/><path class="cls-8" d="M297,204.74v1.47h13.45v3H297v1.51h16.51v3.49H275.87v-3.49h16.18v-1.51H278.81v-3h13.24v-1.47H279.74v-2.9h12.31v-1.59H275.92V196.8h16.13v-1.55H280.2v-2.9h11.85V189.7h5v2.65h11.73v4.45h4.78v3.45h-4.78v4.49Zm-15.92,10.8H309v13.61h-5.05v-1.22H286v1.26h-4.83Zm4.83,3.19v1.51h18v-1.51Zm18,6.05v-1.64H286v1.64Zm-6.89-28h6.77v-1.55H297Zm0,5h6.77v-1.59H297Z"/><polygon class="cls-8" points="220.43 252.49 212.91 260.01 212.91 240.27 208.55 240.27 208.55 260.01 201.03 252.49 197.95 255.57 210.73 268.35 210.73 268.35 210.73 268.35 223.51 255.57 220.43 252.49"/><rect class="cls-8" x="201.18" y="272.83" width="19.11" height="2.22"/></g></g></g></svg>