<svg xmlns="http://www.w3.org/2000/svg" xmlns:xlink="http://www.w3.org/1999/xlink" viewBox="0 0 380.2 299.05"><defs><style>.cls-1{isolation:isolate;}.cls-2{fill:url(#未命名漸層_176);}.cls-3{fill:url(#未命名漸層_93);}.cls-4{fill:url(#linear-gradient);}.cls-5{fill:url(#GradientFill_22);}.cls-6,.cls-8{fill:#fff;}.cls-6{fill-rule:evenodd;opacity:0.7;}.cls-7{opacity:0.1;mix-blend-mode:multiply;}</style><linearGradient id="未命名漸層_176" x1="126.12" y1="61.84" x2="286.56" y2="339.75" gradientUnits="userSpaceOnUse"><stop offset="0" stop-color="#00cbff" stop-opacity="0.3"/><stop offset="0.18" stop-color="#1691d2" stop-opacity="0.56"/><stop offset="0.42" stop-color="#2c5aa6" stop-opacity="0.8"/><stop offset="0.64" stop-color="#39388c" stop-opacity="0.95"/><stop offset="0.85" stop-color="#3d2d83"/></linearGradient><linearGradient id="未命名漸層_93" y1="149.53" x2="194.92" y2="149.53" gradientUnits="userSpaceOnUse"><stop offset="0" stop-color="#0091d8"/><stop offset="1" stop-color="#3ac4ff"/></linearGradient><linearGradient id="linear-gradient" x1="227.37" y1="36.02" x2="199.26" y2="-29.25" gradientUnits="userSpaceOnUse"><stop offset="0" stop-color="#007ac9"/><stop offset="1" stop-color="#000023"/></linearGradient><linearGradient id="GradientFill_22" x1="303.49" y1="75.67" x2="225.75" y2="110.22" gradientUnits="userSpaceOnUse"><stop offset="0" stop-color="#065bb2"/><stop offset="1" stop-color="#000023"/></linearGradient></defs><g class="cls-1"><g id="圖層_2" data-name="圖層 2"><g id="內頁"><polygon class="cls-2" points="181.79 29.7 60.12 151.37 60.12 299.05 357.05 299.05 357.05 110.31 263.97 110.31 181.79 29.7"/><path class="cls-3" d="M168.65,0,0,168.65,13.32,182,48.49,146.8V299.05H67.32V128L181.66,13.63l.13.13L194.92.25Z"/><polygon class="cls-4" points="273.82 79.16 194.92 0.25 181.79 13.76 266.02 97.99 290.06 97.99 274.17 79.16 273.82 79.16"/><polygon class="cls-5" points="347.2 78.39 347.2 27.31 287.08 27.31 287.08 79.16 274.17 79.16 290.06 97.99 305.92 97.99 305.92 46.14 328.37 46.14 328.37 97.23 380.19 97.23 380.19 78.39 347.2 78.39"/><path class="cls-6" d="M158.9,117.39h16.49V100.9H158.9v16.49Zm25,0h16.48V100.9H183.89v16.49Zm0-24h16.48V76.85H183.89V93.34Zm-25,0h16.49V76.85H158.9Z"/><g class="cls-7"><path d="M138.58,203a24.85,24.85,0,0,0,8.19,4.87,18.54,18.54,0,0,0-3.32,3.87,27.18,27.18,0,0,1-6.59-4.42v3.11h-7.65v2.73H143v4.12h-32v-4.12h13.19v-2.73H116.7v-2.6a28,28,0,0,1-6.68,4.28,20.41,20.41,0,0,0-3.2-3.82,25.38,25.38,0,0,0,8.49-5.29h-8.07v-4.08h8V186.41h-5.79v-4h5.79v-3.15h5v3.15h13.15v-3.15h5.13v3.15h5.75v4H138.5v12.52h7.77V203Zm-2.65,3.49a26.58,26.58,0,0,1-3-3.49H121.06a26.24,26.24,0,0,1-3,3.49h6v-2.61h5.08v2.61Zm-15.71-20.09v1.85h13.15v-1.85Zm0,7.15h13.15v-1.85H120.22Zm0,5.37h13.15V197H120.22Z"/><path d="M171.38,195.91v4.37h13.4v4.49h-6.64l4.21,1.52c-1.48,2.35-3.11,4.87-4.42,6.67h9v4.58H150.63V213h8.27a35.1,35.1,0,0,0-3.48-6.8l3.32-1.39h-6.09v-4.49H166v-4.37h-8.52v-2.06c-1.77.84-3.57,1.6-5.42,2.27a18,18,0,0,0-3.32-4.62c7.9-2.27,15.46-6.51,19.45-12.77l4.75,2.14-1.18,1.68c4.12,3.7,10.92,7.18,17.22,8.95a23.8,23.8,0,0,0-3.44,4.37,56.09,56.09,0,0,1-5.72-2.44v2.48Zm-11.72,8.86a28.85,28.85,0,0,1,3.66,6.68L159.87,213H166v-8.19Zm16.47-13.44a48.42,48.42,0,0,1-7.27-5.46,37.87,37.87,0,0,1-6.8,5.46Zm-4.75,13.44V213h5.25l-2.81-1.17a38.45,38.45,0,0,0,3.69-7Z"/><path d="M227.79,184.78v24.87h-5.21v-2h-9.33v10.75H208V207.63h-9.11v2.23h-5V184.78H208v-5.63h5.25v5.63Zm-28.9,4.79v4.24H208v-4.24ZM208,202.84v-4.45h-9.11v4.45Zm5.25-13.27v4.24h9.33v-4.24Zm9.33,13.27v-4.45h-9.33v4.45Z"/><path d="M241.39,209.1a27.68,27.68,0,0,1-5,9.41,25.36,25.36,0,0,0-3.69-2.44,19.9,19.9,0,0,0,4.32-7.94Zm6.39-1.26H235v-27.1h12.77Zm-4.37-23.15h-4.16v3.87h4.16Zm0,7.61h-4.16v3.9h4.16Zm0,7.6h-4.16v3.95h4.16Zm2.23,8.15a38.48,38.48,0,0,1,3.61,6.76l-3.87,1.89a36.37,36.37,0,0,0-3.44-7.1Zm26.59,3.61h-1.94v2.23c0,2.1-.42,3.15-1.8,3.82s-3.36.71-6.09.71a15.42,15.42,0,0,0-1.31-4c1.64,0,3.45,0,4,0s.72-.17.72-.63v-2.19H255v6.81h-4.37v-6.81h-2.27v-3.48h2.27V197.59h7.56V196h-9.62v-3.53h5.25v-1.63h-3.57v-3.32h3.57V186h-4.53v-3.53h4.53v-3.19h4.37v3.19h4.29v-3.19h4.45v3.19h4.54V186h-4.54v1.56h3.87v3.32h-3.87v1.63h5.29V196h-9.7v1.6h7.81v10.59h1.94ZM255,201.08V203h3.19v-1.93Zm0,7.1h3.19v-2.1H255Zm3.19-20.67h4.29V186h-4.29Zm0,5h4.29v-1.63h-4.29Zm4.33,8.62V203h3.28v-1.93Zm3.28,7.1v-2.1h-3.28v2.1Z"/><path d="M297,194.1v1.47h13.45v3H297v1.51h16.51v3.49H275.87v-3.49h16.18V198.6H278.81v-3h13.24V194.1H279.74v-2.9h12.31v-1.59H275.92v-3.45h16.13v-1.55H280.2v-2.9h11.85v-2.65h5v2.65h11.73v4.45h4.78v3.45h-4.78v4.49Zm-15.92,10.8H309v13.61h-5.05v-1.22H286v1.26h-4.83Zm4.83,3.19v1.51h18v-1.51Zm18,6V212.5H286v1.64Zm-6.89-28h6.77v-1.55H297Zm0,5h6.77v-1.59H297Z"/></g><path class="cls-8" d="M138.58,196a24.85,24.85,0,0,0,8.19,4.87,18.54,18.54,0,0,0-3.32,3.87,27.18,27.18,0,0,1-6.59-4.42v3.11h-7.65v2.73H143v4.12h-32v-4.12h13.19v-2.73H116.7v-2.6a28,28,0,0,1-6.68,4.28,20.41,20.41,0,0,0-3.2-3.82,25.38,25.38,0,0,0,8.49-5.29h-8.07v-4.08h8V179.41h-5.79v-4h5.79v-3.15h5v3.15h13.15v-3.15h5.13v3.15h5.75v4H138.5v12.52h7.77V196Zm-2.65,3.49a26.58,26.58,0,0,1-3-3.49H121.06a26.24,26.24,0,0,1-3,3.49h6v-2.61h5.08v2.61Zm-15.71-20.09v1.85h13.15v-1.85Zm0,7.15h13.15v-1.85H120.22Zm0,5.37h13.15V190H120.22Z"/><path class="cls-8" d="M171.38,188.91v4.37h13.4v4.49h-6.64l4.21,1.52c-1.48,2.35-3.11,4.87-4.42,6.67h9v4.58H150.63V206h8.27a35.1,35.1,0,0,0-3.48-6.8l3.32-1.39h-6.09v-4.49H166v-4.37h-8.52v-2.06c-1.77.84-3.57,1.6-5.42,2.27a18,18,0,0,0-3.32-4.62c7.9-2.27,15.46-6.51,19.45-12.77l4.75,2.14-1.18,1.68c4.12,3.7,10.92,7.18,17.22,8.95a23.8,23.8,0,0,0-3.44,4.37,56.09,56.09,0,0,1-5.72-2.44v2.48Zm-11.72,8.86a28.85,28.85,0,0,1,3.66,6.68L159.87,206H166v-8.19Zm16.47-13.44a48.42,48.42,0,0,1-7.27-5.46,37.87,37.87,0,0,1-6.8,5.46Zm-4.75,13.44V206h5.25l-2.81-1.17a38.45,38.45,0,0,0,3.69-7Z"/><path class="cls-8" d="M227.79,177.78v24.87h-5.21v-2h-9.33v10.75H208V200.63h-9.11v2.23h-5V177.78H208v-5.63h5.25v5.63Zm-28.9,4.79v4.24H208v-4.24ZM208,195.84v-4.45h-9.11v4.45Zm5.25-13.27v4.24h9.33v-4.24Zm9.33,13.27v-4.45h-9.33v4.45Z"/><path class="cls-8" d="M241.39,202.1a27.68,27.68,0,0,1-5,9.41,25.36,25.36,0,0,0-3.69-2.44,19.9,19.9,0,0,0,4.32-7.94Zm6.39-1.26H235v-27.1h12.77Zm-4.37-23.15h-4.16v3.87h4.16Zm0,7.61h-4.16v3.9h4.16Zm0,7.6h-4.16v3.95h4.16Zm2.23,8.15a38.48,38.48,0,0,1,3.61,6.76l-3.87,1.89a36.37,36.37,0,0,0-3.44-7.1Zm26.59,3.61h-1.94v2.23c0,2.1-.42,3.15-1.8,3.82s-3.36.71-6.09.71a15.42,15.42,0,0,0-1.31-4c1.64,0,3.45,0,4,0s.72-.17.72-.63v-2.19H255v6.81h-4.37v-6.81h-2.27v-3.48h2.27V190.59h7.56V189h-9.62v-3.53h5.25v-1.63h-3.57v-3.32h3.57V179h-4.53v-3.53h4.53v-3.19h4.37v3.19h4.29v-3.19h4.45v3.19h4.54V179h-4.54v1.56h3.87v3.32h-3.87v1.63h5.29V189h-9.7v1.6h7.81v10.59h1.94ZM255,194.08V196h3.19v-1.93Zm0,7.1h3.19v-2.1H255Zm3.19-20.67h4.29V179h-4.29Zm0,5h4.29v-1.63h-4.29Zm4.33,8.62V196h3.28v-1.93Zm3.28,7.1v-2.1h-3.28v2.1Z"/><path class="cls-8" d="M297,187.1v1.47h13.45v3H297v1.51h16.51v3.49H275.87v-3.49h16.18V191.6H278.81v-3h13.24V187.1H279.74v-2.9h12.31v-1.59H275.92v-3.45h16.13v-1.55H280.2v-2.9h11.85v-2.65h5v2.65h11.73v4.45h4.78v3.45h-4.78v4.49Zm-15.92,10.8H309v13.61h-5.05v-1.22H286v1.26h-4.83Zm4.83,3.19v1.51h18v-1.51Zm18,6V205.5H286v1.64Zm-6.89-28h6.77v-1.55H297Zm0,5h6.77v-1.59H297Z"/><polygon class="cls-8" points="220.43 252.49 212.91 260.01 212.91 240.27 208.55 240.27 208.55 260.01 201.03 252.49 197.95 255.57 210.73 268.35 210.73 268.35 210.73 268.35 223.51 255.57 220.43 252.49"/><rect class="cls-8" x="201.18" y="272.83" width="19.11" height="2.22"/></g></g></g></svg>