<svg xmlns="http://www.w3.org/2000/svg" xmlns:xlink="http://www.w3.org/1999/xlink" viewBox="0 0 714.06 104.34"><defs><style>.cls-1{isolation:isolate;}.cls-2{fill:#0064c3;}.cls-3{fill:#fff;}.cls-10,.cls-12,.cls-14,.cls-4,.cls-6,.cls-8{mix-blend-mode:screen;}.cls-4{fill:url(#未命名漸層_209);}.cls-11,.cls-13,.cls-15,.cls-5,.cls-7,.cls-9{mix-blend-mode:color-dodge;}.cls-5{fill:url(#未命名漸層_204);}.cls-6{fill:url(#未命名漸層_219);}.cls-7{fill:url(#未命名漸層_215);}.cls-8{fill:url(#未命名漸層_201);}.cls-9{fill:url(#未命名漸層_213);}.cls-10{fill:url(#未命名漸層_209-2);}.cls-11{fill:url(#未命名漸層_204-2);}.cls-12{fill:url(#未命名漸層_219-2);}.cls-13{fill:url(#未命名漸層_215-2);}.cls-14{fill:url(#未命名漸層_201-2);}.cls-15{fill:url(#未命名漸層_213-2);}</style><radialGradient id="未命名漸層_209" cx="119.38" cy="52.17" r="52.17" gradientUnits="userSpaceOnUse"><stop offset="0" stop-color="#fff"/><stop offset="0" stop-color="#fff" stop-opacity="0.96"/><stop offset="0.02" stop-color="#fff" stop-opacity="0.76"/><stop offset="0.04" stop-color="#fff" stop-opacity="0.58"/><stop offset="0.05" stop-color="#fff" stop-opacity="0.43"/><stop offset="0.07" stop-color="#fff" stop-opacity="0.31"/><stop offset="0.09" stop-color="#fff" stop-opacity="0.22"/><stop offset="0.11" stop-color="#fff" stop-opacity="0.15"/><stop offset="0.13" stop-color="#fff" stop-opacity="0.11"/><stop offset="0.16" stop-color="#fff" stop-opacity="0.1"/><stop offset="0.23" stop-color="#fff" stop-opacity="0.03"/><stop offset="0.25" stop-color="#fff" stop-opacity="0"/><stop offset="0.33" stop-color="#fff" stop-opacity="0"/><stop offset="0.99" stop-color="#fff" stop-opacity="0"/></radialGradient><radialGradient id="未命名漸層_204" cx="119.38" cy="52.17" r="32.97" gradientUnits="userSpaceOnUse"><stop offset="0.05" stop-color="#fff"/><stop offset="0.06" stop-color="#fff" stop-opacity="0.96"/><stop offset="0.09" stop-color="#fff" stop-opacity="0.78"/><stop offset="0.14" stop-color="#fff" stop-opacity="0.61"/><stop offset="0.18" stop-color="#fff" stop-opacity="0.47"/><stop offset="0.23" stop-color="#fff" stop-opacity="0.34"/><stop offset="0.29" stop-color="#fff" stop-opacity="0.23"/><stop offset="0.35" stop-color="#fff" stop-opacity="0.15"/><stop offset="0.42" stop-color="#fff" stop-opacity="0.08"/><stop offset="0.51" stop-color="#fff" stop-opacity="0.03"/><stop offset="0.64" stop-color="#fff" stop-opacity="0.01"/><stop offset="0.99" stop-color="#fff" stop-opacity="0"/></radialGradient><radialGradient id="未命名漸層_219" cx="-127.49" cy="-727.98" r="65.99" gradientTransform="translate(347.46 271.92) scale(1.8 0.3)" gradientUnits="userSpaceOnUse"><stop offset="0" stop-color="#fff"/><stop offset="0.01" stop-color="#fff" stop-opacity="0.88"/><stop offset="0.02" stop-color="#fff" stop-opacity="0.72"/><stop offset="0.03" stop-color="#fff" stop-opacity="0.57"/><stop offset="0.05" stop-color="#fff" stop-opacity="0.44"/><stop offset="0.06" stop-color="#fff" stop-opacity="0.33"/><stop offset="0.08" stop-color="#fff" stop-opacity="0.25"/><stop offset="0.1" stop-color="#fff" stop-opacity="0.18"/><stop offset="0.12" stop-color="#fff" stop-opacity="0.13"/><stop offset="0.16" stop-color="#fff" stop-opacity="0.11"/><stop offset="0.26" stop-color="#fff" stop-opacity="0.1"/><stop offset="0.3" stop-color="#fff" stop-opacity="0.03"/><stop offset="0.31" stop-color="#fff" stop-opacity="0"/><stop offset="0.38" stop-color="#fff" stop-opacity="0"/><stop offset="0.99" stop-color="#fff" stop-opacity="0"/></radialGradient><radialGradient id="未命名漸層_215" cx="-127.49" cy="-727.98" r="41.71" gradientTransform="translate(347.46 271.92) scale(1.8 0.3)" gradientUnits="userSpaceOnUse"><stop offset="0.05" stop-color="#fff"/><stop offset="0.06" stop-color="#fff" stop-opacity="0.97"/><stop offset="0.07" stop-color="#fff" stop-opacity="0.88"/><stop offset="0.08" stop-color="#fff" stop-opacity="0.75"/><stop offset="0.1" stop-color="#fff" stop-opacity="0.56"/><stop offset="0.12" stop-color="#fff" stop-opacity="0.31"/><stop offset="0.13" stop-color="#fff" stop-opacity="0.1"/><stop offset="0.27" stop-color="#fff" stop-opacity="0.03"/><stop offset="0.31" stop-color="#fff" stop-opacity="0"/><stop offset="0.38" stop-color="#fff" stop-opacity="0"/><stop offset="0.99" stop-color="#fff" stop-opacity="0"/></radialGradient><radialGradient id="未命名漸層_201" cx="-127.49" cy="-4912.09" r="65.99" gradientTransform="translate(347.46 364.15) scale(1.8 0.06)" gradientUnits="userSpaceOnUse"><stop offset="0.05" stop-color="#fff"/><stop offset="0.07" stop-color="#fff" stop-opacity="0.97"/><stop offset="0.1" stop-color="#fff" stop-opacity="0.88"/><stop offset="0.13" stop-color="#fff" stop-opacity="0.75"/><stop offset="0.18" stop-color="#fff" stop-opacity="0.56"/><stop offset="0.22" stop-color="#fff" stop-opacity="0.31"/><stop offset="0.26" stop-color="#fff" stop-opacity="0.1"/><stop offset="0.31" stop-color="#fff" stop-opacity="0.1"/><stop offset="0.48" stop-color="#fff" stop-opacity="0.05"/><stop offset="0.7" stop-color="#fff" stop-opacity="0.01"/><stop offset="0.99" stop-color="#fff" stop-opacity="0"/></radialGradient><radialGradient id="未命名漸層_213" cx="-127.49" cy="-4912.09" r="41.71" gradientTransform="translate(347.46 364.15) scale(1.8 0.06)" gradientUnits="userSpaceOnUse"><stop offset="0.05" stop-color="#fff"/><stop offset="0.05" stop-color="#fff" stop-opacity="0.88"/><stop offset="0.06" stop-color="#fff" stop-opacity="0.72"/><stop offset="0.06" stop-color="#fff" stop-opacity="0.57"/><stop offset="0.07" stop-color="#fff" stop-opacity="0.44"/><stop offset="0.08" stop-color="#fff" stop-opacity="0.33"/><stop offset="0.09" stop-color="#fff" stop-opacity="0.25"/><stop offset="0.09" stop-color="#fff" stop-opacity="0.18"/><stop offset="0.11" stop-color="#fff" stop-opacity="0.13"/><stop offset="0.12" stop-color="#fff" stop-opacity="0.11"/><stop offset="0.17" stop-color="#fff" stop-opacity="0.1"/><stop offset="0.28" stop-color="#fff" stop-opacity="0.03"/><stop offset="0.31" stop-color="#fff" stop-opacity="0"/><stop offset="0.38" stop-color="#fff" stop-opacity="0"/><stop offset="0.99" stop-color="#fff" stop-opacity="0"/></radialGradient><radialGradient id="未命名漸層_209-2" cx="596.42" cy="52.17" r="52.17" xlink:href="#未命名漸層_209"/><radialGradient id="未命名漸層_204-2" cx="596.42" cy="52.17" r="32.97" xlink:href="#未命名漸層_204"/><radialGradient id="未命名漸層_219-2" cx="138.15" cy="-727.98" r="65.99" xlink:href="#未命名漸層_219"/><radialGradient id="未命名漸層_215-2" cx="138.15" cy="-727.98" r="41.71" xlink:href="#未命名漸層_215"/><radialGradient id="未命名漸層_201-2" cx="138.15" cy="-4912.09" r="65.99" xlink:href="#未命名漸層_201"/><radialGradient id="未命名漸層_213-2" cx="138.15" cy="-4912.09" r="41.71" xlink:href="#未命名漸層_213"/></defs><g class="cls-1"><g id="圖層_2" data-name="圖層 2"><g id="內頁"><rect class="cls-2" x="69.75" y="20.92" width="576.33" height="59.82" rx="28.27"/><g id="_2050年風能_太陽能為主要供電來源" data-name=" 2050年風能 太陽能為主要供電來源" class="cls-1"><g class="cls-1"><path class="cls-3" d="M189,50.35c-5.37.55-10.78,1-14.92,1.37l-.59-3.87,4.37-.27V36.3h-3.46V32.48h22.06V36.3h-2.6V52.08H189Zm-2.73,9.19c-.32,1-.68,1.91-1.09,2.82a45,45,0,0,1,5.27,6.09l-3.27,3a54.44,54.44,0,0,0-4.09-5.28,21.56,21.56,0,0,1-6.78,6.64,33.23,33.23,0,0,0-1.86-5,16.63,16.63,0,0,0,7.77-9.36Zm25.1-5a122.66,122.66,0,0,1-14.05,2.14V74.23h-5.41v-17c-4.28.32-8.55.6-12.28.73a43.94,43.94,0,0,0-3.09-4.82c10.41,0,23.33-.77,30.69-2.18ZM182.71,36.3v1.59H189V36.3Zm0,6.19H189v-1.6h-6.32ZM189,46.71V45.49h-6.32v1.72Zm10.27-8.36c1.69.86,3.55,1.91,5.51,3a22.65,22.65,0,0,0,2.82-3.5H197.26V33.62h13.09l.87-.18L214.58,35A27.08,27.08,0,0,1,209,43.9a74.49,74.49,0,0,1,6.27,4.18l-3.77,3.68a63.38,63.38,0,0,0-6.28-4.5,34.24,34.24,0,0,1-7.82,4.37,29.26,29.26,0,0,0-2.95-3.82,26,26,0,0,0,6.5-3.28c-1.78-1-3.55-2-5.14-3Zm10.46,19.28a27.83,27.83,0,0,1-1,3A19.53,19.53,0,0,0,215.58,68a17.28,17.28,0,0,0-3.36,3.68,22.08,22.08,0,0,1-5.59-6.54,23.16,23.16,0,0,1-6.51,7.18,30.71,30.71,0,0,0-1.91-5,18.28,18.28,0,0,0,7.51-10.68Z"/><path class="cls-3" d="M231.05,63.9h-5.19l3.82.91a29.64,29.64,0,0,1-5.32,9.51l-5.18-2.1a25.17,25.17,0,0,0,5.23-8.68l1.32.32V47.62a33.87,33.87,0,0,1-2.91,2.87,46.65,46.65,0,0,0-4.32-3.87,38.48,38.48,0,0,0,11.45-15l5.32,1.64a38,38,0,0,1-2.18,4.13h8.23c-.54-1.41-1.18-2.86-1.82-4.13l4.87-1.73a42.31,42.31,0,0,1,2.73,5.86h12.5V42H246.37v2.45h11v4.23h-11v2.46h11.05v4.18H246.37V58h13.32v4.45H231.05ZM241,42h-9.95v2.45H241Zm0,6.68h-9.95v2.46H241Zm0,6.64h-9.95V58H241Zm-3.72,9.46a52.62,52.62,0,0,1,1.18,8.5l-5.32.73a59.5,59.5,0,0,0-.87-8.73Zm9.41-.41a45.14,45.14,0,0,1,2.64,8.46l-5.42,1a41.72,41.72,0,0,0-2.32-8.64Zm9-1a69.39,69.39,0,0,1,5.73,9.14l-5.46,1.78A55.78,55.78,0,0,0,250.6,65Z"/><path class="cls-3" d="M288.34,68.31h16.83v4.82h-38.7V68.31H282.7v-5.5H270.93V58.13H282.7V52.94h-9.55V49a54.9,54.9,0,0,1-5.77,3.41,22.58,22.58,0,0,0-3.32-4.36,51.39,51.39,0,0,0,15-9.87h-6v-5h15.55c3.91,5.73,11.19,11.46,18.92,14.28a26.8,26.8,0,0,0-3.64,4.95,46.59,46.59,0,0,1-5.73-3.22v3.72h-9.73v5.19h11.92v4.68H288.34Zm8.19-20.14a59.49,59.49,0,0,1-10.92-10,62.53,62.53,0,0,1-11.18,10Z"/><path class="cls-3" d="M352,48.35a102.86,102.86,0,0,1-7.5,8.78,25.12,25.12,0,0,0,8.5,9.55,11.76,11.76,0,0,0-3.32,4.09A30.18,30.18,0,0,1,341.09,61v7.23c0,2.73-.55,4.14-2.14,5s-3.86,1.14-7.23,1.14a22.93,22.93,0,0,0-1.82-5.23c2.19.09,4.32.09,5,0s1-.23,1-.91V60.77c-3.19,3.09-6.46,6.23-9.28,8.77l-2.5-3.82c-4.68,1.5-9.6,3-13.51,4.28l-1.13-5.14q2.38-.61,5.45-1.5v-11H310.4v-5h4.54v-8h-4.77v-5h14.41v5H320v8h3.91v5H320v9.5l4.64-1.41.5,2.91c3-2.13,7-5.32,10.78-8.45V44.08H325.45v-5h10.46V31.85h5.18v7.27h6.18a33.28,33.28,0,0,0-4.77-4.27l3-2.73a27.93,27.93,0,0,1,5.45,4.5l-2.59,2.5h3.91v5H341.09V45.9a54.89,54.89,0,0,0,1.64,6.73,61.15,61.15,0,0,0,4.59-6.73Zm-22.1-2.27a34.18,34.18,0,0,1,4.37,8l-4.41,2.05a36.65,36.65,0,0,0-4.14-8.19Z"/><path class="cls-3" d="M357.6,64.9h7.23V44.49h-6.1V40.35a21.9,21.9,0,0,0,7.83-2.82h4.95V64.9h6.32v5.41H357.6Z"/><path class="cls-3" d="M382.88,54.81c0-12.51,6.23-17.92,13.05-17.92a12.32,12.32,0,0,1,9.1,3.82l-3.55,4a7.47,7.47,0,0,0-5.18-2.41c-3.87,0-7.05,2.87-7.33,11.33a9.69,9.69,0,0,1,6.91-3.69c5.64,0,9.69,3.23,9.69,10.1S400.75,71,395,71C388.61,71,382.88,66,382.88,54.81Zm6.28,3.45c.63,5.55,2.91,7.64,5.68,7.64,2.55,0,4.59-2,4.59-5.86,0-3.68-1.91-5.37-4.82-5.37C392.88,54.67,390.84,55.63,389.16,58.26Z"/><path class="cls-3" d="M449.54,33.76V74.41h-5.36V72.5H415.89v1.91h-5.13V33.76Zm-5.36,33.92V38.62h-5.55a15.52,15.52,0,0,1,3.73,2.59l-1.82,1.91h2.18v3.82h-8.14c.23,2.55.5,4.91.87,7a27,27,0,0,0,2.13-5.68l4.14.81A34.4,34.4,0,0,1,437,59.45c.59,1.41,1.27,2.27,2,2.45.55.14.91-1.63,1.09-4.27a19.22,19.22,0,0,0,3.37,2.54c-.73,5.6-3.09,7.33-6.09,6a6.45,6.45,0,0,1-3.41-3A28.17,28.17,0,0,1,429.22,67a21.89,21.89,0,0,0-3-3.28c.5-.27,1-.59,1.5-.91-3.64.55-7.23,1-10.23,1.55l-.5-4c3.32-.32,8.05-.91,12.78-1.54l.09,2.31a27.49,27.49,0,0,0,2.27-2.31,66.44,66.44,0,0,1-1.95-11.92H417.58V43.12H429.9c-.09-1.27-.14-2.54-.23-3.86h4.46c0,1.32.09,2.59.18,3.86h4.91a22.09,22.09,0,0,0-3.5-2.41l2.09-2.09H415.89V67.68ZM428.85,57.54H418.71V48.9h10.14Zm-3.63-5.78h-3.05v2.91h3.05Z"/><path class="cls-3" d="M483.33,39.89c2.45,2.41,7.27,3.55,13.41,3.87a17.71,17.71,0,0,0-3,4.32c-5.09-.64-9.05-2.09-11.91-4.59-1.73,2-5.5,3.77-13.14,4.63a15.45,15.45,0,0,0-1.82-2.95H454.82V41h13.73V43.8c8.69-.9,9.82-2.95,9.82-4.63v-.69h-2.73a19.48,19.48,0,0,1-3.18,3.92,25.76,25.76,0,0,0-4-2.78,18.33,18.33,0,0,0,5.32-8.09l4.73,1c-.23.69-.5,1.37-.77,2h12.91l.82-.22,3.68,1.13A40.13,40.13,0,0,1,491,42.67l-4.19-1.55a26.61,26.61,0,0,0,1.6-2.64h-5.05v1.41Zm1.23,26.74c4.18,1.55,8.64,3.37,11.32,4.69L491,74.23a82.88,82.88,0,0,0-11.82-5.37L482,66.63H469.14l4,1.82a59.15,59.15,0,0,1-14.19,5.91,37.37,37.37,0,0,0-4-4,52,52,0,0,0,12.41-3.78h-6.55V48.17H491.2V66.63ZM467.51,38H455.86V34h11.65ZM466,53.35h19.69v-2H466Zm0,5h19.69v-2H466Zm0,5.09h19.69V61.4H466Z"/><path class="cls-3" d="M542.4,68.81v4.37H509V68.81h13.77V66.18h-9.64V62.9a24.48,24.48,0,0,1-2.59,2.82,30.44,30.44,0,0,0-2.14-4.55c-.54,4.73-1.86,10-4.86,13.65a19.39,19.39,0,0,0-4.18-3.5c3.68-4.55,4-11,4-15.69v-8.1h6.14a24.18,24.18,0,0,0-2.27-2.09c3.27-.5,6.86-1.14,10.37-1.95-2.87-.73-5.82-1.37-8.51-1.87l2.55-1.95h-7.82V35.44h15.82a25.12,25.12,0,0,0-1.73-2.37l3.64-1.77a26.77,26.77,0,0,1,3,4.14h15.73v4.23h-6.59L535.94,41c-1.64.77-3.55,1.55-5.59,2.27,2.68.73,5.14,1.46,7.18,2.14L535,47.53h6.68v4.32h-33v3.82a45.71,45.71,0,0,1-.23,4.78,22.27,22.27,0,0,0,5.18-8.19l4.6,1.37c-.23.59-.46,1.18-.73,1.82h5.27V52.67h5.32v2.78H539.3v4.22H528.07V62H538v4.14h-9.92v2.63ZM522.75,62V59.67h-7.41c-.5.82-1,1.6-1.54,2.37ZM532,47.53c-2.23-.77-5-1.54-7.82-2.32-3.28.87-6.59,1.64-9.78,2.32Zm-16.37-7.86c2.86.63,5.87,1.32,8.87,2a46.18,46.18,0,0,0,6-2Z"/></g></g><path class="cls-4" d="M171.55,52.17A52.17,52.17,0,1,1,119.38,0,52.17,52.17,0,0,1,171.55,52.17Z"/><path class="cls-5" d="M152.35,52.17a33,33,0,1,1-33-33A33,33,0,0,1,152.35,52.17Z"/><path class="cls-6" d="M237,52.72c0,11-53.06,19.87-118.52,19.87S0,63.7,0,52.72,53.06,32.86,118.51,32.86,237,41.75,237,52.72Z"/><path class="cls-7" d="M193.42,52.72c0,6.94-33.54,12.56-74.91,12.56s-74.9-5.62-74.9-12.56,33.53-12.55,74.9-12.55S193.42,45.79,193.42,52.72Z"/><path class="cls-8" d="M237,52.72C237,55,184,56.91,118.51,56.91S0,55,0,52.72s53.06-4.18,118.51-4.18S237,50.41,237,52.72Z"/><path class="cls-9" d="M193.42,52.72c0,1.46-33.54,2.65-74.91,2.65s-74.9-1.19-74.9-2.65,33.53-2.64,74.9-2.64S193.42,51.26,193.42,52.72Z"/><path class="cls-10" d="M648.59,52.17A52.17,52.17,0,1,1,596.42,0,52.17,52.17,0,0,1,648.59,52.17Z"/><path class="cls-11" d="M629.39,52.17a33,33,0,1,1-33-33A33,33,0,0,1,629.39,52.17Z"/><path class="cls-12" d="M714.06,52.72c0,11-53,19.87-118.51,19.87S477,63.7,477,52.72,530.1,32.86,595.55,32.86,714.06,41.75,714.06,52.72Z"/><path class="cls-13" d="M670.46,52.72c0,6.94-33.54,12.56-74.91,12.56s-74.9-5.62-74.9-12.56,33.53-12.55,74.9-12.55S670.46,45.79,670.46,52.72Z"/><path class="cls-14" d="M714.06,52.72c0,2.32-53,4.19-118.51,4.19S477,55,477,52.72s53.06-4.18,118.51-4.18S714.06,50.41,714.06,52.72Z"/><path class="cls-15" d="M670.46,52.72c0,1.46-33.54,2.65-74.91,2.65s-74.9-1.19-74.9-2.65,33.53-2.64,74.9-2.64S670.46,51.26,670.46,52.72Z"/></g></g></g></svg>