<svg xmlns="http://www.w3.org/2000/svg" xmlns:xlink="http://www.w3.org/1999/xlink" viewBox="0 0 380.91 600.09"><defs><style>.cls-1{fill:url(#未命名漸層_108);}.cls-2{isolation:isolate;}.cls-3{fill:url(#未命名漸層_176);}.cls-4{fill:url(#未命名漸層_93);}.cls-5{fill:url(#linear-gradient);}.cls-6{fill:url(#GradientFill_22);}.cls-7,.cls-9{fill:#fff;}.cls-7{fill-rule:evenodd;opacity:0.7;}.cls-8{opacity:0.1;mix-blend-mode:multiply;}.cls-10{mask:url(#mask);}.cls-11{opacity:0.4;}.cls-12{fill:url(#未命名漸層_98);}.cls-13{fill:url(#未命名漸層_93-2);}.cls-14{fill:url(#linear-gradient-2);}.cls-15{fill:url(#GradientFill_22-2);}</style><linearGradient id="未命名漸層_108" x1="186.77" y1="358.34" x2="186.77" y2="277.1" gradientTransform="translate(373.54 922.9) rotate(-180)" gradientUnits="userSpaceOnUse"><stop offset="0"/><stop offset="1" stop-color="#fff"/></linearGradient><linearGradient id="未命名漸層_176" x1="126.83" y1="61.84" x2="287.27" y2="339.75" gradientUnits="userSpaceOnUse"><stop offset="0" stop-color="#00cbff" stop-opacity="0.3"/><stop offset="0.18" stop-color="#1691d2" stop-opacity="0.56"/><stop offset="0.42" stop-color="#2c5aa6" stop-opacity="0.8"/><stop offset="0.64" stop-color="#39388c" stop-opacity="0.95"/><stop offset="0.85" stop-color="#3d2d83"/></linearGradient><linearGradient id="未命名漸層_93" x1="0.71" y1="149.53" x2="195.63" y2="149.53" gradientUnits="userSpaceOnUse"><stop offset="0" stop-color="#0091d8"/><stop offset="1" stop-color="#3ac4ff"/></linearGradient><linearGradient id="linear-gradient" x1="228.08" y1="36.02" x2="199.97" y2="-29.25" gradientUnits="userSpaceOnUse"><stop offset="0" stop-color="#007ac9"/><stop offset="1" stop-color="#000023"/></linearGradient><linearGradient id="GradientFill_22" x1="304.2" y1="75.67" x2="226.46" y2="110.22" gradientUnits="userSpaceOnUse"><stop offset="0" stop-color="#065bb2"/><stop offset="1" stop-color="#000023"/></linearGradient><mask id="mask" x="-17.97" y="297.3" width="409.48" height="328.3" maskUnits="userSpaceOnUse"><rect class="cls-1" x="-17.97" y="297.3" width="409.48" height="328.3" transform="translate(373.54 922.9) rotate(180)"/></mask><linearGradient id="未命名漸層_98" x1="60.12" y1="636.98" x2="357.05" y2="636.98" gradientTransform="matrix(1, 0, 0, -1, 0, 1072.7)" gradientUnits="userSpaceOnUse"><stop offset="0" stop-color="#0041a3"/><stop offset="1" stop-color="#3d2d83"/></linearGradient><linearGradient id="未命名漸層_93-2" x1="0" y1="622.13" x2="194.92" y2="622.13" gradientTransform="matrix(1, 0, 0, -1, 0, 1072.7)" xlink:href="#未命名漸層_93"/><linearGradient id="linear-gradient-2" x1="227.37" y1="508.63" x2="199.26" y2="443.36" gradientTransform="matrix(1, 0, 0, -1, 0, 1072.7)" xlink:href="#linear-gradient"/><linearGradient id="GradientFill_22-2" x1="303.49" y1="548.28" x2="225.75" y2="582.82" gradientTransform="matrix(1, 0, 0, -1, 0, 1072.7)" xlink:href="#GradientFill_22"/></defs><g class="cls-2"><g id="圖層_2" data-name="圖層 2"><g id="內頁"><polygon class="cls-3" points="182.5 29.7 60.83 151.37 60.83 299.05 357.76 299.05 357.76 110.31 264.68 110.31 182.5 29.7"/><path class="cls-4" d="M169.36,0,.71,168.65,14,182,49.2,146.8V299.05H68V128L182.37,13.63l.13.13L195.63.25Z"/><polygon class="cls-5" points="274.53 79.16 195.63 0.25 182.5 13.76 266.73 97.99 290.77 97.99 274.88 79.16 274.53 79.16"/><polygon class="cls-6" points="347.91 78.39 347.91 27.31 287.79 27.31 287.79 79.16 274.88 79.16 290.77 97.99 306.63 97.99 306.63 46.14 329.08 46.14 329.08 97.23 380.9 97.23 380.9 78.39 347.91 78.39"/><path class="cls-7" d="M159.61,117.39H176.1V100.9H159.61v16.49Zm25,0h16.48V100.9H184.6v16.49Zm0-24h16.48V76.85H184.6V93.34Zm-25,0H176.1V76.85H159.61Z"/><g class="cls-8"><path d="M139.29,203a24.85,24.85,0,0,0,8.19,4.87,18.54,18.54,0,0,0-3.32,3.87,27.18,27.18,0,0,1-6.59-4.42v3.11h-7.65v2.73h13.74v4.12h-32v-4.12h13.19v-2.73H117.4v-2.6a27.7,27.7,0,0,1-6.67,4.28,20.41,20.41,0,0,0-3.2-3.82A25.38,25.38,0,0,0,116,203H108v-4.08h8V186.41h-5.79v-4h5.79v-3.15h5v3.15h13.15v-3.15h5.13v3.15H145v4h-5.75v12.52H147V203Zm-2.65,3.49a26.58,26.58,0,0,1-3-3.49H121.77a26.24,26.24,0,0,1-3,3.49h6v-2.61h5.08v2.61Zm-15.71-20.09v1.85h13.15v-1.85Zm0,7.15h13.15v-1.85H120.93Zm0,5.37h13.15V197H120.93Z"/><path d="M172.09,195.91v4.37h13.4v4.49h-6.64l4.21,1.52c-1.48,2.35-3.11,4.87-4.42,6.67h9v4.58H151.34V213h8.27a35.1,35.1,0,0,0-3.48-6.8l3.32-1.39h-6.09v-4.49h13.35v-4.37h-8.52v-2.06c-1.77.84-3.57,1.6-5.42,2.27a18,18,0,0,0-3.32-4.62c7.9-2.27,15.46-6.51,19.45-12.77l4.75,2.14-1.18,1.68c4.12,3.7,10.92,7.18,17.22,8.95a23.8,23.8,0,0,0-3.44,4.37,56.09,56.09,0,0,1-5.72-2.44v2.48Zm-11.72,8.86a28.85,28.85,0,0,1,3.66,6.68L160.58,213h6.13v-8.19Zm16.47-13.44a48.42,48.42,0,0,1-7.27-5.46,37.87,37.87,0,0,1-6.8,5.46Zm-4.75,13.44V213h5.25l-2.81-1.17a38.45,38.45,0,0,0,3.69-7Z"/><path d="M228.5,184.78v24.87h-5.21v-2H214v10.75h-5.25V207.63H199.6v2.23h-5V184.78h14.11v-5.63H214v5.63Zm-28.9,4.79v4.24h9.11v-4.24Zm9.11,13.27v-4.45H199.6v4.45ZM214,189.57v4.24h9.33v-4.24Zm9.33,13.27v-4.45H214v4.45Z"/><path d="M242.1,209.1a27.68,27.68,0,0,1-5,9.41,25.36,25.36,0,0,0-3.69-2.44,19.9,19.9,0,0,0,4.32-7.94Zm6.39-1.26H235.72v-27.1h12.77Zm-4.37-23.15H240v3.87h4.16Zm0,7.61H240v3.9h4.16Zm0,7.6H240v3.95h4.16Zm2.23,8.15a38.48,38.48,0,0,1,3.61,6.76l-3.87,1.89a36.37,36.37,0,0,0-3.44-7.1Zm26.59,3.61H271v2.23c0,2.1-.42,3.15-1.8,3.82s-3.36.71-6.09.71a15.42,15.42,0,0,0-1.31-4c1.64,0,3.45,0,3.95,0s.72-.17.72-.63v-2.19h-10.8v6.81H251.3v-6.81H249v-3.48h2.27V197.59h7.56V196h-9.62v-3.53h5.25v-1.63h-3.57v-3.32h3.57V186H250v-3.53h4.53v-3.19h4.37v3.19h4.29v-3.19h4.45v3.19h4.54V186H267.6v1.56h3.87v3.32H267.6v1.63h5.29V196h-9.7v1.6H271v10.59h1.94Zm-17.27-10.58V203h3.19v-1.93Zm0,7.1h3.19v-2.1h-3.19Zm3.19-20.67h4.29V186h-4.29Zm0,5h4.29v-1.63h-4.29Zm4.33,8.62V203h3.28v-1.93Zm3.28,7.1v-2.1h-3.28v2.1Z"/><path d="M297.75,194.1v1.47H311.2v3H297.75v1.51h16.51v3.49H276.58v-3.49h16.18V198.6H279.52v-3h13.24V194.1H280.45v-2.9h12.31v-1.59H276.63v-3.45h16.13v-1.55H280.91v-2.9h11.85v-2.65h5v2.65h11.73v4.45h4.78v3.45h-4.78v4.49Zm-15.92,10.8h27.86v13.61h-5.05v-1.22h-18v1.26h-4.83Zm4.83,3.19v1.51h18v-1.51Zm18,6V212.5h-18v1.64Zm-6.89-28h6.77v-1.55h-6.77Zm0,5h6.77v-1.59h-6.77Z"/></g><path class="cls-9" d="M139.29,196a24.85,24.85,0,0,0,8.19,4.87,18.54,18.54,0,0,0-3.32,3.87,27.18,27.18,0,0,1-6.59-4.42v3.11h-7.65v2.73h13.74v4.12h-32v-4.12h13.19v-2.73H117.4v-2.6a27.7,27.7,0,0,1-6.67,4.28,20.41,20.41,0,0,0-3.2-3.82A25.38,25.38,0,0,0,116,196H108v-4.08h8V179.41h-5.79v-4h5.79v-3.15h5v3.15h13.15v-3.15h5.13v3.15H145v4h-5.75v12.52H147V196Zm-2.65,3.49a26.58,26.58,0,0,1-3-3.49H121.77a26.24,26.24,0,0,1-3,3.49h6v-2.61h5.08v2.61Zm-15.71-20.09v1.85h13.15v-1.85Zm0,7.15h13.15v-1.85H120.93Zm0,5.37h13.15V190H120.93Z"/><path class="cls-9" d="M172.09,188.91v4.37h13.4v4.49h-6.64l4.21,1.52c-1.48,2.35-3.11,4.87-4.42,6.67h9v4.58H151.34V206h8.27a35.1,35.1,0,0,0-3.48-6.8l3.32-1.39h-6.09v-4.49h13.35v-4.37h-8.52v-2.06c-1.77.84-3.57,1.6-5.42,2.27a18,18,0,0,0-3.32-4.62c7.9-2.27,15.46-6.51,19.45-12.77l4.75,2.14-1.18,1.68c4.12,3.7,10.92,7.18,17.22,8.95a23.8,23.8,0,0,0-3.44,4.37,56.09,56.09,0,0,1-5.72-2.44v2.48Zm-11.72,8.86a28.85,28.85,0,0,1,3.66,6.68L160.58,206h6.13v-8.19Zm16.47-13.44a48.42,48.42,0,0,1-7.27-5.46,37.87,37.87,0,0,1-6.8,5.46Zm-4.75,13.44V206h5.25l-2.81-1.17a38.45,38.45,0,0,0,3.69-7Z"/><path class="cls-9" d="M228.5,177.78v24.87h-5.21v-2H214v10.75h-5.25V200.63H199.6v2.23h-5V177.78h14.11v-5.63H214v5.63Zm-28.9,4.79v4.24h9.11v-4.24Zm9.11,13.27v-4.45H199.6v4.45ZM214,182.57v4.24h9.33v-4.24Zm9.33,13.27v-4.45H214v4.45Z"/><path class="cls-9" d="M242.1,202.1a27.68,27.68,0,0,1-5,9.41,25.36,25.36,0,0,0-3.69-2.44,19.9,19.9,0,0,0,4.32-7.94Zm6.39-1.26H235.72v-27.1h12.77Zm-4.37-23.15H240v3.87h4.16Zm0,7.61H240v3.9h4.16Zm0,7.6H240v3.95h4.16Zm2.23,8.15a38.48,38.48,0,0,1,3.61,6.76l-3.87,1.89a36.37,36.37,0,0,0-3.44-7.1Zm26.59,3.61H271v2.23c0,2.1-.42,3.15-1.8,3.82s-3.36.71-6.09.71a15.42,15.42,0,0,0-1.31-4c1.64,0,3.45,0,3.95,0s.72-.17.72-.63v-2.19h-10.8v6.81H251.3v-6.81H249v-3.48h2.27V190.59h7.56V189h-9.62v-3.53h5.25v-1.63h-3.57v-3.32h3.57V179H250v-3.53h4.53v-3.19h4.37v3.19h4.29v-3.19h4.45v3.19h4.54V179H267.6v1.56h3.87v3.32H267.6v1.63h5.29V189h-9.7v1.6H271v10.59h1.94Zm-17.27-10.58V196h3.19v-1.93Zm0,7.1h3.19v-2.1h-3.19Zm3.19-20.67h4.29V179h-4.29Zm0,5h4.29v-1.63h-4.29Zm4.33,8.62V196h3.28v-1.93Zm3.28,7.1v-2.1h-3.28v2.1Z"/><path class="cls-9" d="M297.75,187.1v1.47H311.2v3H297.75v1.51h16.51v3.49H276.58v-3.49h16.18V191.6H279.52v-3h13.24V187.1H280.45v-2.9h12.31v-1.59H276.63v-3.45h16.13v-1.55H280.91v-2.9h11.85v-2.65h5v2.65h11.73v4.45h4.78v3.45h-4.78v4.49Zm-15.92,10.8h27.86v13.61h-5.05v-1.22h-18v1.26h-4.83Zm4.83,3.19v1.51h18v-1.51Zm18,6V205.5h-18v1.64Zm-6.89-28h6.77v-1.55h-6.77Zm0,5h6.77v-1.59h-6.77Z"/><polygon class="cls-9" points="221.14 252.49 213.62 260.01 213.62 240.27 209.26 240.27 209.26 260.01 201.74 252.49 198.66 255.57 211.44 268.35 211.44 268.35 211.44 268.35 224.22 255.57 221.14 252.49"/><rect class="cls-9" x="201.89" y="272.83" width="19.11" height="2.22"/><g class="cls-10"><g class="cls-11"><polygon class="cls-12" points="181.79 570.39 60.12 448.73 60.12 301.04 357.05 301.04 357.05 489.78 263.97 489.78 181.79 570.39"/><path class="cls-13" d="M168.65,600.09,0,431.44l13.32-13.32,35.17,35.17V301H67.32V472.13L181.66,586.46l.13-.13,13.13,13.51Z"/><polygon class="cls-14" points="273.82 520.93 194.92 599.84 181.79 586.33 266.02 502.1 290.06 502.1 274.17 520.93 273.82 520.93"/><polygon class="cls-15" points="347.2 521.7 347.2 572.78 287.08 572.78 287.08 520.93 274.17 520.93 290.06 502.1 305.92 502.1 305.92 553.95 328.37 553.95 328.37 502.86 380.19 502.86 380.19 521.7 347.2 521.7"/></g></g></g></g></g></svg>