<svg xmlns="http://www.w3.org/2000/svg" xmlns:xlink="http://www.w3.org/1999/xlink" viewBox="0 0 488.52 133.81"><defs><style>.cls-1,.cls-3{fill:none;}.cls-2{fill:#3d2d83;}.cls-3{stroke:aqua;stroke-miterlimit:10;stroke-width:0.5px;}.cls-4{clip-path:url(#clip-path);}.cls-5{fill:#fff;}</style><clipPath id="clip-path"><polygon class="cls-1" points="446.06 120.16 22.06 120.16 46.79 37.49 470.79 37.49 446.06 120.16"/></clipPath></defs><g id="圖層_2" data-name="圖層 2"><g id="內頁"><polygon class="cls-2" points="446.06 120.16 22.06 120.16 46.79 37.49 470.79 37.49 446.06 120.16"/><polygon class="cls-3" points="424.34 133.56 0.34 133.56 25.07 50.89 449.07 50.89 424.34 133.56"/><polygon class="cls-3" points="463.45 106.89 39.45 106.89 64.19 24.23 488.19 24.23 463.45 106.89"/><path class="cls-2" d="M120,16.47V29.93l1.66-2c9,4.63,22.11,12,28.44,17.33l-7.34,9.35C137.93,50.26,128.42,44,120,39V79.77H109.32V16.47H79.21V6.18h74.31V16.47Z"/><path class="cls-2" d="M235.09,32.94a101.4,101.4,0,0,1-13.51,28.3c1.83,5.58,4,8.83,6.5,8.83,1.67,0,2.51-4.11,2.92-14.06a23.27,23.27,0,0,0,7.84,5.4C237.51,76.33,234.51,80,227.17,80c-5.34,0-9.43-3.77-12.51-10.2a75,75,0,0,1-12.1,10.38A31.28,31.28,0,0,0,196,72.48h-7.75v7.63h-8.68V72.48H163.2V65.1h16.34V61.75H165.86V40.66h13.52V37.31h-15V30.19h15V26.42H162.11V18h17.1V13.47H165.78V5.75h13.43V0h9.51V5.75h13.34v7.72H188.72V18h17.51c-.25-5.92-.33-11.92-.33-18h10c-.17,6.18-.09,12.18.08,18h21.6v8.41H216.32a210.73,210.73,0,0,0,2.34,21.95,86.77,86.77,0,0,0,7.59-18.26ZM172.79,48.8h7.5V45.63h-7.5Zm0,8h7.5V53.61h-7.5Zm22.35-8V45.63h-7.67V48.8Zm0,8V53.61h-7.67v3.17ZM203.48,67a58.16,58.16,0,0,0,7.59-7.55c-2.34-9-3.75-20.5-4.42-33H188.3v3.77h15.26v7.12H188.3v3.35h14.1V61.75H188.22V65.1h15.26ZM228.67,17.5c-1.84-3.35-6.42-8.67-10-12.27l7.26-5c3.67,3.43,8.34,8.32,10.51,11.75Z"/><path class="cls-2" d="M321.08,61.84h-18.6v8.32c0,4.72-.84,7.12-4.26,8.49s-8,1.37-14.34,1.37A38.42,38.42,0,0,0,281,71.1c4,.18,8.76.18,10.09.18s1.76-.35,1.76-1.46v-8H269.37a55.24,55.24,0,0,1,8.92,7.89L271,76.25c-2.42-3.35-8-8.23-12.51-11.41l3.5-3H245.26V53.78h47.63V50.6c-16.43.35-32.2.61-43.87.69L248.77,44c7.84.09,18.09,0,29.35,0V40.91h-24V16.21h24V13.12H247.51V5.4h30.61V0h9.68V5.4h30.44v7.72H287.8v3.09H313v24.7H307.4a82.51,82.51,0,0,1,10.76,6.86L312.07,53c-1-.86-2.17-1.89-3.5-2.83l-6.09.17v3.43h18.6ZM263.36,25.56h14.76V22.39H263.36Zm14.76,9.09V31.39H263.36v3.26Zm9.68-12.26v3.17h15.51V22.39Zm15.51,12.26V31.39H287.8v3.26ZM287.8,43.91l10.51-.08c-1.17-.52-2.34-1.12-3.42-1.54l1.67-1.38H287.8Z"/><path class="cls-2" d="M388,67.59a95.48,95.48,0,0,0,15.35-1.12c.33,2.49.92,7.12,1.42,9.52-3.17.86-10.59,1-17.27,1H354.6c-14.68,0-21.6-4.64-21.6-20.42V11.92h-3.34v-9h70.9v9h-57.8V57.21c0,7.46,2.42,10.38,11,10.38ZM346.51,40.05h23V63.13h-23Zm8,16.22H361V46.92h-6.5Zm33.28-20H355V15.87H387.8ZM378,22.56H364.28v7H378Zm18.76,40.57H373.2V40.05h23.52Zm-8.59-16.21h-6.76v9.35h6.76Z"/><g class="cls-4"><path class="cls-5" d="M120,16.47V29.93l1.66-2c9,4.63,22.11,12,28.44,17.33l-7.34,9.35C137.93,50.26,128.42,44,120,39V79.77H109.32V16.47H79.21V6.18h74.31V16.47Z"/><path class="cls-5" d="M235.09,32.94a101.4,101.4,0,0,1-13.51,28.3c1.83,5.58,4,8.83,6.5,8.83,1.67,0,2.51-4.11,2.92-14.06a23.27,23.27,0,0,0,7.84,5.4C237.51,76.33,234.51,80,227.17,80c-5.34,0-9.43-3.77-12.51-10.2a75,75,0,0,1-12.1,10.38A31.28,31.28,0,0,0,196,72.48h-7.75v7.63h-8.68V72.48H163.2V65.1h16.34V61.75H165.86V40.66h13.52V37.31h-15V30.19h15V26.42H162.11V18h17.1V13.47H165.78V5.75h13.43V0h9.51V5.75h13.34v7.72H188.72V18h17.51c-.25-5.92-.33-11.92-.33-18h10c-.17,6.18-.09,12.18.08,18h21.6v8.41H216.32a210.73,210.73,0,0,0,2.34,21.95,86.77,86.77,0,0,0,7.59-18.26ZM172.79,48.8h7.5V45.63h-7.5Zm0,8h7.5V53.61h-7.5Zm22.35-8V45.63h-7.67V48.8Zm0,8V53.61h-7.67v3.17ZM203.48,67a58.16,58.16,0,0,0,7.59-7.55c-2.34-9-3.75-20.5-4.42-33H188.3v3.77h15.26v7.12H188.3v3.35h14.1V61.75H188.22V65.1h15.26ZM228.67,17.5c-1.84-3.35-6.42-8.67-10-12.27l7.26-5c3.67,3.43,8.34,8.32,10.51,11.75Z"/><path class="cls-5" d="M321.08,61.84h-18.6v8.32c0,4.72-.84,7.12-4.26,8.49s-8,1.37-14.34,1.37A38.42,38.42,0,0,0,281,71.1c4,.18,8.76.18,10.09.18s1.76-.35,1.76-1.46v-8H269.37a55.24,55.24,0,0,1,8.92,7.89L271,76.25c-2.42-3.35-8-8.23-12.51-11.41l3.5-3H245.26V53.78h47.63V50.6c-16.43.35-32.2.61-43.87.69L248.77,44c7.84.09,18.09,0,29.35,0V40.91h-24V16.21h24V13.12H247.51V5.4h30.61V0h9.68V5.4h30.44v7.72H287.8v3.09H313v24.7H307.4a82.51,82.51,0,0,1,10.76,6.86L312.07,53c-1-.86-2.17-1.89-3.5-2.83l-6.09.17v3.43h18.6ZM263.36,25.56h14.76V22.39H263.36Zm14.76,9.09V31.39H263.36v3.26Zm9.68-12.26v3.17h15.51V22.39Zm15.51,12.26V31.39H287.8v3.26ZM287.8,43.91l10.51-.08c-1.17-.52-2.34-1.12-3.42-1.54l1.67-1.38H287.8Z"/><path class="cls-5" d="M388,67.59a95.48,95.48,0,0,0,15.35-1.12c.33,2.49.92,7.12,1.42,9.52-3.17.86-10.59,1-17.27,1H354.6c-14.68,0-21.6-4.64-21.6-20.42V11.92h-3.34v-9h70.9v9h-57.8V57.21c0,7.46,2.42,10.38,11,10.38ZM346.51,40.05h23V63.13h-23Zm8,16.22H361V46.92h-6.5Zm33.28-20H355V15.87H387.8ZM378,22.56H364.28v7H378Zm18.76,40.57H373.2V40.05h23.52Zm-8.59-16.21h-6.76v9.35h6.76Z"/></g></g></g></svg>