<svg xmlns="http://www.w3.org/2000/svg" xmlns:xlink="http://www.w3.org/1999/xlink" viewBox="0 0 576.33 121.16"><defs><style>.cls-1{fill:#0064c3;}.cls-2{fill:url(#未命名漸層_9);}.cls-3{isolation:isolate;}.cls-4{fill:#fff;}</style><linearGradient id="未命名漸層_9" x1="288.16" y1="63.09" x2="288.16" y2="113.88" gradientUnits="userSpaceOnUse"><stop offset="0" stop-color="#0064c3" stop-opacity="0.2"/><stop offset="1" stop-color="#0064c3" stop-opacity="0"/></linearGradient></defs><g id="圖層_2" data-name="圖層 2"><g id="內頁"><rect class="cls-1" width="576.33" height="59.82" rx="28.27"/><rect class="cls-2" y="61.33" width="576.33" height="59.82" rx="28.27"/><g id="_2050年風能_太陽能為主要供電來源" data-name=" 2050年風能 太陽能為主要供電來源" class="cls-3"><g class="cls-3"><path class="cls-4" d="M89.74,80,89.06,85l-3.32-.81v6.68h4.77v5H85.74v8.64H80.42V95.83H75v-5h5.41v-8c-2.23-.5-4.28-1-6-1.32l1.41-5.19,4.59,1.19V68.09c0-.63-.23-.86-.87-.86s-2.45,0-4.27,0a18.59,18.59,0,0,0,1.55-4.92c3.18,0,5.36.14,6.86,1s2,2.1,2,4.73V78.92Zm21.28,5-1-.22H90.33v-5h2.59l-1.68-.59a33.45,33.45,0,0,1,6.32-8.78A37,37,0,0,0,87.06,67a21.46,21.46,0,0,0,2.59-5,43.9,43.9,0,0,1,12.41,4.87A36.88,36.88,0,0,1,113.79,62a25.39,25.39,0,0,0,3.41,5,38.55,38.55,0,0,0-10.5,3.45,29.31,29.31,0,0,1,7.82,13.14ZM99.24,98l5.87,0V93.19c0-4.54,1-6.45,5.41-6.45h3a7.66,7.66,0,0,1,2.86.36c-.18,1.23-.32,3.09-.41,4.46a11.17,11.17,0,0,0-2.54-.32h-2.41c-.73,0-.82.54-.82,1.86V103h-16V98.15c0-3.14-.68-6.41-6-8.87a20.53,20.53,0,0,0,3.6-3.86C97.92,88.37,99.24,93.42,99.24,98Zm8.14-18.19a22.22,22.22,0,0,0-5.27-6.37,21.61,21.61,0,0,0-5.55,6.37Z"/><path class="cls-4" d="M149,96.88v.91h5a26.64,26.64,0,0,0-1.59-2.64l4.19-1.55a40.13,40.13,0,0,1,4.18,7.19l-3.68,1.13-.82-.22H143.44c.28.63.55,1.32.78,2l-4.73,1a18.33,18.33,0,0,0-5.32-8.09,27.46,27.46,0,0,0,4-2.77,19.4,19.4,0,0,1,3.18,3.91h2.73V97.1c0-1.68-1.14-3.72-9.82-4.63v2.77H120.53V91.1h12.05a15.37,15.37,0,0,0,1.81-2.95c7.64.86,11.42,2.63,13.15,4.63,2.86-2.5,6.82-4,11.91-4.59a17.52,17.52,0,0,0,3,4.32c-6.14.32-11,1.46-13.41,3.87Zm7.86-27.24V88.1H126.48V69.64H133a51.54,51.54,0,0,0-12.41-3.77,36.53,36.53,0,0,0,4-4,58.9,58.9,0,0,1,14.18,5.91l-4,1.82h12.82l-2.77-2.23a83,83,0,0,0,11.82-5.36L161.59,65c-2.69,1.32-7.14,3.13-11.33,4.68Zm-23.69,32.6H121.57V98.29h11.64Zm-1.5-27.37H151.4V72.82H131.71Zm0,5H151.4v-2H131.71Zm0,5H151.4v-2H131.71Z"/><path class="cls-4" d="M168.23,66H175V78.69h4.68L186.55,66h7.5l-7.86,13.77c3.86,1.5,6.41,4.64,6.41,9.69,0,7.73-5.59,10.23-12.64,10.23H168.23ZM175,84V94.29h4.36c4.32,0,6.73-1.23,6.73-4.87S183.64,84,179.32,84Z"/><path class="cls-4" d="M199.24,66h21.14V71.6H206v9h11.82v5.64H206V94h13.91v5.64H199.24Z"/><path class="cls-4" d="M227.2,66h6.73V99.65H227.2Z"/><path class="cls-4" d="M248.89,66h6.73V94h9.55v5.64H239.44V94h9.45Z"/><path class="cls-4" d="M274.31,65.32c6.64,0,10.14,3.59,10.14,8.05,0,4.73-3.72,6.41-7.09,7.68-2.68,1-5.05,1.69-5.05,3.55,0,1.45,1.09,2.46,3.41,2.46a9.48,9.48,0,0,0,5.46-2.19l3,4a14.11,14.11,0,0,1-8.64,3.14c-5.82,0-9.5-3.23-9.5-7.78,0-4.27,3.59-6.23,6.82-7.46,2.68-1,5.32-1.91,5.32-3.82,0-1.59-1.14-2.68-3.68-2.68a11,11,0,0,0-6.82,2.78l-3.05-4.19A16.15,16.15,0,0,1,274.31,65.32Z"/><path class="cls-4" d="M316,97.47c.68,1.91,1.28,3.82,1.78,5.77l-5.19,1.19a47.06,47.06,0,0,0-6.14-14.65v7.37h-7c.77,2,1.59,4.23,2.36,6.5l-5.91.82a48.53,48.53,0,0,0-1.32-7.32h-5.14V63.36h4.91v3.32h12.14V87.92a33.19,33.19,0,0,0,3.5-2.55,39.83,39.83,0,0,1,4,7.19h9.73c-.5-16-1.09-22.87-2.41-24.33a2.42,2.42,0,0,0-2-.77c-1.19,0-3.87,0-6.78.27a12.63,12.63,0,0,0,1.77-5.27,49.25,49.25,0,0,1,7.14.09,6,6,0,0,1,4.37,2.5c1.86,2.41,2.36,9.64,2.95,30,.05.64.05,2.46.05,2.46Zm-21.69-26v8.91h7.23V71.46Zm7.23,13.59h-7.23v7.37h7.23Zm19.69-8.32a110.46,110.46,0,0,1-6.68,10.1l-4.23-2.41a96.4,96.4,0,0,0,6.32-10.51Z"/><path class="cls-4" d="M348,65.12c8.22,0,15.54,5.52,15.54,15.06,0,9.24-6.24,13.44-13.68,13.44a12.42,12.42,0,0,1-5.34-1.2l.84,9.42h16.14v7.37H337.73l-1.2-21.59,4-2.58c2.58,1.68,4,2.34,6.66,2.34,4.5,0,7.5-2.7,7.5-7.5s-3.24-7.56-7.86-7.56c-4.14,0-7.26,2-9.78,4.5L333,71.18A20.24,20.24,0,0,1,348,65.12Z"/><path class="cls-4" d="M409.69,86.69v5.59H391.82c.46,4.23.5,8.42.55,12.15h-5.91c0-3.73,0-7.87-.46-12.15H369.45V86.69h15.64c-1.77-7.82-6.09-15.37-16.5-20a15.87,15.87,0,0,0,4-4.59,31.31,31.31,0,0,1,17,19.33c3.55-8.78,8.82-15.42,17.05-19.28a22.21,22.21,0,0,0,4,5.09c-8.5,3.46-14,10.59-17,19.46Z"/><path class="cls-4" d="M421.83,104.43c-1.91-6.69-5.18-13.28-8.73-17.56a44.4,44.4,0,0,0,2.6-5.82,48.08,48.08,0,0,1,2.86,3.87V62.05h5.14v32.6a75.78,75.78,0,0,1,3.09,8.27Zm34.33-18.51h-3.81V97.2h-9.74l.69,1.59h12v3.86H427.11V98.79H437.7c-.09-.55-.18-1.09-.31-1.59h-7.51V85.92h-4.14V79.46H430a11.21,11.21,0,0,0-2.18-1.77l3-2.32A15.7,15.7,0,0,1,434.38,79a2.7,2.7,0,0,1,1.37-2.5,21.38,21.38,0,0,0-3.09-2.73c-.37.41-.73.82-1.05,1.23l-3.91-1.37a15.48,15.48,0,0,1,1.59-1.91,34.85,34.85,0,0,0-3.73-1.68,12.25,12.25,0,0,0,2.91-3c1.41.64,2.69,1.32,3.87,2,.82-.59,1.68-1.13,2.59-1.68a80.51,80.51,0,0,0-10.14-1.59,17.32,17.32,0,0,0,2.59-3.91,73.64,73.64,0,0,1,13.23,2.91,58.23,58.23,0,0,1,12.92-2.68,18.3,18.3,0,0,0,2.59,4,76.38,76.38,0,0,0-9.69,1.32A18,18,0,0,1,452.85,73l-3.23,1.82-.91-.18h-9.23c.41.45.82.91,1.18,1.36h4c2.37,0,3.46.59,3.91,2.5a28.71,28.71,0,0,0,2.5-3.18L454,77.1a22.32,22.32,0,0,1-2,2.36h4.13Zm-9.68-5.32c.32-.32.68-.64,1-1a11.73,11.73,0,0,0-2.14.77c-.13-1.32-.36-1.55-1.27-1.55h-4c-1.23,0-1.5.14-1.5,1.05v2h-4.23V81l-2.09,1.09a17,17,0,0,0-1.91-2.32v3.09H440l-1.37-.73a23.9,23.9,0,0,0,3.46-3.27l3,1.77a20.4,20.4,0,0,1-2.46,2.23h8.74V80.19c-.69.77-1.41,1.41-2.1,2ZM434.7,87.37h12.6V85.92H434.7Zm12.6,2.19H434.7V91h12.6Zm0,5V93.19H434.7v1.37ZM435.84,71.32l9.37.05a18.8,18.8,0,0,0-4.6-2.32A20.06,20.06,0,0,0,435.84,71.32Z"/><path class="cls-4" d="M490.18,99.56c.09,1.64.09,3.23.14,5h-4.6c0-1.82,0-3.41-.09-5h-4.27V95.24h4c-.09-1.23-.22-2.36-.4-3.41l-2.46,1.32-2.27-3.37c1.09-.63,2.27-1.36,3.54-2.13a12,12,0,0,0-4.18-5.41v.81l-7.05-.41v1.87H479v3.18h-6.37v1.68a4.19,4.19,0,0,1,2.18-.45h2.73a9.51,9.51,0,0,1,2.46.27c-.14,1-.18,2-.23,3a10.37,10.37,0,0,0-2.32-.23h-1.54c-.6,0-.69.32-.69,1.09v1h5.32v3.41h-7.91V99h6.32v3.19h-6.32v2.27h-4.91V102.2h-6.14V99h6.14V97.38h-7.59V94h4.73c-.73-1.69-2.69-2.5-5.28-3a14.57,14.57,0,0,0,2-3.14c3.82,1.09,6.32,3,7.28,6.19h2.41v-.91c0-1.55.18-2.69.91-3.37h-4.46v-2h-6.09V84.51h6.09V82.37c-2.95-.13-5.68-.27-7.87-.36l.28-3.78c5.23.37,12.5.82,19.55,1.32v2.18a12,12,0,0,0,2.59-3.13,14.69,14.69,0,0,1,5.5,6.68c1.32-.82,2.5-1.59,3.37-2.23l2.27,3.82c-1.09.73-2.59,1.69-4.27,2.64a40.7,40.7,0,0,1,.86,5.73H493c.14-10,.73-17.64,5.41-17.64,2.87,0,3.64,2.23,4,6.82a20.72,20.72,0,0,0-2.91,3.09c-.05-3-.19-5.27-.69-5.23-1.22,0-1.13,7.87-1,17.28Zm-7.55-23.33c.05.73.18,1.46.27,2.28h-5.5c-.09-.82-.23-1.55-.36-2.28h-14.1V72.14h12.64c-1.95-3-6.05-4.82-15.28-5.82a15.87,15.87,0,0,0,2.41-4.41c12,1.68,16.69,4.91,18.78,10.23h10.42c-.37-3-.87-4.55-1.5-5a2.49,2.49,0,0,0-1.82-.45c-1,0-3.41,0-5.73.27a11.21,11.21,0,0,0,1.59-4.86c2.59,0,5.05,0,6.46.09a5.73,5.73,0,0,1,4,1.54c1.27,1.23,2.09,4.28,2.73,10.51.13.63.27,2,.27,2Z"/></g></g><g id="_2050年風能_太陽能為主要供電來源-2" data-name=" 2050年風能 太陽能為主要供電來源" class="cls-3"><g class="cls-3"><path class="cls-4" d="M87.21,36.43V47.26c0,2.63-.5,4-2,4.72s-3.68,1-6.86,1a18.23,18.23,0,0,0-1.55-4.92c1.82,0,3.69,0,4.28,0s.86-.23.86-.86V37.84L77.3,39l-1.41-5.19c1.73-.36,3.77-.82,6-1.32v-8H76.48v-5h5.41V10.88h5.32v8.64H92v5H87.21V31.2l3.32-.81.68,5ZM116,31.8a29.31,29.31,0,0,1-7.82,13.14,38.51,38.51,0,0,0,10.51,3.45,24.56,24.56,0,0,0-3.41,5,36.84,36.84,0,0,1-11.74-4.91,43.9,43.9,0,0,1-12.41,4.87,21.46,21.46,0,0,0-2.59-5A37,37,0,0,0,99,44.94a33.45,33.45,0,0,1-6.32-8.78l1.68-.59H91.8V30.52h19.74l.95-.22ZM93.26,29.93a20.47,20.47,0,0,0-3.59-3.86c5.36-2.46,6-5.73,6-8.87V12.33h16v9.92c0,1.32.09,1.86.82,1.86H115a11.17,11.17,0,0,0,2.54-.32c.1,1.37.23,3.23.41,4.46a7.66,7.66,0,0,1-2.86.36H112c-4.45,0-5.41-1.91-5.41-6.45V17.34l-5.86,0C100.72,21.93,99.4,27,93.26,29.93ZM98,35.57a21.76,21.76,0,0,0,5.55,6.37,22.22,22.22,0,0,0,5.27-6.37Z"/><path class="cls-4" d="M150.51,19c2.45,2.41,7.27,3.55,13.41,3.87a17.52,17.52,0,0,0-3,4.32c-5.09-.64-9-2.09-11.91-4.59-1.73,2-5.5,3.77-13.14,4.63a15.45,15.45,0,0,0-1.82-2.95H122V20.11h13.73v2.77c8.69-.91,9.82-2.95,9.82-4.63v-.69h-2.73a19.4,19.4,0,0,1-3.18,3.91,26.42,26.42,0,0,0-4-2.77A18.33,18.33,0,0,0,141,10.61l4.73,1c-.23.68-.5,1.37-.77,2h12.91l.82-.22,3.68,1.13a40.13,40.13,0,0,1-4.18,7.19L154,20.2a26.61,26.61,0,0,0,1.6-2.64h-5.05V19Zm1.23,26.74c4.18,1.55,8.64,3.36,11.32,4.68l-4.87,2.91a83,83,0,0,0-11.82-5.36l2.77-2.23H136.32l4,1.82a59.15,59.15,0,0,1-14.19,5.91,36.53,36.53,0,0,0-4-4,51.54,51.54,0,0,0,12.41-3.77H128V27.25h30.42V45.71ZM134.68,17.06H123V13.11h11.64Zm-1.5,15.37h19.69V30.48H133.18Zm0,5h19.69v-2H133.18Zm0,5.1h19.69V40.48H133.18Z"/><path class="cls-4" d="M169.7,15.7h11.73c7,0,12.64,2.5,12.64,10.23,0,5.05-2.54,8.18-6.41,9.69l7.87,13.77H188l-6.91-12.73h-4.68V49.39H169.7Zm11.09,15.64c4.32,0,6.73-1.82,6.73-5.41s-2.41-4.87-6.73-4.87h-4.36V31.34Z"/><path class="cls-4" d="M200.71,15.7h20.65v5.64H207.44v7.77h11.82v5.64H207.44v9h14.42v5.64H200.71Z"/><path class="cls-4" d="M228.68,15.7h6.73V49.39h-6.73Z"/><path class="cls-4" d="M250.37,21.34h-9.46V15.7h25.74v5.64H257.1V49.39h-6.73Z"/><path class="cls-4" d="M266.1,46.44l3-4.19A11,11,0,0,0,276,45c2.54,0,3.68-1.09,3.68-2.68,0-1.91-2.64-2.78-5.32-3.82-3.23-1.23-6.82-3.19-6.82-7.46,0-4.55,3.68-7.78,9.5-7.78a14.11,14.11,0,0,1,8.64,3.14l-3,4.05a9.48,9.48,0,0,0-5.45-2.19c-2.32,0-3.41,1-3.41,2.46,0,1.86,2.36,2.55,5,3.55,3.37,1.27,7.1,3,7.1,7.68,0,4.46-3.5,8.05-10.14,8.05A16.18,16.18,0,0,1,266.1,46.44Z"/><path class="cls-4" d="M330.26,17.88s0,1.82,0,2.46c-.59,20.32-1.09,27.55-3,30a6.08,6.08,0,0,1-4.36,2.5,49.28,49.28,0,0,1-7.14.09A12.65,12.65,0,0,0,314,47.62c2.91.27,5.6.27,6.78.27a2.42,2.42,0,0,0,2-.77c1.32-1.46,1.91-8.28,2.41-24.33h-9.73a39.23,39.23,0,0,1-4,7.19,35.43,35.43,0,0,0-3.5-2.55V48.67H295.79V52h-4.91V18.2H296a48.53,48.53,0,0,0,1.32-7.32l5.91.82c-.77,2.27-1.59,4.54-2.36,6.5h7.05v7.37a47,47,0,0,0,6.13-14.65l5.19,1.19c-.5,2-1.09,3.86-1.78,5.77ZM303,22.93h-7.24V30.3H303Zm0,21V35h-7.24v8.91Zm15.09-2.45a96.4,96.4,0,0,0-6.32-10.51L316,28.52a110.46,110.46,0,0,1,6.68,10.1Z"/><path class="cls-4" d="M334.33,44.61l3.74-5.17c2.31,2.25,5.17,4.12,9,4.12,4.24,0,7.21-2.47,7.21-6.93s-2.75-6.87-6.88-6.87c-2.42,0-3.74.61-6.1,2.15l-3.68-2.37,1.1-19.8h21.77v6.77H345.66l-.77,8.63a11.44,11.44,0,0,1,4.89-1.1c6.82,0,12.54,3.85,12.54,12.32,0,8.74-6.71,13.8-14.24,13.8A18.58,18.58,0,0,1,334.33,44.61Z"/><path class="cls-4" d="M392.21,28.66c3,8.87,8.51,16,17,19.46a21.94,21.94,0,0,0-4,5.09c-8.23-3.86-13.51-10.5-17.05-19.28a31.31,31.31,0,0,1-17,19.33,15.76,15.76,0,0,0-4.05-4.59c10.42-4.64,14.74-12.19,16.51-20H368V23.07h16.55c.45-4.28.41-8.42.45-12.15h5.92c0,3.73-.09,7.92-.55,12.15h17.87v5.59Z"/><path class="cls-4" d="M425.32,12.42a79.45,79.45,0,0,1-3.09,8.28V53.3h-5.14V30.43a48.09,48.09,0,0,1-2.87,3.87,43,43,0,0,0-2.59-5.82c3.55-4.28,6.82-10.87,8.73-17.56Zm29.37,23.47h-4.13a23.63,23.63,0,0,1,1.95,2.36l-2.91,1.82a28.71,28.71,0,0,0-2.5-3.18c-.45,1.91-1.55,2.5-3.91,2.5h-4c-.37.45-.78.91-1.18,1.36h9.23l.91-.18,3.22,1.82A17.84,17.84,0,0,1,445,48a76.13,76.13,0,0,0,9.69,1.32,18.3,18.3,0,0,0-2.59,3.95,58.23,58.23,0,0,1-12.92-2.68,73.64,73.64,0,0,1-13.23,2.91,17.32,17.32,0,0,0-2.59-3.91A80.51,80.51,0,0,0,433.46,48c-.91-.55-1.77-1.09-2.59-1.68-1.19.68-2.46,1.36-3.87,2a12.43,12.43,0,0,0-2.91-3.05,34.85,34.85,0,0,0,3.73-1.68,15.48,15.48,0,0,1-1.59-1.91l3.91-1.37c.32.41.68.82,1.05,1.23a21.38,21.38,0,0,0,3.09-2.73,2.69,2.69,0,0,1-1.37-2.5A15.7,15.7,0,0,1,429.37,40l-3-2.32a11.26,11.26,0,0,0,2.19-1.77h-4.28V29.43h4.14V18.15h7.5a14.9,14.9,0,0,0,.32-1.59H425.64V12.7h28.14v3.86h-12l-.68,1.59h9.73V29.43h3.82Zm-6.91-2.78c.68.64,1.41,1.28,2.09,2V32.48h-8.73a20.4,20.4,0,0,1,2.46,2.23l-3,1.77a23.88,23.88,0,0,0-3.46-3.27l1.37-.73h-9.64v3.09a17.73,17.73,0,0,0,1.91-2.32l2.09,1.09v-.91h4.23v2c0,.91.27,1.05,1.5,1.05h4c.91,0,1.13-.23,1.27-1.55a11.73,11.73,0,0,0,2.14.77c-.32-.36-.68-.68-1-1ZM433.23,20.79v1.37h12.6V20.79Zm12.6,3.55h-12.6v1.45h12.6Zm-12.6,5.09h12.6V28h-12.6Zm5.91,16.87A18.54,18.54,0,0,0,443.73,44l-9.36.05A20.06,20.06,0,0,0,439.14,46.3Z"/><path class="cls-4" d="M496.35,15.79c-.09,9.41-.19,17.28,1,17.28.5,0,.64-2.23.68-5.23A21.25,21.25,0,0,0,501,30.93c-.36,4.59-1.13,6.82-4,6.82-4.68,0-5.27-7.59-5.41-17.64h-3.09a40.7,40.7,0,0,1-.86,5.73c1.68.95,3.18,1.91,4.27,2.64l-2.27,3.82c-.87-.64-2.05-1.41-3.37-2.23a14.75,14.75,0,0,1-5.5,6.68,12.2,12.2,0,0,0-2.59-3.14V35.8c-7.05.5-14.33,1-19.55,1.32l-.28-3.78c2.19-.09,4.91-.23,7.87-.36V30.84h-6.09V27.66h6.09v-2h4.45c-.72-.68-.9-1.82-.9-3.37v-.91h-2.41c-1,3.14-3.46,5.1-7.28,6.19a14.57,14.57,0,0,0-2-3.14c2.59-.55,4.55-1.36,5.27-3.05h-4.72V18h7.59V16.34h-6.14V13.15h6.14V10.88h4.91v2.27h6.32v3.19h-6.32V18H479v3.41H473.7v1c0,.77.09,1.09.68,1.09h1.55a10.37,10.37,0,0,0,2.32-.23c0,1,.09,2,.23,3a9.56,9.56,0,0,1-2.46.27h-2.73a4.19,4.19,0,0,1-2.18-.45v1.68h6.37v3.18h-6.37v1.87l7.05-.41v.81a12,12,0,0,0,4.18-5.41c-1.27-.77-2.45-1.5-3.55-2.13l2.28-3.37,2.45,1.32a32.54,32.54,0,0,0,.41-3.41h-4V15.79h4.27c0-1.55.09-3.14.09-5h4.59c0,1.73,0,3.32-.13,5Zm.09,23.33s-.14,1.41-.28,2c-.63,6.23-1.45,9.28-2.72,10.51a5.73,5.73,0,0,1-4,1.54c-1.41.14-3.87.14-6.46.09a11.21,11.21,0,0,0-1.59-4.86c2.32.23,4.77.27,5.73.27a2.46,2.46,0,0,0,1.81-.45c.64-.5,1.14-2,1.51-5H480c-2.09,5.32-6.77,8.55-18.78,10.23A15.87,15.87,0,0,0,458.83,49c9.23-1,13.33-2.82,15.28-5.82H461.47V39.12h14.1c.13-.73.27-1.46.36-2.28h5.5c-.09.82-.23,1.55-.27,2.28Z"/></g></g></g></g></svg>