<svg xmlns="http://www.w3.org/2000/svg" xmlns:xlink="http://www.w3.org/1999/xlink" viewBox="0 0 380.2 600.09"><defs><style>.cls-1{fill:url(#未命名漸層_108);}.cls-2{isolation:isolate;}.cls-3{fill:url(#未命名漸層_176);}.cls-4{fill:url(#未命名漸層_93);}.cls-5{fill:url(#linear-gradient);}.cls-6{fill:url(#GradientFill_22);}.cls-7,.cls-9{fill:#fff;}.cls-7{fill-rule:evenodd;opacity:0.7;}.cls-8{opacity:0.1;mix-blend-mode:multiply;}.cls-10{mask:url(#mask);}.cls-11{opacity:0.4;}.cls-12{fill:url(#未命名漸層_98);}.cls-13{fill:url(#未命名漸層_93-2);}.cls-14{fill:url(#linear-gradient-2);}.cls-15{fill:url(#GradientFill_22-2);}</style><linearGradient id="未命名漸層_108" x1="186.77" y1="358.34" x2="186.77" y2="277.1" gradientTransform="translate(373.54 922.9) rotate(-180)" gradientUnits="userSpaceOnUse"><stop offset="0"/><stop offset="1" stop-color="#fff"/></linearGradient><linearGradient id="未命名漸層_176" x1="126.12" y1="61.84" x2="286.56" y2="339.75" gradientUnits="userSpaceOnUse"><stop offset="0" stop-color="#00cbff" stop-opacity="0.3"/><stop offset="0.18" stop-color="#1691d2" stop-opacity="0.56"/><stop offset="0.42" stop-color="#2c5aa6" stop-opacity="0.8"/><stop offset="0.64" stop-color="#39388c" stop-opacity="0.95"/><stop offset="0.85" stop-color="#3d2d83"/></linearGradient><linearGradient id="未命名漸層_93" y1="149.53" x2="194.92" y2="149.53" gradientUnits="userSpaceOnUse"><stop offset="0" stop-color="#0091d8"/><stop offset="1" stop-color="#3ac4ff"/></linearGradient><linearGradient id="linear-gradient" x1="227.37" y1="36.02" x2="199.26" y2="-29.25" gradientUnits="userSpaceOnUse"><stop offset="0" stop-color="#007ac9"/><stop offset="1" stop-color="#000023"/></linearGradient><linearGradient id="GradientFill_22" x1="303.49" y1="75.67" x2="225.75" y2="110.22" gradientUnits="userSpaceOnUse"><stop offset="0" stop-color="#065bb2"/><stop offset="1" stop-color="#000023"/></linearGradient><mask id="mask" x="-17.97" y="297.3" width="409.48" height="328.3" maskUnits="userSpaceOnUse"><rect class="cls-1" x="-17.97" y="297.3" width="409.48" height="328.3" transform="translate(373.54 922.9) rotate(180)"/></mask><linearGradient id="未命名漸層_98" x1="60.12" y1="635" x2="357.05" y2="635" gradientTransform="matrix(1, 0, 0, -1, 0, 1070.72)" gradientUnits="userSpaceOnUse"><stop offset="0" stop-color="#0041a3"/><stop offset="1" stop-color="#3d2d83"/></linearGradient><linearGradient id="未命名漸層_93-2" y1="620.15" x2="194.92" y2="620.15" gradientTransform="matrix(1, 0, 0, -1, 0, 1070.72)" xlink:href="#未命名漸層_93"/><linearGradient id="linear-gradient-2" x1="227.37" y1="506.64" x2="199.26" y2="441.38" gradientTransform="matrix(1, 0, 0, -1, 0, 1070.72)" xlink:href="#linear-gradient"/><linearGradient id="GradientFill_22-2" x1="303.49" y1="546.29" x2="225.75" y2="580.84" gradientTransform="matrix(1, 0, 0, -1, 0, 1070.72)" xlink:href="#GradientFill_22"/></defs><g class="cls-2"><g id="圖層_2" data-name="圖層 2"><g id="內頁"><polygon class="cls-3" points="181.79 29.7 60.12 151.37 60.12 299.05 357.05 299.05 357.05 110.31 263.97 110.31 181.79 29.7"/><path class="cls-4" d="M168.65,0,0,168.65,13.32,182,48.49,146.8V299.05H67.32V128L181.66,13.63l.13.13L194.92.25Z"/><polygon class="cls-5" points="273.82 79.16 194.92 0.25 181.79 13.76 266.02 97.99 290.06 97.99 274.17 79.16 273.82 79.16"/><polygon class="cls-6" points="347.2 78.39 347.2 27.31 287.08 27.31 287.08 79.16 274.17 79.16 290.06 97.99 305.92 97.99 305.92 46.14 328.37 46.14 328.37 97.23 380.19 97.23 380.19 78.39 347.2 78.39"/><path class="cls-7" d="M158.9,117.39h16.49V100.9H158.9v16.49Zm25,0h16.48V100.9H183.89v16.49Zm0-24h16.48V76.85H183.89V93.34Zm-25,0h16.49V76.85H158.9Z"/><g class="cls-8"><path d="M123.75,181.92a62.9,62.9,0,0,1-12.52,18.4,47.94,47.94,0,0,0-4.45-4.29,43.89,43.89,0,0,0,11.38-15.92Zm11.76,19.28a132.53,132.53,0,0,1,9.33,14.49l-5.17,2.73c-.54-1.17-1.3-2.6-2.18-4.11-20.29,1.59-23.15,1.85-25.21,2.64a45.22,45.22,0,0,0-2-5.37c1.42-.38,2.52-1.51,4.15-3.36,1.81-1.81,7.06-9,10.38-15.92l5.84,2.48a94.7,94.7,0,0,1-11.34,15.79l15.41-1c-1.34-2.1-2.73-4.28-4-6.13Zm.8-21c1.81,5.88,5.67,11.8,10.8,15a25.72,25.72,0,0,0-3.78,5c-4.79-3.65-8.53-9.28-10.88-14.82h-6.72V180.2Z"/><path d="M156,195.66v22.76h-4.88V180.79h16.18v14.87Zm0-11.3v2.14h6.59v-2.14ZM162.6,192v-2.26H156V192ZM174.91,209v8.66h-4.37V209h-4c-.42,2.9-1.81,7-5.38,9.41a18.93,18.93,0,0,0-3.19-2.85,9.82,9.82,0,0,0,4.28-6.56H158V204.9h4.41v-3.15h-3.82V197.8h20.29v3.95h-4v3.15h4.62V209Zm-4.37-4.07v-3.15h-3.91v3.15Zm16,7.69c0,2.56-.47,3.94-2,4.74s-3.7,1-6.89,1a17.85,17.85,0,0,0-1.51-5c1.89.09,4,.09,4.58,0s.88-.25.88-.84v-16.8H170.08v-15h16.47Zm-11.72-28.23v2.14h6.8v-2.14Zm6.8,7.77v-2.35h-6.8v2.35Z"/><path d="M225.48,213.43c.67,0,.84-.55.92-4.5a12,12,0,0,0,4.29,1.89c-.46,5.63-1.68,7.18-4.62,7.18h-2.82c-3.82,0-4.62-1.51-4.62-5.83v-8.41h-2c-.63,6.64-2.14,11.85-8.95,14.92a14,14,0,0,0-2.48-3.53v1H197v1.77h-4.28V203.39h12.47v11.25c5.17-2.26,6.13-6,6.55-10.88h-2.73V192.38c-.46.5-1,1-1.42,1.39a31.21,31.21,0,0,0-3.53-3.57l.17-.13H191.12v-3.95h6.3a37.46,37.46,0,0,0-2-5.29l4.2-1.3a29.61,29.61,0,0,1,2.31,5.42l-3.23,1.17h7.39v2.31a28.84,28.84,0,0,0,6-8.69l4.62,1.42a43.17,43.17,0,0,1-5.84,9.25h14.41a78.16,78.16,0,0,0-6.89-8.74l3.48-2.35c3.2,3.36,7.19,8,8.91,11.13L227,193.22a16.38,16.38,0,0,0-.84-1.47v12h-2.65v8.32c0,1.22.09,1.35.68,1.35Zm-20.79-17.69H192.84V192h11.85Zm-11.85,1.85h11.85v3.78H192.84Zm8.27,9.79H197v4.7h4.07Zm12.65-7.94h7.39v-4.66h-7.39Z"/><path d="M239.33,207.12v3.62h-4.62V181.46h14.66v25.66Zm0-21.13v5.93h5.42V186Zm5.42,16.6v-6.22h-5.42v6.22Zm26.43,10.08c0,2.65-.55,4-2.19,4.79s-4.07.92-7.56.92a17.34,17.34,0,0,0-1.76-4.83c2.26.13,4.83.09,5.54,0s1-.25,1-1v-7.4h-9.87c-1.05,5.05-3.32,10-8,13.49a18.42,18.42,0,0,0-3.73-3.32c7-5.21,7.68-13,7.68-19.41V180.87h18.91Zm-5-11.93v-5.38h-9V196a45.81,45.81,0,0,1-.21,4.75Zm-9-15.25v5.38h9v-5.38Z"/><path d="M297,194.1v1.47h13.45v3H297v1.51h16.51v3.49H275.87v-3.49h16.18V198.6H278.81v-3h13.24V194.1H279.74v-2.9h12.31v-1.59H275.92v-3.45h16.13v-1.55H280.2v-2.9h11.85v-2.65h5v2.65h11.73v4.45h4.78v3.45h-4.78v4.49Zm-15.92,10.8H309v13.61h-5.05v-1.22H286v1.26h-4.84Zm4.84,3.19v1.51h18v-1.51Zm18,6V212.5H286v1.64Zm-6.89-28h6.77v-1.55H297Zm0,5h6.77v-1.59H297Z"/></g><path class="cls-9" d="M123.75,174.92a62.9,62.9,0,0,1-12.52,18.4,47.94,47.94,0,0,0-4.45-4.29,43.89,43.89,0,0,0,11.38-15.92Zm11.76,19.28a132.53,132.53,0,0,1,9.33,14.49l-5.17,2.73c-.54-1.17-1.3-2.6-2.18-4.11-20.29,1.59-23.15,1.85-25.21,2.64a45.22,45.22,0,0,0-2-5.37c1.42-.38,2.52-1.51,4.15-3.36,1.81-1.81,7.06-9,10.38-15.92l5.84,2.48a94.7,94.7,0,0,1-11.34,15.79l15.41-1c-1.34-2.1-2.73-4.28-4-6.13Zm.8-21c1.81,5.88,5.67,11.8,10.8,15a25.72,25.72,0,0,0-3.78,5c-4.79-3.65-8.53-9.28-10.88-14.82h-6.72V173.2Z"/><path class="cls-9" d="M156,188.66v22.76h-4.88V173.79h16.18v14.87Zm0-11.3v2.14h6.59v-2.14ZM162.6,185v-2.26H156V185ZM174.91,202v8.66h-4.37V202h-4c-.42,2.9-1.81,7-5.38,9.41a18.93,18.93,0,0,0-3.19-2.85,9.82,9.82,0,0,0,4.28-6.56H158V197.9h4.41v-3.15h-3.82V190.8h20.29v3.95h-4v3.15h4.62V202Zm-4.37-4.07v-3.15h-3.91v3.15Zm16,7.69c0,2.56-.47,3.94-2,4.74s-3.7,1-6.89,1a17.85,17.85,0,0,0-1.51-5c1.89.09,4,.09,4.58,0s.88-.25.88-.84v-16.8H170.08v-15h16.47Zm-11.72-28.23v2.14h6.8v-2.14Zm6.8,7.77v-2.35h-6.8v2.35Z"/><path class="cls-9" d="M225.48,206.43c.67,0,.84-.55.92-4.5a12,12,0,0,0,4.29,1.89c-.46,5.63-1.68,7.18-4.62,7.18h-2.82c-3.82,0-4.62-1.51-4.62-5.83v-8.41h-2c-.63,6.64-2.14,11.85-8.95,14.92a14,14,0,0,0-2.48-3.53v1H197v1.77h-4.28V196.39h12.47v11.25c5.17-2.26,6.13-6,6.55-10.88h-2.73V185.38c-.46.5-1,1-1.42,1.39a31.21,31.21,0,0,0-3.53-3.57l.17-.13H191.12v-3.95h6.3a37.46,37.46,0,0,0-2-5.29l4.2-1.3a29.61,29.61,0,0,1,2.31,5.42l-3.23,1.17h7.39v2.31a28.84,28.84,0,0,0,6-8.69l4.62,1.42a43.17,43.17,0,0,1-5.84,9.25h14.41a78.16,78.16,0,0,0-6.89-8.74l3.48-2.35c3.2,3.36,7.19,8,8.91,11.13L227,186.22a16.38,16.38,0,0,0-.84-1.47v12h-2.65v8.32c0,1.22.09,1.35.68,1.35Zm-20.79-17.69H192.84V185h11.85Zm-11.85,1.85h11.85v3.78H192.84Zm8.27,9.79H197v4.7h4.07Zm12.65-7.94h7.39v-4.66h-7.39Z"/><path class="cls-9" d="M239.33,200.12v3.62h-4.62V174.46h14.66v25.66Zm0-21.13v5.93h5.42V179Zm5.42,16.6v-6.22h-5.42v6.22Zm26.43,10.08c0,2.65-.55,4-2.19,4.79s-4.07.92-7.56.92a17.34,17.34,0,0,0-1.76-4.83c2.26.13,4.83.09,5.54,0s1-.25,1-1v-7.4h-9.87c-1.05,5.05-3.32,10-8,13.49a18.42,18.42,0,0,0-3.73-3.32c7-5.21,7.68-13,7.68-19.41V173.87h18.91Zm-5-11.93v-5.38h-9V189a45.81,45.81,0,0,1-.21,4.75Zm-9-15.25v5.38h9v-5.38Z"/><path class="cls-9" d="M297,187.1v1.47h13.45v3H297v1.51h16.51v3.49H275.87v-3.49h16.18V191.6H278.81v-3h13.24V187.1H279.74v-2.9h12.31v-1.59H275.92v-3.45h16.13v-1.55H280.2v-2.9h11.85v-2.65h5v2.65h11.73v4.45h4.78v3.45h-4.78v4.49Zm-15.92,10.8H309v13.61h-5.05v-1.22H286v1.26h-4.84Zm4.84,3.19v1.51h18v-1.51Zm18,6V205.5H286v1.64Zm-6.89-28h6.77v-1.55H297Zm0,5h6.77v-1.59H297Z"/><polygon class="cls-9" points="220.43 252.49 212.91 260.01 212.91 240.27 208.55 240.27 208.55 260.01 201.03 252.49 197.95 255.57 210.73 268.35 210.73 268.35 210.73 268.35 223.51 255.57 220.43 252.49"/><rect class="cls-9" x="201.18" y="272.83" width="19.11" height="2.22"/><g class="cls-10"><g class="cls-11"><polygon class="cls-12" points="181.79 570.39 60.12 448.73 60.12 301.04 357.05 301.04 357.05 489.78 263.97 489.78 181.79 570.39"/><path class="cls-13" d="M168.65,600.09,0,431.44l13.32-13.32,35.17,35.17V301H67.32V472.13L181.66,586.46l.13-.13,13.13,13.51Z"/><polygon class="cls-14" points="273.82 520.93 194.92 599.84 181.79 586.33 266.02 502.1 290.06 502.1 274.17 520.93 273.82 520.93"/><polygon class="cls-15" points="347.2 521.7 347.2 572.78 287.08 572.78 287.08 520.93 274.17 520.93 290.06 502.1 305.92 502.1 305.92 553.95 328.37 553.95 328.37 502.86 380.19 502.86 380.19 521.7 347.2 521.7"/></g></g></g></g></g></svg>