<svg xmlns="http://www.w3.org/2000/svg" xmlns:xlink="http://www.w3.org/1999/xlink" viewBox="0 0 714.06 104.34"><defs><style>.cls-1{isolation:isolate;}.cls-2{fill:#0064c3;}.cls-3{fill:#fff;}.cls-10,.cls-12,.cls-14,.cls-4,.cls-6,.cls-8{mix-blend-mode:screen;}.cls-4{fill:url(#未命名漸層_209);}.cls-11,.cls-13,.cls-15,.cls-5,.cls-7,.cls-9{mix-blend-mode:color-dodge;}.cls-5{fill:url(#未命名漸層_204);}.cls-6{fill:url(#未命名漸層_219);}.cls-7{fill:url(#未命名漸層_215);}.cls-8{fill:url(#未命名漸層_201);}.cls-9{fill:url(#未命名漸層_213);}.cls-10{fill:url(#未命名漸層_209-2);}.cls-11{fill:url(#未命名漸層_204-2);}.cls-12{fill:url(#未命名漸層_219-2);}.cls-13{fill:url(#未命名漸層_215-2);}.cls-14{fill:url(#未命名漸層_201-2);}.cls-15{fill:url(#未命名漸層_213-2);}</style><radialGradient id="未命名漸層_209" cx="119.38" cy="52.17" r="52.17" gradientUnits="userSpaceOnUse"><stop offset="0" stop-color="#fff"/><stop offset="0" stop-color="#fff" stop-opacity="0.96"/><stop offset="0.02" stop-color="#fff" stop-opacity="0.76"/><stop offset="0.04" stop-color="#fff" stop-opacity="0.58"/><stop offset="0.05" stop-color="#fff" stop-opacity="0.43"/><stop offset="0.07" stop-color="#fff" stop-opacity="0.31"/><stop offset="0.09" stop-color="#fff" stop-opacity="0.22"/><stop offset="0.11" stop-color="#fff" stop-opacity="0.15"/><stop offset="0.13" stop-color="#fff" stop-opacity="0.11"/><stop offset="0.16" stop-color="#fff" stop-opacity="0.1"/><stop offset="0.23" stop-color="#fff" stop-opacity="0.03"/><stop offset="0.25" stop-color="#fff" stop-opacity="0"/><stop offset="0.33" stop-color="#fff" stop-opacity="0"/><stop offset="0.99" stop-color="#fff" stop-opacity="0"/></radialGradient><radialGradient id="未命名漸層_204" cx="119.38" cy="52.17" r="32.97" gradientUnits="userSpaceOnUse"><stop offset="0.05" stop-color="#fff"/><stop offset="0.06" stop-color="#fff" stop-opacity="0.96"/><stop offset="0.09" stop-color="#fff" stop-opacity="0.78"/><stop offset="0.14" stop-color="#fff" stop-opacity="0.61"/><stop offset="0.18" stop-color="#fff" stop-opacity="0.47"/><stop offset="0.23" stop-color="#fff" stop-opacity="0.34"/><stop offset="0.29" stop-color="#fff" stop-opacity="0.23"/><stop offset="0.35" stop-color="#fff" stop-opacity="0.15"/><stop offset="0.42" stop-color="#fff" stop-opacity="0.08"/><stop offset="0.51" stop-color="#fff" stop-opacity="0.03"/><stop offset="0.64" stop-color="#fff" stop-opacity="0.01"/><stop offset="0.99" stop-color="#fff" stop-opacity="0"/></radialGradient><radialGradient id="未命名漸層_219" cx="-134.79" cy="-3977.56" r="65.99" gradientTransform="translate(360.57 1250.37) scale(1.8 0.3)" gradientUnits="userSpaceOnUse"><stop offset="0" stop-color="#fff"/><stop offset="0.01" stop-color="#fff" stop-opacity="0.88"/><stop offset="0.02" stop-color="#fff" stop-opacity="0.72"/><stop offset="0.03" stop-color="#fff" stop-opacity="0.57"/><stop offset="0.05" stop-color="#fff" stop-opacity="0.44"/><stop offset="0.06" stop-color="#fff" stop-opacity="0.33"/><stop offset="0.08" stop-color="#fff" stop-opacity="0.25"/><stop offset="0.1" stop-color="#fff" stop-opacity="0.18"/><stop offset="0.12" stop-color="#fff" stop-opacity="0.13"/><stop offset="0.16" stop-color="#fff" stop-opacity="0.11"/><stop offset="0.26" stop-color="#fff" stop-opacity="0.1"/><stop offset="0.3" stop-color="#fff" stop-opacity="0.03"/><stop offset="0.31" stop-color="#fff" stop-opacity="0"/><stop offset="0.38" stop-color="#fff" stop-opacity="0"/><stop offset="0.99" stop-color="#fff" stop-opacity="0"/></radialGradient><radialGradient id="未命名漸層_215" cx="-134.79" cy="-3977.56" r="41.71" gradientTransform="translate(360.57 1250.37) scale(1.8 0.3)" gradientUnits="userSpaceOnUse"><stop offset="0.05" stop-color="#fff"/><stop offset="0.06" stop-color="#fff" stop-opacity="0.97"/><stop offset="0.07" stop-color="#fff" stop-opacity="0.88"/><stop offset="0.08" stop-color="#fff" stop-opacity="0.75"/><stop offset="0.1" stop-color="#fff" stop-opacity="0.56"/><stop offset="0.12" stop-color="#fff" stop-opacity="0.31"/><stop offset="0.13" stop-color="#fff" stop-opacity="0.1"/><stop offset="0.27" stop-color="#fff" stop-opacity="0.03"/><stop offset="0.31" stop-color="#fff" stop-opacity="0"/><stop offset="0.38" stop-color="#fff" stop-opacity="0"/><stop offset="0.99" stop-color="#fff" stop-opacity="0"/></radialGradient><radialGradient id="未命名漸層_201" cx="-134.79" cy="-25593.82" r="65.99" gradientTransform="translate(360.57 1675.37) scale(1.8 0.06)" gradientUnits="userSpaceOnUse"><stop offset="0.05" stop-color="#fff"/><stop offset="0.07" stop-color="#fff" stop-opacity="0.97"/><stop offset="0.1" stop-color="#fff" stop-opacity="0.88"/><stop offset="0.13" stop-color="#fff" stop-opacity="0.75"/><stop offset="0.18" stop-color="#fff" stop-opacity="0.56"/><stop offset="0.22" stop-color="#fff" stop-opacity="0.31"/><stop offset="0.26" stop-color="#fff" stop-opacity="0.1"/><stop offset="0.31" stop-color="#fff" stop-opacity="0.1"/><stop offset="0.48" stop-color="#fff" stop-opacity="0.05"/><stop offset="0.7" stop-color="#fff" stop-opacity="0.01"/><stop offset="0.99" stop-color="#fff" stop-opacity="0"/></radialGradient><radialGradient id="未命名漸層_213" cx="-134.79" cy="-25593.82" r="41.71" gradientTransform="translate(360.57 1675.37) scale(1.8 0.06)" gradientUnits="userSpaceOnUse"><stop offset="0.05" stop-color="#fff"/><stop offset="0.05" stop-color="#fff" stop-opacity="0.88"/><stop offset="0.06" stop-color="#fff" stop-opacity="0.72"/><stop offset="0.06" stop-color="#fff" stop-opacity="0.57"/><stop offset="0.07" stop-color="#fff" stop-opacity="0.44"/><stop offset="0.08" stop-color="#fff" stop-opacity="0.33"/><stop offset="0.09" stop-color="#fff" stop-opacity="0.25"/><stop offset="0.09" stop-color="#fff" stop-opacity="0.18"/><stop offset="0.11" stop-color="#fff" stop-opacity="0.13"/><stop offset="0.12" stop-color="#fff" stop-opacity="0.11"/><stop offset="0.17" stop-color="#fff" stop-opacity="0.1"/><stop offset="0.28" stop-color="#fff" stop-opacity="0.03"/><stop offset="0.31" stop-color="#fff" stop-opacity="0"/><stop offset="0.38" stop-color="#fff" stop-opacity="0"/><stop offset="0.99" stop-color="#fff" stop-opacity="0"/></radialGradient><radialGradient id="未命名漸層_209-2" cx="596.42" cy="52.17" r="52.17" xlink:href="#未命名漸層_209"/><radialGradient id="未命名漸層_204-2" cx="596.42" cy="52.17" r="32.97" xlink:href="#未命名漸層_204"/><radialGradient id="未命名漸層_219-2" cx="130.85" cy="-3977.56" r="65.99" xlink:href="#未命名漸層_219"/><radialGradient id="未命名漸層_215-2" cx="130.85" cy="-3977.56" r="41.71" xlink:href="#未命名漸層_215"/><radialGradient id="未命名漸層_201-2" cx="130.85" cy="-25593.82" r="65.99" xlink:href="#未命名漸層_201"/><radialGradient id="未命名漸層_213-2" cx="130.85" cy="-25593.82" r="41.71" xlink:href="#未命名漸層_213"/></defs><g class="cls-1"><g id="圖層_2" data-name="圖層 2"><g id="內頁"><rect class="cls-2" x="67.43" y="19.48" width="576.33" height="59.82" rx="28.27"/><g id="_2050年風能_太陽能為主要供電來源" data-name=" 2050年風能 太陽能為主要供電來源" class="cls-1"><g class="cls-1"><path class="cls-3" d="M154.64,55.91V66.74c0,2.63-.5,4-2,4.73s-3.68,1-6.86,1a18.59,18.59,0,0,0-1.55-4.92c1.82,0,3.68,0,4.27,0s.87-.23.87-.86V57.32l-4.59,1.19-1.41-5.19c1.72-.36,3.77-.82,6-1.32V44h-5.41V39h5.41V30.36h5.32V39h4.77v5h-4.77v6.69l3.32-.82.68,5Zm28.78-4.63a29.31,29.31,0,0,1-7.82,13.14,38.55,38.55,0,0,0,10.5,3.45,25.17,25.17,0,0,0-3.41,5A37.12,37.12,0,0,1,171,68a43.9,43.9,0,0,1-12.41,4.87,21.46,21.46,0,0,0-2.59-5,37,37,0,0,0,10.5-3.45,33.45,33.45,0,0,1-6.32-8.78l1.68-.59h-2.59V50H179l.95-.22Zm-22.73-1.87a20.53,20.53,0,0,0-3.6-3.86c5.37-2.46,6-5.73,6-8.87V31.81h16v9.92c0,1.32.09,1.86.82,1.86h2.41a10.63,10.63,0,0,0,2.54-.32c.09,1.37.23,3.23.41,4.46a7.66,7.66,0,0,1-2.86.36h-3.05c-4.46,0-5.41-1.91-5.41-6.45V36.82l-5.87,0C168.14,41.41,166.82,46.46,160.69,49.41Zm4.77,5.64A21.61,21.61,0,0,0,171,61.42a22.22,22.22,0,0,0,5.27-6.37Z"/><path class="cls-3" d="M217.94,38.45c2.45,2.41,7.27,3.55,13.41,3.87a17.52,17.52,0,0,0-3,4.32c-5.09-.64-9-2.09-11.91-4.59-1.73,2-5.51,3.77-13.15,4.63a15.37,15.37,0,0,0-1.81-3h-12V39.59h13.73v2.77c8.68-.91,9.82-3,9.82-4.63V37h-2.73A19.4,19.4,0,0,1,207.07,41a27.46,27.46,0,0,0-4-2.77,18.33,18.33,0,0,0,5.32-8.09l4.73,1c-.23.68-.5,1.37-.78,2h12.92l.82-.22L229.76,34a40.13,40.13,0,0,1-4.18,7.19l-4.19-1.55A26.64,26.64,0,0,0,223,37h-5v1.41Zm1.22,26.74c4.19,1.55,8.64,3.37,11.33,4.68l-4.87,2.91a84.11,84.11,0,0,0-11.82-5.36l2.77-2.23H203.75l4,1.82a59.15,59.15,0,0,1-14.19,5.91,36.53,36.53,0,0,0-4-4,51.54,51.54,0,0,0,12.41-3.77h-6.55V46.73H225.8V65.19Zm-17-28.65H190.47V32.59h11.64Zm-1.5,15.37H220.3V50H200.61Zm0,5H220.3V55H200.61Zm0,5.1H220.3V60H200.61Z"/><path class="cls-3" d="M237.13,35.18h11.73c7,0,12.64,2.5,12.64,10.23,0,5.05-2.55,8.19-6.41,9.69L263,68.87h-7.5l-6.91-12.73h-4.68V68.87h-6.73Zm11.09,15.64c4.32,0,6.73-1.82,6.73-5.41s-2.41-4.86-6.73-4.86h-4.36V50.82Z"/><path class="cls-3" d="M268.14,35.18h20.64v5.64H274.87v7.77h11.82v5.64H274.87v9h14.41v5.63H268.14Z"/><path class="cls-3" d="M296.1,35.18h6.73V68.87H296.1Z"/><path class="cls-3" d="M317.79,40.82h-9.45V35.18h25.73v5.64h-9.55V68.87h-6.73Z"/><path class="cls-3" d="M333.53,65.92l3.05-4.19a11,11,0,0,0,6.82,2.78c2.54,0,3.68-1.09,3.68-2.68,0-1.91-2.64-2.78-5.32-3.82-3.23-1.23-6.82-3.19-6.82-7.46,0-4.55,3.68-7.78,9.5-7.78a14.11,14.11,0,0,1,8.64,3.14l-3,4.05a9.46,9.46,0,0,0-5.46-2.18c-2.31,0-3.41,1-3.41,2.45,0,1.86,2.37,2.55,5.05,3.55,3.37,1.27,7.1,2.95,7.1,7.68,0,4.46-3.51,8.05-10.15,8.05A16.15,16.15,0,0,1,333.53,65.92Z"/><path class="cls-3" d="M397.69,37.36s0,1.82-.05,2.46c-.59,20.32-1.09,27.55-2.95,30a6,6,0,0,1-4.37,2.5,50.5,50.5,0,0,1-7.14.1,12.62,12.62,0,0,0-1.77-5.28c2.91.27,5.59.27,6.78.27a2.42,2.42,0,0,0,2-.77c1.32-1.45,1.91-8.28,2.41-24.33h-9.73a40.45,40.45,0,0,1-4,7.19,34.53,34.53,0,0,0-3.51-2.55V68.15H363.22v3.32h-4.91V37.68h5.14a48.53,48.53,0,0,0,1.32-7.32l5.91.82c-.77,2.27-1.59,4.55-2.36,6.5h7v7.37a47,47,0,0,0,6.14-14.64l5.19,1.18c-.5,1.95-1.1,3.86-1.78,5.77Zm-27.24,5h-7.23v7.37h7.23Zm0,21V54.46h-7.23v8.91Zm15.1-2.45a96.4,96.4,0,0,0-6.32-10.51L383.46,48a110.46,110.46,0,0,1,6.68,10.1Z"/><path class="cls-3" d="M401.76,64.09l3.74-5.17c2.31,2.25,5.17,4.12,9,4.12,4.24,0,7.21-2.47,7.21-6.92s-2.75-6.88-6.88-6.88c-2.42,0-3.74.61-6.1,2.15L405,49l1.1-19.8h21.78V36H413.09l-.77,8.63a11.44,11.44,0,0,1,4.89-1.1c6.82,0,12.54,3.85,12.54,12.32,0,8.74-6.71,13.8-14.24,13.8A18.55,18.55,0,0,1,401.76,64.09Z"/><path class="cls-3" d="M459.64,48.14c3,8.87,8.51,16,17,19.46a21.94,21.94,0,0,0-4,5.09c-8.23-3.86-13.51-10.5-17-19.28a31.31,31.31,0,0,1-17,19.33,15.91,15.91,0,0,0-4-4.59c10.42-4.64,14.74-12.19,16.51-20H435.41V42.55H452c.45-4.28.41-8.42.45-12.14h5.91c0,3.72-.09,7.91-.54,12.14h17.87v5.59Z"/><path class="cls-3" d="M492.75,31.91a80.15,80.15,0,0,1-3.09,8.27v32.6h-5.14V49.91a48.09,48.09,0,0,1-2.87,3.87A44.28,44.28,0,0,0,479.06,48c3.55-4.28,6.82-10.87,8.73-17.55Zm29.37,23.46H518a23.92,23.92,0,0,1,2,2.36L517,59.55a30,30,0,0,0-2.5-3.18c-.46,1.91-1.55,2.5-3.91,2.5h-4c-.37.45-.78.91-1.19,1.36h9.23l.91-.18,3.23,1.82a17.84,17.84,0,0,1-6.41,5.64,74.37,74.37,0,0,0,9.69,1.32,18.72,18.72,0,0,0-2.6,4,58.26,58.26,0,0,1-12.91-2.68A73.64,73.64,0,0,1,493.34,73a17.32,17.32,0,0,0-2.59-3.91,80.81,80.81,0,0,0,10.14-1.59c-.91-.55-1.78-1.09-2.59-1.68-1.19.68-2.46,1.36-3.87,2a12.62,12.62,0,0,0-2.91-3,35.77,35.77,0,0,0,3.73-1.68,15.48,15.48,0,0,1-1.59-1.91l3.91-1.37c.32.41.68.82,1,1.23a21,21,0,0,0,3.1-2.73,2.69,2.69,0,0,1-1.37-2.5,15.54,15.54,0,0,1-3.55,3.64l-3-2.32A11.26,11.26,0,0,0,496,55.37H491.7V48.91h4.14V37.64h7.5a15.09,15.09,0,0,0,.32-1.6H493.07V32.18h28.14V36h-12l-.68,1.6h9.73V48.91h3.82Zm-6.91-2.78c.68.64,1.41,1.28,2.09,2V52h-8.73A20.4,20.4,0,0,1,511,54.19L508,56a24.44,24.44,0,0,0-3.46-3.27l1.36-.73h-9.64v3.09a17,17,0,0,0,1.91-2.32l2.1,1.09v-.91h4.22V55c0,.91.28,1,1.5,1h4c.91,0,1.13-.23,1.27-1.55a11,11,0,0,0,2.14.77c-.32-.36-.69-.68-1-1ZM500.66,40.27v1.37h12.59V40.27Zm12.59,3.55H500.66v1.45h12.59Zm-12.59,5.09h12.59V47.46H500.66Zm5.91,16.87a18.21,18.21,0,0,0,4.59-2.32l-9.36,0A20.06,20.06,0,0,0,506.57,65.78Z"/><path class="cls-3" d="M563.77,35.27c-.09,9.41-.18,17.28,1.05,17.28.5,0,.64-2.23.68-5.23a21.25,21.25,0,0,0,2.91,3.09c-.36,4.6-1.13,6.82-4,6.82-4.68,0-5.27-7.59-5.41-17.64h-3.09a40.65,40.65,0,0,1-.87,5.73c1.69,1,3.19,1.91,4.28,2.64l-2.27,3.82c-.87-.64-2-1.41-3.37-2.23a14.75,14.75,0,0,1-5.5,6.68,12,12,0,0,0-2.59-3.13v2.18c-7.05.5-14.33.95-19.56,1.32l-.27-3.78,7.87-.36V50.32h-6.1V47.14h6.1v-2h4.45c-.72-.68-.91-1.82-.91-3.37v-.91h-2.41c-1,3.14-3.45,5.1-7.27,6.19a14.57,14.57,0,0,0-2-3.14c2.59-.55,4.55-1.36,5.27-3H526V37.45h7.6V35.82h-6.14V32.63h6.14V30.36h4.91v2.27h6.32v3.19h-6.32v1.63h7.91v3.41h-5.32v1c0,.77.09,1.09.68,1.09h1.55a10.43,10.43,0,0,0,2.32-.23c0,1,.09,2,.22,3a9.43,9.43,0,0,1-2.45.27h-2.73a4.17,4.17,0,0,1-2.18-.45v1.68h6.36v3.18h-6.36v1.87l7.05-.41v.81a12,12,0,0,0,4.18-5.41c-1.27-.77-2.46-1.5-3.55-2.13l2.28-3.37L551,43c.18-1,.32-2.18.41-3.41h-4.05V35.27h4.28c0-1.55.09-3.14.09-5h4.59c0,1.73,0,3.32-.13,5Zm.1,23.33s-.14,1.41-.28,2c-.63,6.23-1.45,9.28-2.73,10.51a5.69,5.69,0,0,1-4,1.54c-1.41.14-3.86.14-6.45.09a11.1,11.1,0,0,0-1.6-4.86c2.32.23,4.78.27,5.73.27a2.47,2.47,0,0,0,1.82-.45c.64-.5,1.14-2,1.5-5H547.45c-2.09,5.32-6.78,8.55-18.78,10.23a15.87,15.87,0,0,0-2.41-4.41c9.23-1,13.32-2.82,15.28-5.82H528.9V58.6H543c.14-.73.28-1.46.37-2.28h5.5c-.09.82-.23,1.55-.27,2.28Z"/></g></g></g><g id="KV"><path class="cls-4" d="M171.55,52.17A52.17,52.17,0,1,1,119.38,0,52.17,52.17,0,0,1,171.55,52.17Z"/><path class="cls-5" d="M152.35,52.17a33,33,0,1,1-33-33A33,33,0,0,1,152.35,52.17Z"/><path class="cls-6" d="M237,52.72c0,11-53.06,19.87-118.52,19.87S0,63.7,0,52.72,53.06,32.86,118.51,32.86,237,41.75,237,52.72Z"/><path class="cls-7" d="M193.42,52.72c0,6.94-33.54,12.56-74.91,12.56s-74.9-5.62-74.9-12.56,33.53-12.55,74.9-12.55S193.42,45.79,193.42,52.72Z"/><path class="cls-8" d="M237,52.72C237,55,184,56.91,118.51,56.91S0,55,0,52.72s53.06-4.18,118.51-4.18S237,50.41,237,52.72Z"/><path class="cls-9" d="M193.42,52.72c0,1.46-33.54,2.65-74.91,2.65s-74.9-1.19-74.9-2.65,33.53-2.64,74.9-2.64S193.42,51.26,193.42,52.72Z"/><path class="cls-10" d="M648.59,52.17A52.17,52.17,0,1,1,596.42,0,52.17,52.17,0,0,1,648.59,52.17Z"/><path class="cls-11" d="M629.39,52.17a33,33,0,1,1-33-33A33,33,0,0,1,629.39,52.17Z"/><path class="cls-12" d="M714.06,52.72c0,11-53,19.87-118.51,19.87S477,63.7,477,52.72,530.1,32.86,595.55,32.86,714.06,41.75,714.06,52.72Z"/><path class="cls-13" d="M670.46,52.72c0,6.94-33.54,12.56-74.91,12.56s-74.9-5.62-74.9-12.56,33.53-12.55,74.9-12.55S670.46,45.79,670.46,52.72Z"/><path class="cls-14" d="M714.06,52.72c0,2.32-53,4.19-118.51,4.19S477,55,477,52.72s53.06-4.18,118.51-4.18S714.06,50.41,714.06,52.72Z"/><path class="cls-15" d="M670.46,52.72c0,1.46-33.54,2.65-74.91,2.65s-74.9-1.19-74.9-2.65,33.53-2.64,74.9-2.64S670.46,51.26,670.46,52.72Z"/></g></g></g></svg>