<svg xmlns="http://www.w3.org/2000/svg" viewBox="0 0 191.7 48.37"><defs><style>.cls-1,.cls-2{fill:none;stroke:#83ffff;stroke-miterlimit:10;}.cls-1{stroke-width:1.55px;}.cls-2{stroke-width:1.28px;}</style></defs><g id="圖層_2" data-name="圖層 2"><g id="nav"><polyline class="cls-1" points="18.72 47.59 24.2 47.59 24.2 7.03 44.84 16.57 48.49 16.64 48.49 47.59 57.11 47.59"/><polyline class="cls-1" points="35.7 47.59 35.7 0.77 65.81 0.77 65.81 47.59 81.31 47.59"/><polyline class="cls-1" points="41.52 47.59 29.95 47.59 29.95 22.16 20.2 22.16 7.14 33.16 7.14 47.59 0 47.59"/><polyline class="cls-1" points="60.32 48.18 60.32 34.88 77.61 28.05 94.89 34.88 94.89 47.59 103.7 47.59"/><polyline class="cls-1" points="70.15 47.59 70.15 8.6 79.96 7.52 87.94 9 87.94 47.59 92.18 47.59"/><line class="cls-1" x1="62.7" y1="4.38" x2="55.75" y2="4.38"/><line class="cls-1" x1="62.7" y1="7.52" x2="55.75" y2="7.52"/><line class="cls-1" x1="62.7" y1="10.67" x2="55.75" y2="10.67"/><line class="cls-1" x1="62.7" y1="13.81" x2="55.75" y2="13.81"/><line class="cls-1" x1="62.7" y1="16.95" x2="55.75" y2="16.95"/><line class="cls-1" x1="62.7" y1="20.09" x2="55.75" y2="20.09"/><line class="cls-1" x1="62.7" y1="23.24" x2="55.75" y2="23.24"/><line class="cls-2" x1="103.7" y1="47.59" x2="191.7" y2="47.59"/></g></g></svg>