<svg xmlns="http://www.w3.org/2000/svg" xmlns:xlink="http://www.w3.org/1999/xlink" viewBox="0 0 1183.62 93.95"><defs><style>.cls-1{fill:url(#未命名漸層_17);}.cls-2{fill:url(#未命名漸層_17-2);}.cls-3{fill:#fff;}</style><linearGradient id="未命名漸層_17" x1="-10.8" y1="69.55" x2="261.89" y2="50.71" gradientUnits="userSpaceOnUse"><stop offset="0" stop-color="#1b1464" stop-opacity="0"/><stop offset="0.24" stop-color="#1b1464" stop-opacity="0.03"/><stop offset="0.43" stop-color="#1b1464" stop-opacity="0.13"/><stop offset="0.61" stop-color="#1b1464" stop-opacity="0.3"/><stop offset="0.77" stop-color="#1b1464" stop-opacity="0.53"/><stop offset="0.93" stop-color="#1b1464" stop-opacity="0.83"/><stop offset="1" stop-color="#1b1464"/></linearGradient><linearGradient id="未命名漸層_17-2" x1="1113.02" y1="61.29" x2="926.79" y2="49.46" xlink:href="#未命名漸層_17"/></defs><g id="圖層_2" data-name="圖層 2"><g id="slogan"><polygon class="cls-1" points="598.98 54.08 0 93.95 81.78 36.49 615.15 3.83 598.98 54.08"/><polygon class="cls-2" points="1104.83 54.19 535.29 90.38 551.8 40.15 1183.62 0 1104.83 54.19"/><path class="cls-3" d="M246,68.86l-4.51.28.29-1.18L218.43,69.4l-.28,1.17-4.52.28,3.94-16.13,32.33-2Zm-4.63-37.18-.48,2,15.85-1-1.93,7.91-4.51.28.92-3.79-27.36,1.69-.92,3.79-4.52.28,1.94-7.92L236,34l.49-2ZM228.78,64.9l.42-1.69-9.4.58-.41,1.69Zm1.37-5.6.36-1.48-9.4.58-.35,1.48Zm18.73-16.09-2.13,8.72L221,53.51l2.13-8.72Zm1.36-4.94-1,4-26,1.61,1-4Zm-7.12,10.31.36-1.47-16.68,1-.36,1.47ZM242.69,64l.41-1.68-9.56.59-.41,1.68Zm-8.19-5,9.56-.59.36-1.48-9.56.59Z"/><path class="cls-3" d="M280.12,35.93q-3.54,1-7.29,1.82l-1.07,4.38,6-.37-1.16,4.76-6,.36c-.39,1.44-.81,2.83-1.29,4.15l7.53-.46-1.16,4.75-8.36.52c-.56,1.11-1.14,2.15-1.7,3.13a41.18,41.18,0,0,1-6.83,8.93L255.49,65a38.49,38.49,0,0,0,6.65-8.87l-6.16.38,1.16-4.76,7.24-.45a38.8,38.8,0,0,0,1.38-4.15l-5.84.36,1.16-4.75,5.84-.37.88-3.62c-1.88.37-3.76.73-5.67,1l-.4-4.21c2.45-.36,4.84-.8,7.16-1.27L270,29.75l4.84-.3-.93,3.83c1.73-.4,3.42-.83,5.09-1.31Zm10.74,6.47a16.39,16.39,0,0,1,1.94,4.73,13.28,13.28,0,0,1-.08,5.69c-1.38,5.31-4.12,8-8.26,8.31a17.53,17.53,0,0,1-3.73-.27l.15-4.61-2.59,10.61-4.68.29,9.11-37.36,15.69-1Zm-5.23,13.93c.82,0,1.53-1.09,2.08-3.2a8.78,8.78,0,0,0,0-4.11,10.62,10.62,0,0,0-2.36-4.66l5.3-10.54-4.39.27-5.23,21.44A11.48,11.48,0,0,0,285.63,56.33Z"/><path class="cls-3" d="M322.62,26.83a32.41,32.41,0,0,0,15.12,11.06l-3.64,5.24a25.64,25.64,0,0,1-4.17-1.82l-.67,2.78-9.73.6-1.24,5.1,10.84-.67L328,53.71l-10.84.67-1.26,5.14,14.9-.92-1.12,4.59-34.31,2.12,1.12-4.59,14.57-.9,1.25-5.14-10,.62,1.12-4.59,10-.62,1.24-5.1-9.68.6.5-2.06c-1.49.75-2.87,1.42-4.15,1.95l-1.61-4.58a73.38,73.38,0,0,0,10.63-5.47c1.91-1.16,3.7-2.3,5.38-3.49l-5.14.32,1.16-4.76Zm4.57,12.87a33.8,33.8,0,0,1-6.81-5.84c-2.29,1.84-4.81,3.65-7.53,5.44-.87.55-1.63,1-2.34,1.43Z"/><path class="cls-3" d="M357.52,26.63l-1.12,4.59-4.34.26-1.89,7.75,4.06-.25-1.12,4.59-4.06.25-2.27,9.31c1.44-.38,2.79-.75,4.11-1.12l-.63,4.39c-4.34,1.43-9,2.71-14,3.94l.41-4.88c1.8-.36,3.53-.76,5.22-1.15l2.48-10.2-4.05.25,1.11-4.59,4.06-.25,1.89-7.75-4.22.26,1.12-4.59Zm8.23,2.89,1.36-5.6,4.68-.29-1.36,5.6,3.89-.24A11.87,11.87,0,0,0,373,26l4.49-2.72a14,14,0,0,1,1.48,3.81l-3.18,1.81,4.06-.25-1.12,4.59-9.39.58L368,39.21a19,19,0,0,0,.64,2.74,67.48,67.48,0,0,0,5.4-7.09l3.79,2a62.67,62.67,0,0,1-7.64,9.6,14.38,14.38,0,0,0,4.65,6l-3.61,4.91a16.14,16.14,0,0,1-4.05-5.6,16.15,16.15,0,0,1-1.37-3.61L364,55.55a10.85,10.85,0,0,1-2.1,4.74A7.08,7.08,0,0,1,357.34,62a22.79,22.79,0,0,1-3.93-.09l.33-4.71a17,17,0,0,0,4.11.21,1.36,1.36,0,0,0,1-.57,11.08,11.08,0,0,0,.72-2.12l1-4.25a83,83,0,0,1-8.43,5.83l-.54-5a96.84,96.84,0,0,0,10.47-7l2.49-10.19-8.57.53,1.12-4.59ZM362,42.4l-4.65,2.7a18.89,18.89,0,0,0-2.16-6.18l4.69-2.86A23.78,23.78,0,0,1,362,42.4Z"/><path class="cls-3" d="M408.27,23c-.92,7.45-.81,13.87.42,19.18a21.51,21.51,0,0,0,6.61,11.5l-4.89,5c-3.36-3.11-5.61-7.45-6.67-13.11a49.73,49.73,0,0,1-1-8.4,89.85,89.85,0,0,1-8.8,11.66,69.84,69.84,0,0,1-14.57,11.77l-1.53-4.92a69.62,69.62,0,0,0,14-11.28A97.79,97.79,0,0,0,403,29.05a8.42,8.42,0,0,1,.08-1l-11.46.7,1.17-4.8Z"/><path class="cls-3" d="M427.83,47.26a71.32,71.32,0,0,1-5.23,9.07l-4-2.2a70,70,0,0,0,4.9-8.23ZM445.14,20.1c-.45.81-.91,1.55-1.36,2.2l15.36-.95L453.81,43.2,441.27,44a18.41,18.41,0,0,1,1.93,4.28L438.38,51a14.93,14.93,0,0,0-2.31-4.88l3.25-2L425.21,45l5.33-21.86,7.94-.49a33.26,33.26,0,0,0,1.77-3.38Zm-11.4,25.17-1.29,5.27c-.27,1.09.43,1.59,2.07,1.53A26.63,26.63,0,0,0,437.6,52a33.2,33.2,0,0,0,5.43-.54,2.56,2.56,0,0,0,1.42-1.12,13,13,0,0,0,1.15-2.73l4,2.49c-1,2.59-2,4.28-3.22,5a14.15,14.15,0,0,1-3.06.86c-.86.17-3.12.4-6.84.63-1.74.1-3.25.11-4.59.07-3.74.15-5.24-1.25-4.52-4.2l1.69-6.91Zm16.47-6.2.44-1.81L431.4,38.45,431,40.26Zm1.45-5.94.36-1.47-19.25,1.19-.36,1.47Zm1.37-5.6.35-1.47-19.24,1.19-.36,1.47Zm3.57,23.3-5.4,3.07A24.93,24.93,0,0,0,449,46.74l5-3.05A26.17,26.17,0,0,1,456.6,50.83Z"/><path class="cls-3" d="M504.34,17.56l-1.16,4.76-13.95.86c-.85,1.13-1.74,2.27-2.71,3.4l-6.75,27.67-5,.31,5-20.42a2.7,2.7,0,0,0-.5.53,111.28,111.28,0,0,1-14.44,12.38l-2.64-3.53a95.07,95.07,0,0,0,13.7-11.38c3.18-3.19,5.85-6.09,8-8.63l-15.9,1,1.16-4.76Zm-4.79,23.65-5.26,4.52a80.77,80.77,0,0,0-7.53-14.1l5.11-3.43A72.64,72.64,0,0,1,499.55,41.21Z"/><path class="cls-3" d="M530.38,17.24c-2.73.5-5.54,1-8.46,1.43l-.46,1.9,8.23-.51-1,4.09-8.24.5-.25,1,7.74-.47-3.49,14.32-7.74.47-.32,1.31,7-.43-1,4-6.95.43-.33,1.35c2.51-.28,4.78-.55,6.88-.8l-.11,1.46a34.35,34.35,0,0,0,6-8.26,66.68,66.68,0,0,0,5-13.5l-3.8.24,1.07-4.43,3.85-.23,1.85-7.58,4.85-.3-1.85,7.58,6.5-.4q-4.35,17.31-7.76,26.11a8.22,8.22,0,0,1-2.55,3.27,7.5,7.5,0,0,1-3.7,1.31,11.23,11.23,0,0,1-3.15-.31l.67-4.56a9.33,9.33,0,0,0,3.53.57,1.51,1.51,0,0,0,1-.73,12.82,12.82,0,0,0,1.26-3c1.77-5.58,3.43-11.58,5-18l-2,.12a72.94,72.94,0,0,1-6.29,16.44,35.34,35.34,0,0,1-7.8,9.57l-1.93-2.45-.07.79q-8.93,1.48-19.78,2.84l.3-4.54c3-.27,5.83-.53,8.47-.81l.37-1.52-7.91.49,1-4,7.91-.49.31-1.3-7.9.48,3.49-14.32,7.91-.48.24-1-8.57.53,1-4.08,8.57-.53.37-1.52c-2.33.35-4.69.67-7.08.94l-.49-3.83c7-.8,13.47-1.74,19.49-2.86Zm-17,18.89.28-1.14-3.56.22-.28,1.14Zm1.2-4.93.29-1.18-3.56.22L511,31.42Zm3.19,4.66,3.39-.21.28-1.14-3.39.21Zm1.2-4.93,3.39-.21.29-1.18-3.39.21Z"/><path class="cls-3" d="M573.48,11l-.56,2.32,13.87-.86-1,4-5.22.32.52,2.08c-1.53.6-3.11,1.19-4.62,1.7,1.45.41,2.78.82,4.06,1.24l-2.09,2.41,5.42-.33-1,4.25-27,1.67-1.24,5.1a36.82,36.82,0,0,1-3.41,8.63,42.68,42.68,0,0,1-4.3,6.78l-3.33-2.74a36.89,36.89,0,0,0,4-6,30.42,30.42,0,0,0,2.38-6.41l2.28-9.35,4.26-.27-.34-2.75c2.06-.42,4.08-.88,6.09-1.42-1.68-.31-3.41-.58-5.21-.88l1.69-2.38-4.52.27,1-4L568,13.63l.57-2.32Zm-10,19.9c-.3.56-.63,1.08-.89,1.51l4.72-.29.59-2.44,4.51-.28-.59,2.44,9.06-.56-1,4.13-9.07.56-.48,2,8.11-.5-1,3.95-8.12.51L568.9,44l10.35-.64-1,4.13-27,1.67,1-4.13,12.13-.75.51-2.11-9.36.58,1-4,9.36-.57.48-2-6.79.42c-.52.61-1,1.18-1.52,1.71l-3.32-2.08A30.73,30.73,0,0,0,560,29.85Zm-3.4-5.59,14.57-.9c-1.74-.56-3.61-1.07-5.54-1.53Q564.74,24.23,560.13,25.32ZM576.55,17l-12.5.77c2.26.4,4.45.81,6.46,1.26C572.54,18.41,574.58,17.7,576.55,17Z"/><path class="cls-3" d="M589.41,78.46a68.48,68.48,0,0,1-12.91,6.13L575.07,80a60,60,0,0,0,11.25-4.53Zm28.2-33.13-6.18,23.53,2.9-.21-1.09,4.46-37.34,2.8L577,71.45l3.06-.23L585,48.56A39.15,39.15,0,0,0,593.17,46l1.39,4.12a34.32,34.32,0,0,1-5.71,2l-.78,3.36,4.8-.36-1,4.3-4.72.35L586.35,63l4.67-.35-1,4.26-4.59.34-.84,3.62,5.46-.41,3.12-8.63,4.38-.33-3.16,8.64,2.32-.18,3.27-10.58-3.06.23-.21.68-4.18.31,4.73-14.91,4.22-.32-1,3,5.88-.44-1,4.26-6.2.46-.86,2.67,7.08-.53-4.43,14.84,6-.45,1-3.63-4.18.32,1-4.26,4.26-.32.88-3.29-4.51.34,1-4.3,4.59-.34.93-3.46-5,.37L608.1,46ZM606.62,76a36.17,36.17,0,0,0,5,1l-3.93,5.13a31.33,31.33,0,0,1-5.2-1.67,34.73,34.73,0,0,1-5.35-2.7l4.48-3.4A37,37,0,0,0,606.62,76Z"/><path class="cls-3" d="M630.81,45.12l.53-2.15,4.38-.33-.52,2.15,14.68-1.1.52-2.15,4.38-.33-.52,2.15,5.63-.42-1,4.29-5.62.43-3.05,12.51,6.78-.51-1,4.25-7.16.54a8.6,8.6,0,0,0,1.55,1,19,19,0,0,0,5.26,1.75l-3.57,5a17.75,17.75,0,0,1-4.51-2.3l-.62,2.52-9,.68-.52,2.11,13.24-1-1.09,4.47-31,2.33,1.09-4.47,13.11-1,.51-2.11-9.22.7.61-2.53c-1.95,1.18-3.82,2.19-5.66,3.07l-1.47-3.78a48.71,48.71,0,0,0,7-3.41,24.87,24.87,0,0,0,2.19-1.32l-7.32.54,1-4.25,6.45-.48,3-12.51-5.5.41,1-4.3Zm3.42,23.81.48-2,4.68-.35-.49,2,6.41-.48a12.22,12.22,0,0,1-2.63-3.2l-10.26.77a37.34,37.34,0,0,1-4.52,3.73Zm11.55-8.44.33-1.34-14.68,1.1-.33,1.35Zm1.33-5.43.36-1.47-14.68,1.1-.36,1.47Zm1.36-5.6.36-1.47-14.68,1.1-.36,1.47Z"/><path class="cls-3" d="M678,41.75l-1.09,4.46-4.88.37c-1.17,2.77-2.33,5.38-3.53,7.83l6.86-.52-4.47,18.37a38,38,0,0,0,2.35-3.32,33.47,33.47,0,0,0,3-6.39l3.8.71a45.41,45.41,0,0,1-2,4.82,6.64,6.64,0,0,0,2.83,2.52s0,0,.08,0l2.45-10.06-9.22.69,1-4,23.12-1.73-.76,3.11A28.85,28.85,0,0,1,694,63.16l-2.7-1.9c.31-.44.62-.88.9-1.35l-4.47.33-1,4,7.61-.57-1,4.09-7.61.57L685,71.53a42.73,42.73,0,0,0,6.11-.09,23.7,23.7,0,0,0,3.93-.62l-2.49,4.9-2.52.19c-5.34.4-9,.14-11-.79a8.71,8.71,0,0,1-3.6-2.54,39.37,39.37,0,0,1-3.79,4.87l-2.59-3,1.36-1.59-5.5.41-.77,3.16-4.17.32,3.14-12.89c-.27.43-.54.86-.79,1.21L660,62.16a92.83,92.83,0,0,0,7.78-15.27l-3.19.24,1.09-4.46ZM667.53,68.87l2.53-10.36-1.62.12L665.92,69ZM682.3,42.08l.69-2.82,4-.3-.69,2.82,2.73-.21-1,4.09-2.11.16a25.74,25.74,0,0,1,2.41,2.59L685.11,52c-.3-.6-.57-1.15-.84-1.71l-1.48,6.06-4,.31,1.21-5a35.15,35.15,0,0,1-3.33,3.35L674.81,52A29,29,0,0,0,679,48.33a22.57,22.57,0,0,0,2-2.14l-3.26.24,1-4.08Zm11.33-.85.69-2.82,3.84-.29-.68,2.82,4-.3-1,4.08-3.06.23a16.21,16.21,0,0,0,3,4.16l-3.32,3.81a13.61,13.61,0,0,1-1.68-3.6l-1.52,6.24-3.85.29,1.16-4.76a34.81,34.81,0,0,1-3.07,3.45l-1.77-3.09a33.79,33.79,0,0,0,4-3.77,24.16,24.16,0,0,0,2-2.35l-3.19.24,1-4.08Z"/><path class="cls-3" d="M718.65,38l-.89,3.62q-3,4.7-5.81,8.38l5.33-.4C715,56.42,712.6,61.51,710.21,65c-.27.44-.57.83-.82,1.18a4.11,4.11,0,0,0,1.15.95c1.88,1.3,6.45,1.7,13.8,1.19,3.72-.28,7.77-.75,12.2-1.41l-2.86,5.22-10.46.78q-12.21.86-15.73-1.75a4.42,4.42,0,0,1-1.25-1,58.75,58.75,0,0,1-5.56,5.29l-2.26-3.22A41.73,41.73,0,0,0,704.19,67a17.35,17.35,0,0,1-1.22-7l3.75-1.73a20.55,20.55,0,0,0,.81,4.32,40.47,40.47,0,0,0,3.79-8.22l-3.18.23c-.62.71-1.22,1.34-1.77,1.92l-2.83-2a90.89,90.89,0,0,0,8.56-11.48l-5.87.44,1.12-4.63ZM728.2,38l.52-2.14,4.51-.34-.52,2.14L741.1,37l-1.44,5.94,2.6-.19-1,4.25-2.61.2-1.45,5.94-8.39.63-.32,1.3,9.39-.7-1.05,4.29-9.39.71-.36,1.47,10.51-.79-1,4.26L726,65.1l-.61,2.48-4.5.34.6-2.49-9.72.73,1-4.25,9.72-.73.36-1.47-7.78.58,1-4.3,7.77-.58.32-1.3-6.95.52,1-4.3,7-.52.4-1.64-9.23.69,1-4.26,9.22-.69.4-1.64-6.78.51,1-4.3Zm1.62,11.5,3.89-.29.4-1.64-3.89.29Zm1.44-5.9,3.89-.29.4-1.64-3.89.29Z"/><path class="cls-3" d="M754.07,69.77l-8.73.66L745,71.94l-4.38.33L744.08,58l13.11-1Zm4.07-18.7-1.09,4.46-12.28.92L745.85,52Zm4.78-11.82-1.12,4.59-16,1.21,1.12-4.6Zm-3.21,6-1.09,4.47-12.28.92,1.08-4.46Zm-9,20.57,1-4.3-4.35.33-1,4.29ZM762.3,34l-1.08,4.42-12,.9,1.08-4.43ZM779,48.88l-.84,3.46a49.39,49.39,0,0,1-7.2,9.55,19.68,19.68,0,0,0,6.89,2.87l-3.61,5a19.84,19.84,0,0,1-7.63-4.18,38.78,38.78,0,0,1-10.32,5.52l-1.15-4.29A35.3,35.3,0,0,0,764,62.53a19.38,19.38,0,0,1-3.06-7.79l-1.82.14,1.12-4.59Zm1.32-16.43L778.21,41c-.26,1-.29,1.67-.09,1.87a1.44,1.44,0,0,0,.64,0,.77.77,0,0,0,.39-.11,1.33,1.33,0,0,0,.38-.4,33.36,33.36,0,0,0,1.1-3.52l3.66,1.84c-.84,2.79-1.71,4.51-2.7,5.25a5.07,5.07,0,0,1-1.6.74,16,16,0,0,1-2.24.33c-2.19.16-3.46,0-3.85-.33-1.19-.12-1.48-1.46-.85-4l1.28-5.27-4.21.32-.49,2A18.21,18.21,0,0,1,767,45.85a18.73,18.73,0,0,1-3.79,3.88l-3-3.16a14.84,14.84,0,0,0,3.09-2.67A10,10,0,0,0,765.12,40l1.61-6.57L769,33.3Zm-12.2,26.76a30.78,30.78,0,0,0,4.51-5.34l-6.83.51A11.51,11.51,0,0,0,768.09,59.21Z"/><path class="cls-3" d="M781.82,65.5l6.78-27.84,21-1.58-1.21,5-15.84,1.19-1.48,6.06,15.34-1.15-1.21,5-15.34,1.15-1.67,6.87,16.37-1.23-1.21,5Z"/><path class="cls-3" d="M825.23,39.78l-5.57,22.87-5.21.4L820,40.18l-8.61.64,1.21-5L835,34.17l-1.21,5Z"/><path class="cls-3" d="M842.22,38.51l-1.48,6.06,15.35-1.15-1.21,5-15.35,1.15-2.88,11.84-5.13.38,6.78-27.84,21-1.57-1.21,5Z"/><path class="cls-3" d="M871,27.08l.52-2.14,4.38-.33-.52,2.14,14.68-1.1.52-2.15,4.39-.33-.52,2.15,5.62-.42-1.05,4.3-5.62.42-3,12.51,6.78-.51-1,4.25-7.16.54a8.69,8.69,0,0,0,1.56,1,18.76,18.76,0,0,0,5.25,1.75l-3.57,5a17.94,17.94,0,0,1-4.51-2.31l-.61,2.52L878,55l-.51,2.1,13.23-1-1.09,4.46-31,2.33,1.09-4.46,13.11-1,.52-2.1-9.23.69.62-2.53c-2,1.18-3.82,2.19-5.66,3.07l-1.48-3.77a49.7,49.7,0,0,0,7-3.42,24.87,24.87,0,0,0,2.19-1.32l-7.32.55,1-4.26,6.45-.48L870,31.38l-5.5.41,1-4.29Zm3.41,23.81.49-2,4.67-.35-.48,2,6.41-.48a12,12,0,0,1-2.64-3.19l-10.25.77a39.43,39.43,0,0,1-4.53,3.73ZM886,42.46l.33-1.35-14.69,1.1-.32,1.35ZM887.32,37l.36-1.47L873,36.65l-.36,1.48Zm1.37-5.6L889,30l-14.68,1.1L874,32.52Z"/><path class="cls-3" d="M905,36.81l-1.45-4.56a103.82,103.82,0,0,0,21.85-11.52l3,2.88c-.3.23-.6.45-.89.64a38.14,38.14,0,0,0,5.33,2.83,41.47,41.47,0,0,0,8,2.7l-3.94,5c-1.24-.4-2.43-.85-3.61-1.34l-.52,2.15-9.72.73-.95,3.91,13.89-1-1.13,4.63-13.89,1.05-2.17,8.88,15.68-1.17-1.12,4.59-35.86,2.69,1.12-4.59,15.35-1.15,2.16-8.89-13.57,1,1.13-4.63,13.57-1,.95-3.92-9.51.71.6-2.44C907.84,35.61,906.43,36.21,905,36.81Zm6.49,15-5,2.32a20,20,0,0,0-1.37-5.39L910,46.28A22.14,22.14,0,0,1,911.48,51.83Zm2.87-19.44,14.56-1.09a40.84,40.84,0,0,1-6-3.89Q918.81,30.07,914.35,32.39ZM931.22,46.3a42.93,42.93,0,0,1-4.38,6.32l-4-2.14A39.1,39.1,0,0,0,927,45Z"/></g></g></svg>